<svg viewBox="0 0 124 177" width="124" height="177" xmlns="http://www.w3.org/2000/svg" fill-rule="evenodd" clip-rule="evenodd" stroke-linejoin="round" stroke-miterlimit="2"><path d="M121.207 101.507c.319-.03.503-.055.503-.055s-7.557-.841-18.898-1.44c-5.67-.326-12.284-.598-19.371-.778-3.544-.068-7.203-.219-10.922-.222-3.724-.031-7.501-.062-11.283-.091-3.78.024-7.561.05-11.28.077-3.72.004-7.382.141-10.923.203-7.088.174-13.705.432-19.371.748-11.341.58-18.897 1.408-18.897 1.408v.15h120.442z" fill="#393536" fill-rule="nonzero"/><path d="M74.512 2.35c-3.041.736-40.585 10.657-63.379 34.303-20.202 20.953 20.987 66.793 58.971 62.876 36.078-3.721 83.803-116.365 4.408-97.179" fill="#ee2238" fill-rule="nonzero"/><path d="M48.4 28.045c-.408.533-17.38 21.729-17.168 43.784.207 22.052 47.205 22.745 59.16 10.525 18.576-18.989-.26-108.536-41.992-54.309" fill="#fbbf09" fill-rule="nonzero"/><path d="M72.927 41.693c-.404-.017-15.778-1.722-28.027 4.911-12.25 6.635-.053 29.496 9.686 36.583 11.634 8.469 64.348-39.708 18.341-41.494" fill="#fff" fill-rule="nonzero"/><g fill="#393536" fill-rule="nonzero"><path d="M5.893 121.1h10.176v39.345H5.893zM22.989 160.445h14.022c9.881 0 18.874-5.621 18.874-21.004 0-12.543-7.336-18.341-19.11-18.341H22.989v39.345zm10.177-31.417h3.313c4.911 0 9.23 2.308 9.23 11.419 0 8.106-3.314 12.129-8.579 12.129h-3.964v-23.548zM60.39 160.445h19.457v-6.603H67.962v-5.019h9.949v-6.603h-9.949v-4.446h11.577v-6.603H60.39v29.274zM118.472 140.861c0-15.028-7.928-20.471-17.039-20.471-8.579 0-18.282 5.325-18.282 20.471 0 13.371 6.508 20.294 17.513 20.294 10.709 0 17.808-6.863 17.808-20.294zm-24.849-.414c0-5.857 1.893-11.596 7.218-11.596 5.976 0 7.277 7.218 7.277 12.188 0 5.975-1.597 11.714-7.04 11.714-6.272 0-7.455-6.804-7.455-12.306z"/></g><path fill="#ee2238" d="M60.434 121.175h19.03v6.564h-19.03z"/><path d="M5.306 175.698h.995c1.012 0 1.335-.464 1.335-1.078 0-.68-.48-1.061-1.294-1.061H5.306v2.139zm0-2.653h.805c.895 0 1.268-.381 1.268-.929 0-.739-.522-.887-1.21-.887h-.863v1.816zm1.012-2.331c.871 0 1.724.266 1.724 1.352 0 .598-.356.979-.886 1.186.688.116 1.168.58 1.168 1.36 0 1.061-.704 1.617-2.014 1.617H4.651v-5.515h1.667zM11.516 175.773c1.202 0 1.575-1.136 1.575-2.264 0-.978-.323-2.33-1.584-2.33-1.21 0-1.658 1.152-1.658 2.28 0 1.095.298 2.314 1.667 2.314m-.067.556c-1.418 0-2.272-.954-2.272-2.845 0-2.131 1.227-2.87 2.355-2.87 1.195 0 2.231.755 2.231 2.87 0 1.899-.896 2.845-2.314 2.845M15.544 170.714v3.798c0 .971.564 1.261 1.343 1.261.764 0 1.286-.39 1.286-1.219v-3.84h.655v3.964c0 1.062-.804 1.65-1.982 1.65-1.285 0-1.957-.514-1.957-1.799v-3.815h.655zM21.92 173.434c.746 0 1.219-.422 1.219-1.186 0-.92-.564-1.003-1.576-1.003h-.721v2.189h1.078zm-1.078 2.795h-.655v-5.515h1.749c1.161 0 1.874.406 1.874 1.484 0 .946-.572 1.361-1.044 1.518.29.083.373.216.531.565l.895 1.948h-.697l-.812-1.733c-.141-.299-.299-.531-.639-.531h-1.202v2.264zM28.9 175.823c-.456.306-1.111.505-1.832.505-1.451 0-2.347-.92-2.347-2.844 0-2.147 1.244-2.869 2.347-2.869.564 0 1.285.174 1.849.895l-.473.374c-.365-.432-.796-.705-1.385-.705-1.044 0-1.666.854-1.666 2.247 0 1.493.53 2.363 1.732 2.363.432 0 .921-.149 1.12-.29v-1.642h-1.252v-.564H28.9v2.53zM32.249 175.773c1.202 0 1.575-1.136 1.575-2.264 0-.978-.323-2.33-1.584-2.33-1.21 0-1.658 1.152-1.658 2.28 0 1.095.298 2.314 1.667 2.314m-.067.556c-1.418 0-2.272-.954-2.272-2.845 0-2.131 1.227-2.87 2.355-2.87 1.195 0 2.231.755 2.231 2.87 0 1.899-.896 2.845-2.314 2.845M39.611 175.823c-.456.306-1.112.505-1.833.505-1.451 0-2.347-.92-2.347-2.844 0-2.147 1.245-2.869 2.347-2.869.564 0 1.286.174 1.849.895l-.472.374c-.365-.432-.796-.705-1.385-.705-1.045 0-1.667.854-1.667 2.247 0 1.493.531 2.363 1.734 2.363.431 0 .92-.149 1.119-.29v-1.642h-1.253v-.564h1.908v2.53zM45.032 170.714v5.515h-.713l-2.811-4.611H41.5v4.611h-.647v-5.515h.763l2.761 4.545h.009v-4.545h.646zM46.432 170.714h3.085v.564h-2.43v1.858h2.09v.564h-2.09v1.965h2.488v.564h-3.143v-5.515zM51.539 173.194h2.173v.547h-2.173zM59.398 170.714v.564h-2.653v1.858h2.197v.564h-2.197v2.529h-.655v-5.515h3.308zM61.993 173.434c.746 0 1.219-.422 1.219-1.186 0-.92-.564-1.003-1.576-1.003h-.721v2.189h1.078zm-1.078 2.795h-.655v-5.515h1.75c1.16 0 1.873.406 1.873 1.484 0 .946-.572 1.361-1.044 1.518.29.083.373.216.531.565l.895 1.948h-.697l-.812-1.733c-.141-.299-.299-.531-.639-.531h-1.202v2.264zM66.03 173.998h1.857l-.937-2.695-.92 2.695zm-1.394 2.231l1.941-5.515h.78l1.981 5.515h-.688l-.605-1.7h-2.173l-.588 1.7h-.648zM74.403 170.714v5.515h-.713l-2.811-4.611h-.008v4.611h-.647v-5.515h.763l2.761 4.545h.009v-4.545h.646zM79.394 175.167l.357.432c-.507.48-1.12.729-1.799.729-1.452 0-2.381-.92-2.381-2.852 0-2.14 1.31-2.861 2.43-2.861.58 0 1.277.191 1.791.912l-.465.357c-.356-.424-.779-.705-1.351-.705-1.062 0-1.733.854-1.733 2.256 0 1.45.555 2.338 1.741 2.338.514 0 .954-.199 1.41-.606M84.907 170.714v5.515h-.655v-2.587h-2.878v2.587h-.655v-5.515h.655v2.356h2.878v-2.356h.655zM86.307 170.714h3.084v.564h-2.429v1.858h2.09v.564h-2.09v1.965h2.487v.564h-3.142v-5.515zM91.413 173.194h2.173v.547h-2.173zM99.555 175.167l.356.432c-.506.48-1.12.729-1.799.729-1.451 0-2.38-.92-2.38-2.852 0-2.14 1.31-2.861 2.429-2.861.581 0 1.278.191 1.792.912l-.465.357c-.356-.424-.779-.705-1.352-.705-1.061 0-1.733.854-1.733 2.256 0 1.45.556 2.338 1.742 2.338.514 0 .953-.199 1.41-.606M102.738 175.773c1.202 0 1.575-1.136 1.575-2.264 0-.978-.323-2.33-1.584-2.33-1.21 0-1.658 1.152-1.658 2.28 0 1.095.298 2.314 1.667 2.314m-.067.556c-1.418 0-2.272-.954-2.272-2.845 0-2.131 1.227-2.87 2.355-2.87 1.195 0 2.231.755 2.231 2.87 0 1.899-.896 2.845-2.314 2.845M110.431 170.714h.797l.307 5.515h-.631l-.249-4.586h-.008l-1.609 3.914h-.555l-1.559-3.897h-.009l-.248 4.569h-.631l.324-5.515h.812l1.601 4.047h.009l1.649-4.047zM116.185 170.714v.564h-1.676v4.951h-.655v-4.951h-1.642v-.564h3.973zM119.185 168.791c.199.108.406.256.406.431 0 .149-.141.257-.273.348-.249.174-.672.415-1.194.722l-.199-.274 1.26-1.227zm-2.123 1.923h3.085v.564h-2.43v1.857h2.09v.565h-2.09v1.965h2.488v.564h-3.143v-5.515z" fill="#393536" fill-rule="nonzero"/></svg>