<?xml version="1.0" encoding="UTF-8"?>
<svg fill="none" version="1.1" height="600" viewBox="0 0 1002 600" xmlns="http://www.w3.org/2000/svg">
<g rx="0" ry="0">
<g class="fills">
<rect y="400" width="1002" height="200" rx="0" ry="0" fill="#009839"/>
</g>
<g class="fills">
<rect y="200" width="1002" height="200" rx="0" ry="0" fill="#e13c32"/>
</g>
<g class="fills">
<rect width="1002" height="200" rx="0" ry="0" fill="#0073ce"/>
</g>
<g class="fills">
<path d="m343.14 100c110.38 0 200 89.617 200 200s-89.617 200-200 200-200-89.617-200-200 89.617-200 200-200z" fill="#fedc00"/>
</g>
<g width="40pt" height="100pt" rx="0" ry="0" fill="#000">
<g class="fills">
<path d="m415.29 465.58c-18.128-22.288-39.595-41.669-63.496-58.082v-5c-7 1.5-14 0-14 0v5c-25.014 16.6-47.484 36.118-66.857 58.708 22.966 9.674 47.788 14.541 72.83 14.282 24.605-0.098 48.943-4.958 71.588-14.282l-0.065-0.626z" fill="#000" style="isolation:isolate"/>
</g>
<g class="fills">
<path d="m340.78 233.11 4.675 0.047c22.699 0.072 27.382-8.806 27.678-20.74l-0.498-5.468c-2.755-10.437-16.287-17.334-23.595-20.942l-1.92-15.228c4.339-2.559 7.304-6.814 8.13-11.671 1.409-0.727 2.243-1.638 3.885-2.7 2.983-1.836 13.081-10.865 11.568-11.855-1.516-0.99-7.542 4.781-10.459 3.651-3.048-0.475-6.16 0.421-8.427 2.455-0.838 1.199-3.914-0.713-5.965-0.5l-1.061 0.082 0.173-30.744-2.628 0.033-0.195 30.92-0.347-0.223c-14.676-0.367-18.124 18.824-12.351 21.042-2.419 3.467-7.896 6.293-7.376 8.284 0.52 1.987 10.658-5.948 17.463-7.229l-1.873 13.334c-5.618 3.316-19.623 10.473-21.753 20.725l-0.538 5.375c-0.484 12.201 2.74 21.096 25.414 21.352z" fill="#000" style="isolation:isolate"/>
</g>
<g class="fills">
<path d="m317.38 372.85c-1.17 10.685 4.574 20.97 14.46 25.87 9.878 4.899 21.857 3.398 30.125-3.77 8.275-7.171 11.135-18.529 7.192-28.576-3.935-10.048-13.86-16.715-24.962-16.766-14.023-0.716-26.007 9.67-26.815 23.242z" fill="#000" style="isolation:isolate"/>
</g>
<g class="fills">
<path d="m370.52 293.98c1.17-10.685-4.578-20.97-14.46-25.87-9.878-4.9-21.858-3.398-30.126 3.769-8.275 7.171-11.134 18.529-7.192 28.577 3.936 10.048 13.861 16.715 24.96 16.765 14.005 0.673 25.962-9.691 26.818-23.241z" fill="#000" style="isolation:isolate"/>
</g>
<g class="fills">
<path d="m343.41 331.9c13.557 0.101 27.031-2.063 39.834-6.397-25.515-8.374-53.117-8.702-78.831-0.926 12.38 4.875 25.627 7.366 38.997 7.323z" fill="#000" style="isolation:isolate"/>
</g>
<g class="fills">
<path d="m382.31 372.85c0.928-1.332 1.101-3.452 1.484-5.436 1.599-22.727 3.823-32.821-25.79-33.044l-29.956-0.159c-29.956-0.155-24.407 13.173-23.295 32.433 0.336 1.965 0.484 4.197 1.676 5.364 3.025-9.378 1.227-25.496 21.063-25.056l32.884 0.126c20.627-0.116 19.038 16.408 21.934 25.772z" fill="#000" style="isolation:isolate"/>
</g>
<g class="fills">
<path d="m304.43 255.83c12.401 5.015 25.692 7.632 39.13 7.704 13.525 0.137 26.966-2.023 39.718-6.376-25.533-8.359-53.146-8.701-78.895-0.968l0.047-0.36z" fill="#000" style="isolation:isolate"/>
</g>
<g class="fills">
<path d="m327.32 247.69 29.956 0.155c29.956 0.158 27.205-10.275 26.205-37.613-0.358-2.077-0.275-4.353-1.466-5.519-1.177 8.161-1.466 30.87-21.468 30.812l-32.906-0.241c-19.955-0.126-19.464-17.949-22.312-27.381-0.932 1.335-1.109 4.615-1.127 7.225-0.036 11.131-6.239 32.407 23.118 32.562z" fill="#000" style="isolation:isolate"/>
</g>
</g>
</g>
</svg>
