<svg width="18" height="18" viewBox="0 0 18 18" fill="none" xmlns="http://www.w3.org/2000/svg">
<circle cx="9" cy="9" r="9" fill="#0053B3"/>
<path d="M12.2817 7.86533C12.5073 7.86533 12.7455 7.9 13 7.97783L11.5667 4.1125C11.3125 4.03467 11.0738 4 10.8487 4C8.959 4 7.974 6.44067 6.0845 6.44067C5.85883 6.44067 5.62067 6.40583 5.36617 6.32817L5 6.45883L7.74883 14H8.18433L6.8075 10.2103C7.06133 10.2882 7.292 10.306 7.51733 10.306C9.40733 10.3058 10.3922 7.86533 12.2817 7.86533ZM6.66567 9.8265L5.53183 6.71617C6.83883 7.0425 7.761 6.2425 8.68233 5.47383C9.37867 4.893 10.0262 4.33267 10.8485 4.33267C10.9988 4.33267 11.1548 4.35133 11.3137 4.38867L12.4823 7.54017C12.4156 7.53491 12.3486 7.5323 12.2817 7.53233C11.2143 7.53233 10.4362 8.193 9.68367 8.83183C8.99267 9.4185 8.33983 9.97283 7.51733 9.97283C7.367 9.973 6.985 9.94667 6.66567 9.8265" fill="white"/>
<path d="M5 6.5L6.39572 6.48415L8 6.00001L9 5.00001L9.88889 4.35587C10.9503 4.10717 11 4 11.5 4.5L13 8C13 8 12.5 7 10.5 8.5L9 9.50001L8.5 10L7.66667 9.99998L6.5 10L6.39573 9.58334L5 6.5Z" fill="white"/>
</svg>
