<svg width="80" height="80" viewBox="0 0 80 80" fill="none" xmlns="http://www.w3.org/2000/svg">
<style>
    path[stroke="#77BB64"] {
      stroke: #A94645;
    }
    path[fill="#E6FEDA"] {
      fill: #FEE9E7;
    }
</style>
<path d="M63.2695 24.9015C63.0344 24.8326 62.8234 24.6989 62.6607 24.5157C62.4979 24.3325 62.39 24.1072 62.3493 23.8656C61.9144 19.2618 59.8947 14.9517 56.6352 11.6715C53.3246 8.36414 48.9983 6.26557 44.3514 5.71294C39.7045 5.16031 35.0067 6.1857 31.0128 8.62438C27.0491 11.0419 24.0389 14.7507 22.4885 19.1268C22.3865 19.3327 22.2272 19.5047 22.0297 19.622C21.8322 19.7393 21.605 19.797 21.3754 19.7881C19.1575 19.9351 16.989 20.5095 14.9891 21.4797C13.0027 22.4442 11.2243 23.7882 9.75439 25.436C8.29399 27.0655 7.17412 28.9705 6.46063 31.0391C5.74714 33.1077 5.45442 35.298 5.59969 37.4813C5.90276 41.8785 7.96908 45.9781 11.3579 48.8819C24.0809 59.7866 56.7895 60.6187 69.6338 49.3117C72.2682 47.0192 73.9507 43.825 74.3514 40.3559C74.752 36.8867 73.8418 33.3931 71.7993 30.5605C69.7371 27.7026 66.705 25.693 63.2695 24.907V24.9015Z" fill="#E6FEDA"/>
<path d="M11.3578 48.8819C9.68862 47.4595 8.31973 45.7187 7.33105 43.7613C6.34238 41.8038 5.75376 39.6689 5.59959 37.4813C5.45357 35.2984 5.74541 33.1083 6.45795 31.0397C7.17049 28.9712 8.28935 27.0659 9.74877 25.436C11.2203 23.7876 13.0006 22.4436 14.989 21.4797C16.9889 20.5095 19.1574 19.9351 21.3753 19.7881C21.604 19.7924 21.8293 19.7327 22.026 19.6159C22.2226 19.4991 22.3828 19.3297 22.4884 19.1268C24.0374 14.7515 27.0456 11.0429 31.0071 8.62438C35.0011 6.1857 39.6989 5.16031 44.3458 5.71294C48.9927 6.26557 53.319 8.36414 56.6296 11.6715C59.9027 14.9776 61.9194 19.2756 62.3492 23.8656C62.3845 24.11 62.4903 24.3387 62.6538 24.5237C62.8173 24.7087 63.0312 24.8419 63.2694 24.907C66.7188 25.706 69.7549 27.7172 71.7937 30.5605C73.8368 33.3925 74.748 36.8857 74.3484 40.3548C73.9487 43.8239 72.2672 47.0185 69.6337 49.3117C67.3965 51.2789 64.5643 52.8768 61.3353 54.1221" stroke="#77BB64" stroke-width="4" stroke-linecap="round" stroke-linejoin="round"/>
<path d="M20.5874 19.8046C27.139 19.8046 32.9964 24.1246 34.8478 28.0699" stroke="#77BB64" stroke-width="4" stroke-linecap="round" stroke-linejoin="round"/>
<path d="M33.0736 74.1628V46.2922C33.0736 45.0138 32.192 44.5234 31.1671 45.2783C28.7811 47.025 24.6375 50.502 21.5518 55.4722" stroke="#77BB64" stroke-width="4" stroke-linecap="round" stroke-linejoin="round"/>
<path d="M44 44.92V72.7907C44 74.069 44.8761 74.5594 45.9065 73.8045C48.2869 72.0578 52.4306 68.5809 55.5163 63.6107" stroke="#77BB64" stroke-width="4" stroke-linecap="round" stroke-linejoin="round"/>
</svg>
