<svg width="81" height="80" viewBox="0 0 81 80" fill="none" xmlns="http://www.w3.org/2000/svg">
<style>
    path[stroke="#77BB64"] {
      stroke: #A94645;
    }
    path[fill="#E6FEDA"] {
      fill: #FEE9E7;
    }
</style>
<path d="M40.3332 33.0566C60.0376 33.0566 71.1242 28.1525 71.1242 19.4244C71.1242 10.7017 60.0432 5.79211 40.3332 5.79211C20.6232 5.79211 9.53662 10.6962 9.53662 19.4244C9.53662 28.1525 20.6232 33.0566 40.3332 33.0566Z" fill="white"/>
<path fill-rule="evenodd" clip-rule="evenodd" d="M71.0249 20.8515C69.8512 28.6815 58.93 33.0566 40.333 33.0566C21.2071 33.0566 10.2032 28.4391 9.56406 20.1903C9.17834 25.3919 8.90283 31.7011 8.90283 36.754C8.90283 43.7409 9.71834 52.4305 10.3961 58.4642C10.9196 63.1038 13.5039 67.2695 17.7688 69.1815C23.0034 71.5234 31.0318 74.2068 40.333 74.2068C49.6343 74.2068 57.6571 71.5234 62.8973 69.1815C67.1622 67.2695 69.7465 63.1038 70.2645 58.4587C70.9477 52.4305 71.7577 43.7464 71.7577 36.7485C71.7577 31.3595 71.4436 26.0587 71.0194 20.8515H71.0249Z" fill="#E6FEDA"/>
<path d="M40.3332 33.0566C60.0376 33.0566 71.1242 28.1525 71.1242 19.4244C71.1242 10.7017 60.0432 5.79211 40.3332 5.79211C20.6232 5.79211 9.53662 10.6962 9.53662 19.4244C9.53662 28.1525 20.6232 33.0566 40.3332 33.0566Z" stroke="#77BB64" stroke-width="4" stroke-linecap="round" stroke-linejoin="round"/>
<path d="M9.16748 45.5096C18.8226 50.4199 29.5012 52.9794 40.3332 52.9794C51.1651 52.9794 61.8438 50.4199 71.4989 45.5096" stroke="#77BB64" stroke-width="4" stroke-linecap="round" stroke-linejoin="round"/>
<path d="M9.56943 20.1351C9.15937 25.6656 8.93883 31.2084 8.9082 36.7539C8.9082 43.7408 9.7182 52.4304 10.396 58.4641C10.9194 63.1037 13.5037 67.2694 17.7686 69.1815C23.0088 71.5288 31.0372 74.2068 40.3329 74.2068C49.6341 74.2068 57.657 71.5288 62.8972 69.1815C67.1621 67.2749 69.7464 63.1037 70.2698 58.4641C70.9476 52.4304 71.7576 43.7408 71.7576 36.7539C71.7576 31.3649 71.449 26.0641 71.0247 20.8625" stroke="#77BB64" stroke-width="4" stroke-linecap="round" stroke-linejoin="round"/>
</svg>
