<svg width="80" height="80" viewBox="0 0 80 80" fill="none" xmlns="http://www.w3.org/2000/svg">
<style>
    path[stroke="#77BB64"] {
      stroke: #A94645;
    }
    path[fill="#E6FEDA"] {
      fill: #FEE9E7;
    }
</style>
<path d="M25.1279 43.4213C21.717 43.4985 18.2787 43.6032 14.7797 43.7354C13.541 43.7664 12.353 44.234 11.4254 45.0557C10.4979 45.8773 9.89047 47.0002 9.71031 48.2262C8.80099 54.7869 8.80099 61.4417 9.71031 68.0023C10.0575 70.537 12.223 72.394 14.7797 72.4931C31.5869 73.1434 48.4129 73.1434 65.2201 72.4931C66.4589 72.4622 67.6468 71.9946 68.5744 71.1729C69.5019 70.3512 70.1093 69.2283 70.2895 68.0023C71.1988 61.4417 71.1988 54.7869 70.2895 48.2262C70.1093 47.0002 69.5019 45.8773 68.5744 45.0557C67.6468 44.234 66.4589 43.7664 65.2201 43.7354C61.7211 43.6032 58.2772 43.4985 54.8664 43.4213C54.7947 41.9805 54.7084 40.5404 54.6075 39.1013C54.5464 38.2392 54.28 37.4042 53.8304 36.6661C53.3808 35.928 52.7612 35.3082 52.0232 34.8585C48.0117 32.4064 44.0003 30.0811 40.2534 28.4446C36.1042 30.0701 32.0101 32.3623 27.9381 34.8585C27.2077 35.3069 26.5951 35.9235 26.1513 36.6568C25.7075 37.39 25.4454 38.2187 25.3868 39.0738C25.2891 40.5241 25.2027 41.9751 25.1279 43.4268V43.4213Z" fill="#E6FEDA"/>
<path d="M14.7797 43.7355C18.2787 43.6032 21.7226 43.4985 25.1279 43.4214V72.8073C21.6777 72.7288 18.2282 72.6241 14.7797 72.4932C13.541 72.4622 12.353 71.9946 11.4254 71.173C10.4979 70.3513 9.89047 69.2284 9.71031 68.0024C8.80099 61.4417 8.80099 54.787 9.71031 48.2263C9.89047 47.0003 10.4979 45.8774 11.4254 45.0557C12.353 44.2341 13.541 43.7665 14.7797 43.7355Z" fill="white"/>
<path d="M65.22 72.4932C61.7155 72.6255 58.2606 72.7302 54.8442 72.8073L54.8663 43.4214C58.2826 43.4985 61.721 43.6032 65.22 43.7355C66.4587 43.7665 67.6467 44.2341 68.5742 45.0557C69.5017 45.8774 70.1092 47.0003 70.2893 48.2263C71.1987 54.787 71.1987 61.4417 70.2893 68.0024C70.1092 69.2284 69.5017 70.3513 68.5742 71.173C67.6467 71.9946 66.4587 72.4622 65.22 72.4932Z" fill="white"/>
<path d="M40.3362 19.5952C45.3064 19.9699 49.7697 19.9699 54.7399 19.5952C55.1889 15.6111 55.1889 11.5892 54.7399 7.60504C49.946 7.23012 45.1301 7.23012 40.3362 7.60504C39.8873 11.5892 39.8873 15.6111 40.3362 19.5952Z" fill="#E6FEDA"/>
<path d="M40.3362 19.5952C45.3064 19.9699 49.7697 19.9699 54.7399 19.5952C55.1889 15.6111 55.1889 11.5892 54.7399 7.60504C49.946 7.23012 45.1301 7.23012 40.3362 7.60504C39.8873 11.5892 39.8873 15.6111 40.3362 19.5952Z" stroke="#77BB64" stroke-width="4" stroke-linecap="round" stroke-linejoin="round"/>
<path d="M25.1279 43.4213C21.717 43.4985 18.2787 43.6032 14.7797 43.7354C13.541 43.7664 12.353 44.234 11.4254 45.0557C10.4979 45.8773 9.89047 47.0002 9.71031 48.2262C8.80099 54.7869 8.80099 61.4417 9.71031 68.0023C10.0575 70.537 12.223 72.394 14.7797 72.4931C31.5869 73.1434 48.4129 73.1434 65.2201 72.4931C66.4589 72.4622 67.6468 71.9946 68.5744 71.1729C69.5019 70.3512 70.1093 69.2283 70.2895 68.0023C71.1988 61.4417 71.1988 54.7869 70.2895 48.2262C70.1093 47.0002 69.5019 45.8773 68.5744 45.0557C67.6468 44.234 66.4589 43.7664 65.2201 43.7354C61.7211 43.6032 58.2772 43.4985 54.8664 43.4213C54.7947 41.9805 54.7084 40.5404 54.6075 39.1013C54.5464 38.2392 54.28 37.4042 53.8304 36.6661C53.3808 35.928 52.7612 35.3082 52.0232 34.8585C48.0117 32.4064 44.0003 30.0811 40.2534 28.4446C36.1042 30.0701 32.0101 32.3623 27.9381 34.8585C27.2077 35.3069 26.5951 35.9235 26.1513 36.6568C25.7075 37.39 25.4454 38.2187 25.3868 39.0738C25.2891 40.5241 25.2027 41.9751 25.1279 43.4268V43.4213Z" stroke="#77BB64" stroke-width="4" stroke-linecap="round" stroke-linejoin="round"/>
<path d="M40 13.6057V28.4447" stroke="#77BB64" stroke-width="4" stroke-linecap="round" stroke-linejoin="round"/>
<path d="M25.1333 43.4159V72.7522" stroke="#77BB64" stroke-width="4" stroke-linecap="round" stroke-linejoin="round"/>
<path d="M40 61.1201V72.9781" stroke="#77BB64" stroke-width="4" stroke-linecap="round" stroke-linejoin="round"/>
<path d="M54.8442 43.4159V72.7522" stroke="#77BB64" stroke-width="4" stroke-linecap="round" stroke-linejoin="round"/>
</svg>
