<svg width="112" height="112" viewBox="0 0 112 112" fill="none" xmlns="http://www.w3.org/2000/svg">
<style>
    path[stroke="#77BB64"] {
      stroke: #A94645;
    }
    path[fill="#E6FEDA"] {
      fill: #FEE9E7;
    }
</style>
<path d="M15.8703 91.3391C18.7091 90.7991 21.6174 89.6419 24.7186 88.5774C29.2777 87.0191 33.8369 85.2602 38.0643 84.1031C39.2674 83.7831 40.5332 83.7831 41.7363 84.1031L68.8443 90.9071L101.329 82.0511L102.872 49.9751C103.215 39.5583 102.452 29.1347 100.596 18.8788C99.8789 14.9291 99.308 10.6245 96.4846 7.77792C95.6823 6.96792 94.7489 6.42021 93.7306 6.5205C89.9737 6.86764 85.9469 7.90907 83.0849 8.69592C79.7523 9.61392 75.9337 11.4885 72.2077 13.2782C70.5962 14.0452 68.7654 14.2174 67.0391 13.7642L39.9003 6.74421C35.1791 5.62564 27.9277 7.45392 23.4689 8.68821C20.6763 9.45964 17.552 10.8868 14.4277 12.3911C13.3014 12.9234 12.3449 14.3042 11.6197 15.7082C10.3623 18.1382 9.84543 20.8614 9.36714 23.5459L8.98143 25.6905C5.84076 43.3021 5.84076 61.3306 8.98143 78.9422C9.722 83.0616 10.2003 87.6748 13.3246 90.4365C14.0806 91.1153 14.9446 91.5165 15.8703 91.3314V91.3391Z"   fill="#E6FEDA"/>
<path d="M102.949 45.8942C102.998 36.8359 102.21 27.7924 100.596 18.8788C99.8789 14.9291 99.308 10.6245 96.4846 7.77795C95.6823 6.96795 94.7489 6.42024 93.7306 6.51281C89.9737 6.85995 85.9469 7.90138 83.0849 8.68824C79.7523 9.61395 75.9337 11.4885 72.2077 13.2705C70.5962 14.0375 68.7654 14.2097 67.0391 13.7565L39.9003 6.73652C35.1791 5.62567 27.9277 7.46167 23.4689 8.68824C20.6763 9.45967 17.552 10.8945 14.4277 12.3911C13.3014 12.9311 12.3449 14.312 11.6197 15.716C10.3623 18.146 9.84543 20.8614 9.36714 23.5537L8.98143 25.6982C5.84076 43.3099 5.84076 61.3383 8.98143 78.95C9.722 83.0617 10.2003 87.6748 13.3246 90.4442C14.0806 91.1154 14.9446 91.5165 15.8703 91.3391C18.7091 90.7991 21.6174 89.6342 24.7186 88.5697C29.2777 87.0114 33.8369 85.2525 38.0643 84.0954C39.2674 83.7758 40.5331 83.7758 41.7363 84.0954L50.7003 86.4174"   stroke="#77BB64" stroke-width="4" stroke-linecap="round" stroke-linejoin="round"/>
<path d="M41.0651 84.0491C40.5177 83.9106 39.9558 83.8381 39.3911 83.8331V7.70855C39.3911 7.38455 39.4066 7.06055 39.4451 6.74426L67.7874 13.8414C68.5897 14.0343 69.4074 14.096 70.2174 14.0188V43.9503"   stroke="#77BB64" stroke-width="4" stroke-linecap="round" stroke-linejoin="round"/>
<path d="M105.371 77.0677C105.371 92.3651 87.6671 105.611 85.7617 105.611C83.8486 105.611 66.1443 92.3651 66.1443 77.0677C66.1443 71.8658 68.2107 66.877 71.889 63.1988C75.5672 59.5205 80.556 57.4541 85.7579 57.4541C90.9597 57.4541 95.9485 59.5205 99.6267 63.1988C103.305 66.877 105.371 71.8658 105.371 77.0677Z" fill="white"/>
<path d="M105.371 77.0677C105.371 92.3651 87.6671 105.611 85.7617 105.611C83.8486 105.611 66.1443 92.3651 66.1443 77.0677C66.1443 71.8658 68.2107 66.877 71.889 63.1988C75.5672 59.5205 80.556 57.4541 85.7579 57.4541C90.9597 57.4541 95.9485 59.5205 99.6267 63.1988C103.305 66.877 105.371 71.8658 105.371 77.0677Z"   stroke="#77BB64" stroke-width="4" stroke-linecap="round" stroke-linejoin="round"/>
<path d="M85.754 77.4611V76.2886"   stroke="#77BB64" stroke-width="4" stroke-linecap="round" stroke-linejoin="round"/>
</svg>
