<svg width="81" height="80" viewBox="0 0 81 80" fill="none" xmlns="http://www.w3.org/2000/svg">
<style>
    path[stroke="#77BB64"] {
      stroke: #A94645;
    }
    path[fill="#E6FEDA"] {
      fill: #FEE9E7;
    }
</style>
<path d="M11.1565 59.5277L4.8749 71.8044C4.65991 72.224 4.55619 72.6918 4.57367 73.1629C4.59115 73.634 4.72924 74.0928 4.97472 74.4953C5.22021 74.8978 5.56488 75.2306 5.97576 75.4618C6.38663 75.693 6.84997 75.8149 7.32143 75.8159H73.3061C73.7794 75.8154 74.2446 75.6931 74.6569 75.4606C75.0692 75.2282 75.4146 74.8934 75.6599 74.4887C75.9052 74.0839 76.0421 73.6228 76.0574 73.1497C76.0726 72.6767 75.9658 72.2077 75.7471 71.7879L69.3388 59.4946C68.8731 58.6008 68.1712 57.8517 67.3095 57.329C66.4477 56.8063 65.4591 56.53 64.4512 56.5302H16.0606C15.0465 56.5301 14.0521 56.81 13.1868 57.3389C12.3215 57.8677 11.619 58.6252 11.1565 59.5277Z" fill="white"/>
<path d="M40.6526 4.18323H40.0079C33.5117 4.18346 27.2568 6.64487 22.5026 11.0719C17.7485 15.4989 14.8481 21.5627 14.3855 28.0424C13.9116 34.594 15.3938 41.2394 19.3722 46.463C24.3424 52.9926 29.3952 57.511 37.374 62.8614C38.2489 63.4465 39.2777 63.7589 40.3302 63.7589C41.3828 63.7589 42.4116 63.4465 43.2865 62.8614C51.2708 57.5165 56.3181 52.9981 61.2938 46.463C65.2722 41.2394 66.7489 34.594 66.2806 28.0424C65.8179 21.5627 62.9175 15.4989 58.1634 11.0719C53.4092 6.64487 47.1543 4.18346 40.6581 4.18323H40.6526Z" fill="#E6FEDA"/>
<path d="M64.0822 56.5302H64.4514C65.4592 56.53 66.4479 56.8064 67.3096 57.329C68.1714 57.8517 68.8733 58.6008 69.3389 59.4947L75.7473 71.7824C75.9672 72.2023 76.0751 72.6719 76.0605 73.1458C76.0459 73.6196 75.9092 74.0817 75.6638 74.4872C75.4183 74.8928 75.0724 75.2282 74.6594 75.461C74.2464 75.6937 73.7803 75.816 73.3063 75.8159H7.32156C6.84964 75.8159 6.38562 75.6947 5.97399 75.4638C5.56236 75.233 5.21692 74.9003 4.97079 74.4977C4.72466 74.095 4.58608 73.6359 4.56835 73.1643C4.55062 72.6927 4.65432 72.2245 4.86952 71.8044L11.1512 59.5277C11.6144 58.6235 12.3187 57.865 13.1861 57.336C14.0535 56.807 15.0503 56.5281 16.0663 56.5302H16.4244" stroke="#77BB64" stroke-width="4" stroke-linecap="round" stroke-linejoin="round"/>
<path d="M40.6526 4.18323H40.0079C33.5117 4.18346 27.2568 6.64487 22.5026 11.0719C17.7485 15.4989 14.8481 21.5627 14.3855 28.0424C13.9116 34.594 15.3938 41.2394 19.3722 46.463C24.3424 52.9926 29.3952 57.511 37.374 62.8614C38.2489 63.4465 39.2777 63.7589 40.3302 63.7589C41.3828 63.7589 42.4116 63.4465 43.2865 62.8614C51.2708 57.5165 56.3181 52.9981 61.2938 46.463C65.2722 41.2394 66.7489 34.594 66.2806 28.0424C65.8179 21.5627 62.9175 15.4989 58.1634 11.0719C53.4092 6.64487 47.1543 4.18346 40.6581 4.18323H40.6526Z" stroke="#77BB64" stroke-width="4" stroke-linecap="round" stroke-linejoin="round"/>
<path d="M40.3332 37.2445C45.623 37.2445 48.5985 34.269 48.5985 28.9792C48.5985 23.6894 45.623 20.7139 40.3332 20.7139C35.0434 20.7139 32.0679 23.6894 32.0679 28.9792C32.0679 34.269 35.0434 37.2445 40.3332 37.2445Z" fill="white"/>
<path d="M40.3332 37.2445C45.623 37.2445 48.5985 34.269 48.5985 28.9792C48.5985 23.6894 45.623 20.7139 40.3332 20.7139C35.0434 20.7139 32.0679 23.6894 32.0679 28.9792C32.0679 34.269 35.0434 37.2445 40.3332 37.2445Z" stroke="#77BB64" stroke-width="4" stroke-linecap="round" stroke-linejoin="round"/>
</svg>
