<svg width="28" height="27" viewBox="0 0 28 27" fill="none" xmlns="http://www.w3.org/2000/svg">
<path d="M11.3327 0.927734H16.666C19.495 0.927734 22.2081 2.05154 24.2085 4.05193C26.2089 6.05232 27.3327 8.76543 27.3327 11.5944C27.3327 14.4234 26.2089 17.1365 24.2085 19.1369C22.2081 21.1373 19.495 22.2611 16.666 22.2611V26.9277C9.99935 24.2611 0.666016 20.2611 0.666016 11.5944C0.666016 8.76543 1.78982 6.05232 3.79021 4.05193C5.7906 2.05154 8.50371 0.927734 11.3327 0.927734ZM13.9993 19.5944H16.666C17.7166 19.5944 18.7569 19.3875 19.7275 18.9854C20.6981 18.5834 21.58 17.9941 22.3229 17.2513C23.0657 16.5084 23.655 15.6265 24.0571 14.6559C24.4591 13.6853 24.666 12.645 24.666 11.5944C24.666 10.5438 24.4591 9.50354 24.0571 8.53293C23.655 7.56233 23.0657 6.68042 22.3229 5.93755C21.58 5.19468 20.6981 4.6054 19.7275 4.20336C18.7569 3.80133 17.7166 3.5944 16.666 3.5944H11.3327C9.21095 3.5944 7.17612 4.43726 5.67583 5.93755C4.17554 7.43784 3.33268 9.47267 3.33268 11.5944C3.33268 16.4077 6.61535 19.5491 13.9993 22.9011V19.5944Z" fill="#6A6AF4"/>
<path d="M13.5993 16.2611L10.7357 11.5944L13.5993 6.92773H10.5084L7.59935 11.5944L10.5084 16.2611H13.5993ZM19.5993 16.2611L16.7357 11.5944L19.5993 6.92773H16.5084L13.5993 11.5944L16.5084 16.2611H19.5993Z" fill="#6A6AF4"/>
</svg>
