<svg width="1498" height="227" viewBox="0 0 1498 227" fill="none" xmlns="http://www.w3.org/2000/svg">
<path d="M1461.47 21.1838C1461.47 26.8002 1459.25 32.1859 1455.3 36.1559C1451.36 40.126 1446.01 42.3553 1440.44 42.3535C1434.86 42.3516 1429.51 40.1187 1425.57 36.146C1421.63 32.1732 1419.42 26.7861 1419.42 21.1697C1419.42 15.5533 1421.64 10.1676 1425.58 6.19753C1427.53 4.23175 1429.85 2.67266 1432.4 1.60928C1434.95 0.545909 1437.69 -0.000925505 1440.45 1.17581e-06C1443.21 0.000927856 1445.94 0.549598 1448.5 1.61468C1451.05 2.67977 1453.36 4.24042 1455.31 6.20751C1457.27 8.17461 1458.81 10.5096 1459.87 13.0793C1460.93 15.6489 1461.47 18.4028 1461.47 21.1838ZM1489.5 120.432L1498 115.414L1474.32 59.6279C1473.68 58.6532 1472.81 57.853 1471.79 57.2988C1470.77 56.7446 1469.63 56.4538 1468.47 56.4525H1412.43C1411.27 56.45 1410.13 56.7392 1409.11 57.2937C1408.08 57.8482 1407.22 58.6506 1406.58 59.6279L1391.42 81.2492L1399.38 91.2824L1412.36 81.2492L1425.58 101.022L1391.42 155.244H1418.28L1422.95 225.81H1436.96V155.244H1443.97V225.81H1457.98L1462.64 155.244H1489.5L1455.31 101.022L1468.57 81.2351L1489.5 120.432Z" fill="#4B4D4F"/>
<path d="M1145.45 50.3399C1140.67 49.8205 1135.82 49.5229 1130.9 49.4488C1109.41 49.5447 1087.12 54.8014 1066.03 64.8741C1050.37 72.6611 1035.12 83.6543 1021.87 97.2146C1015.36 104.137 1007.06 114.16 1005.72 124.854C1005.87 134.117 1015.76 145.551 1021.87 152.493C1034.29 165.521 1049.15 176.2 1066.03 184.834C1066.61 185.114 1067.18 185.39 1067.76 185.663L1052.09 213.164L1073.38 225.81L1188.43 24.428L1167.94 11.8403L1145.45 50.3399ZM1194.03 64.0751L1178.4 91.3147C1185.59 100.708 1189.86 112.293 1189.86 124.854C1189.86 156.163 1163.46 181.546 1130.89 181.546C1129.48 181.546 1128.11 181.393 1126.73 181.3L1116.38 199.306C1121.15 199.82 1125.98 200.194 1130.9 200.259C1152.42 200.162 1174.69 194.844 1195.76 184.834C1211.42 177.047 1226.69 166.054 1239.93 152.493C1246.44 145.571 1254.74 135.548 1256.09 124.854C1255.93 115.59 1246.04 104.156 1239.93 97.2144C1227.51 84.1866 1212.64 73.5081 1195.76 64.8737C1195.19 64.596 1194.6 64.3462 1194.03 64.0751ZM1130.89 68.162C1132.31 68.162 1133.73 68.2195 1135.13 68.3156L1123.02 89.4098C1106.01 92.8764 1093.25 107.425 1093.25 124.839C1093.25 129.213 1094.05 133.401 1095.52 137.283C1095.53 137.287 1095.52 137.294 1095.52 137.299L1083.38 158.454C1076.17 149.052 1071.91 137.43 1071.91 124.854C1071.91 93.5449 1098.31 68.1618 1130.89 68.162ZM1166.14 112.64L1138.83 160.206C1155.75 156.674 1168.42 142.192 1168.42 124.839C1168.42 120.544 1167.56 116.461 1166.14 112.64Z" fill="#4B4D4F"/>
<path d="M783.612 113.165C783.612 115.21 784.359 116.98 785.854 118.475C787.349 119.969 789.119 120.716 791.164 120.716C793.209 120.716 794.98 119.969 796.474 118.475C797.969 116.98 798.716 115.21 798.716 113.165C798.716 101.681 794.665 91.8881 786.562 83.7864C778.459 75.6846 768.665 71.6337 757.179 71.6337C745.693 71.6337 735.899 75.6846 727.796 83.7864C719.693 91.8881 715.642 101.681 715.642 113.165C715.642 115.21 716.389 116.98 717.884 118.475C719.379 119.969 721.149 120.716 723.194 120.716C725.239 120.716 727.009 119.969 728.504 118.475C729.999 116.98 730.746 115.21 730.746 113.165C730.746 105.85 733.342 99.6163 738.534 94.4642C743.727 89.3121 749.941 86.736 757.179 86.736C764.417 86.736 770.631 89.3121 775.824 94.4642C781.016 99.6163 783.612 105.85 783.612 113.165ZM757.533 45.2046C748.329 45.2046 739.537 46.9941 731.159 50.573C722.781 54.152 715.543 58.9894 709.447 65.0854C703.35 71.1814 698.512 78.418 694.932 86.795C691.353 95.1721 689.563 103.962 689.563 113.165C689.563 115.21 690.31 116.98 691.805 118.475C693.3 119.969 695.07 120.716 697.115 120.716C699.161 120.716 700.931 119.969 702.425 118.475C703.92 116.98 704.667 115.21 704.667 113.165C704.667 98.6134 709.84 86.1658 720.185 75.8222C730.53 65.4787 742.979 60.307 757.533 60.307C772.087 60.307 784.536 65.4787 794.881 75.8222C805.226 86.1658 810.399 98.6134 810.399 113.165C810.399 117.491 809.691 121.562 808.275 125.377C806.859 129.192 805.383 132.122 803.849 134.167C802.315 136.212 799.975 139.044 796.828 142.662C794.153 145.729 792.108 148.207 790.692 150.095C789.276 151.983 787.565 154.598 785.559 157.941C783.553 161.284 782.097 164.863 781.193 168.678C780.288 172.493 779.836 176.642 779.836 181.126C779.836 189.463 776.886 196.582 770.985 202.481C765.085 208.381 757.966 211.33 749.627 211.33C747.581 211.33 745.811 212.077 744.317 213.572C742.822 215.066 742.075 216.836 742.075 218.881C742.075 220.926 742.822 222.696 744.317 224.191C745.811 225.685 747.581 226.433 749.627 226.433C762.135 226.433 772.814 222.008 781.665 213.159C790.515 204.31 794.94 193.632 794.94 181.126C794.94 177.901 795.235 174.99 795.825 172.395C796.415 169.799 797.458 167.282 798.952 164.843C800.447 162.405 801.765 160.439 802.905 158.944C804.046 157.45 805.836 155.326 808.275 152.573C811.028 149.348 813.113 146.811 814.529 144.963C815.945 143.114 817.676 140.459 819.721 136.998C821.766 133.537 823.241 129.86 824.146 125.967C825.051 122.073 825.503 117.806 825.503 113.165C825.503 103.962 823.713 95.1721 820.134 86.795C816.554 78.418 811.716 71.1814 805.619 65.0854C799.523 58.9894 792.285 54.152 783.907 50.573C775.529 46.9941 766.737 45.2046 757.533 45.2046ZM728.74 130.037L755.409 156.702L687.085 225.017C686.141 225.961 685 226.433 683.663 226.433C682.325 226.433 681.185 225.961 680.241 225.017L660.416 205.195C659.472 204.251 659 203.11 659 201.773C659 200.436 659.472 199.296 660.416 198.352L728.74 130.037ZM849.222 16.4158L869.046 36.2376C869.99 37.1815 870.462 38.3221 870.462 39.6593C870.462 40.9964 869.99 42.1763 869.046 43.1989L841.552 70.6898L838.483 73.6395L830.105 82.0166C824.913 69.9819 817.243 59.835 807.095 51.5759L817.833 40.8391L842.26 16.4158C843.282 15.4719 844.462 15 845.8 15C847.137 15 848.278 15.4719 849.222 16.4158Z" fill="#4B4D4F"/>
<path d="M75.2806 54.1268C86.9594 54.1268 96.4269 44.6607 96.4269 32.9836C96.4269 21.3065 86.9594 11.8403 75.2806 11.8403C63.6019 11.8403 54.1344 21.3065 54.1344 32.9836C54.1344 44.6607 63.6019 54.1268 75.2806 54.1268Z" fill="#4B4D4F"/>
<path d="M160.496 149.036C160.011 146.6 158.7 144.407 156.786 142.831C154.871 141.255 152.472 140.393 149.996 140.391H105.714L101.117 108.133H149.996V86.6268H98.0636L96.3172 74.347C95.9511 71.7857 94.6769 69.4428 92.7285 67.7481C90.7802 66.0535 88.2882 65.1207 85.7099 65.1211H74.9956C73.4615 65.1262 71.9463 65.4609 70.5518 66.1026C69.1573 66.7443 67.9159 67.6782 66.911 68.8416C65.9062 70.0049 65.1611 71.3706 64.726 72.847C64.2908 74.3234 64.1757 75.8761 64.3883 77.4009L73.7848 143.445C74.536 148.559 77.0898 153.234 80.9824 156.619C84.875 160.005 89.8483 161.877 94.9993 161.897H141.21L150.2 207.016C151.207 212.037 155.6 215.661 160.711 215.661H192.854V194.155H169.486L160.496 149.036Z" fill="#4B4D4F"/>
<path d="M112.184 177.533C104.296 193.368 88.1678 204.354 69.3815 204.354C56.6466 204.339 44.4373 199.248 35.4324 190.198C26.4274 181.147 21.3623 168.876 21.3481 156.077C21.3661 146.464 24.237 137.075 29.5935 129.111C34.9499 121.148 42.5485 114.971 51.417 111.372L48.3322 89.6475C20.3341 98.627 0 125.008 0 156.077C0 194.527 31.1256 225.81 69.3815 225.81C81.2809 225.793 92.9759 222.7 103.342 216.826C113.707 210.953 122.395 202.498 128.569 192.274L125.644 177.533H112.184Z" fill="#4B4D4F"/>
<path d="M413.564 12C434.341 12.0014 454.408 19.5626 470.022 33.2732C485.636 46.9839 495.731 65.9078 498.424 86.5149L522.489 124.377C524.072 126.87 523.751 130.582 520.083 132.165L499.13 141.131V172.477C499.13 178.152 496.876 183.594 492.864 187.607C488.853 191.62 483.411 193.874 477.738 193.874H456.357L456.347 225.97H360.085V186.449C360.085 173.825 355.422 161.875 346.78 151.091C336.702 138.504 330.384 123.326 328.553 107.305C326.723 91.2833 329.455 75.0705 336.434 60.5344C343.414 45.9982 354.357 33.73 368.003 25.1432C381.649 16.5564 397.442 12.0004 413.564 12ZM407.895 73.6554C406.169 71.8668 404.104 70.4401 401.82 69.4584C399.537 68.4768 397.081 67.9598 394.596 67.9377C392.11 67.9156 389.645 68.3888 387.345 69.3297C385.044 70.2706 382.954 71.6604 381.197 73.4179C379.439 75.1755 378.048 77.2656 377.107 79.5663C376.165 81.867 375.691 84.3322 375.712 86.8182C375.733 89.3041 376.249 91.761 377.23 94.0454C378.21 96.3298 379.636 98.396 381.423 100.123L413.564 132.283L445.704 100.123C447.492 98.396 448.917 96.3298 449.898 94.0454C450.878 91.761 451.394 89.3041 451.415 86.8182C451.436 84.3322 450.962 81.867 450.021 79.5663C449.079 77.2656 447.689 75.1755 445.931 73.4179C444.173 71.6604 442.083 70.2706 439.783 69.3297C437.482 68.3888 435.017 67.9156 432.532 67.9377C430.047 67.9598 427.591 68.4768 425.307 69.4584C423.024 70.4401 420.959 71.8668 419.232 73.6554L413.564 79.3256L407.895 73.6554Z" fill="#4B4D4F"/>
</svg>
