<svg width="680" height="99" viewBox="0 0 680 99" fill="none" xmlns="http://www.w3.org/2000/svg">
<path d="M509.778 17.3427C507.632 17.1088 505.452 16.9747 503.242 16.9413C493.585 16.9845 483.574 19.3525 474.098 23.8899C467.062 27.3976 460.209 32.3497 454.257 38.4581C451.334 41.5764 447.603 46.0914 447 50.9086C447.071 55.0816 451.514 60.2322 454.257 63.3593C459.838 69.2278 466.513 74.0381 474.098 77.9275C474.356 78.0537 474.614 78.1783 474.874 78.3012L467.837 90.6894L477.398 96.3859L529.086 5.67029L519.882 0L509.778 17.3427ZM531.603 23.53L524.579 35.8005C527.811 40.032 529.729 45.2502 529.729 50.9086C529.729 65.0123 517.869 76.4465 503.235 76.4465C502.602 76.4465 501.989 76.3777 501.367 76.3357L496.719 84.4469C498.863 84.6783 501.03 84.8469 503.242 84.876C512.908 84.8323 522.913 82.437 532.379 77.9275C539.414 74.4198 546.275 69.4677 552.227 63.3593C555.15 60.2412 558.88 55.726 559.483 50.9086C559.412 46.7358 554.97 41.5852 552.227 38.458C546.645 32.5895 539.963 27.7792 532.379 23.8897C532.123 23.7646 531.86 23.6521 531.603 23.53ZM503.235 25.371C503.877 25.371 504.513 25.3969 505.143 25.4401L499.699 34.9424C492.058 36.5039 486.325 43.0574 486.325 50.9018C486.325 52.8724 486.685 54.7589 487.348 56.5076C487.349 56.5096 487.347 56.5126 487.348 56.5146L481.89 66.0445C478.651 61.8091 476.741 56.5736 476.741 50.9085C476.741 36.8051 488.601 25.3709 503.235 25.371ZM519.073 45.4066L506.805 66.8335C514.405 65.2425 520.096 58.719 520.096 50.9018C520.096 48.9672 519.713 47.1279 519.073 45.4066Z" fill="#4B4D4F"/>
<path d="M341.984 46.22C341.984 47.1412 342.32 47.9385 342.991 48.6117C343.663 49.2849 344.458 49.6215 345.377 49.6215C346.296 49.6215 347.091 49.2849 347.762 48.6117C348.434 47.9385 348.77 47.1412 348.77 46.22C348.77 41.0468 346.95 36.6354 343.309 32.9859C339.669 29.3363 335.269 27.5115 330.108 27.5115C324.948 27.5115 320.548 29.3363 316.908 32.9859C313.267 36.6354 311.447 41.0468 311.447 46.22C311.447 47.1412 311.783 47.9385 312.454 48.6117C313.126 49.2849 313.921 49.6215 314.84 49.6215C315.759 49.6215 316.554 49.2849 317.226 48.6117C317.897 47.9385 318.233 47.1412 318.233 46.22C318.233 42.9247 319.399 40.1167 321.732 37.7959C324.065 35.475 326.857 34.3146 330.108 34.3146C333.36 34.3146 336.152 35.475 338.485 37.7959C340.817 40.1167 341.984 42.9247 341.984 46.22ZM330.267 15.6061C326.132 15.6061 322.183 16.4122 318.419 18.0244C314.655 19.6366 311.403 21.8157 308.664 24.5618C305.925 27.3078 303.751 30.5676 302.143 34.3412C300.535 38.1148 299.731 42.0744 299.731 46.22C299.731 47.1412 300.067 47.9385 300.738 48.6117C301.41 49.2849 302.205 49.6215 303.124 49.6215C304.043 49.6215 304.838 49.2849 305.51 48.6117C306.181 47.9385 306.517 47.1412 306.517 46.22C306.517 39.6649 308.841 34.0577 313.488 29.3983C318.136 24.7389 323.729 22.4092 330.267 22.4092C336.806 22.4092 342.399 24.7389 347.047 29.3983C351.694 34.0577 354.018 39.6649 354.018 46.22C354.018 48.1688 353.7 50.0024 353.064 51.7209C352.428 53.4394 351.765 54.7592 351.076 55.6805C350.387 56.6017 349.335 57.8773 347.921 59.5072C346.72 60.8891 345.801 62.0052 345.165 62.8556C344.529 63.706 343.76 64.8841 342.859 66.39C341.957 67.8959 341.303 69.5081 340.897 71.2266C340.491 72.9451 340.287 74.8141 340.287 76.8338C340.287 80.5897 338.962 83.7963 336.311 86.4538C333.66 89.1112 330.462 90.44 326.715 90.44C325.797 90.44 325.001 90.7766 324.33 91.4498C323.658 92.123 323.323 92.9202 323.323 93.8415C323.323 94.7627 323.658 95.56 324.33 96.2332C325.001 96.9064 325.797 97.243 326.715 97.243C332.335 97.243 337.133 95.2499 341.109 91.2638C345.085 87.2776 347.073 82.4676 347.073 76.8338C347.073 75.3811 347.206 74.0701 347.471 72.9008C347.736 71.7315 348.204 70.5977 348.876 69.4992C349.547 68.4008 350.139 67.515 350.652 66.8418C351.164 66.1686 351.968 65.2119 353.064 63.9717C354.301 62.519 355.238 61.3763 355.874 60.5436C356.51 59.711 357.287 58.5151 358.206 56.9561C359.125 55.397 359.788 53.7406 360.194 51.9866C360.601 50.2327 360.804 48.3105 360.804 46.22C360.804 42.0744 360 38.1148 358.392 34.3412C356.784 30.5676 354.61 27.3078 351.871 24.5618C349.132 21.8157 345.88 19.6366 342.116 18.0244C338.352 16.4122 334.403 15.6061 330.267 15.6061ZM317.332 53.8203L329.313 65.832L298.618 96.6052C298.193 97.0304 297.681 97.243 297.08 97.243C296.479 97.243 295.967 97.0304 295.543 96.6052L286.636 87.6762C286.212 87.251 286 86.7372 286 86.1349C286 85.5325 286.212 85.0187 286.636 84.5936L317.332 53.8203ZM371.46 2.63779L380.367 11.5668C380.791 11.992 381.003 12.5058 381.003 13.1081C381.003 13.7105 380.791 14.242 380.367 14.7026L368.014 27.0863L366.636 28.4151L362.872 32.1886C360.539 26.7674 357.093 22.1966 352.534 18.4762L357.358 13.6396L368.332 2.63779C368.792 2.2126 369.322 2 369.923 2C370.524 2 371.036 2.2126 371.46 2.63779Z" fill="#4B4D4F"/>
<path d="M33.821 19.3823C39.0679 19.3823 43.3213 15.1181 43.3213 9.85798C43.3213 4.59785 39.0679 0.333679 33.821 0.333679C28.5742 0.333679 24.3207 4.59785 24.3207 9.85798C24.3207 15.1181 28.5742 19.3823 33.821 19.3823Z" fill="#4B4D4F"/>
<path d="M72.1055 62.1357C71.8875 61.038 71.2984 60.0503 70.4384 59.3403C69.5784 58.6303 68.5006 58.242 67.3882 58.2413H47.4935L45.4285 43.7099H67.3882V34.0224H44.0566L43.272 28.4907C43.1075 27.337 42.5351 26.2816 41.6597 25.5182C40.7844 24.7548 39.6649 24.3346 38.5065 24.3348H33.6929C33.0037 24.3371 32.323 24.4878 31.6965 24.7769C31.07 25.066 30.5123 25.4867 30.0608 26.0107C29.6094 26.5348 29.2746 27.15 29.0791 27.815C28.8837 28.4801 28.8319 29.1795 28.9275 29.8664L33.149 59.6169C33.4865 61.9207 34.6338 64.0264 36.3826 65.5515C38.1314 67.0766 40.3657 67.9201 42.6799 67.9289H63.441L67.4796 88.2534C67.9321 90.5154 69.9057 92.1478 72.2018 92.1478H86.6426V82.4602H76.1441L72.1055 62.1357V62.1357Z" fill="#4B4D4F"/>
<path d="M50.4006 74.9725C46.8568 82.1055 39.6108 87.0542 31.1707 87.0542C25.4494 87.0478 19.9642 84.7545 15.9186 80.6775C11.8729 76.6006 9.59733 71.0728 9.59099 65.3071C9.59906 60.9769 10.8888 56.7476 13.2953 53.1602C15.7018 49.5728 19.1156 46.7905 23.0999 45.1693L21.714 35.3831C9.13541 39.428 0 51.3116 0 65.3071C0 82.6274 13.9837 96.7196 31.1707 96.7196C36.5167 96.7121 41.7709 95.3184 46.4279 92.6727C51.0848 90.027 54.9879 86.2181 57.7617 81.6126L56.4477 74.9725H50.4006Z" fill="#4B4D4F"/>
<path d="M185.8 0.405579C195.134 0.406189 204.15 3.81225 211.165 9.98843C218.18 16.1646 222.715 24.6892 223.925 33.972L234.736 51.0275C235.448 52.1504 235.303 53.8227 233.655 54.5359L224.242 58.5745V72.695C224.242 75.2513 223.229 77.703 221.427 79.5105C219.625 81.3181 217.18 82.3336 214.631 82.3336H205.026L205.021 96.7915H161.774V78.989C161.774 73.3023 159.679 67.9191 155.796 63.0613C151.268 57.3915 148.43 50.5542 147.608 43.337C146.785 36.1199 148.013 28.8167 151.148 22.2686C154.284 15.7206 159.2 10.1942 165.331 6.32615C171.462 2.4581 178.557 0.405758 185.8 0.405579ZM183.253 28.1792C182.478 27.3735 181.55 26.7308 180.524 26.2886C179.498 25.8464 178.395 25.6135 177.278 25.6036C176.162 25.5936 175.054 25.8068 174.021 26.2306C172.987 26.6545 172.048 27.2805 171.258 28.0722C170.469 28.8639 169.844 29.8055 169.421 30.8418C168.998 31.8782 168.785 32.9887 168.795 34.1086C168.804 35.2284 169.036 36.3351 169.476 37.3642C169.917 38.3932 170.557 39.324 171.36 40.1021L185.8 54.5889L200.24 40.1021C201.043 39.324 201.683 38.3932 202.124 37.3642C202.564 36.3351 202.796 35.2284 202.805 34.1086C202.815 32.9887 202.602 31.8782 202.179 30.8418C201.756 29.8055 201.131 28.8639 200.341 28.0722C199.552 27.2805 198.613 26.6545 197.579 26.2306C196.546 25.8068 195.438 25.5936 194.322 25.6036C193.205 25.6135 192.102 25.8464 191.076 26.2886C190.05 26.7308 189.122 27.3735 188.347 28.1792L185.8 30.7334L183.253 28.1792Z" fill="#4B4D4F"/>
<path d="M648.5 17C653.194 17 657 13.1944 657 8.5C657 3.80558 653.194 0 648.5 0C643.806 0 640 3.80558 640 8.5C640 13.1944 643.806 17 648.5 17Z" fill="#4B4D4F"/>
<path d="M632.537 25.5997L642.5 20.5L649.488 25.2634L635.181 31.5841L632.537 25.5997Z" fill="#4B4D4F"/>
<path d="M676.712 42.9869C675.505 44.3216 673.457 44.4579 672.084 43.2949L653.404 27.475C652.7 26.8792 652.237 26.0482 652.1 25.1365V25.1365C651.566 21.5888 655.788 19.3402 658.434 21.7626L676.49 38.2905C677.843 39.5287 677.942 41.6268 676.712 42.9869V42.9869Z" fill="#4B4D4F"/>
<path d="M653.347 33C653.347 33 658.375 21.6895 656 20.5C653.625 19.3105 645.061 19.7989 642.5 20.5C639.075 21.3838 644 31 644 33L625.391 58.6849C623.99 62.1161 626.533 65.8073 630.165 65.8073H640.7V91.8012C640.7 94.6606 643.035 97 645.889 97H651.079C653.933 97 656.268 94.6606 656.268 91.8012V65.8073H666.802C670.487 65.8073 672.978 62.1161 671.629 58.6849L653.347 33Z" fill="#4B4D4F"/>
<line x1="648.992" y1="66.0075" x2="648.758" y2="97.0096" stroke="white" stroke-width="2" stroke-linecap="round"/>
</svg>
