<svg width="460" height="460" viewBox="0 0 460 460" fill="none" xmlns="http://www.w3.org/2000/svg">
<path d="M421.28 232.273C421.28 332.364 337.945 413.77 234.812 413.77C131.679 413.77 48.343 332.364 48.343 232.273C48.343 132.182 131.679 50.7755 234.812 50.7755C337.945 50.7755 421.28 132.182 421.28 232.273Z" stroke="white" stroke-width="12"/>
<rect x="201" y="16" width="68" height="63" fill="#143B80"/>
<path d="M233.849 0C207.806 0 186.695 20.4643 186.695 45.7083C186.695 70.9523 207.806 91.4166 233.849 91.4166C259.892 91.4166 281.004 70.9523 281.004 45.7083C281.004 20.4643 259.892 0 233.849 0ZM234.16 15.9912L241.591 38.4827L265.946 39.0127L246.173 52.8056L253.179 75.4254L233.533 61.4596L213.507 74.9121L221.14 52.482L201.753 38.1758L226.119 38.2819L234.16 15.9912V15.9912Z" fill="white"/>
<rect x="18" y="230" width="62" height="26" fill="#143B80"/>
<rect x="176" y="184" width="133" height="26" fill="#143B80"/>
<rect x="176" y="228" width="133" height="63" fill="#143B80"/>
<path d="M17.8471 238.342V255.755L49.0795 272.384L80.3119 255.755V238.342L49.0795 254.972L17.8471 238.342ZM49.0795 194.027L0 220.146L49.0795 246.265L89.2355 224.891V254.972H98.159V220.146L49.0795 194.027Z" fill="white"/>
<rect x="390" y="242" width="57" height="32" rx="5" fill="#143B80"/>
<path fill-rule="evenodd" clip-rule="evenodd" d="M455.531 260.797C444.369 232.896 430.93 225.382 431.156 211.556L431.422 195.271L434.262 195.315C435.015 195.326 435.742 195.051 436.283 194.551C436.824 194.05 437.134 193.364 437.146 192.644L437.235 187.216C437.246 186.496 436.958 185.801 436.434 185.284C435.91 184.767 435.192 184.47 434.439 184.458L406.04 184.022C405.286 184.011 404.559 184.286 404.018 184.787C403.477 185.287 403.167 185.973 403.155 186.693L403.067 192.121C403.055 192.841 403.343 193.536 403.867 194.053C404.391 194.571 405.109 194.868 405.862 194.879L408.702 194.923L408.436 211.208C408.211 225.033 394.533 232.132 382.466 259.676C378.624 268.44 368.917 281.187 418.644 281.95C468.371 282.713 459.085 269.675 455.531 260.797V260.797ZM446.192 270.161C442.186 271.24 434.23 272.416 418.803 272.179C403.377 271.942 395.463 270.523 391.495 269.322C390.087 268.899 389.562 267.321 390.085 265.891C391.394 262.273 393.854 256.023 398.376 249.072C409.425 232.089 420.273 252.106 429.571 252.249C438.869 252.392 436.457 243.879 439.975 249.71C443.212 255.105 445.808 260.829 447.713 266.775C448.189 268.221 447.613 269.776 446.192 270.161V270.161Z" fill="white"/>
<rect x="214" y="394" width="38" height="37" fill="#143B80"/>
<path d="M234.326 380.348C216.014 380.067 200.882 394.04 200.598 411.476C200.061 436.977 231.786 458.616 233.034 459.491C233.034 459.491 266.726 438 267.022 412.514C267.307 395.059 252.639 380.629 234.326 380.348ZM233.551 427.833C224.376 427.693 217.061 420.495 217.203 411.75C217.346 403.005 224.893 396.036 234.068 396.176C243.243 396.317 250.558 403.514 250.416 412.26C250.273 421.005 242.726 427.974 233.551 427.833Z" fill="white"/>
<path d="M179.424 319.025H303.673C313.462 319.025 321.423 311.244 321.423 301.675V180.221C321.423 170.653 313.462 162.871 303.673 162.871H285.923V145.52H268.173V162.871H214.924V145.52H197.174V162.871H179.424C169.635 162.871 161.674 170.653 161.674 180.221V301.675C161.674 311.244 169.635 319.025 179.424 319.025ZM232.673 287.916L199.774 255.757L212.323 243.49L232.673 263.382L270.774 226.14L283.323 238.406L232.673 287.916ZM179.424 188.897H303.673V206.247H179.424V188.897Z" fill="white"/>
</svg>
