<svg width="587" height="582" viewBox="0 0 587 582" fill="none" xmlns="http://www.w3.org/2000/svg">
<path d="M296.37 581.075C262.817 576.723 209.041 555.344 142.589 519.939C115.375 505.44 111.911 503.123 111.431 499.109C110.9 494.648 111.184 494.747 134.689 507.256C176.072 529.277 215.253 548.005 219.941 548.005C221.629 548.005 224.191 549.01 225.634 550.239C228.854 552.982 241.722 558.096 247.361 558.873C249.645 559.188 255.626 560.871 260.651 562.613C265.676 564.355 273.9 566.738 278.925 567.909C283.95 569.079 288.83 570.64 289.77 571.378C290.709 572.115 297.082 573.227 303.932 573.847C318.737 575.189 331.333 572.947 347.922 566.018L359.605 561.138L358.381 547.511C357.331 535.821 357.619 532.883 360.404 526.842C362.189 522.969 363.65 518.796 363.65 517.569C363.65 515.311 375.556 507.092 384.083 503.464C398.283 497.423 439.745 497.71 468.309 504.048C495.239 510.023 520.642 510.339 536.977 504.903C543.058 502.88 548.654 500.115 549.412 498.76C550.171 497.405 552.027 496.116 553.538 495.894C557.695 495.284 564.037 488.737 574.269 474.493C583.702 461.362 589.393 456.863 583.12 467.495C575.13 481.037 561.013 498.232 553.825 503.177C539.065 513.332 530.017 515.566 504.028 515.469C485.695 515.401 477.429 514.576 464.988 511.572C443.226 506.319 405.539 504.915 390.23 508.789C384.291 510.291 376.442 513.593 372.787 516.125C364.159 522.104 361.667 528.974 363.031 543.019C365.48 568.24 366.128 565.818 355.502 571.181C337.008 580.516 317.384 583.799 296.367 581.073L296.37 581.075ZM117.784 494.116C117.784 493.715 120.639 490.088 124.127 486.058C134.926 473.581 144.164 437.964 146.839 398.492C148.296 376.981 150.521 366.417 154.493 362.154L157.84 358.561L152.519 354.022C149.592 351.526 146.187 348.885 144.951 348.155C143.637 347.378 142.694 343.927 142.679 339.848C142.596 316.142 125.542 279.954 102.653 254.908C91.8016 243.035 71.0312 226.771 54.6566 217.33C43.6708 210.994 40.6172 210.024 28.8402 209.135C13.3451 207.964 8.26845 205.143 3.18161 194.876C-1.05723 186.321 -1.06032 180.142 3.17105 174.2C8.26371 167.048 8.78023 161.012 4.93529 153.583C2.41783 148.719 2.02737 146.509 3.39441 144.861C6.30649 141.353 8.13817 142.242 10.7179 148.416C14.1048 156.522 13.7459 160.692 8.80921 170.598L4.49332 179.259L8.39383 187.119C13.9868 198.39 20.9045 202.454 34.5508 202.485C45.3152 202.51 57.2684 205.426 59.3931 208.546C59.9851 209.415 66.2618 214.195 73.3415 219.168C80.4211 224.141 88.2705 229.733 90.7849 231.594C97.7376 236.742 121.106 260.339 121.106 262.213C121.106 263.12 123.787 268.053 127.064 273.175C130.34 278.298 134.709 286.131 136.771 290.583C138.834 295.035 141.457 299.804 142.6 301.181C143.743 302.559 144.341 304.645 143.929 305.818C143.517 306.991 143.768 309.544 144.486 311.492C145.205 313.44 146.606 320.873 147.598 328.01C149.394 340.917 149.452 341.03 158.733 349.303C171.552 360.728 182.572 376.178 182.572 382.723C182.572 387.491 178.66 395.404 177.243 393.504C169.392 382.979 157.158 368.586 156.062 368.586C155.266 368.586 154.143 374.38 153.568 381.461C152.634 392.951 150.631 411.814 148.585 428.392C147.12 440.269 139.558 466.354 135.057 475.054C132.5 479.998 130.534 484.534 130.688 485.132C130.842 485.731 128.425 488.161 125.317 490.532C119.887 494.673 117.783 495.673 117.783 494.112L117.784 494.116ZM572.032 454.343C561.638 449.503 546.301 436.147 543.449 429.455C542.282 426.714 540.446 423.41 539.369 422.113C538.292 420.816 537.222 418.896 536.989 417.846C536.757 416.796 534.687 409.582 532.388 401.816C525.908 379.917 526.769 347.024 534.062 337.877C537.491 333.577 538.069 333.359 539.077 335.988C539.757 337.759 538.852 341.418 536.835 345.052C523.661 368.79 532.564 410.972 555.615 434.022C563.061 441.469 577.825 449.992 583.277 449.992C585.366 449.992 586.274 451.25 586.274 454.145C586.274 459.446 583.088 459.49 572.034 454.342L572.032 454.343ZM132.863 340.954C128.727 335.696 128.124 325.396 131.953 325.396C134.72 325.396 136.642 329.481 138.4 339.102C139.749 346.484 137.742 347.156 132.863 340.954L132.863 340.954ZM134.327 333.56C133.308 331.654 132.053 330.515 131.54 331.028C131.027 331.541 131.553 333.1 132.709 334.493C135.696 338.092 136.503 337.626 134.327 333.56V333.56ZM539.186 328.281C529.262 307.998 511.405 302.963 504.918 318.622C503.754 321.434 502.093 323.735 501.229 323.735C497.543 323.735 506.27 306.552 510.849 304.795C521.922 300.546 538.138 311.269 543.023 326.071C546.621 336.974 544.139 338.404 539.186 328.282L539.186 328.281ZM492.338 314.182C492.487 309.842 493.039 305.17 493.564 303.799C495.341 299.159 498.931 286.368 499.012 284.385C499.056 283.301 500.812 280.311 502.913 277.74C505.014 275.169 507.969 271.01 509.48 268.497C510.991 265.985 512.814 263.929 513.53 263.929C515.565 263.929 515.171 264.942 509.903 273.249C503.137 283.917 499.377 296.083 499.178 307.942C499.001 318.478 497.738 322.073 494.215 322.073C492.722 322.073 492.15 319.667 492.338 314.181L492.338 314.182ZM124.844 318.385C120.335 316.21 119.793 310.445 124.098 310.445C129.23 310.445 136.031 314.464 136.045 317.505C136.06 320.838 130.79 321.252 124.844 318.385L124.844 318.385ZM517.885 257.699C519.685 255.186 523.1 251.318 525.473 249.103C527.847 246.887 529.789 244.175 529.789 243.074C529.789 241.974 531.978 240.167 534.653 239.059C537.329 237.95 539.922 235.991 540.416 234.704C540.956 233.297 543.676 232.364 547.239 232.364C552.649 232.364 553.009 232.653 551.385 235.686C550.407 237.514 548.251 239.009 546.593 239.009C542.762 239.009 531.693 246.996 523.592 255.606C516.42 263.229 513.033 264.47 517.885 257.698L517.885 257.699ZM43.8642 234.003C38.4085 231.879 31.1818 223.249 32.3372 220.238C33.8519 216.291 39.0889 215.197 44.6626 217.664C49.0098 219.589 49.5268 220.603 49.3993 226.957C49.2379 234.996 48.5768 235.837 43.8642 234.003ZM46.3432 226.134C46.3286 222.841 38.6008 218.5 37.0936 220.938C36.1672 222.437 42.5788 228.874 45.1102 228.986C45.7955 229.016 46.3503 227.733 46.3432 226.134L46.3432 226.134ZM554.695 224.058C554.695 221.316 555.443 219.074 556.357 219.074C557.27 219.074 558.018 221.316 558.018 224.058C558.018 226.799 557.27 229.041 556.357 229.041C555.443 229.041 554.695 226.799 554.695 224.058ZM557.073 203.858C557.382 197.774 558.102 192.041 558.672 191.118C559.242 190.195 561.6 182.913 563.912 174.934C566.225 166.956 570.219 155.013 572.789 148.395L577.462 136.361L567.324 134.165C561.749 132.958 556.197 132.177 554.987 132.43C553.778 132.684 551.909 132.161 550.834 131.27C549.76 130.378 542.526 128.045 534.76 126.085C526.994 124.125 513.164 120.208 504.028 117.381C494.891 114.554 486.294 112.124 484.923 111.98C483.553 111.836 480.936 110.928 479.109 109.963C474.738 107.653 462.802 103.684 461.372 104.066C460.754 104.231 448.469 98.4031 434.071 91.1159C419.673 83.8288 406.946 77.8665 405.789 77.8665C404.632 77.8665 403.088 76.9125 402.357 75.7466C401.627 74.5806 394.72 69.1608 387.01 63.7024C360.311 44.8012 329.622 11.2783 330.721 2.21243C331.213 -1.8617 332.116 -1.12397 341.967 11.4079C382.534 63.0116 445.189 95.8023 554.563 122.659C569.56 126.342 582.18 129.705 582.606 130.131C583.031 130.558 582.231 134.111 580.826 138.027C568.601 172.089 561.009 195.037 558.958 204.124L556.52 214.922L557.083 203.86L557.073 203.858ZM114.456 152.458C107.603 151.868 94.8943 150.509 86.2135 149.439C77.5327 148.369 66.3197 147.577 61.2943 147.679C56.269 147.781 44.3078 147.099 34.7136 146.163C25.1194 145.227 16.3358 144.428 15.1937 144.389C14.0516 144.349 13.1171 142.364 13.1171 139.978C13.1171 135.994 13.5573 135.719 18.5163 136.604C21.4859 137.133 36.6242 138.332 52.1566 139.266C67.689 140.2 89.5996 142.198 100.844 143.706C117.777 145.976 122.482 146.089 128.225 144.369C136.205 141.978 142.197 137.673 146.387 131.319C150.485 125.106 150.115 122.565 143.942 114.52C131.236 97.9602 131.068 97.6204 131.068 88.5128C131.068 77.6888 134.536 74.5435 146.471 74.5435C160.001 74.5435 169.347 81.6935 169.21 91.9412L169.143 96.9707L166.779 92.6205C162.63 84.9863 148.071 80.3739 138.128 83.5435C132.837 85.23 133.466 89.7446 140.153 98.0875C149.29 109.487 151.438 114.349 151.239 123.181C151.04 132.03 148.021 145.211 146.535 143.725C146.026 143.215 143.271 144.495 140.415 146.57C132.105 152.602 127.71 153.599 114.455 152.458L114.456 152.458ZM180.077 121.244C178.249 120.456 176.293 120.075 175.73 120.396C173.56 121.633 169.672 114.928 168.649 108.183C167.377 99.7968 168.883 99.2966 173.458 106.586C175.773 110.272 178.774 112.408 183.172 113.499C191.944 115.674 200.393 112.417 227.675 96.3429C239.871 89.1573 255.149 80.2289 261.625 76.5021C268.101 72.7752 276.095 66.7425 279.39 63.096C285.442 56.3962 290.551 43.2488 290.551 34.3699C290.551 31.7947 291.126 29.6876 291.829 29.6876C293.331 29.6876 292.322 55.0471 290.771 56.2683C290.192 56.7251 288.051 60.514 286.015 64.688C282.011 72.895 277.734 76.1255 251.095 91.0589C242.644 95.7968 235.729 100.373 235.729 101.229C235.729 102.085 234.555 102.784 233.121 102.784C231.686 102.784 227.388 104.926 223.568 107.545C206.28 119.396 188.663 124.945 180.075 121.244L180.077 121.244ZM290.551 18.921C290.551 16.0515 291.465 14.7291 293.459 14.7139C295.058 14.7017 302.72 12.469 310.487 9.75233C318.253 7.03569 324.794 4.80299 325.023 4.79073C325.251 4.77848 325.438 6.58705 325.438 8.80982C325.438 11.5476 324.232 13.2273 321.7 14.0175C319.644 14.6591 317.511 15.8847 316.96 16.741C316.408 17.5974 314.166 18.5249 311.976 18.8024C309.786 19.0798 305.752 19.8205 303.011 20.4483C290.382 23.3411 290.551 23.3619 290.551 18.9211L290.551 18.921Z" fill="white"/>
</svg>
