<svg xmlns="http://www.w3.org/2000/svg" version="1.1" viewBox="0 0 855.4 610.8">
  <defs>
    <style>
      .cls-1, .cls-2 {
        fill: none;
      }

      .cls-3, .cls-4, .cls-5 {
        fill: #000091;
      }

      .cls-4, .cls-6, .cls-7 {
        fill-opacity: .9;
        fill-rule: evenodd;
      }

      .cls-8 {
        opacity: .2;
      }

      .cls-8, .cls-2 {
        isolation: isolate;
      }

      .cls-6 {
        fill: #bfbfbf;
      }

      .cls-9 {
        fill: #2f2e41;
      }

      .cls-7, .cls-10 {
        fill: #e1000f;
      }

      .cls-2 {
        stroke: #e1000f;
        stroke-width: 2px;
      }

      .cls-2, .cls-5, .cls-11 {
        stroke-miterlimit: 10;
      }

      .cls-2, .cls-12 {
        opacity: .8;
      }

      .cls-13 {
        fill: #e6e6e6;
      }

      .cls-14 {
        fill: #ffb6b6;
      }

      .cls-15 {
        fill: #f4e028;
      }

      .cls-16 {
        fill: #e4e4e4;
      }

      .cls-17 {
        fill: #e17a2d;
      }

      .cls-18 {
        fill: #3f3d56;
      }

      .cls-19 {
        fill: #e5e5e5;
      }

      .cls-20 {
        fill: #ccc;
      }

      .cls-5 {
        stroke: #000091;
      }

      .cls-21 {
        fill: #ecf4f7;
      }

      .cls-22, .cls-11 {
        fill: #fff;
      }

      .cls-23 {
        fill: #f2f2f2;
      }

      .cls-11 {
        stroke: #fff;
        stroke-width: 10px;
      }

      .cls-24 {
        fill: #6c63ff;
      }

      .cls-25 {
        display: none;
      }

      .cls-26 {
        fill: #cacaca;
      }
    </style>
  </defs>
  <!-- Generator: Adobe Illustrator 28.7.0, SVG Export Plug-In . SVG Version: 1.2.0 Build 136)  -->
  <g>
    <g id="Calque_4" class="cls-25">
      <g>
        <path class="cls-23" d="M119.7,187.1h69l34.5-59.7-34.5-59.7h-69l-34.5,59.7,34.5,59.7Z"/>
        <path class="cls-20" d="M197.5,207.3h-86.5c-1.8,0-3.4-1-4.3-2.5l-43.2-74.9c-.9-1.6-.9-3.5,0-5l43.2-74.9c.9-1.5,2.5-2.5,4.3-2.5h86.5c1.8,0,3.4,1,4.3,2.5l43.2,74.9c.9,1.5.9,3.5,0,5l-43.2,74.9c-.9,1.5-2.5,2.5-4.3,2.5ZM111,49.6c-1.1,0-2.1.6-2.6,1.5l-43.2,74.9c-.5.9-.5,2.1,0,3l43.2,74.9c.5.9,1.5,1.5,2.6,1.5h86.5c1.1,0,2.1-.6,2.6-1.5l43.2-74.9c.5-.9.5-2.1,0-3l-43.2-74.9c-.5-.9-1.5-1.5-2.6-1.5h-86.5Z"/>
        <path class="cls-24" d="M175.5,107.4c0,11.7-21.2,37.5-21.2,37.5,0,0-21.2-25.7-21.2-37.5,0-11.7,9.5-21.2,21.2-21.3,11.7,0,21.2,9.5,21.3,21.2h0Z"/>
        <circle class="cls-22" cx="154.2" cy="107.4" r="8.3"/>
        <circle class="cls-24" cx="153.5" cy="160.3" r="8.3"/>
      </g>
    </g>
    <g id="Calque_2">
      <g>
        <g>
          <path class="cls-6" d="M573.3,354.2v31.5c0,3.5,2.9,6.4,6.4,6.4s6.4-2.9,6.4-6.4v-31.5c0-3.5-2.9-6.4-6.4-6.4s-6.4,2.9-6.4,6.4Z"/>
          <path class="cls-7" d="M549.2,343.9l27.3,15.8c3.1,1.8,7,.7,8.7-2.3,1.8-3.1.7-7-2.3-8.7l-27.3-15.8c-3.1-1.8-7-.7-8.7,2.3-1.8,3.1-.7,7,2.3,8.7Z"/>
          <path class="cls-4" d="M576.5,380.2l-27.3,15.8c-3.1,1.8-4.1,5.7-2.3,8.7,1.8,3.1,5.7,4.1,8.7,2.3l27.3-15.8c3.1-1.8,4.1-5.7,2.3-8.7-1.8-3.1-5.7-4.1-8.7-2.3Z"/>
          <path class="cls-6" d="M531.5,385.7v-31.5c0-3.5-2.9-6.4-6.4-6.4s-6.4,2.9-6.4,6.4v31.5c0,3.5,2.9,6.4,6.4,6.4s6.4-2.9,6.4-6.4Z"/>
          <path class="cls-4" d="M528.3,359.7l27.3-15.8c3.1-1.8,4.1-5.7,2.3-8.7-1.8-3.1-5.7-4.1-8.7-2.3l-27.3,15.8c-3.1,1.8-4.1,5.7-2.3,8.7,1.8,3.1,5.7,4.1,8.7,2.3Z"/>
          <path class="cls-7" d="M499.9,392.3l25.2-.2c3.5,0,6.4-2.9,6.3-6.4,0-3.5-2.9-6.4-6.4-6.3l-25.2.2c-3.5,0-6.4,2.9-6.3,6.4,0,3.5,2.9,6.4,6.4,6.3Z"/>
          <path class="cls-6" d="M519.1,324c9-7.5,20.6-12,33.2-12s24.2,4.5,33.2,12c2.7,2.3,6.7,1.9,9-.8,2.2-2.7,1.9-6.7-.8-9-11.2-9.3-25.7-14.9-41.4-14.9s-30.1,5.6-41.4,14.9c-2.7,2.3-3.1,6.3-.8,9,2.2,2.7,6.3,3.1,9,.8Z"/>
          <path class="cls-4" d="M505.6,383.1c-3.2-6.8-5.4-13.3-5.4-18.9,0-16.2,7.4-30.6,18.9-40.2,2.7-2.3,3.1-6.3.8-9-2.2-2.7-6.3-3.1-9-.8-14.4,11.9-23.5,29.9-23.5,50s2.5,15.6,6.6,24.4c1.5,3.2,5.3,4.5,8.5,3,3.2-1.5,4.5-5.3,3-8.5Z"/>
          <path class="cls-7" d="M585.6,324c11.6,9.6,18.9,24,18.9,40.2s-5,19.5-11.7,30.5c-16.8,27.6-44.9,55.5-44.9,55.5-2.5,2.5-2.5,6.5,0,9,2.5,2.5,6.5,2.5,9,0,0,0,29.3-29.1,46.8-57.9,8.1-13.2,13.6-26.5,13.6-37.1,0-20.1-9.2-38.1-23.5-50-2.7-2.3-6.7-1.9-9,.8-2.2,2.7-1.9,6.7.8,9Z"/>
          <path class="cls-4" d="M556.9,450.1s-20.2-20-36.6-43c-2.1-2.9-6-3.5-8.9-1.5-2.9,2.1-3.5,6-1.5,8.9,17.1,23.8,38,44.6,38,44.6,2.5,2.5,6.5,2.5,9,0,2.5-2.5,2.5-6.5,0-9Z"/>
        </g>
        <g>
          <path d="M641.2,312.4h8.7c6.2,0,10,3.1,10,8.1s-1.1,4.5-3.2,5.9c3.1,1.4,4.9,3.9,4.9,7,0,5.4-4.2,8.7-11,8.7h-9.4v-29.7ZM647.2,317.4v6.7h2.8c2.3,0,3.7-1.2,3.7-3.4s-1.4-3.3-3.7-3.3h-2.8ZM647.2,329.1v8h3.7c2.8,0,4.5-1.5,4.5-4s-1.7-4-4.5-4h-3.7Z"/>
          <path d="M665.9,336.3c0-3.2,2.5-5.6,7.1-6.4l6.5-1.1v-.6c0-2.3-1.7-3.7-4.2-3.7s-3.7,1-4.8,2.5l-3.9-3c1.9-2.6,5.1-4.2,9-4.2,6.2,0,9.4,3.7,9.4,8.4v13.8h-5.4v-2.1c-1.4,1.7-3.9,2.7-6.4,2.7-4.3,0-7.2-2.5-7.2-6.4ZM674.2,338.5c2.5,0,4.2-1.1,5.3-2.8v-3l-5.1.8c-2.3.4-3.2,1.3-3.2,2.6s1.1,2.4,3,2.4Z"/>
          <path d="M692.8,335.8c1.3,1.7,2.9,2.8,4.9,2.8s2.6-1,2.6-2.3c0-3.7-10.2-2.3-10.2-9.9s3.2-6.6,7.6-6.6,6.2,1.6,7.8,3.7l-3.6,3.1c-1.1-1.4-2.5-2.5-4.2-2.5s-2.5.9-2.5,2c0,3.7,10.2,2.4,10.2,9.8,0,4.5-3.7,7-7.7,7s-6.5-1.5-8.6-3.9l3.6-3.2Z"/>
          <path d="M720.8,343c-7.6,0-11.9-5.3-11.9-11.6s4-11.6,11-11.6,9.9,4,9.9,9.6-.2,2.3-.3,3h-15c.5,4,3,5.6,6.3,5.6s4.4-1,5.5-2.5l3.9,3.1c-2,2.7-5.3,4.3-9.3,4.3ZM714.6,328.6h9.9c0-2.2-1.7-4.3-4.7-4.3s-4.6,1.5-5.2,4.3Z"/>
          <path d="M649.5,363.4h7.9l11.3,29.7h-6.4l-2.8-7.7h-11.9l-2.8,7.7h-6.4l11.3-29.7ZM657.6,380.2l-4.1-11.2-4.1,11.2h8.2Z"/>
          <path d="M682.3,370.8c2.9,0,5,.9,6.6,2.5v-12.1h5.4v31.8h-5.4v-1.7c-1.7,1.7-3.7,2.5-6.6,2.5-6.8,0-10.9-5.3-10.9-11.6s4.1-11.6,10.9-11.6ZM683.1,388.8c2.4,0,4.4-1,5.9-3v-7c-1.4-2-3.4-3-5.9-3-3.7,0-6,2.7-6,6.5s2.3,6.5,6,6.5Z"/>
          <path d="M700.8,371.7h5.4v2.1c1.4-1.4,3.2-2.5,5.6-2.5s1.4.1,1.9.3v5.3c-.7-.2-1.4-.3-2.4-.3-2.6,0-4.3,1.4-5.1,2.8v13.7h-5.4v-21.4Z"/>
          <path d="M727.6,393.9c-7.6,0-11.9-5.3-11.9-11.6s4-11.6,11-11.6,9.9,4,9.9,9.6-.2,2.3-.3,3h-15c.5,4,3,5.6,6.3,5.6s4.4-1,5.5-2.5l3.9,3.1c-2,2.7-5.3,4.3-9.3,4.3ZM721.4,379.6h9.9c0-2.2-1.7-4.3-4.7-4.3s-4.6,1.5-5.2,4.3Z"/>
          <path d="M743.2,386.8c1.3,1.7,2.9,2.8,4.9,2.8s2.6-1,2.6-2.3c0-3.7-10.2-2.3-10.2-9.9s3.2-6.6,7.6-6.6,6.2,1.6,7.8,3.7l-3.6,3.1c-1.1-1.4-2.5-2.5-4.2-2.5s-2.5.9-2.5,2c0,3.7,10.2,2.4,10.2,9.8,0,4.5-3.7,7-7.7,7s-6.5-1.5-8.6-3.9l3.6-3.2Z"/>
          <path d="M762.3,386.8c1.3,1.7,2.9,2.8,4.9,2.8s2.6-1,2.6-2.3c0-3.7-10.2-2.3-10.2-9.9s3.2-6.6,7.6-6.6,6.2,1.6,7.8,3.7l-3.6,3.1c-1.1-1.4-2.5-2.5-4.2-2.5s-2.5.9-2.5,2c0,3.7,10.2,2.4,10.2,9.8,0,4.5-3.7,7-7.7,7s-6.5-1.5-8.6-3.9l3.6-3.2Z"/>
          <path d="M790.3,393.9c-7.6,0-11.9-5.3-11.9-11.6s4-11.6,11-11.6,9.9,4,9.9,9.6-.2,2.3-.3,3h-15c.5,4,3,5.6,6.3,5.6s4.4-1,5.5-2.5l3.9,3.1c-2,2.7-5.3,4.3-9.3,4.3ZM784.1,379.6h9.9c0-2.2-1.7-4.3-4.7-4.3s-4.6,1.5-5.2,4.3Z"/>
          <path d="M641.2,414.3h7.7l13.3,21.5v-21.5h6v29.7h-7.7l-13.3-21.5v21.5h-6v-29.7Z"/>
          <path d="M674.3,438.3c0-3.2,2.5-5.6,7.1-6.4l6.5-1.1v-.6c0-2.3-1.7-3.7-4.2-3.7s-3.7,1-4.8,2.5l-3.9-3c1.9-2.6,5.1-4.2,9-4.2,6.2,0,9.4,3.7,9.4,8.4v13.8h-5.4v-2.1c-1.4,1.7-3.9,2.7-6.4,2.7-4.3,0-7.2-2.5-7.2-6.4ZM682.7,440.4c2.5,0,4.2-1.1,5.3-2.8v-3l-5.1.8c-2.3.4-3.2,1.3-3.2,2.6s1.1,2.4,3,2.4Z"/>
          <path d="M700.9,427.5h-4v-4.8h4v-5.4h5.4v5.4h6.5v4.8h-6.5v8.7c0,2.4,1.3,3.3,3.4,3.3s2.5-.2,3.2-.5v4.7c-1.1.5-2.3.7-4.1.7-5.4,0-7.9-3-7.9-8.2v-8.7Z"/>
          <path d="M716.9,415.4c0-1.9,1.6-3.5,3.5-3.5s3.5,1.6,3.5,3.5-1.6,3.5-3.5,3.5-3.5-1.6-3.5-3.5ZM717.7,422.6h5.4v21.4h-5.4v-21.4Z"/>
          <path d="M751.5,433.3c0,6.4-4.8,11.6-11.7,11.6s-11.7-5.1-11.7-11.6,4.8-11.6,11.7-11.6,11.7,5.1,11.7,11.6ZM745.9,433.3c0-3.7-2.6-6.5-6-6.5s-6.2,2.7-6.2,6.5,2.6,6.5,6.2,6.5,6-2.8,6-6.5Z"/>
          <path d="M756.4,422.6h5.4v1.7c1.5-1.4,3.5-2.5,6.3-2.5,4.6,0,8.3,3.2,8.3,9.5v12.7h-5.4v-12.5c0-2.8-1.6-4.6-4.2-4.6s-4.2,1.8-5,3.2v14h-5.4v-21.4Z"/>
          <path d="M781.4,438.3c0-3.2,2.5-5.6,7.1-6.4l6.5-1.1v-.6c0-2.3-1.7-3.7-4.2-3.7s-3.7,1-4.8,2.5l-3.9-3c1.9-2.6,5.1-4.2,9-4.2,6.2,0,9.4,3.7,9.4,8.4v13.8h-5.4v-2.1c-1.4,1.7-3.9,2.7-6.4,2.7-4.3,0-7.2-2.5-7.2-6.4ZM789.7,440.4c2.5,0,4.2-1.1,5.3-2.8v-3l-5.1.8c-2.3.4-3.2,1.3-3.2,2.6s1.1,2.4,3,2.4Z"/>
          <path d="M806.5,412.2h5.4v31.8h-5.4v-31.8Z"/>
          <path d="M828.7,444.9c-7.6,0-11.9-5.3-11.9-11.6s4-11.6,11-11.6,9.9,4,9.9,9.6-.2,2.3-.3,3h-15c.5,4,3,5.6,6.3,5.6s4.4-1,5.5-2.5l3.9,3.1c-2,2.7-5.3,4.3-9.3,4.3ZM822.5,430.5h9.9c0-2.2-1.7-4.3-4.7-4.3s-4.6,1.5-5.2,4.3Z"/>
        </g>
      </g>
    </g>
    <g id="Calque_11">
      <g>
        <g>
          <path class="cls-11" d="M658.5,239.5h-125.6c-2.6,0-5-1.4-6.3-3.6l-62.8-108.7c-1.3-2.3-1.3-5,0-7.3l62.8-108.7c1.3-2.2,3.7-3.6,6.3-3.6h125.6c2.6,0,5,1.4,6.3,3.6l62.8,108.7c1.3,2.2,1.3,5,0,7.3l-62.8,108.7c-1.3,2.2-3.7,3.6-6.3,3.6Z"/>
          <path class="cls-23" d="M545.6,210.1h100.2l50.1-86.7-50.1-86.7h-100.2l-50.1,86.7,50.1,86.7Z"/>
          <path class="cls-20" d="M658.5,239.5h-125.6c-2.6,0-5-1.4-6.3-3.6l-62.8-108.7c-1.3-2.3-1.3-5,0-7.3l62.8-108.7c1.3-2.2,3.7-3.6,6.3-3.6h125.6c2.6,0,5,1.4,6.3,3.6l62.8,108.7c1.3,2.2,1.3,5,0,7.3l-62.8,108.7c-1.3,2.2-3.7,3.6-6.3,3.6ZM532.9,10.4c-1.6,0-3,.8-3.8,2.2l-62.8,108.7c-.8,1.3-.8,3,0,4.4l62.8,108.7c.8,1.3,2.2,2.2,3.8,2.2h125.6c1.6,0,3-.8,3.8-2.2l62.8-108.7c.8-1.3.8-3,0-4.4l-62.8-108.7c-.8-1.3-2.2-2.2-3.8-2.2h-125.6Z"/>
        </g>
        <g>
          <path class="cls-3" d="M661.7,93.1c-17.8-24.7-55.2-34.7-92.1-23.9-19.5,5.7-38.3,17.1-47.6,39.3-16.7,39.6,18.3,52.2,41.2,56.2,11.1,1.9,21.5,5.2,31,9.7,17.1,8,47.4,15.1,70.3-18.3,16.6-24.2,9.1-46.5-2.7-63Z"/>
          <path class="cls-13" d="M558.7,98c0-.4-.2-.8-.3-1.1,0-.1-.1-.3-.3-.3,0,0-.2,0-.3,0l-1.3.2c-.1,0-.2,0-.3.1-.2.2,0,.5,0,.7,0,.3-.3.5-.5.6-.3,0-.6,0-.8,0l-1.9-.3c.6-.2,1-.5,1.4-.9.2-.3.4-.8,0-1-.1,0-.2,0-.3,0-.8,0-1.5-.7-2.3-1-1-.4-2.2,0-2.9.9h1c0,0,.2,0,.3.1.2.2,0,.5,0,.8,0,.4.5.4.9.5s.8.3.7.7c-1.8.6-3.7-1.2-5.6-1-.5,0-1,.3-1.4.4-2.9.7-5.9-1.2-8.9-.8-.7.1-1.3.3-1.9.5-.4.1-.8.3-1.1.6s-.4.8-.1,1.2c-.8,0-1.5,0-2.3-.2.4.2.7.7.7,1.1-1.2.2-2.4.6-3.5,1.1.2.3.4.7.7,1l-1.5,1c.5.1.8.8.5,1.3.5-.2.9-.9,1.4-1,.4,0,.8,0,1.1.2s.7.3,1.1.2.6-.6.4-.9c1.6-.5,3.2-.7,4.8-.8.1,0,.3,0,.4,0,.2.1.2.5.1.7s.2.6.4.5c-.3.2,0,.7.2.9s.6.6.4.9c0,0-.1.2-.2.2-.1.3,0,.5.3.7s.5.3.6.5,0,.6-.2.7l-.8-1c-.3.3-.5.6-.5,1,.8.7,1,2.1.3,2.9-.4.4-.9.7-1.3,1s-.8.8-.8,1.3c0,.9,0,1.8.3,2.7.7,1.6,1.4,3.2,2.3,4.7.2.4.5.8,1,.9-.6-1.4-1.1-2.8-1.5-4.2.3,0,.6,0,.8.3.1.2.1.5.2.7,0,.2.2.5.3.7l2.7,4.9c.2.4.5.8.9,1,.3.1.6,0,.9.2.2.1.3.3.5.4.6.3,1.4-.3,1.9,0,.2.1.3.3.4.4.5.4,1.3.1,1.9.5.4.2.6.6.8,1,.5.9,1.3,1.9,2.4,1.9.3,0,.7,0,1,0s.6.4.6.7c0,.6.2,1.2.1,1.7-.1,1-1.6,1.5-1.7,2.5,0,.2,0,.5,0,.7,0,.3-.3.5-.3.8-.1.5.2,1,.6,1.4s.9.6,1.1,1.1c.2.5.1,1.1.2,1.7.2,1.2,1.2,2.1,2.3,2.7.3.2.7.3.9.7.3.4.2.9.3,1.4.2,1.2,1.2,2.1,1.2,3.3,0,.8-.4,1.6-.7,2.4-.5,1.5-.4,3.2.5,4.7.2.4.5.7.6,1.1.3.7.2,1.5.4,2.2.3.9,1.2,1.7,1.1,2.6.4.8,1.3,1.2,2.2,1.5l1.6.4c.3,0,.6.2.9.1s.6-.3.6-.6c-.8-.2-1.6-.4-2.2-.8s-1.1-1.3-.8-2.1c.1-.4.4-.8.1-1.1-.1-.2-.4-.2-.5-.4-.2-.2-.2-.6,0-.9s.4-.5.5-.9c0-.4-.1-.8-.4-.9.3-.1.6-.3.8-.5.2-.2.3-.6.1-.9.5,0,1.1,0,1.4-.3.3-.3.2-.7.1-1.1s-.3-.7-.3-1.1c1.1,0,2.3,0,3.4-.1-.2-.5-.5-1-1-1.3.5,0,1-.7,1.1-1.2s.1-1,0-1.5c0-.1,0-.3,0-.4,0-.2.2-.3.4-.4l2.5-1.4c.2,0,.3-.2.4-.3.3-.3.2-.8,0-1.2s-.4-.7-.4-1.1c-.2-1.2,1.1-2.1,1.6-3.2.2-.4.2-.9.2-1.4,0-.5,0-1.1-.4-1.4-.4-.3-1-.2-1.4-.5-.4-.3-.5-.8-.9-1-.4-.2-.8,0-1.2-.2-.7-.2-1.1-1-1.9-1-.4,0-.9.2-1.2,0-.3-.2-.3-.6-.4-1-.2-1.1-1.1-2-2.2-2.2-.4,0-.9,0-1.2-.3-.4-.2-.5-.7-.8-1-.5-.5-1.2-.7-1.8-.9l-2.7-.6c-.5-.1-1.1-.2-1.4.2,0,.2-.1.3-.2.5-.2.7-.8,1.1-1.5,1.1-.2-.4-.6-.7-1-.8-.3,0-.6,0-.8-.2-.6-.3-.8-1-.5-1.6,0,0,0,0,0,0,.3-.6.2-1.3-.2-1.8-.5-.4-1.1-.5-1.8-.5-.2-.4.1-.8.4-1s.6-.5.7-.9c.1-.6-.7-1.1-1.3-.9s-1,.8-1.2,1.3c-.1.3-.3.7-.5.9s-.6.5-.9.4c-.5-.1-.7-.7-.8-1.2-.1-.7-.3-1.3-.3-2s.3-1.4.7-1.8c.8-.7,2-.7,3.1-.5-.3-.3-.2-.8,0-1,.3-.3.7-.4,1.1-.3.3,0,.6.2.8.5.3.4.4.9.6,1.3s.8.8,1.2.6c.4-.2.4-.7.3-1.1s-.3-.8-.3-1.2c0-.8.9-1.3,1.6-1.6s1.6-.8,1.7-1.6c0-.2,0-.3,0-.5,0-.1.2-.2.3-.3,2.1-1.4,4.3-2.8,6.7-3.6.1,0,.1,0,.3,0,.2-.1,0-.4-.1-.5s-.4-.2-.4-.4c0-.2,0-.3,0-.4,0-.4-.4-.7-.7-.6-.2-.3.2-.6.5-.6.9-.3,1.9-.4,2.9-.5.1,0,.2,0,.3,0,.2.1.1.4,0,.5s-.3.3-.4.4c-.3.3-.4.8-.3,1.2.5.3,1.1.5,1.6.4s1.1-.7.8-1.2c-.2-.5-1-.6-1.1-1.1-.1-.6.7-1.1.5-1.7,0-.3-.3-.4-.5-.6-.5-.5-.6-1.2-.4-1.8-.7.1-1.3,0-1.8-.6-.4-.4-.8-1.1-1.4-1.1-.6,0-1,.7-1.6.5-.1,0-.3-.1-.4,0,0,0-.1.1-.1.2-.1.6,0,1.4-.3,1.9-.4.6-1.3.7-1.7,1.2-.2.3-.3.7-.6,1s-.7.5-1,.2c.3-.6.1-1.3-.4-1.7-.3-.2-.5-.3-.8-.4-.3-.1-.6-.3-.9-.5-.1,0-.3-.2-.3-.4,0-.2,0-.4,0-.6.3-.8,1-1.4,1.8-1.5.4,0,.8,0,1-.3.1-.1.2-.4.4-.4.1,0,.2,0,.4,0l1.4.5c.2,0,.3,0,.5,0,.2,0,.3-.2.3-.3,0-.2-.4-.3-.4-.6,0,0,0-.1.1-.2,1-1.1,2.4-1.6,3.9-1.5.2.3,0,.6-.3.9s-.4.7-.1.9c.1,0,.2,0,.4,0,.3,0,.7.1,1,.3.5.2.9.4,1.4.7,0-.3,0-.6,0-.9s.4-.5.7-.4c.3.1.4.5.7.5.4,0,.5-.5.4-.9s-.5-.6-.5-1c0-.3,0-.6-.1-.7,0,0-.2,0-.2,0l-5.2-1c-.3,0-.8,0-.8.3,0,.2.1.3,0,.5,0,.2-.3.2-.5.2-.3,0-.4.4-.4.7,0,.3.2.6.3.8-.3-.1-.8-.2-1.2-.3Z"/>
          <path class="cls-13" d="M554.6,93.6c-.7-.2-1.4,0-1.8.6,0,.1-.2.3,0,.4.1.2.4.1.6,0,.3-.1.6-.1.9,0,.2,0,.3.2.5.2.2,0,.4,0,.5,0,.1-.1.1-.3.1-.5,0-.1,0-.2-.1-.3,0,0-.2,0-.2,0-.2,0-.4-.1-.5-.3"/>
          <path class="cls-13" d="M556.5,93.1c-.2,0-.4.2-.5.4,0,0,0,.1,0,.2.2,0,.5,0,.7,0,.2,0,.4-.2.5-.4-.3,0-.6,0-.8-.2"/>
          <path class="cls-13" d="M562.8,92.2c-.6.1-1.2.3-1.8.6.5.2.9.8.9,1.3,0,.1,0,.2,0,.3,0,.2.3.2.4.3.3,0,.6.1.9.1.3,0,.6-.2.8-.5,0-.1,0-.3.2-.4.4-.6,1.6.1,2-.5.2-.2.1-.5.3-.7.1,0,.2-.1.3-.1.9-.2,1.7-.3,2.6-.4.4,0,1-.2,1-.6-1.6-.3-3.2,0-4.6.6-.5.3-1.2.8-1.7.5-.2-.1-.2-.5-.4-.6-.3-.1-.6,0-.9,0Z"/>
          <path class="cls-13" d="M567.8,93.2h.7c-.5.1-1,.5-1,1,0,0,0,0,0,.1.7.2,1.4,0,2.2,0s1.6.5,1.4,1.3c0,.2-.2.4,0,.6,0,.1.2.2.2.4.2.3,0,.6-.2.9s-.4.5-.6.7c-.4.7-.2,1.5,0,2.3,0,.3.2.5.4.8.4.4,1,.4,1.5.4.4,0,.8,0,1.1-.3.3-.4,0-1,.3-1.5.2-.4.7-.6,1.1-.7.8-.2,1.7-.4,2.4-.8,1-.4,1.9-1.1,2.9-1.2.3,0,.6,0,.9,0s.6-.3.5-.6c0-.3-.2-.4-.4-.6s-.3-.5-.1-.7l2.8-.5c-.2-.5-.3-1.2.1-1.6.2-.1.4-.2.5-.3.2-.3.1-.7-.2-.9s-.6-.3-1-.3c-1.2-.1-2.4,0-3.6,0-2.4.1-4.7.3-7.1.4-.5,0-1,0-1.5.1-.4.1-.6.4-1.1.5-.8.2-1.6,0-2.4.5Z"/>
          <path class="cls-13" d="M580.9,98.9c0,0-.2,0-.2,0,0,0,0,.1,0,.2,0,.3,0,.5.2.8.2.2.4.4.7.3.3,0,.6-.3.9-.5.5-.2,2.4-.5,1.1-1.3-.5-.3-.8,0-1.1.1-.4.2-.9.3-1.4.3Z"/>
          <path class="cls-13" d="M592.9,92.7c-.2,0-.3.2-.4.3,0,.2,0,.4.1.4,0,0,.1,0,.2,0h.7c.3,0,.6,0,.7.4,0,.2,0,.5,0,.6,0,0,.1,0,.2,0,.2,0,.4,0,.7,0,.5-.1.2-.4.4-.7.2-.4.2-.2.6-.4.3-.2.7-.5.4-.9-.4-.7-3-.2-3.6,0Z"/>
          <path class="cls-13" d="M605.8,92.4h-.4c-.9.2-1.7.3-2.5.5.4.1.7.2,1.1.3.2,0,.4,0,.6,0,.4.1.7.4,1.1.2.2,0,.3-.3.5-.4.1,0,.6-.2.6-.3.4-.7-.7-.4-1-.4Z"/>
          <path class="cls-13" d="M607.4,94.1c-.5.3-1,.6-1.4,1-.2.2-.4.4-.3.6,0,.3.4.5.7.6l1.2.5c.1-.2,0-.5-.1-.7s-.3-.4-.3-.7c0-.3.4-.4.7-.4.5,0,1.7,0,1.6-.8-.2-.9-1.5-.4-2-.2Z"/>
          <path class="cls-13" d="M607.2,144c-.1.3-.1.7,0,1,.2.3.7.4,1.1.4.4-.1.7-.3,1-.6.2-.3.4-.5.6-.9.2-.5.3-1,.4-1.5l.4-2c0-.4,0-1.8-.7-1.3-.2.1-.7,1.1-1,1.3-.4.5-.5,1-.7,1.5-.3.7-.8,1.3-1.1,2.1Z"/>
          <path class="cls-13" d="M649.9,154c-.3-.1-.5-.2-.8-.4-.2.7-.4,1.4-.4,2.1l1.8-1c.3-.2.6-.4.6-.7,0,0,0-.2-.1-.2,0,0,0,0-.1,0-.3,0-.5.2-.8.2s-.5.1-.8,0"/>
          <path class="cls-13" d="M659.4,154.6c-.2,0-.4.1-.6.2-.4.2-.7.6-1.1.9-.4.3-.8.4-1.2.6-.1.1,0,.3,0,.4.1,0,.3.1.5.1.4,0,.9,0,1.3-.2.2-.1.4-.3.6-.5.4-.4,1-.6,1.5-.9.2,0,.4-.2.5-.3.3-.3.4-.8-.1-1-.4,0-1.1.5-1.5.6Z"/>
          <path class="cls-13" d="M663.6,151.9c0-.5-.1-.9-.5-1.2,0,.5,0,.9-.3,1.3-.2.3-.5.4-.7.7s-.3.7,0,.9c.1.1.3.2.5.2.5,0,1,0,1.3-.3.2-.2.3-.5.5-.6,0,0,.2,0,.2-.2,0-.1,0-.3-.2-.4s-.3,0-.5,0-.3-.2-.2-.4"/>
          <path class="cls-13" d="M656.1,135.2c-.2,0-.5,0-.7,0-.4,0-.7-.4-1.1-.6-.8-.6-1.8-.9-2.8-1-.9,0-1.8.2-2.7,0,0,.3.3.6.6.7s.6.2.9.4c.5.2.9.6,1.1,1.1,0,.2.2.5.3.7.3.4.9.5,1.4.5.6,0,1.3-.2,1.9,0,.5.2.8.6,1.2.9s.9.5,1.4.3c-.9-.3-1.6-1.2-1.6-2.2.4,0,1.7,0,1.6-.7,0-.6-1.1-.2-1.5-.1Z"/>
          <path class="cls-13" d="M650.5,140.3c0-.4.5-.8.4-1.2,0-.3-.4-.4-.7-.4s-.6,0-.9,0c-.2,0-.4,0-.6,0-.6,0-1,.7-1.5.9-.3.1-.7.1-1.1.2-.8.2-1.3,1-1.9,1.6-.9,1-2.1,1.7-3.4,2-.5.1-.9.2-1.3.5-.5.4-.6,1.1-.7,1.7-.3,1.7-.7,3.3-1.3,4.9l1.9.2c.4,0,.7,0,1.1,0,.3,0,.5-.2.7-.4.8-.5,1.8-.9,2.8-1,.5,0,1,0,1.5.1s.9.6.9,1.1c.4-.1.9,0,1.2.3.3.3.5.7.6,1.1,0,.3,0,.6.3.7.2,0,.4,0,.6,0,.7,0,1.3.8,2.1.6.8-.2,1-1.3,1.7-1.5.4-.1,1,0,1.2-.4.2-.4-.2-.8-.1-1.2,0-.5.6-.7,1.1-.9,1.5-.7,2.3-2.8,1.5-4.3-.4-.9-1.3-1.6-1.5-2.6-.1-.8.2-1.6-.3-2.2-.2-.3-.7-.5-.8-.8,0-.2,0-.5-.1-.7s-.3-.5-.5-.4c-.7.2-.9,2.3-1.3,2.8-.6.8-1.7.3-1.5-.7Z"/>
          <path class="cls-13" d="M637.7,136c-.2,0-.5-.1-.7,0s-.4.4-.2.6c1.4,0,2.9-.1,4.3,0,1.6.2,3.2.8,4.9.6-.9-.3-1.9-.5-2.8-.7l-1.6-.3c-.4,0-.9-.2-1.3-.2-.9,0-1.6.2-2.5,0Z"/>
          <path class="cls-13" d="M639.1,131c-.1,0-.3,0-.3,0,0,0,0,.2,0,.3,0,.1-.2.2-.4.2s-.3,0-.5,0c-.1,0-.2.3-.1.4,0,.2.1.3.3.4.2.3.4.5.7.7.5.4,1.1.5,1.5,1.1,0,.1.1.2.2.3.1,0,.3,0,.5,0l.6-.3c.1,0,.2,0,.3-.2.1-.2,0-.4,0-.6s-.2-.4-.2-.6c0-.4.5-.5.7-.9.2-.3,0-.8,0-1.1,0-.5.3-1-.1-1.4-.4-.3-.8,0-1,.3-.6.7-.9,1.4-1.9,1.3Z"/>
          <path class="cls-13" d="M642.5,124.3c.2.4.6.6.8.9.2.4.2.9.4,1.3.3.4.8.6.9,1,.2.5-.2,1.1,0,1.5.2.3.6.3.9.1,0,0,0,0,0,0,.2-.3.2-.7,0-.9-.2-.1-.4-.2-.5-.4,0-.1-.1-.2-.1-.3,0-.4,0-.7,0-1.1,0,0,0-.2,0-.3,0-.2-.3-.2-.5-.3-.4-.2-.4-.7-.3-1.2,0,.3-1.1-.2-1.2-.4-.2-.3,0-.9-.1-1.3-.5.2-.6.9-.4,1.3Z"/>
          <path class="cls-13" d="M632.3,129.9c-.2-.2-.5-.4-.7-.3-.2,0-.2.4-.2.6,0,.2.2.4.4.5.5.4,1.1.8,1.5,1.3.8.9,1.2,2.1,2.1,2.9.2.2.4.3.7.4.3,0,.5-.1.6-.4,0-.2-.1-.4-.3-.6-.3-.4-.7-.7-1-1.1-.1-.1-.2-.3-.3-.6,0-.2.2-.4.4-.4-.2,0-.4-.5-.8-.6-.3,0-.4.1-.7,0-.7-.3-1.2-1.2-1.7-1.8Z"/>
          <path class="cls-13" d="M648.5,109.6c-.2,0-.4-.1-.6-.2-.5-.2-1.2.2-1.1.8,0,.4.4.6.6.9.3.5.2,1,0,1.5,0,.2-.1.3-.2.4-.1.1-.3.3-.5.3-.7.4-1.3.9-1.8,1.5,0,0,0,.1-.1.2,0,.2.2.3.3.5.2.3,0,.8,0,1.2,0,.1,0,.2.1.3.1,0,.3,0,.4-.2.2-.4,0-1.2.5-1.4,0,0,.2,0,.2-.1,0-.1,0-.3,0-.4,0-.2.4-.2.6-.2.4,0,.8,0,1.2-.2.1,0,.3-.1.4-.2.1-.2.1-.4,0-.6-.1-1.1-.5-2.1-1-3.1.4,0,.8,0,1.2-.1.2-.1.4-.5.3-.7-.2-.4-.4,0-.8-.1Z"/>
          <path class="cls-13" d="M596.8,115.6c0,.3,0,.5,0,.8s-.4.5-.6.4c-.2,0-.3-.3-.4-.4-.8-.8-2.5-.4-3-1.4-.2-.4,0-.9-.2-1.4-.2-.5-.7-.9-1.2-.8-.2,0-.5.1-.7.2-1.5.6-3.1,1-4.7,1.2-.3,0-.6,0-.9.2-.7.2-1.1.9-1.4,1.5s-.6,1.3-1,1.9c-.5.6-1.1,1-1.7,1.4-.2.1-.4.3-.6.6-.1.3-.1.6-.1.9v3.6c.1.5.2.9.4,1.3.3.5.8.8,1.1,1.3.4.5.5,1,.5,1.6,0,.2,0,.5.2.7.1,0,.2.1.4.1l4.8.4c.8,0,1.8.2,2.3.8.3.3.5.7.9.8.2,0,.3,0,.5,0,.4,0,.8.3,1.1.7.4.6.5,1.2.5,1.9,0,.4-.2.8-.2,1.2-.1,1.6,1.2,2.9,1.3,4.5,0,.9-.4,1.8-.9,2.6.7,1.1.1,2.5.4,3.7.3,1.2,1.2,2.1,1.5,3.3.1.5.1,1.2.6,1.5.2.1.4.1.7.1,1.4,0,2.8-.3,4-.9.6-.3,1.2-.7,1.3-1.4,0-.5-.2-1.1,0-1.6.3-.5,1.1-.5,1.6-.9.8-.7.2-1.9.5-2.9.3-.9,1.2-1.3,1.7-2.1.2-.3.3-.7.4-1.1.2-.9.3-1.8.4-2.7,0-.6,0-1.1.1-1.7.5-3.1,3.6-5.2,4.6-8.3,0-.3.1-.7-.1-.8-.2,0-.3,0-.5,0l-2.2.3c-.3,0-.6,0-.8,0s-.4-.4-.3-.7c.4-.7-.4-1.5-.7-2.3-.9-1.9-2-3.7-3.3-5.4,0,0-.1-.2-.1-.3h.6c-.2-.7-.6-1.6-1.3-1.9-.4-.2-.9-.1-1.3,0-1.3,0-2.7-.1-3.9-.3Z"/>
          <path class="cls-13" d="M600.7,98.4c.3.4.7.7,1.2.8.9.1,1.5-.8,1.9-1.5,0,.4.4.7.8.7.2,0,.4-.1.6-.2,1.7-.9,3.6-1.4,5.5-1.4,0-.3.2-.6.5-.7.4,0,.7.3.9.6s.3.8.6,1,.9.3,1-.1c.1-.4-.3-.7-.6-.9s-.7-.6-.4-.9c1.6-.4,3.3-.7,4.9-.8.3,0,.6,0,.8-.1.3-.1.5-.4.4-.7-.7.2-1.5-.1-2-.7,2.3-.2,4.8-.4,6.8.7.2.5-1,1-.7,1.4.1.2.3.2.5.2,1.4,0,2.8,0,4.3-.2.5,0,1-.2,1.5-.1.9.1,1.6.7,2.4.9.3,0,.7,0,1-.1s.4-.7.2-.9c.8-.8,2.1-.6,3.2-.2s2,1,3.2,1.1c.8,0,1.6-.2,2.4,0,.5,0,1,.3,1.4.4.9.3,1.9.2,2.8.2,2.4,0,4.8.5,7.1,1.4.3,0,.6.3.8.5.2.2.3.6.2.8l-2.3-.3c.2.4.8.5,1.2.7s.9.7.7,1.1c-.5-.2-.9.3-1.2.8s-.6,1-1.1,1c-.5,0-1-.4-1.3,0,.4.5.8,1.1,1.1,1.7.3.6.5,1.4.1,2,0,.1-.2.2-.3.2-.3,0-.5-.3-.8-.6-.3-.3-.8-.4-1.2-.5s-.8-.4-.9-.9c0-.3.1-.5.2-.8.2-.4.3-.9.2-1.3,0-.4-.1-.7-.4-1s-.7-.3-1-.1c-.1.1-.2.3-.4.3-.3,0-.5-.5-.8-.3,0,.2,0,.4-.1.5-.7.6-1.8.4-2.8.6-.4.1-.9.3-1.3.5-.1,0-.3.2-.4.3-.1.2,0,.5.2.7.2.1.5.2.7.2,1.1.2,2.3.5,3.2,1.3s1.5,1.9,1.2,3l-2.2-2.1c0,.9.1,1.8.1,2.7,0,.2,0,.4,0,.5-.2.4-.6.5-1,.5-.4,0-.7.5-.6.9,0,0,0,0,0,0,.1.4.5.8.8,1.1s.6.7.6,1.2-.3,1-.8.9c-.3,0-.6-.3-.8-.6s-.2-.7-.5-.9c-.7-.8-2.2-.5-2.8-1.3-.3.4-.4.8-.3,1.3.3-.2.7,0,.9.2s.3.6.5.9c.2.4.6.7.6,1.2,0,.2,0,.3,0,.5,0,.3.3.5.4.7.4.5.3,1.2.1,1.8s-.7,1.1-1.1,1.6c-.7.8-1.5,1.7-2.4,2.4-.2.2-.5.4-.7.7s-.2.7,0,.9c-.2,0-.5,0-.6.1,0-.7,0-1.4,0-2.1-.7-.3-1.4.5-1.3,1.3s.6,1.3,1,2c.3.5.5,1,.4,1.6s-.6,1-1.1,1c-.9,0-1.2-1.3-2.1-1.5,0,0-.2,0-.2,0-.1,0-.1.2-.2.4,0,.7,0,1.5.2,2.1.4,1,1.5,1.8,1.2,2.8-1.2-.6-1.8-1.9-2.1-3.2s-.3-2.6-.8-3.8c-.4.5-1.2,0-1.5-.4-.3-.5-.5-1-.9-1.5s-.8-.9-1.4-1c-.6,0-1.1.4-1.6.8-.4.3-.8.7-1,1.1-.3.7-.2,1.4-.3,2.2,0,.8-.2,1.6-.7,2.2s-1.5.8-2.1.3c-.3-.3-.5-.7-.6-1.1-.6-1.9-1.2-3.8-1.6-5.8-.1.4-.5,1-.9.8,0,0-.2-.2-.2-.3-.7-1.2-2-1.9-3.3-2.3s-2.7-.6-4-1.1c-.7-.3-1.4-.6-2.1-1-.3.5-.4,1.1,0,1.7.3.5.9.8,1.5.6.3,0,.5-.3.8-.4s.7,0,.8.2c.1.3,0,.6,0,.9.1.4.8.5,1,.8.2.3,0,.7-.2.9s-.5.4-.8.5c-.9.5-1.6,1.4-2.4,2.1s-2,1.2-2.9.7c.2-1.2-1.2-2-1.4-3.2,0-.4,0-.8-.2-1.2-.2-.5-.7-.9-1-1.3-1-1-1.5-2.4-1.4-3.8,0-.5.1-1,0-1.4s-.5-.9-1-.9c-1.1,0-2.5.1-3.1-.8-.2-.3-.3-.8,0-1.1.2-.2.5-.2.8-.1l2.5.2c.6,0,1.2.1,1.7-.2s.7-1.1.3-1.5c-.3-.3-.9-.2-1-.7,0-.3.3-.7,0-1-.1-.2-.5-.1-.7,0s-.3.4-.6.5c-.4.2-.9,0-1.3-.1s-1-.1-1.2.2c-.2.4.2,1,0,1.5-.3.6-1.3.3-1.7.8-.5.6.3,1.4.2,2.2-.4.2-.9.2-1.3,0-.4-.3-.6-.7-.6-1.2,0-.3.2-.7,0-1,0-.3-.3-.4-.6-.5l-2.4-1.3c-.2.4,0,.9.4,1.2s.8.5,1,1c.3.6,0,1.3-.5,1.6,0,0-.2,0-.2,0,0,0-.1-.1-.2-.2-.4-1.1-1.1-2.2-2.1-2.7s-2.5-.4-3.1.5c-.2.2-.3.5-.4.7-.7,1.3-2.3,1.9-3.8,1.8-.1,0-.3,0-.4,0-.2-.2-.2-.5-.2-.8l.2-1.2c0-.2,0-.5.3-.7.3-.2.7,0,1,0,.5,0,1-.4,1.2-.9.1-.5,0-1.1-.4-1.4-.2-.1-.4-.3-.3-.5,0-.1.2-.2.3-.2.6-.2,1.3-.2,1.9-.4s1.2-.6,1.3-1.3c0-.2,0-.4.2-.5,0,0,.2,0,.3,0,.7,0,1.2-.7,1.1-1.4.3-.2.7,0,1,.2s.5.5.9.6c.6.2,1.3-.4,1.9-.4.3,0,.6,0,.8,0,.3,0,.4-.4.6-.6s.6-.3.8-.1l-.2-1.2c.7.2,1.4,0,1.9-.3l-2.1-.7c0,0-.1,0-.2-.1-.2-.2,0-.4.1-.6.3-.4.3-1.2-.1-1.4-.3-.2-.7,0-1,.2l-1.5.8c0,.3.3.5.5.6.4.3.4.9,0,1.2-.2.2-.4.3-.6.3.2.3.3.6.2.9h-1c-.1,0-.2,0-.3,0-.1,0,0-.3-.1-.4,0-.3-.4-.6-.7-.7s-.7,0-1,0c-.1,0-.3,0-.5,0,0,0-.1-.1-.2-.2-.2-.4,0-.8.2-1.1s.6-.5.9-.8c.7-.6,1.2-1.4,1.5-2.3.6-.2,1.1-.6,1.7-.8.9-.4,1.8-.6,2.8-.5h1.9c.6,0,1.1,0,1.7.3s1,.7,1,1.2c0,.1,0,.3-.1.3,0,0-.2,0-.2,0-.5,0-.8.1-1.3.2Z"/>
          <path class="cls-13" d="M585.5,104.3c.2-.1.2-.4.2-.6-.4-.1-.8,0-1.1.2-.1.1-.2.2-.3.4-.3.4-.5.9-.3,1.4,0,.1,0,.2.2.2,0,0,.1,0,.2,0,.3,0,.6,0,.8,0,.2,0,.4,0,.4-.2,0-.2-.1-.4,0-.7,0,0,0-.2.2-.3,0,0,.1-.2.1-.3,0-.1-.2-.2-.2,0"/>
          <path class="cls-13" d="M587,102.5c-.2,0-.5,0-.7,0,0,0-.1,0-.2,0,0,0,0,0,0,.1-.1.4,0,.7.4.9,0,0,.2,0,.3.1.2.2,0,.5.1.8,0,.3.3.5.3.8,0,.2-.3.4-.3.7,0,.2.4.3.6.3.1,0,.3,0,.4,0,.1,0,.2-.2.3-.4.1-.3.1-.6.1-.9,0-.1,0-.3-.1-.4,0-.1-.2-.2-.2-.3-.5-.6,0-1.4-.9-1.6Z"/>
          <path class="cls-2" d="M649.3,145.7s-36.3-20.8-51.9-16.9c0,0-33.1,3.6-37,11.4,0,0-10.5-32.9-14.4-34"/>
          <path class="cls-2" d="M560.4,140.2c6.1-16.2,60.9-34.2,60.9-34.2-7.8,2-24,22.8-24,22.8,0,0-34.2-24.9-51.3-22.6,0,0,75.4,2.5,103.3,39.5"/>
          <circle class="cls-10" cx="546" cy="106.2" r="1.6"/>
          <circle class="cls-10" cx="560.4" cy="140.2" r="1.6"/>
          <circle class="cls-10" cx="621.3" cy="106" r="1.6"/>
          <circle class="cls-10" cx="649.3" cy="145.7" r="1.6"/>
          <circle class="cls-10" cx="597.4" cy="128.8" r="1.6"/>
        </g>
      </g>
      <g>
        <g>
          <g>
            <path class="cls-11" d="M439.5,603.3h-125.6c-2.6,0-5-1.4-6.3-3.6l-62.8-108.7c-1.3-2.3-1.3-5,0-7.3l62.8-108.7c1.3-2.2,3.7-3.6,6.3-3.6h125.6c2.6,0,5,1.4,6.3,3.6l62.8,108.7c1.3,2.2,1.3,5,0,7.3l-62.8,108.7c-1.3,2.2-3.7,3.6-6.3,3.6Z"/>
            <path class="cls-23" d="M326.6,573.9h100.2l50.1-86.7-50.1-86.7h-100.2l-50.1,86.7,50.1,86.7Z"/>
            <path class="cls-20" d="M439.5,603.3h-125.6c-2.6,0-5-1.4-6.3-3.6l-62.8-108.7c-1.3-2.3-1.3-5,0-7.3l62.8-108.7c1.3-2.2,3.7-3.6,6.3-3.6h125.6c2.6,0,5,1.4,6.3,3.6l62.8,108.7c1.3,2.2,1.3,5,0,7.3l-62.8,108.7c-1.3,2.2-3.7,3.6-6.3,3.6ZM313.9,374.2c-1.6,0-3,.8-3.8,2.2l-62.8,108.7c-.8,1.3-.8,3,0,4.4l62.8,108.7c.8,1.3,2.2,2.2,3.8,2.2h125.6c1.6,0,3-.8,3.8-2.2l62.8-108.7c.8-1.3.8-3,0-4.4l-62.8-108.7c-.8-1.3-2.2-2.2-3.8-2.2h-125.6Z"/>
          </g>
          <g>
            <g>
              <path class="cls-19" d="M344.1,514.5c6.9,0,12.6,5.7,12.6,12.6s-5.7,12.6-12.6,12.6-12.6-5.7-12.6-12.6c0-6.9,5.7-12.6,12.6-12.6ZM415.3,514.5c6.9,0,12.6,5.7,12.6,12.6s-5.7,12.6-12.6,12.6-12.6-5.7-12.6-12.6,5.7-12.6,12.6-12.6Z"/>
              <path class="cls-21" d="M415.3,522.9c2.3,0,4.2,1.9,4.2,4.2s-1.9,4.2-4.2,4.2-4.2-1.9-4.2-4.2,1.9-4.2,4.2-4.2ZM344.1,522.9c2.3,0,4.2,1.9,4.2,4.2s-1.9,4.2-4.2,4.2-4.2-1.9-4.2-4.2,1.9-4.2,4.2-4.2Z"/>
              <path class="cls-10" d="M436.3,508.2v18.9h-8.4c0-6.9-5.7-12.6-12.6-12.6s-12.6,5.7-12.6,12.6h-46.1c0-6.9-5.7-12.6-12.6-12.6s-12.6,5.7-12.6,12.6h-16.8v-18.9c0-1,.8-2.1,2.1-2.1h117.3c1,0,2.1,1,2.1,2.1h0Z"/>
              <polygon class="cls-10" points="432.1 489.4 432.1 506.1 360.8 506.1 360.8 460.1 369.2 460.1 369.2 481 386 481 402.7 481 402.7 489.4 417.4 489.4 432.1 489.4"/>
              <g>
                <path class="cls-19" d="M417.4,489.4h-14.7v-29.3h14.7c4.6,0,8.4,3.8,8.4,8.4l6.3,20.9h-14.7Z"/>
                <polygon class="cls-19" points="386 481 402.7 481 402.7 460.1 386 460.1 386 481"/>
              </g>
              <path class="cls-20" d="M360.8,460.1v46.1h-44c-1.3,0-2.1,1-2.1,2.1v-48.2h46.1Z"/>
              <polygon class="cls-19" points="369.2 481 386 481 386 460.1 369.2 460.1 369.2 481"/>
            </g>
            <g>
              <circle class="cls-22" cx="390.2" cy="494" r="9.9"/>
              <path class="cls-17" d="M388.2,491.2c.8-2,.6-5,.6-5,0,0,2,.9,3.5,3.2,1.3,2.2,0,5.5,0,5.5,1-1,1.3-1.9,1.4-3.1,1.1,1.8,1.9,3.8,1.9,5.8s-2.3,4.5-5.1,4.5c-2.8,0-5.1-2-5.1-4.5,0-2.4,1.8-4,2.7-6.3Z"/>
              <g class="cls-12">
                <path class="cls-15" d="M389.2,495.5c.4-1.2.3-3,.3-3,0,0,4,3.1,3.8,6.9-.1,1.5-1.3,2.8-2.8,2.8s-2.8-1.2-2.8-2.8c0-1.5,1-2.4,1.5-3.8Z"/>
              </g>
              <g class="cls-12">
                <path class="cls-22" d="M389.7,497.9c.3-.8.2-1.9.2-1.9,0,0,2.6,1.9,2.4,4.4,0,1-.8,1.7-1.8,1.7-1,0-1.8-.8-1.8-1.7,0-.9.6-1.5,1-2.4Z"/>
              </g>
            </g>
            <path class="cls-3" d="M415.3,540.7c-7.5,0-13.6-6.1-13.6-13.6s6.1-13.6,13.6-13.6,13,5.4,13.6,12.6h6.3v-17.8c0-.6-.6-1-1-1h-2.1c-.6,0-1-.4-1-1v-16.5l-6.3-20.7v-.2c0-4-3.4-7.3-7.3-7.3h-13.6v27.2h13l4-7.7c.2-.4.8-.6,1.5-.4.4.2.6.6.6.8s0,.4-.2.4l-3.4,6.9h4.6c.6,0,1,.4,1,1s-.4,1-1,1h-20.9c-.6,0-1-.4-1-1v-29.3c0-.6.4-1,1-1h14.7c5.2,0,9.4,4.2,9.4,9.2l6.3,20.7v15.9h1c1.7,0,3.1,1.5,3.1,3.1v18.9c0,.6-.4,1-1,1h-7.3c-.8,7.1-6.7,12.6-13.8,12.6ZM415.3,515.6c-6.3,0-11.5,5.2-11.5,11.5s5.2,11.5,11.5,11.5,11.5-5.2,11.5-11.5-5.2-11.5-11.5-11.5ZM344.1,540.7c-7.5,0-13.6-6.1-13.6-13.6s6.1-13.6,13.6-13.6,13,5.4,13.6,12.6h36.7c.6,0,1,.4,1,1s-.4,1-1,1h-36.7c-.6,7.1-6.5,12.6-13.6,12.6ZM344.1,515.6c-6.3,0-11.5,5.2-11.5,11.5s5.2,11.5,11.5,11.5,11.5-5.2,11.5-11.5-5.2-11.5-11.5-11.5ZM415.3,532.3c-2.9,0-5.2-2.3-5.2-5.2s2.3-5.2,5.2-5.2,5.2,2.3,5.2,5.2-2.3,5.2-5.2,5.2ZM415.3,523.9c-1.7,0-3.1,1.5-3.1,3.1s1.5,3.1,3.1,3.1,3.1-1.5,3.1-3.1-1.5-3.1-3.1-3.1ZM344.1,532.3c-2.9,0-5.2-2.3-5.2-5.2s2.3-5.2,5.2-5.2,5.2,2.3,5.2,5.2c0,2.9-2.3,5.2-5.2,5.2ZM344.1,523.9c-1.7,0-3.1,1.5-3.1,3.1s1.5,3.1,3.1,3.1,3.1-1.5,3.1-3.1-1.5-3.1-3.1-3.1ZM323.1,528.1h-8.4c-.6,0-1-.4-1-1v-18.9c0-1.7,1.5-3.1,3.1-3.1h106.8c.6,0,1,.4,1,1s-.4,1-1,1h-106.8c-.6,0-1,.6-1,1v17.8h7.3c.6,0,1,.4,1,1s-.4,1-1,1ZM360.8,498.8c-.6,0-1-.4-1-1v-37.7c0-.6.4-1,1-1s1,.4,1,1v37.7c0,.6-.4,1-1,1ZM314.8,498.8c-.6,0-1-.4-1-1v-37.7c0-4.8,3.8-8.8,8.4-9.4v-14.7h-3.1c-.6,0-1-.4-1-1s.4-1,1-1h113.1c2.9,0,5.2,2.3,5.2,5.2v8.4c0,2.9-2.3,5.2-5.2,5.2h-108.9c-4,0-7.3,3.4-7.3,7.3v37.7c0,.6-.4,1-1,1ZM424.7,450.6h7.3c1.9,0,3.1-1.3,3.1-3.1v-8.4c0-1.9-1.3-3.1-3.1-3.1h-7.3v14.7ZM412.2,450.6h10.5v-14.7h-10.5v14.7ZM399.6,450.6h10.5v-14.7h-10.5v14.7ZM387,450.6h10.5v-14.7h-10.5v14.7ZM374.5,450.6h10.5v-14.7h-10.5v14.7h0ZM361.9,450.6h10.5v-14.7h-10.5v14.7ZM349.3,450.6h10.5v-14.7h-10.5v14.7h0ZM336.8,450.6h10.5v-14.7h-10.5v14.7ZM324.2,450.6h10.5v-14.7h-10.5v14.7ZM394.4,482h-8.4c-.6,0-1-.4-1-1v-20.9c0-.6.4-1,1-1h8.4c.6,0,1,.4,1,1s-.4,1-1,1h-7.3v18.9h7.3c.6,0,1,.4,1,1s-.4,1-1,1ZM377.6,482h-8.4c-.6,0-1-.4-1-1v-20.9c0-.6.4-1,1-1h8.4c.6,0,1,.4,1,1s-.4,1-1,1h-7.3v18.9h7.3c.6,0,1,.4,1,1s-.4,1-1,1Z"/>
          </g>
        </g>
        <g>
          <g>
            <path class="cls-11" d="M439.5,357h-125.6c-2.6,0-5-1.4-6.3-3.6l-62.8-108.7c-1.3-2.3-1.3-5,0-7.3l62.8-108.7c1.3-2.2,3.7-3.6,6.3-3.6h125.6c2.6,0,5,1.4,6.3,3.6l62.8,108.7c1.3,2.2,1.3,5,0,7.3l-62.8,108.7c-1.3,2.2-3.7,3.6-6.3,3.6Z"/>
            <path class="cls-23" d="M326.6,327.7h100.2l50.1-86.7-50.1-86.7h-100.2l-50.1,86.7,50.1,86.7Z"/>
            <path class="cls-20" d="M439.5,357h-125.6c-2.6,0-5-1.4-6.3-3.6l-62.8-108.7c-1.3-2.3-1.3-5,0-7.3l62.8-108.7c1.3-2.2,3.7-3.6,6.3-3.6h125.6c2.6,0,5,1.4,6.3,3.6l62.8,108.7c1.3,2.2,1.3,5,0,7.3l-62.8,108.7c-1.3,2.2-3.7,3.6-6.3,3.6ZM313.9,127.9c-1.6,0-3,.8-3.8,2.2l-62.8,108.7c-.8,1.3-.8,3,0,4.4l62.8,108.7c.8,1.3,2.2,2.2,3.8,2.2h125.6c1.6,0,3-.8,3.8-2.2l62.8-108.7c.8-1.3.8-3,0-4.4l-62.8-108.7c-.8-1.3-2.2-2.2-3.8-2.2h-125.6Z"/>
          </g>
          <g>
            <circle class="cls-10" cx="342.6" cy="218" r="8.2"/>
            <path class="cls-3" d="M368.4,243.3h-40.3c0,0-.1,0-.2,0l19.1-33c.4-.6,1.2-.9,1.8-.5.2.1.4.3.5.5l12.8,22.1.6,1.1,5.7,9.8Z"/>
            <polygon class="cls-8" points="368.4 243.3 354.6 243.3 361.4 233.5 361.9 232.8 362.1 232.4 362.7 233.5 368.4 243.3"/>
            <path class="cls-3" d="M390.8,243.3h-34.8l6.8-9.8.5-.7,8.8-12.8c.6-.8,2-.9,2.6-.2,0,0,0,.1.1.2l16,23.3Z"/>
            <circle class="cls-10" cx="401" cy="235.4" r="2.5"/>
            <polygon class="cls-3" points="401.3 242.8 400.8 242.8 401 235 401.3 242.8"/>
            <polygon class="cls-18" points="401 236.5 401.6 235.7 401 236.7 401 236.6 401 236.5"/>
            <polygon class="cls-18" points="401 237.2 400.4 236.5 401 237.4 401 237.3 401 237.2"/>
            <circle class="cls-10" cx="423.7" cy="235.4" r="2.5"/>
            <polygon class="cls-3" points="424 242.8 423.5 242.8 423.7 235 424 242.8"/>
            <polygon class="cls-18" points="423.7 236.5 424.3 235.7 423.7 236.7 423.7 236.6 423.7 236.5"/>
            <polygon class="cls-18" points="423.7 237.2 423.1 236.5 423.7 237.4 423.7 237.3 423.7 237.2"/>
            <circle class="cls-10" cx="408.2" cy="231.8" r="3.7"/>
            <polygon class="cls-3" points="408.5 242.8 407.8 242.8 408.1 231.3 408.5 242.8"/>
            <polygon class="cls-18" points="408.2 233.4 409 232.3 408.2 233.7 408.1 233.6 408.2 233.4"/>
            <polygon class="cls-18" points="408.1 234.6 407.3 233.5 408.1 234.8 408.2 234.7 408.1 234.6"/>
            <circle class="cls-10" cx="417.1" cy="231.8" r="3.7"/>
            <polygon class="cls-3" points="417.5 242.8 416.7 242.8 417.1 231.3 417.5 242.8"/>
            <polygon class="cls-18" points="417.1 233.4 417.9 232.3 417.1 233.7 417 233.6 417.1 233.4"/>
            <polygon class="cls-18" points="417 234.6 416.2 233.5 417 234.8 417.1 234.7 417 234.6"/>
            <circle class="cls-10" cx="394" cy="231.8" r="3.7"/>
            <polygon class="cls-3" points="394.3 242.8 393.6 242.8 393.9 231.3 394.3 242.8"/>
            <polygon class="cls-18" points="394 233.4 394.8 232.3 394 233.7 393.9 233.6 394 233.4"/>
            <polygon class="cls-18" points="393.9 234.6 393.1 233.5 393.9 234.8 394 234.7 393.9 234.6"/>
            <path class="cls-13" d="M437.2,280.8h-119.3c-6.3,0-11.4-5.1-11.4-11.4s5.1-11.4,11.4-11.4h119c2.4,0,4.4-2,4.4-4.4s-2-4.4-4.4-4.4h-123v-7h123c6.3,0,11.4,5.1,11.4,11.4,0,6.3-5.1,11.4-11.4,11.4h-119c-2.4,0-4.4,2-4.4,4.4s2,4.4,4.4,4.4h119.3v7Z"/>
            <rect class="cls-22" x="318.4" y="245.4" width="5.5" height=".4"/>
            <rect class="cls-22" x="333.9" y="245.4" width="5.5" height=".4"/>
            <rect class="cls-22" x="349.4" y="245.4" width="5.5" height=".4"/>
            <rect class="cls-22" x="364.9" y="245.4" width="5.5" height=".4"/>
            <rect class="cls-22" x="380.4" y="245.4" width="5.5" height=".4"/>
            <rect class="cls-22" x="395.9" y="245.4" width="5.5" height=".4"/>
            <rect class="cls-22" x="411.4" y="245.4" width="5.5" height=".4"/>
            <rect class="cls-22" x="426.8" y="245.4" width="5.5" height=".4"/>
            <rect class="cls-22" x="318.4" y="261.2" width="5.5" height=".4"/>
            <rect class="cls-22" x="333.9" y="261.2" width="5.5" height=".4"/>
            <rect class="cls-22" x="349.4" y="261.2" width="5.5" height=".4"/>
            <rect class="cls-22" x="364.9" y="261.2" width="5.5" height=".4"/>
            <rect class="cls-22" x="380.4" y="261.2" width="5.5" height=".4"/>
            <rect class="cls-22" x="395.9" y="261.2" width="5.5" height=".4"/>
            <rect class="cls-22" x="411.4" y="261.2" width="5.5" height=".4"/>
            <rect class="cls-22" x="426.8" y="261.2" width="5.5" height=".4"/>
            <rect class="cls-22" x="318.4" y="277.1" width="5.5" height=".4"/>
            <rect class="cls-22" x="333.9" y="277.1" width="5.5" height=".4"/>
            <rect class="cls-22" x="349.4" y="277.1" width="5.5" height=".4"/>
            <rect class="cls-22" x="364.9" y="277.1" width="5.5" height=".4"/>
            <rect class="cls-22" x="380.4" y="277.1" width="5.5" height=".4"/>
            <rect class="cls-22" x="395.9" y="277.1" width="5.5" height=".4"/>
            <rect class="cls-22" x="411.4" y="277.1" width="5.5" height=".4"/>
            <rect class="cls-22" x="426.8" y="277.1" width="5.5" height=".4"/>
            <path class="cls-1" d="M398.1,216.6c-.3-.4-.6-.7-1-.9h2c-.4.2-.8.5-1.1.9Z"/>
            <path class="cls-1" d="M391.4,215.7h.4c0,0-.2.1-.2.2,0,0,0-.1-.1-.2Z"/>
            <path class="cls-13" d="M400.8,215.2c.6,0,1.1.1,1.6.4h-3.3c.5-.3,1.1-.4,1.6-.4Z"/>
            <path class="cls-13" d="M394.4,214.8c1,0,1.9.3,2.7.8h-5.3c.8-.6,1.7-.8,2.7-.8Z"/>
            <path class="cls-13" d="M358.4,209.4c.3-4.8,4.4-8.4,9.2-8.2,3.7.2,6.9,2.8,7.9,6.3.1,0,.2,0,.3,0,3.9,0,7.2,2.5,8.3,6.2,2.6-1.1,5.5-.4,7.3,1.8h-27.1c-3.2,0-5.9-2.6-5.9-5.9,0,0,0-.1,0-.2,0,0,0,0,0-.1Z"/>
            <path class="cls-1" d="M405.4,222.9c.3-.4.6-.7,1-.9h-2c.4.2.8.5,1.1.9Z"/>
            <path class="cls-1" d="M412.1,222h-.4c0,0,.2.1.2.2,0,0,0-.1.1-.2Z"/>
            <path class="cls-13" d="M402.7,221.6c-.6,0-1.1.1-1.6.4h3.3c-.5-.3-1.1-.4-1.6-.4Z"/>
            <path class="cls-13" d="M409.1,221.1c-1,0-1.9.3-2.7.8h5.3c-.8-.6-1.7-.8-2.7-.8Z"/>
            <path class="cls-13" d="M445.1,215.8c-.3-4.8-4.4-8.4-9.2-8.2-3.7.2-6.9,2.8-7.9,6.3-.1,0-.2,0-.3,0-3.9,0-7.2,2.5-8.3,6.2-2.6-1.1-5.5-.4-7.3,1.8h27.1c3.2,0,5.9-2.6,5.9-5.9,0,0,0-.1,0-.2,0,0,0,0,0-.1Z"/>
            <rect class="cls-18" x="427" y="275.4" width="3.1" height=".5"/>
            <path class="cls-10" d="M404.3,275.5l.6.2h24.7s.2-.5.2-.5c.4-.9.5-1.9.4-2.8-.1-.7-.4-1.4-1-1.7l-1.1-7.3h-13.7s-5.3,4.2-5.3,4.2c0,0-2.5,0-3.8,1.6-.5.6-.8,1.4-.8,2.2v.9c0,0-.3,3.3-.3,3.3Z"/>
            <circle class="cls-18" cx="409.7" cy="275.4" r="3"/>
            <circle class="cls-20" cx="409.7" cy="275.4" r="1.6"/>
            <circle class="cls-18" cx="424.7" cy="275.4" r="3"/>
            <circle class="cls-20" cx="424.7" cy="275.4" r="1.6"/>
            <polygon class="cls-22" points="411.3 267 418.7 267 419.6 267 421.1 267 421.1 266.9 421.1 265.6 421.1 264.1 420.1 264.1 419.2 264.1 417.6 264.1 416.7 264.1 414.8 264.1 411.3 267"/>
            <polygon class="cls-22" points="422.3 267 426.2 267 426.2 266.3 426.2 264.9 426.2 264.1 425.6 264.1 424.7 264.1 422.3 264.1 422.3 267"/>
            <rect class="cls-18" x="420.6" y="269.2" width=".5" height=".9"/>
            <rect class="cls-18" x="412.3" y="267.9" width=".9" height=".5"/>
            <path class="cls-18" d="M412.9,268.1h0c-.6,0-1-.5-1-1h0c0-.6.5-1,1-1h0s0,2.1,0,2.1h0Z"/>
            <path class="cls-18" d="M404.5,272.2c.9,0,1.7-.5,1.8-1.4,0-.7-.3-1.3-.9-1.6-.5.6-.8,1.4-.8,2.2v.9Z"/>
            <polygon class="cls-23" points="419.2 264.1 421.1 266.9 421.1 265.6 420.1 264.1 419.2 264.1"/>
            <polygon class="cls-23" points="424.7 264.1 426.2 266.3 426.2 264.9 425.6 264.1 424.7 264.1"/>
            <polygon class="cls-23" points="416.7 264.1 418.7 267 419.6 267 417.6 264.1 416.7 264.1"/>
            <circle class="cls-3" cx="313.1" cy="243.5" r="8.1"/>
            <path class="cls-10" d="M313.2,245.9l-4.1-4.1c-.3-.3-.3-.7,0-1,.3-.3.7-.3,1,0l3,3,9.5-10.9c.3-.3.7-.3,1,0,.3.3.3.7,0,1l-10.5,12Z"/>
          </g>
        </g>
      </g>
      <g>
        <g>
          <g>
            <path class="cls-11" d="M222.5,484h-125.6c-2.6,0-5-1.4-6.3-3.6l-62.8-108.7c-1.3-2.3-1.3-5,0-7.3l62.8-108.7c1.3-2.2,3.7-3.6,6.3-3.6h125.6c2.6,0,5,1.4,6.3,3.6l62.8,108.7c1.3,2.2,1.3,5,0,7.3l-62.8,108.7c-1.3,2.2-3.7,3.6-6.3,3.6Z"/>
            <path class="cls-23" d="M109.6,454.6h100.2l50.1-86.7-50.1-86.7h-100.2l-50.1,86.7,50.1,86.7Z"/>
            <path class="cls-20" d="M222.5,484h-125.6c-2.6,0-5-1.4-6.3-3.6l-62.8-108.7c-1.3-2.3-1.3-5,0-7.3l62.8-108.7c1.3-2.2,3.7-3.6,6.3-3.6h125.6c2.6,0,5,1.4,6.3,3.6l62.8,108.7c1.3,2.2,1.3,5,0,7.3l-62.8,108.7c-1.3,2.2-3.7,3.6-6.3,3.6ZM96.9,254.9c-1.6,0-3,.8-3.8,2.2l-62.8,108.7c-.8,1.3-.8,3,0,4.4l62.8,108.7c.8,1.3,2.2,2.2,3.8,2.2h125.6c1.6,0,3-.8,3.8-2.2l62.8-108.7c.8-1.3.8-3,0-4.4l-62.8-108.7c-.8-1.3-2.2-2.2-3.8-2.2h-125.6Z"/>
          </g>
          <g>
            <g>
              <path class="cls-23" d="M189.9,420.7l-.4-4.9c-2.3-1.2-4.9-1.7-7.5-1.7,3.6,2.8,3.3,8.4,5.9,12.3,1.6,2.4,4.2,4,7.1,4.2l3,1.7c.7-4.6-.7-9.3-3.7-12.9-.9-1-1.8-1.8-2.9-2.6-.7,1.9-1.6,3.8-1.6,3.8Z"/>
              <path id="a8455189-ed55-4a18-ae95-69e4c9a5ea4d-61" class="cls-20" d="M171.8,433h48.5c0,0,.2,0,.2-.2s0-.2-.2-.2h-48.5c0,0-.2,0-.2.2s0,.2.2.2h0Z"/>
              <path class="cls-22" d="M127.8,380.1h0c0,0,0,0,0,0,0,0,0,0,0,0ZM128.3,339.8c-4.6,6-7.1,13.4-7.1,21,0,1.2,0,2.3.2,3.4,0,.2,0,.4,0,.6.6,5.6,2.6,10.9,5.8,15.5.1.2.3.4.4.5,1.4,1.9,2.9,3.7,4.7,5.3,14,12.9,35.8,12.1,48.7-1.9.2-.2.4-.4.6-.6,10.9-12.4,11.5-30.7,1.5-43.8-.1-.2-.3-.4-.5-.6-.3-.4-.7-.8-1.1-1.3-.2-.2-.4-.4-.6-.6-6.5-7.1-15.7-11.1-25.3-11.1-.3,0-.7,0-1,0-.2,0-.4,0-.7,0-9.9.5-19.1,5.2-25.3,12.9-.2.2-.3.4-.5.6h0ZM127.8,380.2s0,0,0,0h0c0,0,0,0,0,0Z"/>
              <path class="cls-18" d="M127.5,379.7v-.2c0,0,7.4-14.8,7.4-14.8h0s.3-.6.3-.6h0s12.1-24.4,12.1-24.4h0s.3-.6.3-.6h0s6.1-12.4,6.1-12.4l.3-.6c.2,0,.4,0,.7,0l-.3.6-6.1,12.4h0s-.3.6-.3.6h0s-12.4,25-12.4,25h0s-7.3,14.8-7.3,14.8l-.3.6h0c0,0-.3.7-.3.7-.1-.2-.3-.4-.4-.5l.3-.6Z"/>
              <path class="cls-18" d="M135.4,364.2v.6h-14c0-.2,0-.4,0-.6h14.1Z"/>
              <path class="cls-18" d="M157.3,368.7v-.6h14c0,.2,0,.4,0,.6h-14.1Z"/>
              <path class="cls-18" d="M169,366.7h.6v14c-.2,0-.4,0-.6,0v-14.1Z"/>
              <path class="cls-18" d="M183.1,339.8c-.1-.2-.3-.4-.5-.6h-1.1v-1.3c-.2-.2-.4-.4-.6-.6v1.9h-52.3c-.2.2-.3.4-.5.6h52.7v44.4c.2-.2.4-.4.6-.6v-43.8h1.5Z"/>
              <rect class="cls-18" x="127.8" y="379.6" width="53.5" height=".6"/>
              <path class="cls-5" d="M127.8,380.1h0c0,0,0,0,0,0,0,0,0,0,0,0ZM128.3,339.8c-4.6,6-7.1,13.4-7.1,21,0,1.2,0,2.3.2,3.4,0,.2,0,.4,0,.6.6,5.6,2.6,10.9,5.8,15.5.1.2.3.4.4.5,1.4,1.9,2.9,3.7,4.7,5.3,14,12.9,35.8,12.1,48.7-1.9.2-.2.4-.4.6-.6,10.9-12.4,11.5-30.7,1.5-43.8-.1-.2-.3-.4-.5-.6-.3-.4-.7-.8-1.1-1.3-.2-.2-.4-.4-.6-.6-6.5-7.1-15.7-11.1-25.3-11.1-.3,0-.7,0-1,0-.2,0-.4,0-.7,0-9.9.5-19.1,5.2-25.3,12.9-.2.2-.3.4-.5.6h0ZM122,364.8c0-.2,0-.4,0-.6-.9-8.7,1.7-17.5,7.1-24.4.2-.2.3-.4.5-.6,6-7.3,14.8-11.8,24.3-12.4.2,0,.4,0,.7,0,.4,0,.8,0,1.3,0,9.7,0,18.9,4.1,25.3,11.4.2.2.4.4.6.7.1.1.2.3.3.4.2.2.3.4.5.6,10,12.7,9.6,30.6-.8,42.9-.2.2-.4.4-.6.7-1.8,2-3.7,3.7-5.9,5.2-15.3,10.7-36.5,7-47.2-8.3,0,0,0,0,0,0,0,0,0,0,0,0,0-.1-.2-.2-.2-.4-3-4.5-4.9-9.6-5.6-15h0ZM127.8,380.2s0,0,0,0h0c0,0,0,0,0,0Z"/>
              <path class="cls-26" d="M195.5,397.9h-34.4c-.9,0-1.6-.7-1.6-1.6v-16.8c0-.9.7-1.6,1.6-1.6h34.4c.9,0,1.6.7,1.6,1.6v16.8c0,.9-.7,1.6-1.6,1.6Z"/>
              <path class="cls-16" d="M180.3,396.5c-7.5,0-15.4,0-18.3-.1-.8,0-1.4-.7-1.4-1.5v-15.4c0-.3.2-.5.5-.5h34.4c.3,0,.5.2.5.5v10.5c0,3.6-2.9,6.4-6.4,6.5-2.7,0-6,0-9.3,0Z"/>
              <path class="cls-26" d="M191.9,388.6h-28c-.4,0-.7-.2-.8-.6l-3.2-8.9c-.2-.5,0-1,.5-1.1,0,0,.2,0,.3,0h35s0,0,0,0c.5,0,.9.4.9.9,0,.1,0,.2,0,.3h0s0,0,0,0l-3.8,8.9c-.1.3-.5.5-.8.5Z"/>
              <path class="cls-26" d="M172,394.8h-9.7c-.5,0-.9-.4-.9-.9,0-.5.4-.9.9-.9h9.7c.5,0,.9.4.9.9,0,.5-.4.9-.9.9Z"/>
              <circle class="cls-18" cx="178.2" cy="388.6" r="2.2"/>
              <path class="cls-14" d="M208.6,379.5l-3.4-1c-1.5,1.8-2.7,7-2.7,7l-4.7,7.7c-.8.4-1.1,1.3-.8,2.1.4.8,1.3,1.1,2.1.8.5-.2.9-.7.9-1.3l7.1-8.7,1.5-6.6Z"/>
              <path class="cls-10" d="M208.6,380.3l.6-5.2-1.4-2.4c-.6-1-1.6-1.5-2.7-1.4h0c-1.5.1-2.7,1.4-2.7,3,0,2.2.4,5.1,1.8,5.8h0s4.4.2,4.4.2Z"/>
              <polygon class="cls-14" points="218.3 427.4 216.2 428.4 211.4 420.9 214.4 419.5 218.3 427.4"/>
              <path class="cls-9" d="M219.4,429.6l-6.4,3.1h0c-.7-1.4,0-3.1,1.3-3.7h0s.7-1.4.7-1.4l2.6-.2.6-.3,1.2,2.6Z"/>
              <polygon class="cls-14" points="202.9 430.2 200.6 430.2 199.5 421.4 202.9 421.4 202.9 430.2"/>
              <path class="cls-9" d="M203,432.6h-7.1c0-1.6,1.2-2.8,2.7-2.8h0l1.3-1,2.4,1h.6s0,2.8,0,2.8Z"/>
              <path class="cls-9" d="M200.6,389.2l-2.6,18.1.7,2.4-.9,1.7,1.4,12.7-.6,1.2,1.6,1h3.2l.2-13.4.8-2v-1.1l1.6-8.2.4,12.7.5,1c1.9,4.3,4.5,5.7,6.3,9l3.2-1.7v-1.3c.6-.3-1-1.3-1.2-2l-.3-1.3-1.9-3.8v-1.4c0,0,.4-9.2.4-9.2l-.2-12.4-4.2-3.2-8.3,1.1Z"/>
              <circle class="cls-14" cx="204.8" cy="363.1" r="4.1"/>
              <path class="cls-10" d="M198.7,397h0s.8-2.6.8-2.6c-.2-.7,0-1.4.4-2-.1-.2-.7-1.3.2-2.2,0-.3-.3-1.8.6-2.6,0,0,1.8-13.4,2.8-16.9,0-.3-.2-2.4,1.1-2.5.7,0,1.8-.1,3.3-.2.2,0,.3.3.5.9.1.4-.5.9-.4.9h0s0,0,0,0c3,.8,5.1,3.7,4.9,6.8l-.5,8c0,.3,1.6,9.5,1.2,10.4-.2.6.2.9.4,1.2.1.1.2.2.2.3,0,0,0,.1-.1.1-.3.1-.1,1,0,1.5h0c0,0,0,0,0,0,0,0-4.5-2-10-2-2.1,0-3.2,1.6-5.5.8Z"/>
              <path class="cls-9" d="M208.1,365.6c0,0-.2-.1-.2-.2v-.2c0,0,.1.2.1.2.3-.3.3-.7,0-1,0,0-.2-.2-.3-.2,0,0-.2,0-.2,0,0,0-.2,0-.3,0-.4-.2-.7-.6-.7-1,0-.4,0-.8.1-1.1-1.8.3-3.7.2-5.5-.2-.3,0-.5-.2-.8-.3-.4-.3-.8-.6-1.1-1.1,0-.1,0-.3,0-.4,0,0,.2-.1.3-.1v-.2c-.1-.2,0-.4.1-.4,0,0,.1,0,.2,0h.2s0-.1,0-.1c0-.2.1-.4.3-.4,0,0,.1,0,.2,0,.2,0,.4,0,.5-.2,0,0,0,0,0,0v-.4c0,0,0,0,0,0,.4-.7,1.2-1.1,2.1-1.3.8-.2,1.7,0,2.5,0,.3,0,.7,0,1,.3.3.2.5.5.4.8.8-.2,1.7.2,2.1.9.5.7.6,1.7.6,2.4,0,1.7-.3,3.1-1.1,4.2-.1.2-.3.3-.5.4,0,0,0,0-.2,0,0,0-.2,0-.2,0Z"/>
              <path class="cls-14" d="M208.2,381.9l-3-1.9c-1.9,1.3-4.5,6-4.5,6l-6.6,6.1c-.9.1-1.4,1-1.3,1.8.1.9,1,1.4,1.8,1.3.6,0,1-.5,1.2-1l9.2-6.4,3.2-5.9Z"/>
              <path class="cls-10" d="M207.9,382.7l2-4.8-.7-2.7c-.3-1.1-1.2-1.9-2.3-2.1h0c-1.5-.3-3,.7-3.4,2.1-.6,2.2-1,5,.1,6.1h0s4.2,1.4,4.2,1.4Z"/>
            </g>
            <g>
              <path class="cls-10" d="M165.7,318c0,12.7-23.1,41.1-23.1,41.1,0,0-23.1-28.4-23.1-41.1s10.3-23.1,23.1-23.1,23.1,10.3,23.1,23.1Z"/>
              <path class="cls-22" d="M156.3,317c0,7.5-6.1,13.6-13.6,13.6s-13.6-6.1-13.6-13.6,6.1-13.6,13.6-13.6h0c7.5,0,13.6,6.1,13.6,13.6h0Z"/>
              <circle class="cls-10" cx="142.6" cy="317.3" r="5.1"/>
              <path class="cls-10" d="M150,328.9c-4.5,2.8-10.2,2.8-14.7,0,1.2-4,5.4-6.4,9.4-5.2,2.5.7,4.5,2.7,5.2,5.2Z"/>
              <circle class="cls-10" cx="142.7" cy="369.5" r="6.2"/>
            </g>
          </g>
        </g>
        <g>
          <g>
            <path class="cls-11" d="M222.5,239.5h-125.6c-2.6,0-5-1.4-6.3-3.6L27.9,127.1c-1.3-2.3-1.3-5,0-7.3L90.7,11.1c1.3-2.2,3.7-3.6,6.3-3.6h125.6c2.6,0,5,1.4,6.3,3.6l62.8,108.7c1.3,2.2,1.3,5,0,7.3l-62.8,108.7c-1.3,2.2-3.7,3.6-6.3,3.6Z"/>
            <path class="cls-23" d="M109.6,210.1h100.2l50.1-86.7-50.1-86.7h-100.2l-50.1,86.7,50.1,86.7Z"/>
            <path class="cls-20" d="M222.5,239.5h-125.6c-2.6,0-5-1.4-6.3-3.6L27.9,127.1c-1.3-2.3-1.3-5,0-7.3L90.7,11.1c1.3-2.2,3.7-3.6,6.3-3.6h125.6c2.6,0,5,1.4,6.3,3.6l62.8,108.7c1.3,2.2,1.3,5,0,7.3l-62.8,108.7c-1.3,2.2-3.7,3.6-6.3,3.6ZM96.9,10.4c-1.6,0-3,.8-3.8,2.2L30.4,121.3c-.8,1.3-.8,3,0,4.4l62.8,108.7c.8,1.3,2.2,2.2,3.8,2.2h125.6c1.6,0,3-.8,3.8-2.2l62.8-108.7c.8-1.3.8-3,0-4.4L226.3,12.6c-.8-1.3-2.2-2.2-3.8-2.2h-125.6Z"/>
          </g>
          <g>
            <path class="cls-3" d="M196.3,90.2h-.8v-21.5c0-6.9-5.6-12.4-12.4-12.4h-45.5c-6.9,0-12.4,5.6-12.4,12.4v117.9c0,6.9,5.6,12.4,12.4,12.4h45.5c6.9,0,12.4-5.6,12.4-12.4h0v-81.1h.8v-15.3Z"/>
            <path class="cls-22" d="M192.8,68.8v117.7c0,5.1-4.1,9.3-9.3,9.3h-45.8c-5.1,0-9.3-4.1-9.3-9.3v-117.7c0-5.1,4.1-9.3,9.3-9.3h5.6c-.9,2.3.2,4.8,2.4,5.8.5.2,1.1.3,1.7.3h26.1c2.4,0,4.4-2,4.4-4.4,0-.6-.1-1.1-.3-1.7h5.9c5.1,0,9.3,4.1,9.3,9.3h0s0,0,0,0Z"/>
            <path class="cls-19" d="M192.8,86.2v-4h-6.1v-22.1c-1-.4-2.1-.6-3.2-.6h-.8v22.7h-21.1v-16.6h-4v16.6h-17.6v-22.7h-2.3c-.6,0-1.2,0-1.8.2v22.5h-7.5v4h7.5v9.3l-7.5,4.3v4.6l7.5-4.3v27.6h-7.5v4h7.5v39.9h-7.5v4h7.5v20c.6.1,1.2.2,1.8.2h2.3v-20.2h17.6v20.2h4v-20.2h21.1v20.2h.8c1.1,0,2.2-.2,3.2-.6v-19.6h6.1v-4h-6.1v-17.4h6v-4h-6v-18.4h6.1v-4h-6.1v-24.5h6.1v-4h-6.1v-13h6.1ZM152.1,86.2h0s-12.1,7-12.1,7h0s0-7,0-7h12.1ZM140.1,97.8h0s17.6-10.2,17.6-10.2v40.1h-17.6v-29.9ZM140.1,171.6v-39.9h17.6v39.9h-17.6ZM182.8,171.6h-21.1v-17.4h21.1v17.4ZM182.8,150.1h-21.1v-18.4h21.1v18.4ZM182.8,127.7h-21.1v-24.5h21.1v24.5ZM182.8,99.2h-21.1v-13h21.1v13Z"/>
            <g>
              <path class="cls-10" d="M192.2,94.6c0,12.7-23.1,41.1-23.1,41.1,0,0-23.1-28.4-23.1-41.1s10.3-23.1,23.1-23.1,23.1,10.3,23.1,23.1Z"/>
              <path class="cls-22" d="M182.8,93.6c0,7.5-6.1,13.6-13.6,13.6s-13.6-6.1-13.6-13.6,6.1-13.6,13.6-13.6h0c7.5,0,13.6,6.1,13.6,13.6h0Z"/>
              <circle class="cls-10" cx="169.1" cy="93.9" r="5.1"/>
              <path class="cls-10" d="M176.5,105.5c-4.5,2.8-10.2,2.8-14.7,0,1.2-4,5.4-6.4,9.4-5.2,2.5.7,4.5,2.7,5.2,5.2Z"/>
              <circle class="cls-10" cx="169.1" cy="146.1" r="6.2"/>
            </g>
          </g>
        </g>
      </g>
    </g>
  </g>
</svg>
