<svg width="808" height="463" viewBox="0 0 808 463" fill="none" xmlns="http://www.w3.org/2000/svg">
<path d="M319.492 423V409H323.472C326.392 409 328.152 410.44 328.152 412.8C328.152 413.92 327.632 414.9 326.672 415.56C328.152 416.22 328.972 417.42 328.972 418.88C328.972 421.44 326.992 423 323.772 423H319.492ZM323.532 411.42H322.332V414.48H323.532C324.612 414.48 325.232 413.94 325.232 412.94C325.232 412 324.612 411.42 323.532 411.42ZM323.932 416.92H322.332V420.58H323.932C325.252 420.58 326.052 419.88 326.052 418.72C326.052 417.56 325.252 416.92 323.932 416.92ZM334.41 423.4C332.39 423.4 331.01 422.24 331.01 420.34C331.01 418.8 332.19 417.62 334.37 417.26L337.41 416.74V416.48C337.41 415.42 336.61 414.74 335.47 414.74C334.49 414.74 333.67 415.16 333.21 415.94L331.33 414.52C332.23 413.28 333.73 412.52 335.55 412.52C338.47 412.52 339.97 414.26 339.97 416.48V423H337.41V422.06C336.77 422.86 335.59 423.4 334.41 423.4ZM333.53 420.24C333.53 420.88 334.07 421.36 334.93 421.36C336.07 421.36 336.89 420.76 337.41 419.94V418.56L335.03 418.98C333.95 419.16 333.53 419.6 333.53 420.24ZM341.997 421.54L343.677 419.98C344.297 420.76 345.037 421.32 345.997 421.32C346.797 421.32 347.237 420.88 347.237 420.28C347.237 418.52 342.537 419.26 342.537 415.62C342.537 413.84 344.037 412.52 346.117 412.52C347.677 412.52 349.077 413.26 349.817 414.24L348.117 415.76C347.597 415.1 346.937 414.6 346.137 414.6C345.377 414.6 344.977 414.96 344.977 415.52C344.977 417.24 349.677 416.54 349.677 420.12C349.637 422.24 347.937 423.4 346.037 423.4C344.237 423.4 342.957 422.68 341.997 421.54ZM361.259 421.36C360.319 422.62 358.759 423.4 356.859 423.4C353.279 423.4 351.259 420.9 351.259 417.96C351.259 414.98 353.139 412.52 356.439 412.52C359.239 412.52 361.079 414.4 361.079 417.04C361.079 417.6 360.999 418.14 360.919 418.48H353.859C354.019 420.14 355.179 421.12 356.899 421.12C357.999 421.12 358.899 420.64 359.439 419.92L361.259 421.36ZM356.439 414.64C355.199 414.64 354.359 415.24 354.019 416.56H358.559C358.519 415.56 357.779 414.64 356.439 414.64ZM371.832 423.4C369.812 423.4 368.432 422.24 368.432 420.34C368.432 418.8 369.612 417.62 371.792 417.26L374.832 416.74V416.48C374.832 415.42 374.032 414.74 372.892 414.74C371.912 414.74 371.092 415.16 370.632 415.94L368.752 414.52C369.652 413.28 371.152 412.52 372.972 412.52C375.892 412.52 377.392 414.26 377.392 416.48V423H374.832V422.06C374.192 422.86 373.012 423.4 371.832 423.4ZM370.952 420.24C370.952 420.88 371.492 421.36 372.352 421.36C373.492 421.36 374.312 420.76 374.832 419.94V418.56L372.452 418.98C371.372 419.16 370.952 419.6 370.952 420.24ZM379.579 417.96C379.579 415.02 381.519 412.52 384.699 412.52C385.999 412.52 387.019 412.92 387.819 413.62V408H390.379V423H387.819V422.3C387.019 423 385.999 423.4 384.699 423.4C381.519 423.4 379.579 420.9 379.579 417.96ZM382.239 417.96C382.239 419.72 383.339 421 385.059 421C386.239 421 387.159 420.48 387.819 419.5V416.42C387.139 415.42 386.219 414.92 385.059 414.92C383.339 414.92 382.239 416.2 382.239 417.96ZM393.424 423V412.92H395.964V413.92C396.624 413.24 397.484 412.72 398.624 412.72C398.964 412.72 399.264 412.78 399.504 412.86V415.52C399.184 415.44 398.844 415.38 398.384 415.38C397.144 415.38 396.344 416.06 395.964 416.68V423H393.424ZM410.556 421.36C409.616 422.62 408.056 423.4 406.156 423.4C402.576 423.4 400.556 420.9 400.556 417.96C400.556 414.98 402.436 412.52 405.736 412.52C408.536 412.52 410.376 414.4 410.376 417.04C410.376 417.6 410.296 418.14 410.216 418.48H403.156C403.316 420.14 404.476 421.12 406.196 421.12C407.296 421.12 408.196 420.64 408.736 419.92L410.556 421.36ZM405.736 414.64C404.496 414.64 403.656 415.24 403.316 416.56H407.856C407.816 415.56 407.076 414.64 405.736 414.64ZM411.841 421.54L413.521 419.98C414.141 420.76 414.881 421.32 415.841 421.32C416.641 421.32 417.081 420.88 417.081 420.28C417.081 418.52 412.381 419.26 412.381 415.62C412.381 413.84 413.881 412.52 415.961 412.52C417.521 412.52 418.921 413.26 419.661 414.24L417.961 415.76C417.441 415.1 416.781 414.6 415.981 414.6C415.221 414.6 414.821 414.96 414.821 415.52C414.821 417.24 419.521 416.54 419.521 420.12C419.481 422.24 417.781 423.4 415.881 423.4C414.081 423.4 412.801 422.68 411.841 421.54ZM420.845 421.54L422.525 419.98C423.145 420.76 423.885 421.32 424.845 421.32C425.645 421.32 426.085 420.88 426.085 420.28C426.085 418.52 421.385 419.26 421.385 415.62C421.385 413.84 422.885 412.52 424.965 412.52C426.525 412.52 427.925 413.26 428.665 414.24L426.965 415.76C426.445 415.1 425.785 414.6 424.985 414.6C424.225 414.6 423.825 414.96 423.825 415.52C423.825 417.24 428.525 416.54 428.525 420.12C428.485 422.24 426.785 423.4 424.885 423.4C423.085 423.4 421.805 422.68 420.845 421.54ZM440.107 421.36C439.167 422.62 437.607 423.4 435.707 423.4C432.127 423.4 430.107 420.9 430.107 417.96C430.107 414.98 431.987 412.52 435.287 412.52C438.087 412.52 439.927 414.4 439.927 417.04C439.927 417.6 439.847 418.14 439.767 418.48H432.707C432.867 420.14 434.027 421.12 435.747 421.12C436.847 421.12 437.747 420.64 438.287 419.92L440.107 421.36ZM435.287 414.64C434.047 414.64 433.207 415.24 432.867 416.56H437.407C437.367 415.56 436.627 414.64 435.287 414.64ZM447.799 423V412.92H450.339V413.72C451.039 413.04 451.979 412.52 453.319 412.52C455.499 412.52 457.239 414.02 457.239 417V423H454.659V417.1C454.659 415.76 453.919 414.92 452.679 414.92C451.399 414.92 450.719 415.78 450.339 416.42V423H447.799ZM463.004 423.4C460.984 423.4 459.604 422.24 459.604 420.34C459.604 418.8 460.784 417.62 462.964 417.26L466.004 416.74V416.48C466.004 415.42 465.204 414.74 464.064 414.74C463.084 414.74 462.264 415.16 461.804 415.94L459.924 414.52C460.824 413.28 462.324 412.52 464.144 412.52C467.064 412.52 468.564 414.26 468.564 416.48V423H466.004V422.06C465.364 422.86 464.184 423.4 463.004 423.4ZM462.124 420.24C462.124 420.88 462.664 421.36 463.524 421.36C464.664 421.36 465.484 420.76 466.004 419.94V418.56L463.624 418.98C462.544 419.16 462.124 419.6 462.124 420.24ZM472.111 419.32V415.24H470.231V412.92H472.111V410.4H474.671V412.92H477.751V415.24H474.671V419.32C474.671 420.44 475.271 420.88 476.271 420.88C476.971 420.88 477.431 420.8 477.771 420.66V422.88C477.271 423.1 476.671 423.2 475.831 423.2C473.311 423.2 472.111 421.78 472.111 419.32ZM481.306 411.16C480.406 411.16 479.646 410.4 479.646 409.5C479.646 408.6 480.406 407.84 481.306 407.84C482.206 407.84 482.946 408.6 482.946 409.5C482.946 410.4 482.206 411.16 481.306 411.16ZM480.026 423V412.92H482.566V423H480.026ZM490.412 412.52C493.692 412.52 495.932 414.94 495.932 417.96C495.932 420.98 493.692 423.4 490.412 423.4C487.132 423.4 484.892 420.98 484.892 417.96C484.892 414.94 487.132 412.52 490.412 412.52ZM490.452 421C492.072 421 493.292 419.7 493.292 417.96C493.292 416.2 492.072 414.92 490.452 414.92C488.772 414.92 487.532 416.2 487.532 417.96C487.532 419.72 488.772 421 490.452 421ZM498.249 423V412.92H500.789V413.72C501.489 413.04 502.429 412.52 503.769 412.52C505.949 412.52 507.689 414.02 507.689 417V423H505.109V417.1C505.109 415.76 504.369 414.92 503.129 414.92C501.849 414.92 501.169 415.78 500.789 416.42V423H498.249ZM513.453 423.4C511.433 423.4 510.053 422.24 510.053 420.34C510.053 418.8 511.233 417.62 513.413 417.26L516.453 416.74V416.48C516.453 415.42 515.653 414.74 514.513 414.74C513.533 414.74 512.713 415.16 512.253 415.94L510.373 414.52C511.273 413.28 512.773 412.52 514.593 412.52C517.513 412.52 519.013 414.26 519.013 416.48V423H516.453V422.06C515.813 422.86 514.633 423.4 513.453 423.4ZM512.573 420.24C512.573 420.88 513.113 421.36 513.973 421.36C515.113 421.36 515.933 420.76 516.453 419.94V418.56L514.073 418.98C512.993 419.16 512.573 419.6 512.573 420.24ZM521.92 423V408H524.46V423H521.92ZM536.786 421.36C535.846 422.62 534.286 423.4 532.386 423.4C528.806 423.4 526.786 420.9 526.786 417.96C526.786 414.98 528.666 412.52 531.966 412.52C534.766 412.52 536.606 414.4 536.606 417.04C536.606 417.6 536.526 418.14 536.446 418.48H529.386C529.546 420.14 530.706 421.12 532.426 421.12C533.526 421.12 534.426 420.64 534.966 419.92L536.786 421.36ZM531.966 414.64C530.726 414.64 529.886 415.24 529.546 416.56H534.086C534.046 415.56 533.306 414.64 531.966 414.64Z" fill="black"/>
<path fill-rule="evenodd" clip-rule="evenodd" d="M284.468 410.152V425.743C284.468 427.485 285.882 428.9 287.625 428.9C289.368 428.9 290.782 427.485 290.782 425.743V410.152C290.782 408.409 289.368 406.995 287.625 406.995C285.882 406.995 284.468 408.409 284.468 410.152Z" fill="#BFBFBF" fill-opacity="0.9"/>
<path fill-rule="evenodd" clip-rule="evenodd" d="M272.542 405.09L286.045 412.886C287.554 413.757 289.486 413.239 290.358 411.73C291.229 410.221 290.711 408.288 289.202 407.417L275.7 399.622C274.191 398.751 272.258 399.268 271.387 400.777C270.516 402.287 271.033 404.219 272.542 405.09Z" fill="#E1000F" fill-opacity="0.9"/>
<path fill-rule="evenodd" clip-rule="evenodd" d="M286.045 423.009L272.542 430.804C271.033 431.675 270.516 433.608 271.387 435.117C272.258 436.626 274.191 437.144 275.7 436.272L289.202 428.477C290.711 427.606 291.229 425.673 290.358 424.164C289.486 422.655 287.554 422.137 286.045 423.009Z" fill="#000091" fill-opacity="0.9"/>
<path fill-rule="evenodd" clip-rule="evenodd" d="M263.777 425.743V410.152C263.777 408.409 262.363 406.995 260.62 406.995C258.877 406.995 257.463 408.409 257.463 410.152V425.743C257.463 427.485 258.877 428.9 260.62 428.9C262.363 428.9 263.777 427.485 263.777 425.743Z" fill="#BFBFBF" fill-opacity="0.9"/>
<path fill-rule="evenodd" clip-rule="evenodd" d="M262.199 412.886L275.701 405.09C277.21 404.219 277.728 402.287 276.856 400.777C275.985 399.268 274.053 398.751 272.544 399.622L259.042 407.417C257.532 408.288 257.015 410.221 257.886 411.73C258.757 413.239 260.69 413.757 262.199 412.886Z" fill="#000091" fill-opacity="0.9"/>
<path fill-rule="evenodd" clip-rule="evenodd" d="M248.177 428.99L260.643 428.9C262.386 428.887 263.79 427.463 263.778 425.72C263.765 423.978 262.34 422.573 260.597 422.586L248.132 422.676C246.389 422.689 244.985 424.113 244.998 425.856C245.01 427.598 246.435 429.003 248.177 428.99Z" fill="#E1000F" fill-opacity="0.9"/>
<path fill-rule="evenodd" clip-rule="evenodd" d="M257.671 395.234C262.135 391.54 267.863 389.314 274.107 389.314C280.349 389.314 286.078 391.54 290.542 395.234C291.884 396.347 293.875 396.157 294.987 394.815C296.099 393.474 295.912 391.485 294.57 390.372C289.012 385.77 281.88 383 274.107 383C266.333 383 259.201 385.77 253.643 390.372C252.301 391.485 252.114 393.474 253.226 394.815C254.338 396.157 256.329 396.347 257.671 395.234Z" fill="#BFBFBF" fill-opacity="0.9"/>
<path fill-rule="evenodd" clip-rule="evenodd" d="M250.98 424.455C249.379 421.084 248.314 417.88 248.314 415.109C248.314 407.113 251.958 399.97 257.671 395.234C259.014 394.121 259.201 392.132 258.089 390.79C256.977 389.449 254.985 389.259 253.643 390.372C246.532 396.26 242 405.164 242 415.109C242 418.677 243.218 422.828 245.276 427.162C246.022 428.74 247.907 429.411 249.482 428.661C251.056 427.912 251.727 426.033 250.98 424.455Z" fill="#000091" fill-opacity="0.9"/>
<path fill-rule="evenodd" clip-rule="evenodd" d="M290.542 395.234C296.255 399.97 299.898 407.113 299.898 415.109C299.898 419.442 297.407 424.77 294.108 430.169C285.776 443.816 271.882 457.606 271.882 457.606C270.645 458.829 270.638 460.834 271.867 462.065C273.095 463.304 275.095 463.312 276.332 462.081C276.332 462.081 290.807 447.692 299.497 433.461C303.493 426.917 306.213 420.358 306.213 415.109C306.213 405.164 301.681 396.26 294.57 390.372C293.228 389.259 291.236 389.449 290.124 390.79C289.013 392.132 289.2 394.121 290.542 395.234Z" fill="#E1000F" fill-opacity="0.9"/>
<path fill-rule="evenodd" clip-rule="evenodd" d="M276.332 457.605C276.332 457.605 266.353 447.691 258.223 436.349C257.208 434.936 255.234 434.605 253.818 435.623C252.402 436.641 252.076 438.614 253.091 440.027C261.528 451.796 271.882 462.08 271.882 462.08C273.118 463.312 275.118 463.304 276.346 462.065C277.574 460.833 277.568 458.828 276.332 457.605Z" fill="#000091" fill-opacity="0.9"/>
<line x1="132" y1="323" x2="784" y2="323" stroke="#000091" stroke-width="4"/>
<path d="M401.879 371.121C403.05 372.292 404.95 372.292 406.121 371.121L425.213 352.029C426.385 350.857 426.385 348.958 425.213 347.786C424.042 346.615 422.142 346.615 420.971 347.786L404 364.757L387.029 347.786C385.858 346.615 383.958 346.615 382.787 347.786C381.615 348.958 381.615 350.857 382.787 352.029L401.879 371.121ZM401 325L401 369L407 369L407 325L401 325Z" fill="#000091"/>
<rect x="1" y="0.999512" width="118" height="178" rx="9" fill="#E8EDFF" stroke="#6A6AF4" stroke-width="2"/>
<path d="M45.7652 95.9995V84.7995H48.0372V95.9995H45.7652ZM56.4797 94.1915C57.5357 94.1915 58.4477 93.8235 59.0877 93.2155V91.3275H56.2397V89.2635H61.3597V94.0315C60.3197 95.4235 58.5757 96.3195 56.4797 96.3195C52.8477 96.3195 50.3677 93.5995 50.3677 90.3995C50.3677 87.1995 52.7837 84.4795 56.3197 84.4795C58.3517 84.4795 60.0157 85.3915 61.0397 86.7515L59.2477 88.1435C58.6077 87.2315 57.5997 86.6075 56.3197 86.6075C54.2077 86.6075 52.7037 88.2555 52.7037 90.3995C52.7037 92.5435 54.2877 94.1915 56.4797 94.1915ZM64.0464 95.9995V84.7995H66.9584L71.9664 92.8155V84.7995H74.2384V95.9995H71.3264L66.3184 87.9515V95.9995H64.0464Z" fill="black"/>
<rect x="132" y="0.999512" width="118" height="178" rx="9" fill="#E8EDFF" stroke="#6A6AF4" stroke-width="2"/>
<path d="M166.964 82.1915C168.02 82.1915 168.932 81.8235 169.572 81.2155V79.3275H166.724V77.2635H171.844V82.0315C170.804 83.4235 169.06 84.3195 166.964 84.3195C163.332 84.3195 160.852 81.5995 160.852 78.3995C160.852 75.1995 163.268 72.4795 166.804 72.4795C168.836 72.4795 170.5 73.3915 171.524 74.7515L169.732 76.1435C169.092 75.2315 168.084 74.6075 166.804 74.6075C164.692 74.6075 163.188 76.2555 163.188 78.3995C163.188 80.5435 164.772 82.1915 166.964 82.1915ZM179.536 80.5115V75.9355H181.584V80.4155C181.584 82.8315 180.176 84.3195 177.808 84.3195C175.44 84.3195 174.048 82.8315 174.048 80.4155V75.9355H176.096V80.5115C176.096 81.6795 176.704 82.3995 177.824 82.3995C178.928 82.3995 179.536 81.6795 179.536 80.5115ZM184.857 74.5275C184.137 74.5275 183.529 73.9195 183.529 73.1995C183.529 72.4795 184.137 71.8715 184.857 71.8715C185.577 71.8715 186.169 72.4795 186.169 73.1995C186.169 73.9195 185.577 74.5275 184.857 74.5275ZM183.833 83.9995V75.9355H185.865V83.9995H183.833ZM192.174 82.3995C192.958 82.3995 193.582 82.0155 193.966 81.4555L195.582 82.6875C194.83 83.6795 193.646 84.3195 192.174 84.3195C189.39 84.3195 187.726 82.3195 187.726 79.9675C187.726 77.6155 189.39 75.6155 192.174 75.6155C193.646 75.6155 194.83 76.2555 195.582 77.2475L193.966 78.4795C193.582 77.9195 192.974 77.5355 192.142 77.5355C190.814 77.5355 189.838 78.5595 189.838 79.9675C189.838 81.3915 190.814 82.3995 192.174 82.3995ZM197.099 83.9995V71.9995H199.131V76.5755C199.691 76.0315 200.443 75.6155 201.515 75.6155C203.259 75.6155 204.651 76.8155 204.651 79.1995V83.9995H202.587V79.2795C202.587 78.2075 202.011 77.5355 201.003 77.5355C199.979 77.5355 199.435 78.2235 199.131 78.7355V83.9995H197.099ZM214.382 82.6875C213.63 83.6955 212.382 84.3195 210.862 84.3195C207.998 84.3195 206.382 82.3195 206.382 79.9675C206.382 77.5835 207.886 75.6155 210.526 75.6155C212.766 75.6155 214.238 77.1195 214.238 79.2315C214.238 79.6795 214.174 80.1115 214.11 80.3835H208.462C208.59 81.7115 209.518 82.4955 210.894 82.4955C211.774 82.4955 212.494 82.1115 212.926 81.5355L214.382 82.6875ZM210.526 77.3115C209.534 77.3115 208.862 77.7915 208.59 78.8475H212.222C212.19 78.0475 211.598 77.3115 210.526 77.3115ZM216.72 81.0555V77.7915H215.216V75.9355H216.72V73.9195H218.768V75.9355H221.232V77.7915H218.768V81.0555C218.768 81.9515 219.248 82.3035 220.048 82.3035C220.608 82.3035 220.976 82.2395 221.248 82.1275V83.9035C220.848 84.0795 220.368 84.1595 219.696 84.1595C217.68 84.1595 216.72 83.0235 216.72 81.0555ZM160.349 108L164.589 96.7995H167.565L171.805 108H169.389L168.317 105.088H163.837L162.765 108H160.349ZM164.541 103.152H167.613L166.077 98.9435L164.541 103.152ZM172.843 103.968C172.843 101.616 174.395 99.6155 176.939 99.6155C177.979 99.6155 178.795 99.9355 179.435 100.496V95.9995H181.483V108H179.435V107.44C178.795 108 177.979 108.32 176.939 108.32C174.395 108.32 172.843 106.32 172.843 103.968ZM174.971 103.968C174.971 105.376 175.851 106.4 177.227 106.4C178.171 106.4 178.907 105.984 179.435 105.2V102.736C178.891 101.936 178.155 101.536 177.227 101.536C175.851 101.536 174.971 102.56 174.971 103.968ZM183.919 108V99.9355H185.951V100.736C186.479 100.192 187.167 99.7755 188.079 99.7755C188.351 99.7755 188.591 99.8235 188.783 99.8875V102.016C188.527 101.952 188.255 101.904 187.887 101.904C186.895 101.904 186.255 102.448 185.951 102.944V108H183.919ZM197.624 106.688C196.872 107.696 195.624 108.32 194.104 108.32C191.24 108.32 189.624 106.32 189.624 103.968C189.624 101.584 191.128 99.6155 193.768 99.6155C196.008 99.6155 197.48 101.12 197.48 103.232C197.48 103.68 197.416 104.112 197.352 104.384H191.704C191.832 105.712 192.76 106.496 194.136 106.496C195.016 106.496 195.736 106.112 196.168 105.536L197.624 106.688ZM193.768 101.312C192.776 101.312 192.104 101.792 191.832 102.848H195.464C195.432 102.048 194.84 101.312 193.768 101.312ZM198.653 106.832L199.997 105.584C200.493 106.208 201.085 106.656 201.853 106.656C202.493 106.656 202.845 106.304 202.845 105.824C202.845 104.416 199.085 105.008 199.085 102.096C199.085 100.672 200.285 99.6155 201.949 99.6155C203.197 99.6155 204.317 100.208 204.909 100.992L203.549 102.208C203.133 101.68 202.605 101.28 201.965 101.28C201.357 101.28 201.037 101.568 201.037 102.016C201.037 103.392 204.797 102.832 204.797 105.696C204.765 107.392 203.405 108.32 201.885 108.32C200.445 108.32 199.421 107.744 198.653 106.832ZM205.856 106.832L207.2 105.584C207.696 106.208 208.288 106.656 209.056 106.656C209.696 106.656 210.048 106.304 210.048 105.824C210.048 104.416 206.288 105.008 206.288 102.096C206.288 100.672 207.488 99.6155 209.152 99.6155C210.4 99.6155 211.52 100.208 212.112 100.992L210.752 102.208C210.336 101.68 209.808 101.28 209.168 101.28C208.56 101.28 208.24 101.568 208.24 102.016C208.24 103.392 212 102.832 212 105.696C211.968 107.392 210.608 108.32 209.088 108.32C207.648 108.32 206.624 107.744 205.856 106.832ZM221.265 106.688C220.513 107.696 219.265 108.32 217.745 108.32C214.881 108.32 213.265 106.32 213.265 103.968C213.265 101.584 214.769 99.6155 217.409 99.6155C219.649 99.6155 221.121 101.12 221.121 103.232C221.121 103.68 221.057 104.112 220.993 104.384H215.345C215.473 105.712 216.401 106.496 217.777 106.496C218.657 106.496 219.377 106.112 219.809 105.536L221.265 106.688ZM217.409 101.312C216.417 101.312 215.745 101.792 215.473 102.848H219.105C219.073 102.048 218.481 101.312 217.409 101.312Z" fill="black"/>
<rect x="263" y="0.999512" width="118" height="178" rx="9" fill="#E8EDFF" stroke="#6A6AF4" stroke-width="2"/>
<path d="M299.367 95.9995V84.7995H303.767C307.319 84.7995 309.719 87.3755 309.719 90.3995C309.719 93.4235 307.319 95.9995 303.767 95.9995H299.367ZM303.799 86.8635H301.639V93.9355H303.799C305.879 93.9355 307.383 92.3835 307.383 90.3995C307.383 88.3995 305.879 86.8635 303.799 86.8635ZM317.503 94.1915C318.559 94.1915 319.471 93.8235 320.111 93.2155V91.3275H317.263V89.2635H322.383V94.0315C321.343 95.4235 319.599 96.3195 317.503 96.3195C313.871 96.3195 311.391 93.5995 311.391 90.3995C311.391 87.1995 313.807 84.4795 317.343 84.4795C319.375 84.4795 321.039 85.3915 322.063 86.7515L320.271 88.1435C319.631 87.2315 318.623 86.6075 317.343 86.6075C315.231 86.6075 313.727 88.2555 313.727 90.3995C313.727 92.5435 315.311 94.1915 317.503 94.1915ZM325.07 95.9995V84.7995H331.598V86.7355H327.342V89.3275H330.958V91.2635H327.342V95.9995H325.07ZM334.349 86.5275C333.629 86.5275 333.021 85.9195 333.021 85.1995C333.021 84.4795 333.629 83.8715 334.349 83.8715C335.069 83.8715 335.661 84.4795 335.661 85.1995C335.661 85.9195 335.069 86.5275 334.349 86.5275ZM333.325 95.9995V87.9355H335.357V95.9995H333.325ZM338.226 95.9995V84.7995H341.922C344.386 84.7995 345.89 86.0635 345.89 88.1435C345.89 90.2075 344.386 91.4715 341.922 91.4715H340.498V95.9995H338.226ZM342.018 86.7355H340.498V89.5355H342.018C342.978 89.5355 343.554 89.0235 343.554 88.1115C343.554 87.2635 342.978 86.7355 342.018 86.7355Z" fill="black"/>
<rect x="394" y="0.999512" width="118" height="178" rx="9" fill="#E8EDFF" stroke="#6A6AF4" stroke-width="2"/>
<path d="M426.537 95.9995L430.777 84.7995H433.753L437.993 95.9995H435.577L434.505 93.0875H430.025L428.953 95.9995H426.537ZM430.729 91.1515H433.801L432.265 86.9435L430.729 91.1515ZM439.882 95.9995V84.7995H443.306C445.77 84.7995 447.29 86.0635 447.29 88.1435C447.29 89.4875 446.634 90.4955 445.498 91.0395L449.018 95.9995H446.298L443.322 91.4715H442.154V95.9995H439.882ZM443.434 86.7355H442.154V89.5355H443.434C444.394 89.5355 444.954 89.0235 444.954 88.1115C444.954 87.2635 444.394 86.7355 443.434 86.7355ZM455.468 94.1915C456.748 94.1915 457.756 93.5675 458.396 92.6555L460.188 94.0315C459.164 95.4235 457.5 96.3195 455.468 96.3195C451.932 96.3195 449.516 93.5995 449.516 90.3995C449.516 87.1995 451.932 84.4795 455.468 84.4795C457.5 84.4795 459.164 85.3915 460.188 86.7515L458.396 88.1435C457.756 87.2315 456.748 86.6075 455.468 86.6075C453.356 86.6075 451.852 88.2555 451.852 90.3995C451.852 92.5435 453.356 94.1915 455.468 94.1915ZM462.32 95.9995V84.7995H468.848V86.7355H464.592V89.3275H468.208V91.2635H464.592V94.0635H468.848V95.9995H462.32ZM471.648 95.9995V84.7995H475.344C477.808 84.7995 479.312 86.0635 479.312 88.1435C479.312 90.2075 477.808 91.4715 475.344 91.4715H473.92V95.9995H471.648ZM475.44 86.7355H473.92V89.5355H475.44C476.4 89.5355 476.976 89.0235 476.976 88.1115C476.976 87.2635 476.4 86.7355 475.44 86.7355Z" fill="black"/>
<path d="M133.355 280L138.655 266H142.375L147.675 280H144.655L143.315 276.36H137.715L136.375 280H133.355ZM138.595 273.94H142.435L140.515 268.68L138.595 273.94ZM150.102 284.92V269.92H152.642V270.64C153.442 269.92 154.462 269.52 155.782 269.52C158.982 269.52 160.902 272.02 160.902 274.96C160.902 277.9 158.982 280.4 155.782 280.4C154.462 280.4 153.442 280 152.642 279.28V284.92H150.102ZM152.662 276.48C153.342 277.48 154.242 278 155.422 278C157.142 278 158.262 276.72 158.262 274.96C158.262 273.2 157.142 271.92 155.422 271.92C154.242 271.92 153.342 272.44 152.662 273.44L152.642 273.42V276.5L152.662 276.48ZM163.227 284.92V269.92H165.767V270.64C166.567 269.92 167.587 269.52 168.907 269.52C172.107 269.52 174.027 272.02 174.027 274.96C174.027 277.9 172.107 280.4 168.907 280.4C167.587 280.4 166.567 280 165.767 279.28V284.92H163.227ZM165.787 276.48C166.467 277.48 167.367 278 168.547 278C170.267 278 171.387 276.72 171.387 274.96C171.387 273.2 170.267 271.92 168.547 271.92C167.367 271.92 166.467 272.44 165.787 273.44L165.767 273.42V276.5L165.787 276.48ZM178.998 280.4C176.978 280.4 175.598 279.24 175.598 277.34C175.598 275.8 176.778 274.62 178.958 274.26L181.998 273.74V273.48C181.998 272.42 181.198 271.74 180.058 271.74C179.078 271.74 178.258 272.16 177.798 272.94L175.918 271.52C176.818 270.28 178.318 269.52 180.138 269.52C183.058 269.52 184.558 271.26 184.558 273.48V280H181.998V279.06C181.358 279.86 180.178 280.4 178.998 280.4ZM178.118 277.24C178.118 277.88 178.658 278.36 179.518 278.36C180.658 278.36 181.478 277.76 181.998 276.94V275.56L179.618 275.98C178.538 276.16 178.118 276.6 178.118 277.24ZM187.465 280V269.92H190.005V270.92C190.665 270.24 191.525 269.72 192.665 269.72C193.005 269.72 193.305 269.78 193.545 269.86V272.52C193.225 272.44 192.885 272.38 192.425 272.38C191.185 272.38 190.385 273.06 190.005 273.68V280H187.465ZM196.87 268.16C195.97 268.16 195.21 267.4 195.21 266.5C195.21 265.6 195.97 264.84 196.87 264.84C197.77 264.84 198.51 265.6 198.51 266.5C198.51 267.4 197.77 268.16 196.87 268.16ZM195.59 280V269.92H198.13V280H195.59ZM210.456 278.36C209.516 279.62 207.956 280.4 206.056 280.4C202.476 280.4 200.456 277.9 200.456 274.96C200.456 271.98 202.336 269.52 205.636 269.52C208.436 269.52 210.276 271.4 210.276 274.04C210.276 274.6 210.196 275.14 210.116 275.48H203.056C203.216 277.14 204.376 278.12 206.096 278.12C207.196 278.12 208.096 277.64 208.636 276.92L210.456 278.36ZM205.636 271.64C204.396 271.64 203.556 272.24 203.216 273.56H207.756C207.716 272.56 206.976 271.64 205.636 271.64ZM212.758 280V269.92H215.298V270.68C215.978 270.02 216.838 269.52 218.078 269.52C219.398 269.52 220.558 270.12 221.218 271.28C221.958 270.36 222.938 269.52 224.518 269.52C226.598 269.52 228.238 270.96 228.238 273.8V280H225.678V273.9C225.678 272.68 225.018 271.92 223.878 271.92C222.798 271.92 222.178 272.7 221.778 273.36C221.798 273.5 221.798 273.66 221.798 273.8V280H219.218V273.9C219.218 272.68 218.578 271.92 217.438 271.92C216.278 271.92 215.678 272.78 215.298 273.42V280H212.758ZM240.417 278.36C239.477 279.62 237.917 280.4 236.017 280.4C232.437 280.4 230.417 277.9 230.417 274.96C230.417 271.98 232.297 269.52 235.597 269.52C238.397 269.52 240.237 271.4 240.237 274.04C240.237 274.6 240.157 275.14 240.077 275.48H233.017C233.177 277.14 234.337 278.12 236.057 278.12C237.157 278.12 238.057 277.64 238.597 276.92L240.417 278.36ZM235.597 271.64C234.357 271.64 233.517 272.24 233.177 273.56H237.717C237.677 272.56 236.937 271.64 235.597 271.64ZM242.719 280V269.92H245.259V270.72C245.959 270.04 246.899 269.52 248.239 269.52C250.419 269.52 252.159 271.02 252.159 274V280H249.579V274.1C249.579 272.76 248.839 271.92 247.599 271.92C246.319 271.92 245.639 272.78 245.259 273.42V280H242.719ZM255.683 276.32V272.24H253.803V269.92H255.683V267.4H258.243V269.92H261.323V272.24H258.243V276.32C258.243 277.44 258.843 277.88 259.843 277.88C260.543 277.88 261.003 277.8 261.343 277.66V279.88C260.843 280.1 260.243 280.2 259.403 280.2C256.883 280.2 255.683 278.78 255.683 276.32ZM278.269 278.36C277.329 279.62 275.769 280.4 273.869 280.4C270.289 280.4 268.269 277.9 268.269 274.96C268.269 271.98 270.149 269.52 273.449 269.52C276.249 269.52 278.089 271.4 278.089 274.04C278.089 274.6 278.009 275.14 277.929 275.48H270.869C271.029 277.14 272.189 278.12 273.909 278.12C275.009 278.12 275.909 277.64 276.449 276.92L278.269 278.36ZM273.449 271.64C272.209 271.64 271.369 272.24 271.029 273.56H275.569C275.529 272.56 274.789 271.64 273.449 271.64ZM281.191 276.32V272.24H279.311V269.92H281.191V267.4H283.751V269.92H286.831V272.24H283.751V276.32C283.751 277.44 284.351 277.88 285.351 277.88C286.051 277.88 286.511 277.8 286.851 277.66V279.88C286.351 280.1 285.751 280.2 284.911 280.2C282.391 280.2 281.191 278.78 281.191 276.32ZM293.617 278.54L295.297 276.98C295.917 277.76 296.657 278.32 297.617 278.32C298.417 278.32 298.857 277.88 298.857 277.28C298.857 275.52 294.157 276.26 294.157 272.62C294.157 270.84 295.657 269.52 297.737 269.52C299.297 269.52 300.697 270.26 301.437 271.24L299.737 272.76C299.217 272.1 298.557 271.6 297.757 271.6C296.997 271.6 296.597 271.96 296.597 272.52C296.597 274.24 301.297 273.54 301.297 277.12C301.257 279.24 299.557 280.4 297.657 280.4C295.857 280.4 294.577 279.68 293.617 278.54ZM309.458 268.32H307.018L309.098 265H311.858L309.458 268.32ZM312.878 278.36C311.938 279.62 310.378 280.4 308.478 280.4C304.898 280.4 302.878 277.9 302.878 274.96C302.878 271.98 304.758 269.52 308.058 269.52C310.858 269.52 312.698 271.4 312.698 274.04C312.698 274.6 312.618 275.14 312.538 275.48H305.478C305.638 277.14 306.798 278.12 308.518 278.12C309.618 278.12 310.518 277.64 311.058 276.92L312.878 278.36ZM308.058 271.64C306.818 271.64 305.978 272.24 305.638 273.56H310.178C310.138 272.56 309.398 271.64 308.058 271.64ZM315.18 280V265H317.72V280H315.18ZM330.046 278.36C329.106 279.62 327.546 280.4 325.646 280.4C322.066 280.4 320.046 277.9 320.046 274.96C320.046 271.98 321.926 269.52 325.226 269.52C328.026 269.52 329.866 271.4 329.866 274.04C329.866 274.6 329.786 275.14 329.706 275.48H322.646C322.806 277.14 323.966 278.12 325.686 278.12C326.786 278.12 327.686 277.64 328.226 276.92L330.046 278.36ZM325.226 271.64C323.986 271.64 323.146 272.24 322.806 273.56H327.346C327.306 272.56 326.566 271.64 325.226 271.64ZM337.11 278C338.09 278 338.87 277.52 339.35 276.82L341.37 278.36C340.43 279.6 338.95 280.4 337.11 280.4C333.63 280.4 331.55 277.9 331.55 274.96C331.55 272.02 333.63 269.52 337.11 269.52C338.95 269.52 340.43 270.32 341.37 271.56L339.35 273.1C338.87 272.4 338.11 271.92 337.07 271.92C335.41 271.92 334.19 273.2 334.19 274.96C334.19 276.74 335.41 278 337.11 278ZM344.004 276.32V272.24H342.124V269.92H344.004V267.4H346.564V269.92H349.644V272.24H346.564V276.32C346.564 277.44 347.164 277.88 348.164 277.88C348.864 277.88 349.324 277.8 349.664 277.66V279.88C349.164 280.1 348.564 280.2 347.724 280.2C345.204 280.2 344.004 278.78 344.004 276.32ZM353.198 268.16C352.298 268.16 351.538 267.4 351.538 266.5C351.538 265.6 352.298 264.84 353.198 264.84C354.098 264.84 354.838 265.6 354.838 266.5C354.838 267.4 354.098 268.16 353.198 268.16ZM351.918 280V269.92H354.458V280H351.918ZM362.304 269.52C365.584 269.52 367.824 271.94 367.824 274.96C367.824 277.98 365.584 280.4 362.304 280.4C359.024 280.4 356.784 277.98 356.784 274.96C356.784 271.94 359.024 269.52 362.304 269.52ZM362.344 278C363.964 278 365.184 276.7 365.184 274.96C365.184 273.2 363.964 271.92 362.344 271.92C360.664 271.92 359.424 273.2 359.424 274.96C359.424 276.72 360.664 278 362.344 278ZM370.141 280V269.92H372.681V270.72C373.381 270.04 374.321 269.52 375.661 269.52C377.841 269.52 379.581 271.02 379.581 274V280H377.001V274.1C377.001 272.76 376.261 271.92 375.021 271.92C373.741 271.92 373.061 272.78 372.681 273.42V280H370.141Z" fill="black"/>
<line y1="199" x2="513" y2="199" stroke="#000091" stroke-width="4"/>
<path d="M253.879 247.121C255.05 248.292 256.95 248.292 258.121 247.121L277.213 228.029C278.385 226.857 278.385 224.958 277.213 223.786C276.042 222.615 274.142 222.615 272.971 223.786L256 240.757L239.029 223.786C237.858 222.615 235.958 222.615 234.787 223.786C233.615 224.958 233.615 226.857 234.787 228.029L253.879 247.121ZM253 201L253 245L259 245L259 201L253 201Z" fill="#000091"/>
<rect x="564" y="0.999512" width="238" height="178" rx="9" fill="#C9FCAC" stroke="#18753C" stroke-width="2"/>
<path d="M635.265 83.9995V72.7995H638.449C640.785 72.7995 642.193 73.9515 642.193 75.8395C642.193 76.7355 641.777 77.5195 641.009 78.0475C642.193 78.5755 642.849 79.5355 642.849 80.7035C642.849 82.7515 641.265 83.9995 638.689 83.9995H635.265ZM638.497 74.7355H637.537V77.1835H638.497C639.361 77.1835 639.857 76.7515 639.857 75.9515C639.857 75.1995 639.361 74.7355 638.497 74.7355ZM638.817 79.1355H637.537V82.0635H638.817C639.873 82.0635 640.513 81.5035 640.513 80.5755C640.513 79.6475 639.873 79.1355 638.817 79.1355ZM647.2 84.3195C645.584 84.3195 644.48 83.3915 644.48 81.8715C644.48 80.6395 645.424 79.6955 647.168 79.4075L649.6 78.9915V78.7835C649.6 77.9355 648.96 77.3915 648.048 77.3915C647.264 77.3915 646.608 77.7275 646.24 78.3515L644.736 77.2155C645.456 76.2235 646.656 75.6155 648.112 75.6155C650.448 75.6155 651.648 77.0075 651.648 78.7835V83.9995H649.6V83.2475C649.088 83.8875 648.144 84.3195 647.2 84.3195ZM646.496 81.7915C646.496 82.3035 646.928 82.6875 647.616 82.6875C648.528 82.6875 649.184 82.2075 649.6 81.5515V80.4475L647.696 80.7835C646.832 80.9275 646.496 81.2795 646.496 81.7915ZM653.27 82.8315L654.614 81.5835C655.11 82.2075 655.702 82.6555 656.47 82.6555C657.11 82.6555 657.462 82.3035 657.462 81.8235C657.462 80.4155 653.702 81.0075 653.702 78.0955C653.702 76.6715 654.902 75.6155 656.566 75.6155C657.814 75.6155 658.934 76.2075 659.526 76.9915L658.166 78.2075C657.75 77.6795 657.222 77.2795 656.582 77.2795C655.974 77.2795 655.654 77.5675 655.654 78.0155C655.654 79.3915 659.414 78.8315 659.414 81.6955C659.382 83.3915 658.022 84.3195 656.502 84.3195C655.062 84.3195 654.038 83.7435 653.27 82.8315ZM668.679 82.6875C667.927 83.6955 666.679 84.3195 665.159 84.3195C662.295 84.3195 660.679 82.3195 660.679 79.9675C660.679 77.5835 662.183 75.6155 664.823 75.6155C667.063 75.6155 668.535 77.1195 668.535 79.2315C668.535 79.6795 668.471 80.1115 668.407 80.3835H662.759C662.887 81.7115 663.815 82.4955 665.191 82.4955C666.071 82.4955 666.791 82.1115 667.223 81.5355L668.679 82.6875ZM664.823 77.3115C663.831 77.3115 663.159 77.7915 662.887 78.8475H666.519C666.487 78.0475 665.895 77.3115 664.823 77.3115ZM677.137 84.3195C675.521 84.3195 674.417 83.3915 674.417 81.8715C674.417 80.6395 675.361 79.6955 677.105 79.4075L679.537 78.9915V78.7835C679.537 77.9355 678.897 77.3915 677.985 77.3915C677.201 77.3915 676.545 77.7275 676.177 78.3515L674.673 77.2155C675.393 76.2235 676.593 75.6155 678.049 75.6155C680.385 75.6155 681.585 77.0075 681.585 78.7835V83.9995H679.537V83.2475C679.025 83.8875 678.081 84.3195 677.137 84.3195ZM676.433 81.7915C676.433 82.3035 676.865 82.6875 677.553 82.6875C678.465 82.6875 679.121 82.2075 679.537 81.5515V80.4475L677.633 80.7835C676.769 80.9275 676.433 81.2795 676.433 81.7915ZM683.335 79.9675C683.335 77.6155 684.887 75.6155 687.431 75.6155C688.471 75.6155 689.287 75.9355 689.927 76.4955V71.9995H691.975V83.9995H689.927V83.4395C689.287 83.9995 688.471 84.3195 687.431 84.3195C684.887 84.3195 683.335 82.3195 683.335 79.9675ZM685.463 79.9675C685.463 81.3755 686.343 82.3995 687.719 82.3995C688.663 82.3995 689.399 81.9835 689.927 81.1995V78.7355C689.383 77.9355 688.647 77.5355 687.719 77.5355C686.343 77.5355 685.463 78.5595 685.463 79.9675ZM694.411 83.9995V75.9355H696.443V76.7355C696.971 76.1915 697.659 75.7755 698.571 75.7755C698.843 75.7755 699.083 75.8235 699.275 75.8875V78.0155C699.019 77.9515 698.747 77.9035 698.379 77.9035C697.387 77.9035 696.747 78.4475 696.443 78.9435V83.9995H694.411ZM708.117 82.6875C707.365 83.6955 706.117 84.3195 704.597 84.3195C701.733 84.3195 700.117 82.3195 700.117 79.9675C700.117 77.5835 701.621 75.6155 704.261 75.6155C706.501 75.6155 707.973 77.1195 707.973 79.2315C707.973 79.6795 707.909 80.1115 707.845 80.3835H702.197C702.325 81.7115 703.253 82.4955 704.629 82.4955C705.509 82.4955 706.229 82.1115 706.661 81.5355L708.117 82.6875ZM704.261 77.3115C703.269 77.3115 702.597 77.7915 702.325 78.8475H705.957C705.925 78.0475 705.333 77.3115 704.261 77.3115ZM709.145 82.8315L710.489 81.5835C710.985 82.2075 711.577 82.6555 712.345 82.6555C712.985 82.6555 713.337 82.3035 713.337 81.8235C713.337 80.4155 709.577 81.0075 709.577 78.0955C709.577 76.6715 710.777 75.6155 712.441 75.6155C713.689 75.6155 714.809 76.2075 715.401 76.9915L714.041 78.2075C713.625 77.6795 713.097 77.2795 712.457 77.2795C711.849 77.2795 711.529 77.5675 711.529 78.0155C711.529 79.3915 715.289 78.8315 715.289 81.6955C715.257 83.3915 713.897 84.3195 712.377 84.3195C710.937 84.3195 709.913 83.7435 709.145 82.8315ZM716.348 82.8315L717.692 81.5835C718.188 82.2075 718.78 82.6555 719.548 82.6555C720.188 82.6555 720.54 82.3035 720.54 81.8235C720.54 80.4155 716.78 81.0075 716.78 78.0955C716.78 76.6715 717.98 75.6155 719.644 75.6155C720.892 75.6155 722.012 76.2075 722.604 76.9915L721.244 78.2075C720.828 77.6795 720.3 77.2795 719.66 77.2795C719.052 77.2795 718.732 77.5675 718.732 78.0155C718.732 79.3915 722.492 78.8315 722.492 81.6955C722.46 83.3915 721.1 84.3195 719.58 84.3195C718.14 84.3195 717.116 83.7435 716.348 82.8315ZM731.757 82.6875C731.005 83.6955 729.757 84.3195 728.237 84.3195C725.373 84.3195 723.757 82.3195 723.757 79.9675C723.757 77.5835 725.261 75.6155 727.901 75.6155C730.141 75.6155 731.613 77.1195 731.613 79.2315C731.613 79.6795 731.549 80.1115 731.485 80.3835H725.837C725.965 81.7115 726.893 82.4955 728.269 82.4955C729.149 82.4955 729.869 82.1115 730.301 81.5355L731.757 82.6875ZM727.901 77.3115C726.909 77.3115 726.237 77.7915 725.965 78.8475H729.597C729.565 78.0475 728.973 77.3115 727.901 77.3115ZM661.154 108V95.9995H663.186V108H661.154ZM669.462 99.6155C672.086 99.6155 673.878 101.552 673.878 103.968C673.878 106.384 672.086 108.32 669.462 108.32C666.838 108.32 665.046 106.384 665.046 103.968C665.046 101.552 666.838 99.6155 669.462 99.6155ZM669.494 106.4C670.79 106.4 671.766 105.36 671.766 103.968C671.766 102.56 670.79 101.536 669.494 101.536C668.15 101.536 667.158 102.56 667.158 103.968C667.158 105.376 668.15 106.4 669.494 106.4ZM679.682 106.4C680.466 106.4 681.09 106.016 681.474 105.456L683.09 106.688C682.338 107.68 681.154 108.32 679.682 108.32C676.898 108.32 675.234 106.32 675.234 103.968C675.234 101.616 676.898 99.6155 679.682 99.6155C681.154 99.6155 682.338 100.256 683.09 101.248L681.474 102.48C681.09 101.92 680.482 101.536 679.65 101.536C678.322 101.536 677.346 102.56 677.346 103.968C677.346 105.392 678.322 106.4 679.682 106.4ZM686.77 108.32C685.154 108.32 684.05 107.392 684.05 105.872C684.05 104.64 684.994 103.696 686.738 103.408L689.17 102.992V102.784C689.17 101.936 688.53 101.392 687.618 101.392C686.834 101.392 686.178 101.728 685.81 102.352L684.306 101.216C685.026 100.224 686.226 99.6155 687.682 99.6155C690.018 99.6155 691.218 101.008 691.218 102.784V108H689.17V107.248C688.658 107.888 687.714 108.32 686.77 108.32ZM686.066 105.792C686.066 106.304 686.498 106.688 687.186 106.688C688.098 106.688 688.754 106.208 689.17 105.552V104.448L687.266 104.784C686.402 104.928 686.066 105.28 686.066 105.792ZM693.544 108V95.9995H695.576V108H693.544ZM705.437 106.688C704.685 107.696 703.437 108.32 701.917 108.32C699.053 108.32 697.437 106.32 697.437 103.968C697.437 101.584 698.941 99.6155 701.581 99.6155C703.821 99.6155 705.293 101.12 705.293 103.232C705.293 103.68 705.229 104.112 705.165 104.384H699.517C699.645 105.712 700.573 106.496 701.949 106.496C702.829 106.496 703.549 106.112 703.981 105.536L705.437 106.688ZM701.581 101.312C700.589 101.312 699.917 101.792 699.645 102.848H703.277C703.245 102.048 702.653 101.312 701.581 101.312Z" fill="black"/>
<path d="M582.609 280V266H586.889C589.969 266 591.869 267.58 591.869 270.18C591.869 271.86 591.049 273.12 589.629 273.8L594.029 280H590.629L586.909 274.34H585.449V280H582.609ZM587.049 268.42H585.449V271.92H587.049C588.249 271.92 588.949 271.28 588.949 270.14C588.949 269.08 588.249 268.42 587.049 268.42ZM604.689 278.36C603.749 279.62 602.189 280.4 600.289 280.4C596.709 280.4 594.689 277.9 594.689 274.96C594.689 271.98 596.569 269.52 599.869 269.52C602.669 269.52 604.509 271.4 604.509 274.04C604.509 274.6 604.429 275.14 604.349 275.48H597.289C597.449 277.14 598.609 278.12 600.329 278.12C601.429 278.12 602.329 277.64 602.869 276.92L604.689 278.36ZM599.869 271.64C598.629 271.64 597.789 272.24 597.449 273.56H601.989C601.949 272.56 601.209 271.64 599.869 271.64ZM611.753 278C612.733 278 613.513 277.52 613.993 276.82L616.013 278.36C615.073 279.6 613.593 280.4 611.753 280.4C608.273 280.4 606.193 277.9 606.193 274.96C606.193 272.02 608.273 269.52 611.753 269.52C613.593 269.52 615.073 270.32 616.013 271.56L613.993 273.1C613.513 272.4 612.753 271.92 611.713 271.92C610.053 271.92 608.833 273.2 608.833 274.96C608.833 276.74 610.053 278 611.753 278ZM622.318 269.52C625.598 269.52 627.838 271.94 627.838 274.96C627.838 277.98 625.598 280.4 622.318 280.4C619.038 280.4 616.798 277.98 616.798 274.96C616.798 271.94 619.038 269.52 622.318 269.52ZM622.358 278C623.978 278 625.198 276.7 625.198 274.96C625.198 273.2 623.978 271.92 622.358 271.92C620.678 271.92 619.438 273.2 619.438 274.96C619.438 276.72 620.678 278 622.358 278ZM630.155 284.92V269.92H632.695V270.64C633.495 269.92 634.515 269.52 635.835 269.52C639.035 269.52 640.955 272.02 640.955 274.96C640.955 277.9 639.035 280.4 635.835 280.4C634.515 280.4 633.495 280 632.695 279.28V284.92H630.155ZM632.715 276.48C633.395 277.48 634.295 278 635.475 278C637.195 278 638.315 276.72 638.315 274.96C638.315 273.2 637.195 271.92 635.475 271.92C634.295 271.92 633.395 272.44 632.715 273.44L632.695 273.42V276.5L632.715 276.48ZM644.56 268.16C643.66 268.16 642.9 267.4 642.9 266.5C642.9 265.6 643.66 264.84 644.56 264.84C645.46 264.84 646.2 265.6 646.2 266.5C646.2 267.4 645.46 268.16 644.56 268.16ZM643.28 280V269.92H645.82V280H643.28ZM658.146 278.36C657.206 279.62 655.646 280.4 653.746 280.4C650.166 280.4 648.146 277.9 648.146 274.96C648.146 271.98 650.026 269.52 653.326 269.52C656.126 269.52 657.966 271.4 657.966 274.04C657.966 274.6 657.886 275.14 657.806 275.48H650.746C650.906 277.14 652.066 278.12 653.786 278.12C654.886 278.12 655.786 277.64 656.326 276.92L658.146 278.36ZM653.326 271.64C652.086 271.64 651.246 272.24 650.906 273.56H655.446C655.406 272.56 654.666 271.64 653.326 271.64ZM668.478 268.32L666.078 265H668.838L670.898 268.32H668.478ZM668.718 280.4C666.698 280.4 665.318 279.24 665.318 277.34C665.318 275.8 666.498 274.62 668.678 274.26L671.718 273.74V273.48C671.718 272.42 670.918 271.74 669.778 271.74C668.798 271.74 667.978 272.16 667.518 272.94L665.638 271.52C666.538 270.28 668.038 269.52 669.858 269.52C672.778 269.52 674.278 271.26 674.278 273.48V280H671.718V279.06C671.078 279.86 669.898 280.4 668.718 280.4ZM667.838 277.24C667.838 277.88 668.378 278.36 669.238 278.36C670.378 278.36 671.198 277.76 671.718 276.94V275.56L669.338 275.98C668.258 276.16 667.838 276.6 667.838 277.24ZM682.225 280V265H684.765V280H682.225ZM689.167 271.76H686.807L688.607 266H691.487L689.167 271.76ZM694.775 268.16C693.875 268.16 693.115 267.4 693.115 266.5C693.115 265.6 693.875 264.84 694.775 264.84C695.675 264.84 696.415 265.6 696.415 266.5C696.415 267.4 695.675 268.16 694.775 268.16ZM693.495 280V269.92H696.035V280H693.495ZM698.361 274.96C698.361 272.02 700.301 269.52 703.481 269.52C704.781 269.52 705.801 269.92 706.601 270.62V265H709.161V280H706.601V279.3C705.801 280 704.781 280.4 703.481 280.4C700.301 280.4 698.361 277.9 698.361 274.96ZM701.021 274.96C701.021 276.72 702.121 278 703.841 278C705.021 278 705.941 277.48 706.601 276.5V273.42C705.921 272.42 705.001 271.92 703.841 271.92C702.121 271.92 701.021 273.2 701.021 274.96ZM721.486 278.36C720.546 279.62 718.986 280.4 717.086 280.4C713.506 280.4 711.486 277.9 711.486 274.96C711.486 271.98 713.366 269.52 716.666 269.52C719.466 269.52 721.306 271.4 721.306 274.04C721.306 274.6 721.226 275.14 721.146 275.48H714.086C714.246 277.14 715.406 278.12 717.126 278.12C718.226 278.12 719.126 277.64 719.666 276.92L721.486 278.36ZM716.666 271.64C715.426 271.64 714.586 272.24 714.246 273.56H718.786C718.746 272.56 718.006 271.64 716.666 271.64ZM723.788 280V269.92H726.328V270.72C727.028 270.04 727.968 269.52 729.308 269.52C731.488 269.52 733.228 271.02 733.228 274V280H730.648V274.1C730.648 272.76 729.908 271.92 728.668 271.92C727.388 271.92 726.708 272.78 726.328 273.42V280H723.788ZM736.752 276.32V272.24H734.872V269.92H736.752V267.4H739.312V269.92H742.392V272.24H739.312V276.32C739.312 277.44 739.912 277.88 740.912 277.88C741.612 277.88 742.072 277.8 742.412 277.66V279.88C741.912 280.1 741.312 280.2 740.472 280.2C737.952 280.2 736.752 278.78 736.752 276.32ZM745.946 268.16C745.046 268.16 744.286 267.4 744.286 266.5C744.286 265.6 745.046 264.84 745.946 264.84C746.846 264.84 747.586 265.6 747.586 266.5C747.586 267.4 746.846 268.16 745.946 268.16ZM744.666 280V269.92H747.206V280H744.666ZM749.532 274.96C749.532 272.02 751.452 269.52 754.652 269.52C755.972 269.52 756.972 269.92 757.772 270.64V269.92H760.332V284.92H757.772V279.28C756.972 280 755.972 280.4 754.652 280.4C751.452 280.4 749.532 277.9 749.532 274.96ZM752.172 274.96C752.172 276.72 753.272 278 754.992 278C756.172 278 757.092 277.48 757.772 276.48V273.44C757.092 272.44 756.172 271.92 754.992 271.92C753.272 271.92 752.172 273.2 752.172 274.96ZM770.017 275.64V269.92H772.577V275.52C772.577 278.54 770.817 280.4 767.857 280.4C764.897 280.4 763.157 278.54 763.157 275.52V269.92H765.717V275.64C765.717 277.1 766.477 278 767.877 278C769.257 278 770.017 277.1 770.017 275.64ZM784.669 278.36C783.729 279.62 782.169 280.4 780.269 280.4C776.689 280.4 774.669 277.9 774.669 274.96C774.669 271.98 776.549 269.52 779.849 269.52C782.649 269.52 784.489 271.4 784.489 274.04C784.489 274.6 784.409 275.14 784.329 275.48H777.269C777.429 277.14 778.589 278.12 780.309 278.12C781.409 278.12 782.309 277.64 782.849 276.92L784.669 278.36ZM779.849 271.64C778.609 271.64 777.769 272.24 777.429 273.56H781.969C781.929 272.56 781.189 271.64 779.849 271.64Z" fill="black"/>
<line x1="563" y1="199" x2="803" y2="199" stroke="#000091" stroke-width="4"/>
<path d="M680.879 247.121C682.05 248.292 683.95 248.292 685.121 247.121L704.213 228.029C705.385 226.857 705.385 224.958 704.213 223.786C703.042 222.615 701.142 222.615 699.971 223.786L683 240.757L666.029 223.786C664.858 222.615 662.958 222.615 661.787 223.786C660.615 224.958 660.615 226.857 661.787 228.029L680.879 247.121ZM680 201L680 245L686 245L686 201L680 201Z" fill="#000091"/>
</svg>
