<?xml version="1.0" encoding="UTF-8"?>
<svg xmlns="http://www.w3.org/2000/svg" version="1.1" viewBox="0 0 808 463">
  <defs>
    <style>
      .cls-1, .cls-2 {
        fill: #000091;
      }

      .cls-2, .cls-3, .cls-4 {
        fill-opacity: .9;
        fill-rule: evenodd;
      }

      .cls-3 {
        fill: #bfbfbf;
      }

      .cls-4 {
        fill: #e1000f;
      }

      .cls-5, .cls-6 {
        fill: #e5e5e5;
        stroke: #666;
      }

      .cls-5, .cls-6, .cls-7, .cls-8 {
        stroke-width: 2px;
      }

      .cls-9 {
        fill: #fff;
      }

      .cls-6, .cls-7 {
        stroke-miterlimit: 10;
      }

      .cls-7 {
        fill: #417dc4;
        stroke: #3558a2;
      }

      .cls-8 {
        fill: #c9fcac;
        stroke: #18753c;
      }

      .cls-10 {
        fill: none;
        stroke: #000091;
        stroke-width: 4px;
      }

      .cls-11 {
        display: none;
      }
    </style>
  </defs>
  <!-- Generator: Adobe Illustrator 28.7.0, SVG Export Plug-In . SVG Version: 1.2.0 Build 136)  -->
  <g>
    <g id="Calque_1" class="cls-11">
      <line class="cls-10" x1="118.6" y1="323" x2="689.4" y2="323"/>
      <path class="cls-1" d="M401.9,371.1c1.2,1.2,3.1,1.2,4.2,0l19.1-19.1c1.2-1.2,1.2-3.1,0-4.2s-3.1-1.2-4.2,0l-17,17-17-17c-1.2-1.2-3.1-1.2-4.2,0s-1.2,3.1,0,4.2l19.1,19.1ZM401,325v44h6v-44h-6Z"/>
      <g>
        <path class="cls-5" d="M413.7,3h77.6c3.9,0,7,4,7,9v160c0,5-3.1,9-7,9h-77.6c-3.9,0-7-4-7-9V12c0-5,3.1-9,7-9Z"/>
        <path d="M438.3,98v-11.2h2.3v11.2h-2.3ZM449,96.2c1.1,0,2-.4,2.6-1v-1.9h-2.8v-2.1h5.1v4.8c-1,1.4-2.8,2.3-4.9,2.3-3.6,0-6.1-2.7-6.1-5.9s2.4-5.9,6-5.9,3.7.9,4.7,2.3l-1.8,1.4c-.6-.9-1.6-1.5-2.9-1.5-2.1,0-3.6,1.6-3.6,3.8s1.6,3.8,3.8,3.8ZM456.6,98v-11.2h2.9l5,8v-8h2.3v11.2h-2.9l-5-8v8h-2.3Z"/>
      </g>
      <g>
        <path class="cls-5" d="M514.9,3h77.6c3.9,0,7,4,7,9v160c0,5-3.1,9-7,9h-77.6c-3.9,0-7-4-7-9V12c0-5,3.1-9,7-9Z"/>
        <path d="M529.9,84.2c1.1,0,2-.4,2.6-1v-1.9h-2.8v-2.1h5.1v4.8c-1,1.4-2.8,2.3-4.9,2.3-3.6,0-6.1-2.7-6.1-5.9s2.4-5.9,6-5.9,3.7.9,4.7,2.3l-1.8,1.4c-.6-.9-1.6-1.5-2.9-1.5-2.1,0-3.6,1.6-3.6,3.8s1.6,3.8,3.8,3.8ZM542.5,82.5v-4.6h2v4.5c0,2.4-1.4,3.9-3.8,3.9s-3.8-1.5-3.8-3.9v-4.5h2v4.6c0,1.2.6,1.9,1.7,1.9s1.7-.7,1.7-1.9ZM547.8,76.5c-.7,0-1.3-.6-1.3-1.3s.6-1.3,1.3-1.3,1.3.6,1.3,1.3-.6,1.3-1.3,1.3ZM546.8,86v-8.1h2v8.1h-2ZM555.1,84.4c.8,0,1.4-.4,1.8-.9l1.6,1.2c-.8,1-1.9,1.6-3.4,1.6-2.8,0-4.4-2-4.4-4.4s1.7-4.4,4.4-4.4,2.7.6,3.4,1.6l-1.6,1.2c-.4-.6-1-.9-1.8-.9-1.3,0-2.3,1-2.3,2.4s1,2.4,2.3,2.4ZM560,86v-12h2v4.6c.6-.5,1.3-1,2.4-1,1.7,0,3.1,1.2,3.1,3.6v4.8h-2.1v-4.7c0-1.1-.6-1.7-1.6-1.7s-1.6.7-1.9,1.2v5.3h-2ZM577.3,84.7c-.8,1-2,1.6-3.5,1.6-2.9,0-4.5-2-4.5-4.4s1.5-4.4,4.1-4.4,3.7,1.5,3.7,3.6,0,.9-.1,1.2h-5.6c.1,1.3,1.1,2.1,2.4,2.1s1.6-.4,2-1l1.5,1.2ZM573.5,79.3c-1,0-1.7.5-1.9,1.5h3.6c0-.8-.6-1.5-1.7-1.5ZM579.7,83.1v-3.3h-1.5v-1.9h1.5v-2h2v2h2.5v1.9h-2.5v3.3c0,.9.5,1.2,1.3,1.2s.9,0,1.2-.2v1.8c-.4.2-.9.3-1.6.3-2,0-3-1.1-3-3.1ZM523.3,110l4.2-11.2h3l4.2,11.2h-2.4l-1.1-2.9h-4.5l-1.1,2.9h-2.4ZM527.5,105.2h3.1l-1.5-4.2-1.5,4.2ZM535.8,106c0-2.4,1.6-4.4,4.1-4.4s1.9.3,2.5.9v-4.5h2v12h-2v-.6c-.6.6-1.5.9-2.5.9-2.5,0-4.1-2-4.1-4.4ZM537.9,106c0,1.4.9,2.4,2.3,2.4s1.7-.4,2.2-1.2v-2.5c-.5-.8-1.3-1.2-2.2-1.2-1.4,0-2.3,1-2.3,2.4ZM546.9,110v-8.1h2v.8c.5-.5,1.2-1,2.1-1s.5,0,.7.1v2.1c-.3,0-.5-.1-.9-.1-1,0-1.6.5-1.9,1v5.1h-2ZM560.6,108.7c-.8,1-2,1.6-3.5,1.6-2.9,0-4.5-2-4.5-4.4s1.5-4.4,4.1-4.4,3.7,1.5,3.7,3.6,0,.9-.1,1.2h-5.6c.1,1.3,1.1,2.1,2.4,2.1s1.6-.4,2-1l1.5,1.2ZM556.7,103.3c-1,0-1.7.5-1.9,1.5h3.6c0-.8-.6-1.5-1.7-1.5ZM561.6,108.8l1.3-1.2c.5.6,1.1,1.1,1.9,1.1s1-.4,1-.8c0-1.4-3.8-.8-3.8-3.7s1.2-2.5,2.9-2.5,2.4.6,3,1.4l-1.4,1.2c-.4-.5-.9-.9-1.6-.9s-.9.3-.9.7c0,1.4,3.8.8,3.8,3.7,0,1.7-1.4,2.6-2.9,2.6s-2.5-.6-3.2-1.5ZM568.8,108.8l1.3-1.2c.5.6,1.1,1.1,1.9,1.1s1-.4,1-.8c0-1.4-3.8-.8-3.8-3.7s1.2-2.5,2.9-2.5,2.4.6,3,1.4l-1.4,1.2c-.4-.5-.9-.9-1.6-.9s-.9.3-.9.7c0,1.4,3.8.8,3.8,3.7,0,1.7-1.4,2.6-2.9,2.6s-2.5-.6-3.2-1.5ZM584.2,108.7c-.8,1-2,1.6-3.5,1.6-2.9,0-4.5-2-4.5-4.4s1.5-4.4,4.1-4.4,3.7,1.5,3.7,3.6,0,.9-.1,1.2h-5.6c.1,1.3,1.1,2.1,2.4,2.1s1.6-.4,2-1l1.5,1.2ZM580.3,103.3c-1,0-1.7.5-1.9,1.5h3.6c0-.8-.6-1.5-1.7-1.5Z"/>
      </g>
      <g>
        <path class="cls-5" d="M616.1,3h77.6c3.9,0,7,4,7,9v160c0,5-3.1,9-7,9h-77.6c-3.9,0-7-4-7-9V12c0-5,3.1-9,7-9Z"/>
        <path d="M631.7,98v-11.2h4.4c3.6,0,6,2.6,6,5.6s-2.4,5.6-6,5.6h-4.4ZM636.1,88.9h-2.2v7.1h2.2c2.1,0,3.6-1.6,3.6-3.5s-1.5-3.5-3.6-3.5ZM649.8,96.2c1.1,0,2-.4,2.6-1v-1.9h-2.8v-2.1h5.1v4.8c-1,1.4-2.8,2.3-4.9,2.3-3.6,0-6.1-2.7-6.1-5.9s2.4-5.9,6-5.9,3.7.9,4.7,2.3l-1.8,1.4c-.6-.9-1.6-1.5-2.9-1.5-2.1,0-3.6,1.6-3.6,3.8s1.6,3.8,3.8,3.8ZM657.4,98v-11.2h6.5v1.9h-4.3v2.6h3.6v1.9h-3.6v4.7h-2.3ZM666.7,88.5c-.7,0-1.3-.6-1.3-1.3s.6-1.3,1.3-1.3,1.3.6,1.3,1.3-.6,1.3-1.3,1.3ZM665.7,98v-8.1h2v8.1h-2ZM670.6,98v-11.2h3.7c2.5,0,4,1.3,4,3.3s-1.5,3.3-4,3.3h-1.4v4.5h-2.3ZM674.4,88.7h-1.5v2.8h1.5c1,0,1.5-.5,1.5-1.4s-.6-1.4-1.5-1.4Z"/>
      </g>
      <g>
        <path class="cls-5" d="M717.4,3h77.6c3.9,0,7,4,7,9v160c0,5-3.1,9-7,9h-77.6c-3.9,0-7-4-7-9V12c0-5,3.1-9,7-9Z"/>
        <path d="M729.8,98l4.2-11.2h3l4.2,11.2h-2.4l-1.1-2.9h-4.5l-1.1,2.9h-2.4ZM734,93.2h3.1l-1.5-4.2-1.5,4.2ZM743.1,98v-11.2h3.4c2.5,0,4,1.3,4,3.3s-.7,2.4-1.8,2.9l3.5,5h-2.7l-3-4.5h-1.2v4.5h-2.3ZM746.7,88.7h-1.3v2.8h1.3c1,0,1.5-.5,1.5-1.4s-.6-1.4-1.5-1.4ZM758.7,96.2c1.3,0,2.3-.6,2.9-1.5l1.8,1.4c-1,1.4-2.7,2.3-4.7,2.3-3.5,0-6-2.7-6-5.9s2.4-5.9,6-5.9,3.7.9,4.7,2.3l-1.8,1.4c-.6-.9-1.6-1.5-2.9-1.5-2.1,0-3.6,1.6-3.6,3.8s1.5,3.8,3.6,3.8ZM765.6,98v-11.2h6.5v1.9h-4.3v2.6h3.6v1.9h-3.6v2.8h4.3v1.9h-6.5ZM774.9,98v-11.2h3.7c2.5,0,4,1.3,4,3.3s-1.5,3.3-4,3.3h-1.4v4.5h-2.3ZM778.7,88.7h-1.5v2.8h1.5c1,0,1.5-.5,1.5-1.4s-.6-1.4-1.5-1.4Z"/>
      </g>
      <path d="M425.1,282l5.3-14h3.7l5.3,14h-3l-1.3-3.6h-5.6l-1.3,3.6h-3ZM430.4,275.9h3.8l-1.9-5.3-1.9,5.3ZM441.9,286.9v-15h2.5v.7c.8-.7,1.8-1.1,3.1-1.1,3.2,0,5.1,2.5,5.1,5.4s-1.9,5.4-5.1,5.4-2.3-.4-3.1-1.1v5.6h-2.5ZM444.4,278.5c.7,1,1.6,1.5,2.8,1.5,1.7,0,2.8-1.3,2.8-3s-1.1-3-2.8-3-2.1.5-2.8,1.5h0s0,3.1,0,3.1h0ZM455,286.9v-15h2.5v.7c.8-.7,1.8-1.1,3.1-1.1,3.2,0,5.1,2.5,5.1,5.4s-1.9,5.4-5.1,5.4-2.3-.4-3.1-1.1v5.6h-2.5ZM457.6,278.5c.7,1,1.6,1.5,2.8,1.5,1.7,0,2.8-1.3,2.8-3s-1.1-3-2.8-3-2.1.5-2.8,1.5h0s0,3.1,0,3.1h0ZM470.8,282.4c-2,0-3.4-1.2-3.4-3.1s1.2-2.7,3.4-3.1l3-.5v-.3c0-1.1-.8-1.7-1.9-1.7s-1.8.4-2.3,1.2l-1.9-1.4c.9-1.2,2.4-2,4.2-2,2.9,0,4.4,1.7,4.4,4v6.5h-2.6v-.9c-.6.8-1.8,1.3-3,1.3ZM469.9,279.2c0,.6.5,1.1,1.4,1.1s2-.6,2.5-1.4v-1.4l-2.4.4c-1.1.2-1.5.6-1.5,1.3ZM479.2,282v-10.1h2.5v1c.7-.7,1.5-1.2,2.7-1.2s.6,0,.9.1v2.7c-.3,0-.7-.1-1.1-.1-1.2,0-2,.7-2.4,1.3v6.3h-2.5ZM488.7,270.2c-.9,0-1.7-.8-1.7-1.7s.8-1.7,1.7-1.7,1.6.8,1.6,1.7-.7,1.7-1.6,1.7ZM487.4,282v-10.1h2.5v10.1h-2.5ZM502.2,280.4c-.9,1.3-2.5,2-4.4,2-3.6,0-5.6-2.5-5.6-5.4s1.9-5.4,5.2-5.4,4.6,1.9,4.6,4.5,0,1.1-.2,1.4h-7.1c.2,1.7,1.3,2.6,3,2.6s2-.5,2.5-1.2l1.8,1.4ZM497.4,273.6c-1.2,0-2.1.6-2.4,1.9h4.5c0-1-.8-1.9-2.1-1.9ZM504.5,282v-10.1h2.5v.8c.7-.7,1.5-1.2,2.8-1.2s2.5.6,3.1,1.8c.7-.9,1.7-1.8,3.3-1.8s3.7,1.4,3.7,4.3v6.2h-2.6v-6.1c0-1.2-.7-2-1.8-2s-1.7.8-2.1,1.4c0,.1,0,.3,0,.4v6.2h-2.6v-6.1c0-1.2-.6-2-1.8-2s-1.8.9-2.1,1.5v6.6h-2.5ZM532.2,280.4c-.9,1.3-2.5,2-4.4,2-3.6,0-5.6-2.5-5.6-5.4s1.9-5.4,5.2-5.4,4.6,1.9,4.6,4.5,0,1.1-.2,1.4h-7.1c.2,1.7,1.3,2.6,3,2.6s2-.5,2.5-1.2l1.8,1.4ZM527.4,273.6c-1.2,0-2.1.6-2.4,1.9h4.5c0-1-.8-1.9-2.1-1.9ZM534.5,282v-10.1h2.5v.8c.7-.7,1.6-1.2,3-1.2,2.2,0,3.9,1.5,3.9,4.5v6h-2.6v-5.9c0-1.3-.7-2.2-2-2.2s-2,.9-2.3,1.5v6.6h-2.5ZM547.5,278.3v-4.1h-1.9v-2.3h1.9v-2.5h2.6v2.5h3.1v2.3h-3.1v4.1c0,1.1.6,1.6,1.6,1.6s1.2,0,1.5-.2v2.2c-.5.2-1.1.3-1.9.3-2.5,0-3.7-1.4-3.7-3.9ZM570.1,280.4c-.9,1.3-2.5,2-4.4,2-3.6,0-5.6-2.5-5.6-5.4s1.9-5.4,5.2-5.4,4.6,1.9,4.6,4.5,0,1.1-.2,1.4h-7.1c.2,1.7,1.3,2.6,3,2.6s2-.5,2.5-1.2l1.8,1.4ZM565.2,273.6c-1.2,0-2.1.6-2.4,1.9h4.5c0-1-.8-1.9-2.1-1.9ZM573,278.3v-4.1h-1.9v-2.3h1.9v-2.5h2.6v2.5h3.1v2.3h-3.1v4.1c0,1.1.6,1.6,1.6,1.6s1.2,0,1.5-.2v2.2c-.5.2-1.1.3-1.9.3-2.5,0-3.7-1.4-3.7-3.9ZM585.4,280.5l1.7-1.6c.6.8,1.4,1.3,2.3,1.3s1.2-.4,1.2-1c0-1.8-4.7-1-4.7-4.7s1.5-3.1,3.6-3.1,3,.7,3.7,1.7l-1.7,1.5c-.5-.7-1.2-1.2-2-1.2s-1.2.4-1.2.9c0,1.7,4.7,1,4.7,4.6,0,2.1-1.7,3.3-3.6,3.3s-3.1-.7-4-1.9ZM601.2,270.3h-2.4l2.1-3.3h2.8l-2.4,3.3ZM604.7,280.4c-.9,1.3-2.5,2-4.4,2-3.6,0-5.6-2.5-5.6-5.4s1.9-5.4,5.2-5.4,4.6,1.9,4.6,4.5,0,1.1-.2,1.4h-7.1c.2,1.7,1.3,2.6,3,2.6s2-.5,2.5-1.2l1.8,1.4ZM599.8,273.6c-1.2,0-2.1.6-2.4,1.9h4.5c0-1-.8-1.9-2.1-1.9ZM607,282v-15h2.5v15h-2.5ZM621.8,280.4c-.9,1.3-2.5,2-4.4,2-3.6,0-5.6-2.5-5.6-5.4s1.9-5.4,5.2-5.4,4.6,1.9,4.6,4.5,0,1.1-.2,1.4h-7.1c.2,1.7,1.3,2.6,3,2.6s2-.5,2.5-1.2l1.8,1.4ZM617,273.6c-1.2,0-2.1.6-2.4,1.9h4.5c0-1-.8-1.9-2.1-1.9ZM628.9,280c1,0,1.8-.5,2.2-1.2l2,1.5c-.9,1.2-2.4,2-4.3,2-3.5,0-5.6-2.5-5.6-5.4s2.1-5.4,5.6-5.4,3.3.8,4.3,2l-2,1.5c-.5-.7-1.2-1.2-2.3-1.2-1.7,0-2.9,1.3-2.9,3s1.2,3,2.9,3ZM635.8,278.3v-4.1h-1.9v-2.3h1.9v-2.5h2.6v2.5h3.1v2.3h-3.1v4.1c0,1.1.6,1.6,1.6,1.6s1.2,0,1.5-.2v2.2c-.5.2-1.1.3-1.9.3-2.5,0-3.7-1.4-3.7-3.9ZM645,270.2c-.9,0-1.7-.8-1.7-1.7s.8-1.7,1.7-1.7,1.6.8,1.6,1.7-.7,1.7-1.6,1.7ZM643.7,282v-10.1h2.5v10.1h-2.5ZM654.1,271.5c3.3,0,5.5,2.4,5.5,5.4s-2.2,5.4-5.5,5.4-5.5-2.4-5.5-5.4,2.2-5.4,5.5-5.4ZM654.1,280c1.6,0,2.8-1.3,2.8-3s-1.2-3-2.8-3-2.9,1.3-2.9,3,1.2,3,2.9,3ZM661.9,282v-10.1h2.5v.8c.7-.7,1.6-1.2,3-1.2,2.2,0,3.9,1.5,3.9,4.5v6h-2.6v-5.9c0-1.3-.7-2.2-2-2.2s-2,.9-2.3,1.5v6.6h-2.5Z"/>
      <line class="cls-10" x1="405.6" y1="201" x2="804.8" y2="201"/>
      <path class="cls-1" d="M545.7,249.1c1.2,1.2,3.1,1.2,4.2,0l19.1-19.1c1.2-1.2,1.2-3.1,0-4.2-1.2-1.2-3.1-1.2-4.2,0l-17,17-17-17c-1.2-1.2-3.1-1.2-4.2,0s-1.2,3.1,0,4.2l19.1,19.1ZM544.8,203v44h6v-44h-6Z"/>
      <path class="cls-8" d="M17.4,3h343.7c7.8,0,14.1,4,14.1,9v160c0,5-6.3,9-14.1,9H17.4c-7.8,0-14.1-4-14.1-9V12c0-5,6.3-9,14.1-9Z"/>
      <path d="M141.1,86v-11.2h3.2c2.3,0,3.7,1.2,3.7,3s-.4,1.7-1.2,2.2c1.2.5,1.8,1.5,1.8,2.7,0,2-1.6,3.3-4.2,3.3h-3.4ZM144.3,76.7h-1v2.4h1c.9,0,1.4-.4,1.4-1.2s-.5-1.2-1.4-1.2ZM144.6,81.1h-1.3v2.9h1.3c1.1,0,1.7-.6,1.7-1.5s-.6-1.4-1.7-1.4ZM153,86.3c-1.6,0-2.7-.9-2.7-2.4s.9-2.2,2.7-2.5l2.4-.4v-.2c0-.8-.6-1.4-1.6-1.4s-1.4.3-1.8,1l-1.5-1.1c.7-1,1.9-1.6,3.4-1.6,2.3,0,3.5,1.4,3.5,3.2v5.2h-2v-.8c-.5.6-1.5,1.1-2.4,1.1ZM152.3,83.8c0,.5.4.9,1.1.9s1.6-.5,2-1.1v-1.1l-1.9.3c-.9.1-1.2.5-1.2,1ZM159.1,84.8l1.3-1.2c.5.6,1.1,1.1,1.9,1.1s1-.4,1-.8c0-1.4-3.8-.8-3.8-3.7s1.2-2.5,2.9-2.5,2.4.6,3,1.4l-1.4,1.2c-.4-.5-.9-.9-1.6-.9s-.9.3-.9.7c0,1.4,3.8.8,3.8,3.7,0,1.7-1.4,2.6-2.9,2.6s-2.5-.6-3.2-1.5ZM174.5,84.7c-.8,1-2,1.6-3.5,1.6-2.9,0-4.5-2-4.5-4.4s1.5-4.4,4.1-4.4,3.7,1.5,3.7,3.6,0,.9-.1,1.2h-5.6c.1,1.3,1.1,2.1,2.4,2.1s1.6-.4,2-1l1.5,1.2ZM170.6,79.3c-1,0-1.7.5-1.9,1.5h3.6c0-.8-.6-1.5-1.7-1.5ZM182.9,86.3c-1.6,0-2.7-.9-2.7-2.4s.9-2.2,2.7-2.5l2.4-.4v-.2c0-.8-.6-1.4-1.6-1.4s-1.4.3-1.8,1l-1.5-1.1c.7-1,1.9-1.6,3.4-1.6,2.3,0,3.5,1.4,3.5,3.2v5.2h-2v-.8c-.5.6-1.5,1.1-2.4,1.1ZM182.2,83.8c0,.5.4.9,1.1.9s1.6-.5,2-1.1v-1.1l-1.9.3c-.9.1-1.2.5-1.2,1ZM189.1,82c0-2.4,1.6-4.4,4.1-4.4s1.9.3,2.5.9v-4.5h2v12h-2v-.6c-.6.6-1.5.9-2.5.9-2.5,0-4.1-2-4.1-4.4ZM191.2,82c0,1.4.9,2.4,2.3,2.4s1.7-.4,2.2-1.2v-2.5c-.5-.8-1.3-1.2-2.2-1.2-1.4,0-2.3,1-2.3,2.4ZM200.2,86v-8.1h2v.8c.5-.5,1.2-1,2.1-1s.5,0,.7.1v2.1c-.3,0-.5-.1-.9-.1-1,0-1.6.5-1.9,1v5.1h-2ZM213.9,84.7c-.8,1-2,1.6-3.5,1.6-2.9,0-4.5-2-4.5-4.4s1.5-4.4,4.1-4.4,3.7,1.5,3.7,3.6,0,.9-.1,1.2h-5.6c.1,1.3,1.1,2.1,2.4,2.1s1.6-.4,2-1l1.5,1.2ZM210,79.3c-1,0-1.7.5-1.9,1.5h3.6c0-.8-.6-1.5-1.7-1.5ZM214.9,84.8l1.3-1.2c.5.6,1.1,1.1,1.9,1.1s1-.4,1-.8c0-1.4-3.8-.8-3.8-3.7s1.2-2.5,2.9-2.5,2.4.6,3,1.4l-1.4,1.2c-.4-.5-.9-.9-1.6-.9s-.9.3-.9.7c0,1.4,3.8.8,3.8,3.7,0,1.7-1.4,2.6-2.9,2.6s-2.5-.6-3.2-1.5ZM222.1,84.8l1.3-1.2c.5.6,1.1,1.1,1.9,1.1s1-.4,1-.8c0-1.4-3.8-.8-3.8-3.7s1.2-2.5,2.9-2.5,2.4.6,3,1.4l-1.4,1.2c-.4-.5-.9-.9-1.6-.9s-.9.3-.9.7c0,1.4,3.8.8,3.8,3.7,0,1.7-1.4,2.6-2.9,2.6s-2.5-.6-3.2-1.5ZM237.5,84.7c-.8,1-2,1.6-3.5,1.6-2.9,0-4.5-2-4.5-4.4s1.5-4.4,4.1-4.4,3.7,1.5,3.7,3.6,0,.9-.1,1.2h-5.6c.1,1.3,1.1,2.1,2.4,2.1s1.6-.4,2-1l1.5,1.2ZM233.7,79.3c-1,0-1.7.5-1.9,1.5h3.6c0-.8-.6-1.5-1.7-1.5ZM166.9,110v-12h2v12h-2ZM175.2,101.6c2.6,0,4.4,1.9,4.4,4.4s-1.8,4.4-4.4,4.4-4.4-1.9-4.4-4.4,1.8-4.4,4.4-4.4ZM175.3,108.4c1.3,0,2.3-1,2.3-2.4s-1-2.4-2.3-2.4-2.3,1-2.3,2.4,1,2.4,2.3,2.4ZM185.5,108.4c.8,0,1.4-.4,1.8-.9l1.6,1.2c-.8,1-1.9,1.6-3.4,1.6-2.8,0-4.4-2-4.4-4.4s1.7-4.4,4.4-4.4,2.7.6,3.4,1.6l-1.6,1.2c-.4-.6-1-.9-1.8-.9-1.3,0-2.3,1-2.3,2.4s1,2.4,2.3,2.4ZM192.6,110.3c-1.6,0-2.7-.9-2.7-2.4s.9-2.2,2.7-2.5l2.4-.4v-.2c0-.8-.6-1.4-1.6-1.4s-1.4.3-1.8,1l-1.5-1.1c.7-1,1.9-1.6,3.4-1.6,2.3,0,3.5,1.4,3.5,3.2v5.2h-2v-.8c-.5.6-1.5,1.1-2.4,1.1ZM191.9,107.8c0,.5.4.9,1.1.9s1.6-.5,2-1.1v-1.1l-1.9.3c-.9.1-1.2.5-1.2,1ZM199.3,110v-12h2v12h-2ZM211.2,108.7c-.8,1-2,1.6-3.5,1.6-2.9,0-4.5-2-4.5-4.4s1.5-4.4,4.1-4.4,3.7,1.5,3.7,3.6,0,.9-.1,1.2h-5.6c.1,1.3,1.1,2.1,2.4,2.1s1.6-.4,2-1l1.5,1.2ZM207.4,103.3c-1,0-1.7.5-1.9,1.5h3.6c0-.8-.6-1.5-1.7-1.5Z"/>
      <path d="M21.6,282v-14h4.3c3.1,0,5,1.6,5,4.2s-.8,2.9-2.2,3.6l4.4,6.2h-3.4l-3.7-5.7h-1.5v5.7h-2.8ZM26,270.4h-1.6v3.5h1.6c1.2,0,1.9-.6,1.9-1.8s-.7-1.7-1.9-1.7ZM43.7,280.4c-.9,1.3-2.5,2-4.4,2-3.6,0-5.6-2.5-5.6-5.4s1.9-5.4,5.2-5.4,4.6,1.9,4.6,4.5,0,1.1-.2,1.4h-7.1c.2,1.7,1.3,2.6,3,2.6s2-.5,2.5-1.2l1.8,1.4ZM38.9,273.6c-1.2,0-2.1.6-2.4,1.9h4.5c0-1-.8-1.9-2.1-1.9ZM50.8,280c1,0,1.8-.5,2.2-1.2l2,1.5c-.9,1.2-2.4,2-4.3,2-3.5,0-5.6-2.5-5.6-5.4s2.1-5.4,5.6-5.4,3.3.8,4.3,2l-2,1.5c-.5-.7-1.2-1.2-2.3-1.2-1.7,0-2.9,1.3-2.9,3s1.2,3,2.9,3ZM61.3,271.5c3.3,0,5.5,2.4,5.5,5.4s-2.2,5.4-5.5,5.4-5.5-2.4-5.5-5.4,2.2-5.4,5.5-5.4ZM61.4,280c1.6,0,2.8-1.3,2.8-3s-1.2-3-2.8-3-2.9,1.3-2.9,3,1.2,3,2.9,3ZM69.2,286.9v-15h2.5v.7c.8-.7,1.8-1.1,3.1-1.1,3.2,0,5.1,2.5,5.1,5.4s-1.9,5.4-5.1,5.4-2.3-.4-3.1-1.1v5.6h-2.5ZM71.7,278.5c.7,1,1.6,1.5,2.8,1.5,1.7,0,2.8-1.3,2.8-3s-1.1-3-2.8-3-2.1.5-2.8,1.5h0s0,3.1,0,3.1h0ZM83.6,270.2c-.9,0-1.7-.8-1.7-1.7s.8-1.7,1.7-1.7,1.6.8,1.6,1.7-.7,1.7-1.6,1.7ZM82.3,282v-10.1h2.5v10.1h-2.5ZM97.1,280.4c-.9,1.3-2.5,2-4.4,2-3.6,0-5.6-2.5-5.6-5.4s1.9-5.4,5.2-5.4,4.6,1.9,4.6,4.5,0,1.1-.2,1.4h-7.1c.2,1.7,1.3,2.6,3,2.6s2-.5,2.5-1.2l1.8,1.4ZM92.3,273.6c-1.2,0-2.1.6-2.4,1.9h4.5c0-1-.8-1.9-2.1-1.9ZM107.5,270.3l-2.4-3.3h2.8l2.1,3.3h-2.4ZM107.7,282.4c-2,0-3.4-1.2-3.4-3.1s1.2-2.7,3.4-3.1l3-.5v-.3c0-1.1-.8-1.7-1.9-1.7s-1.8.4-2.3,1.2l-1.9-1.4c.9-1.2,2.4-2,4.2-2,2.9,0,4.4,1.7,4.4,4v6.5h-2.6v-.9c-.6.8-1.8,1.3-3,1.3ZM106.8,279.2c0,.6.5,1.1,1.4,1.1s2-.6,2.5-1.4v-1.4l-2.4.4c-1.1.2-1.5.6-1.5,1.3ZM121.2,282v-15h2.5v15h-2.5ZM128.2,273.8h-2.4l1.8-5.8h2.9l-2.3,5.8ZM133.8,270.2c-.9,0-1.7-.8-1.7-1.7s.8-1.7,1.7-1.7,1.6.8,1.6,1.7-.7,1.7-1.6,1.7ZM132.5,282v-10.1h2.5v10.1h-2.5ZM137.4,277c0-2.9,1.9-5.4,5.1-5.4s2.3.4,3.1,1.1v-5.6h2.6v15h-2.6v-.7c-.8.7-1.8,1.1-3.1,1.1-3.2,0-5.1-2.5-5.1-5.4ZM140,277c0,1.8,1.1,3,2.8,3s2.1-.5,2.8-1.5v-3.1c-.7-1-1.6-1.5-2.8-1.5-1.7,0-2.8,1.3-2.8,3ZM160.5,280.4c-.9,1.3-2.5,2-4.4,2-3.6,0-5.6-2.5-5.6-5.4s1.9-5.4,5.2-5.4,4.6,1.9,4.6,4.5,0,1.1-.2,1.4h-7.1c.2,1.7,1.3,2.6,3,2.6s2-.5,2.5-1.2l1.8,1.4ZM155.7,273.6c-1.2,0-2.1.6-2.4,1.9h4.5c0-1-.8-1.9-2.1-1.9ZM162.8,282v-10.1h2.5v.8c.7-.7,1.6-1.2,3-1.2,2.2,0,3.9,1.5,3.9,4.5v6h-2.6v-5.9c0-1.3-.7-2.2-2-2.2s-2,.9-2.3,1.5v6.6h-2.5ZM175.8,278.3v-4.1h-1.9v-2.3h1.9v-2.5h2.6v2.5h3.1v2.3h-3.1v4.1c0,1.1.6,1.6,1.6,1.6s1.2,0,1.5-.2v2.2c-.5.2-1.1.3-1.9.3-2.5,0-3.7-1.4-3.7-3.9ZM184.9,270.2c-.9,0-1.7-.8-1.7-1.7s.8-1.7,1.7-1.7,1.6.8,1.6,1.7-.7,1.7-1.6,1.7ZM183.7,282v-10.1h2.5v10.1h-2.5ZM188.5,277c0-2.9,1.9-5.4,5.1-5.4s2.3.4,3.1,1.1v-.7h2.6v15h-2.6v-5.6c-.8.7-1.8,1.1-3.1,1.1-3.2,0-5.1-2.5-5.1-5.4ZM191.2,277c0,1.8,1.1,3,2.8,3s2.1-.5,2.8-1.5v-3c-.7-1-1.6-1.5-2.8-1.5-1.7,0-2.8,1.3-2.8,3ZM209,277.6v-5.7h2.6v5.6c0,3-1.8,4.9-4.7,4.9s-4.7-1.9-4.7-4.9v-5.6h2.6v5.7c0,1.5.8,2.4,2.2,2.4s2.1-.9,2.1-2.4ZM223.7,280.4c-.9,1.3-2.5,2-4.4,2-3.6,0-5.6-2.5-5.6-5.4s1.9-5.4,5.2-5.4,4.6,1.9,4.6,4.5,0,1.1-.2,1.4h-7.1c.2,1.7,1.3,2.6,3,2.6s2-.5,2.5-1.2l1.8,1.4ZM218.8,273.6c-1.2,0-2.1.6-2.4,1.9h4.5c0-1-.8-1.9-2.1-1.9Z"/>
      <line class="cls-10" x1="2" y1="201" x2="242" y2="201"/>
      <path class="cls-1" d="M119.9,249.1c1.2,1.2,3.1,1.2,4.2,0l19.1-19.1c1.2-1.2,1.2-3.1,0-4.2-1.2-1.2-3.1-1.2-4.2,0l-17,17-17-17c-1.2-1.2-3.1-1.2-4.2,0-1.2,1.2-1.2,3.1,0,4.2l19.1,19.1ZM119,203v44h6v-44h-6Z"/>
      <g>
        <path d="M319.5,427v-14h4c2.9,0,4.7,1.4,4.7,3.8s-.5,2.1-1.5,2.8c1.5.7,2.3,1.9,2.3,3.3,0,2.6-2,4.1-5.2,4.1h-4.3ZM323.5,415.4h-1.2v3.1h1.2c1.1,0,1.7-.5,1.7-1.5s-.6-1.5-1.7-1.5ZM323.9,420.9h-1.6v3.7h1.6c1.3,0,2.1-.7,2.1-1.9s-.8-1.8-2.1-1.8ZM334.4,427.4c-2,0-3.4-1.2-3.4-3.1s1.2-2.7,3.4-3.1l3-.5v-.3c0-1.1-.8-1.7-1.9-1.7s-1.8.4-2.3,1.2l-1.9-1.4c.9-1.2,2.4-2,4.2-2,2.9,0,4.4,1.7,4.4,4v6.5h-2.6v-.9c-.6.8-1.8,1.3-3,1.3ZM333.5,424.2c0,.6.5,1.1,1.4,1.1s2-.6,2.5-1.4v-1.4l-2.4.4c-1.1.2-1.5.6-1.5,1.3ZM342,425.5l1.7-1.6c.6.8,1.4,1.3,2.3,1.3s1.2-.4,1.2-1c0-1.8-4.7-1-4.7-4.7s1.5-3.1,3.6-3.1,3,.7,3.7,1.7l-1.7,1.5c-.5-.7-1.2-1.2-2-1.2s-1.2.4-1.2.9c0,1.7,4.7,1,4.7,4.6,0,2.1-1.7,3.3-3.6,3.3s-3.1-.7-4-1.9ZM361.3,425.4c-.9,1.3-2.5,2-4.4,2-3.6,0-5.6-2.5-5.6-5.4s1.9-5.4,5.2-5.4,4.6,1.9,4.6,4.5,0,1.1-.2,1.4h-7.1c.2,1.7,1.3,2.6,3,2.6s2-.5,2.5-1.2l1.8,1.4ZM356.4,418.6c-1.2,0-2.1.6-2.4,1.9h4.5c0-1-.8-1.9-2.1-1.9ZM371.8,427.4c-2,0-3.4-1.2-3.4-3.1s1.2-2.7,3.4-3.1l3-.5v-.3c0-1.1-.8-1.7-1.9-1.7s-1.8.4-2.3,1.2l-1.9-1.4c.9-1.2,2.4-2,4.2-2,2.9,0,4.4,1.7,4.4,4v6.5h-2.6v-.9c-.6.8-1.8,1.3-3,1.3ZM371,424.2c0,.6.5,1.1,1.4,1.1s2-.6,2.5-1.4v-1.4l-2.4.4c-1.1.2-1.5.6-1.5,1.3ZM379.6,422c0-2.9,1.9-5.4,5.1-5.4s2.3.4,3.1,1.1v-5.6h2.6v15h-2.6v-.7c-.8.7-1.8,1.1-3.1,1.1-3.2,0-5.1-2.5-5.1-5.4ZM382.2,422c0,1.8,1.1,3,2.8,3s2.1-.5,2.8-1.5v-3.1c-.7-1-1.6-1.5-2.8-1.5-1.7,0-2.8,1.3-2.8,3ZM393.4,427v-10.1h2.5v1c.7-.7,1.5-1.2,2.7-1.2s.6,0,.9.1v2.7c-.3,0-.7-.1-1.1-.1-1.2,0-2,.7-2.4,1.3v6.3h-2.5ZM410.6,425.4c-.9,1.3-2.5,2-4.4,2-3.6,0-5.6-2.5-5.6-5.4s1.9-5.4,5.2-5.4,4.6,1.9,4.6,4.5,0,1.1-.2,1.4h-7.1c.2,1.7,1.3,2.6,3,2.6s2-.5,2.5-1.2l1.8,1.4ZM405.7,418.6c-1.2,0-2.1.6-2.4,1.9h4.5c0-1-.8-1.9-2.1-1.9ZM411.8,425.5l1.7-1.6c.6.8,1.4,1.3,2.3,1.3s1.2-.4,1.2-1c0-1.8-4.7-1-4.7-4.7s1.5-3.1,3.6-3.1,3,.7,3.7,1.7l-1.7,1.5c-.5-.7-1.2-1.2-2-1.2s-1.2.4-1.2.9c0,1.7,4.7,1,4.7,4.6,0,2.1-1.7,3.3-3.6,3.3s-3.1-.7-4-1.9ZM420.8,425.5l1.7-1.6c.6.8,1.4,1.3,2.3,1.3s1.2-.4,1.2-1c0-1.8-4.7-1-4.7-4.7s1.5-3.1,3.6-3.1,3,.7,3.7,1.7l-1.7,1.5c-.5-.7-1.2-1.2-2-1.2s-1.2.4-1.2.9c0,1.7,4.7,1,4.7,4.6,0,2.1-1.7,3.3-3.6,3.3s-3.1-.7-4-1.9ZM440.1,425.4c-.9,1.3-2.5,2-4.4,2-3.6,0-5.6-2.5-5.6-5.4s1.9-5.4,5.2-5.4,4.6,1.9,4.6,4.5,0,1.1-.2,1.4h-7.1c.2,1.7,1.3,2.6,3,2.6s2-.5,2.5-1.2l1.8,1.4ZM435.3,418.6c-1.2,0-2.1.6-2.4,1.9h4.5c0-1-.8-1.9-2.1-1.9ZM447.8,427v-10.1h2.5v.8c.7-.7,1.6-1.2,3-1.2,2.2,0,3.9,1.5,3.9,4.5v6h-2.6v-5.9c0-1.3-.7-2.2-2-2.2s-2,.9-2.3,1.5v6.6h-2.5ZM463,427.4c-2,0-3.4-1.2-3.4-3.1s1.2-2.7,3.4-3.1l3-.5v-.3c0-1.1-.8-1.7-1.9-1.7s-1.8.4-2.3,1.2l-1.9-1.4c.9-1.2,2.4-2,4.2-2,2.9,0,4.4,1.7,4.4,4v6.5h-2.6v-.9c-.6.8-1.8,1.3-3,1.3ZM462.1,424.2c0,.6.5,1.1,1.4,1.1s2-.6,2.5-1.4v-1.4l-2.4.4c-1.1.2-1.5.6-1.5,1.3ZM472.1,423.3v-4.1h-1.9v-2.3h1.9v-2.5h2.6v2.5h3.1v2.3h-3.1v4.1c0,1.1.6,1.6,1.6,1.6s1.2,0,1.5-.2v2.2c-.5.2-1.1.3-1.9.3-2.5,0-3.7-1.4-3.7-3.9ZM481.3,415.2c-.9,0-1.7-.8-1.7-1.7s.8-1.7,1.7-1.7,1.6.8,1.6,1.7-.7,1.7-1.6,1.7ZM480,427v-10.1h2.5v10.1h-2.5ZM490.4,416.5c3.3,0,5.5,2.4,5.5,5.4s-2.2,5.4-5.5,5.4-5.5-2.4-5.5-5.4,2.2-5.4,5.5-5.4ZM490.5,425c1.6,0,2.8-1.3,2.8-3s-1.2-3-2.8-3-2.9,1.3-2.9,3,1.2,3,2.9,3ZM498.2,427v-10.1h2.5v.8c.7-.7,1.6-1.2,3-1.2,2.2,0,3.9,1.5,3.9,4.5v6h-2.6v-5.9c0-1.3-.7-2.2-2-2.2s-2,.9-2.3,1.5v6.6h-2.5ZM513.5,427.4c-2,0-3.4-1.2-3.4-3.1s1.2-2.7,3.4-3.1l3-.5v-.3c0-1.1-.8-1.7-1.9-1.7s-1.8.4-2.3,1.2l-1.9-1.4c.9-1.2,2.4-2,4.2-2,2.9,0,4.4,1.7,4.4,4v6.5h-2.6v-.9c-.6.8-1.8,1.3-3,1.3ZM512.6,424.2c0,.6.5,1.1,1.4,1.1s2-.6,2.5-1.4v-1.4l-2.4.4c-1.1.2-1.5.6-1.5,1.3ZM521.9,427v-15h2.5v15h-2.5ZM536.8,425.4c-.9,1.3-2.5,2-4.4,2-3.6,0-5.6-2.5-5.6-5.4s1.9-5.4,5.2-5.4,4.6,1.9,4.6,4.5,0,1.1-.2,1.4h-7.1c.2,1.7,1.3,2.6,3,2.6s2-.5,2.5-1.2l1.8,1.4ZM532,418.6c-1.2,0-2.1.6-2.4,1.9h4.5c0-1-.8-1.9-2.1-1.9Z"/>
        <path class="cls-3" d="M284.5,407.2v15.6c0,1.7,1.4,3.2,3.2,3.2s3.2-1.4,3.2-3.2v-15.6c0-1.7-1.4-3.2-3.2-3.2s-3.2,1.4-3.2,3.2Z"/>
        <path class="cls-4" d="M272.5,402.1l13.5,7.8c1.5.9,3.4.4,4.3-1.2.9-1.5.4-3.4-1.2-4.3l-13.5-7.8c-1.5-.9-3.4-.4-4.3,1.2-.9,1.5-.4,3.4,1.2,4.3Z"/>
        <path class="cls-2" d="M286,420l-13.5,7.8c-1.5.9-2,2.8-1.2,4.3s2.8,2,4.3,1.2l13.5-7.8c1.5-.9,2-2.8,1.2-4.3-.9-1.5-2.8-2-4.3-1.2Z"/>
        <path class="cls-3" d="M263.8,422.7v-15.6c0-1.7-1.4-3.2-3.2-3.2s-3.2,1.4-3.2,3.2v15.6c0,1.7,1.4,3.2,3.2,3.2s3.2-1.4,3.2-3.2Z"/>
        <path class="cls-2" d="M262.2,409.9l13.5-7.8c1.5-.9,2-2.8,1.2-4.3-.9-1.5-2.8-2-4.3-1.2l-13.5,7.8c-1.5.9-2,2.8-1.2,4.3.9,1.5,2.8,2,4.3,1.2Z"/>
        <path class="cls-4" d="M248.2,426h12.5c1.7-.1,3.1-1.5,3.1-3.3,0-1.7-1.4-3.1-3.2-3.1h-12.5c-1.7.1-3.1,1.5-3.1,3.3,0,1.7,1.4,3.1,3.2,3.1Z"/>
        <path class="cls-3" d="M257.7,392.2c4.5-3.7,10.2-5.9,16.4-5.9s12,2.2,16.4,5.9c1.3,1.1,3.3.9,4.4-.4,1.1-1.3.9-3.3-.4-4.4-5.6-4.6-12.7-7.4-20.5-7.4s-14.9,2.8-20.5,7.4c-1.3,1.1-1.5,3.1-.4,4.4,1.1,1.3,3.1,1.5,4.4.4Z"/>
        <path class="cls-2" d="M251,421.5c-1.6-3.4-2.7-6.6-2.7-9.3,0-8,3.6-15.1,9.4-19.9,1.3-1.1,1.5-3.1.4-4.4-1.1-1.3-3.1-1.5-4.4-.4-7.1,5.9-11.6,14.8-11.6,24.7s1.2,7.7,3.3,12.1c.7,1.6,2.6,2.2,4.2,1.5,1.6-.7,2.2-2.6,1.5-4.2Z"/>
        <path class="cls-4" d="M290.5,392.2c5.7,4.7,9.4,11.9,9.4,19.9s-2.5,9.7-5.8,15.1c-8.3,13.6-22.2,27.4-22.2,27.4-1.2,1.2-1.2,3.2,0,4.5,1.2,1.2,3.2,1.2,4.5,0,0,0,14.5-14.4,23.2-28.6,4-6.5,6.7-13.1,6.7-18.4,0-9.9-4.5-18.8-11.6-24.7-1.3-1.1-3.3-.9-4.4.4-1.1,1.3-.9,3.3.4,4.4Z"/>
        <path class="cls-2" d="M276.3,454.6s-10-9.9-18.1-21.3c-1-1.4-3-1.7-4.4-.7-1.4,1-1.7,3-.7,4.4,8.4,11.8,18.8,22.1,18.8,22.1,1.2,1.2,3.2,1.2,4.5,0,1.2-1.2,1.2-3.2,0-4.5Z"/>
      </g>
    </g>
    <g id="Calque_2">
      <g>
        <g>
          <path class="cls-3" d="M359.8,399.3v15.6c0,1.7,1.4,3.2,3.2,3.2s3.2-1.4,3.2-3.2v-15.6c0-1.7-1.4-3.2-3.2-3.2s-3.2,1.4-3.2,3.2Z"/>
          <path class="cls-4" d="M347.9,394.3l13.5,7.8c1.5.9,3.4.4,4.3-1.2.9-1.5.4-3.4-1.2-4.3l-13.5-7.8c-1.5-.9-3.4-.4-4.3,1.2-.9,1.5-.4,3.4,1.2,4.3Z"/>
          <path class="cls-2" d="M361.4,412.2l-13.5,7.8c-1.5.9-2,2.8-1.2,4.3s2.8,2,4.3,1.2l13.5-7.8c1.5-.9,2-2.8,1.2-4.3-.9-1.5-2.8-2-4.3-1.2Z"/>
          <path class="cls-3" d="M339.1,414.9v-15.6c0-1.7-1.4-3.2-3.2-3.2s-3.2,1.4-3.2,3.2v15.6c0,1.7,1.4,3.2,3.2,3.2s3.2-1.4,3.2-3.2Z"/>
          <path class="cls-2" d="M337.6,402.1l13.5-7.8c1.5-.9,2-2.8,1.2-4.3-.9-1.5-2.8-2-4.3-1.2l-13.5,7.8c-1.5.9-2,2.8-1.2,4.3.9,1.5,2.8,2,4.3,1.2Z"/>
          <path class="cls-4" d="M323.5,418.2h12.5c1.7-.1,3.1-1.5,3.1-3.3,0-1.7-1.4-3.1-3.2-3.1h-12.5c-1.7.1-3.1,1.5-3.1,3.3,0,1.7,1.4,3.1,3.2,3.1Z"/>
          <path class="cls-3" d="M333,384.4c4.5-3.7,10.2-5.9,16.4-5.9s12,2.2,16.4,5.9c1.3,1.1,3.3.9,4.4-.4,1.1-1.3.9-3.3-.4-4.4-5.6-4.6-12.7-7.4-20.5-7.4s-14.9,2.8-20.5,7.4c-1.3,1.1-1.5,3.1-.4,4.4,1.1,1.3,3.1,1.5,4.4.4Z"/>
          <path class="cls-2" d="M326.3,413.6c-1.6-3.4-2.7-6.6-2.7-9.3,0-8,3.6-15.1,9.4-19.9,1.3-1.1,1.5-3.1.4-4.4-1.1-1.3-3.1-1.5-4.4-.4-7.1,5.9-11.6,14.8-11.6,24.7s1.2,7.7,3.3,12.1c.7,1.6,2.6,2.2,4.2,1.5,1.6-.7,2.2-2.6,1.5-4.2Z"/>
          <path class="cls-4" d="M365.9,384.4c5.7,4.7,9.4,11.9,9.4,19.9s-2.5,9.7-5.8,15.1c-8.3,13.6-22.2,27.4-22.2,27.4-1.2,1.2-1.2,3.2,0,4.5,1.2,1.2,3.2,1.2,4.5,0,0,0,14.5-14.4,23.2-28.6,4-6.5,6.7-13.1,6.7-18.4,0-9.9-4.5-18.8-11.6-24.7-1.3-1.1-3.3-.9-4.4.4-1.1,1.3-.9,3.3.4,4.4Z"/>
          <path class="cls-2" d="M351.7,446.8s-10-9.9-18.1-21.3c-1-1.4-3-1.7-4.4-.7-1.4,1-1.7,3-.7,4.4,8.4,11.8,18.8,22.1,18.8,22.1,1.2,1.2,3.2,1.2,4.5,0,1.2-1.2,1.2-3.2,0-4.5Z"/>
        </g>
        <g>
          <path d="M393.4,378.7h4.3c3.1,0,4.9,1.5,4.9,4s-.5,2.2-1.6,2.9c1.6.7,2.4,2,2.4,3.5,0,2.7-2.1,4.3-5.5,4.3h-4.6v-14.7ZM396.4,381.1v3.3h1.4c1.1,0,1.8-.6,1.8-1.7s-.7-1.6-1.8-1.6h-1.4ZM396.4,386.9v3.9h1.8c1.4,0,2.2-.7,2.2-2s-.8-2-2.2-2h-1.8Z"/>
          <path d="M405.6,390.5c0-1.6,1.2-2.8,3.5-3.2l3.2-.5v-.3c0-1.1-.8-1.8-2.1-1.8s-1.8.5-2.4,1.3l-2-1.5c.9-1.3,2.5-2.1,4.4-2.1,3.1,0,4.6,1.8,4.6,4.2v6.8h-2.7v-1c-.7.8-1.9,1.3-3.2,1.3-2.1,0-3.6-1.2-3.6-3.2ZM409.7,391.6c1.2,0,2.1-.6,2.6-1.4v-1.5l-2.5.4c-1.1.2-1.6.7-1.6,1.3s.6,1.2,1.5,1.2Z"/>
          <path d="M418.9,390.2c.7.8,1.4,1.4,2.4,1.4s1.3-.5,1.3-1.1c0-1.8-5.1-1.2-5.1-4.9s1.6-3.3,3.8-3.3,3.1.8,3.8,1.8l-1.8,1.6c-.5-.7-1.2-1.2-2.1-1.2s-1.2.5-1.2,1c0,1.8,5.1,1.2,5.1,4.8,0,2.2-1.8,3.4-3.8,3.4s-3.2-.8-4.2-2l1.8-1.6Z"/>
          <path d="M432.7,393.8c-3.8,0-5.9-2.6-5.9-5.7s2-5.7,5.4-5.7,4.9,2,4.9,4.8,0,1.1-.2,1.5h-7.4c.3,2,1.5,2.8,3.1,2.8s2.2-.5,2.7-1.3l1.9,1.5c-1,1.3-2.6,2.1-4.6,2.1ZM429.7,386.7h4.9c0-1.1-.8-2.1-2.3-2.1s-2.3.8-2.6,2.1Z"/>
          <path d="M397.5,403.9h3.9l5.6,14.7h-3.2l-1.4-3.8h-5.9l-1.4,3.8h-3.2l5.6-14.7ZM401.5,412.2l-2-5.5-2,5.5h4Z"/>
          <path d="M413.7,407.6c1.4,0,2.5.4,3.3,1.3v-6h2.7v15.7h-2.7v-.8c-.8.8-1.8,1.3-3.3,1.3-3.3,0-5.4-2.6-5.4-5.7s2-5.7,5.4-5.7ZM414.1,416.5c1.2,0,2.2-.5,2.9-1.5v-3.4c-.7-1-1.7-1.5-2.9-1.5-1.8,0-3,1.3-3,3.2s1.2,3.2,3,3.2Z"/>
          <path d="M422.9,408h2.7v1c.7-.7,1.6-1.3,2.8-1.3s.7,0,.9.1v2.6c-.3,0-.7-.1-1.2-.1-1.3,0-2.1.7-2.5,1.4v6.8h-2.7v-10.6Z"/>
          <path d="M436.1,419c-3.8,0-5.9-2.6-5.9-5.7s2-5.7,5.4-5.7,4.9,2,4.9,4.8,0,1.1-.2,1.5h-7.4c.3,2,1.5,2.8,3.1,2.8s2.2-.5,2.7-1.3l1.9,1.5c-1,1.3-2.6,2.1-4.6,2.1ZM433,411.9h4.9c0-1.1-.8-2.1-2.3-2.1s-2.3.8-2.6,2.1Z"/>
          <path d="M443.8,415.4c.7.8,1.4,1.4,2.4,1.4s1.3-.5,1.3-1.1c0-1.8-5.1-1.2-5.1-4.9s1.6-3.3,3.8-3.3,3.1.8,3.8,1.8l-1.8,1.6c-.5-.7-1.2-1.2-2.1-1.2s-1.2.5-1.2,1c0,1.8,5.1,1.2,5.1,4.8,0,2.2-1.8,3.4-3.8,3.4s-3.2-.8-4.2-2l1.8-1.6Z"/>
          <path d="M453.3,415.4c.7.8,1.4,1.4,2.4,1.4s1.3-.5,1.3-1.1c0-1.8-5.1-1.2-5.1-4.9s1.6-3.3,3.8-3.3,3.1.8,3.8,1.8l-1.8,1.6c-.5-.7-1.2-1.2-2.1-1.2s-1.2.5-1.2,1c0,1.8,5.1,1.2,5.1,4.8,0,2.2-1.8,3.4-3.8,3.4s-3.2-.8-4.2-2l1.8-1.6Z"/>
          <path d="M467.1,419c-3.8,0-5.9-2.6-5.9-5.7s2-5.7,5.4-5.7,4.9,2,4.9,4.8,0,1.1-.2,1.5h-7.4c.3,2,1.5,2.8,3.1,2.8s2.2-.5,2.7-1.3l1.9,1.5c-1,1.3-2.6,2.1-4.6,2.1ZM464.1,411.9h4.9c0-1.1-.8-2.1-2.3-2.1s-2.3.8-2.6,2.1Z"/>
          <path d="M393.4,429.1h3.8l6.6,10.6v-10.6h3v14.7h-3.8l-6.6-10.6v10.6h-3v-14.7Z"/>
          <path d="M409.8,440.9c0-1.6,1.2-2.8,3.5-3.2l3.2-.5v-.3c0-1.1-.8-1.8-2.1-1.8s-1.8.5-2.4,1.3l-2-1.5c.9-1.3,2.5-2.1,4.4-2.1,3.1,0,4.6,1.8,4.6,4.2v6.8h-2.7v-1c-.7.8-1.9,1.3-3.2,1.3-2.1,0-3.6-1.2-3.6-3.2ZM413.9,442c1.2,0,2.1-.6,2.6-1.4v-1.5l-2.5.4c-1.1.2-1.6.7-1.6,1.3s.6,1.2,1.5,1.2Z"/>
          <path d="M422.9,435.6h-2v-2.4h2v-2.6h2.7v2.6h3.2v2.4h-3.2v4.3c0,1.2.6,1.6,1.7,1.6s1.2,0,1.6-.2v2.3c-.5.2-1.2.3-2,.3-2.6,0-3.9-1.5-3.9-4.1v-4.3Z"/>
          <path d="M430.8,429.6c0-.9.8-1.7,1.7-1.7s1.7.8,1.7,1.7-.8,1.7-1.7,1.7-1.7-.8-1.7-1.7ZM431.2,433.2h2.7v10.6h-2.7v-10.6Z"/>
          <path d="M447.9,438.5c0,3.2-2.4,5.7-5.8,5.7s-5.8-2.5-5.8-5.7,2.4-5.7,5.8-5.7,5.8,2.5,5.8,5.7ZM445.2,438.5c0-1.8-1.3-3.2-3-3.2s-3.1,1.3-3.1,3.2,1.3,3.2,3.1,3.2,3-1.4,3-3.2Z"/>
          <path d="M450.4,433.2h2.7v.8c.7-.7,1.7-1.3,3.1-1.3,2.3,0,4.1,1.6,4.1,4.7v6.3h-2.7v-6.2c0-1.4-.8-2.3-2.1-2.3s-2.1.9-2.5,1.6v6.9h-2.7v-10.6Z"/>
          <path d="M462.7,440.9c0-1.6,1.2-2.8,3.5-3.2l3.2-.5v-.3c0-1.1-.8-1.8-2.1-1.8s-1.8.5-2.4,1.3l-2-1.5c.9-1.3,2.5-2.1,4.4-2.1,3.1,0,4.6,1.8,4.6,4.2v6.8h-2.7v-1c-.7.8-1.9,1.3-3.2,1.3-2.1,0-3.6-1.2-3.6-3.2ZM466.8,442c1.2,0,2.1-.6,2.6-1.4v-1.5l-2.5.4c-1.1.2-1.6.7-1.6,1.3s.6,1.2,1.5,1.2Z"/>
          <path d="M475.2,428h2.7v15.7h-2.7v-15.7Z"/>
          <path d="M486.1,444.2c-3.8,0-5.9-2.6-5.9-5.7s2-5.7,5.4-5.7,4.9,2,4.9,4.8,0,1.1-.2,1.5h-7.4c.3,2,1.5,2.8,3.1,2.8s2.2-.5,2.7-1.3l1.9,1.5c-1,1.3-2.6,2.1-4.6,2.1ZM483.1,437.1h4.9c0-1.1-.8-2.1-2.3-2.1s-2.3.8-2.6,2.1Z"/>
        </g>
      </g>
      <path class="cls-11" d="M319.5,427v-14h4c2.9,0,4.7,1.4,4.7,3.8s-.5,2.1-1.5,2.8c1.5.7,2.3,1.9,2.3,3.3,0,2.6-2,4.1-5.2,4.1h-4.3ZM323.5,415.4h-1.2v3.1h1.2c1.1,0,1.7-.5,1.7-1.5s-.6-1.5-1.7-1.5ZM323.9,420.9h-1.6v3.7h1.6c1.3,0,2.1-.7,2.1-1.9s-.8-1.8-2.1-1.8ZM334.4,427.4c-2,0-3.4-1.2-3.4-3.1s1.2-2.7,3.4-3.1l3-.5v-.3c0-1.1-.8-1.7-1.9-1.7s-1.8.4-2.3,1.2l-1.9-1.4c.9-1.2,2.4-2,4.2-2,2.9,0,4.4,1.7,4.4,4v6.5h-2.6v-.9c-.6.8-1.8,1.3-3,1.3ZM333.5,424.2c0,.6.5,1.1,1.4,1.1s2-.6,2.5-1.4v-1.4l-2.4.4c-1.1.2-1.5.6-1.5,1.3ZM342,425.5l1.7-1.6c.6.8,1.4,1.3,2.3,1.3s1.2-.4,1.2-1c0-1.8-4.7-1-4.7-4.7s1.5-3.1,3.6-3.1,3,.7,3.7,1.7l-1.7,1.5c-.5-.7-1.2-1.2-2-1.2s-1.2.4-1.2.9c0,1.7,4.7,1,4.7,4.6,0,2.1-1.7,3.3-3.6,3.3s-3.1-.7-4-1.9ZM361.3,425.4c-.9,1.3-2.5,2-4.4,2-3.6,0-5.6-2.5-5.6-5.4s1.9-5.4,5.2-5.4,4.6,1.9,4.6,4.5,0,1.1-.2,1.4h-7.1c.2,1.7,1.3,2.6,3,2.6s2-.5,2.5-1.2l1.8,1.4ZM356.4,418.6c-1.2,0-2.1.6-2.4,1.9h4.5c0-1-.8-1.9-2.1-1.9ZM371.8,427.4c-2,0-3.4-1.2-3.4-3.1s1.2-2.7,3.4-3.1l3-.5v-.3c0-1.1-.8-1.7-1.9-1.7s-1.8.4-2.3,1.2l-1.9-1.4c.9-1.2,2.4-2,4.2-2,2.9,0,4.4,1.7,4.4,4v6.5h-2.6v-.9c-.6.8-1.8,1.3-3,1.3ZM371,424.2c0,.6.5,1.1,1.4,1.1s2-.6,2.5-1.4v-1.4l-2.4.4c-1.1.2-1.5.6-1.5,1.3ZM379.6,422c0-2.9,1.9-5.4,5.1-5.4s2.3.4,3.1,1.1v-5.6h2.6v15h-2.6v-.7c-.8.7-1.8,1.1-3.1,1.1-3.2,0-5.1-2.5-5.1-5.4ZM382.2,422c0,1.8,1.1,3,2.8,3s2.1-.5,2.8-1.5v-3.1c-.7-1-1.6-1.5-2.8-1.5-1.7,0-2.8,1.3-2.8,3ZM393.4,427v-10.1h2.5v1c.7-.7,1.5-1.2,2.7-1.2s.6,0,.9.1v2.7c-.3,0-.7-.1-1.1-.1-1.2,0-2,.7-2.4,1.3v6.3h-2.5ZM410.6,425.4c-.9,1.3-2.5,2-4.4,2-3.6,0-5.6-2.5-5.6-5.4s1.9-5.4,5.2-5.4,4.6,1.9,4.6,4.5,0,1.1-.2,1.4h-7.1c.2,1.7,1.3,2.6,3,2.6s2-.5,2.5-1.2l1.8,1.4ZM405.7,418.6c-1.2,0-2.1.6-2.4,1.9h4.5c0-1-.8-1.9-2.1-1.9ZM411.8,425.5l1.7-1.6c.6.8,1.4,1.3,2.3,1.3s1.2-.4,1.2-1c0-1.8-4.7-1-4.7-4.7s1.5-3.1,3.6-3.1,3,.7,3.7,1.7l-1.7,1.5c-.5-.7-1.2-1.2-2-1.2s-1.2.4-1.2.9c0,1.7,4.7,1,4.7,4.6,0,2.1-1.7,3.3-3.6,3.3s-3.1-.7-4-1.9ZM420.8,425.5l1.7-1.6c.6.8,1.4,1.3,2.3,1.3s1.2-.4,1.2-1c0-1.8-4.7-1-4.7-4.7s1.5-3.1,3.6-3.1,3,.7,3.7,1.7l-1.7,1.5c-.5-.7-1.2-1.2-2-1.2s-1.2.4-1.2.9c0,1.7,4.7,1,4.7,4.6,0,2.1-1.7,3.3-3.6,3.3s-3.1-.7-4-1.9ZM440.1,425.4c-.9,1.3-2.5,2-4.4,2-3.6,0-5.6-2.5-5.6-5.4s1.9-5.4,5.2-5.4,4.6,1.9,4.6,4.5,0,1.1-.2,1.4h-7.1c.2,1.7,1.3,2.6,3,2.6s2-.5,2.5-1.2l1.8,1.4ZM435.3,418.6c-1.2,0-2.1.6-2.4,1.9h4.5c0-1-.8-1.9-2.1-1.9ZM447.8,427v-10.1h2.5v.8c.7-.7,1.6-1.2,3-1.2,2.2,0,3.9,1.5,3.9,4.5v6h-2.6v-5.9c0-1.3-.7-2.2-2-2.2s-2,.9-2.3,1.5v6.6h-2.5ZM463,427.4c-2,0-3.4-1.2-3.4-3.1s1.2-2.7,3.4-3.1l3-.5v-.3c0-1.1-.8-1.7-1.9-1.7s-1.8.4-2.3,1.2l-1.9-1.4c.9-1.2,2.4-2,4.2-2,2.9,0,4.4,1.7,4.4,4v6.5h-2.6v-.9c-.6.8-1.8,1.3-3,1.3ZM462.1,424.2c0,.6.5,1.1,1.4,1.1s2-.6,2.5-1.4v-1.4l-2.4.4c-1.1.2-1.5.6-1.5,1.3ZM472.1,423.3v-4.1h-1.9v-2.3h1.9v-2.5h2.6v2.5h3.1v2.3h-3.1v4.1c0,1.1.6,1.6,1.6,1.6s1.2,0,1.5-.2v2.2c-.5.2-1.1.3-1.9.3-2.5,0-3.7-1.4-3.7-3.9ZM481.3,415.2c-.9,0-1.7-.8-1.7-1.7s.8-1.7,1.7-1.7,1.6.8,1.6,1.7-.7,1.7-1.6,1.7ZM480,427v-10.1h2.5v10.1h-2.5ZM490.4,416.5c3.3,0,5.5,2.4,5.5,5.4s-2.2,5.4-5.5,5.4-5.5-2.4-5.5-5.4,2.2-5.4,5.5-5.4ZM490.5,425c1.6,0,2.8-1.3,2.8-3s-1.2-3-2.8-3-2.9,1.3-2.9,3,1.2,3,2.9,3ZM498.2,427v-10.1h2.5v.8c.7-.7,1.6-1.2,3-1.2,2.2,0,3.9,1.5,3.9,4.5v6h-2.6v-5.9c0-1.3-.7-2.2-2-2.2s-2,.9-2.3,1.5v6.6h-2.5ZM513.5,427.4c-2,0-3.4-1.2-3.4-3.1s1.2-2.7,3.4-3.1l3-.5v-.3c0-1.1-.8-1.7-1.9-1.7s-1.8.4-2.3,1.2l-1.9-1.4c.9-1.2,2.4-2,4.2-2,2.9,0,4.4,1.7,4.4,4v6.5h-2.6v-.9c-.6.8-1.8,1.3-3,1.3ZM512.6,424.2c0,.6.5,1.1,1.4,1.1s2-.6,2.5-1.4v-1.4l-2.4.4c-1.1.2-1.5.6-1.5,1.3ZM521.9,427v-15h2.5v15h-2.5ZM536.8,425.4c-.9,1.3-2.5,2-4.4,2-3.6,0-5.6-2.5-5.6-5.4s1.9-5.4,5.2-5.4,4.6,1.9,4.6,4.5,0,1.1-.2,1.4h-7.1c.2,1.7,1.3,2.6,3,2.6s2-.5,2.5-1.2l1.8,1.4ZM532,418.6c-1.2,0-2.1.6-2.4,1.9h4.5c0-1-.8-1.9-2.1-1.9Z"/>
      <path class="cls-1" d="M401.9,364.1c1.2,1.2,3.1,1.2,4.2,0l19.1-19.1c1.2-1.2,1.2-3.1,0-4.2-1.2-1.2-3.1-1.2-4.2,0l-17,17-17-17c-1.2-1.2-3.1-1.2-4.2,0-1.2,1.2-1.2,3.1,0,4.2l19.1,19.1ZM401,318v44h6v-44h-6Z"/>
      <line class="cls-10" x1="75" y1="318" x2="733" y2="318"/>
      <g>
        <path d="M481.1,264.4h3.2l5.7,14.7h-2.6l-1.6-4.1h-6.4l-1.6,4.1h-2.6l5.7-14.7ZM485.1,273l-2.4-6.3-2.4,6.3h4.8Z"/>
        <path d="M492.7,268.5h2.2v1.1c.9-1,2-1.5,3.6-1.5,3.3,0,5.4,2.6,5.4,5.7s-2.1,5.7-5.4,5.7-2.7-.5-3.6-1.5v6.3h-2.2v-15.7ZM494.9,272v3.7c.8,1.2,1.9,1.8,3.3,1.8,2,0,3.4-1.6,3.4-3.7s-1.4-3.7-3.4-3.7-2.5.7-3.3,1.8Z"/>
        <path d="M506.5,268.5h2.2v1.1c.9-1,2-1.5,3.6-1.5,3.3,0,5.4,2.6,5.4,5.7s-2.1,5.7-5.4,5.7-2.7-.5-3.6-1.5v6.3h-2.2v-15.7ZM508.7,272v3.7c.8,1.2,1.9,1.8,3.3,1.8,2,0,3.4-1.6,3.4-3.7s-1.4-3.7-3.4-3.7-2.5.7-3.3,1.8Z"/>
        <path d="M519.5,276.4c0-1.6,1.2-2.8,3.5-3.1l3.4-.6v-.5c0-1.3-1-2.1-2.3-2.1s-2.1.5-2.7,1.4l-1.6-1.2c.9-1.3,2.5-2.1,4.3-2.1,2.9,0,4.4,1.7,4.4,4v7h-2.2v-1.2c-.8.9-2.1,1.5-3.4,1.5-2.1,0-3.5-1.2-3.5-3.1ZM523.4,277.7c1.3,0,2.4-.6,3-1.6v-1.8l-2.9.5c-1.3.2-1.9.8-1.9,1.6s.7,1.4,1.7,1.4Z"/>
        <path d="M532,268.5h2.2v1.2c.7-.8,1.7-1.4,3-1.4s.7,0,.9.1v2.1c-.3,0-.7-.1-1.1-.1-1.3,0-2.2.7-2.8,1.6v7.1h-2.2v-10.6Z"/>
        <path d="M540,264.7c0-.8.7-1.5,1.5-1.5s1.5.7,1.5,1.5-.7,1.5-1.5,1.5-1.5-.7-1.5-1.5ZM540.4,268.5h2.2v10.6h-2.2v-10.6Z"/>
        <path d="M551,279.5c-3.7,0-5.8-2.6-5.8-5.7s2-5.7,5.4-5.7,4.8,2,4.8,4.7,0,1-.1,1.3h-7.8c.1,2.3,1.6,3.5,3.6,3.5s2.4-.6,3-1.4l1.6,1.3c-1,1.3-2.6,2.1-4.6,2.1ZM547.6,272.5h5.7c0-1.3-1-2.5-2.7-2.5s-2.7.9-3,2.5Z"/>
        <path d="M558.2,268.5h2.2v1c.8-.8,1.7-1.4,3.2-1.4s2.7.7,3.3,1.9c.8-1,1.9-1.9,3.7-1.9s3.9,1.5,3.9,4.4v6.6h-2.2v-6.5c0-1.6-.9-2.5-2.2-2.5s-2.1.8-2.6,1.8c0,.2,0,.4,0,.6v6.6h-2.2v-6.5c0-1.6-.8-2.5-2.2-2.5s-2.1.9-2.6,1.8v7.1h-2.2v-10.6Z"/>
        <path d="M582.8,279.5c-3.7,0-5.8-2.6-5.8-5.7s2-5.7,5.4-5.7,4.8,2,4.8,4.7,0,1-.1,1.3h-7.8c.1,2.3,1.6,3.5,3.6,3.5s2.4-.6,3-1.4l1.6,1.3c-1,1.3-2.6,2.1-4.6,2.1ZM579.3,272.5h5.7c0-1.3-1-2.5-2.7-2.5s-2.7.9-3,2.5Z"/>
        <path d="M590,268.5h2.2v1c.8-.8,1.8-1.4,3.4-1.4,2.3,0,4.1,1.6,4.1,4.6v6.4h-2.2v-6.3c0-1.7-.9-2.7-2.4-2.7s-2.3.9-2.9,1.8v7.1h-2.2v-10.6Z"/>
        <path d="M603.7,270.5h-2v-2h2v-2.6h2.2v2.6h3.5v2h-3.5v5c0,1.4.8,1.9,1.9,1.9s1.2,0,1.6-.2v1.9c-.5.2-1.1.3-1.9.3-2.5,0-3.8-1.3-3.8-3.9v-5Z"/>
        <path d="M622.6,279.5c-3.7,0-5.8-2.6-5.8-5.7s2-5.7,5.4-5.7,4.8,2,4.8,4.7,0,1-.1,1.3h-7.8c.1,2.3,1.6,3.5,3.6,3.5s2.4-.6,3-1.4l1.6,1.3c-1,1.3-2.6,2.1-4.6,2.1ZM619.1,272.5h5.7c0-1.3-1-2.5-2.7-2.5s-2.7.9-3,2.5Z"/>
        <path d="M630.4,270.5h-2v-2h2v-2.6h2.2v2.6h3.5v2h-3.5v5c0,1.4.8,1.9,1.9,1.9s1.2,0,1.6-.2v1.9c-.5.2-1.1.3-1.9.3-2.5,0-3.8-1.3-3.8-3.9v-5Z"/>
        <path d="M644.8,276.3c.7.9,1.5,1.4,2.6,1.4s1.6-.6,1.6-1.4c0-2.1-5.2-1.4-5.2-5.1s1.5-3.1,3.6-3.1,2.9.8,3.7,1.8l-1.5,1.3c-.6-.8-1.3-1.3-2.2-1.3s-1.5.6-1.5,1.3c0,2.1,5.2,1.4,5.2,5,0,2.1-1.7,3.3-3.7,3.3s-3.1-.7-4.1-1.9l1.5-1.3Z"/>
        <path d="M658.6,279.5c-3.7,0-5.8-2.6-5.8-5.7s2-5.7,5.4-5.7,4.8,2,4.8,4.7,0,1-.1,1.3h-7.8c.1,2.3,1.6,3.5,3.6,3.5s2.4-.6,3-1.4l1.6,1.3c-1,1.3-2.6,2.1-4.6,2.1ZM655.2,272.5h5.7c0-1.3-1-2.5-2.7-2.5s-2.7.9-3,2.5ZM657.3,266.9l2.2-3.5h2.4l-2.5,3.5h-2.1Z"/>
        <path d="M665.8,263.4h2.2v15.7h-2.2v-15.7Z"/>
        <path d="M676.5,279.5c-3.7,0-5.8-2.6-5.8-5.7s2-5.7,5.4-5.7,4.8,2,4.8,4.7,0,1-.1,1.3h-7.8c.1,2.3,1.6,3.5,3.6,3.5s2.4-.6,3-1.4l1.6,1.3c-1,1.3-2.6,2.1-4.6,2.1ZM673,272.5h5.7c0-1.3-1-2.5-2.7-2.5s-2.7.9-3,2.5Z"/>
        <path d="M691.4,276.1l1.7,1.3c-1,1.3-2.5,2.1-4.5,2.1-3.5,0-5.8-2.6-5.8-5.7s2.2-5.7,5.8-5.7,3.5.8,4.5,2.1l-1.7,1.3c-.6-.8-1.6-1.4-2.8-1.4-2,0-3.5,1.6-3.5,3.7s1.5,3.7,3.5,3.7,2.2-.6,2.8-1.4Z"/>
        <path d="M696,270.5h-2v-2h2v-2.6h2.2v2.6h3.5v2h-3.5v5c0,1.4.8,1.9,1.9,1.9s1.2,0,1.6-.2v1.9c-.5.2-1.1.3-1.9.3-2.5,0-3.8-1.3-3.8-3.9v-5Z"/>
        <path d="M703.9,264.7c0-.8.7-1.5,1.5-1.5s1.5.7,1.5,1.5-.7,1.5-1.5,1.5-1.5-.7-1.5-1.5ZM704.3,268.5h2.2v10.6h-2.2v-10.6Z"/>
        <path d="M720.6,273.8c0,3.1-2.3,5.7-5.8,5.7s-5.8-2.6-5.8-5.7,2.3-5.7,5.8-5.7,5.8,2.6,5.8,5.7ZM718.3,273.8c0-2.1-1.5-3.7-3.5-3.7s-3.5,1.6-3.5,3.7,1.5,3.7,3.5,3.7,3.5-1.7,3.5-3.7Z"/>
        <path d="M723.3,268.5h2.2v1c.8-.8,1.8-1.4,3.4-1.4,2.3,0,4.1,1.6,4.1,4.6v6.4h-2.2v-6.3c0-1.7-.9-2.7-2.4-2.7s-2.3.9-2.9,1.8v7.1h-2.2v-10.6Z"/>
      </g>
      <path class="cls-1" d="M602.6,249.1c1.2,1.2,3.1,1.2,4.2,0l19.1-19.1c1.2-1.2,1.2-3.1,0-4.2-1.2-1.2-3.1-1.2-4.2,0l-17,17-17-17c-1.2-1.2-3.1-1.2-4.2,0-1.2,1.2-1.2,3.1,0,4.2l19.1,19.1ZM601.7,203v44h6v-44h-6Z"/>
      <line class="cls-10" x1="406.7" y1="203" x2="802.7" y2="203"/>
      <g>
        <g>
          <path class="cls-6" d="M422.1,4h61.6c8.9,0,16,7.2,16,16v147.5c0,8.5-6.9,15.4-15.4,15.4h-62.3c-8.5,0-15.4-6.9-15.4-15.4V19.3c0-8.5,6.9-15.4,15.4-15.4Z"/>
          <g>
            <path d="M434.8,85h2.4v14.7h-2.4v-14.7Z"/>
            <path d="M452.4,96.2v-3h-4.1v-2.1h6.5v5.9c-1.4,1.8-3.7,3-6.4,3-4.7,0-8-3.6-8-7.8s3.1-7.8,7.7-7.8,4.8,1.2,6.2,3l-1.9,1.5c-.9-1.3-2.4-2.2-4.3-2.2-3.1,0-5.3,2.4-5.3,5.5s2.3,5.5,5.5,5.5,3-.6,4-1.6Z"/>
            <path d="M458.6,85h3.1l7.6,11.6v-11.6h2.4v14.7h-3.1l-7.6-11.6v11.6h-2.4v-14.7Z"/>
          </g>
        </g>
        <g>
          <path class="cls-6" d="M523.1,4h61.6c8.9,0,16,7.2,16,16v147.5c0,8.5-6.9,15.4-15.4,15.4h-62.3c-8.5,0-15.4-6.9-15.4-15.4V19.3c0-8.5,6.9-15.4,15.4-15.4Z"/>
          <g>
            <path d="M526.6,83.6v-3h-4.1v-2.1h6.5v5.9c-1.4,1.8-3.7,3-6.4,3-4.7,0-8-3.6-8-7.8s3.1-7.8,7.7-7.8,4.8,1.2,6.2,3l-1.9,1.5c-.9-1.3-2.4-2.2-4.3-2.2-3.1,0-5.3,2.4-5.3,5.5s2.3,5.5,5.5,5.5,3-.6,4-1.6Z"/>
            <path d="M539.6,76.5h2.2v5.9c0,3.2-1.8,5.1-4.8,5.1s-4.8-1.9-4.8-5.1v-5.9h2.2v6c0,1.8,1,2.9,2.6,2.9s2.6-1.1,2.6-2.9v-6Z"/>
            <path d="M544.7,72.7c0-.8.7-1.5,1.5-1.5s1.5.7,1.5,1.5-.7,1.5-1.5,1.5-1.5-.7-1.5-1.5ZM545.1,76.5h2.2v10.6h-2.2v-10.6Z"/>
            <path d="M558.5,84l1.7,1.3c-1,1.3-2.5,2.1-4.5,2.1-3.5,0-5.8-2.6-5.8-5.7s2.2-5.7,5.8-5.7,3.5.8,4.5,2.1l-1.7,1.3c-.6-.8-1.6-1.4-2.8-1.4-2,0-3.5,1.6-3.5,3.7s1.5,3.7,3.5,3.7,2.2-.6,2.8-1.4Z"/>
            <path d="M562.5,71.3h2.2v6.2c.8-.8,1.8-1.4,3.4-1.4,2.4,0,4.1,1.6,4.1,4.6v6.4h-2.2v-6.3c0-1.7-.9-2.7-2.4-2.7s-2.3.9-2.9,1.8v7.1h-2.2v-15.7Z"/>
            <path d="M580.5,87.5c-3.7,0-5.8-2.6-5.8-5.7s2-5.7,5.4-5.7,4.8,2,4.8,4.7,0,1-.1,1.3h-7.8c.1,2.3,1.6,3.5,3.6,3.5s2.4-.6,3-1.4l1.6,1.3c-1,1.3-2.6,2.1-4.6,2.1ZM577,80.4h5.7c0-1.3-1-2.5-2.7-2.5s-2.7.9-3,2.5Z"/>
            <path d="M588.2,78.4h-2v-2h2v-2.6h2.2v2.6h3.5v2h-3.5v5c0,1.4.8,1.9,1.9,1.9s1.2,0,1.6-.2v1.9c-.5.2-1.1.3-1.9.3-2.5,0-3.8-1.3-3.8-3.9v-5Z"/>
            <path d="M520.3,97.6h3.2l5.7,14.7h-2.6l-1.6-4.1h-6.4l-1.6,4.1h-2.6l5.7-14.7ZM524.3,106.1l-2.4-6.3-2.4,6.3h4.8Z"/>
            <path d="M536.1,101.3c1.5,0,2.6.5,3.5,1.5v-6.2h2.2v15.7h-2.2v-1.1c-.9.9-2,1.5-3.5,1.5-3.3,0-5.4-2.6-5.4-5.7s2.1-5.7,5.4-5.7ZM536.4,110.6c1.4,0,2.5-.7,3.3-1.8v-3.8c-.8-1.2-1.9-1.8-3.3-1.8-2,0-3.4,1.6-3.4,3.7s1.4,3.7,3.4,3.7Z"/>
            <path d="M545.3,101.7h2.2v1.2c.7-.8,1.7-1.4,3-1.4s.7,0,.9.1v2.1c-.3,0-.7-.1-1.1-.1-1.3,0-2.2.7-2.8,1.6v7.1h-2.2v-10.6Z"/>
            <path d="M558.2,112.7c-3.7,0-5.8-2.6-5.8-5.7s2-5.7,5.4-5.7,4.8,2,4.8,4.7,0,1-.1,1.3h-7.8c.1,2.3,1.6,3.5,3.6,3.5s2.4-.6,3-1.4l1.6,1.3c-1,1.3-2.6,2.1-4.6,2.1ZM554.7,105.6h5.7c0-1.3-1-2.5-2.7-2.5s-2.7.9-3,2.5Z"/>
            <path d="M565.7,109.5c.7.9,1.5,1.4,2.6,1.4s1.6-.6,1.6-1.4c0-2.1-5.2-1.4-5.2-5.1s1.5-3.1,3.6-3.1,2.9.8,3.7,1.8l-1.5,1.3c-.6-.8-1.3-1.3-2.2-1.3s-1.5.6-1.5,1.3c0,2.1,5.2,1.4,5.2,5,0,2.1-1.7,3.3-3.7,3.3s-3.1-.7-4.1-1.9l1.5-1.3Z"/>
            <path d="M575,109.5c.7.9,1.5,1.4,2.6,1.4s1.6-.6,1.6-1.4c0-2.1-5.2-1.4-5.2-5.1s1.5-3.1,3.6-3.1,2.9.8,3.7,1.8l-1.5,1.3c-.6-.8-1.3-1.3-2.2-1.3s-1.5.6-1.5,1.3c0,2.1,5.2,1.4,5.2,5,0,2.1-1.7,3.3-3.7,3.3s-3.1-.7-4.1-1.9l1.5-1.3Z"/>
            <path d="M588.9,112.7c-3.7,0-5.8-2.6-5.8-5.7s2-5.7,5.4-5.7,4.8,2,4.8,4.7,0,1-.1,1.3h-7.8c.1,2.3,1.6,3.5,3.6,3.5s2.4-.6,3-1.4l1.6,1.3c-1,1.3-2.6,2.1-4.6,2.1ZM585.4,105.6h5.7c0-1.3-1-2.5-2.7-2.5s-2.7.9-3,2.5Z"/>
          </g>
        </g>
        <g>
          <path class="cls-6" d="M624.1,4h61.6c8.9,0,16,7.2,16,16v147.5c0,8.5-6.9,15.4-15.4,15.4h-62.3c-8.5,0-15.4-6.9-15.4-15.4V19.3c0-8.5,6.9-15.4,15.4-15.4Z"/>
          <g>
            <path d="M625.9,85h5.7c4.6,0,7.7,3.4,7.7,7.3s-3.1,7.3-7.7,7.3h-5.7v-14.7ZM628.3,87.2v10.3h3.3c3,0,5.2-2.3,5.2-5.1s-2.2-5.1-5.2-5.1h-3.3Z"/>
            <path d="M653.7,96.2v-3h-4.1v-2.1h6.5v5.9c-1.4,1.8-3.7,3-6.4,3-4.7,0-8-3.6-8-7.8s3.1-7.8,7.7-7.8,4.8,1.2,6.2,3l-1.9,1.5c-.9-1.3-2.4-2.2-4.3-2.2-3.1,0-5.3,2.4-5.3,5.5s2.3,5.5,5.5,5.5,3-.6,4-1.6Z"/>
            <path d="M659.8,85h8.2v2h-5.8v4.2h5v2h-5v6.5h-2.4v-14.7Z"/>
            <path d="M670.1,85.3c0-.8.7-1.5,1.5-1.5s1.5.7,1.5,1.5-.7,1.5-1.5,1.5-1.5-.7-1.5-1.5ZM670.5,89.1h2.2v10.6h-2.2v-10.6Z"/>
            <path d="M676.7,85h4.5c3.1,0,5,1.6,5,4.2s-1.9,4.2-5,4.2h-2.1v6.2h-2.4v-14.7ZM679.1,87v4.4h2.2c1.5,0,2.4-.8,2.4-2.2s-.9-2.2-2.4-2.2h-2.2Z"/>
          </g>
        </g>
        <g>
          <path class="cls-6" d="M725,4h61.6c8.9,0,16,7.2,16,16v147.5c0,8.5-6.9,15.4-15.4,15.4h-62.3c-8.5,0-15.4-6.9-15.4-15.4V19.3c0-8.5,6.9-15.4,15.4-15.4Z"/>
          <g>
            <path d="M727.8,85h3.2l5.7,14.7h-2.6l-1.6-4.1h-6.4l-1.6,4.1h-2.6l5.7-14.7ZM731.8,93.5l-2.4-6.3-2.4,6.3h4.8Z"/>
            <path d="M739.5,85h4.2c3.1,0,5,1.6,5,4.2s-.9,3.1-2.4,3.8l4.7,6.7h-2.9l-4.1-6.2h-2v6.2h-2.4v-14.7ZM741.9,87v4.4h1.9c1.5,0,2.4-.8,2.4-2.2s-.9-2.2-2.4-2.2h-1.9Z"/>
            <path d="M763.7,95.6l1.9,1.5c-1.4,1.8-3.5,3-6.2,3-4.6,0-7.7-3.6-7.7-7.8s3.1-7.8,7.7-7.8,4.8,1.2,6.2,3l-1.9,1.5c-.9-1.3-2.4-2.2-4.3-2.2-3.1,0-5.3,2.4-5.3,5.5s2.2,5.5,5.3,5.5,3.3-.9,4.3-2.2Z"/>
            <path d="M768.7,85h8.2v2h-5.8v4.2h5v2h-5v4.4h5.8v2h-8.2v-14.7Z"/>
            <path d="M780.7,85h4.5c3.1,0,5,1.6,5,4.2s-1.9,4.2-5,4.2h-2.1v6.2h-2.4v-14.7ZM783.1,87v4.4h2.2c1.5,0,2.4-.8,2.4-2.2s-.9-2.2-2.4-2.2h-2.2Z"/>
          </g>
        </g>
      </g>
      <g>
        <path d="M88.8,264.4h4.2c3.1,0,5,1.6,5,4.2s-.9,3.1-2.4,3.8l4.7,6.7h-2.9l-4.1-6.2h-2v6.2h-2.4v-14.7ZM91.2,266.5v4.4h1.9c1.5,0,2.4-.8,2.4-2.2s-.9-2.2-2.4-2.2h-1.9Z"/>
        <path d="M106.9,279.5c-3.7,0-5.8-2.6-5.8-5.7s2-5.7,5.4-5.7,4.8,2,4.8,4.7,0,1-.1,1.3h-7.8c.1,2.3,1.6,3.5,3.6,3.5s2.4-.6,3-1.4l1.6,1.3c-1,1.3-2.6,2.1-4.6,2.1ZM103.5,272.5h5.7c0-1.3-1-2.5-2.7-2.5s-2.7.9-3,2.5Z"/>
        <path d="M121.8,276.1l1.7,1.3c-1,1.3-2.5,2.1-4.5,2.1-3.5,0-5.8-2.6-5.8-5.7s2.2-5.7,5.8-5.7,3.5.8,4.5,2.1l-1.7,1.3c-.6-.8-1.6-1.4-2.8-1.4-2,0-3.5,1.6-3.5,3.7s1.5,3.7,3.5,3.7,2.2-.6,2.8-1.4Z"/>
        <path d="M136,273.8c0,3.1-2.3,5.7-5.8,5.7s-5.8-2.6-5.8-5.7,2.3-5.7,5.8-5.7,5.8,2.6,5.8,5.7ZM133.7,273.8c0-2.1-1.5-3.7-3.5-3.7s-3.5,1.6-3.5,3.7,1.5,3.7,3.5,3.7,3.5-1.7,3.5-3.7Z"/>
        <path d="M138.7,268.5h2.2v1.1c.9-1,2-1.5,3.6-1.5,3.3,0,5.4,2.6,5.4,5.7s-2.1,5.7-5.4,5.7-2.7-.5-3.6-1.5v6.3h-2.2v-15.7ZM140.9,272v3.7c.8,1.2,1.9,1.8,3.3,1.8,2,0,3.4-1.6,3.4-3.7s-1.4-3.7-3.4-3.7-2.5.7-3.3,1.8Z"/>
        <path d="M152.2,264.7c0-.8.7-1.5,1.5-1.5s1.5.7,1.5,1.5-.7,1.5-1.5,1.5-1.5-.7-1.5-1.5ZM152.5,268.5h2.2v10.6h-2.2v-10.6Z"/>
        <path d="M163.2,279.5c-3.7,0-5.8-2.6-5.8-5.7s2-5.7,5.4-5.7,4.8,2,4.8,4.7,0,1-.1,1.3h-7.8c.1,2.3,1.6,3.5,3.6,3.5s2.4-.6,3-1.4l1.6,1.3c-1,1.3-2.6,2.1-4.6,2.1ZM159.7,272.5h5.7c0-1.3-1-2.5-2.7-2.5s-2.7.9-3,2.5Z"/>
        <path d="M175.5,276.4c0-1.6,1.2-2.8,3.5-3.1l3.4-.6v-.5c0-1.3-1-2.1-2.3-2.1s-2.1.5-2.7,1.4l-1.6-1.2c.9-1.3,2.5-2.1,4.3-2.1,2.9,0,4.4,1.7,4.4,4v7h-2.2v-1.2c-.8.9-2.1,1.5-3.4,1.5-2.1,0-3.5-1.2-3.5-3.1ZM176.6,263.4h2.4l2.2,3.5h-2.1l-2.5-3.5ZM179.4,277.7c1.3,0,2.4-.6,3-1.6v-1.8l-2.9.5c-1.3.2-1.9.8-1.9,1.6s.7,1.4,1.7,1.4Z"/>
        <path d="M193.6,263.4h2.2v15.7h-2.2v-15.7Z"/>
        <path d="M198.3,270.2l1.8-5.8h2.5l-2.3,5.8h-2Z"/>
        <path d="M204.8,264.7c0-.8.7-1.5,1.5-1.5s1.5.7,1.5,1.5-.7,1.5-1.5,1.5-1.5-.7-1.5-1.5ZM205.2,268.5h2.2v10.6h-2.2v-10.6Z"/>
        <path d="M215.5,268.1c1.5,0,2.6.5,3.5,1.5v-6.2h2.2v15.7h-2.2v-1.1c-.9.9-2,1.5-3.5,1.5-3.3,0-5.4-2.6-5.4-5.7s2.1-5.7,5.4-5.7ZM215.7,277.5c1.4,0,2.5-.7,3.3-1.8v-3.8c-.8-1.2-1.9-1.8-3.3-1.8-2,0-3.4,1.6-3.4,3.7s1.4,3.7,3.4,3.7Z"/>
        <path d="M229.7,279.5c-3.7,0-5.8-2.6-5.8-5.7s2-5.7,5.4-5.7,4.8,2,4.8,4.7,0,1-.1,1.3h-7.8c.1,2.3,1.6,3.5,3.6,3.5s2.4-.6,3-1.4l1.6,1.3c-1,1.3-2.6,2.1-4.6,2.1ZM226.2,272.5h5.7c0-1.3-1-2.5-2.7-2.5s-2.7.9-3,2.5Z"/>
        <path d="M236.9,268.5h2.2v1c.8-.8,1.8-1.4,3.4-1.4,2.3,0,4.1,1.6,4.1,4.6v6.4h-2.2v-6.3c0-1.7-.9-2.7-2.4-2.7s-2.3.9-2.9,1.8v7.1h-2.2v-10.6Z"/>
        <path d="M250.5,270.5h-2v-2h2v-2.6h2.2v2.6h3.5v2h-3.5v5c0,1.4.8,1.9,1.9,1.9s1.2,0,1.6-.2v1.9c-.5.2-1.1.3-1.9.3-2.5,0-3.8-1.3-3.8-3.9v-5Z"/>
        <path d="M258.4,264.7c0-.8.7-1.5,1.5-1.5s1.5.7,1.5,1.5-.7,1.5-1.5,1.5-1.5-.7-1.5-1.5ZM258.8,268.5h2.2v10.6h-2.2v-10.6Z"/>
        <path d="M269,268.1c1.5,0,2.7.5,3.5,1.5v-1.1h2.2v15.7h-2.2v-6.3c-.9,1-2,1.5-3.5,1.5-3.3,0-5.4-2.6-5.4-5.7s2.1-5.7,5.4-5.7ZM269.3,277.5c1.4,0,2.6-.7,3.3-1.8v-3.8c-.8-1.2-1.9-1.8-3.3-1.8-2,0-3.4,1.6-3.4,3.7s1.4,3.7,3.4,3.7Z"/>
        <path d="M285.5,268.5h2.2v5.9c0,3.2-1.8,5.1-4.8,5.1s-4.8-1.9-4.8-5.1v-5.9h2.2v6c0,1.8,1,2.9,2.6,2.9s2.6-1.1,2.6-2.9v-6Z"/>
        <path d="M295.9,279.5c-3.7,0-5.8-2.6-5.8-5.7s2-5.7,5.4-5.7,4.8,2,4.8,4.7,0,1-.1,1.3h-7.8c.1,2.3,1.6,3.5,3.6,3.5s2.4-.6,3-1.4l1.6,1.3c-1,1.3-2.6,2.1-4.6,2.1ZM292.4,272.5h5.7c0-1.3-1-2.5-2.7-2.5s-2.7.9-3,2.5Z"/>
      </g>
      <path class="cls-1" d="M191.9,249.1c1.2,1.2,3.1,1.2,4.2,0l19.1-19.1c1.2-1.2,1.2-3.1,0-4.2-1.2-1.2-3.1-1.2-4.2,0l-17,17-17-17c-1.2-1.2-3.1-1.2-4.2,0-1.2,1.2-1.2,3.1,0,4.2l19.1,19.1ZM191,203v44h6v-44h-6Z"/>
      <line class="cls-10" x1="3.1" y1="203" x2="384.9" y2="203"/>
      <g>
        <path class="cls-7" d="M18.4,4h350.4c8.9,0,16,7.2,16,16v147.5c0,8.5-6.9,15.4-15.4,15.4H18.4c-8.5,0-15.4-6.9-15.4-15.4V19.3c0-8.5,6.9-15.4,15.4-15.4Z"/>
        <g>
          <path class="cls-9" d="M94.4,85h3.9c2.9,0,4.7,1.5,4.7,3.9s-.6,2.3-1.7,3c1.6.7,2.5,2,2.5,3.6,0,2.6-2,4.3-5.2,4.3h-4.3v-14.7ZM96.8,87v3.9h1.6c1.4,0,2.2-.7,2.2-2s-.8-1.9-2.2-1.9h-1.6ZM96.8,93v4.7h2c1.6,0,2.6-.9,2.6-2.3s-1-2.3-2.6-2.3h-2Z"/>
          <path class="cls-9" d="M106.2,96.9c0-1.6,1.2-2.8,3.5-3.1l3.4-.6v-.5c0-1.3-1-2.1-2.3-2.1s-2.1.5-2.7,1.4l-1.6-1.2c.9-1.3,2.5-2.1,4.3-2.1,2.9,0,4.4,1.7,4.4,4v7h-2.2v-1.2c-.8.9-2.1,1.5-3.4,1.5-2.1,0-3.5-1.2-3.5-3.1ZM110.2,98.2c1.3,0,2.4-.6,3-1.6v-1.8l-2.9.5c-1.3.2-1.9.8-1.9,1.6s.7,1.4,1.7,1.4Z"/>
          <path class="cls-9" d="M119.1,96.9c.7.9,1.5,1.4,2.6,1.4s1.6-.6,1.6-1.4c0-2.1-5.2-1.4-5.2-5.1s1.5-3.1,3.6-3.1,2.9.8,3.7,1.8l-1.5,1.3c-.6-.8-1.3-1.3-2.2-1.3s-1.5.6-1.5,1.3c0,2.1,5.2,1.4,5.2,5,0,2.1-1.7,3.3-3.7,3.3s-3.1-.7-4.1-1.9l1.5-1.3Z"/>
          <path class="cls-9" d="M133,100.1c-3.7,0-5.8-2.6-5.8-5.7s2-5.7,5.4-5.7,4.8,2,4.8,4.7,0,1-.1,1.3h-7.8c.1,2.3,1.6,3.5,3.6,3.5s2.4-.6,3-1.4l1.6,1.3c-1,1.3-2.6,2.1-4.6,2.1ZM129.5,93h5.7c0-1.3-1-2.5-2.7-2.5s-2.7.9-3,2.5Z"/>
          <path class="cls-9" d="M150.3,85h3.2l5.7,14.7h-2.6l-1.6-4.1h-6.4l-1.6,4.1h-2.6l5.7-14.7ZM154.3,93.5l-2.4-6.3-2.4,6.3h4.8Z"/>
          <path class="cls-9" d="M166.1,88.7c1.5,0,2.6.5,3.5,1.5v-6.2h2.2v15.7h-2.2v-1.1c-.9.9-2,1.5-3.5,1.5-3.3,0-5.4-2.6-5.4-5.7s2.1-5.7,5.4-5.7ZM166.4,98c1.4,0,2.5-.7,3.3-1.8v-3.8c-.8-1.2-1.9-1.8-3.3-1.8-2,0-3.4,1.6-3.4,3.7s1.4,3.7,3.4,3.7Z"/>
          <path class="cls-9" d="M175.3,89.1h2.2v1.2c.7-.8,1.7-1.4,3-1.4s.7,0,.9.1v2.1c-.3,0-.7-.1-1.1-.1-1.3,0-2.2.7-2.8,1.6v7.1h-2.2v-10.6Z"/>
          <path class="cls-9" d="M188.2,100.1c-3.7,0-5.8-2.6-5.8-5.7s2-5.7,5.4-5.7,4.8,2,4.8,4.7,0,1-.1,1.3h-7.8c.1,2.3,1.6,3.5,3.6,3.5s2.4-.6,3-1.4l1.6,1.3c-1,1.3-2.6,2.1-4.6,2.1ZM184.7,93h5.7c0-1.3-1-2.5-2.7-2.5s-2.7.9-3,2.5Z"/>
          <path class="cls-9" d="M195.7,96.9c.7.9,1.5,1.4,2.6,1.4s1.6-.6,1.6-1.4c0-2.1-5.2-1.4-5.2-5.1s1.5-3.1,3.6-3.1,2.9.8,3.7,1.8l-1.5,1.3c-.6-.8-1.3-1.3-2.2-1.3s-1.5.6-1.5,1.3c0,2.1,5.2,1.4,5.2,5,0,2.1-1.7,3.3-3.7,3.3s-3.1-.7-4.1-1.9l1.5-1.3Z"/>
          <path class="cls-9" d="M205,96.9c.7.9,1.5,1.4,2.6,1.4s1.6-.6,1.6-1.4c0-2.1-5.2-1.4-5.2-5.1s1.5-3.1,3.6-3.1,2.9.8,3.7,1.8l-1.5,1.3c-.6-.8-1.3-1.3-2.2-1.3s-1.5.6-1.5,1.3c0,2.1,5.2,1.4,5.2,5,0,2.1-1.7,3.3-3.7,3.3s-3.1-.7-4.1-1.9l1.5-1.3Z"/>
          <path class="cls-9" d="M218.9,100.1c-3.7,0-5.8-2.6-5.8-5.7s2-5.7,5.4-5.7,4.8,2,4.8,4.7,0,1-.1,1.3h-7.8c.1,2.3,1.6,3.5,3.6,3.5s2.4-.6,3-1.4l1.6,1.3c-1,1.3-2.6,2.1-4.6,2.1ZM215.4,93h5.7c0-1.3-1-2.5-2.7-2.5s-2.7.9-3,2.5Z"/>
          <path class="cls-9" d="M232.3,85h2.4v12.5h5.8v2.2h-8.2v-14.7Z"/>
          <path class="cls-9" d="M253.5,94.4c0,3.1-2.3,5.7-5.8,5.7s-5.8-2.6-5.8-5.7,2.3-5.7,5.8-5.7,5.8,2.6,5.8,5.7ZM251.3,94.4c0-2.1-1.5-3.7-3.5-3.7s-3.5,1.6-3.5,3.7,1.5,3.7,3.5,3.7,3.5-1.7,3.5-3.7Z"/>
          <path class="cls-9" d="M264,96.6l1.7,1.3c-1,1.3-2.5,2.1-4.5,2.1-3.5,0-5.8-2.6-5.8-5.7s2.2-5.7,5.8-5.7,3.5.8,4.5,2.1l-1.7,1.3c-.6-.8-1.6-1.4-2.8-1.4-2,0-3.5,1.6-3.5,3.7s1.5,3.7,3.5,3.7,2.2-.6,2.8-1.4Z"/>
          <path class="cls-9" d="M267.2,96.9c0-1.6,1.2-2.8,3.5-3.1l3.4-.6v-.5c0-1.3-1-2.1-2.3-2.1s-2.1.5-2.7,1.4l-1.6-1.2c.9-1.3,2.5-2.1,4.3-2.1,2.9,0,4.4,1.7,4.4,4v7h-2.2v-1.2c-.8.9-2.1,1.5-3.4,1.5-2.1,0-3.5-1.2-3.5-3.1ZM271.2,98.2c1.3,0,2.4-.6,3-1.6v-1.8l-2.9.5c-1.3.2-1.9.8-1.9,1.6s.7,1.4,1.7,1.4Z"/>
          <path class="cls-9" d="M279.7,83.9h2.2v15.7h-2.2v-15.7Z"/>
          <path class="cls-9" d="M290.4,100.1c-3.7,0-5.8-2.6-5.8-5.7s2-5.7,5.4-5.7,4.8,2,4.8,4.7,0,1-.1,1.3h-7.8c.1,2.3,1.6,3.5,3.6,3.5s2.4-.6,3-1.4l1.6,1.3c-1,1.3-2.6,2.1-4.6,2.1ZM286.9,93h5.7c0-1.3-1-2.5-2.7-2.5s-2.7.9-3,2.5Z"/>
        </g>
      </g>
    </g>
  </g>
</svg>