<?xml version="1.0" encoding="UTF-8" standalone="no"?>
<!DOCTYPE svg PUBLIC "-//W3C//DTD SVG 1.1//EN" "http://www.w3.org/Graphics/SVG/1.1/DTD/svg11.dtd">
<svg width="100%" height="100%" viewBox="0 0 325 165" version="1.1" xmlns="http://www.w3.org/2000/svg" xmlns:xlink="http://www.w3.org/1999/xlink" xml:space="preserve" xmlns:serif="http://www.serif.com/" style="fill-rule:evenodd;clip-rule:evenodd;stroke-linejoin:round;stroke-miterlimit:2;">
    <g transform="matrix(1,0,0,1,-684,-232)">
        <g id="BAL-vertical" transform="matrix(1.04455,0,0,1.26674,-209.767,-958.771)">
            <rect x="856.04" y="940.14" width="310.183" height="129.466" style="fill:none;"/>
            <g transform="matrix(0.957354,0,0,0.789425,-373.847,184.322)">
                <g transform="matrix(4.33828,0,0,2.76857,-7687.19,461.689)">
                    <g transform="matrix(0.132183,0,0,0.207128,2012.89,109.213)">
                        <path d="M579.195,444L579.195,488C579.195,492.918 583.187,496.91 588.105,496.91C593.023,496.91 597.015,492.918 597.015,488L597.015,444C597.015,439.082 593.023,435.09 588.105,435.09C583.187,435.09 579.195,439.082 579.195,444Z" style="fill:#FFFFFF;fill-opacity:0.9;"/>
                    </g>
                    <g transform="matrix(0.132183,0,0,0.207128,2012.89,109.213)">
                        <path d="M545.545,429.716L583.65,451.716C587.909,454.175 593.363,452.714 595.822,448.455C598.28,444.196 596.819,438.742 592.56,436.284L554.455,414.284C550.196,411.825 544.742,413.286 542.284,417.545C539.825,421.804 541.286,427.258 545.545,429.716Z" style="fill:#FFFFFF;fill-opacity:0.9;"/>
                    </g>
                    <g transform="matrix(0.132183,0,0,0.207128,2012.89,109.213)">
                        <path d="M588.17,479.09L550.064,478.815C545.147,478.779 541.126,482.743 541.09,487.66C541.055,492.578 545.018,496.599 549.936,496.634L588.041,496.91C592.958,496.945 596.98,492.982 597.015,488.064C597.051,483.147 593.087,479.126 588.17,479.09Z" style="fill:#FFFFFF;fill-opacity:0.9;"/>
                    </g>
                    <g transform="matrix(0.132183,0,0,0.207128,2012.89,109.213)">
                        <path d="M476.779,497.164L511.959,496.91C516.877,496.874 520.84,492.853 520.805,487.936C520.769,483.018 516.748,479.055 511.83,479.09L476.65,479.344C471.733,479.38 467.769,483.401 467.805,488.319C467.84,493.236 471.862,497.2 476.779,497.164Z" style="fill:#FFFFFF;fill-opacity:0.9;"/>
                    </g>
                    <g transform="matrix(0.132183,0,0,0.207128,2012.89,109.213)">
                        <path d="M520.805,488L520.805,444C520.805,439.082 516.813,435.09 511.895,435.09C506.977,435.09 502.985,439.082 502.985,444L502.985,488C502.985,492.918 506.977,496.91 511.895,496.91C516.813,496.91 520.805,492.918 520.805,488Z" style="fill:#FFFFFF;fill-opacity:0.9;"/>
                    </g>
                    <g transform="matrix(0.230506,0,0,0.361197,1873.48,-237.193)">
                        <path d="M901.446,1205.97L901.446,1199.1C901.446,1196.28 903.736,1193.99 906.556,1193.99C909.376,1193.99 911.666,1196.28 911.666,1199.1L911.666,1200.07L917.639,1196.62C920.082,1195.21 923.209,1196.05 924.619,1198.49C926.029,1200.93 925.191,1204.06 922.749,1205.47L900.898,1218.09C898.455,1219.5 895.328,1218.66 893.918,1216.22C892.508,1213.77 893.346,1210.65 895.788,1209.24L901.446,1205.97Z" style="fill:#FFFFFF;fill-opacity:0.9;"/>
                    </g>
                    <g transform="matrix(0.294444,0,0,0.461387,1987.63,-416.342)">
                        <path d="M311.854,1319.5C317.51,1314.82 324.767,1312 332.677,1312C340.586,1312 347.844,1314.82 353.499,1319.5C355.199,1320.91 357.722,1320.67 359.131,1318.97C360.539,1317.27 360.302,1314.75 358.602,1313.34C351.561,1307.51 342.525,1304 332.677,1304C322.828,1304 313.792,1307.51 306.751,1313.34C305.051,1314.75 304.814,1317.27 306.222,1318.97C307.631,1320.67 310.154,1320.91 311.854,1319.5Z" style="fill:#FFFFFF;fill-opacity:0.9;"/>
                    </g>
                    <g transform="matrix(0.294444,0,0,0.461387,1987.63,-416.342)">
                        <path d="M303.377,1356.52C301.349,1352.25 300,1348.19 300,1344.68C300,1334.55 304.616,1325.5 311.854,1319.5C313.555,1318.09 313.792,1315.57 312.383,1313.87C310.975,1312.17 308.451,1311.93 306.751,1313.34C297.742,1320.8 292,1332.08 292,1344.68C292,1349.2 293.543,1354.46 296.15,1359.95C297.096,1361.95 299.484,1362.8 301.479,1361.85C303.473,1360.9 304.324,1358.52 303.377,1356.52Z" style="fill:#FFFFFF;fill-opacity:0.9;"/>
                    </g>
                    <g transform="matrix(0.294444,0,0,0.461387,1987.63,-416.342)">
                        <path d="M353.499,1319.5C360.737,1325.5 365.353,1334.55 365.353,1344.68C365.353,1350.17 362.197,1356.92 358.017,1363.76C347.461,1381.05 329.858,1398.52 329.858,1398.52C328.291,1400.07 328.283,1402.61 329.839,1404.17C331.395,1405.74 333.929,1405.75 335.496,1404.19C335.496,1404.19 353.835,1385.96 364.845,1367.93C369.907,1359.64 373.353,1351.33 373.353,1344.68C373.353,1332.08 367.612,1320.8 358.602,1313.34C356.902,1311.93 354.378,1312.17 352.97,1313.87C351.562,1315.57 351.799,1318.09 353.499,1319.5Z" style="fill:#FFFFFF;fill-opacity:0.9;"/>
                    </g>
                    <g transform="matrix(0.294444,0,0,0.461387,1987.63,-416.342)">
                        <path d="M335.496,1398.52C335.496,1398.52 322.854,1385.96 312.554,1371.59C311.267,1369.8 308.766,1369.38 306.972,1370.67C305.178,1371.96 304.766,1374.46 306.052,1376.25C316.74,1391.16 329.858,1404.19 329.858,1404.19C331.424,1405.75 333.958,1405.74 335.514,1404.17C337.07,1402.61 337.062,1400.07 335.496,1398.52Z" style="fill:#FFFFFF;fill-opacity:0.9;"/>
                    </g>
                </g>
                <g transform="matrix(2.33035,0,0,2.33035,386.774,-285.321)">
                    <g transform="matrix(17.1648,0,0,17.1648,450.39,555.584)">
                        <path d="M0.063,-0L0.063,-0.739L0.137,-0.739L0.137,-0.453C0.161,-0.488 0.191,-0.514 0.228,-0.532C0.265,-0.551 0.306,-0.56 0.352,-0.56C0.392,-0.56 0.429,-0.553 0.465,-0.538C0.501,-0.523 0.531,-0.503 0.557,-0.478C0.582,-0.452 0.603,-0.422 0.618,-0.386C0.633,-0.351 0.64,-0.314 0.64,-0.274C0.64,-0.22 0.628,-0.171 0.603,-0.127C0.577,-0.083 0.543,-0.049 0.499,-0.024C0.455,0.001 0.405,0.013 0.351,0.013C0.306,0.013 0.265,0.004 0.228,-0.015C0.191,-0.034 0.16,-0.06 0.137,-0.094L0.137,-0L0.063,-0ZM0.347,-0.492C0.287,-0.492 0.236,-0.471 0.194,-0.429C0.153,-0.386 0.132,-0.334 0.132,-0.273C0.132,-0.212 0.153,-0.161 0.195,-0.119C0.237,-0.076 0.289,-0.055 0.349,-0.055C0.411,-0.055 0.462,-0.076 0.503,-0.118C0.544,-0.16 0.565,-0.212 0.565,-0.275C0.565,-0.338 0.544,-0.39 0.503,-0.431C0.462,-0.472 0.41,-0.492 0.347,-0.492Z" style="fill:#FFFFFF;fill-rule:nonzero;"/>
                    </g>
                    <g transform="matrix(17.1648,0,0,17.1648,462.09,555.584)">
                        <path d="M0.62,-0.547L0.62,-0L0.546,-0L0.546,-0.096C0.517,-0.057 0.486,-0.029 0.454,-0.012C0.421,0.005 0.382,0.013 0.336,0.013C0.28,0.013 0.23,0.001 0.185,-0.024C0.141,-0.048 0.105,-0.082 0.08,-0.126C0.055,-0.169 0.042,-0.218 0.042,-0.272C0.042,-0.326 0.055,-0.375 0.08,-0.419C0.105,-0.463 0.139,-0.497 0.183,-0.522C0.227,-0.548 0.276,-0.56 0.33,-0.56C0.378,-0.56 0.419,-0.551 0.453,-0.534C0.488,-0.517 0.519,-0.489 0.546,-0.45L0.546,-0.547L0.62,-0.547ZM0.329,-0.492C0.271,-0.492 0.221,-0.471 0.179,-0.429C0.138,-0.386 0.117,-0.335 0.117,-0.275C0.117,-0.213 0.138,-0.161 0.181,-0.119C0.223,-0.076 0.274,-0.055 0.335,-0.055C0.395,-0.055 0.445,-0.076 0.485,-0.118C0.526,-0.161 0.546,-0.213 0.546,-0.275C0.546,-0.337 0.525,-0.389 0.484,-0.43C0.443,-0.472 0.391,-0.492 0.329,-0.492Z" style="fill:#FFFFFF;fill-rule:nonzero;"/>
                    </g>
                    <g transform="matrix(17.1648,0,0,17.1648,473.807,555.584)">
                        <path d="M0.018,-0.161L0.091,-0.161C0.093,-0.127 0.103,-0.101 0.121,-0.083C0.139,-0.064 0.163,-0.055 0.194,-0.055C0.221,-0.055 0.243,-0.064 0.26,-0.082C0.278,-0.1 0.286,-0.122 0.286,-0.15C0.286,-0.175 0.279,-0.194 0.265,-0.208C0.252,-0.222 0.223,-0.237 0.18,-0.255C0.141,-0.271 0.117,-0.282 0.109,-0.286C0.1,-0.29 0.09,-0.298 0.079,-0.308C0.052,-0.333 0.038,-0.366 0.038,-0.406C0.038,-0.45 0.053,-0.487 0.082,-0.516C0.111,-0.545 0.148,-0.56 0.193,-0.56C0.237,-0.56 0.273,-0.546 0.302,-0.519C0.331,-0.492 0.346,-0.456 0.347,-0.412L0.272,-0.412C0.27,-0.438 0.262,-0.458 0.248,-0.472C0.234,-0.485 0.216,-0.492 0.192,-0.492C0.17,-0.492 0.151,-0.485 0.136,-0.469C0.121,-0.454 0.113,-0.435 0.113,-0.413C0.113,-0.382 0.13,-0.357 0.164,-0.34C0.203,-0.323 0.237,-0.309 0.266,-0.297C0.329,-0.271 0.361,-0.224 0.361,-0.157C0.361,-0.107 0.345,-0.066 0.314,-0.034C0.284,-0.003 0.243,0.013 0.194,0.013C0.141,0.013 0.098,-0.003 0.067,-0.034C0.035,-0.066 0.019,-0.108 0.018,-0.161Z" style="fill:#FFFFFF;fill-rule:nonzero;"/>
                    </g>
                    <g transform="matrix(17.1648,0,0,17.1648,480.462,555.584)">
                        <path d="M0.611,-0.249L0.116,-0.249C0.119,-0.195 0.141,-0.149 0.183,-0.112C0.224,-0.074 0.273,-0.055 0.329,-0.055C0.371,-0.055 0.409,-0.067 0.444,-0.09C0.479,-0.113 0.505,-0.143 0.52,-0.18L0.597,-0.18C0.577,-0.123 0.542,-0.076 0.494,-0.04C0.445,-0.005 0.391,0.013 0.331,0.013C0.291,0.013 0.254,0.006 0.218,-0.009C0.182,-0.024 0.151,-0.045 0.125,-0.07C0.1,-0.096 0.079,-0.127 0.064,-0.163C0.049,-0.198 0.042,-0.236 0.042,-0.276C0.042,-0.328 0.055,-0.376 0.08,-0.419C0.105,-0.463 0.139,-0.497 0.182,-0.522C0.225,-0.548 0.273,-0.56 0.325,-0.56C0.379,-0.56 0.429,-0.547 0.474,-0.52C0.52,-0.493 0.554,-0.457 0.578,-0.411C0.59,-0.388 0.599,-0.364 0.604,-0.34C0.608,-0.316 0.611,-0.285 0.611,-0.249ZM0.118,-0.316L0.537,-0.316C0.525,-0.37 0.5,-0.413 0.462,-0.445C0.424,-0.476 0.378,-0.492 0.325,-0.492C0.273,-0.492 0.229,-0.476 0.19,-0.444C0.152,-0.411 0.128,-0.369 0.118,-0.316Z" style="fill:#FFFFFF;fill-rule:nonzero;"/>
                    </g>
                    <g transform="matrix(17.1648,0,0,17.1648,450.39,574.749)">
                        <path d="M0.62,-0.547L0.62,-0L0.546,-0L0.546,-0.096C0.517,-0.057 0.486,-0.029 0.454,-0.012C0.421,0.005 0.382,0.013 0.336,0.013C0.28,0.013 0.23,0.001 0.185,-0.024C0.141,-0.048 0.105,-0.082 0.08,-0.126C0.055,-0.169 0.042,-0.218 0.042,-0.272C0.042,-0.326 0.055,-0.375 0.08,-0.419C0.105,-0.463 0.139,-0.497 0.183,-0.522C0.227,-0.548 0.276,-0.56 0.33,-0.56C0.378,-0.56 0.419,-0.551 0.453,-0.534C0.488,-0.517 0.519,-0.489 0.546,-0.45L0.546,-0.547L0.62,-0.547ZM0.329,-0.492C0.271,-0.492 0.221,-0.471 0.179,-0.429C0.138,-0.386 0.117,-0.335 0.117,-0.275C0.117,-0.213 0.138,-0.161 0.181,-0.119C0.223,-0.076 0.274,-0.055 0.335,-0.055C0.395,-0.055 0.445,-0.076 0.485,-0.118C0.526,-0.161 0.546,-0.213 0.546,-0.275C0.546,-0.337 0.525,-0.389 0.484,-0.43C0.443,-0.472 0.391,-0.492 0.329,-0.492Z" style="fill:#FFFFFF;fill-rule:nonzero;"/>
                    </g>
                    <g transform="matrix(17.1648,0,0,17.1648,462.107,574.749)">
                        <path d="M0.622,-0.739L0.622,-0L0.548,-0L0.548,-0.099C0.52,-0.059 0.489,-0.031 0.457,-0.013C0.424,0.004 0.385,0.013 0.34,0.013C0.284,0.013 0.234,0.001 0.188,-0.024C0.143,-0.049 0.107,-0.083 0.081,-0.126C0.055,-0.17 0.042,-0.219 0.042,-0.272C0.042,-0.326 0.055,-0.375 0.08,-0.419C0.105,-0.463 0.14,-0.497 0.184,-0.522C0.229,-0.548 0.278,-0.56 0.333,-0.56C0.421,-0.56 0.492,-0.527 0.548,-0.46L0.548,-0.739L0.622,-0.739ZM0.328,-0.492C0.27,-0.492 0.22,-0.471 0.179,-0.428C0.138,-0.386 0.117,-0.334 0.117,-0.274C0.117,-0.212 0.138,-0.161 0.181,-0.118C0.223,-0.076 0.276,-0.055 0.338,-0.055C0.396,-0.055 0.447,-0.077 0.488,-0.12C0.53,-0.163 0.551,-0.214 0.551,-0.275C0.551,-0.335 0.529,-0.387 0.486,-0.429C0.443,-0.471 0.391,-0.492 0.328,-0.492Z" style="fill:#FFFFFF;fill-rule:nonzero;"/>
                    </g>
                    <g transform="matrix(17.1648,0,0,17.1648,473.857,574.749)">
                        <path d="M0.063,-0L0.063,-0.547L0.137,-0.547L0.137,-0.469C0.152,-0.499 0.171,-0.521 0.196,-0.536C0.22,-0.55 0.252,-0.558 0.292,-0.56L0.292,-0.487C0.189,-0.477 0.137,-0.421 0.137,-0.319L0.137,-0L0.063,-0Z" style="fill:#FFFFFF;fill-rule:nonzero;"/>
                    </g>
                    <g transform="matrix(17.1648,0,0,17.1648,478.542,574.749)">
                        <path d="M0.611,-0.249L0.116,-0.249C0.119,-0.195 0.141,-0.149 0.183,-0.112C0.224,-0.074 0.273,-0.055 0.329,-0.055C0.371,-0.055 0.409,-0.067 0.444,-0.09C0.479,-0.113 0.505,-0.143 0.52,-0.18L0.597,-0.18C0.577,-0.123 0.542,-0.076 0.494,-0.04C0.445,-0.005 0.391,0.013 0.331,0.013C0.291,0.013 0.254,0.006 0.218,-0.009C0.182,-0.024 0.151,-0.045 0.125,-0.07C0.1,-0.096 0.079,-0.127 0.064,-0.163C0.049,-0.198 0.042,-0.236 0.042,-0.276C0.042,-0.328 0.055,-0.376 0.08,-0.419C0.105,-0.463 0.139,-0.497 0.182,-0.522C0.225,-0.548 0.273,-0.56 0.325,-0.56C0.379,-0.56 0.429,-0.547 0.474,-0.52C0.52,-0.493 0.554,-0.457 0.578,-0.411C0.59,-0.388 0.599,-0.364 0.604,-0.34C0.608,-0.316 0.611,-0.285 0.611,-0.249ZM0.118,-0.316L0.537,-0.316C0.525,-0.37 0.5,-0.413 0.462,-0.445C0.424,-0.476 0.378,-0.492 0.325,-0.492C0.273,-0.492 0.229,-0.476 0.19,-0.444C0.152,-0.411 0.128,-0.369 0.118,-0.316Z" style="fill:#FFFFFF;fill-rule:nonzero;"/>
                    </g>
                    <g transform="matrix(17.1648,0,0,17.1648,489.698,574.749)">
                        <path d="M0.018,-0.161L0.091,-0.161C0.093,-0.127 0.103,-0.101 0.121,-0.083C0.139,-0.064 0.163,-0.055 0.194,-0.055C0.221,-0.055 0.243,-0.064 0.26,-0.082C0.278,-0.1 0.286,-0.122 0.286,-0.15C0.286,-0.175 0.279,-0.194 0.265,-0.208C0.252,-0.222 0.223,-0.237 0.18,-0.255C0.141,-0.271 0.117,-0.282 0.109,-0.286C0.1,-0.29 0.09,-0.298 0.079,-0.308C0.052,-0.333 0.038,-0.366 0.038,-0.406C0.038,-0.45 0.053,-0.487 0.082,-0.516C0.111,-0.545 0.148,-0.56 0.193,-0.56C0.237,-0.56 0.273,-0.546 0.302,-0.519C0.331,-0.492 0.346,-0.456 0.347,-0.412L0.272,-0.412C0.27,-0.438 0.262,-0.458 0.248,-0.472C0.234,-0.485 0.216,-0.492 0.192,-0.492C0.17,-0.492 0.151,-0.485 0.136,-0.469C0.121,-0.454 0.113,-0.435 0.113,-0.413C0.113,-0.382 0.13,-0.357 0.164,-0.34C0.203,-0.323 0.237,-0.309 0.266,-0.297C0.329,-0.271 0.361,-0.224 0.361,-0.157C0.361,-0.107 0.345,-0.066 0.314,-0.034C0.284,-0.003 0.243,0.013 0.194,0.013C0.141,0.013 0.098,-0.003 0.067,-0.034C0.035,-0.066 0.019,-0.108 0.018,-0.161Z" style="fill:#FFFFFF;fill-rule:nonzero;"/>
                    </g>
                    <g transform="matrix(17.1648,0,0,17.1648,496.352,574.749)">
                        <path d="M0.018,-0.161L0.091,-0.161C0.093,-0.127 0.103,-0.101 0.121,-0.083C0.139,-0.064 0.163,-0.055 0.194,-0.055C0.221,-0.055 0.243,-0.064 0.26,-0.082C0.278,-0.1 0.286,-0.122 0.286,-0.15C0.286,-0.175 0.279,-0.194 0.265,-0.208C0.252,-0.222 0.223,-0.237 0.18,-0.255C0.141,-0.271 0.117,-0.282 0.109,-0.286C0.1,-0.29 0.09,-0.298 0.079,-0.308C0.052,-0.333 0.038,-0.366 0.038,-0.406C0.038,-0.45 0.053,-0.487 0.082,-0.516C0.111,-0.545 0.148,-0.56 0.193,-0.56C0.237,-0.56 0.273,-0.546 0.302,-0.519C0.331,-0.492 0.346,-0.456 0.347,-0.412L0.272,-0.412C0.27,-0.438 0.262,-0.458 0.248,-0.472C0.234,-0.485 0.216,-0.492 0.192,-0.492C0.17,-0.492 0.151,-0.485 0.136,-0.469C0.121,-0.454 0.113,-0.435 0.113,-0.413C0.113,-0.382 0.13,-0.357 0.164,-0.34C0.203,-0.323 0.237,-0.309 0.266,-0.297C0.329,-0.271 0.361,-0.224 0.361,-0.157C0.361,-0.107 0.345,-0.066 0.314,-0.034C0.284,-0.003 0.243,0.013 0.194,0.013C0.141,0.013 0.098,-0.003 0.067,-0.034C0.035,-0.066 0.019,-0.108 0.018,-0.161Z" style="fill:#FFFFFF;fill-rule:nonzero;"/>
                    </g>
                    <g transform="matrix(17.1648,0,0,17.1648,503.007,574.749)">
                        <path d="M0.611,-0.249L0.116,-0.249C0.119,-0.195 0.141,-0.149 0.183,-0.112C0.224,-0.074 0.273,-0.055 0.329,-0.055C0.371,-0.055 0.409,-0.067 0.444,-0.09C0.479,-0.113 0.505,-0.143 0.52,-0.18L0.597,-0.18C0.577,-0.123 0.542,-0.076 0.494,-0.04C0.445,-0.005 0.391,0.013 0.331,0.013C0.291,0.013 0.254,0.006 0.218,-0.009C0.182,-0.024 0.151,-0.045 0.125,-0.07C0.1,-0.096 0.079,-0.127 0.064,-0.163C0.049,-0.198 0.042,-0.236 0.042,-0.276C0.042,-0.328 0.055,-0.376 0.08,-0.419C0.105,-0.463 0.139,-0.497 0.182,-0.522C0.225,-0.548 0.273,-0.56 0.325,-0.56C0.379,-0.56 0.429,-0.547 0.474,-0.52C0.52,-0.493 0.554,-0.457 0.578,-0.411C0.59,-0.388 0.599,-0.364 0.604,-0.34C0.608,-0.316 0.611,-0.285 0.611,-0.249ZM0.118,-0.316L0.537,-0.316C0.525,-0.37 0.5,-0.413 0.462,-0.445C0.424,-0.476 0.378,-0.492 0.325,-0.492C0.273,-0.492 0.229,-0.476 0.19,-0.444C0.152,-0.411 0.128,-0.369 0.118,-0.316Z" style="fill:#FFFFFF;fill-rule:nonzero;"/>
                    </g>
                    <g transform="matrix(17.1648,0,0,17.1648,450.39,593.914)">
                        <rect x="0.054" y="-0.739" width="0.133" height="0.739" style="fill:#FFFFFF;fill-rule:nonzero;"/>
                    </g>
                    <g transform="matrix(17.1648,0,0,17.1648,454.522,593.914)">
                        <path d="M0.325,-0.567C0.378,-0.567 0.427,-0.554 0.472,-0.528C0.517,-0.502 0.552,-0.466 0.578,-0.422C0.604,-0.377 0.617,-0.328 0.617,-0.276C0.617,-0.224 0.604,-0.176 0.578,-0.131C0.552,-0.087 0.516,-0.052 0.471,-0.026C0.425,0 0.376,0.013 0.323,0.013C0.27,0.013 0.22,0 0.175,-0.026C0.13,-0.052 0.094,-0.087 0.067,-0.131C0.041,-0.176 0.028,-0.224 0.028,-0.276C0.028,-0.316 0.036,-0.353 0.051,-0.389C0.066,-0.425 0.087,-0.456 0.114,-0.482C0.141,-0.508 0.172,-0.529 0.209,-0.544C0.246,-0.559 0.285,-0.567 0.325,-0.567ZM0.32,-0.445C0.277,-0.445 0.24,-0.428 0.209,-0.395C0.178,-0.362 0.162,-0.323 0.162,-0.277C0.162,-0.231 0.178,-0.191 0.209,-0.158C0.24,-0.125 0.278,-0.109 0.322,-0.109C0.366,-0.109 0.404,-0.125 0.436,-0.158C0.467,-0.191 0.483,-0.23 0.483,-0.276C0.483,-0.323 0.467,-0.363 0.436,-0.396C0.404,-0.429 0.365,-0.445 0.32,-0.445Z" style="fill:#FFFFFF;fill-rule:nonzero;"/>
                    </g>
                    <g transform="matrix(17.1648,0,0,17.1648,465.585,593.914)">
                        <path d="M0.449,-0.182L0.599,-0.182C0.576,-0.12 0.541,-0.072 0.493,-0.038C0.445,-0.004 0.389,0.013 0.324,0.013C0.284,0.013 0.245,0.006 0.209,-0.01C0.172,-0.025 0.141,-0.046 0.114,-0.071C0.088,-0.097 0.067,-0.128 0.051,-0.164C0.036,-0.199 0.028,-0.237 0.028,-0.277C0.028,-0.33 0.041,-0.379 0.066,-0.424C0.092,-0.468 0.127,-0.503 0.172,-0.529C0.217,-0.554 0.266,-0.567 0.32,-0.567C0.36,-0.567 0.397,-0.56 0.433,-0.546C0.469,-0.531 0.501,-0.511 0.528,-0.485C0.545,-0.468 0.559,-0.451 0.57,-0.434C0.58,-0.418 0.59,-0.396 0.599,-0.369L0.449,-0.369C0.423,-0.42 0.38,-0.445 0.32,-0.445C0.274,-0.445 0.236,-0.429 0.206,-0.398C0.177,-0.367 0.162,-0.327 0.162,-0.278C0.162,-0.229 0.177,-0.189 0.208,-0.157C0.239,-0.125 0.277,-0.109 0.323,-0.109C0.351,-0.109 0.374,-0.115 0.394,-0.126C0.414,-0.138 0.433,-0.157 0.449,-0.182Z" style="fill:#FFFFFF;fill-rule:nonzero;"/>
                    </g>
                    <g transform="matrix(17.1648,0,0,17.1648,476.313,593.914)">
                        <path d="M0.613,-0.554L0.613,-0L0.491,-0L0.491,-0.072C0.465,-0.042 0.437,-0.02 0.408,-0.007C0.38,0.007 0.346,0.013 0.307,0.013C0.254,0.013 0.206,0.001 0.163,-0.024C0.121,-0.048 0.088,-0.083 0.064,-0.126C0.04,-0.17 0.028,-0.22 0.028,-0.275C0.028,-0.331 0.04,-0.381 0.064,-0.425C0.088,-0.469 0.122,-0.504 0.165,-0.529C0.208,-0.554 0.256,-0.567 0.31,-0.567C0.35,-0.567 0.385,-0.56 0.414,-0.546C0.443,-0.532 0.468,-0.51 0.491,-0.48L0.491,-0.554L0.613,-0.554ZM0.322,-0.445C0.276,-0.445 0.237,-0.429 0.207,-0.396C0.177,-0.363 0.162,-0.322 0.162,-0.272C0.162,-0.223 0.177,-0.184 0.208,-0.154C0.238,-0.124 0.278,-0.109 0.326,-0.109C0.374,-0.109 0.413,-0.124 0.443,-0.155C0.472,-0.185 0.487,-0.225 0.487,-0.275C0.487,-0.325 0.471,-0.366 0.441,-0.397C0.41,-0.429 0.37,-0.445 0.322,-0.445Z" style="fill:#FFFFFF;fill-rule:nonzero;"/>
                    </g>
                    <g transform="matrix(17.1648,0,0,17.1648,487.762,593.914)">
                        <rect x="0.054" y="-0.739" width="0.133" height="0.739" style="fill:#FFFFFF;fill-rule:nonzero;"/>
                    </g>
                    <g transform="matrix(17.1648,0,0,17.1648,491.894,593.914)">
                        <path d="M0.601,-0.218L0.172,-0.218C0.18,-0.184 0.198,-0.158 0.225,-0.138C0.252,-0.119 0.286,-0.109 0.325,-0.109C0.353,-0.109 0.375,-0.113 0.394,-0.121C0.412,-0.13 0.43,-0.144 0.447,-0.164L0.592,-0.164C0.584,-0.139 0.569,-0.113 0.548,-0.087C0.491,-0.02 0.417,0.013 0.328,0.013C0.286,0.013 0.247,0.006 0.21,-0.009C0.173,-0.024 0.141,-0.045 0.115,-0.07C0.088,-0.096 0.067,-0.126 0.051,-0.162C0.036,-0.198 0.028,-0.235 0.028,-0.275C0.028,-0.328 0.041,-0.377 0.067,-0.422C0.093,-0.467 0.128,-0.502 0.173,-0.528C0.217,-0.554 0.266,-0.567 0.32,-0.567C0.374,-0.567 0.423,-0.554 0.467,-0.529C0.51,-0.503 0.545,-0.468 0.569,-0.422C0.594,-0.377 0.606,-0.326 0.606,-0.269C0.606,-0.251 0.604,-0.234 0.601,-0.218ZM0.168,-0.335L0.475,-0.335C0.467,-0.37 0.449,-0.398 0.423,-0.417C0.396,-0.435 0.363,-0.445 0.322,-0.445C0.282,-0.445 0.249,-0.435 0.223,-0.417C0.197,-0.398 0.178,-0.371 0.168,-0.335Z" style="fill:#FFFFFF;fill-rule:nonzero;"/>
                    </g>
                </g>
            </g>
        </g>
    </g>
</svg>
