<svg width="300" height="300" viewBox="0 0 300 300" fill="none" xmlns="http://www.w3.org/2000/svg">
<circle cx="150" cy="150" r="150" fill="#2053B3"/>
<path d="M163.319 149.5C163.319 181.253 137.508 207 105.653 207C98.0922 207.01 90.6032 205.531 83.6138 202.647C76.6244 199.762 70.2716 195.53 64.918 190.19C59.5644 184.851 55.3149 178.509 52.4121 171.528C49.5093 164.546 48.0101 157.061 48 149.5C48 117.734 73.8111 92.0001 105.653 92.0001C113.215 91.9883 120.706 93.4664 127.697 96.3498C134.687 99.2332 141.042 103.466 146.397 108.805C151.752 114.145 156.002 120.487 158.906 127.469C161.81 134.452 163.309 141.938 163.319 149.5V149.5ZM226.569 149.5C226.569 179.4 213.664 203.627 197.743 203.627C181.822 203.627 168.916 179.387 168.916 149.5C168.916 119.6 181.822 95.3734 197.743 95.3734C213.664 95.3734 226.569 119.613 226.569 149.5ZM252.444 149.5C252.444 176.282 247.908 197.992 242.299 197.992C236.702 197.992 232.166 176.269 232.166 149.5C232.166 122.718 236.702 101.008 242.311 101.008C247.908 101.008 252.444 122.718 252.444 149.5Z" fill="white"/>
</svg>
