<svg width="240" height="240" viewBox="0 0 240 240" fill="none" xmlns="http://www.w3.org/2000/svg">
<circle cx="120" cy="120" r="120" fill="#2053B3"/>
<path d="M136.159 165H131.732V128.25H136.159V165ZM142.092 151.817C142.092 149.281 142.587 147 143.576 144.974C144.581 142.948 145.968 141.385 147.739 140.285C149.525 139.184 151.559 138.634 153.84 138.634C157.365 138.634 160.212 139.854 162.381 142.294C164.567 144.735 165.659 147.981 165.659 152.032V152.343C165.659 154.863 165.173 157.128 164.2 159.138C163.243 161.132 161.863 162.687 160.061 163.804C158.274 164.92 156.216 165.479 153.888 165.479C150.379 165.479 147.531 164.258 145.346 161.818C143.177 159.377 142.092 156.147 142.092 152.128V151.817ZM146.542 152.343C146.542 155.214 147.204 157.519 148.528 159.258C149.868 160.996 151.655 161.866 153.888 161.866C156.137 161.866 157.923 160.988 159.247 159.234C160.571 157.463 161.233 154.991 161.233 151.817C161.233 148.978 160.555 146.681 159.199 144.926C157.859 143.156 156.073 142.271 153.84 142.271C151.655 142.271 149.892 143.14 148.552 144.878C147.212 146.617 146.542 149.105 146.542 152.343ZM170.157 151.841C170.157 147.805 171.09 144.599 172.957 142.223C174.823 139.83 177.295 138.634 180.374 138.634C183.532 138.634 185.996 139.75 187.767 141.983L187.982 139.112H192.025V164.378C192.025 167.728 191.028 170.367 189.035 172.297C187.057 174.227 184.393 175.192 181.043 175.192C179.177 175.192 177.351 174.794 175.564 173.996C173.778 173.199 172.414 172.106 171.473 170.718L173.77 168.062C175.668 170.407 177.989 171.58 180.732 171.58C182.886 171.58 184.561 170.973 185.757 169.761C186.969 168.549 187.575 166.842 187.575 164.641V162.416C185.805 164.458 183.388 165.479 180.326 165.479C177.295 165.479 174.839 164.258 172.957 161.818C171.09 159.377 170.157 156.052 170.157 151.841ZM174.607 152.343C174.607 155.262 175.206 157.559 176.402 159.234C177.598 160.893 179.273 161.722 181.426 161.722C184.218 161.722 186.267 160.454 187.575 157.918V146.099C186.219 143.626 184.186 142.39 181.474 142.39C179.321 142.39 177.638 143.228 176.426 144.902C175.214 146.577 174.607 149.057 174.607 152.343ZM198.82 162.679C198.82 161.914 199.044 161.276 199.49 160.765C199.953 160.255 200.639 160 201.548 160C202.457 160 203.143 160.255 203.605 160.765C204.084 161.276 204.323 161.914 204.323 162.679C204.323 163.413 204.084 164.027 203.605 164.521C203.143 165.016 202.457 165.263 201.548 165.263C200.639 165.263 199.953 165.016 199.49 164.521C199.044 164.027 198.82 163.413 198.82 162.679Z" fill="white"/>
<path d="M46.2954 172V66.0703H80.9263C92.4214 66.0703 101.055 68.4469 106.827 73.2002C112.647 77.9535 115.557 84.9863 115.557 94.2988C115.557 99.2461 114.151 103.636 111.337 107.467C108.524 111.25 104.693 114.185 99.8423 116.271C105.566 117.871 110.076 120.927 113.375 125.438C116.721 129.9 118.395 135.235 118.395 141.443C118.395 150.95 115.315 158.419 109.155 163.852C102.995 169.284 94.2887 172 83.0361 172H46.2954ZM60.2642 122.455V160.578H83.3271C89.8265 160.578 94.9435 158.904 98.6782 155.558C102.461 152.162 104.353 147.506 104.353 141.589C104.353 128.833 97.4172 122.455 83.5454 122.455H60.2642ZM60.2642 111.25H81.3628C87.4741 111.25 92.3486 109.723 95.9863 106.667C99.6725 103.611 101.516 99.4644 101.516 94.2261C101.516 88.4058 99.818 84.186 96.4229 81.5669C93.0277 78.8993 87.8621 77.5654 80.9263 77.5654H60.2642V111.25Z" fill="white"/>
</svg>
