<svg width="81" height="81" viewBox="0 0 81 81" fill="none" xmlns="http://www.w3.org/2000/svg">
<path d="M15.884 0C7.15866 0 0.0177002 7.14104 0.0177002 15.8663V65.1022C0.0177002 73.8275 7.15866 80.966 15.884 80.966H65.1199C73.8452 80.966 80.9837 73.8275 80.9837 65.1022V15.8663C80.9837 7.14096 73.8452 0 65.1199 0H15.884ZM43.263 15.1289C50.8791 15.7442 55.3034 20.6625 55.8298 26.9507C56.2388 30.1869 56.1244 32.5883 55.6575 34.3556C60.0018 34.4992 65.0851 36.4472 65.4089 43.5165V50.4753C64.9585 56.5524 62.7959 64.0573 51.7017 65.6498C49.2037 66.0084 46.4001 65.7684 42.7638 65.7435C39.1075 65.6471 35.9196 65.6645 33.1315 65.7156C21.8773 65.9218 15.6786 60.9743 15.6205 50.3839C15.5301 46.7799 15.6731 42.8725 15.6611 38.0249C15.6159 34.953 15.5989 31.7438 15.6687 28.76C15.6903 28.1777 15.6143 27.5394 15.7675 26.9127C16.2519 20.0848 21.7357 16.0831 28.1367 15.1948L43.263 15.1289L43.263 15.1289ZM30.615 24.6269C24.1321 25.6883 23.8117 33.0866 30.615 34.0007H42.9208C49.4037 32.9393 49.7241 25.5411 42.9208 24.6269H30.615ZM27.8198 45.1053C21.1458 46.1414 21.0477 54.5448 28.058 55.4143L50.6651 55.4954C57.2824 54.4681 57.2629 46.0733 50.4269 45.1839L27.8198 45.1053V45.1053Z" fill="#0053B3"/>
</svg>
