<svg xmlns="http://www.w3.org/2000/svg" xmlns:xlink="http://www.w3.org/1999/xlink" width="190" height="80.979"><defs><path id="a" d="M190 81.429V.449H0v80.98z"/></defs><g fill="none" fill-rule="evenodd"><path d="M6.149.362L0 14.589h3.456l1.186-3.014h5.526l1.226 3.014h3.537L8.741.362zm1.206 4.14l1.748 4.42H5.627z" fill="#29317f"/><g transform="translate(0 -.45)"><path d="M30.645 14.034c-.924.483-1.889.831-2.893 1.045-1.005.215-2.03.322-3.075.322-1.112 0-2.137-.174-3.074-.523a7.042 7.042 0 01-2.432-1.497 6.788 6.788 0 01-1.597-2.361C17.192 10.096 17 9.064 17 7.925c0-1.138.19-2.17.573-3.095a6.795 6.795 0 011.597-2.36A7.05 7.05 0 0121.603.971C22.54.624 23.565.45 24.677.45c1.138 0 2.188.137 3.145.412a6.163 6.163 0 012.522 1.416l-2.21 2.412a4.405 4.405 0 00-1.447-1.005c-.536-.228-1.206-.341-2.01-.341-.67 0-1.276.113-1.819.341a4.095 4.095 0 00-1.396.954 4.195 4.195 0 00-.895 1.458 5.243 5.243 0 00-.31 1.828c0 .67.103 1.283.31 1.84.208.555.506 1.037.895 1.446.388.409.854.727 1.396.955.543.227 1.15.341 1.82.341.682 0 1.272-.077 1.767-.231.496-.154.891-.311 1.186-.472V9.493H25.08V6.599h5.566zM44.592 3.705H38.06v2.653h6.17V9.25h-6.17v2.894h6.893v2.894H34.926V.811h9.666zM59.18 10.699h.04V.81h3.136V15.04h-4.1L52.048 4.911h-.04v10.128h-3.135V.811h4.26zM75.96 4.51a3.074 3.074 0 00-1.135-.865c-.449-.201-.968-.302-1.558-.302a3.92 3.92 0 00-1.637.342 3.925 3.925 0 00-1.306.955 4.452 4.452 0 00-.865 1.456 5.244 5.244 0 00-.311 1.83c0 .67.104 1.282.311 1.838a4.57 4.57 0 00.855 1.447c.361.409.786.727 1.275.954a3.687 3.687 0 001.578.342c.643 0 1.212-.134 1.708-.402a3.4 3.4 0 001.226-1.125l2.613 1.95a5.445 5.445 0 01-2.291 1.868 7.09 7.09 0 01-2.854.603c-1.112 0-2.137-.175-3.075-.523a7.04 7.04 0 01-2.431-1.497 6.778 6.778 0 01-1.597-2.36c-.382-.926-.573-1.957-.573-3.096 0-1.138.19-2.17.573-3.094a6.78 6.78 0 011.597-2.362A7.046 7.046 0 0170.494.973C71.432.624 72.457.45 73.57.45c.402 0 .82.037 1.256.11.435.074.864.191 1.286.352.422.161.827.375 1.216.643.388.268.737.597 1.045.985zM91.614 3.705h-6.53v2.653h6.169V9.25h-6.17v2.894h6.893v2.894H81.95V.811h9.665zM11.776 32.708h.04v-9.887h3.135v14.227h-4.1L4.643 26.92h-.04v10.128H1.467V22.821h4.26zM25.14 26.96l-1.729 4.421h3.476zm-1.207-4.14h2.593l6.19 14.228h-3.538l-1.226-3.014h-5.526l-1.185 3.014h-3.457zM32.394 22.821h11.253v2.773h-4.059v11.454h-3.135V25.594h-4.06z" fill="#29317f"/><mask id="b" fill="#fff"><use xlink:href="#a" width="100%" height="100%"/></mask><path mask="url(#b)" fill="#29317f" d="M49.736 22.821H46.6v14.227h3.135zM56.488 29.934c0 .67.103 1.283.311 1.84a4.083 4.083 0 002.291 2.401c.542.228 1.149.341 1.819.341.67 0 1.276-.113 1.818-.341a4.079 4.079 0 002.291-2.402 5.221 5.221 0 00.312-1.839c0-.656-.104-1.266-.312-1.828a4.188 4.188 0 00-.894-1.457 4.085 4.085 0 00-1.397-.955c-.542-.227-1.149-.341-1.818-.341-.67 0-1.277.114-1.819.341a4.09 4.09 0 00-1.397.955 4.181 4.181 0 00-.894 1.457 5.242 5.242 0 00-.311 1.828m-3.256 0c0-1.138.19-2.17.573-3.094a6.796 6.796 0 011.597-2.361 7.04 7.04 0 012.432-1.497c.937-.349 1.962-.523 3.075-.523 1.112 0 2.136.174 3.074.523a7.045 7.045 0 012.432 1.497 6.79 6.79 0 011.597 2.36c.382.925.573 1.957.573 3.095 0 1.14-.19 2.17-.573 3.095a6.792 6.792 0 01-1.597 2.362 7.045 7.045 0 01-2.432 1.497c-.938.348-1.962.522-3.074.522-1.113 0-2.138-.174-3.075-.522a7.04 7.04 0 01-2.432-1.497 6.798 6.798 0 01-1.597-2.362c-.382-.924-.573-1.956-.573-3.095M82.43 32.708h.04v-9.887h3.135v14.227h-4.099l-6.21-10.128h-.04v10.128h-3.135V22.821h4.261zM95.794 26.96l-1.729 4.421h3.477zm-1.206-4.14h2.593l6.189 14.228h-3.537l-1.226-3.014h-5.526l-1.186 3.014H88.44zM109.458 34.155h5.808v2.893h-8.942V22.821h3.134zM128.187 25.715h-6.531v2.652h6.17v2.894h-6.17v2.894h6.893v2.893h-10.027V22.821h9.665zM3.195 57.732H6.01c1.085 0 2.026-.164 2.823-.493.797-.328 1.46-.764 1.99-1.306a5.21 5.21 0 001.175-1.849 6.14 6.14 0 00.382-2.14c0-.737-.128-1.45-.382-2.14a5.214 5.214 0 00-1.176-1.85c-.53-.541-1.192-.977-1.99-1.305-.796-.328-1.737-.493-2.822-.493H3.195zM1.748 44.83H6.47c.885 0 1.772.147 2.663.442.891.295 1.695.74 2.412 1.337a6.779 6.779 0 011.738 2.23c.442.892.663 1.926.663 3.105 0 1.193-.22 2.23-.663 3.115a6.803 6.803 0 01-1.738 2.22 7.334 7.334 0 01-2.412 1.336 8.423 8.423 0 01-2.663.443H1.748zM27.31 59.058h-9.063V44.83h8.822v1.326h-7.375V51h6.892v1.327h-6.892v5.406h7.616zM46.641 59.058h-8.078V44.83h1.447v12.902h6.631zM51.886 53.994h6.17l-3.075-7.476zm-2.11 5.063h-1.688l6.19-14.227h1.406l6.19 14.227h-1.688l-1.568-3.737h-7.274zM81.024 48.528a3.073 3.073 0 00-1.135-.864c-.449-.201-.968-.302-1.557-.302-.59 0-1.136.114-1.638.342a3.918 3.918 0 00-1.306.955 4.434 4.434 0 00-.864 1.456 5.244 5.244 0 00-.312 1.829c0 .67.104 1.283.312 1.839.207.556.492 1.038.854 1.447.361.408.786.727 1.276.954a3.685 3.685 0 001.577.341c.643 0 1.213-.133 1.708-.401a3.394 3.394 0 001.226-1.125l2.612 1.949a5.432 5.432 0 01-2.29 1.868 7.088 7.088 0 01-2.854.603c-1.112 0-2.137-.174-3.075-.522a7.033 7.033 0 01-2.431-1.497 6.78 6.78 0 01-1.598-2.361c-.382-.925-.573-1.956-.573-3.095 0-1.139.191-2.17.573-3.095a6.79 6.79 0 011.598-2.36 7.04 7.04 0 012.431-1.498c.938-.349 1.963-.523 3.075-.523.402 0 .82.038 1.256.111.435.074.864.191 1.286.352.422.16.827.375 1.216.643.388.268.737.596 1.044.984zM89.384 51.944c0 .67.104 1.283.312 1.839a4.2 4.2 0 00.894 1.447c.388.408.854.727 1.396.954.543.228 1.149.342 1.819.342.67 0 1.276-.114 1.819-.342a4.071 4.071 0 001.396-.954c.389-.409.687-.891.895-1.447a5.221 5.221 0 00.311-1.84c0-.655-.104-1.265-.311-1.828a4.188 4.188 0 00-.895-1.456 4.079 4.079 0 00-1.396-.955c-.543-.228-1.15-.342-1.819-.342-.67 0-1.276.114-1.819.342a4.083 4.083 0 00-1.396.955 4.181 4.181 0 00-.894 1.456 5.244 5.244 0 00-.312 1.829m-3.255 0c0-1.139.19-2.17.572-3.095a6.8 6.8 0 011.598-2.36 7.04 7.04 0 012.431-1.498c.938-.349 1.963-.523 3.075-.523s2.137.174 3.075.523a7.045 7.045 0 012.431 1.497 6.794 6.794 0 011.598 2.361c.382.925.573 1.956.573 3.095 0 1.139-.191 2.17-.573 3.095A6.79 6.79 0 0199.31 57.4a7.045 7.045 0 01-2.431 1.497c-.938.348-1.963.522-3.075.522s-2.137-.174-3.075-.522A7.04 7.04 0 0188.3 57.4a6.796 6.796 0 01-1.598-2.361c-.382-.925-.572-1.956-.572-3.095M108.153 50.136h6.089V44.83h3.135v14.227h-3.135v-6.149h-6.09v6.15h-3.134V44.83h3.135zM126.58 40.891h4.099l-3.476 2.894h-2.653zm-4.783 3.939h9.666v2.894h-6.53v2.653h6.168v2.894h-6.169v2.893h6.893v2.894h-10.028zM142.776 48.307a2.236 2.236 0 00-1.034-.714 3.716 3.716 0 00-1.236-.23 3.22 3.22 0 00-.703.08c-.241.054-.47.137-.684.25a1.487 1.487 0 00-.522.453c-.134.188-.201.415-.201.683 0 .429.161.757.482.985.322.228.727.422 1.216.583.489.16 1.015.321 1.578.482.562.16 1.088.389 1.577.683.489.295.894.69 1.216 1.186.321.496.482 1.159.482 1.99 0 .79-.148 1.48-.442 2.07a4.206 4.206 0 01-1.196 1.466 5.079 5.079 0 01-1.748.864 7.693 7.693 0 01-2.1.281c-.924 0-1.782-.14-2.572-.421-.79-.282-1.528-.737-2.21-1.367l2.23-2.452c.321.43.727.76 1.216.995a3.423 3.423 0 002.291.26c.26-.059.495-.15.703-.27a1.52 1.52 0 00.502-.462c.127-.187.191-.409.191-.663 0-.43-.164-.767-.492-1.015-.329-.248-.74-.459-1.236-.633a39.178 39.178 0 00-1.608-.523 7.212 7.212 0 01-1.607-.703A3.874 3.874 0 01135.633 51c-.328-.481-.493-1.118-.493-1.909 0-.763.151-1.433.453-2.01a4.37 4.37 0 011.205-1.446 5.248 5.248 0 011.739-.874 7.123 7.123 0 012.029-.292c.804 0 1.58.114 2.331.342.75.228 1.427.61 2.03 1.146zM151.78 44.83h-3.136v14.228h3.135zM158.531 51.944c0 .67.104 1.283.311 1.839a4.2 4.2 0 00.895 1.447 4.07 4.07 0 001.396.954c.543.228 1.149.342 1.819.342.67 0 1.276-.114 1.82-.342a4.074 4.074 0 001.395-.954c.389-.409.687-.891.894-1.447a5.21 5.21 0 00.312-1.84c0-.655-.104-1.265-.312-1.828a4.18 4.18 0 00-.894-1.456 4.081 4.081 0 00-1.396-.955 4.665 4.665 0 00-1.82-.342c-.67 0-1.275.114-1.818.342a4.077 4.077 0 00-1.396.955 4.182 4.182 0 00-.895 1.456 5.243 5.243 0 00-.31 1.829m-3.256 0c0-1.139.19-2.17.572-3.095a6.788 6.788 0 011.598-2.36 7.031 7.031 0 012.431-1.498c.938-.349 1.963-.523 3.075-.523s2.137.174 3.075.523a7.045 7.045 0 012.431 1.497 6.794 6.794 0 011.598 2.361c.381.925.572 1.956.572 3.095 0 1.139-.19 2.17-.572 3.095a6.79 6.79 0 01-1.598 2.361 7.045 7.045 0 01-2.431 1.497c-.938.348-1.963.522-3.075.522s-2.137-.174-3.075-.522a7.031 7.031 0 01-2.431-1.497 6.783 6.783 0 01-1.598-2.361c-.382-.925-.572-1.956-.572-3.095M184.474 54.717h.04V44.83h3.135v14.227h-4.1l-6.21-10.128h-.04v10.128h-3.134V44.83h4.26zM3.195 79.741H6.01c1.085 0 2.026-.164 2.823-.493.797-.327 1.46-.763 1.99-1.306a5.21 5.21 0 001.175-1.849 6.14 6.14 0 00.382-2.14 6.14 6.14 0 00-.382-2.14 5.214 5.214 0 00-1.176-1.849c-.53-.542-1.192-.977-1.99-1.306-.796-.328-1.737-.492-2.822-.492H3.195zM1.748 66.84H6.47c.885 0 1.772.147 2.663.441.891.296 1.695.741 2.412 1.337a6.779 6.779 0 011.738 2.23c.442.892.663 1.927.663 3.105 0 1.193-.22 2.23-.663 3.115a6.803 6.803 0 01-1.738 2.22 7.334 7.334 0 01-2.412 1.337 8.423 8.423 0 01-2.663.442H1.748zM27.31 81.067h-9.063V66.84h8.822v1.326h-7.375v4.843h6.892v1.326h-6.892v5.406h7.616zM38.302 69.19c-.63-.924-1.548-1.386-2.753-1.386-.376 0-.744.05-1.106.151a3.04 3.04 0 00-.974.462c-.288.208-.52.476-.694.804-.174.328-.261.713-.261 1.155 0 .643.18 1.143.543 1.497.361.355.81.647 1.346.875a14.87 14.87 0 001.759.612 8.11 8.11 0 011.758.724c.535.301.984.7 1.346 1.195.362.497.543 1.173.543 2.03 0 .643-.138 1.223-.412 1.739a4 4 0 01-1.085 1.296 5.083 5.083 0 01-1.508.803 5.219 5.219 0 01-1.678.281 6.36 6.36 0 01-2.481-.491c-.784-.329-1.45-.868-2-1.618l1.327-.945c.307.523.734.942 1.281 1.256.548.315 1.196.473 1.943.473.36 0 .722-.057 1.082-.172.36-.113.684-.28.972-.502.287-.22.524-.492.711-.813.187-.322.28-.69.28-1.106 0-.495-.104-.907-.31-1.236a2.687 2.687 0 00-.825-.823 5.181 5.181 0 00-1.165-.553 80.52 80.52 0 00-1.347-.442 14.58 14.58 0 01-1.346-.503 4.61 4.61 0 01-1.166-.713 3.207 3.207 0 01-.824-1.085c-.208-.435-.311-.981-.311-1.638 0-.683.13-1.28.391-1.789.262-.509.61-.93 1.045-1.265a4.432 4.432 0 011.478-.744 5.952 5.952 0 011.688-.241c.803 0 1.533.127 2.19.381.656.256 1.266.704 1.829 1.347zM49.354 66.84h11.254v2.773h-4.06v11.454h-3.135V69.613h-4.059zM73.388 69.733h-6.53v2.653h6.169v2.894h-6.17v2.893h6.893v2.894H63.722V66.84h9.666zM80.803 72.727h1.849c.281 0 .58-.01.894-.03.315-.02.6-.08.854-.18.255-.101.466-.258.633-.473.167-.214.252-.516.252-.904 0-.362-.075-.65-.222-.864a1.48 1.48 0 00-.562-.493 2.508 2.508 0 00-.784-.23 6.421 6.421 0 00-.864-.06h-2.05zm-3.135-5.887h5.507c.723 0 1.41.07 2.06.21.649.141 1.218.376 1.708.704.488.328.877.77 1.165 1.326.288.556.432 1.25.432 2.08 0 1.005-.261 1.859-.784 2.562-.522.704-1.286 1.15-2.29 1.337l3.616 6.008h-3.757L82.35 75.38h-1.548v5.687h-3.135zM95.232 72.727h1.848c.282 0 .58-.01.894-.03.315-.02.6-.08.855-.18.254-.101.465-.258.633-.473.167-.214.251-.516.251-.904 0-.362-.074-.65-.221-.864a1.48 1.48 0 00-.563-.493 2.508 2.508 0 00-.784-.23 6.421 6.421 0 00-.864-.06h-2.05zm-3.135-5.887h5.506c.723 0 1.41.07 2.06.21.65.141 1.219.376 1.708.704.488.328.877.77 1.165 1.326.288.556.432 1.25.432 2.08 0 1.005-.26 1.859-.784 2.562-.522.704-1.286 1.15-2.29 1.337l3.617 6.008h-3.758l-2.974-5.687h-1.547v5.687h-3.135zM109.62 66.84h-3.135v14.227h3.135zM112.574 66.84h11.253v2.773h-4.06v11.454h-3.134V69.613h-4.06zM129.313 73.953c0 .67.103 1.283.311 1.839.207.556.505 1.038.894 1.447a4.07 4.07 0 001.397.954c.542.229 1.148.342 1.819.342.67 0 1.275-.113 1.819-.342a4.075 4.075 0 001.396-.954c.388-.409.687-.89.894-1.447a5.21 5.21 0 00.312-1.839 5.23 5.23 0 00-.312-1.828 4.182 4.182 0 00-.894-1.457 4.08 4.08 0 00-1.396-.955 4.664 4.664 0 00-1.82-.341 4.66 4.66 0 00-1.818.341 4.076 4.076 0 00-1.397.955 4.176 4.176 0 00-.894 1.457 5.23 5.23 0 00-.311 1.828m-3.256 0c0-1.138.191-2.17.573-3.095a6.788 6.788 0 011.597-2.36A7.043 7.043 0 01130.66 67c.938-.348 1.962-.522 3.075-.522 1.112 0 2.136.174 3.074.522a7.052 7.052 0 012.432 1.497 6.794 6.794 0 011.597 2.361c.382.925.573 1.957.573 3.095 0 1.14-.191 2.17-.573 3.095a6.79 6.79 0 01-1.597 2.361 7.038 7.038 0 01-2.432 1.497c-.938.348-1.962.523-3.074.523-1.113 0-2.137-.175-3.075-.523a7.029 7.029 0 01-2.432-1.497 6.783 6.783 0 01-1.597-2.36c-.382-.926-.573-1.956-.573-3.096M148.041 66.84h-3.134v14.227h3.134zM155.436 72.727h1.85c.28 0 .578-.01.893-.03.315-.02.6-.08.854-.18.255-.101.466-.258.633-.473.167-.214.252-.516.252-.904 0-.362-.074-.65-.221-.864a1.484 1.484 0 00-.564-.493 2.505 2.505 0 00-.783-.23 6.425 6.425 0 00-.864-.06h-2.05zm-3.135-5.887h5.506c.724 0 1.41.07 2.06.21.65.141 1.22.376 1.708.704.489.328.877.77 1.166 1.326.288.556.432 1.25.432 2.08 0 1.005-.261 1.859-.783 2.562-.524.704-1.287 1.15-2.291 1.337l3.616 6.008h-3.757l-2.975-5.687h-1.547v5.687h-3.135zM176.516 69.733h-6.53v2.653h6.168v2.894h-6.169v2.893h6.893v2.894h-10.027V66.84h9.665zM187.83 70.316c-.255-.321-.6-.559-1.036-.714a3.724 3.724 0 00-1.235-.23c-.228 0-.462.026-.704.08-.24.054-.469.137-.682.25a1.485 1.485 0 00-.523.454c-.134.187-.2.415-.2.682 0 .43.16.758.481.986.322.227.727.421 1.216.582.489.161 1.015.321 1.577.482a6.52 6.52 0 011.578.683c.489.295.894.69 1.216 1.186.321.496.482 1.159.482 1.99 0 .79-.147 1.48-.442 2.07a4.201 4.201 0 01-1.196 1.467 5.085 5.085 0 01-1.748.863 7.7 7.7 0 01-2.1.281c-.924 0-1.782-.14-2.572-.422-.79-.28-1.528-.736-2.21-1.366l2.23-2.451c.322.428.727.76 1.216.995a3.426 3.426 0 002.291.26c.26-.06.495-.15.703-.27.207-.121.375-.275.502-.463a1.15 1.15 0 00.191-.663c0-.429-.164-.767-.492-1.015a4.538 4.538 0 00-1.236-.633 39.412 39.412 0 00-1.607-.522 7.216 7.216 0 01-1.608-.703 3.877 3.877 0 01-1.236-1.166c-.329-.483-.492-1.119-.492-1.91 0-.763.15-1.433.452-2.01a4.36 4.36 0 011.205-1.446 5.258 5.258 0 011.739-.874 7.128 7.128 0 012.029-.292 7.97 7.97 0 012.331.343c.75.227 1.427.61 2.03 1.145z"/></g></g></svg>
