<svg width="1387" height="276" viewBox="0 0 1387 276" fill="none" xmlns="http://www.w3.org/2000/svg">
<path d="M450.214 94.6058V141.994H443.401V133.676C439.349 138.759 434.654 141.762 429.314 142.686C427.657 142.975 425.878 143.119 423.975 143.119C415.689 143.119 408.969 140.462 403.813 135.149C399.271 130.586 397 125.013 397 118.43C397 110.922 399.794 104.741 405.379 99.8898C410.349 95.6166 416.395 93.4791 423.514 93.4791C431.554 93.4791 437.938 96.3383 442.663 102.055L443.401 103.009V94.6058H450.214ZM423.7 99.3706C417.684 99.3706 412.713 101.506 408.785 105.781C406.268 108.438 404.734 111.527 404.181 115.051C403.998 116.022 403.906 117.008 403.906 117.995C403.906 124.06 406.237 128.97 410.903 132.724C414.647 135.727 419.034 137.229 424.068 137.229C430.081 137.229 434.993 135.034 438.797 130.645C441.866 127.121 443.401 122.935 443.401 118.082C443.401 112.192 441.099 107.398 436.495 103.701C432.875 100.814 428.609 99.3706 423.7 99.3706V99.3706ZM517.88 77.9717V141.994H511.068V133.416C506.955 138.961 501.86 142.108 495.784 142.859C494.557 143.032 493.268 143.119 491.918 143.119C483.754 143.119 477.003 140.521 471.663 135.322C466.877 130.645 464.483 124.984 464.483 118.343C464.483 110.949 467.276 104.857 472.86 100.063C477.894 95.6737 484.031 93.4791 491.273 93.4791C499.376 93.4791 505.972 96.3661 511.068 102.142V77.9717H517.88ZM491.09 99.3706C485.074 99.3706 480.103 101.506 476.174 105.781C472.984 109.303 471.388 113.405 471.388 118.082C471.388 124.089 473.72 128.97 478.385 132.724C482.19 135.727 486.639 137.229 491.734 137.229C497.564 137.229 502.444 135.092 506.371 130.818C509.685 127.179 511.343 122.963 511.343 118.17C511.343 112.509 509.042 107.803 504.439 104.049C500.633 100.93 496.183 99.3706 491.09 99.3706V99.3706ZM534.083 141.994V94.6058H540.896V101.363C543.167 96.9148 547.125 94.3446 552.772 93.6522C553.508 93.595 554.305 93.5363 555.165 93.4791V99.8033C545.651 100.669 540.896 105.52 540.896 114.357V141.994H534.083ZM614.27 120.422H568.698C569.006 125.619 571.461 129.894 576.064 133.243C579.685 135.9 583.766 137.229 588.308 137.229C593.893 137.229 598.588 135.322 602.394 131.511C603.893 130.06 605.083 128.321 605.893 126.4H612.981C611.692 130.095 609.237 133.562 605.616 136.795C600.828 141.011 595.121 143.119 588.492 143.119C580.759 143.119 574.314 140.549 569.159 135.41C564.311 130.616 561.887 124.84 561.887 118.082C561.887 110.922 564.586 104.944 569.987 100.149C574.959 95.7031 580.974 93.4791 588.031 93.4791C595.336 93.4791 601.535 95.8468 606.629 100.582C608.267 102.118 609.691 103.866 610.863 105.781C613.134 109.535 614.27 114.414 614.27 120.422V120.422ZM568.883 114.617H607.457C605.862 108.09 602.209 103.587 596.501 101.103C593.924 99.947 591.071 99.3706 587.94 99.3706C581.679 99.3706 576.678 101.622 572.934 106.127C570.909 108.552 569.557 111.384 568.883 114.617ZM624.121 128.046H630.841C631.149 132.897 633.327 135.843 637.377 136.881C638.299 137.113 639.28 137.229 640.324 137.229C643.7 137.229 646.155 135.872 647.688 133.157C648.426 131.943 648.794 130.557 648.794 128.998C648.794 126.284 647.719 124.233 645.572 122.848C644.099 121.924 641.919 120.941 639.034 119.902C634.432 118.111 631.701 116.898 630.841 116.263C630.453 115.969 630.085 115.651 629.737 115.311C627.22 113.116 625.962 110.286 625.962 106.82C625.962 102.027 627.925 98.3598 631.854 95.8175C634.308 94.2581 637.102 93.4791 640.232 93.4791C645.572 93.4791 649.53 95.3847 652.108 99.1959C653.52 101.217 654.286 103.587 654.41 106.301H647.504C647.137 101.795 644.682 99.4849 640.14 99.3706C637.255 99.3706 635.137 100.554 633.788 102.922C633.172 103.909 632.852 105.051 632.866 106.214C632.866 108.928 634.401 111.008 637.47 112.452C638.697 113.03 641.859 114.3 646.953 116.263C652.784 118.573 655.698 122.616 655.698 128.392C655.698 133.821 653.551 137.921 649.254 140.694C646.738 142.311 643.76 143.119 640.324 143.119C634.002 143.119 629.399 140.924 626.514 136.535C624.98 134.11 624.183 131.28 624.121 128.046V128.046ZM664.445 128.046H671.165C671.473 132.897 673.651 135.843 677.701 136.881C678.622 137.113 679.604 137.229 680.648 137.229C684.024 137.229 686.479 135.872 688.012 133.157C688.75 131.943 689.118 130.557 689.118 128.998C689.118 126.284 688.043 124.233 685.894 122.848C684.423 121.924 682.243 120.941 679.358 119.902C674.756 118.111 672.024 116.898 671.165 116.263C670.777 115.969 670.408 115.651 670.061 115.311C667.544 113.116 666.286 110.286 666.286 106.82C666.286 102.027 668.249 98.3598 672.177 95.8175C674.632 94.2581 677.426 93.4791 680.555 93.4791C685.894 93.4791 689.854 95.3847 692.432 99.1959C693.844 101.217 694.61 103.587 694.734 106.301H687.828C687.46 101.795 685.005 99.4849 680.464 99.3706C677.579 99.3706 675.461 100.554 674.111 102.922C673.496 103.909 673.176 105.051 673.19 106.214C673.19 108.928 674.725 111.008 677.794 112.452C679.021 113.03 682.183 114.3 687.276 116.263C693.106 118.573 696.022 122.616 696.022 128.392C696.022 133.821 693.874 137.921 689.578 140.694C687.062 142.311 684.084 143.119 680.648 143.119C674.326 143.119 669.723 140.924 666.838 136.535C665.304 134.11 664.507 131.28 664.445 128.046V128.046ZM759.361 120.422H713.791C714.097 125.619 716.552 129.894 721.155 133.243C724.776 135.9 728.859 137.229 733.399 137.229C738.985 137.229 743.679 135.322 747.485 131.511C748.985 130.061 750.175 128.322 750.984 126.4H758.074C756.784 130.095 754.329 133.562 750.707 136.795C745.921 141.011 740.212 143.119 733.585 143.119C725.85 143.119 719.407 140.549 714.251 135.41C709.402 130.616 706.978 124.84 706.978 118.082C706.978 110.922 709.678 104.944 715.08 100.149C720.05 95.7031 726.065 93.4791 733.124 93.4791C740.427 93.4791 746.626 95.8468 751.72 100.582C753.358 102.118 754.782 103.867 755.956 105.781C758.227 109.535 759.361 114.414 759.361 120.422V120.422ZM713.975 114.617H752.548C750.953 108.09 747.302 103.587 741.594 101.103C739.015 99.947 736.162 99.3706 733.031 99.3706C726.772 99.3706 721.769 101.622 718.025 106.127C716 108.552 714.65 111.384 713.975 114.617V114.617ZM779.063 133.33C776.302 133.33 774 135.496 774 138.268C774 140.781 776.302 142.946 778.971 142.946C781.825 142.946 784.218 140.867 784.218 138.268C784.218 135.583 781.825 133.33 779.063 133.33ZM849.308 77.9717V141.994H838.075V135.756C833.719 140.376 828.563 142.831 822.61 143.119H821.228C813.741 143.119 807.511 140.521 802.539 135.322C797.937 130.529 795.635 124.724 795.635 117.909C795.635 110.401 798.305 104.135 803.644 99.1094C808.492 94.5471 814.324 92.2659 821.136 92.2659C827.52 92.2659 832.644 94.0571 836.511 97.6365C836.695 97.8683 836.879 98.0708 837.063 98.2439V77.9717H849.308V77.9717ZM822.885 102.836C817.915 102.836 813.956 104.712 811.009 108.466C808.984 111.065 807.971 114.04 807.971 117.389C807.971 122.414 809.904 126.428 813.772 129.432C816.472 131.511 819.601 132.551 823.162 132.551C828.01 132.551 831.907 130.673 834.853 126.919C836.94 124.262 837.984 121.201 837.984 117.736C837.984 112.654 835.99 108.668 832 105.781C829.115 103.933 826.077 102.951 822.885 102.836V102.836ZM912.555 93.9984V141.994H901.323V135.756C897.273 140.088 892.547 142.513 887.146 143.032C886.286 143.091 885.366 143.119 884.383 143.119C876.343 143.119 869.869 140.434 864.959 135.062C860.785 130.443 858.698 124.811 858.698 118.17C858.698 110.198 861.521 103.788 867.168 98.9363C871.956 94.8933 877.785 92.8718 884.66 92.8718C891.349 92.8718 896.659 95.0664 900.586 99.4571C900.832 99.7446 901.078 100.063 901.323 100.409V93.9984H912.555V93.9984ZM885.949 103.441C880.548 103.441 876.467 105.463 873.704 109.506C871.925 112.047 871.034 115.022 871.034 118.43C871.034 123.8 873.183 127.757 877.479 130.297C879.934 131.8 882.819 132.551 886.133 132.551C890.981 132.551 894.695 131.106 897.273 128.219C899.544 125.33 900.772 122.038 900.956 118.343C900.956 112.855 898.868 108.727 894.694 105.954C892.178 104.279 889.264 103.441 885.949 103.441V103.441ZM928.114 141.994V104.482H922.13V93.9984H928.114V77.9717H940.358V93.9984H947.723V104.482H940.358V141.994H928.114ZM1009.41 93.9984V141.994H998.174V135.756C994.124 140.088 989.398 142.513 983.996 143.032C983.137 143.091 982.217 143.119 981.234 143.119C973.193 143.119 966.719 140.434 961.809 135.062C957.635 130.443 955.548 124.811 955.548 118.17C955.548 110.198 958.371 103.788 964.018 98.9363C968.806 94.8933 974.636 92.8718 981.51 92.8718C988.2 92.8718 993.51 95.0664 997.438 99.4571C997.682 99.7446 997.928 100.063 998.174 100.409V93.9984H1009.41V93.9984ZM982.8 103.441C977.398 103.441 973.317 105.463 970.555 109.506C968.775 112.047 967.885 115.022 967.885 118.43C967.885 123.8 970.034 127.757 974.33 130.297C976.785 131.8 979.669 132.551 982.984 132.551C987.832 132.551 991.545 131.106 994.124 128.219C996.395 125.33 997.622 122.038 997.806 118.343C997.806 112.855 995.719 108.727 991.545 105.954C989.028 104.279 986.114 103.441 982.8 103.441V103.441ZM1029.66 133.33C1026.9 133.33 1024.6 135.496 1024.6 138.268C1024.6 140.781 1026.9 142.946 1029.57 142.946C1032.42 142.946 1034.82 140.867 1034.82 138.268C1034.82 135.583 1032.42 133.33 1029.66 133.33ZM1090.33 93.9984H1102.02V132.897C1102.02 141.675 1100.3 148.173 1096.87 152.389C1091.96 158.223 1084.87 161.139 1075.6 161.139C1065.84 161.139 1058.35 158.078 1053.14 151.956C1051.58 150.135 1050.31 148.09 1049.36 145.891H1063.26C1066.21 148.953 1069.74 150.628 1073.85 150.916C1074.53 150.975 1075.26 151.002 1076.06 151.002C1085.14 151.002 1089.9 145.891 1090.33 135.67C1086.4 140 1081.86 142.426 1076.7 142.946C1075.66 143.065 1074.62 143.122 1073.57 143.119C1065.72 143.119 1059.4 140.376 1054.61 134.889C1050.56 130.211 1048.53 124.465 1048.53 117.649C1048.53 109.968 1051.26 103.73 1056.73 98.9363C1061.39 94.8933 1067.04 92.8718 1073.67 92.8718C1081.03 92.8718 1086.59 95.2688 1090.33 100.063V93.9984V93.9984ZM1075.05 103.441C1069.46 103.441 1065.41 105.608 1062.89 109.939C1061.54 112.306 1060.87 115.051 1060.87 118.17C1060.87 124.119 1063.14 128.335 1067.68 130.818C1069.83 131.973 1072.35 132.551 1075.23 132.551C1081 132.551 1085.17 130.413 1087.75 126.14C1089.1 123.887 1089.78 121.23 1089.78 118.17C1089.78 112.509 1087.63 108.351 1083.33 105.695C1081.25 104.366 1078.85 103.614 1076.15 103.441H1075.05V103.441ZM1140.87 92.8718C1148.85 92.8718 1155.48 95.5006 1160.76 100.755C1165.67 105.608 1168.12 111.47 1168.12 118.343C1168.12 125.1 1165.42 130.933 1160.02 135.843C1154.68 140.694 1148.33 143.119 1140.96 143.119C1133.41 143.119 1126.97 140.607 1121.63 135.583C1116.48 130.673 1113.9 124.811 1113.9 117.995C1113.9 111.008 1116.6 105.06 1122 100.149C1127.28 95.2982 1133.57 92.8718 1140.87 92.8718V92.8718ZM1140.96 103.441C1136.36 103.441 1132.55 105.203 1129.55 108.727C1127.34 111.384 1126.23 114.414 1126.23 117.822C1126.23 122.732 1128.17 126.659 1132.03 129.605C1134.67 131.568 1137.68 132.551 1141.06 132.551C1145.78 132.551 1149.62 130.732 1152.56 127.092C1154.71 124.435 1155.79 121.403 1155.79 117.995C1155.79 113.317 1153.91 109.506 1150.17 106.56C1147.47 104.481 1144.4 103.441 1140.96 103.441V103.441ZM1225.02 93.9984V141.994H1213.69V137.402C1210.13 140.694 1206.27 142.542 1202.09 142.946L1199.06 143.119C1192.18 143.119 1187 140.751 1183.5 136.016C1181.16 132.781 1179.91 128.392 1179.72 122.848C1179.66 121.81 1179.63 120.77 1179.63 119.729V93.9984H1191.88V117.476C1191.88 123.541 1192.7 127.554 1194.36 129.518C1195.96 131.54 1198.35 132.551 1201.54 132.551C1205.9 132.551 1209 131.078 1210.84 128.132C1212.13 126.284 1212.77 122.443 1212.77 116.611V93.9984H1225.02V93.9984ZM1255.12 141.994L1234.59 93.9984H1248.22L1260 125.792L1271.6 93.9984H1285.41L1264.88 141.994H1255.12V141.994ZM1292.28 133.333C1289.68 133.333 1287.52 135.498 1287.52 138.269C1287.52 140.781 1289.68 142.946 1292.19 142.946C1294.88 142.946 1297.13 140.867 1297.13 138.269C1297.13 135.585 1294.88 133.333 1292.28 133.333ZM1312.99 99.8667H1322.53L1312.89 144.508C1310.37 156.036 1306.92 161.799 1302.41 161.799C1301.15 161.799 1300.31 161.065 1300.31 160.017C1300.31 159.704 1300.42 159.493 1300.73 158.969C1301.15 158.237 1301.26 157.816 1301.26 157.189C1301.26 154.883 1299.37 153.101 1297.06 153.101C1294.86 153.101 1293.18 155.092 1293.18 157.608C1293.18 161.17 1296.85 164 1301.46 164C1311 164 1318.45 153.52 1323.06 133.925L1330.92 99.8667H1342.55L1343.18 96.5129H1331.76C1334.9 79.7459 1338.99 72.3059 1344.86 72.3059C1346.33 72.3059 1347.17 72.8298 1347.17 73.6675C1347.17 73.8776 1347.06 74.1914 1346.75 74.7153C1346.22 75.5545 1346.12 76.0784 1346.12 76.9161C1346.12 79.4321 1347.69 81.1075 1350 81.1075C1352.41 81.1075 1354.5 79.1169 1354.5 76.811C1354.5 72.9349 1350.63 70 1345.39 70C1340.25 70 1336.06 72.3059 1332.18 77.2314C1329.03 81.4227 1326.83 86.2431 1323.58 96.5129H1313.73L1312.99 99.8667V99.8667ZM1355.76 141.994C1361.53 123.655 1363.31 119.358 1368.13 111.289C1371.8 105.316 1374.74 102.067 1376.52 102.067C1377.25 102.067 1377.78 102.486 1378.3 103.534C1379.14 105.316 1379.98 105.84 1382.07 105.84C1385.22 105.84 1387 103.953 1387 100.599C1387 97.247 1385.01 95.1498 1382.07 95.1498C1379.66 95.1498 1376.73 96.7231 1374 99.6565C1369.6 104.058 1365.2 110.45 1363.52 114.538L1361.95 118.414L1367.82 95.36L1367.5 95.1498C1359.85 96.5129 1358.7 96.7231 1351.05 97.9796V99.7616C1353.35 99.3427 1353.77 99.2376 1354.61 99.2376C1356.92 99.2376 1358.28 100.285 1358.28 102.171C1358.28 103.534 1357.44 107.831 1356.6 110.974L1347.69 141.994H1355.76Z" fill="#373C42"/>
<path d="M0.12085 73.1406H11.2445C19.3453 73.1406 24.3026 77.251 24.3026 84.021C24.3026 88.3732 22.1262 91.7582 18.499 93.4507L29.9853 109.65H21.159L11.4863 94.9015H7.49628V109.65H0.12085V73.1406ZM7.49628 79.4271V88.4941H11.7281C14.8717 88.4941 16.6853 86.8016 16.6853 83.9002C16.6853 81.1196 14.8717 79.4271 11.7281 79.4271H7.49628Z" fill="black"/>
<path d="M34.5798 73.1407H55.8598V79.4271H41.9553V87.8897H53.8043V94.1761H41.9553V103.364H55.8598V109.651H34.5798V73.1407ZM41.8344 69.9974L47.7589 62.9856H55.3761L48.6052 69.9974H41.8344Z" fill="black"/>
<path d="M64.5653 73.1406H76.6562C84.7571 73.1406 89.5934 77.251 89.5934 84.021C89.5934 90.7911 84.6362 94.9015 76.6562 94.9015H72.0616V109.65H64.6862L64.5653 73.1406ZM71.9407 79.4271V88.4941H76.898C80.0416 88.4941 81.8552 86.8016 81.8552 83.9002C81.8552 81.1196 79.9207 79.4271 76.898 79.4271H71.9407Z" fill="black"/>
<path d="M117.282 73.1406H124.657V95.385C124.657 105.057 118.974 110.739 109.785 110.739C100.596 110.739 95.0343 104.936 95.0343 95.385V73.1406H102.41V95.9895C102.41 100.946 105.191 103.727 109.785 103.727C114.38 103.727 117.161 100.825 117.161 95.9895V73.1406H117.282Z" fill="black"/>
<path d="M133.846 73.1406H144.244C151.861 73.1406 156.456 76.8883 156.456 83.0539C156.456 85.9553 155.126 88.4941 152.587 90.3075C156.456 92 158.632 95.1433 158.632 99.0118C158.632 105.661 153.433 109.771 145.09 109.771H133.967V73.1406H133.846ZM141.221 79.4271V87.4061H144.365C147.146 87.4061 148.839 85.9553 148.839 83.4166C148.839 80.9987 147.267 79.4271 144.365 79.4271H141.221ZM141.221 93.8134V103.364H145.453C148.96 103.364 151.015 101.551 151.015 98.5283C151.015 95.5059 148.96 93.8134 145.453 93.8134H141.221Z" fill="black"/>
<path d="M166.25 73.1406H173.625V103.001H187.529V109.771H166.25V73.1406Z" fill="black"/>
<path d="M194.058 73.1406H201.434V109.771H194.058V73.1406Z" fill="black"/>
<path d="M250.039 112.189C250.765 112.189 251.853 112.068 252.699 111.826V118.113C251.49 118.597 250.402 118.838 248.83 118.838C244.719 118.838 240.971 117.146 237.344 114.003L232.991 110.134C231.419 110.497 229.727 110.738 228.034 110.738C216.427 110.738 208.568 101.913 208.568 91.3955C208.568 80.9986 216.427 72.0525 228.034 72.0525C239.52 72.0525 247.379 80.8777 247.379 91.3955C247.379 97.561 244.719 103.122 240.125 106.628L242.301 108.683C245.203 111.222 247.742 112.189 250.039 112.189V112.189ZM239.762 91.3955C239.762 84.3836 234.805 79.0643 228.034 79.0643C221.142 79.0643 216.185 84.5045 216.185 91.3955C216.185 98.4073 221.142 103.727 228.034 103.727C234.805 103.727 239.762 98.4073 239.762 91.3955Z" fill="black"/>
<path d="M276.156 73.1406H283.531V95.385C283.531 105.057 277.848 110.739 268.659 110.739C259.47 110.739 253.908 104.936 253.908 95.385V73.1406H261.284V95.9895C261.284 100.946 264.065 103.727 268.659 103.727C273.254 103.727 276.035 100.825 276.035 95.9895L276.156 73.1406Z" fill="black"/>
<path d="M292.72 73.1406H314V79.4271H300.095V87.8896H311.944V94.1761H300.095V103.364H314V109.65H292.72V73.1406Z" fill="black"/>
<path d="M0.12085 125.85H21.4008V132.137H7.49628V140.599H19.3453V146.886H7.49628V162.36H0.12085V125.85Z" fill="black"/>
<path d="M27.9299 125.85H39.0535C47.1544 125.85 52.1117 129.96 52.1117 136.731C52.1117 141.083 49.9353 144.468 46.3081 146.16L57.7944 162.36H48.9681L39.2954 147.611H35.4263V162.36H28.0508L27.9299 125.85ZM35.4263 132.137V141.324H39.6581C42.8017 141.324 44.6153 139.632 44.6153 136.731C44.6153 133.95 42.8017 132.257 39.6581 132.257L35.4263 132.137Z" fill="black"/>
<path d="M73.2707 125.85H82.9434L96.8479 162.481H88.9889L85.4825 152.93H70.7316L67.2253 162.481H59.3662L73.2707 125.85ZM83.0643 146.523L78.1071 132.741L73.0289 146.523H83.0643Z" fill="black"/>
<path d="M102.41 125.85H111.961L128.284 152.084V125.85H135.66V162.481H126.108L109.785 136.247V162.481H102.41V125.85Z" fill="black"/>
<path d="M171.811 151.48L177.615 155.953C174.834 159.821 170.36 162.481 165.04 163.206L160.446 170.823H153.917L158.511 163.085C148.96 161.393 142.672 153.414 142.672 144.105C142.672 133.708 150.531 124.762 162.139 124.762C168.789 124.762 174.23 127.785 177.494 132.137L171.69 136.731C169.635 133.708 166.25 131.774 162.139 131.774C155.247 131.774 150.29 137.214 150.29 144.105C150.29 151.117 155.247 156.436 162.139 156.436C166.491 156.436 169.756 154.502 171.811 151.48V151.48Z" fill="black"/>
<path d="M193.091 125.85H202.764L216.668 162.481H208.809L205.303 152.93H190.673L187.167 162.481H179.308L193.091 125.85ZM203.006 146.523L198.048 132.741L193.091 146.523H203.006Z" fill="black"/>
<path d="M222.351 125.85H229.727V162.481H222.351V125.85Z" fill="black"/>
<path d="M242.059 152.326C244.236 155.107 247.137 156.799 250.16 156.799C253.062 156.799 254.876 155.227 254.876 152.568C254.876 146.04 238.19 147.49 238.19 135.28C238.19 129.477 242.906 124.641 249.918 124.641C255.359 124.641 259.591 127.059 262.735 130.807L257.294 135.643C255.117 132.862 252.699 131.049 249.918 131.049C247.379 131.049 245.686 132.741 245.686 134.917C245.686 141.446 262.372 139.874 262.372 152.326C262.251 159.096 256.931 163.327 250.281 163.327C244.115 163.327 239.883 161.03 236.739 157.162L242.059 152.326Z" fill="black"/>
<path d="M270.231 125.85H291.511V132.137H277.606V140.599H289.455V146.886H277.606V156.073H291.511V162.36H270.231V125.85Z" fill="black"/>
<path d="M119.095 263.427C120.062 263.427 120.909 264.152 120.546 266.087L115.951 267.175C116.798 264.999 118.128 263.427 119.095 263.427ZM121.755 270.802H120.788C119.579 272.131 118.37 273.219 117.161 273.219C115.951 273.219 115.226 272.494 115.226 270.802C115.226 270.076 115.347 269.351 115.468 268.746L122.843 266.328C124.294 262.943 122.601 261.372 120.546 261.372C117.04 261.372 113.05 267.296 113.05 272.373C113.05 274.67 114.138 276 115.831 276C117.886 276 119.941 274.066 121.755 270.802ZM120.183 260.042L125.382 255.206V254.602H122.601L119.337 260.042H120.183ZM104.223 263.427H106.641L102.772 274.187C102.41 275.154 102.893 276 103.861 276C106.037 276 109.664 273.824 110.994 270.802H110.269C109.301 271.89 107.367 273.219 105.795 273.582L109.422 263.548H113.05L113.533 261.976H109.906L111.236 258.108H109.785L107.246 261.976L104.223 262.46V263.427ZM100.838 262.943C101.08 261.976 100.475 261.372 99.9915 261.372C97.8151 261.372 95.276 263.306 94.3088 265.966H95.0342C95.7597 264.999 96.9687 263.911 98.0569 263.669L93.946 274.307C93.5833 275.275 94.3088 275.879 94.7924 275.879C96.8478 275.879 99.266 273.945 100.233 271.285H99.5078C98.7824 272.252 97.5733 273.34 96.4851 273.582L100.838 262.943ZM101.563 257.624C102.531 257.624 103.377 256.899 103.377 255.811C103.377 254.844 102.531 253.997 101.563 253.997C100.596 253.997 99.7497 254.844 99.7497 255.811C99.8706 256.778 100.596 257.624 101.563 257.624ZM77.9861 274.066C77.5024 275.275 77.9861 276 79.1952 276C79.9206 276 80.2833 275.758 80.5252 275.033L83.427 267.537C84.757 265.966 87.417 264.152 88.5051 264.152C89.2306 264.152 89.2306 264.757 88.6261 265.724L84.2733 274.066C83.7897 274.912 84.3942 275.879 85.3615 275.879C87.5379 275.879 90.077 273.945 91.0442 271.285H90.3188C89.5933 272.252 88.3842 273.34 87.296 273.582L91.0442 265.966C91.5279 264.999 91.7697 264.031 91.7697 263.306C91.7697 262.097 91.0442 261.251 89.8351 261.251C88.0215 261.251 86.087 263.306 83.9106 265.966V264.031C83.9106 262.581 83.427 261.372 82.2179 261.372C81.3715 261.372 80.6461 262.097 79.9206 263.064V263.306C81.3715 263.185 81.9761 265.361 80.8879 267.537L77.9861 274.066ZM77.9861 264.636C78.4697 262.943 78.2279 261.372 76.8979 261.372C75.3261 261.372 74.9634 262.581 73.2706 266.087V264.152C73.2706 262.702 72.787 261.493 71.5779 261.493C70.127 261.493 68.6761 263.79 67.7088 266.087H68.4343C69.1597 264.999 69.8852 264.394 70.3688 264.394C70.9734 264.394 71.3361 265.361 70.3688 267.537L67.467 273.945C66.9834 275.154 67.467 275.879 68.6761 275.879C69.4016 275.879 69.7643 275.637 70.0061 274.912L72.9079 267.416C73.7543 266.449 74.4797 265.603 75.3261 264.636H77.9861ZM61.4216 263.427C62.3889 263.427 63.2352 264.152 62.8725 266.087L58.278 267.175C59.0034 264.999 60.4543 263.427 61.4216 263.427V263.427ZM63.9607 270.802H62.9934C61.7843 272.131 60.5752 273.219 59.3661 273.219C58.157 273.219 57.4316 272.494 57.4316 270.802C57.4316 270.076 57.5525 269.351 57.6734 268.746L65.0488 266.328C66.4997 262.943 64.807 261.372 62.7516 261.372C59.2452 261.372 55.2552 267.296 55.2552 272.373C55.2552 274.67 56.3434 276 58.0361 276C60.2125 276 62.2679 274.066 63.9607 270.802ZM46.5498 263.427H48.968L45.0989 274.187C44.7362 275.154 45.2198 276 46.1871 276C48.3634 276 51.9907 273.824 53.3207 270.802H52.5952C51.628 271.89 49.6934 273.219 48.1216 273.582L51.7489 263.548H55.3761L55.8598 261.976H52.2325L53.5625 258.108H52.1116L49.5725 261.976L46.5498 262.46V263.427ZM33.008 271.769C33.008 268.505 36.6353 264.031 38.6907 264.031C39.1744 264.031 39.5371 264.031 39.8998 264.152L37.7235 269.834C36.5144 271.285 34.5798 273.219 33.7335 273.219C33.2498 273.219 33.008 272.857 33.008 271.769V271.769ZM44.2525 260.767L43.1644 260.646L41.9553 261.855H41.7135C35.5471 261.855 30.348 268.746 30.348 273.703C30.348 275.154 31.1944 275.879 32.5244 275.879C34.0962 275.879 35.668 273.582 37.3607 271.164L37.2398 272.01C36.998 274.428 37.7235 275.758 39.0535 275.758C40.5044 275.758 41.9553 273.461 42.9225 271.164H42.1971C41.4716 272.252 40.7462 272.857 40.2626 272.857C39.658 272.857 39.2953 271.89 40.2626 269.713L44.2525 260.767ZM31.1944 264.636C31.678 262.943 31.4362 261.372 30.1062 261.372C28.5344 261.372 28.1717 262.581 26.479 266.087V264.152C26.479 262.702 25.9953 261.493 24.7862 261.493C23.3353 261.493 21.8844 263.79 20.9172 266.087H21.6426C22.3681 264.999 23.0935 264.394 23.5771 264.394C24.1817 264.394 24.5444 265.361 23.5771 267.537L20.6753 273.945C20.1917 275.154 20.6753 275.879 21.8844 275.879C22.6099 275.879 22.9726 275.637 23.2144 274.912L26.1162 267.416C26.9626 266.449 27.688 265.603 28.5344 264.636H31.1944ZM10.6399 275.516L10.8817 274.67C7.25446 273.945 6.89174 273.945 8.22174 270.076L9.67264 266.087H13.6626C15.4763 266.087 15.4763 266.812 15.2344 268.746H16.2017L18.6199 262.339H17.6526C16.8063 263.911 16.0808 264.999 14.1463 264.999H10.1563L12.2117 259.317C12.8163 257.503 13.179 257.141 15.5972 257.141H17.2899C19.829 257.141 20.0708 257.866 20.0708 260.284H21.0381L21.8844 255.932H7.25447L7.01265 256.778C9.91446 257.382 10.1563 257.624 8.82628 261.372L5.56174 270.197C4.23175 273.824 3.6272 274.187 0.362667 274.791L0.12085 275.637L10.6399 275.516Z" fill="black"/>
<path d="M83.1852 229.819C84.1524 229.819 84.9988 230.544 84.6361 232.478L80.0415 233.566C80.8879 231.511 82.2179 229.819 83.1852 229.819ZM85.8451 237.314H84.8779C83.6688 238.644 82.4597 239.732 81.2506 239.732C80.0415 239.732 79.3161 239.007 79.3161 237.314C79.3161 236.589 79.437 235.863 79.5579 235.259L86.9333 232.841C88.3842 229.456 86.6915 227.884 84.6361 227.884C81.1297 227.884 77.1397 233.808 77.1397 238.886C77.1397 241.183 78.2279 242.513 79.9206 242.513C81.9761 242.513 84.0315 240.457 85.8451 237.314ZM84.2733 226.555L89.4724 221.719V221.114H86.6915L83.427 226.555H84.2733ZM68.3134 229.94H70.7316L66.8625 240.699C66.4997 241.666 66.9834 242.513 67.9507 242.513C70.127 242.513 73.7543 240.336 75.0843 237.314H74.3588C73.3915 238.402 71.457 239.732 69.8852 240.095L73.5125 230.06H77.1397L77.6233 228.489H73.9961L75.3261 224.62H73.8752L71.3361 228.489L68.3134 228.972V229.94ZM64.9279 229.456C65.1698 228.489 64.5652 227.884 64.0816 227.884C61.9052 227.884 59.3661 229.819 58.3989 232.478H59.1243C59.8498 231.511 61.0589 230.423 62.147 230.181L58.0361 240.82C57.6734 241.787 58.3989 242.392 58.8825 242.392C60.9379 242.392 63.3561 240.457 64.3234 237.798H63.5979C62.8725 238.765 61.6634 239.853 60.5752 240.095L64.9279 229.456ZM65.6534 224.137C66.6207 224.137 67.467 223.411 67.467 222.323C67.467 221.356 66.6207 220.51 65.6534 220.51C64.6861 220.51 63.8398 221.356 63.8398 222.323C63.9607 223.29 64.6861 224.137 65.6534 224.137ZM51.3862 240.095L58.8825 220.51L58.6407 220.268L53.9252 220.752V221.356L54.8925 222.082C55.7389 222.686 55.4971 223.29 54.6507 225.346L48.8471 240.699C48.3634 241.545 48.968 242.513 49.9353 242.513C52.1116 242.513 54.4089 240.578 55.3761 237.919H54.6507C53.9252 238.886 52.5952 239.974 51.3862 240.095V240.095ZM37.2398 238.281C37.2398 235.017 40.8671 230.544 42.9225 230.544C43.4062 230.544 43.7689 230.544 44.1316 230.665L41.9553 236.347C40.7462 237.798 38.8116 239.732 37.9653 239.732C37.6026 239.732 37.2398 239.248 37.2398 238.281ZM48.4843 227.28L47.3962 227.159L46.1871 228.368H45.9453C39.7789 228.368 34.5798 235.259 34.5798 240.216C34.5798 241.666 35.4262 242.392 36.7562 242.392C38.328 242.392 39.8998 240.095 41.5926 237.677L41.4716 238.523C41.2298 240.941 41.9553 242.271 43.2853 242.271C44.7362 242.271 46.1871 239.974 47.1544 237.677H46.4289C45.7034 238.765 44.978 239.369 44.4944 239.369C43.8898 239.369 43.5271 238.402 44.4944 236.226L48.4843 227.28ZM21.159 245.051C21.159 243.601 22.489 242.754 24.5444 241.908C25.149 242.271 26.1162 242.633 27.4462 242.996C29.5017 243.721 30.2271 243.963 30.2271 244.568C30.2271 245.898 28.0508 246.865 25.028 246.865C22.489 246.986 21.159 246.381 21.159 245.051V245.051ZM26.7208 236.468C25.8744 236.468 25.5117 235.742 25.5117 234.896C25.5117 232.478 26.8417 228.972 28.7762 228.972C29.6226 228.972 29.9853 229.698 29.9853 230.544C30.1062 232.841 28.7762 236.468 26.7208 236.468ZM32.5244 243.721C32.5244 242.029 30.9526 241.424 28.5344 240.578C26.358 239.974 25.3908 239.732 25.3908 239.007C25.3908 238.402 25.8744 237.798 26.7208 237.314C30.2271 237.072 32.5244 233.929 32.5244 231.269C32.5244 230.665 32.4035 230.181 32.2826 229.819H35.3053L35.7889 228.247H31.0735C30.4689 227.884 29.8644 227.764 29.1389 227.764C25.3908 227.764 22.9726 231.028 22.9726 233.687C22.9726 235.742 24.3026 236.951 25.8744 237.314C24.1817 238.039 23.2144 239.007 23.2144 240.095C23.2144 240.699 23.4562 241.183 23.9399 241.545C19.9499 242.754 18.3781 244.084 18.3781 246.018C18.3781 247.832 20.7962 248.678 23.6981 248.678C28.5344 248.678 32.5244 246.018 32.5244 243.721V243.721ZM13.7835 232.237C15.5972 232.237 15.5972 232.962 15.3553 234.896H16.3226L18.7408 228.489H17.7735C16.9272 230.06 16.2017 231.149 14.2672 231.149H10.2772L12.2117 225.708C12.8163 223.895 13.179 223.532 15.5972 223.532H17.2899C19.829 223.532 20.0708 224.258 20.0708 226.675H21.0381L21.8844 222.323H7.25447L7.01265 223.17C9.91446 223.774 10.1563 224.016 8.82628 227.764L5.56174 236.589C4.23175 240.216 3.6272 240.578 0.362667 241.183L0.12085 242.029H16.5644L19.4662 237.314H18.3781C16.4435 239.128 14.1463 240.82 10.8817 240.82C6.52901 240.82 6.89174 240.578 8.34264 236.589L9.91446 232.357L13.7835 232.237ZM15.9599 220.993L21.159 217.367V216.762H18.0153L15.1135 220.873H15.9599V220.993Z" fill="black"/>
<path d="M81.4924 196.331C82.4597 196.331 83.3061 197.057 82.9433 198.991L78.3488 200.079C79.0743 197.903 80.4043 196.331 81.4924 196.331ZM84.0315 203.827H83.0642C81.8552 205.156 80.6461 206.244 79.437 206.244C78.2279 206.244 77.5024 205.519 77.5024 203.827C77.5024 203.101 77.6234 202.376 77.7443 201.771L85.1197 199.353C86.5706 195.968 84.8779 194.397 82.8224 194.397C79.3161 194.397 75.3261 200.321 75.3261 205.398C75.3261 207.695 76.4143 209.025 78.107 209.025C80.2833 208.904 82.3388 206.97 84.0315 203.827ZM82.5806 192.946L87.7797 188.11V187.506H84.9988L81.7342 192.946H82.5806ZM67.2252 196.452H69.1597L65.2907 207.212C64.9279 208.179 65.4116 209.025 66.3788 209.025C68.5552 209.025 72.1825 206.849 73.5125 203.827H72.787C71.8197 204.915 69.8852 206.244 68.3134 206.607L71.9406 196.573H75.5679L76.0515 195.001H72.4243L73.7543 191.133H72.3034L69.7643 195.001L67.2252 195.485V196.452ZM65.2907 197.661C65.7743 195.968 65.5325 194.397 64.2025 194.397C62.6307 194.397 62.2679 195.606 60.5752 199.112V197.177C60.5752 195.727 60.0916 194.518 58.8825 194.518C57.4316 194.518 55.9807 196.815 55.0134 199.112H55.618C56.3434 198.024 57.0689 197.419 57.5525 197.419C58.157 197.419 58.5198 198.386 57.5525 200.562L54.6507 206.97C54.1671 208.179 54.6507 208.904 55.8598 208.904C56.5852 208.904 56.948 208.662 57.1898 207.937L60.0916 200.442C60.9379 199.474 61.6634 198.628 62.5098 197.661H65.2907ZM48.8471 196.331C49.8143 196.331 50.6607 197.057 50.298 198.991L45.7034 200.079C46.4289 197.903 47.7589 196.331 48.8471 196.331V196.331ZM51.3862 203.827H50.4189C49.2098 205.156 48.0007 206.244 46.7916 206.244C45.5825 206.244 44.8571 205.519 44.8571 203.827C44.8571 203.101 44.978 202.376 45.0989 201.771L52.4743 199.353C53.9252 195.968 52.2325 194.397 50.1771 194.397C46.6707 194.397 42.6807 200.321 42.6807 205.398C42.6807 207.695 43.7689 209.025 45.4616 209.025C47.5171 208.904 49.6934 206.97 51.3862 203.827ZM33.1289 206.728C32.4035 206.728 31.3153 206.003 31.3153 205.519C31.3153 205.277 31.678 204.552 32.0408 203.464L33.2498 200.321C34.5798 198.749 36.5144 197.177 37.6026 197.177C38.328 197.177 38.8116 197.661 38.8116 198.628C38.8116 201.409 36.1517 206.728 33.1289 206.728V206.728ZM41.5926 197.298C41.5926 195.122 40.7462 194.276 39.2953 194.276C37.3607 194.276 35.668 196.21 33.8544 198.628L38.328 186.901L38.0862 186.66L33.3708 187.143V187.748L34.338 188.473C35.1844 189.078 34.9426 189.803 34.0962 191.737L29.2599 204.189C28.8971 205.156 28.5344 206.124 28.5344 206.486C28.5344 207.816 30.2271 209.025 31.9198 209.025C35.5471 208.904 41.5926 202.376 41.5926 197.298V197.298ZM26.9626 195.968C27.2044 195.001 26.5999 194.397 26.1162 194.397C23.9399 194.397 21.4008 196.331 20.4335 198.991H21.159C21.8844 198.024 23.0935 196.936 24.1817 196.694L20.0708 207.332C19.7081 208.3 20.4335 208.904 20.9172 208.904C22.9726 208.904 25.3908 206.97 26.358 204.31H25.6326C24.9071 205.277 23.6981 206.365 22.6099 206.607L26.9626 195.968ZM27.8089 190.528C28.7762 190.528 29.6226 189.803 29.6226 188.715C29.6226 187.748 28.7762 186.901 27.8089 186.901C26.8417 186.901 25.9953 187.748 25.9953 188.715C25.9953 189.803 26.7208 190.528 27.8089 190.528ZM16.9272 188.836H7.13356L6.89174 189.682C9.79355 190.286 10.0354 190.528 8.70537 194.276L5.56174 203.101C4.23175 206.728 3.6272 207.091 0.362667 207.695L0.12085 208.541H14.9926L18.2572 202.859H17.169C15.3553 204.915 13.179 207.332 9.91446 207.332C7.37537 207.332 7.13356 206.849 8.46355 203.101L11.6072 194.276C12.9372 190.649 13.5417 190.286 16.8063 189.682L16.9272 188.836Z" fill="black"/>
<path d="M55.2553 43.0381C55.7389 42.5545 56.3435 41.9501 56.8271 41.3456C57.7944 40.2576 58.7616 39.1695 59.8498 38.2024C60.2125 37.8397 60.5753 37.5979 60.8171 37.3561C60.938 37.2352 60.938 37.1143 61.0589 36.9934C60.5753 37.2352 60.3335 37.5979 59.8498 37.7188C59.7289 37.7188 59.608 37.5979 59.7289 37.477C60.0916 37.2352 60.3335 36.9934 60.6962 36.7516C60.6962 36.7516 60.6962 36.7516 60.5753 36.7516C60.4544 36.7516 60.4544 36.6308 60.4544 36.5099C59.2453 36.2681 58.3989 37.1143 57.5526 37.8397C57.3107 37.9606 57.1898 37.7188 57.0689 37.7188C55.7389 38.2024 54.6507 39.4113 53.3207 39.8949C53.3207 39.774 53.3207 39.774 53.3207 39.6531C52.7162 39.8949 52.2326 40.1367 51.628 40.2576C50.7817 40.4993 50.0562 40.3785 49.3308 40.3785C48.2426 40.4993 47.1544 40.7411 45.9453 40.9829H45.8244C45.2199 41.1038 44.6153 41.3456 44.1317 41.7083C44.1317 41.7083 44.1317 41.7083 44.0108 41.7083L43.8899 41.8292C43.648 42.071 43.5271 42.1919 43.2853 42.4336C42.6808 42.6754 42.3181 43.2799 41.7135 43.6426H41.5926C41.109 44.1261 40.6253 44.6097 40.1417 45.0933C40.1417 45.0933 40.0208 45.0933 39.8999 45.0933C39.779 45.0933 39.8999 45.0933 39.8999 44.9724C40.0208 44.8515 40.0208 44.7306 40.1417 44.6097C40.2626 44.4888 40.2626 44.3679 40.3835 44.1262C40.5044 43.8844 40.6253 43.7635 40.7462 43.5217V43.4008H40.6253C41.109 42.9172 41.5926 42.5545 42.1971 42.1919C42.0762 42.1919 42.0762 42.1919 42.0762 42.071C42.0762 41.9501 42.1971 41.9501 42.1971 41.8292C42.1971 41.8292 42.1971 41.8292 42.1971 41.7083C42.1971 41.7083 42.1971 41.7083 42.0762 41.5874C41.9553 41.7083 41.7135 41.8292 41.5926 41.8292C41.3508 42.071 41.2299 42.4336 40.8671 42.4336H40.7462H40.6253C40.6253 42.4336 40.6253 42.4336 40.6253 42.3127C40.6253 42.3127 40.6253 42.3127 40.6253 42.1919C40.6253 42.1919 40.6253 42.1919 40.6253 42.071C40.6253 42.071 40.6253 41.9501 40.7462 41.9501C40.7462 41.9501 40.7462 41.9501 40.7462 41.8292C40.7462 41.7083 40.8671 41.7083 40.8671 41.5874V41.4665L40.9881 41.3456C40.9881 41.2247 40.9881 41.2247 40.8671 41.2247C40.9881 40.9829 41.2299 40.862 41.4717 40.6202C41.8344 40.4993 42.1971 40.2576 42.5599 40.0158L42.6808 39.8949C42.1971 40.0158 41.7135 40.2576 41.2299 40.6202C41.2299 40.6202 41.109 40.6202 41.109 40.7411C41.109 40.7411 40.9881 40.7411 40.8671 40.6202C40.8671 40.6202 40.8671 40.6202 40.8671 40.4993C40.9881 40.2576 41.2299 40.2576 41.4717 40.0158C41.5926 40.0158 41.7135 40.0158 41.7135 40.1367C44.6153 37.8397 48.7262 38.4442 52.1117 37.2352C52.3535 36.9934 52.7162 36.8725 52.958 36.6307C53.4417 36.389 53.8044 36.0263 54.288 35.6636C55.0135 35.0591 55.618 34.4547 55.8598 33.6084C55.8598 33.4875 55.7389 33.3666 55.7389 33.3666C54.5298 34.6965 53.1998 35.6636 51.7489 36.389C49.8144 37.3561 47.7589 37.2352 45.7035 37.477C45.8244 37.2352 45.9453 37.2352 46.1871 37.2352C46.1871 36.9934 46.429 36.8725 46.5499 36.6307H46.7917C46.9126 36.6307 46.9126 36.389 47.0335 36.389C47.2753 36.389 47.5171 36.2681 47.3962 36.2681C47.1544 35.9054 46.5499 36.5099 46.0662 36.2681C46.308 36.0263 46.1871 35.7845 46.308 35.6636H46.6708C46.6708 35.4218 46.9126 35.3009 46.9126 35.3009C48.2426 34.4547 49.5726 33.8502 50.9026 33.1248C50.6608 33.1248 50.4189 33.3666 50.1771 33.2457C50.4189 33.2457 50.1771 33.0039 50.4189 33.0039C51.3862 32.7622 52.2326 32.1577 53.3207 31.795C52.958 31.795 52.7162 32.0368 52.3535 31.795C52.5953 31.6741 52.5953 31.5532 52.958 31.5532C52.958 31.4323 52.958 31.3114 52.958 31.3114C52.958 31.1905 53.0789 31.1905 53.1998 31.1905C53.0789 31.1905 52.958 31.0696 52.958 31.0696C53.0789 30.8279 53.3207 30.9488 53.5626 30.8279C53.4417 30.8279 53.3207 30.8279 53.3207 30.707C53.5626 30.3443 54.0462 30.2234 54.5298 30.1025C54.4089 29.8607 54.1671 30.1025 54.1671 29.8607C54.1671 29.7398 54.288 29.7398 54.4089 29.7398C54.288 29.7398 54.288 29.7398 54.1671 29.7398C53.9253 29.6189 54.0462 29.498 54.0462 29.3771C54.6507 28.7727 54.6507 27.9264 54.8926 27.2011C54.7717 27.2011 54.6507 27.2011 54.6507 27.0802C53.6835 28.0473 52.2326 28.41 50.9026 28.7727C50.7817 28.7727 50.5398 28.7727 50.4189 28.7727C49.9353 29.0145 49.3308 29.0145 48.8471 28.6518C48.4844 28.41 48.2426 28.1682 47.8799 27.9264C47.1544 27.4428 46.429 27.0802 45.5826 26.8384C43.5271 27.4428 41.109 27.0802 38.6908 27.2011C39.6581 26.5966 40.8672 26.5966 41.9553 26.2339C43.5271 25.7503 44.978 25.2668 46.6708 25.2668C46.4289 25.1459 46.0662 25.2668 45.7035 25.2668C44.3735 25.1459 43.1644 25.5085 41.7135 25.8712C40.7462 26.113 40.0208 26.4757 39.0535 26.5966C38.449 26.8384 38.2072 27.3219 37.6026 27.2011V26.9593C38.5699 25.8712 39.6581 24.7832 41.109 24.6623C42.8017 24.4205 44.3735 24.6623 45.9453 24.9041C47.1544 25.025 48.2426 25.2668 49.4517 25.5085C49.9353 25.5085 50.0562 26.2339 50.4189 26.3548C51.0235 26.5966 51.5071 26.3548 52.1117 26.7175C52.1117 26.4757 51.9908 26.3548 52.1117 26.113C52.4744 25.7503 52.958 26.2339 53.3207 25.9921C54.0462 25.5085 52.7162 24.6623 52.3535 24.0578C52.3535 23.9369 52.4744 23.816 52.4744 23.816C53.1998 24.4205 53.8044 25.1459 54.6507 25.6294C55.1344 25.8712 56.2226 26.113 55.9807 25.5085C55.4971 24.5414 54.6507 23.6951 53.9253 22.728C53.9253 22.6071 53.9253 22.4862 53.9253 22.3653C53.6835 22.3653 53.6835 22.2444 53.6835 22.1235C53.6835 22.0026 53.6835 21.8817 53.6835 21.7608C53.3207 21.5191 53.4417 21.1564 53.1998 20.9146C52.958 20.431 53.0789 19.8265 52.958 19.2221C52.8371 18.6176 52.7162 18.2549 52.5953 17.6505C52.3535 16.0788 51.9908 14.749 51.7489 13.2983C51.5071 11.6058 52.7162 10.1551 53.5626 8.58344C54.1671 7.4954 54.8926 6.40736 56.1017 5.682C56.3435 4.59396 57.0689 3.62681 57.7944 2.78055C58.5198 1.9343 59.7289 1.32983 60.5753 0.967149C61.9053 0.362681 62.9934 0 62.9934 0H0V48.5992H44.6153C46.308 47.3903 48.1217 46.7858 50.5398 45.5769C51.7489 45.2142 54.288 44.0053 55.2553 43.0381V43.0381ZM41.109 36.5099C40.8671 36.5099 40.5044 36.6307 40.6253 36.389C40.7462 35.9054 41.3508 35.9054 41.7135 35.7845C41.9553 35.6636 42.1971 35.5427 42.3181 35.5427C42.5599 35.7845 42.8017 35.7845 42.9226 35.9054C42.439 36.5099 41.7135 36.2681 41.109 36.5099ZM27.0836 34.4547C27.0836 34.4547 26.9626 34.3338 26.9626 34.2129C28.1717 32.6413 29.0181 31.1905 29.8645 29.498C31.0735 28.8936 32.0408 27.9264 33.0081 26.9593C34.5799 25.2668 36.2726 23.816 38.2072 22.9698C38.9326 22.728 39.8999 22.728 40.6253 23.0907C40.3835 23.4534 39.8999 23.3325 39.5372 23.6951C39.4162 23.6951 39.2953 23.6951 39.2953 23.5742C39.4162 23.4534 39.4162 23.3325 39.4162 23.3325C38.449 24.2996 37.2399 24.7832 36.5144 25.9921C35.9099 26.9593 35.5472 28.0473 34.459 28.41C34.0963 28.5309 34.5799 28.1682 34.3381 28.1682C31.3154 29.8607 29.2599 32.0368 27.0836 34.4547V34.4547ZM34.7008 28.41C34.5799 28.6518 34.459 28.6518 34.459 28.7727C34.3381 29.0145 34.2172 29.0145 34.0963 29.1353C33.9754 29.1353 33.8544 29.1353 33.8544 29.0145C33.9754 28.6518 34.2172 28.2891 34.5799 28.1682C34.7008 28.2891 34.7008 28.2891 34.7008 28.41V28.41ZM38.9326 42.1919C38.9326 42.3127 38.8117 42.4336 38.6908 42.4336C38.8117 42.4336 38.9326 42.5545 38.8117 42.5545C38.5699 42.7963 38.449 42.9172 38.0862 43.0381H37.9653C37.8444 43.159 37.7235 43.2799 37.6026 43.4008C37.4817 43.5217 36.9981 43.4008 37.119 43.2799C37.3608 43.0381 37.6026 42.7963 37.8444 42.6754C37.9653 42.5545 38.0862 42.4336 38.2072 42.3127L38.449 42.071C38.5699 42.071 39.0535 41.9501 38.9326 42.1919ZM37.2399 41.4665C36.8772 41.7083 36.5144 41.9501 36.1517 42.1919C35.789 42.4336 35.3053 42.5545 34.9426 42.7963C34.5799 43.0381 34.8217 42.6754 34.8217 42.7963C34.459 43.0381 34.2172 43.2799 33.8544 43.5217L33.7335 43.6426L33.6126 43.7635C33.4917 43.8844 33.4917 43.8844 33.3708 44.0053L33.2499 44.1262C33.2499 44.1262 33.0081 44.1262 33.0081 44.0053C33.0081 43.8844 32.8872 44.0053 32.8872 44.1262C32.8872 44.1262 32.7663 44.1261 32.7663 44.247C32.7663 44.247 32.7663 44.247 32.6454 44.247C32.6454 44.247 32.6454 44.247 32.5244 44.247C32.4035 44.3679 32.2826 44.4888 32.1617 44.4888C31.9199 44.6097 31.799 44.8515 31.6781 45.0933C31.5572 45.3351 31.6781 45.2142 31.5572 45.2142C31.4363 45.2142 31.5572 45.2142 31.4363 45.2142C31.3154 45.2142 31.4363 45.0933 31.3154 45.0933C31.4363 44.9724 31.5572 44.8515 31.5572 44.7306L31.6781 44.6097C31.6781 44.4888 31.799 44.4888 31.799 44.3679C31.799 44.3679 31.799 44.3679 31.799 44.247C31.9199 44.1261 32.0408 44.0053 32.0408 43.8844C32.0408 43.7635 32.1617 43.7635 32.1617 43.6426C32.1617 43.6426 32.2826 43.5217 32.2826 43.4008C32.2826 43.2799 32.4035 43.2799 32.4035 43.159V43.0381V42.9172C32.4035 42.9172 32.4035 42.9172 32.4035 42.7963C32.5244 42.6754 32.6454 42.4336 32.7663 42.3127C32.6454 42.4336 32.5244 42.5545 32.4035 42.5545C32.2826 42.6754 32.1617 42.5545 32.2826 42.4336C32.4035 42.4336 32.4035 42.3127 32.5244 42.1919C32.6454 42.071 32.7663 41.8292 33.0081 41.7083C33.129 41.5874 33.2499 41.5874 33.2499 41.4665C33.3708 41.3456 33.3708 41.3456 33.4917 41.2247C34.3381 40.3784 35.789 40.3784 36.9981 39.8949C37.4817 39.6531 37.9653 40.0158 38.449 39.8949C38.6908 39.8949 39.0535 39.8949 39.2953 40.1367C38.8117 40.4993 38.0862 40.9829 37.2399 41.4665V41.4665ZM39.1744 35.0591C39.0535 34.9382 39.4162 35.0591 39.5372 34.8173C39.2953 34.8173 39.0535 34.8173 38.8117 34.8173C38.6908 34.8173 38.6908 34.6965 38.6908 34.5756C38.2072 34.6965 37.7235 34.8173 37.2399 34.9382C36.6353 35.18 36.0308 35.5427 35.3053 35.7845C34.3381 36.1472 33.4917 36.9934 32.4035 37.3561C32.2826 37.3561 32.2826 37.2352 32.2826 37.1143C32.4035 36.8725 32.7663 36.7516 32.8872 36.5099C32.8872 36.389 32.8872 36.2681 32.7663 36.2681C33.4917 35.3009 34.459 34.6965 35.4263 33.8502C35.4263 33.7293 35.4263 33.6084 35.4263 33.6084C35.6681 33.2457 36.1517 33.0039 36.3935 32.6413C36.5144 32.3995 36.8772 32.0368 37.3608 31.795C37.2399 31.6741 37.119 31.6741 37.119 31.5532C36.7563 31.5532 36.3935 31.795 36.0308 31.4323C36.1517 31.3114 36.3935 31.1905 36.6353 31.0696C36.5144 31.0696 36.5144 31.0696 36.3935 30.9488C36.2726 30.707 36.5144 30.5861 36.8772 30.4652C37.2399 30.3443 37.7235 30.3443 37.9653 30.1025C37.3608 29.9816 36.6353 30.3443 35.9099 29.8607C36.3935 28.6518 37.119 27.6846 38.2072 27.0802C38.3281 27.0802 38.449 27.0802 38.449 27.2011C38.449 27.6846 38.2072 28.0473 37.7235 28.1682C38.449 28.41 39.1744 28.41 39.8999 28.7727C39.779 29.0145 39.6581 28.8936 39.5372 28.8936C40.0208 29.1353 40.5044 29.0145 40.9881 29.3771C40.7462 29.6189 40.3835 29.3771 40.1417 29.3771C43.0435 30.2234 46.0662 30.8279 48.3635 32.6413C46.308 33.6084 44.2526 34.092 42.0762 34.5756C41.8344 34.5756 41.5926 34.5756 41.3508 34.4547C41.3508 34.5756 41.3508 34.6965 41.2299 34.6965C40.8671 34.6965 40.6253 34.6965 40.2626 34.9382C40.0208 35.18 39.4162 35.3009 39.1744 35.0591V35.0591Z" fill="#000091"/>
<path d="M133.604 0.241699H81.3716C81.3716 0.241699 81.4925 0.241699 81.8552 0.483486C82.3388 0.725273 82.8225 0.967061 83.1852 1.20885C83.9107 1.57153 84.5152 2.0551 84.8779 2.65957C85.1197 2.90136 85.3616 3.50583 85.1197 3.86851C84.8779 4.35208 84.8779 5.07744 84.3943 5.19834C83.7898 5.44012 83.0643 5.44012 82.4597 5.44012C82.097 5.44012 81.7343 5.31923 81.3716 5.19834C82.7016 5.8028 84.0316 6.40727 84.9988 7.61621C85.1197 7.85799 85.4825 7.85799 85.8452 7.85799V8.22067C85.6034 8.46246 85.4825 8.46246 85.6034 8.82514H85.8452C86.3288 8.58336 86.2079 7.7371 86.8125 7.97889C87.2961 8.22067 87.417 8.94604 87.1752 9.30872C86.8125 9.6714 86.4497 9.91318 86.087 10.2759C85.9661 10.5177 85.9661 10.7594 86.087 10.8803C86.3288 11.243 86.4497 11.6057 86.5706 11.9684C86.8125 12.5728 86.9334 13.2982 87.1752 14.0236C87.5379 15.3534 87.9006 16.8041 87.7797 18.1339C87.7797 18.8593 87.417 19.4638 87.6588 20.1891C87.9006 20.9145 88.2634 21.519 88.6261 22.1234C88.9888 22.7279 89.3516 23.0906 89.5934 23.5742C90.1979 24.5413 91.1652 25.3876 90.6815 26.4756C90.4397 27.0801 89.3516 27.0801 88.747 27.4428C88.1425 27.9263 88.6261 28.6517 88.9888 29.1353C89.4725 29.9815 88.3843 30.4651 87.7797 30.8278C88.0216 31.0696 88.3843 31.0696 88.3843 31.1904C88.5052 31.674 88.9888 31.9158 88.6261 32.3994C88.2634 33.0039 87.1752 33.2456 87.6588 34.0919C88.0216 34.6964 87.7797 35.4217 87.5379 36.1471C87.2961 36.9933 86.5707 37.356 85.8452 37.4769C85.2407 37.7187 84.6361 37.7187 84.1525 37.5978C83.9107 37.4769 83.7897 37.356 83.5479 37.356C81.9761 37.1142 80.4043 36.7516 78.8325 36.7516C78.3489 36.8724 77.8652 36.9933 77.5025 37.1142C77.1398 37.4769 76.777 37.7187 76.4143 38.0814C76.2934 38.2023 76.2934 38.2023 76.1725 38.3232L76.0516 38.4441C76.0516 38.4441 76.0516 38.565 75.9307 38.565C75.6889 38.9276 75.447 39.2903 75.2052 39.653V39.7739C75.2052 39.7739 75.2052 39.8948 75.0843 39.8948C74.8425 40.4993 74.6007 40.9828 74.3589 41.5873C73.7543 43.6425 73.9961 45.4559 74.4798 45.9395C74.6007 46.0604 77.5025 46.9066 79.5579 47.8738C80.5252 48.2364 81.1298 48.5991 81.7343 48.9618H133V0.241699H133.604Z" fill="#E1000F"/>
<path d="M84.3942 18.0132C84.757 18.1341 85.3615 18.1341 85.3615 18.255C85.1197 18.9803 84.0315 19.2221 83.5479 19.9475H83.3061C83.0642 20.1893 83.0642 20.552 82.8224 20.552C82.5806 20.4311 82.2179 20.552 81.9761 20.6728C82.3388 21.0355 82.8224 21.2773 83.3061 21.2773C83.427 21.2773 83.5479 21.5191 83.5479 21.64C83.5479 21.64 83.6688 21.64 83.7897 21.5191C83.9106 21.5191 84.0315 21.5191 84.0315 21.64V22.0027C83.7897 22.3654 83.3061 22.2445 82.9433 22.2445C83.6688 22.4862 84.3942 22.4862 84.9988 22.2445C85.6033 22.0027 84.9988 21.1564 85.3615 20.6728C85.1197 20.6728 85.3615 20.4311 85.1197 20.4311C85.3615 20.1893 85.4824 19.9475 85.7242 19.8266C85.966 19.8266 86.2079 19.7057 86.3288 19.5848C86.3288 19.343 85.966 19.343 86.0869 19.1012C86.6915 18.7385 87.0542 18.1341 86.9333 17.6505C86.8124 17.4087 86.087 17.4087 85.6033 17.1669C85.1197 16.9251 84.636 17.1669 84.0315 17.2878C83.5479 17.2878 83.0642 17.5296 82.7015 17.6505C82.097 17.8923 81.4924 18.255 81.0088 18.6177C81.6133 18.3759 82.3388 18.255 83.0642 18.0132C83.427 18.0132 83.9106 17.7714 84.3942 18.0132V18.0132Z" fill="#9D9D9C"/>
</svg>
