<svg width="300" height="300" viewBox="0 0 300 300" fill="none" xmlns="http://www.w3.org/2000/svg">
<circle cx="150" cy="150" r="150" fill="#2053B3"/>
<path d="M149.5 68L119.905 86.407H94.55V102.006L78.6145 112.068C74.0615 114.798 71 119.711 71 125.405V203.401C71 207.538 72.6541 211.506 75.5984 214.431C78.5427 217.357 82.5361 219 86.7 219H212.3C221.013 219 228 212.058 228 203.401V125.405C228 119.711 224.939 114.798 220.386 112.068L204.45 102.006V86.407H179.095L149.5 68ZM110.25 102.006H188.75V140.068L149.5 164.403L110.25 140.068V102.006ZM118.1 109.806V121.505H180.9V109.806H118.1ZM94.55 120.569V130.319L86.7 125.405L94.55 120.569ZM204.45 120.569L212.3 125.405L204.45 130.319V120.569ZM118.1 129.305V141.004H180.9V129.305H118.1Z" fill="white"/>
</svg>
