<svg width="81" height="73" viewBox="0 0 81 73" fill="none" xmlns="http://www.w3.org/2000/svg">
<path d="M40.5 -5L25.2315 4.50826H12.15V12.5661L3.9285 17.7634C1.5795 19.1736 0 21.7118 0 24.6529V64.9421C0 67.0792 0.85339 69.1288 2.37243 70.6399C3.89148 72.151 5.95175 73 8.1 73H72.9C77.3955 73 81 69.4143 81 64.9421V24.6529C81 21.7118 79.4205 19.1736 77.0715 17.7634L68.85 12.5661V4.50826H55.7685L40.5 -5ZM20.25 12.5661H60.75V32.2273L40.5 44.7975L20.25 32.2273V12.5661ZM24.3 16.595V22.6384H56.7V16.595H24.3ZM12.15 22.155V27.1911L8.1 24.6529L12.15 22.155ZM68.85 22.155L72.9 24.6529L68.85 27.1911V22.155ZM24.3 26.6674V32.7107H56.7V26.6674H24.3Z" fill="#0053B3"/>
</svg>
