<svg width="240" height="240" viewBox="0 0 240 240" fill="none" xmlns="http://www.w3.org/2000/svg">
<circle cx="120" cy="120" r="120" fill="#2053B3"/>
<g clip-path="url(#clip0_173_44)">
<path d="M121 47L95.364 62.969H73.4V76.5021L59.596 85.2309C55.652 87.5992 53 91.8621 53 96.8017V164.467C53 168.056 54.4329 171.498 56.9833 174.036C59.5338 176.574 62.9931 178 66.6 178H175.4C182.948 178 189 171.978 189 164.467V96.8017C189 91.8621 186.348 87.5992 182.404 85.2309L168.6 76.5021V62.969H146.636L121 47ZM87 76.5021H155V109.523L121 130.634L87 109.523V76.5021ZM93.8 83.2686V93.4184H148.2V83.2686H93.8ZM73.4 92.6064V101.065L66.6 96.8017L73.4 92.6064ZM168.6 92.6064L175.4 96.8017L168.6 101.065V92.6064ZM93.8 100.185V110.335H148.2V100.185H93.8Z" fill="white"/>
</g>
<defs>
<clipPath id="clip0_173_44">
<rect width="145" height="145" fill="white" transform="translate(47 48)"/>
</clipPath>
</defs>
</svg>
