<svg width="93" height="75" viewBox="0 0 93 75" fill="none" xmlns="http://www.w3.org/2000/svg">
<path d="M29.0589 75.2164C63.9637 75.2164 83.0604 46.2685 83.0604 21.2103C83.0604 20.3963 83.0604 19.5822 83.0234 18.7682C86.7422 16.0734 89.9513 12.7375 92.5 8.917C89.0296 10.4504 85.3515 11.4619 81.585 11.9186C85.5535 9.54272 88.5248 5.80724 89.947 1.406C86.2169 3.61887 82.1334 5.17247 77.8757 5.99862C76.1034 4.10505 73.9611 2.59558 71.5816 1.56373C69.2021 0.531891 66.636 -0.000345555 64.0424 1.68319e-07C59.007 0.0036752 54.1789 2.00561 50.6183 5.56617C47.0577 9.12674 45.0558 13.9548 45.0521 18.9902C45.0521 20.4702 45.2371 21.9132 45.5331 23.3192C37.9846 22.9402 30.6002 20.9778 23.8594 17.5596C17.1185 14.1414 11.1719 9.34366 6.40562 3.478C3.98343 7.66156 3.24402 12.6101 4.33749 17.319C5.43096 22.0279 8.27536 26.1442 12.2932 28.8323C9.28272 28.728 6.33897 27.9168 3.7 26.4643V26.7232C3.70407 31.1045 5.22038 35.3501 7.99275 38.7427C10.7651 42.1352 14.6236 44.4668 18.9163 45.3435C17.2894 45.7922 15.6088 46.0163 13.9213 46.0095C12.6956 46.0095 11.5116 45.8985 10.36 45.6765C11.5701 49.4495 13.9306 52.7493 17.1106 55.1131C20.2905 57.477 24.1306 58.7864 28.0923 58.8577C21.37 64.142 13.0645 67.0094 4.514 66.9978C2.997 66.9978 1.48 66.9238 0 66.7388C8.67979 72.2776 18.7624 75.2191 29.0589 75.2164" fill="#0053B3"/>
</svg>
