<svg width="240" height="240" viewBox="0 0 240 240" fill="none" xmlns="http://www.w3.org/2000/svg">
<circle cx="120" cy="120" r="120" fill="#2053B3"/>
<g clip-path="url(#clip0_173_41)">
<path d="M192.858 82.6225C187.848 84.8425 182.466 86.3425 176.808 87.0205C182.646 83.5272 187.014 78.0293 189.096 71.5525C183.611 74.8104 177.608 77.1036 171.348 78.3325C167.138 73.8377 161.562 70.8584 155.486 69.8573C149.41 68.8562 143.173 69.8892 137.743 72.796C132.314 75.7027 127.997 80.3206 125.461 85.9327C122.925 91.5447 122.313 97.837 123.72 103.832C112.606 103.274 101.734 100.386 91.8086 95.3539C81.8834 90.322 73.1271 83.2594 66.1081 74.6245C63.7081 78.7645 62.3281 83.5645 62.3281 88.6765C62.3254 93.2784 63.4587 97.8099 65.6273 101.869C67.796 105.928 70.933 109.389 74.7601 111.944C70.3217 111.803 65.9813 110.604 62.1001 108.446V108.806C62.0996 115.261 64.3323 121.517 68.4192 126.512C72.5061 131.508 78.1955 134.936 84.5221 136.214C80.4048 137.329 76.0881 137.493 71.8981 136.694C73.6831 142.248 77.16 147.105 81.8423 150.584C86.5245 154.063 92.1776 155.992 98.0101 156.098C88.1091 163.871 75.8814 168.087 63.2941 168.068C61.0644 168.069 58.8365 167.939 56.6221 167.678C69.3989 175.894 84.2721 180.253 99.4621 180.236C150.882 180.236 178.992 137.648 178.992 100.712C178.992 99.5125 178.962 98.3005 178.908 97.1005C184.376 93.1463 189.096 88.2498 192.846 82.6405L192.858 82.6225V82.6225Z" fill="white"/>
</g>
<defs>
<clipPath id="clip0_173_41">
<rect width="144" height="144" fill="white" transform="translate(48 48)"/>
</clipPath>
</defs>
</svg>
