<svg width="300" height="300" viewBox="0 0 300 300" fill="none" xmlns="http://www.w3.org/2000/svg">
<circle cx="150" cy="150" r="150" fill="#2053B3"/>
<path d="M123.405 226C187.555 226 222.651 172.889 222.651 126.915C222.651 125.421 222.652 123.928 222.584 122.434C229.418 117.49 235.316 111.37 240 104.36C233.622 107.173 226.862 109.029 219.94 109.867C227.233 105.508 232.694 98.6546 235.308 90.5796C228.453 94.6396 220.948 97.49 213.123 99.0057C209.866 95.5316 205.929 92.7621 201.555 90.869C197.182 88.9759 192.466 87.9994 187.7 88C178.445 88.0067 169.572 91.6797 163.028 98.2123C156.484 104.745 152.805 113.603 152.799 122.842C152.799 125.557 153.139 128.204 153.683 130.784C139.81 130.089 126.238 126.488 113.85 120.217C101.461 113.945 90.5322 105.143 81.7725 94.3811C77.3209 102.057 75.962 111.136 77.9716 119.775C79.9812 128.415 85.2088 135.967 92.593 140.899C87.0601 140.707 81.65 139.219 76.8 136.554V137.029C76.8075 145.068 79.5942 152.857 84.6894 159.081C89.7845 165.306 96.8758 169.584 104.765 171.192C101.775 172.015 98.6865 172.426 95.585 172.414C93.3325 172.414 91.1565 172.21 89.04 171.803C91.2639 178.725 95.6021 184.779 101.446 189.116C107.291 193.453 114.348 195.856 121.629 195.987C109.275 205.682 94.0105 210.943 78.296 210.921C75.508 210.921 72.72 210.785 70 210.446C85.952 220.608 104.482 226.005 123.405 226" fill="white"/>
</svg>
