<svg width="78" height="89" viewBox="0 0 78 89" fill="none" xmlns="http://www.w3.org/2000/svg">
<g clip-path="url(#clip0_2340_12158)">
<path d="M36.679 6.24942C35.9414 6.47609 35.2605 6.87276 33.8419 7.69443L10.4922 21.1529C9.10204 21.9746 8.39275 22.3712 7.82533 22.8812C6.80396 23.8446 6.0663 25.0629 5.75421 26.4513C5.58398 27.188 5.58398 28.0096 5.58398 29.6246V56.5699C5.58398 58.1849 5.58398 59.0066 5.75421 59.7433C6.0663 61.1033 6.77558 62.3499 7.82533 63.3133C8.39275 63.8233 9.07367 64.22 10.4922 65.0416L33.8419 78.5001C35.2321 79.3218 35.9414 79.7184 36.679 79.9451C38.0125 80.3701 39.4594 80.3701 40.7929 79.9451C41.5306 79.7184 42.2115 79.3218 43.63 78.5001L66.9797 65.0416C68.3699 64.22 69.0792 63.8233 69.6466 63.3133C70.668 62.3499 71.4057 61.1316 71.7177 59.7433C71.888 59.0066 71.888 58.1849 71.888 56.5699V29.6246C71.888 28.0096 71.888 27.188 71.7177 26.4513C71.4057 25.0913 70.6964 23.8446 69.6466 22.8812C69.0792 22.3712 68.3983 21.9746 66.9797 21.1529L43.63 7.69443C42.2398 6.87276 41.5306 6.47609 40.7929 6.24942C39.4594 5.82441 38.0125 5.82441 36.679 6.24942Z" fill="#000091"/>
<path fill-rule="evenodd" clip-rule="evenodd" d="M46.3252 3.04853L69.6748 16.507C69.6748 16.507 69.8734 16.6203 69.9585 16.677C71.065 17.3287 72.285 18.0087 73.278 18.9437C75.1221 20.6437 76.3989 22.8537 76.9379 25.2904C77.25 26.6221 77.2216 28.0104 77.2216 29.3138C77.2216 29.4271 77.2216 29.5404 77.2216 29.6254V56.5707C77.2216 56.5707 77.2216 56.7974 77.2216 56.8824C77.2216 58.1574 77.2216 59.5457 76.9379 60.9057C76.3989 63.3424 75.1221 65.5525 73.278 67.2525C72.2566 68.1875 71.065 68.8675 69.9585 69.5192C69.8734 69.5758 69.7599 69.6325 69.6748 69.6892L46.3252 83.1476C46.3252 83.1476 46.1266 83.261 46.0415 83.3176C44.935 83.9693 43.715 84.6493 42.4099 85.0743C40.0267 85.811 37.4733 85.811 35.0901 85.0743C33.785 84.6776 32.565 83.9693 31.4585 83.3176C31.3734 83.261 31.2599 83.2043 31.1748 83.1476L7.82517 69.6892C7.82517 69.6892 7.62657 69.5758 7.54145 69.5192C6.43497 68.8675 5.215 68.1875 4.222 67.2525C2.37786 65.5525 1.10114 63.3424 0.562085 60.9057C0.25 59.5457 0.25 58.1574 0.25 56.8824C0.25 56.769 0.25 56.6557 0.25 56.5707V29.6254C0.25 29.6254 0.25 29.3988 0.25 29.3138C0.25 28.0388 0.25 26.6504 0.533714 25.2904C1.07277 22.8537 2.34948 20.6437 4.19363 18.9437C5.215 18.0087 6.4066 17.3287 7.51308 16.677C7.59819 16.6203 7.71168 16.5637 7.79679 16.507L31.1748 3.04853C31.1748 3.04853 31.3734 2.93519 31.4585 2.87852C32.565 2.22685 33.785 1.54685 35.0901 1.12184C37.4733 0.385168 40.0267 0.385168 42.4099 1.12184C43.715 1.51851 44.935 2.22685 46.0415 2.87852C46.1266 2.93519 46.2401 2.99186 46.3252 3.04853ZM36.6789 6.25022C35.9412 6.47689 35.2603 6.87356 33.8417 7.69524L10.4921 21.1537C9.10188 21.9754 8.39259 22.372 7.82517 22.882C6.8038 23.8454 6.06614 25.0637 5.75405 26.4521C5.58382 27.1888 5.58382 28.0104 5.58382 29.6254V56.5707C5.58382 58.1857 5.58382 59.0074 5.75405 59.7441C6.06614 61.1041 6.77542 62.3508 7.82517 63.3141C8.39259 63.8241 9.07351 64.2208 10.4921 65.0424L33.8417 78.5009C35.2319 79.3226 35.9412 79.7193 36.6789 79.9459C38.0123 80.3709 39.4593 80.3709 40.7927 79.9459C41.5304 79.7193 42.2113 79.3226 43.6299 78.5009L66.9796 65.0424C68.3698 64.2208 69.079 63.8241 69.6465 63.3141C70.6678 62.3508 71.4055 61.1324 71.7176 59.7441C71.8878 59.0074 71.8878 58.1857 71.8878 56.5707V29.6254C71.8878 28.0104 71.8878 27.1888 71.7176 26.4521C71.4055 25.0921 70.6962 23.8454 69.6465 22.882C69.079 22.372 68.3981 21.9754 66.9796 21.1537L43.6299 7.69524C42.2397 6.87356 41.5304 6.47689 40.7927 6.25022C39.4593 5.82522 38.0123 5.82522 36.6789 6.25022Z" fill="#000091"/>
<path d="M15.9675 43.367L27.0324 24.3552L27.6849 23.2502L18.3507 16.6484L10.5202 21.1535C9.13004 21.9752 8.42075 22.3718 7.85332 22.8818C7.37101 23.3352 6.94544 23.8452 6.60498 24.4118L15.9959 43.367H15.9675Z" fill="#FCC63A"/>
<path d="M39.9414 6.05176L71.5755 60.2823C71.6323 60.1123 71.689 59.9139 71.7174 59.7439C71.8876 59.0073 71.8876 58.1856 71.8876 56.5706V29.6253C71.8876 28.0103 71.8876 27.1886 71.7174 26.452C71.4053 25.0919 70.696 23.8453 69.6463 22.8819C69.0788 22.3719 68.3979 21.9752 66.9794 21.1536L43.6297 7.69511C42.2395 6.87343 41.5302 6.47676 40.7925 6.25009C40.5088 6.16509 40.2251 6.08009 39.9414 6.05176Z" fill="#FCC63A"/>
<path d="M58.8367 16.4502L66.9793 21.1536C68.3695 21.9752 69.0788 22.3719 69.6462 22.8819C70.1002 23.2786 70.469 23.7603 70.8094 24.2703L61.5604 43.1971L49.7295 22.8253L58.8651 16.4502H58.8367Z" fill="#0063CB"/>
<path d="M38.835 5.93848V80.2292C38.1258 80.2292 37.3881 80.1442 36.7072 79.9175C35.9695 79.6908 35.2886 79.2942 33.87 78.4725L10.5204 65.014C9.13018 64.1924 8.4209 63.7957 7.85347 63.2857C7.00233 62.4923 6.34979 61.529 5.98096 60.424L37.7002 6.02348C38.069 5.96681 38.4378 5.93848 38.8067 5.93848H38.835Z" fill="#0063CB"/>
<path fill-rule="evenodd" clip-rule="evenodd" d="M49.6447 75.0151C47.4885 74.3634 45.3323 73.6551 43.2612 72.8334C42.8923 72.0684 42.6937 71.2184 42.6654 70.3967C42.6654 69.5467 42.8072 68.6967 43.1477 67.9317C43.3179 67.2517 43.6016 66.6 43.9421 66.005C43.9988 65.9483 44.0556 65.8917 44.0556 65.835H44.0839C44.0839 65.835 44.0839 65.835 44.0839 65.8067C44.3393 65.3817 44.623 64.985 44.9351 64.5883H44.9635L45.0202 64.5033H45.0486C45.0486 64.5033 45.1053 64.3616 45.162 64.305C45.162 64.305 45.2472 64.1917 45.2755 64.1633C45.3039 64.135 45.3606 64.0783 45.389 64.0216C45.7862 63.625 46.2402 63.2566 46.7225 62.9166C47.2048 62.7466 47.7155 62.605 48.2262 62.52C50.0703 62.6616 51.9428 62.8883 53.7586 63.2283C53.9856 63.2566 54.2125 63.3416 54.3828 63.455C55.0637 63.5966 55.773 63.54 56.4539 63.3416C56.8794 63.2566 57.305 63.0866 57.6455 62.8033C57.9859 62.52 58.2413 62.18 58.4115 61.7833C58.6101 61.4433 58.7236 61.0466 58.752 60.6216C58.752 60.2249 58.6952 59.8283 58.525 59.4599C58.1278 58.8649 58.4966 58.4966 58.9506 58.1566L59.0924 58.0433C59.291 57.9016 59.4612 57.7599 59.6315 57.5616C59.8301 57.1932 59.6598 56.9382 59.4896 56.6549C59.4045 56.5132 59.3194 56.3432 59.2626 56.1732C59.2059 56.0599 59.0924 56.0316 58.9789 56.0032C58.8371 55.9466 58.6385 55.9182 58.525 55.7199C59.3194 55.3799 60.4826 54.7849 59.9719 53.8499C59.6315 53.3399 59.1208 52.4615 59.745 51.9799C60.057 51.8099 60.3975 51.7249 60.7663 51.6399C61.3338 51.4982 61.8444 51.3849 62.0714 50.9315C62.1849 50.5065 62.1849 50.0815 62.0714 49.6565C61.9579 49.2315 61.731 48.8632 61.4189 48.5515L61.2486 48.3248C61.0784 48.0982 60.9082 47.8715 60.7663 47.6165C60.3975 47.0498 60.0003 46.4831 59.5464 45.9448C59.0357 45.2648 58.6385 44.5281 58.3264 43.7348C58.0994 43.2248 58.2129 42.7431 58.3264 42.2331C58.3831 41.9498 58.4399 41.6664 58.4399 41.3548C58.4682 39.7681 58.2129 38.1531 57.7022 36.6514C57.5887 36.3397 57.5036 35.9997 57.3901 35.6597C57.2766 35.2064 57.1348 34.753 56.9362 34.328C56.8794 33.8747 56.7092 33.4214 56.4255 33.053C56.3688 32.9397 56.3404 32.8264 56.3404 32.6847C56.3404 32.543 56.3688 32.4297 56.4255 32.3163C56.9078 32.0047 57.3334 31.6363 57.759 31.268C57.8724 31.013 57.9008 30.7013 57.8157 30.418C57.7306 30.1347 57.532 29.8797 57.2766 29.738C56.8227 29.5397 56.6808 29.8513 56.5106 30.163C56.3971 30.3613 56.2836 30.588 56.085 30.673H55.7446C55.6595 30.4463 55.773 30.333 55.9716 30.1913C55.9999 30.163 56.0567 30.1063 56.085 30.078C56.085 29.9647 56.085 29.738 55.9716 29.738C55.5176 29.738 55.1204 29.6247 54.9786 29.398C53.8721 28.0946 52.3968 27.103 50.7228 26.5646C51.1484 26.678 51.6024 26.763 52.0563 26.7913C52.8223 26.933 53.6451 26.8763 54.3544 26.5646C54.7232 26.4513 54.8934 25.9413 55.0353 25.4879C55.092 25.3179 55.1488 25.1479 55.2055 25.0063C55.2623 24.7513 55.2339 24.5246 55.2055 24.2696C55.1488 24.0429 55.0353 23.8163 54.8934 23.6179C54.3828 22.8813 53.6451 22.3146 52.8223 21.9462C52.2833 21.7196 51.7726 21.4646 51.2619 21.1812C51.0917 21.0679 50.8931 20.9829 50.6945 20.8979C43.9137 17.6395 29.9266 20.4729 28.8485 20.8979C27.8555 21.1812 26.9192 21.5212 25.983 21.9462C24.7063 22.3996 23.5714 23.1079 22.6352 24.0429C21.6989 24.9779 20.9896 26.1113 20.564 27.3296C19.259 28.1513 18.2092 29.2846 17.4999 30.6447C17.273 31.0413 17.0176 31.438 16.7623 31.8347C15.9395 33.138 15.1167 34.413 15.287 35.943C15.4288 37.0764 15.6558 38.1531 15.9111 39.2581C16.0246 39.8247 16.1665 40.3914 16.28 40.9864C16.3651 41.5814 16.5353 42.1764 16.7339 42.7431C16.8474 42.9981 16.8474 43.3098 16.8474 43.5931C16.8474 43.9615 16.8758 44.3298 17.0744 44.6131C17.1311 44.7265 17.1595 44.8398 17.1878 44.9531C17.2446 45.1798 17.3013 45.4065 17.6134 45.5481V45.9731C17.6134 45.9731 17.6702 46.0298 17.6985 46.0581C17.7553 46.1431 17.812 46.1998 17.9822 46.1998V46.6248C18.9752 47.5598 19.8264 48.6082 20.5073 49.7698C20.7343 50.3649 19.4008 50.1098 18.8901 49.8832C17.9255 49.2882 17.0744 48.5798 16.3083 47.7865C16.2516 47.8432 16.1948 47.9282 16.1948 48.0132C16.3367 48.2682 16.6204 48.5232 16.8758 48.8065C17.4432 49.3448 17.9822 49.8832 17.3864 50.2232C17.1878 50.3082 16.9609 50.2799 16.7623 50.2232C16.4786 50.1665 16.1948 50.0815 15.9395 50.3365C15.8544 50.4499 15.8828 50.5915 15.9395 50.7332C15.9395 50.8182 15.9395 50.8749 15.9395 50.9599C15.5707 50.7049 15.1451 50.6765 14.7763 50.6482C14.5209 50.6482 14.2372 50.6199 13.9819 50.5348C13.7833 50.4782 13.6414 50.2798 13.4996 50.0815C13.3293 49.8548 13.1875 49.5998 12.9038 49.5998C11.5419 49.2882 10.1517 49.0332 8.76153 48.8915C7.71179 48.7498 6.66205 48.6365 5.6123 48.5798V49.6848C6.52019 49.5148 7.45645 49.4298 8.3927 49.4582C8.76153 49.4015 9.13036 49.4015 9.49919 49.4582C8.1941 49.4582 6.88902 49.6282 5.64068 49.9965V52.0082C6.6053 52.2065 7.56993 52.4332 8.53456 52.7165C9.47082 53.0565 10.3787 53.4815 11.2298 53.9916C11.5703 54.3032 11.9391 54.5866 12.3363 54.8132C12.62 54.9549 12.9321 55.0399 13.2442 55.0682C13.5563 55.0682 13.8684 55.0399 14.1805 54.9266H14.9465C16.592 54.6716 18.1241 53.9916 19.3724 52.9432C19.3724 53.0565 19.4859 53.0565 19.5994 53.0565C19.4292 53.9349 19.0887 54.7566 18.6064 55.5499C18.6064 55.5499 18.6064 55.6066 18.6064 55.6349C18.6064 55.7482 18.5497 55.8899 18.7483 55.9749H18.9185C18.9185 55.9749 18.7483 55.9749 18.7483 56.0882C18.7483 56.2016 18.8334 56.2016 18.9469 56.2016C19.0604 56.2016 19.1738 56.2016 19.2306 56.3149C18.6915 56.3149 18.1808 56.5416 17.7836 56.9099C17.7836 57.0232 18.0106 57.0232 18.1241 57.0232C18.039 57.1366 17.9255 57.1649 17.7836 57.1932C17.6702 57.2216 17.5283 57.2499 17.4716 57.3633C17.5283 57.4199 17.6134 57.4482 17.6985 57.4766C17.585 57.4766 17.4716 57.4766 17.4716 57.5899V57.9299C17.3013 57.9299 17.1878 58.0149 17.046 58.0999C16.9892 58.1566 16.9041 58.2133 16.819 58.2416C17.1311 58.4683 17.3581 58.3833 17.585 58.3266C17.7269 58.2983 17.8688 58.2416 18.0106 58.2416C17.4999 58.4116 17.046 58.6383 16.5637 58.8649C15.9395 59.1483 15.287 59.4316 14.606 59.6299C14.4926 59.6299 14.4926 59.7149 14.4926 59.7999C14.4926 59.8849 14.4926 59.9699 14.3791 59.9699C14.5777 60.1116 14.7479 60.0266 14.8898 59.9699C15.0032 59.9133 15.0884 59.8566 15.2302 59.8566C14.606 60.1966 13.9819 60.5366 13.3293 60.8483C12.4214 61.3016 11.5136 61.7833 10.5489 62.35C10.4354 62.4633 10.3503 62.6333 10.322 62.775H9.86802C9.86802 62.775 9.72616 62.945 9.69779 63.0583C9.69779 63.1716 9.64105 63.285 9.52756 63.3983C9.7829 63.5683 10.0666 63.455 10.322 63.37C10.6057 63.285 10.861 63.1716 11.0312 63.3983C11.1447 63.3983 10.8043 63.5116 10.5773 63.5116C10.5206 63.5116 10.4922 63.5683 10.4638 63.625C10.4354 63.6816 10.4071 63.7383 10.3503 63.7383H10.0099C10.0099 63.7383 9.95313 63.7666 9.92476 63.795C9.72616 63.9366 9.55593 64.05 9.55593 64.3333C9.47082 64.3333 9.3857 64.3333 9.30059 64.3333C9.41407 64.39 9.49919 64.4467 9.61267 64.5317C11.8824 64.475 14.0954 64.05 16.2232 63.285C18.0106 62.4066 19.6278 61.245 21.018 59.8566C21.0747 59.9133 21.1315 59.9983 21.1315 60.0833C20.791 61.0466 20.1385 61.8683 19.2873 62.4633C18.9752 62.6333 18.7199 62.8316 18.4646 63.0016C18.2092 63.2 17.9539 63.3983 17.6985 63.5116C17.3581 63.6816 17.0176 63.9083 16.7055 64.1066C15.2586 64.5317 13.7833 64.8433 12.2512 65.0133L11.5419 65.0983C11.2866 65.1267 11.0312 65.1833 10.7759 65.2117L14.067 67.11C14.606 67.11 15.1167 67.0533 15.6274 66.9683C16.3083 66.7983 16.9609 66.5433 17.585 66.26V66.4867C18.3511 66.2033 19.0036 65.75 19.6845 65.2683C20.4222 64.7583 21.1598 64.2483 22.011 63.9933C22.011 63.9933 22.0677 63.9933 22.0961 64.0216C22.2096 64.0783 22.3798 64.1633 22.5217 64.1066C22.9472 63.625 23.4579 63.2283 24.0537 62.945C24.6495 62.69 25.3021 62.5483 25.983 62.5483C25.983 62.6616 25.983 62.775 26.0965 62.775H26.1532C25.8695 63.0016 25.5574 63.2 25.2453 63.4266C25.1602 63.4833 25.0751 63.54 24.99 63.5966C24.8481 63.71 24.99 63.8233 25.0751 63.8233C25.3872 63.71 25.6142 63.54 25.8411 63.3983C26.0397 63.2566 26.2667 63.115 26.4937 63.0016C26.4369 63.0583 26.4085 63.1433 26.3802 63.2283C26.3518 63.3133 26.3234 63.3983 26.2667 63.455C25.8411 63.71 25.4439 63.9933 25.0467 64.3333C23.7416 65.4383 22.55 66.6 21.4152 67.875C20.8761 68.4984 20.2803 69.065 19.6845 69.6317C19.6562 69.66 19.5994 69.7167 19.571 69.745C19.4292 69.8867 19.2873 70 19.1171 70.1134L33.7284 78.5285C35.1186 79.3501 35.8279 79.7468 36.5655 79.9735C37.899 80.3985 39.3459 80.3985 40.6794 79.9735C41.417 79.7468 42.0979 79.3501 43.5165 78.5285L49.5312 75.0718L49.6447 75.0151ZM56.3404 43.5648C56.3404 43.5648 56.539 43.4231 56.6241 43.3098C56.6241 43.2248 56.5106 43.1398 56.4255 43.0548C56.312 42.9698 56.1985 42.8848 56.2836 42.7998C56.9362 42.3748 57.5036 41.7798 57.2766 41.1564C57.1915 40.9581 56.8227 40.8731 56.4255 40.7881C56.1985 40.7314 55.9432 40.6748 55.7446 40.6181C55.319 40.5048 54.8934 40.5048 54.4679 40.6181L54.1558 40.6748L53.8437 40.7314C53.2763 40.8164 52.7372 40.9864 52.1982 41.1564C51.4321 41.3831 50.7228 41.7514 50.0703 42.1764C50.8363 41.8931 51.6591 41.6948 52.4819 41.5814C53.106 41.4398 53.7302 41.4114 54.3544 41.4681C54.4962 41.4964 54.6665 41.5248 54.8083 41.5531C55.1488 41.6098 55.4609 41.6381 55.4609 41.8081C55.319 42.2614 54.8651 42.5448 54.3544 42.8281C53.9572 43.0548 53.5316 43.3098 53.2195 43.6498H52.8791C52.7088 43.7631 52.6521 43.9331 52.5954 44.0748C52.5386 44.2165 52.5103 44.3581 52.34 44.3581C51.9996 44.2731 51.6591 44.3298 51.347 44.4715C51.5456 44.6981 51.801 44.8681 52.0847 44.9815C52.3684 45.0948 52.6805 45.1231 52.9926 45.0948C53.0777 45.1231 53.1912 45.1798 53.2479 45.2648C53.3046 45.3498 53.3614 45.4348 53.3614 45.5481C53.4465 45.5481 53.5316 45.4915 53.5884 45.4348C53.7018 45.4348 53.8153 45.4348 53.8153 45.5481V45.9731C53.8153 45.9731 53.5884 46.1715 53.4749 46.1998C53.333 46.2565 53.1912 46.2565 53.0493 46.2565H52.8507C52.8507 46.2565 52.5954 46.2565 52.4819 46.2848C53.333 46.5115 54.2125 46.5115 55.0637 46.2848C55.4041 46.1715 55.3758 45.8315 55.3474 45.4348C55.3474 45.0948 55.2906 44.7548 55.5176 44.5281C55.4041 44.5281 55.4041 44.4431 55.4041 44.3581C55.4041 44.2731 55.4041 44.1881 55.2906 44.1881C55.4892 43.9615 55.7162 43.7631 55.9432 43.5931C56.085 43.5931 56.1985 43.5931 56.312 43.5081L56.3404 43.5648Z" fill="white"/>
<path d="M5.83928 59.9699C7.85365 59.5449 9.81127 58.9216 11.7122 58.0999C9.86802 56.8532 7.7969 55.9466 5.6123 55.3516V56.5132C5.6123 58.1283 5.6123 58.9499 5.78253 59.6866C5.78253 59.7716 5.8109 59.8566 5.83928 59.9416V59.9699Z" fill="white"/>
<path d="M55.9713 70.2832H20.3084C17.9581 70.2832 16.0527 72.186 16.0527 74.5332V84.1667C16.0527 86.5139 17.9581 88.4167 20.3084 88.4167H55.9713C58.3217 88.4167 60.227 86.5139 60.227 84.1667V74.5332C60.227 72.186 58.3217 70.2832 55.9713 70.2832Z" fill="#000091"/>
<path d="M21.7271 85.2438V73.457H25.6139C28.2241 73.457 29.7845 74.7887 29.7845 76.9704C29.7845 79.1521 28.1957 80.4838 25.6139 80.4838H24.1102V85.2438H21.7271ZM25.7274 75.4404H24.1386V78.5004H25.7274C26.7488 78.5004 27.3446 77.9054 27.3446 76.9421C27.3446 76.0637 26.7488 75.4404 25.7274 75.4404Z" fill="white"/>
<path d="M31.9409 85.2438V73.457H35.5441C38.1543 73.457 39.7431 74.7887 39.7431 76.9704C39.7431 78.4154 39.0621 79.4638 37.8422 80.0304L41.5305 85.2438H38.7217L35.5725 80.4838H34.3525V85.2438H31.9693H31.9409ZM35.6859 75.4404H34.3241V78.5004H35.6859C36.7073 78.5004 37.2747 77.9054 37.2747 76.9421C37.2747 76.0637 36.6789 75.4404 35.6859 75.4404Z" fill="white"/>
<path d="M48.3111 73.1172C52.0278 73.1172 54.5528 75.9789 54.5528 79.3506C54.5528 82.7223 51.9994 85.584 48.3111 85.584C44.6228 85.584 42.041 82.7223 42.041 79.3506C42.041 75.9789 44.5944 73.1172 48.3111 73.1172ZM48.3111 83.3456C50.5241 83.3456 52.1129 81.6173 52.1129 79.3506C52.1129 77.0839 50.5241 75.3555 48.3111 75.3555C46.0981 75.3555 44.5093 77.0839 44.5093 79.3506C44.5093 81.6173 46.0981 83.3456 48.3111 83.3456Z" fill="white"/>
</g>
<defs>
<clipPath id="clip0_2340_12158">
<rect width="77" height="87.8342" fill="white" transform="translate(0.25 0.583008)"/>
</clipPath>
</defs>
</svg>
