<svg width="102" height="102" viewBox="0 0 102 102" fill="none" xmlns="http://www.w3.org/2000/svg">
<path d="M51 99.2143C81.8571 99.2143 99.2143 81.8572 99.2143 51.0001C99.2143 20.1429 81.8571 2.78577 51 2.78577C20.1429 2.78577 2.78572 20.1429 2.78572 51.0001C2.78572 81.8572 20.1429 99.2143 51 99.2143Z" fill="#E6FEDA"/>
<path d="M51 99.2143C81.8572 99.2143 99.2143 81.8572 99.2143 51.0001C99.2143 20.1429 81.8572 2.78577 51 2.78577C20.1429 2.78577 2.78572 20.1429 2.78572 51.0001C2.78572 81.8572 20.1429 99.2143 51 99.2143Z" stroke="#77BB64" stroke-width="4" stroke-linecap="round" stroke-linejoin="round"/>
<path d="M29.67 69.3678C28.6209 59.0306 32.91 48.2152 38.7883 38.7883L63.2117 63.2118C53.7849 69.09 42.9617 73.3869 32.6323 72.33C31.8726 72.2538 31.1626 71.9172 30.6228 71.3773C30.0829 70.8374 29.7463 70.1275 29.67 69.3678Z" fill="white"/>
<path d="M72.33 32.6324C73.3792 42.9695 69.09 53.7849 63.2117 63.2118L38.7883 38.7884C48.2152 32.9101 59.0383 28.6132 69.3677 29.6701C70.9414 29.8244 72.1757 31.0586 72.33 32.6324Z" fill="white"/>
<path d="M72.33 32.6324C73.3792 42.9695 69.09 53.7849 63.2117 63.2118L38.7883 38.7884C48.2152 32.9101 59.0383 28.6132 69.3677 29.6701C70.9414 29.8244 72.1757 31.0586 72.33 32.6324Z" stroke="#77BB64" stroke-width="4" stroke-linecap="round" stroke-linejoin="round"/>
<path d="M29.67 69.3678C28.6209 59.0306 32.91 48.2152 38.7883 38.7883L63.2117 63.2118C53.7849 69.09 42.9617 73.3869 32.6323 72.33C31.8726 72.2538 31.1626 71.9172 30.6228 71.3773C30.0829 70.8374 29.7463 70.1275 29.67 69.3678Z" stroke="#77BB64" stroke-width="4" stroke-linecap="round" stroke-linejoin="round"/>
</svg>
