<svg width="240" height="240" viewBox="0 0 240 240" fill="none" xmlns="http://www.w3.org/2000/svg">
<path fill-rule="evenodd" clip-rule="evenodd" d="M216 35.9995C214.346 35.9995 213 34.6537 213 32.9995C213 31.3452 214.346 29.9995 216 29.9995C217.654 29.9995 219 31.3452 219 32.9995C219 34.6537 217.654 35.9995 216 35.9995Z" fill="#ECECFE"/>
<path fill-rule="evenodd" clip-rule="evenodd" d="M195 71.9995C193.346 71.9995 192 70.6537 192 68.9995C192 67.3452 193.346 65.9995 195 65.9995C196.654 65.9995 198 67.3452 198 68.9995C198 70.6537 196.654 71.9995 195 71.9995Z" fill="#ECECFE"/>
<path fill-rule="evenodd" clip-rule="evenodd" d="M39 213C37.3458 213 36 211.654 36 210C36 208.345 37.3458 207 39 207C40.6542 207 42 208.345 42 210C42 211.654 40.6542 213 39 213Z" fill="#ECECFE"/>
<path fill-rule="evenodd" clip-rule="evenodd" d="M201 225C199.346 225 198 223.654 198 222C198 220.345 199.346 219 201 219C202.654 219 204 220.345 204 222C204 223.654 202.654 225 201 225Z" fill="#ECECFE"/>
<path fill-rule="evenodd" clip-rule="evenodd" d="M171 23.9995C169.346 23.9995 168 22.6537 168 20.9995C168 19.3452 169.346 17.9995 171 17.9995C172.654 17.9995 174 19.3452 174 20.9995C174 22.6537 172.654 23.9995 171 23.9995Z" fill="#ECECFE"/>
<path fill-rule="evenodd" clip-rule="evenodd" d="M21 41.9995C19.3458 41.9995 18 40.6537 18 38.9995C18 37.3452 19.3458 35.9995 21 35.9995C22.6542 35.9995 24 37.3452 24 38.9995C24 40.6537 22.6542 41.9995 21 41.9995Z" fill="#ECECFE"/>
<path fill-rule="evenodd" clip-rule="evenodd" d="M151.114 153.214C152.652 153.829 153.401 155.575 152.785 157.114L140.785 187.114C140.17 188.652 138.424 189.4 136.886 188.785C135.347 188.17 134.599 186.424 135.214 184.885L147.214 154.885C147.83 153.347 149.576 152.599 151.114 153.214ZM175.114 168.214C176.652 168.829 177.401 170.575 176.785 172.114L170.785 187.114C170.17 188.652 168.424 189.4 166.886 188.785C165.347 188.17 164.599 186.424 165.214 184.885L171.214 169.885C171.83 168.347 173.576 167.599 175.114 168.214Z" fill="#E1000F"/>
<path fill-rule="evenodd" clip-rule="evenodd" d="M106.114 153.214C107.652 153.829 108.401 155.575 107.785 157.114L95.7853 187.114C95.1699 188.652 93.424 189.4 91.8857 188.785C90.3473 188.17 89.5991 186.424 90.2144 184.885L102.214 154.885C102.83 153.347 104.576 152.599 106.114 153.214Z" fill="#E1000F"/>
<path fill-rule="evenodd" clip-rule="evenodd" d="M61.114 153.214C62.6523 153.829 63.4006 155.575 62.7853 157.114L50.7853 187.114C50.1699 188.652 48.424 189.4 46.8856 188.785C45.3473 188.17 44.5991 186.424 45.2144 184.885L57.2144 154.885C57.8297 153.347 59.5756 152.599 61.114 153.214Z" fill="#E1000F"/>
<path fill-rule="evenodd" clip-rule="evenodd" d="M95.9998 114C100.97 114 105 109.97 105 105C105 100.029 100.97 95.9995 95.9998 95.9995C91.0292 95.9995 86.9998 100.029 86.9998 105C86.9998 109.97 91.0292 114 95.9998 114ZM95.9998 120C104.284 120 111 113.284 111 105C111 96.7152 104.284 89.9995 95.9998 89.9995C87.7155 89.9995 80.9998 96.7152 80.9998 105C80.9998 113.284 87.7155 120 95.9998 120Z" fill="#E1000F"/>
<path fill-rule="evenodd" clip-rule="evenodd" d="M56.9998 92.9995C56.9998 91.3427 58.3429 89.9995 59.9998 89.9995H71.9998C73.6566 89.9995 74.9998 91.3427 74.9998 92.9995C74.9998 94.6564 73.6566 95.9995 71.9998 95.9995H59.9998C58.3429 95.9995 56.9998 94.6564 56.9998 92.9995ZM56.9998 105C56.9998 103.343 58.3429 102 59.9998 102H71.9998C73.6566 102 74.9998 103.343 74.9998 105C74.9998 106.656 73.6566 108 71.9998 108H59.9998C58.3429 108 56.9998 106.656 56.9998 105ZM56.9998 117C56.9998 115.343 58.3429 114 59.9998 114H71.9998C73.6566 114 74.9998 115.343 74.9998 117C74.9998 118.656 73.6566 120 71.9998 120H59.9998C58.3429 120 56.9998 118.656 56.9998 117Z" fill="#E1000F"/>
<path fill-rule="evenodd" clip-rule="evenodd" d="M146.685 58.0149C147.878 53.8611 151.678 50.9995 156 50.9995C160.322 50.9995 164.122 53.8611 165.315 58.0149L181.157 113.142L193.217 152.113L193.235 152.171L196.059 162H207C208.657 162 210 163.343 210 165V180C210 181.656 208.657 183 207 183H186C184.343 183 183 181.656 183 180C183 178.343 184.343 177 186 177H204V168H193.8C192.462 168 191.286 167.114 190.917 165.828L187.477 153.857L180.788 132.245H153C151.343 132.245 150 130.902 150 129.245C150 127.588 151.343 126.245 153 126.245H178.931L175.416 114.886L175.399 114.828L172.574 105H139.426L136.601 114.828L136.584 114.886L128.228 141.886C127.738 143.469 126.058 144.355 124.475 143.865C122.892 143.376 122.006 141.695 122.496 140.113L126.134 128.358L130.843 113.142L146.685 58.0149ZM141.15 98.9995H170.85L164.815 77.9995H147.185L141.15 98.9995ZM148.909 71.9995H163.091L159.549 59.672C159.094 58.0896 157.646 56.9995 156 56.9995C154.353 56.9995 152.906 58.0896 152.451 59.672L148.909 71.9995Z" fill="#000091"/>
<path fill-rule="evenodd" clip-rule="evenodd" d="M136.114 153.214C137.652 153.829 138.401 155.575 137.785 157.114L125.785 187.114C125.17 188.652 123.424 189.4 121.886 188.785C120.347 188.17 119.599 186.424 120.214 184.885L132.214 154.885C132.83 153.347 134.576 152.599 136.114 153.214ZM166.114 153.214C167.652 153.829 168.401 155.575 167.785 157.114L155.785 187.114C155.17 188.652 153.424 189.4 151.886 188.785C150.347 188.17 149.599 186.424 150.214 184.885L162.214 154.885C162.83 153.347 164.576 152.599 166.114 153.214Z" fill="#000091"/>
<path fill-rule="evenodd" clip-rule="evenodd" d="M91.114 153.214C92.6523 153.829 93.4006 155.575 92.7852 157.114L80.7852 187.114C80.1699 188.652 78.424 189.4 76.8857 188.785C75.3473 188.17 74.5991 186.424 75.2144 184.885L87.2144 154.885C87.8297 153.347 89.5756 152.599 91.114 153.214ZM121.114 153.214C122.652 153.829 123.401 155.575 122.785 157.114L110.785 187.114C110.17 188.652 108.424 189.4 106.886 188.785C105.347 188.17 104.599 186.424 105.214 184.885L117.214 154.885C117.83 153.347 119.576 152.599 121.114 153.214Z" fill="#000091"/>
<path fill-rule="evenodd" clip-rule="evenodd" d="M76.114 153.214C77.6523 153.829 78.4006 155.575 77.7852 157.114L65.7852 187.114C65.1699 188.652 63.424 189.4 61.8856 188.785C60.3473 188.17 59.5991 186.424 60.2144 184.885L72.2144 154.885C72.8297 153.347 74.5756 152.599 76.114 153.214ZM43.114 160.714C44.6523 161.329 45.4006 163.075 44.7852 164.614L35.7853 187.114C35.1699 188.652 33.424 189.4 31.8856 188.785C30.3473 188.17 29.5991 186.424 30.2144 184.885L39.2144 162.385C39.8297 160.847 41.5756 160.099 43.114 160.714Z" fill="#000091"/>
<path fill-rule="evenodd" clip-rule="evenodd" d="M44.9998 53.9995C44.9998 52.3427 46.343 50.9995 47.9998 50.9995H132C133.657 50.9995 135 52.3427 135 53.9995V59.9995C135 61.6564 133.657 62.9995 132 62.9995C130.343 62.9995 129 61.6564 129 59.9995V56.9995H50.9998V74.9995H123C124.657 74.9995 126 76.3427 126 77.9995C126 79.6564 124.657 80.9995 123 80.9995H50.9998V144C50.9998 145.656 49.6567 147 47.9998 147C46.343 147 44.9998 145.656 44.9998 144V53.9995Z" fill="#000091"/>
<path d="M62.9998 65.9995C62.9998 67.6564 61.6567 68.9995 59.9998 68.9995C58.343 68.9995 56.9998 67.6564 56.9998 65.9995C56.9998 64.3427 58.343 62.9995 59.9998 62.9995C61.6567 62.9995 62.9998 64.3427 62.9998 65.9995Z" fill="#000091"/>
<path d="M74.9998 65.9995C74.9998 67.6564 73.6567 68.9995 71.9998 68.9995C70.343 68.9995 68.9998 67.6564 68.9998 65.9995C68.9998 64.3427 70.343 62.9995 71.9998 62.9995C73.6567 62.9995 74.9998 64.3427 74.9998 65.9995Z" fill="#000091"/>
<path d="M86.9998 65.9995C86.9998 67.6564 85.6567 68.9995 83.9998 68.9995C82.343 68.9995 80.9998 67.6564 80.9998 65.9995C80.9998 64.3427 82.343 62.9995 83.9998 62.9995C85.6567 62.9995 86.9998 64.3427 86.9998 65.9995Z" fill="#000091"/>
<path d="M144 129C144 130.656 142.657 132 141 132C139.343 132 138 130.656 138 129C138 127.343 139.343 126 141 126C142.657 126 144 127.343 144 129Z" fill="#000091"/>
</svg>
