<?xml version="1.0" encoding="UTF-8" standalone="no"?>
<!-- Created with Inkscape (http://www.inkscape.org/) -->

<svg
   xmlns:dc="http://purl.org/dc/elements/1.1/"
   xmlns:cc="http://creativecommons.org/ns#"
   xmlns:rdf="http://www.w3.org/1999/02/22-rdf-syntax-ns#"
   xmlns:svg="http://www.w3.org/2000/svg"
   xmlns="http://www.w3.org/2000/svg"
   xmlns:sodipodi="http://sodipodi.sourceforge.net/DTD/sodipodi-0.dtd"
   xmlns:inkscape="http://www.inkscape.org/namespaces/inkscape"
   width="100"
   height="100"
   id="svg3900"
   version="1.1"
   inkscape:version="0.48.5 r10040"
   sodipodi:docname="api.svg"
   inkscape:export-filename="/home/ybon/Code/projects/wwwenix/wwwenix/static/wwwenix/img/highlight_api.png"
   inkscape:export-xdpi="135"
   inkscape:export-ydpi="135">
  <defs
     id="defs3902" />
  <sodipodi:namedview
     id="base"
     pagecolor="#ffffff"
     bordercolor="#666666"
     borderopacity="1.0"
     inkscape:pageopacity="0.0"
     inkscape:pageshadow="2"
     inkscape:zoom="2.1107137"
     inkscape:cx="20.914382"
     inkscape:cy="52.661265"
     inkscape:document-units="px"
     inkscape:current-layer="layer1"
     showgrid="true"
     inkscape:window-width="1366"
     inkscape:window-height="744"
     inkscape:window-x="0"
     inkscape:window-y="24"
     inkscape:window-maximized="1">
    <inkscape:grid
       type="xygrid"
       id="grid3908"
       empspacing="5"
       visible="true"
       enabled="true"
       snapvisiblegridlinesonly="true" />
  </sodipodi:namedview>
  <metadata
     id="metadata3905">
    <rdf:RDF>
      <cc:Work
         rdf:about="">
        <dc:format>image/svg+xml</dc:format>
        <dc:type
           rdf:resource="http://purl.org/dc/dcmitype/StillImage" />
        <dc:title />
      </cc:Work>
    </rdf:RDF>
  </metadata>
  <g
     inkscape:label="Layer 1"
     inkscape:groupmode="layer"
     id="layer1"
     transform="translate(0,-952.36218)">
    <path
       sodipodi:type="arc"
       style="fill:none;stroke:#f2f2f2;stroke-width:2.09761763;stroke-miterlimit:4;stroke-opacity:1;stroke-dasharray:none"
       id="path3929"
       sodipodi:cx="40"
       sodipodi:cy="47.5"
       sodipodi:rx="25"
       sodipodi:ry="27.5"
       d="m 65,47.5 a 25,27.5 0 1 1 -50,0 25,27.5 0 1 1 50,0 z"
       transform="matrix(1.9230769,0,0,1.7482517,-26.923077,919.32023)" />
    <text
       xml:space="preserve"
       style="font-size:40px;font-style:normal;font-weight:normal;line-height:125%;letter-spacing:0px;word-spacing:0px;fill:#000000;fill-opacity:1;stroke:none;font-family:Sans"
       x="155.7868"
       y="967.80786"
       id="text4457"
       sodipodi:linespacing="125%"><tspan
         y="967.80786"
         x="155.7868"
         sodipodi:role="line"
         id="tspan4459" /></text>
    <g
       id="g3194"
       transform="matrix(0.5794568,0,0,0.5794568,-44.84735,398.67827)"
       style="fill:#f2f2f2">
      <polygon
         id="polygon120"
         points="55.52,94.986 57.754,94.986 97.768,94.986 100,94.986 100,92.755 100,86.494 100,84.262 97.768,84.262 57.754,84.262 55.52,84.262 55.52,86.494 55.52,92.755 "
         transform="translate(110,992.36218)"
         style="fill:#f2f2f2" />
      <polygon
         id="polygon122"
         points="39.666,8.642 39.666,5 36.42,6.652 1.221,24.567 0,25.187 0,26.556 0,31.371 0,32.743 1.224,33.363 36.422,51.2 39.666,52.843 39.666,49.207 39.666,44.077 39.666,42.704 38.44,42.084 12.396,28.925 38.44,15.765 39.666,15.146 39.666,13.772 "
         transform="translate(110,992.36218)"
         style="fill:#f2f2f2" />
      <polygon
         id="polygon124"
         points="28.681,94.986 32.158,94.986 38.674,94.986 40.11,94.986 40.705,93.68 79.791,8.161 81.234,5 77.76,5 71.244,5 69.813,5 69.215,6.304 30.126,91.825 "
         transform="translate(110,992.36218)"
         style="fill:#f2f2f2" />
    </g>
  </g>
</svg>
