<?xml version="1.0" encoding="UTF-8" standalone="no"?>
<svg
   xmlns:dc="http://purl.org/dc/elements/1.1/"
   xmlns:cc="http://creativecommons.org/ns#"
   xmlns:rdf="http://www.w3.org/1999/02/22-rdf-syntax-ns#"
   xmlns:svg="http://www.w3.org/2000/svg"
   xmlns="http://www.w3.org/2000/svg"
   xmlns:sodipodi="http://sodipodi.sourceforge.net/DTD/sodipodi-0.dtd"
   xmlns:inkscape="http://www.inkscape.org/namespaces/inkscape"
   version="1.1"
   x="0px"
   y="0px"
   viewBox="0 0 60.000001 60"
   enable-background="new 0 0 100 100"
   xml:space="preserve"
   id="svg2"
   inkscape:version="0.91 r13725"
   sodipodi:docname="back.svg"
   width="60"
   height="60"><metadata
     id="metadata10"><rdf:RDF><cc:Work
         rdf:about=""><dc:format>image/svg+xml</dc:format><dc:type
           rdf:resource="http://purl.org/dc/dcmitype/StillImage" /><dc:title></dc:title></cc:Work></rdf:RDF></metadata><defs
     id="defs8" /><sodipodi:namedview
     pagecolor="#ffffff"
     bordercolor="#666666"
     borderopacity="1"
     objecttolerance="10"
     gridtolerance="10"
     guidetolerance="10"
     inkscape:pageopacity="0"
     inkscape:pageshadow="2"
     inkscape:window-width="1366"
     inkscape:window-height="744"
     id="namedview6"
     showgrid="false"
     inkscape:zoom="4.72"
     inkscape:cx="14.642332"
     inkscape:cy="28.455485"
     inkscape:window-x="0"
     inkscape:window-y="24"
     inkscape:window-maximized="1"
     inkscape:current-layer="svg2"
     fit-margin-top="0"
     fit-margin-left="0"
     fit-margin-right="0"
     fit-margin-bottom="0" /><path
     inkscape:connector-curvature="0"
     d="m 36.301712,55.521491 -12.382,-25.938 12.38,-25.9389989 c 0.357,-0.748 0.04,-1.6430001 -0.707,-2.0000001 -0.748,-0.357 -1.644,-0.041 -2,0.708 l -12.689,26.584999 c -0.011,0.022 -0.015,0.046 -0.024,0.068 -0.021,0.05 -0.04,0.1 -0.055,0.152 -0.014,0.044 -0.025,0.089 -0.034,0.134 -0.01,0.049 -0.017,0.098 -0.021,0.148 -0.004,0.049 -0.007,0.096 -0.007,0.144 0,0.048 0.003,0.097 0.007,0.146 0.005,0.049 0.012,0.097 0.021,0.145 0.009,0.046 0.021,0.092 0.035,0.138 0.015,0.05 0.033,0.1 0.053,0.147 0.01,0.023 0.014,0.048 0.025,0.071 l 12.691,26.585 c 0.257,0.539 0.795,0.854 1.354,0.854 0.217,0 0.437,-0.047 0.646,-0.146 0.747,-0.358 1.065,-1.253 0.707,-2.002 z"
     id="path4219"
     style="fill:#444444;fill-opacity:1" /></svg>