<?xml version="1.0" encoding="UTF-8" standalone="no"?>
<!-- Created with Inkscape (http://www.inkscape.org/) -->

<svg
   xmlns:dc="http://purl.org/dc/elements/1.1/"
   xmlns:cc="http://creativecommons.org/ns#"
   xmlns:rdf="http://www.w3.org/1999/02/22-rdf-syntax-ns#"
   xmlns:svg="http://www.w3.org/2000/svg"
   xmlns="http://www.w3.org/2000/svg"
   xmlns:sodipodi="http://sodipodi.sourceforge.net/DTD/sodipodi-0.dtd"
   xmlns:inkscape="http://www.inkscape.org/namespaces/inkscape"
   width="100"
   height="100"
   id="svg3900"
   version="1.1"
   inkscape:version="0.48.5 r10040"
   sodipodi:docname="about.svg"
   inkscape:export-filename="/home/ybon/Code/projects/wwwenix/wwwenix/static/wwwenix/img/highlight_api.png"
   inkscape:export-xdpi="135"
   inkscape:export-ydpi="135">
  <defs
     id="defs3902" />
  <sodipodi:namedview
     id="base"
     pagecolor="#ffffff"
     bordercolor="#666666"
     borderopacity="1.0"
     inkscape:pageopacity="0.0"
     inkscape:pageshadow="2"
     inkscape:zoom="2.985"
     inkscape:cx="121.3989"
     inkscape:cy="32.375529"
     inkscape:document-units="px"
     inkscape:current-layer="layer1"
     showgrid="true"
     inkscape:window-width="1366"
     inkscape:window-height="744"
     inkscape:window-x="0"
     inkscape:window-y="24"
     inkscape:window-maximized="1">
    <inkscape:grid
       type="xygrid"
       id="grid3908"
       empspacing="5"
       visible="true"
       enabled="true"
       snapvisiblegridlinesonly="true" />
  </sodipodi:namedview>
  <metadata
     id="metadata3905">
    <rdf:RDF>
      <cc:Work
         rdf:about="">
        <dc:format>image/svg+xml</dc:format>
        <dc:type
           rdf:resource="http://purl.org/dc/dcmitype/StillImage" />
        <dc:title></dc:title>
      </cc:Work>
    </rdf:RDF>
  </metadata>
  <g
     inkscape:label="Layer 1"
     inkscape:groupmode="layer"
     id="layer1"
     transform="translate(0,-952.36218)">
    <path
       sodipodi:type="arc"
       style="fill:#808080;fill-opacity:1;fill-rule:nonzero;stroke:none"
       id="path3929"
       sodipodi:cx="40"
       sodipodi:cy="47.5"
       sodipodi:rx="25"
       sodipodi:ry="27.5"
       d="M 65,47.5 C 65,62.687831 53.807119,75 40,75 26.192881,75 15,62.687831 15,47.5 15,32.312169 26.192881,20 40,20 53.807119,20 65,32.312169 65,47.5 z"
       transform="matrix(2,0,0,1.8181818,-30,915.99855)" />
    <text
       xml:space="preserve"
       style="font-size:40px;font-style:normal;font-weight:normal;line-height:125%;letter-spacing:0px;word-spacing:0px;fill:#000000;fill-opacity:1;stroke:none;font-family:Sans"
       x="155.7868"
       y="967.80786"
       id="text4457"
       sodipodi:linespacing="125%"><tspan
         y="967.80786"
         x="155.7868"
         sodipodi:role="line"
         id="tspan4459" /></text>
    <circle
       style="fill:none;stroke:#ffffff;stroke-width:100"
       sodipodi:ry="440"
       sodipodi:rx="440"
       sodipodi:cy="490"
       sodipodi:cx="490"
       cx="490"
       cy="490"
       r="440"
       id="circle3125"
       transform="matrix(0.06122449,0,0,0.06122449,20,972.36219)" />
    <path
       inkscape:connector-curvature="0"
       d="m 49.75511,985.5254 c -7.959181,0 -14.632652,5.5716 -16.346942,13.04106 l 8.020411,0 c 1.46937,-3.1839 4.65306,-5.38776 8.326531,-5.38776 5.081611,0 9.183661,4.10196 9.183661,9.1837 0,5.0817 -4.10205,9.1836 -9.183661,9.1836 -3.673471,0 -6.857161,-2.2041 -8.326531,-5.3265 l -8.020411,0 c 1.71429,7.4082 8.387761,12.9795 16.346942,12.9795 9.306121,0 16.836722,-7.5306 16.836722,-16.8366 0,-9.3064 -7.530601,-16.837 -16.836722,-16.837 z"
       id="path3127"
       style="fill:#ffffff" />
  </g>
</svg>
