<svg width="44" height="54" viewBox="0 0 44 54" fill="none" xmlns="http://www.w3.org/2000/svg">
<path fill-rule="evenodd" clip-rule="evenodd" d="M28.666 18.3276V28.8516C28.666 30.0279 29.6208 30.9827 30.7971 30.9827C31.9734 30.9827 32.9282 30.0279 32.9282 28.8516V18.3276C32.9282 17.1513 31.9734 16.1965 30.7971 16.1965C29.6208 16.1965 28.666 17.1513 28.666 18.3276Z" fill="#BFBFBF" fill-opacity="0.9"/>
<path fill-rule="evenodd" clip-rule="evenodd" d="M20.6163 14.911L29.7303 20.1729C30.749 20.7611 32.0535 20.4116 32.6416 19.393C33.2295 18.3743 32.8801 17.0698 31.8614 16.4819L22.7475 11.2199C21.7288 10.6318 20.4243 10.9812 19.8364 11.9999C19.2482 13.0186 19.5977 14.3231 20.6163 14.911Z" fill="#E1000F" fill-opacity="0.9"/>
<path fill-rule="evenodd" clip-rule="evenodd" d="M29.7303 27.0061L20.6163 32.268C19.5977 32.8559 19.2482 34.1604 19.8364 35.1791C20.4243 36.1978 21.7288 36.5472 22.7475 35.9591L31.8614 30.6971C32.8801 30.1092 33.2295 28.8047 32.6416 27.786C32.0535 26.7674 30.749 26.4179 29.7303 27.0061Z" fill="#000091" fill-opacity="0.9"/>
<path fill-rule="evenodd" clip-rule="evenodd" d="M14.6997 28.8516V18.3276C14.6997 17.1513 13.7449 16.1965 12.5686 16.1965C11.3923 16.1965 10.4375 17.1513 10.4375 18.3276V28.8516C10.4375 30.0279 11.3923 30.9827 12.5686 30.9827C13.7449 30.9827 14.6997 30.0279 14.6997 28.8516Z" fill="#BFBFBF" fill-opacity="0.9"/>
<path fill-rule="evenodd" clip-rule="evenodd" d="M13.6342 20.1729L22.7482 14.911C23.7669 14.3231 24.1163 13.0186 23.5282 11.9999C22.9403 10.9812 21.6358 10.6318 20.6171 11.2199L11.5031 16.4819C10.4845 17.0698 10.135 18.3743 10.7229 19.393C11.3111 20.4116 12.6156 20.7611 13.6342 20.1729Z" fill="#000091" fill-opacity="0.9"/>
<path fill-rule="evenodd" clip-rule="evenodd" d="M4.1699 31.0435L12.5843 30.9827C13.7606 30.9741 14.7084 30.0124 14.7001 28.8363C14.6915 27.66 13.7297 26.7121 12.5534 26.7205L4.13905 26.7813C2.963 26.7899 2.01489 27.7516 2.0235 28.9279C2.03187 30.104 2.99385 31.0521 4.1699 31.0435Z" fill="#E1000F" fill-opacity="0.9"/>
<path fill-rule="evenodd" clip-rule="evenodd" d="M10.578 8.25794C13.5914 5.7645 17.4579 4.26204 21.6722 4.26204C25.886 4.26204 29.753 5.7645 32.7659 8.25794C33.6716 9.00916 35.0158 8.88128 35.7665 7.97554C36.5167 7.06981 36.3904 5.72719 35.4847 4.97596C31.7333 1.86982 26.9191 -0.000244141 21.6722 -0.000244141C16.4248 -0.000244141 11.6105 1.86982 7.85919 4.97596C6.95345 5.72719 6.82717 7.06981 7.57733 7.97554C8.32803 8.88128 9.67226 9.00916 10.578 8.25794Z" fill="#BFBFBF" fill-opacity="0.9"/>
<path fill-rule="evenodd" clip-rule="evenodd" d="M6.06152 27.982C4.98103 25.707 4.26229 23.5439 4.26229 21.6738C4.26229 16.2767 6.72163 11.4549 10.5779 8.25822C11.4842 7.50699 11.6105 6.16437 10.8598 5.25863C10.1096 4.35289 8.76487 4.22501 7.85913 4.97624C3.05926 8.95082 0 14.9607 0 21.6738C0 24.082 0.822086 26.8844 2.21106 29.8094C2.71508 30.875 3.98737 31.3278 5.05028 30.8217C6.11266 30.3155 6.56607 29.0475 6.06152 27.982Z" fill="#000091" fill-opacity="0.9"/>
<path fill-rule="evenodd" clip-rule="evenodd" d="M32.7656 8.25822C36.622 11.4549 39.0813 16.2767 39.0813 21.6738C39.0813 24.5988 37.3998 28.1951 35.1728 31.8393C29.5487 41.0512 20.1701 50.359 20.1701 50.359C19.3352 51.1848 19.3309 52.5381 20.1599 53.3692C20.9889 54.2057 22.339 54.211 23.1739 53.3798C23.1739 53.3798 32.9447 43.6672 38.8106 34.0611C41.5076 29.6443 43.3436 25.2168 43.3436 21.6738C43.3436 14.9607 40.2849 8.95082 35.4845 4.97624C34.5787 4.22501 33.234 4.35289 32.4838 5.25863C31.7336 6.16437 31.8599 7.50699 32.7656 8.25822Z" fill="#E1000F" fill-opacity="0.9"/>
<path fill-rule="evenodd" clip-rule="evenodd" d="M23.1741 50.3586C23.1741 50.3586 16.4386 43.6668 10.9509 36.0107C10.2652 35.057 8.93272 34.8332 7.9769 35.5205C7.02108 36.2078 6.80158 37.5398 7.48674 38.4935C13.1812 46.4373 20.1703 53.3795 20.1703 53.3795C21.0046 54.2106 22.3547 54.2053 23.1837 53.3689C24.0127 52.5377 24.0084 51.1844 23.1741 50.3586Z" fill="#000091" fill-opacity="0.9"/>
</svg>
