<svg width="512" height="512" viewBox="0 0 512 512" fill="none" xmlns="http://www.w3.org/2000/svg">
<path d="M172.2 226.824C157.6 223.924 144 235.724 144 250.624V301.024C144 311.224 151.1 319.424 160.7 323.024C178.9 329.824 192 347.424 192 368.024C192 394.524 170.5 416.024 144 416.024C117.5 416.024 96 394.524 96 368.024V120.024C96 106.724 85.3 96.0242 72 96.0242H24C10.7 96.0242 0 106.724 0 120.024V368.024C0 457.524 82.1 528.224 175 508.724C229.4 497.324 273.3 453.324 284.7 399.024C302.1 316.124 247.7 241.824 172.2 226.824ZM209 0.0242363C199.8 -0.475764 192 6.82424 192 16.0242V47.6242C192 56.1242 198.6 63.1242 207 63.5242C336.4 70.5242 440.4 175.524 447.9 305.024C448.4 313.424 455.4 320.024 463.8 320.024H495.9C505.1 320.024 512.4 312.224 511.9 303.024C503.4 139.824 372.2 8.62424 209 0.0242363ZM209.3 96.0242C200 95.3242 192 102.724 192 112.124V144.224C192 152.624 198.5 159.524 206.8 160.124C283.6 166.424 344.8 228.324 351.7 305.324C352.5 313.624 359.3 320.024 367.6 320.024H399.8C409.1 320.024 416.6 312.024 415.9 302.724C407.5 192.624 319.4 104.524 209.3 96.0242V96.0242Z" fill="white"/>
</svg>
