<?xml version="1.0" encoding="UTF-8" standalone="no"?><!DOCTYPE svg PUBLIC "-//W3C//DTD SVG 1.1//EN" "http://www.w3.org/Graphics/SVG/1.1/DTD/svg11.dtd"><svg width="100%" height="100%" viewBox="0 0 32 32" version="1.1" xmlns="http://www.w3.org/2000/svg" xmlns:xlink="http://www.w3.org/1999/xlink" xml:space="preserve" style="fill-rule:evenodd;clip-rule:evenodd;stroke-linejoin:round;stroke-miterlimit:1.41421;"><path d="M29,0l-26,0c-1.65,0 -3,1.35 -3,3l0,26c0,1.65 1.35,3 3,3l26,0c1.65,0 3,-1.35 3,-3l0,-26c0,-1.65 -1.35,-3 -3,-3Zm-20.281,25.975c-1.5,0 -2.719,-1.206 -2.719,-2.706c0,-1.488 1.219,-2.712 2.719,-2.712c1.506,0 2.719,1.225 2.719,2.712c0,1.5 -1.219,2.706 -2.719,2.706Zm6.825,0.025c0,-2.556 -0.994,-4.962 -2.794,-6.762c-1.806,-1.806 -4.2,-2.8 -6.75,-2.8l0,-3.912c7.425,0 13.475,6.044 13.475,13.475l-3.931,0l0,-0.001Zm6.944,0c0,-9.094 -7.394,-16.5 -16.481,-16.5l0,-3.912c11.25,0 20.406,9.162 20.406,20.413l-3.925,0l0,-0.001Z" style="fill:#fff;fill-rule:nonzero;"/></svg>