<svg xmlns="http://www.w3.org/2000/svg" viewBox="0 0 109.22 88.95"><defs><style>.cls-1{fill:#fff;}</style></defs><title>icon_twitter</title><g id="Calque_2" data-name="Calque 2"><g id="Calque_1-2" data-name="Calque 1"><path class="cls-1" d="M106.24,1.85A22.89,22.89,0,0,1,96.69,14a39.53,39.53,0,0,0,6.37-1.22c2.08-.57,4.1-1.3,6.16-2.06-.39.55-.76,1.1-1.16,1.64a45.4,45.4,0,0,1-9.59,9.56.76.76,0,0,0-.35.73A56.41,56.41,0,0,1,98,29.35a64.5,64.5,0,0,1-2.83,14.75,66.33,66.33,0,0,1-8,16.93A61.62,61.62,0,0,1,66.32,80.73,61,61,0,0,1,46,88a68.3,68.3,0,0,1-14.31.93A63.35,63.35,0,0,1,10,84.14,59.61,59.61,0,0,1,0,78.91a45.26,45.26,0,0,0,32.91-9.29A22.74,22.74,0,0,1,20.06,65.1a22.39,22.39,0,0,1-8-11.13,22.2,22.2,0,0,0,9.84-.38,22.72,22.72,0,0,1-12.78-8A22.31,22.31,0,0,1,4.2,31.26a22.46,22.46,0,0,0,10,2.8c-.08-.22-.26-.28-.39-.38a22.12,22.12,0,0,1-9.3-16.22A21.89,21.89,0,0,1,7.17,4.6c.27-.49.27-.49.62-.07A63.73,63.73,0,0,0,30.6,22a62.67,62.67,0,0,0,19,5.27c1.18.13,2.36.26,3.54.3.57,0,.57,0,.46-.52a21.86,21.86,0,0,1,.48-11A22.11,22.11,0,0,1,65.35,2.5,21.64,21.64,0,0,1,76.93,0,22.14,22.14,0,0,1,90.69,5.79a4,4,0,0,1,.64.6,1.45,1.45,0,0,0,1.77.5,46,46,0,0,0,12.45-4.82l.59-.33Z"/></g></g></svg>