<svg xmlns="http://www.w3.org/2000/svg" width="798.96" height="592.181" viewBox="0 0 798.96 592.181" xmlns:xlink="http://www.w3.org/1999/xlink" role="img" artist="Katerina Limpitsouni" source="https://undraw.co/"><g transform="translate(-402.962 -167)"><g transform="translate(402.962 167)"><path d="M993.289,172.335H196.33a1.023,1.023,0,0,1,0-2.046H993.289a1.023,1.023,0,0,1,0,2.046Z" transform="translate(-195.33 -135.514)" fill="#cacaca"/><ellipse cx="11.006" cy="11.251" rx="11.006" ry="11.251" transform="translate(12.514)" fill="#3f3d56"/><ellipse cx="11.006" cy="11.251" rx="11.006" ry="11.251" transform="translate(50.533)" fill="#3f3d56"/><ellipse cx="11.006" cy="11.251" rx="11.006" ry="11.251" transform="translate(88.553)" fill="#3f3d56"/><path d="M980.2,141.98H953.19a2.046,2.046,0,1,1,0-4.092H980.2a2.046,2.046,0,1,1,0,4.092Z" transform="translate(-205.024 -135.099)" fill="#3f3d56"/><path d="M980.2,149.751H953.19a2.046,2.046,0,1,1,0-4.092H980.2a2.046,2.046,0,1,1,0,4.092Z" transform="translate(-205.024 -135.198)" fill="#3f3d56"/><path d="M980.2,157.522H953.19a2.046,2.046,0,1,1,0-4.092H980.2a2.046,2.046,0,1,1,0,4.092Z" transform="translate(-205.024 -135.298)" fill="#3f3d56"/></g><path d="M25.691,4.116A15.794,15.794,0,1,1,2.008,18.306L2,17.794l.008-.512A15.794,15.794,0,0,1,25.691,4.116ZM22.848,21.4a1.579,1.579,0,0,0-2.233.022,3.948,3.948,0,0,1-5.642,0,1.579,1.579,0,1,0-2.255,2.211,7.107,7.107,0,0,0,10.152,0,1.579,1.579,0,0,0-.022-2.233Zm-9.776-8.349-.2.011a1.579,1.579,0,0,0,.185,3.148l.2-.011a1.579,1.579,0,0,0-.185-3.148Zm9.476,0-.2.011a1.579,1.579,0,0,0,.185,3.148l.2-.011a1.579,1.579,0,0,0-.185-3.148Z" transform="translate(808.702 362.435)" fill="#6c63ff"/><path d="M9710.237-15694.388l-.27-.014h-13.3a1.651,1.651,0,0,1-1.646-1.445l-.013-.194v-15.687a1.654,1.654,0,0,1,.833-1.421,4.914,4.914,0,0,0,2.479-3.939l.014-.331v-1.649a4.957,4.957,0,0,1,4.985-4.932,4.966,4.966,0,0,1,4.979,4.646l.007.285v6.581h3.326a4.971,4.971,0,0,1,4.954,4.362l.026.284.006.286-.032.324-1.673,8.276c-.625,2.653-2.47,4.569-4.617,4.569Zm-19.913-.014a3.3,3.3,0,0,1-3.313-3.036l-.013-.246v-11.515a3.31,3.31,0,0,1,3.078-3.284l.248-.006h1.666a1.654,1.654,0,0,1,1.647,1.454l.014.19v14.8a1.654,1.654,0,0,1-1.469,1.634l-.192.006Z" transform="translate(-8707.989 16373.791)" fill="#6c63ff"/><path d="M712.469,676.055c-45.083,0-94.074-6.7-142.735-19.582-60.177-15.931-115.352-39.977-159.561-69.54l1.309-1.958c44,29.419,98.927,53.356,158.855,69.22,54.156,14.338,108.717,20.981,157.767,19.228l.085,2.354Q720.418,676.057,712.469,676.055Z" transform="translate(227.619 -3.449)" fill="#090814"/><path d="M705.773,366.732c-14.642-4.767-29.7-9.206-44.762-13.193-86.666-22.944-171.859-31.09-246.374-23.553l-.237-2.344c74.792-7.561,160.277.6,247.214,23.62,15.1,4,30.206,8.45,44.889,13.231Z" transform="translate(227.564 -0.113)" fill="#090814"/><path d="M306.678,550.589c-36.122-35.56-51.379-72.658-42.96-104.459,10.8-40.81,58.8-69.027,131.683-77.415l.269,2.341C323.8,379.327,276.538,406.91,266,446.733c-8.193,30.949,6.842,67.236,42.335,102.178Z" transform="translate(229.526 -0.675)" fill="#090814"/><path d="M762.811,662.222l-.755-2.232c40.32-13.633,65.539-35.593,72.93-63.51,9.395-35.489-11.016-76.671-57.472-115.96-46.693-39.489-114.026-72.256-189.6-92.262l.6-2.278c75.9,20.094,143.562,53.03,190.516,92.741,47.19,39.91,67.87,81.945,58.229,118.362C829.661,625.8,803.916,648.324,762.811,662.222Z" transform="translate(263.289 -4.231)" fill="#090814"/><path d="M387.539,679.934c-88.585-39.289-156.847-90.261-192.21-143.528l1.963-1.3c35.118,52.9,103.021,103.568,191.2,142.678Z" transform="translate(237.612 -15.335)" fill="#090814"/><circle cx="9.424" cy="9.424" r="9.424" transform="translate(967.612 543.314)" fill="#e6e6e6"/><circle cx="9.424" cy="9.424" r="9.424" transform="translate(792.262 281.923)" fill="#e6e6e6"/><path d="M376.155,655.826c0,2.4.079,4.8.247,7.177.178,2.843.484,5.666.9,8.47a105.875,105.875,0,0,0,7.917,27.374l.592,1.3.3.651c.1.217.207.434.306.642.138.286.267.563.4.839.168.345.336.691.513,1.036.02.039.039.089.069.138.148.3.286.582.444.879a1.744,1.744,0,0,0,.1.188c.168.336.345.681.523,1.017.2.355.385.721.582,1.076.474.879.967,1.747,1.471,2.616.148.257.3.513.454.77.138.237.276.474.424.711.1.158.2.326.3.484.158.267.316.523.484.79.365.582.74,1.165,1.106,1.747h.01c.168.267.346.533.523.79v.01c.523.79,1.066,1.579,1.609,2.359a.01.01,0,0,1,.01.01c.434.632.888,1.244,1.333,1.856v.01c.3.385.582.78.879,1.165.237.316.484.642.73.958.049.069.109.128.158.2v.01c.069.089.138.168.207.257q1.57,2.014,3.238,3.939l.178.207c.059.069.128.138.188.217.1.109.188.217.286.326s.188.217.286.326a107.224,107.224,0,0,0,19.576,17.266c.958.661,1.935,1.3,2.912,1.925.247.158.494.316.74.464.069.049.148.1.217.148.138.079.267.158.4.247s.257.158.395.237c.523.326,1.056.642,1.589.958.128.079.267.158.4.237s.267.148.4.227c0,.01,0,.01.01.01h.01v.01h.01q.992.577,2.014,1.125c.365.2.74.4,1.116.592.849.464,1.708.908,2.567,1.333.306.148.622.3.928.454.257.118.513.247.77.365.079.039.148.069.217.109.217.1.424.2.642.3.237.109.474.217.7.326.267.118.523.237.79.345.987.444,1.984.869,2.981,1.273a104.492,104.492,0,0,0,10.938,3.791c.168.049.346.1.523.148q2.384.666,4.8,1.214,4.22.977,8.519,1.6h.02l1.027.148c.03,0,.059.01.1.01,0,.01,0,.01.01,0l1.135.148a.248.248,0,0,0,.079.01c.355.049.721.089,1.076.128l1.155.118.888.089a.192.192,0,0,0,.079.01c.267.02.533.049.8.069h.04l.691.059c2.754.217,5.518.316,8.322.316,3.031,0,6.042-.118,9.013-.375h.03l1.905-.178c.168-.02.326-.03.494-.049.03,0,.069-.01.1-.01.049-.01.1-.01.158-.02a.245.245,0,0,0,.079-.01c.217-.02.434-.049.661-.069l.74-.089c.247-.03.494-.069.74-.1.059-.01.109-.01.168-.02.178-.02.355-.049.533-.079l.257-.03c.178-.03.346-.049.523-.079h.01a104.35,104.35,0,0,0,15.992-3.6c.276-.089.553-.168.829-.257.01,0,.02-.01.03-.01.079-.03.168-.049.247-.079.74-.237,1.471-.484,2.2-.74,1.007-.336,2-.7,3-1.076.267-.109.533-.207.8-.316.543-.207,1.076-.424,1.609-.642.908-.365,1.816-.75,2.715-1.145.839-.375,1.668-.75,2.5-1.145.02-.01.049-.01.069-.03.188-.089.375-.178.553-.267h.01a105.83,105.83,0,0,0,13.12-7.493q2.014-1.347,3.968-2.784c1.046-.78,2.073-1.57,3.1-2.379a106.89,106.89,0,0,0,14.008-13.386v-.01c.306-.336.592-.681.888-1.027.049-.049.089-.1.128-.138.188-.227.365-.444.553-.661v-.01c.247-.286.494-.582.73-.879.059-.069.109-.128.158-.188v-.01c.2-.237.385-.474.582-.721.1-.118.188-.237.286-.355v-.01c.582-.731,1.145-1.461,1.708-2.211.148-.2.3-.4.454-.612.711-.958,1.4-1.935,2.073-2.912v-.01c.257-.365.5-.74.76-1.106l.74-1.125c.247-.395.5-.78.75-1.175l.03-.059c.247-.375.494-.77.73-1.155.188-.316.375-.622.563-.928.118-.207.247-.415.365-.632a2.359,2.359,0,0,0,.128-.207l.829-1.451c.326-.563.642-1.135.958-1.708.118-.237.247-.474.375-.711.049-.079.089-.158.128-.237.148-.276.3-.563.434-.849s.3-.563.444-.849.286-.563.424-.849c.109-.217.207-.434.316-.651a.213.213,0,0,1,.03-.049c.049-.109.1-.207.138-.306a.211.211,0,0,0,.03-.049c.109-.217.207-.444.316-.661.138-.286.267-.582.4-.869.089-.2.188-.4.276-.612.128-.286.267-.573.385-.869.138-.3.267-.592.395-.9a2.281,2.281,0,0,0,.1-.227c.069-.138.118-.276.178-.415.158-.365.316-.74.464-1.106.178-.415.345-.839.5-1.254.158-.385.306-.78.454-1.175l.059-.138a106.934,106.934,0,0,0,5.212-18.687v-.01a108.05,108.05,0,0,0,1.412-11c.01-.207.03-.4.039-.6.178-2.5.257-5,.257-7.522,0-1.116-.02-2.221-.049-3.327a105.846,105.846,0,0,0-23.475-63.377c-.316-.395-.632-.79-.958-1.185s-.661-.78-.987-1.165a106.367,106.367,0,0,0-170.82,12.271c-.484.77-.967,1.55-1.431,2.33s-.928,1.579-1.382,2.379A105.9,105.9,0,0,0,376.155,655.826Z" transform="translate(228.055 -2.993)" fill="#f2f2f2"/><path d="M441.495,598.087c-.078-.014-.156-.025-.233-.039a6.344,6.344,0,0,0,.919-.692Z" transform="translate(227.22 -3.607)" fill="#fff"/><g transform="translate(654.306 613.165)"><path d="M.259,0H23.023l1.416,26.135L-2.48,24.043Z" transform="translate(43.691 73.367)" fill="#ffb9b9"/><path d="M433.455,759.817c1.021.558,2.055,1.093,3.088,1.6.368.178.748.356,1.116.546.309.143.618.3.926.44.1.047.178.083.261.131.261.119.511.238.772.356.285.131.57.261.843.392.321.142.63.285.95.416,1.188.534,2.387,1.045,3.587,1.532a125.736,125.736,0,0,0,13.161,4.561c.2.059.416.119.629.178q2.869.8,5.773,1.461,5.078,1.176,10.251,1.924h.024l1.235.178c.036,0,.071.012.119.012,0,.012,0,.012.012,0l1.366.178a.3.3,0,0,0,.1.012c.428.06.867.107,1.295.155l1.39.142,1.069.107a.231.231,0,0,0,.095.012c.321.024.641.059.962.083h.048l.831.071c3.314.261,6.64.38,10.013.38,3.647,0,7.269-.143,10.844-.451h.036l2.292-.214c.2-.024.392-.036.594-.059.036,0,.083-.012.119-.012.059-.012.119-.012.19-.024a.288.288,0,0,0,.095-.012c.261-.024.523-.059.8-.083l.891-.107c.3-.036.594-.083.891-.119.071-.012.131-.012.2-.024.214-.024.428-.059.641-.1l.309-.036c.214-.036.416-.059.63-.1h.012a125.529,125.529,0,0,0,19.242-4.335c.333-.107.665-.2,1-.309a47.721,47.721,0,0,0-26.167-33.091,11.281,11.281,0,0,0,3.243-5.773,11.04,11.04,0,0,0-1.52-8.338,10.652,10.652,0,0,0-6.723-4.609l-17.6-3.682a10.955,10.955,0,0,0-12.828,8.552,11.6,11.6,0,0,0-.238,2.637C453.362,735.693,441.163,747.393,433.455,759.817Z" transform="translate(-433.455 -629.659)" fill="#6c63ff"/><circle cx="34.106" cy="34.106" r="34.106" transform="translate(15.239 13.189)" fill="#ffb9b9"/><path d="M459.6,710.342c-3.637-2.484-7.351-7.258-9.83-10.836a40.954,40.954,0,0,1-6.324-32.7,12.486,12.486,0,0,1,2.936-6.015c1.606-1.59,4.23-2.343,6.191-1.219a11.193,11.193,0,0,1,.455-8.881,19.725,19.725,0,0,1,5.832-6.946,32.848,32.848,0,0,1,33.452-3.96c2.13.987-1.369-6.637.861-5.9a9.09,9.09,0,0,0,6.861-.121c2.1-1.056,9.049,5.217,8.244,3.011a10.358,10.358,0,0,1,2.4,17.346c-1.76,1.486-3.958,2.341-5.885,3.6a16.9,16.9,0,0,0-5.168,21.806,22.387,22.387,0,0,0-6.589-2.863,7.577,7.577,0,0,0-6.743,1.622,8.513,8.513,0,0,0-2.062,6.424c.076,2.314.627,4.595.689,6.909.181,6.792,3.819,19.706-1.447,23.317C479.312,717.789,464.564,713.735,459.6,710.342Z" transform="translate(-431.513 -633.644)" fill="#2f2e41"/></g><path d="M972.951,419.826c0,2.4-.079,4.8-.247,7.177-.178,2.843-.484,5.666-.9,8.47a105.872,105.872,0,0,1-7.917,27.374l-.592,1.3-.3.652c-.1.217-.207.434-.306.642-.138.286-.267.563-.4.839-.168.346-.336.691-.513,1.037-.02.039-.039.089-.069.138-.148.3-.286.582-.444.879a1.715,1.715,0,0,1-.1.188c-.168.336-.346.681-.523,1.017-.2.355-.385.721-.582,1.076-.474.879-.967,1.747-1.471,2.616-.148.257-.3.513-.454.77-.138.237-.276.474-.424.711-.1.158-.2.326-.3.484-.158.267-.316.523-.484.79-.365.582-.74,1.165-1.106,1.747h-.01c-.168.267-.346.533-.523.79v.01c-.523.79-1.066,1.579-1.609,2.359a.01.01,0,0,0-.01.01c-.434.632-.888,1.244-1.333,1.856v.01c-.3.385-.582.78-.879,1.165-.237.316-.484.642-.731.958-.049.069-.109.128-.158.2v.01c-.069.089-.138.168-.207.257q-1.57,2.014-3.238,3.939l-.178.207c-.059.069-.128.138-.188.217-.1.109-.188.217-.286.326s-.188.217-.286.326a107.226,107.226,0,0,1-19.576,17.266c-.957.661-1.935,1.3-2.912,1.925-.247.158-.494.316-.74.464-.069.049-.148.1-.217.148-.138.079-.267.158-.4.247s-.257.158-.395.237c-.523.326-1.056.642-1.589.958-.128.079-.267.158-.4.237s-.267.148-.4.227c0,.01,0,.01-.01.01h-.01v.01h-.01q-.992.577-2.014,1.125c-.365.2-.74.4-1.116.592-.849.464-1.708.908-2.567,1.333-.306.148-.622.3-.928.454-.257.118-.513.247-.77.365-.079.039-.148.069-.217.109-.217.1-.424.2-.642.3-.237.109-.474.217-.7.326-.267.118-.523.237-.79.345-.987.444-1.984.869-2.981,1.273a104.52,104.52,0,0,1-10.938,3.791c-.168.049-.346.1-.523.148q-2.384.666-4.8,1.214-4.22.977-8.519,1.6h-.02l-1.027.148c-.03,0-.059.01-.1.01,0,.01,0,.01-.01,0l-1.135.148a.247.247,0,0,1-.079.01c-.355.049-.721.089-1.076.128l-1.155.118-.888.089a.192.192,0,0,1-.079.01c-.267.02-.533.049-.8.069h-.039l-.691.059c-2.754.217-5.518.316-8.322.316-3.031,0-6.042-.118-9.013-.375h-.03l-1.905-.178c-.168-.02-.326-.03-.494-.049-.03,0-.069-.01-.1-.01-.049-.01-.1-.01-.158-.02a.245.245,0,0,1-.079-.01c-.217-.02-.434-.049-.661-.069l-.74-.089c-.247-.03-.494-.069-.74-.1-.059-.01-.109-.01-.168-.02-.178-.02-.355-.049-.533-.079l-.257-.03c-.178-.03-.346-.049-.523-.079h-.01a104.357,104.357,0,0,1-15.992-3.6c-.276-.089-.553-.168-.829-.257-.01,0-.02-.01-.03-.01-.079-.03-.168-.049-.247-.079-.74-.237-1.471-.484-2.2-.74-1.007-.336-2-.7-3-1.076-.267-.109-.533-.207-.8-.316-.543-.207-1.076-.424-1.609-.642-.908-.365-1.816-.75-2.715-1.145-.839-.375-1.668-.75-2.5-1.145-.02-.01-.049-.01-.069-.03-.188-.089-.375-.178-.553-.267h-.01a105.809,105.809,0,0,1-13.12-7.493q-2.014-1.347-3.969-2.784c-1.046-.78-2.073-1.57-3.1-2.379a106.9,106.9,0,0,1-14.008-13.386v-.01c-.306-.336-.592-.681-.888-1.027-.049-.049-.089-.1-.128-.138-.188-.227-.365-.444-.553-.661v-.01c-.247-.286-.494-.582-.731-.879-.059-.069-.109-.128-.158-.188v-.01c-.2-.237-.385-.474-.582-.721-.1-.118-.188-.237-.286-.355v-.01c-.582-.73-1.145-1.461-1.708-2.211-.148-.2-.3-.4-.454-.612-.711-.958-1.4-1.935-2.073-2.912v-.01c-.257-.365-.5-.74-.76-1.106l-.74-1.125c-.247-.395-.5-.78-.75-1.175l-.03-.059c-.247-.375-.494-.77-.731-1.155-.188-.316-.375-.622-.563-.928-.118-.207-.247-.415-.365-.632a2.361,2.361,0,0,1-.128-.207l-.829-1.451c-.326-.563-.642-1.135-.958-1.708-.118-.237-.247-.474-.375-.711-.049-.079-.089-.158-.128-.237-.148-.276-.3-.563-.434-.849s-.3-.563-.444-.849-.286-.563-.424-.849c-.109-.217-.207-.434-.316-.652a.213.213,0,0,0-.03-.049c-.049-.109-.1-.207-.138-.306a.215.215,0,0,1-.03-.049c-.109-.217-.207-.444-.316-.661-.138-.286-.267-.582-.4-.869-.089-.2-.188-.4-.276-.612-.128-.286-.267-.573-.385-.869-.138-.3-.267-.592-.395-.9a2.257,2.257,0,0,1-.1-.227c-.069-.138-.118-.276-.178-.415-.158-.365-.316-.74-.464-1.106-.178-.415-.345-.839-.5-1.254-.158-.385-.306-.78-.454-1.175l-.059-.138a106.926,106.926,0,0,1-5.212-18.687v-.01a108.049,108.049,0,0,1-1.412-11c-.01-.207-.03-.4-.039-.6-.178-2.5-.257-5-.257-7.522,0-1.116.02-2.221.049-3.327a105.847,105.847,0,0,1,23.475-63.376c.316-.395.632-.79.958-1.185s.661-.78.987-1.165a106.367,106.367,0,0,1,170.82,12.271c.484.77.968,1.55,1.432,2.33s.928,1.579,1.382,2.379a105.9,105.9,0,0,1,13.6,52.074Z" transform="translate(223.128 0.034)" fill="#f2f2f2"/><path d="M910.363,362.087c.078-.014.156-.025.233-.039a6.338,6.338,0,0,1-.919-.692Z" transform="translate(221.212 -0.58)" fill="#fff"/><g transform="translate(1039.885 389.384)"><path d="M2.682,2.962,29.647,0l6.417,23.621L10.527,29.615Z" transform="translate(29.421 70.806)" fill="#ed9da0"/><ellipse cx="31.943" cy="32.655" rx="31.943" ry="32.655" transform="translate(6.89 15.651)" fill="#ed9da0"/><path d="M924.72,519.408c-.925.506-1.861.99-2.8,1.452-.333.161-.678.323-1.011.495-.28.129-.56.269-.839.4-.086.043-.161.075-.237.118-.237.108-.463.215-.7.323-.258.118-.516.237-.764.355-.291.129-.57.258-.861.376-1.076.484-2.163.947-3.249,1.388a113.863,113.863,0,0,1-11.921,4.131c-.183.054-.377.108-.57.161q-2.6.726-5.229,1.323-4.6,1.065-9.285,1.743h-.021l-1.119.161c-.032,0-.065.011-.108.011,0,.011,0,.011-.011,0l-1.237.161a.266.266,0,0,1-.086.011c-.387.054-.785.1-1.173.14l-1.259.129-.968.1a.211.211,0,0,1-.086.011c-.291.021-.581.054-.871.075h-.043l-.753.065c-3,.237-6.014.344-9.07.344-3.3,0-6.584-.129-9.823-.409H860.6l-2.076-.194c-.183-.022-.355-.032-.538-.054-.032,0-.075-.011-.108-.011-.054-.011-.108-.011-.172-.022a.267.267,0,0,1-.086-.011c-.237-.021-.473-.054-.721-.075l-.807-.1c-.269-.032-.538-.075-.807-.108-.065-.011-.118-.011-.183-.021-.194-.022-.387-.054-.581-.086l-.28-.032c-.194-.032-.377-.054-.57-.086h-.011a113.722,113.722,0,0,1-17.429-3.927c-.3-.1-.6-.183-.9-.28a43.225,43.225,0,0,1,23.7-29.974,10.218,10.218,0,0,1-2.937-5.229,10,10,0,0,1,1.377-7.553,9.649,9.649,0,0,1,6.089-4.174L879.5,477.2a9.923,9.923,0,0,1,11.62,7.746,10.5,10.5,0,0,1,.215,2.388C906.688,497.557,917.738,508.154,924.72,519.408Z" transform="translate(-817.72 -396.054)" fill="#6c63ff"/><path d="M940.8,420.479c-5.43-6.332-8.011-14.733-12.352-21.923s-11.894-13.626-19.874-11.952c-5.5,1.154-9.752,6.008-11.9,11.419s-2.555,11.38-2.932,17.226c.133-12.015-7.783-23.663-18.687-27.5s-23.953.443-30.8,10.1a16.65,16.65,0,0,0-22.114-.464c-6.129,5.478-7.485,15.9-2.978,22.89s14.268,9.59,21.431,5.715l2.532,2.329c-1.425,4.985,1.339,10.874,5.985,12.751,3.768,1.522,9.087,1.269,10.5,5.223.985,2.763-.856,5.712-2.815,7.835s-4.284,4.315-4.52,7.253c-.355,4.433,4.225,7.538,8.39,8.473,10.041,2.255,21.182-2.395,26.969-11.256q.167-.256.364-.513a38.775,38.775,0,0,0,7.8-29.648c-.326-2.048,0-3.571,1.415-4.056,6.1-2.1,23.2,2.3,28.378,6.28s9.32,9.239,14.3,13.473,11.337,7.5,17.667,6.346c5.069-.923,9.382-4.6,12.282-9.043s4.57-9.613,6.065-14.756C964.69,433.156,949.348,430.445,940.8,420.479Z" transform="translate(-816.491 -386.336)" fill="#2f2e41"/></g><path d="M278.155,352.826c0,2.4.079,4.8.247,7.177.178,2.843.484,5.666.9,8.47a105.872,105.872,0,0,0,7.917,27.374l.592,1.3.3.652c.1.217.207.434.306.642.138.286.267.563.4.839.168.346.336.691.513,1.037.02.039.039.089.069.138.148.3.286.582.444.879a1.719,1.719,0,0,0,.1.188c.168.336.346.681.523,1.017.2.355.385.721.582,1.076.474.879.967,1.747,1.471,2.616.148.257.3.513.454.77.138.237.276.474.424.711.1.158.2.326.3.484.158.267.316.523.484.79.365.582.74,1.165,1.106,1.747h.01c.168.267.345.533.523.79v.01c.523.79,1.066,1.579,1.609,2.359a.01.01,0,0,1,.007,0,.01.01,0,0,1,0,.007c.434.632.888,1.244,1.333,1.856v.01c.3.385.582.78.879,1.165.237.316.484.642.73.958.049.069.109.128.158.2v.01c.069.089.138.168.207.257q1.57,2.014,3.238,3.939l.178.207c.059.069.128.138.188.217.1.109.188.217.286.326s.188.217.286.326a107.224,107.224,0,0,0,19.576,17.266c.958.661,1.935,1.3,2.912,1.925.247.158.494.316.74.464.069.049.148.1.217.148.138.079.267.158.4.247s.257.158.395.237c.523.326,1.056.642,1.589.958.128.079.267.158.4.237s.267.148.4.227c0,.01,0,.01.01.01h.01v.01h.01q.992.577,2.014,1.125c.365.2.74.4,1.116.592.849.464,1.708.908,2.567,1.333.306.148.622.3.928.454.257.118.513.247.77.365.079.039.148.069.217.109.217.1.424.2.642.3.237.109.474.217.7.326.267.118.523.237.79.346.987.444,1.984.869,2.981,1.273a104.5,104.5,0,0,0,10.938,3.791c.168.049.345.1.523.148q2.384.666,4.8,1.214,4.22.977,8.519,1.6h.02l1.027.148c.03,0,.059.01.1.01,0,.01,0,.01.01,0l1.135.148a.246.246,0,0,0,.079.01c.355.049.721.089,1.076.128l1.155.118.888.089a.192.192,0,0,0,.079.01c.267.02.533.049.8.069h.039l.691.059c2.754.217,5.518.316,8.322.316,3.031,0,6.041-.118,9.013-.375h.03l1.905-.178c.168-.02.326-.03.494-.049.03,0,.069-.01.1-.01.049-.01.1-.01.158-.02a.246.246,0,0,0,.079-.01c.217-.02.434-.049.661-.069l.74-.089c.247-.03.494-.069.74-.1.059-.01.109-.01.168-.02.178-.02.355-.049.533-.079l.257-.03c.178-.03.345-.049.523-.079h.01a104.351,104.351,0,0,0,15.992-3.6c.276-.089.553-.168.829-.257.01,0,.02-.01.03-.01.079-.03.168-.049.247-.079.74-.237,1.471-.484,2.2-.74,1.007-.336,2-.7,3-1.076.267-.109.533-.207.8-.316.543-.207,1.076-.424,1.609-.642.908-.365,1.816-.75,2.715-1.145.839-.375,1.668-.75,2.5-1.145.02-.01.049-.01.069-.03.188-.089.375-.178.553-.267h.01a105.818,105.818,0,0,0,13.12-7.493q2.014-1.347,3.968-2.784c1.046-.78,2.073-1.57,3.1-2.379a106.9,106.9,0,0,0,14.008-13.386v-.01c.306-.336.592-.681.888-1.027.049-.049.089-.1.128-.138.188-.227.365-.444.553-.661v-.01c.247-.286.494-.582.73-.879.059-.069.109-.128.158-.188v-.01c.2-.237.385-.474.582-.721.1-.118.188-.237.286-.355v-.01c.582-.73,1.145-1.461,1.708-2.211.148-.2.3-.4.454-.612.711-.958,1.4-1.935,2.073-2.912v-.01c.257-.365.5-.74.76-1.106l.74-1.125c.247-.395.5-.78.75-1.175l.03-.059c.247-.375.494-.77.73-1.155.188-.316.375-.622.563-.928.118-.207.247-.415.365-.632a2.36,2.36,0,0,0,.128-.207l.829-1.451c.326-.563.642-1.135.958-1.708.118-.237.247-.474.375-.711.049-.079.089-.158.128-.237.148-.276.3-.563.434-.849s.3-.563.444-.849.286-.563.424-.849c.109-.217.207-.434.316-.652a.212.212,0,0,1,.03-.049c.049-.109.1-.207.138-.306a.215.215,0,0,0,.03-.049c.109-.217.207-.444.316-.661.138-.286.267-.582.4-.869.089-.2.188-.4.276-.612.128-.286.267-.573.385-.869.138-.3.267-.592.395-.9a2.274,2.274,0,0,0,.1-.227c.069-.138.118-.276.178-.415.158-.365.316-.74.464-1.106.178-.415.346-.839.5-1.254.158-.385.306-.78.454-1.175l.059-.138a106.919,106.919,0,0,0,5.212-18.687v-.01a108.013,108.013,0,0,0,1.412-11c.01-.207.03-.4.04-.6.178-2.5.257-5,.257-7.522,0-1.116-.02-2.221-.049-3.327a105.847,105.847,0,0,0-23.475-63.376c-.316-.395-.632-.79-.958-1.185s-.661-.78-.987-1.165a106.367,106.367,0,0,0-170.82,12.271c-.484.77-.967,1.55-1.431,2.33s-.928,1.579-1.382,2.379a105.9,105.9,0,0,0-13.6,52.073Z" transform="translate(229.312 0.893)" fill="#f2f2f2"/><path d="M343.495,295.087c-.078-.014-.156-.025-.233-.039a6.341,6.341,0,0,0,.919-.692Z" transform="translate(228.477 0.279)" fill="#fff"/><g transform="translate(564.032 320.101)"><path d="M2.826,0h24.8L26.57,32.121-1.5,29.923Z" transform="translate(41.358 62.103)" fill="#9e616a"/><path d="M335.455,454.775c.968.534,1.946,1.045,2.925,1.534.349.17.709.341,1.058.523.293.136.585.284.878.42.09.045.169.08.247.125.248.114.484.227.731.341.27.125.54.25.8.375.3.136.6.273.9.4,1.125.511,2.262,1,3.4,1.465a118.334,118.334,0,0,0,12.466,4.362c.191.057.394.114.6.17q2.717.767,5.468,1.4,4.81,1.125,9.71,1.84h.022l1.17.17c.034,0,.068.011.113.011,0,.011,0,.011.011,0l1.294.17a.277.277,0,0,0,.09.011c.405.057.821.1,1.226.148l1.316.136,1.013.1a.216.216,0,0,0,.09.011c.3.023.608.057.911.08h.045l.788.068c3.139.25,6.289.363,9.485.363,3.454,0,6.886-.136,10.272-.432h.034l2.171-.2c.191-.023.371-.034.563-.057.034,0,.079-.011.113-.011.056-.011.113-.011.18-.023a.279.279,0,0,0,.09-.011c.248-.023.5-.057.754-.079l.844-.1c.281-.034.563-.08.844-.114.068-.011.124-.011.191-.023.2-.023.4-.057.608-.091l.293-.034c.2-.034.394-.057.6-.091h.011A117.985,117.985,0,0,0,428,463.578c.315-.1.63-.193.945-.3a45.564,45.564,0,0,0-24.787-31.648,10.816,10.816,0,0,0,3.072-5.521,10.643,10.643,0,0,0-1.44-7.974,10.089,10.089,0,0,0-6.368-4.407l-16.674-3.521a10.381,10.381,0,0,0-12.151,8.179,11.2,11.2,0,0,0-.225,2.522C354.312,431.7,342.757,442.893,335.455,454.775Z" transform="translate(-335.455 -328.043)" fill="#6c63ff"/><circle cx="35.61" cy="35.61" r="35.61" transform="translate(15.982 9.148)" fill="#9e616a"/><path d="M388.422,397.236c-8.915,2.408-18.744-.793-25.7-6.866s-11.309-14.676-13.817-23.564c-1.837-6.509-2.707-13.734.191-19.845s10.7-10.233,16.716-7.147c-3.712-4.325-1.858-11.479,2.478-15.178s10.289-4.761,15.959-5.341c8.229-.842,16.729-.936,24.56,1.73s14.945,8.494,17.4,16.4a12.478,12.478,0,0,0,14.883-3.36,11.3,11.3,0,0,1-6.229,12.258l12-3.89c2.063,4.368-1.552,9.773-6.176,11.172s-9.614-.13-14-2.151-8.639-4.575-13.405-5.363-10.364.743-12.568,5.041c-1.155,2.251-1.215,4.888-1.885,7.327s-2.368,4.969-4.891,5.169c-1.593.126-3.154-.723-4.743-.549a5.11,5.11,0,0,0-4,3.911,15,15,0,0,0-.014,5.9l3.048,23.3Z" transform="translate(-341.889 -318.771)" fill="#2f2e41"/></g><path d="M9.868,3.123a9.472,9.472,0,0,1,7.875,2.25l.058.052.054-.047A9.472,9.472,0,0,1,25.327,3.1l.388.057a9.472,9.472,0,0,1,5.311,15.8l-.284.292-.076.065L18.9,30.968a1.579,1.579,0,0,1-2.073.129l-.148-.129L4.854,19.25A9.472,9.472,0,0,1,9.868,3.123Z" transform="translate(403.603 483.374)" fill="#6c63ff"/><path d="M9689.74-15698.73a4.735,4.735,0,0,1-4.729-4.464l-.013-.281v-14.941l14.919,9.946.181.1a1.549,1.549,0,0,0,1.391,0l.181-.1,14.919-9.946v14.941a4.733,4.733,0,0,1-4.463,4.729l-.279.016Zm-4.038-23.015a4.724,4.724,0,0,1,3.721-2.242l.317-.014h22.105a4.74,4.74,0,0,1,4.037,2.256l-15.093,10.057Z" transform="translate(-8739.551 16084.166)" fill="#6c63ff"/><path d="M27.272,3A6.318,6.318,0,0,1,33.59,9.318V21.954a6.318,6.318,0,0,1-6.318,6.318H19.81l-7.521,4.513a1.579,1.579,0,0,1-2.382-1.174l-.009-.18V28.272H8.318a6.318,6.318,0,0,1-6.31-6L2,21.954V9.318A6.318,6.318,0,0,1,8.318,3ZM20.954,17.215H11.477a1.579,1.579,0,1,0,0,3.159h9.477a1.579,1.579,0,1,0,0-3.159M24.113,10.9H11.477a1.579,1.579,0,1,0,0,3.159H24.113a1.579,1.579,0,1,0,0-3.159" transform="translate(544.14 546.914)" fill="#6c63ff"/><circle cx="9.424" cy="9.424" r="9.424" transform="translate(546.14 481.733)" fill="#e6e6e6"/></g></svg>