<?xml version="1.0" encoding="UTF-8" standalone="no"?>
<svg
   width="798.96"
   height="592.181"
   viewBox="0 0 798.96 592.181"
   role="img"
   artist="Katerina Limpitsouni"
   source="https://undraw.co/"
   version="1.1"
   id="svg235"
   sodipodi:docname="image_communaute.svg"
   inkscape:version="1.1.2 (0a00cf5339, 2022-02-04)"
   xmlns:inkscape="http://www.inkscape.org/namespaces/inkscape"
   xmlns:sodipodi="http://sodipodi.sourceforge.net/DTD/sodipodi-0.dtd"
   xmlns="http://www.w3.org/2000/svg"
   xmlns:svg="http://www.w3.org/2000/svg">
  <defs
     id="defs239" />
  <sodipodi:namedview
     id="namedview237"
     pagecolor="#ffffff"
     bordercolor="#666666"
     borderopacity="1.0"
     inkscape:pageshadow="2"
     inkscape:pageopacity="0.0"
     inkscape:pagecheckerboard="0"
     showgrid="false"
     inkscape:zoom="1.362759"
     inkscape:cx="399.55709"
     inkscape:cy="155.19986"
     inkscape:window-width="1850"
     inkscape:window-height="1016"
     inkscape:window-x="70"
     inkscape:window-y="27"
     inkscape:window-maximized="1"
     inkscape:current-layer="svg235" />
  <g
     transform="translate(-402.96202,-167)"
     id="g233">
    <g
       transform="translate(402.962,167)"
       id="g163">
      <path
         id="path149"
         transform="translate(2e-5)"
         d="m 17.714844,34.775391 c 0.283369,0.268743 0.271415,0.248381 0.515625,0.478515 0.0092,-0.01541 0.01398,-0.03151 0.02344,-0.04687 -0.137181,-0.144519 -0.271989,-0.29041 -0.412109,-0.43164 z m 269.421876,0 c 0.005,0.01455 0.0127,0.02838 0.0176,0.04297 h 3.24414 c 0.0163,-0.01365 0.0283,-0.02947 0.0449,-0.04297 z m 96.08789,0 c 0.28788,0.03562 0.57382,0.08682 0.86328,0.109375 1.1631,-0.05778 2.32551,-0.07578 3.48828,-0.109375 z m 156.40039,0 c 0.17429,0.05391 0.35182,0.04649 0.5332,0 z m 1.88672,0 1.04883,0.259765 c 0.0711,-0.08824 0.14507,-0.174715 0.22656,-0.259765 z m 124.32812,0 c -0.002,0.02092 -0.005,0.0416 -0.008,0.0625 0.0462,-0.02318 0.17703,-0.03816 0.21875,-0.0625 z" />
      <path
         id="ellipse155"
         transform="translate(2e-5)"
         d="m 109.16406,16.166016 c 0.0713,0.03453 0.15675,0.05886 0.22461,0.0957 a 11.006,11.251 0 0 0 0.0527,-0.0957 z" />
      <path
         id="path157"
         transform="translate(2e-5)"
         d="m 750.61914,2.7890625 c -0.0537,0.079734 -0.10473,0.1636371 -0.15039,0.2539063 0.0992,-0.085359 0.20374,-0.1695386 0.30664,-0.2539063 z m -0.15039,0.2539063 c -0.0175,0.015066 -0.0295,0.027909 -0.0469,0.042969 h 0.0293 c 0.007,-0.013475 0.0109,-0.02973 0.0176,-0.042969 z m 4.2832,-0.2539063 c 0.0656,0.073934 0.16081,0.1824917 0.26172,0.296875 h 0.0215 c 0.0359,0 0.10942,-0.035827 0.10742,0 -1.6e-4,0.00347 1.5e-4,0.0063 0,0.00977 0.0434,0.0015 0.0803,0.00542 0.12109,0.00781 -0.0667,-0.1029402 -0.13673,-0.2079515 -0.20898,-0.3144531 z m 0.39063,0.3066406 c -0.0345,-0.00119 -0.0858,-9.29e-4 -0.1211,-0.00195 0.046,0.052179 0.0643,0.07302 0.11719,0.1347656 10e-4,-0.044373 0.002,-0.085675 0.004,-0.1328125 z m 0.22656,0.1660157 c -0.0413,0.031053 -0.0795,0.067039 -0.11328,0.1074218 0.1329,0.1588171 0.28527,0.350336 0.45312,0.5703125 0.007,-0.028708 0.0116,-0.049374 0.0176,-0.076172 -0.11003,-0.1951662 -0.22496,-0.3920125 -0.35742,-0.6015624 z" />
    </g>
    <path
       d="M 25.691,4.116 A 15.794,15.794 0 1 1 2.008,18.306 L 2,17.794 2.008,17.282 A 15.794,15.794 0 0 1 25.691,4.116 Z M 22.848,21.4 a 1.579,1.579 0 0 0 -2.233,0.022 3.948,3.948 0 0 1 -5.642,0 1.5790461,1.5790461 0 1 0 -2.255,2.211 7.107,7.107 0 0 0 10.152,0 1.579,1.579 0 0 0 -0.022,-2.233 z m -9.776,-8.349 -0.2,0.011 a 1.579,1.579 0 0 0 0.185,3.148 l 0.2,-0.011 a 1.579,1.579 0 0 0 -0.185,-3.148 z m 9.476,0 -0.2,0.011 a 1.579,1.579 0 0 0 0.185,3.148 l 0.2,-0.011 a 1.579,1.579 0 0 0 -0.185,-3.148 z"
       transform="translate(808.702,362.435)"
       fill="#6c63ff"
       id="path165" />
    <path
       d="m 9710.237,-15694.388 -0.27,-0.01 h -13.3 a 1.651,1.651 0 0 1 -1.646,-1.445 l -0.013,-0.194 v -15.687 a 1.654,1.654 0 0 1 0.833,-1.421 4.914,4.914 0 0 0 2.479,-3.939 l 0.014,-0.331 v -1.649 a 4.957,4.957 0 0 1 4.985,-4.932 4.966,4.966 0 0 1 4.979,4.646 l 0.01,0.285 v 6.581 h 3.326 a 4.971,4.971 0 0 1 4.954,4.362 l 0.026,0.284 0.01,0.286 -0.032,0.324 -1.673,8.276 c -0.625,2.653 -2.47,4.569 -4.617,4.569 z m -19.913,-0.01 a 3.3,3.3 0 0 1 -3.313,-3.036 l -0.013,-0.246 v -11.515 a 3.31,3.31 0 0 1 3.078,-3.284 h 0.248 1.666 a 1.654,1.654 0 0 1 1.647,1.454 l 0.014,0.19 v 14.8 a 1.654,1.654 0 0 1 -1.469,1.634 h -0.192 z"
       transform="translate(-8707.989,16373.791)"
       fill="#6c63ff"
       id="path167" />
    <path
       d="m 712.469,676.055 c -45.083,0 -94.074,-6.7 -142.735,-19.582 -60.177,-15.931 -115.352,-39.977 -159.561,-69.54 l 1.309,-1.958 c 44,29.419 98.927,53.356 158.855,69.22 54.156,14.338 108.717,20.981 157.767,19.228 l 0.085,2.354 q -7.771,0.28 -15.72,0.278 z"
       transform="translate(227.619,-3.449)"
       fill="#090814"
       id="path169" />
    <path
       d="m 705.773,366.732 c -14.642,-4.767 -29.7,-9.206 -44.762,-13.193 -86.666,-22.944 -171.859,-31.09 -246.374,-23.553 l -0.237,-2.344 c 74.792,-7.561 160.277,0.6 247.214,23.62 15.1,4 30.206,8.45 44.889,13.231 z"
       transform="translate(227.564,-0.113)"
       fill="#090814"
       id="path171" />
    <path
       d="m 306.678,550.589 c -36.122,-35.56 -51.379,-72.658 -42.96,-104.459 10.8,-40.81 58.8,-69.027 131.683,-77.415 l 0.269,2.341 C 323.8,379.327 276.538,406.91 266,446.733 c -8.193,30.949 6.842,67.236 42.335,102.178 z"
       transform="translate(229.526,-0.675)"
       fill="#090814"
       id="path173" />
    <path
       d="m 762.811,662.222 -0.755,-2.232 c 40.32,-13.633 65.539,-35.593 72.93,-63.51 9.395,-35.489 -11.016,-76.671 -57.472,-115.96 -46.693,-39.489 -114.026,-72.256 -189.6,-92.262 l 0.6,-2.278 c 75.9,20.094 143.562,53.03 190.516,92.741 47.19,39.91 67.87,81.945 58.229,118.362 -7.598,28.717 -33.343,51.241 -74.448,65.139 z"
       transform="translate(263.289,-4.231)"
       fill="#090814"
       id="path175" />
    <path
       d="M 387.539,679.934 C 298.954,640.645 230.692,589.673 195.329,536.406 l 1.963,-1.3 c 35.118,52.9 103.021,103.568 191.2,142.678 z"
       transform="translate(237.612,-15.335)"
       fill="#090814"
       id="path177" />
    <circle
       cx="9.4239998"
       cy="9.4239998"
       r="9.4239998"
       transform="translate(967.612,543.314)"
       fill="#e6e6e6"
       id="circle179" />
    <circle
       cx="9.4239998"
       cy="9.4239998"
       r="9.4239998"
       transform="translate(792.262,281.923)"
       fill="#e6e6e6"
       id="circle181" />
    <path
       d="m 376.155,655.826 c 0,2.4 0.079,4.8 0.247,7.177 0.178,2.843 0.484,5.666 0.9,8.47 a 105.875,105.875 0 0 0 7.917,27.374 l 0.592,1.3 0.3,0.651 c 0.1,0.217 0.207,0.434 0.306,0.642 0.138,0.286 0.267,0.563 0.4,0.839 0.168,0.345 0.336,0.691 0.513,1.036 0.02,0.039 0.039,0.089 0.069,0.138 0.148,0.3 0.286,0.582 0.444,0.879 a 1.744,1.744 0 0 0 0.1,0.188 c 0.168,0.336 0.345,0.681 0.523,1.017 0.2,0.355 0.385,0.721 0.582,1.076 0.474,0.879 0.967,1.747 1.471,2.616 0.148,0.257 0.3,0.513 0.454,0.77 0.138,0.237 0.276,0.474 0.424,0.711 0.1,0.158 0.2,0.326 0.3,0.484 0.158,0.267 0.316,0.523 0.484,0.79 0.365,0.582 0.74,1.165 1.106,1.747 h 0.01 c 0.168,0.267 0.346,0.533 0.523,0.79 v 0.01 c 0.523,0.79 1.066,1.579 1.609,2.359 a 0.01,0.01 0 0 1 0.01,0.01 c 0.434,0.632 0.888,1.244 1.333,1.856 v 0.01 c 0.3,0.385 0.582,0.78 0.879,1.165 0.237,0.316 0.484,0.642 0.73,0.958 0.049,0.069 0.109,0.128 0.158,0.2 v 0.01 c 0.069,0.089 0.138,0.168 0.207,0.257 q 1.57,2.014 3.238,3.939 l 0.178,0.207 c 0.059,0.069 0.128,0.138 0.188,0.217 0.1,0.109 0.188,0.217 0.286,0.326 0.098,0.109 0.188,0.217 0.286,0.326 a 107.224,107.224 0 0 0 19.576,17.266 c 0.958,0.661 1.935,1.3 2.912,1.925 0.247,0.158 0.494,0.316 0.74,0.464 0.069,0.049 0.148,0.1 0.217,0.148 0.138,0.079 0.267,0.158 0.4,0.247 0.133,0.089 0.257,0.158 0.395,0.237 0.523,0.326 1.056,0.642 1.589,0.958 0.128,0.079 0.267,0.158 0.4,0.237 0.133,0.079 0.267,0.148 0.4,0.227 0,0.01 0,0.01 0.01,0.01 h 0.01 v 0.01 h 0.01 q 0.992,0.577 2.014,1.125 c 0.365,0.2 0.74,0.4 1.116,0.592 0.849,0.464 1.708,0.908 2.567,1.333 0.306,0.148 0.622,0.3 0.928,0.454 0.257,0.118 0.513,0.247 0.77,0.365 0.079,0.039 0.148,0.069 0.217,0.109 0.217,0.1 0.424,0.2 0.642,0.3 0.237,0.109 0.474,0.217 0.7,0.326 0.267,0.118 0.523,0.237 0.79,0.345 0.987,0.444 1.984,0.869 2.981,1.273 a 104.492,104.492 0 0 0 10.938,3.791 c 0.168,0.049 0.346,0.1 0.523,0.148 q 2.384,0.666 4.8,1.214 4.22,0.977 8.519,1.6 h 0.02 l 1.027,0.148 c 0.03,0 0.059,0.01 0.1,0.01 0,0.01 0,0.01 0.01,0 l 1.135,0.148 a 0.248,0.248 0 0 0 0.079,0.01 c 0.355,0.049 0.721,0.089 1.076,0.128 l 1.155,0.118 0.888,0.089 a 0.192,0.192 0 0 0 0.079,0.01 c 0.267,0.02 0.533,0.049 0.8,0.069 h 0.04 l 0.691,0.059 c 2.754,0.217 5.518,0.316 8.322,0.316 3.031,0 6.042,-0.118 9.013,-0.375 h 0.03 l 1.905,-0.178 c 0.168,-0.02 0.326,-0.03 0.494,-0.049 0.03,0 0.069,-0.01 0.1,-0.01 0.049,-0.01 0.1,-0.01 0.158,-0.02 a 0.245,0.245 0 0 0 0.079,-0.01 c 0.217,-0.02 0.434,-0.049 0.661,-0.069 l 0.74,-0.089 c 0.247,-0.03 0.494,-0.069 0.74,-0.1 0.059,-0.01 0.109,-0.01 0.168,-0.02 0.178,-0.02 0.355,-0.049 0.533,-0.079 l 0.257,-0.03 c 0.178,-0.03 0.346,-0.049 0.523,-0.079 h 0.01 a 104.35,104.35 0 0 0 15.992,-3.6 c 0.276,-0.089 0.553,-0.168 0.829,-0.257 0.01,0 0.02,-0.01 0.03,-0.01 0.079,-0.03 0.168,-0.049 0.247,-0.079 0.74,-0.237 1.471,-0.484 2.2,-0.74 1.007,-0.336 2,-0.7 3,-1.076 0.267,-0.109 0.533,-0.207 0.8,-0.316 0.543,-0.207 1.076,-0.424 1.609,-0.642 0.908,-0.365 1.816,-0.75 2.715,-1.145 0.839,-0.375 1.668,-0.75 2.5,-1.145 0.02,-0.01 0.049,-0.01 0.069,-0.03 0.188,-0.089 0.375,-0.178 0.553,-0.267 h 0.01 a 105.83,105.83 0 0 0 13.12,-7.493 q 2.014,-1.347 3.968,-2.784 c 1.046,-0.78 2.073,-1.57 3.1,-2.379 a 106.89,106.89 0 0 0 14.008,-13.386 v -0.01 c 0.306,-0.336 0.592,-0.681 0.888,-1.027 0.049,-0.049 0.089,-0.1 0.128,-0.138 0.188,-0.227 0.365,-0.444 0.553,-0.661 v -0.01 c 0.247,-0.286 0.494,-0.582 0.73,-0.879 0.059,-0.069 0.109,-0.128 0.158,-0.188 v -0.01 c 0.2,-0.237 0.385,-0.474 0.582,-0.721 0.1,-0.118 0.188,-0.237 0.286,-0.355 v -0.01 c 0.582,-0.731 1.145,-1.461 1.708,-2.211 0.148,-0.2 0.3,-0.4 0.454,-0.612 0.711,-0.958 1.4,-1.935 2.073,-2.912 v -0.01 c 0.257,-0.365 0.5,-0.74 0.76,-1.106 l 0.74,-1.125 c 0.247,-0.395 0.5,-0.78 0.75,-1.175 l 0.03,-0.059 c 0.247,-0.375 0.494,-0.77 0.73,-1.155 0.188,-0.316 0.375,-0.622 0.563,-0.928 0.118,-0.207 0.247,-0.415 0.365,-0.632 a 2.359,2.359 0 0 0 0.128,-0.207 l 0.829,-1.451 c 0.326,-0.563 0.642,-1.135 0.958,-1.708 0.118,-0.237 0.247,-0.474 0.375,-0.711 0.049,-0.079 0.089,-0.158 0.128,-0.237 0.148,-0.276 0.3,-0.563 0.434,-0.849 0.134,-0.286 0.3,-0.563 0.444,-0.849 0.144,-0.286 0.286,-0.563 0.424,-0.849 0.109,-0.217 0.207,-0.434 0.316,-0.651 a 0.213,0.213 0 0 1 0.03,-0.049 c 0.049,-0.109 0.1,-0.207 0.138,-0.306 a 0.211,0.211 0 0 0 0.03,-0.049 c 0.109,-0.217 0.207,-0.444 0.316,-0.661 0.138,-0.286 0.267,-0.582 0.4,-0.869 0.089,-0.2 0.188,-0.4 0.276,-0.612 0.128,-0.286 0.267,-0.573 0.385,-0.869 0.138,-0.3 0.267,-0.592 0.395,-0.9 a 2.281,2.281 0 0 0 0.1,-0.227 c 0.069,-0.138 0.118,-0.276 0.178,-0.415 0.158,-0.365 0.316,-0.74 0.464,-1.106 0.178,-0.415 0.345,-0.839 0.5,-1.254 0.158,-0.385 0.306,-0.78 0.454,-1.175 l 0.059,-0.138 a 106.934,106.934 0 0 0 5.212,-18.687 v -0.01 a 108.05,108.05 0 0 0 1.412,-11 c 0.01,-0.207 0.03,-0.4 0.039,-0.6 0.178,-2.5 0.257,-5 0.257,-7.522 0,-1.116 -0.02,-2.221 -0.049,-3.327 a 105.846,105.846 0 0 0 -23.475,-63.377 c -0.316,-0.395 -0.632,-0.79 -0.958,-1.185 -0.326,-0.395 -0.661,-0.78 -0.987,-1.165 a 106.367,106.367 0 0 0 -170.82,12.271 c -0.484,0.77 -0.967,1.55 -1.431,2.33 -0.464,0.78 -0.928,1.579 -1.382,2.379 a 105.9,105.9 0 0 0 -13.591,52.072 z"
       transform="translate(228.055,-2.993)"
       fill="#f2f2f2"
       id="path183" />
    <path
       d="m 441.495,598.087 c -0.078,-0.014 -0.156,-0.025 -0.233,-0.039 a 6.344,6.344 0 0 0 0.919,-0.692 z"
       transform="translate(227.22,-3.607)"
       fill="#ffffff"
       id="path185" />
    <g
       transform="translate(654.306,613.165)"
       id="g195">
      <path
         d="M 0.259,0 H 23.023 L 24.439,26.135 -2.48,24.043 Z"
         transform="translate(43.691,73.367)"
         fill="#ffb9b9"
         id="path187" />
      <path
         d="m 433.455,759.817 c 1.021,0.558 2.055,1.093 3.088,1.6 0.368,0.178 0.748,0.356 1.116,0.546 0.309,0.143 0.618,0.3 0.926,0.44 0.1,0.047 0.178,0.083 0.261,0.131 0.261,0.119 0.511,0.238 0.772,0.356 0.285,0.131 0.57,0.261 0.843,0.392 0.321,0.142 0.63,0.285 0.95,0.416 1.188,0.534 2.387,1.045 3.587,1.532 a 125.736,125.736 0 0 0 13.161,4.561 c 0.2,0.059 0.416,0.119 0.629,0.178 q 2.869,0.8 5.773,1.461 5.078,1.176 10.251,1.924 h 0.024 l 1.235,0.178 c 0.036,0 0.071,0.012 0.119,0.012 0,0.012 0,0.012 0.012,0 l 1.366,0.178 a 0.3,0.3 0 0 0 0.1,0.012 c 0.428,0.06 0.867,0.107 1.295,0.155 l 1.39,0.142 1.069,0.107 a 0.231,0.231 0 0 0 0.095,0.012 c 0.321,0.024 0.641,0.059 0.962,0.083 h 0.048 l 0.831,0.071 c 3.314,0.261 6.64,0.38 10.013,0.38 3.647,0 7.269,-0.143 10.844,-0.451 h 0.036 l 2.292,-0.214 c 0.2,-0.024 0.392,-0.036 0.594,-0.059 0.036,0 0.083,-0.012 0.119,-0.012 0.059,-0.012 0.119,-0.012 0.19,-0.024 a 0.288,0.288 0 0 0 0.095,-0.012 c 0.261,-0.024 0.523,-0.059 0.8,-0.083 l 0.891,-0.107 c 0.3,-0.036 0.594,-0.083 0.891,-0.119 0.071,-0.012 0.131,-0.012 0.2,-0.024 0.214,-0.024 0.428,-0.059 0.641,-0.1 l 0.309,-0.036 c 0.214,-0.036 0.416,-0.059 0.63,-0.1 h 0.012 a 125.529,125.529 0 0 0 19.242,-4.335 c 0.333,-0.107 0.665,-0.2 1,-0.309 a 47.721,47.721 0 0 0 -26.167,-33.091 11.281,11.281 0 0 0 3.243,-5.773 11.04,11.04 0 0 0 -1.52,-8.338 10.652,10.652 0 0 0 -6.723,-4.609 l -17.6,-3.682 a 10.955,10.955 0 0 0 -12.828,8.552 11.6,11.6 0 0 0 -0.238,2.637 c -16.962,11.298 -29.161,22.998 -36.869,35.422 z"
         transform="translate(-433.455,-629.659)"
         fill="#6c63ff"
         id="path189" />
      <circle
         cx="34.105999"
         cy="34.105999"
         r="34.105999"
         transform="translate(15.239,13.189)"
         fill="#ffb9b9"
         id="circle191" />
      <path
         d="m 459.6,710.342 c -3.637,-2.484 -7.351,-7.258 -9.83,-10.836 a 40.954,40.954 0 0 1 -6.324,-32.7 12.486,12.486 0 0 1 2.936,-6.015 c 1.606,-1.59 4.23,-2.343 6.191,-1.219 a 11.193,11.193 0 0 1 0.455,-8.881 19.725,19.725 0 0 1 5.832,-6.946 32.848,32.848 0 0 1 33.452,-3.96 c 2.13,0.987 -1.369,-6.637 0.861,-5.9 a 9.09,9.09 0 0 0 6.861,-0.121 c 2.1,-1.056 9.049,5.217 8.244,3.011 a 10.358,10.358 0 0 1 2.4,17.346 c -1.76,1.486 -3.958,2.341 -5.885,3.6 a 16.9,16.9 0 0 0 -5.168,21.806 22.387,22.387 0 0 0 -6.589,-2.863 7.577,7.577 0 0 0 -6.743,1.622 8.513,8.513 0 0 0 -2.062,6.424 c 0.076,2.314 0.627,4.595 0.689,6.909 0.181,6.792 3.819,19.706 -1.447,23.317 -4.161,2.853 -18.909,-1.201 -23.873,-4.594 z"
         transform="translate(-431.513,-633.644)"
         fill="#2f2e41"
         id="path193" />
    </g>
    <path
       d="m 972.951,419.826 c 0,2.4 -0.079,4.8 -0.247,7.177 -0.178,2.843 -0.484,5.666 -0.9,8.47 a 105.872,105.872 0 0 1 -7.917,27.374 l -0.592,1.3 -0.3,0.652 c -0.1,0.217 -0.207,0.434 -0.306,0.642 -0.138,0.286 -0.267,0.563 -0.4,0.839 -0.168,0.346 -0.336,0.691 -0.513,1.037 -0.02,0.039 -0.039,0.089 -0.069,0.138 -0.148,0.3 -0.286,0.582 -0.444,0.879 a 1.715,1.715 0 0 1 -0.1,0.188 c -0.168,0.336 -0.346,0.681 -0.523,1.017 -0.2,0.355 -0.385,0.721 -0.582,1.076 -0.474,0.879 -0.967,1.747 -1.471,2.616 -0.148,0.257 -0.3,0.513 -0.454,0.77 -0.138,0.237 -0.276,0.474 -0.424,0.711 -0.1,0.158 -0.2,0.326 -0.3,0.484 -0.158,0.267 -0.316,0.523 -0.484,0.79 -0.365,0.582 -0.74,1.165 -1.106,1.747 h -0.01 c -0.168,0.267 -0.346,0.533 -0.523,0.79 v 0.01 c -0.523,0.79 -1.066,1.579 -1.609,2.359 a 0.01,0.01 0 0 0 -0.01,0.01 c -0.434,0.632 -0.888,1.244 -1.333,1.856 v 0.01 c -0.3,0.385 -0.582,0.78 -0.879,1.165 -0.237,0.316 -0.484,0.642 -0.731,0.958 -0.049,0.069 -0.109,0.128 -0.158,0.2 v 0.01 c -0.069,0.089 -0.138,0.168 -0.207,0.257 q -1.57,2.014 -3.238,3.939 l -0.178,0.207 c -0.059,0.069 -0.128,0.138 -0.188,0.217 -0.1,0.109 -0.188,0.217 -0.286,0.326 -0.098,0.109 -0.188,0.217 -0.286,0.326 a 107.226,107.226 0 0 1 -19.576,17.266 c -0.957,0.661 -1.935,1.3 -2.912,1.925 -0.247,0.158 -0.494,0.316 -0.74,0.464 -0.069,0.049 -0.148,0.1 -0.217,0.148 -0.138,0.079 -0.267,0.158 -0.4,0.247 -0.133,0.089 -0.257,0.158 -0.395,0.237 -0.523,0.326 -1.056,0.642 -1.589,0.958 -0.128,0.079 -0.267,0.158 -0.4,0.237 -0.133,0.079 -0.267,0.148 -0.4,0.227 0,0.01 0,0.01 -0.01,0.01 h -0.01 v 0.01 h -0.01 q -0.992,0.577 -2.014,1.125 c -0.365,0.2 -0.74,0.4 -1.116,0.592 -0.849,0.464 -1.708,0.908 -2.567,1.333 -0.306,0.148 -0.622,0.3 -0.928,0.454 -0.257,0.118 -0.513,0.247 -0.77,0.365 -0.079,0.039 -0.148,0.069 -0.217,0.109 -0.217,0.1 -0.424,0.2 -0.642,0.3 -0.237,0.109 -0.474,0.217 -0.7,0.326 -0.267,0.118 -0.523,0.237 -0.79,0.345 -0.987,0.444 -1.984,0.869 -2.981,1.273 a 104.52,104.52 0 0 1 -10.938,3.791 c -0.168,0.049 -0.346,0.1 -0.523,0.148 q -2.384,0.666 -4.8,1.214 -4.22,0.977 -8.519,1.6 h -0.02 l -1.027,0.148 c -0.03,0 -0.059,0.01 -0.1,0.01 0,0.01 0,0.01 -0.01,0 l -1.135,0.148 a 0.247,0.247 0 0 1 -0.079,0.01 c -0.355,0.049 -0.721,0.089 -1.076,0.128 l -1.155,0.118 -0.888,0.089 a 0.192,0.192 0 0 1 -0.079,0.01 c -0.267,0.02 -0.533,0.049 -0.8,0.069 h -0.039 l -0.691,0.059 c -2.754,0.217 -5.518,0.316 -8.322,0.316 -3.031,0 -6.042,-0.118 -9.013,-0.375 h -0.03 l -1.905,-0.178 c -0.168,-0.02 -0.326,-0.03 -0.494,-0.049 -0.03,0 -0.069,-0.01 -0.1,-0.01 -0.049,-0.01 -0.1,-0.01 -0.158,-0.02 a 0.245,0.245 0 0 1 -0.079,-0.01 c -0.217,-0.02 -0.434,-0.049 -0.661,-0.069 l -0.74,-0.089 c -0.247,-0.03 -0.494,-0.069 -0.74,-0.1 -0.059,-0.01 -0.109,-0.01 -0.168,-0.02 -0.178,-0.02 -0.355,-0.049 -0.533,-0.079 l -0.257,-0.03 c -0.178,-0.03 -0.346,-0.049 -0.523,-0.079 h -0.01 a 104.357,104.357 0 0 1 -15.992,-3.6 c -0.276,-0.089 -0.553,-0.168 -0.829,-0.257 -0.01,0 -0.02,-0.01 -0.03,-0.01 -0.079,-0.03 -0.168,-0.049 -0.247,-0.079 -0.74,-0.237 -1.471,-0.484 -2.2,-0.74 -1.007,-0.336 -2,-0.7 -3,-1.076 -0.267,-0.109 -0.533,-0.207 -0.8,-0.316 -0.543,-0.207 -1.076,-0.424 -1.609,-0.642 -0.908,-0.365 -1.816,-0.75 -2.715,-1.145 -0.839,-0.375 -1.668,-0.75 -2.5,-1.145 -0.02,-0.01 -0.049,-0.01 -0.069,-0.03 -0.188,-0.089 -0.375,-0.178 -0.553,-0.267 h -0.01 a 105.809,105.809 0 0 1 -13.12,-7.493 q -2.014,-1.347 -3.969,-2.784 c -1.046,-0.78 -2.073,-1.57 -3.1,-2.379 a 106.9,106.9 0 0 1 -14.008,-13.386 v -0.01 c -0.306,-0.336 -0.592,-0.681 -0.888,-1.027 -0.049,-0.049 -0.089,-0.1 -0.128,-0.138 -0.188,-0.227 -0.365,-0.444 -0.553,-0.661 v -0.01 c -0.247,-0.286 -0.494,-0.582 -0.731,-0.879 -0.059,-0.069 -0.109,-0.128 -0.158,-0.188 v -0.01 c -0.2,-0.237 -0.385,-0.474 -0.582,-0.721 -0.1,-0.118 -0.188,-0.237 -0.286,-0.355 v -0.01 c -0.582,-0.73 -1.145,-1.461 -1.708,-2.211 -0.148,-0.2 -0.3,-0.4 -0.454,-0.612 -0.711,-0.958 -1.4,-1.935 -2.073,-2.912 v -0.01 c -0.257,-0.365 -0.5,-0.74 -0.76,-1.106 l -0.74,-1.125 c -0.247,-0.395 -0.5,-0.78 -0.75,-1.175 l -0.03,-0.059 c -0.247,-0.375 -0.494,-0.77 -0.731,-1.155 -0.188,-0.316 -0.375,-0.622 -0.563,-0.928 -0.118,-0.207 -0.247,-0.415 -0.365,-0.632 a 2.361,2.361 0 0 1 -0.128,-0.207 l -0.829,-1.451 c -0.326,-0.563 -0.642,-1.135 -0.958,-1.708 -0.118,-0.237 -0.247,-0.474 -0.375,-0.711 -0.049,-0.079 -0.089,-0.158 -0.128,-0.237 -0.148,-0.276 -0.3,-0.563 -0.434,-0.849 -0.134,-0.286 -0.3,-0.563 -0.444,-0.849 -0.144,-0.286 -0.286,-0.563 -0.424,-0.849 -0.109,-0.217 -0.207,-0.434 -0.316,-0.652 a 0.213,0.213 0 0 0 -0.03,-0.049 c -0.049,-0.109 -0.1,-0.207 -0.138,-0.306 a 0.215,0.215 0 0 1 -0.03,-0.049 c -0.109,-0.217 -0.207,-0.444 -0.316,-0.661 -0.138,-0.286 -0.267,-0.582 -0.4,-0.869 -0.089,-0.2 -0.188,-0.4 -0.276,-0.612 -0.128,-0.286 -0.267,-0.573 -0.385,-0.869 -0.138,-0.3 -0.267,-0.592 -0.395,-0.9 a 2.257,2.257 0 0 1 -0.1,-0.227 c -0.069,-0.138 -0.118,-0.276 -0.178,-0.415 -0.158,-0.365 -0.316,-0.74 -0.464,-1.106 -0.178,-0.415 -0.345,-0.839 -0.5,-1.254 -0.158,-0.385 -0.306,-0.78 -0.454,-1.175 l -0.059,-0.138 a 106.926,106.926 0 0 1 -5.212,-18.687 v -0.01 a 108.049,108.049 0 0 1 -1.412,-11 c -0.01,-0.207 -0.03,-0.4 -0.039,-0.6 -0.178,-2.5 -0.257,-5 -0.257,-7.522 0,-1.116 0.02,-2.221 0.049,-3.327 a 105.847,105.847 0 0 1 23.475,-63.376 c 0.316,-0.395 0.632,-0.79 0.958,-1.185 0.326,-0.395 0.661,-0.78 0.987,-1.165 a 106.367,106.367 0 0 1 170.82,12.271 c 0.484,0.77 0.968,1.55 1.432,2.33 0.464,0.78 0.928,1.579 1.382,2.379 a 105.9,105.9 0 0 1 13.6,52.074 z"
       transform="translate(223.128,0.034)"
       fill="#f2f2f2"
       id="path197" />
    <path
       d="m 910.363,362.087 c 0.078,-0.014 0.156,-0.025 0.233,-0.039 a 6.338,6.338 0 0 1 -0.919,-0.692 z"
       transform="translate(221.212,-0.58)"
       fill="#ffffff"
       id="path199" />
    <g
       transform="translate(1039.885,389.384)"
       id="g209">
      <path
         d="M 2.682,2.962 29.647,0 36.064,23.621 10.527,29.615 Z"
         transform="translate(29.421,70.806)"
         fill="#ed9da0"
         id="path201" />
      <ellipse
         cx="31.943001"
         cy="32.654999"
         rx="31.943001"
         ry="32.654999"
         transform="translate(6.89,15.651)"
         fill="#ed9da0"
         id="ellipse203" />
      <path
         d="m 924.72,519.408 c -0.925,0.506 -1.861,0.99 -2.8,1.452 -0.333,0.161 -0.678,0.323 -1.011,0.495 -0.28,0.129 -0.56,0.269 -0.839,0.4 -0.086,0.043 -0.161,0.075 -0.237,0.118 -0.237,0.108 -0.463,0.215 -0.7,0.323 -0.258,0.118 -0.516,0.237 -0.764,0.355 -0.291,0.129 -0.57,0.258 -0.861,0.376 -1.076,0.484 -2.163,0.947 -3.249,1.388 a 113.863,113.863 0 0 1 -11.921,4.131 c -0.183,0.054 -0.377,0.108 -0.57,0.161 q -2.6,0.726 -5.229,1.323 -4.6,1.065 -9.285,1.743 h -0.021 l -1.119,0.161 c -0.032,0 -0.065,0.011 -0.108,0.011 0,0.011 0,0.011 -0.011,0 l -1.237,0.161 a 0.266,0.266 0 0 1 -0.086,0.011 c -0.387,0.054 -0.785,0.1 -1.173,0.14 l -1.259,0.129 -0.968,0.1 a 0.211,0.211 0 0 1 -0.086,0.011 c -0.291,0.021 -0.581,0.054 -0.871,0.075 h -0.043 l -0.753,0.065 c -3,0.237 -6.014,0.344 -9.07,0.344 -3.3,0 -6.584,-0.129 -9.823,-0.409 H 860.6 l -2.076,-0.194 c -0.183,-0.022 -0.355,-0.032 -0.538,-0.054 -0.032,0 -0.075,-0.011 -0.108,-0.011 -0.054,-0.011 -0.108,-0.011 -0.172,-0.022 a 0.267,0.267 0 0 1 -0.086,-0.011 c -0.237,-0.021 -0.473,-0.054 -0.721,-0.075 l -0.807,-0.1 c -0.269,-0.032 -0.538,-0.075 -0.807,-0.108 -0.065,-0.011 -0.118,-0.011 -0.183,-0.021 -0.194,-0.022 -0.387,-0.054 -0.581,-0.086 l -0.28,-0.032 c -0.194,-0.032 -0.377,-0.054 -0.57,-0.086 h -0.011 a 113.722,113.722 0 0 1 -17.429,-3.927 c -0.3,-0.1 -0.6,-0.183 -0.9,-0.28 a 43.225,43.225 0 0 1 23.7,-29.974 10.218,10.218 0 0 1 -2.937,-5.229 10,10 0 0 1 1.377,-7.553 9.649,9.649 0 0 1 6.089,-4.174 L 879.5,477.2 a 9.923,9.923 0 0 1 11.62,7.746 10.5,10.5 0 0 1 0.215,2.388 c 15.353,10.223 26.403,20.82 33.385,32.074 z"
         transform="translate(-817.72,-396.054)"
         fill="#6c63ff"
         id="path205" />
      <path
         d="m 940.8,420.479 c -5.43,-6.332 -8.011,-14.733 -12.352,-21.923 -4.341,-7.19 -11.894,-13.626 -19.874,-11.952 -5.5,1.154 -9.752,6.008 -11.9,11.419 -2.148,5.411 -2.555,11.38 -2.932,17.226 0.133,-12.015 -7.783,-23.663 -18.687,-27.5 -10.904,-3.837 -23.953,0.443 -30.8,10.1 a 16.65,16.65 0 0 0 -22.114,-0.464 c -6.129,5.478 -7.485,15.9 -2.978,22.89 4.507,6.99 14.268,9.59 21.431,5.715 l 2.532,2.329 c -1.425,4.985 1.339,10.874 5.985,12.751 3.768,1.522 9.087,1.269 10.5,5.223 0.985,2.763 -0.856,5.712 -2.815,7.835 -1.959,2.123 -4.284,4.315 -4.52,7.253 -0.355,4.433 4.225,7.538 8.39,8.473 10.041,2.255 21.182,-2.395 26.969,-11.256 q 0.167,-0.256 0.364,-0.513 a 38.775,38.775 0 0 0 7.8,-29.648 c -0.326,-2.048 0,-3.571 1.415,-4.056 6.1,-2.1 23.2,2.3 28.378,6.28 5.178,3.98 9.32,9.239 14.3,13.473 4.98,4.234 11.337,7.5 17.667,6.346 5.069,-0.923 9.382,-4.6 12.282,-9.043 2.9,-4.443 4.57,-9.613 6.065,-14.756 -11.216,6.475 -26.558,3.764 -35.106,-6.202 z"
         transform="translate(-816.491,-386.336)"
         fill="#2f2e41"
         id="path207" />
    </g>
    <path
       d="m 278.155,352.826 c 0,2.4 0.079,4.8 0.247,7.177 0.178,2.843 0.484,5.666 0.9,8.47 a 105.872,105.872 0 0 0 7.917,27.374 l 0.592,1.3 0.3,0.652 c 0.1,0.217 0.207,0.434 0.306,0.642 0.138,0.286 0.267,0.563 0.4,0.839 0.168,0.346 0.336,0.691 0.513,1.037 0.02,0.039 0.039,0.089 0.069,0.138 0.148,0.3 0.286,0.582 0.444,0.879 a 1.719,1.719 0 0 0 0.1,0.188 c 0.168,0.336 0.346,0.681 0.523,1.017 0.2,0.355 0.385,0.721 0.582,1.076 0.474,0.879 0.967,1.747 1.471,2.616 0.148,0.257 0.3,0.513 0.454,0.77 0.138,0.237 0.276,0.474 0.424,0.711 0.1,0.158 0.2,0.326 0.3,0.484 0.158,0.267 0.316,0.523 0.484,0.79 0.365,0.582 0.74,1.165 1.106,1.747 h 0.01 c 0.168,0.267 0.345,0.533 0.523,0.79 v 0.01 c 0.523,0.79 1.066,1.579 1.609,2.359 a 0.01,0.01 0 0 1 0.007,0 0.01,0.01 0 0 1 0,0.007 c 0.434,0.632 0.888,1.244 1.333,1.856 v 0.01 c 0.3,0.385 0.582,0.78 0.879,1.165 0.237,0.316 0.484,0.642 0.73,0.958 0.049,0.069 0.109,0.128 0.158,0.2 v 0.01 c 0.069,0.089 0.138,0.168 0.207,0.257 q 1.57,2.014 3.238,3.939 l 0.178,0.207 c 0.059,0.069 0.128,0.138 0.188,0.217 0.1,0.109 0.188,0.217 0.286,0.326 0.098,0.109 0.188,0.217 0.286,0.326 a 107.224,107.224 0 0 0 19.576,17.266 c 0.958,0.661 1.935,1.3 2.912,1.925 0.247,0.158 0.494,0.316 0.74,0.464 0.069,0.049 0.148,0.1 0.217,0.148 0.138,0.079 0.267,0.158 0.4,0.247 0.133,0.089 0.257,0.158 0.395,0.237 0.523,0.326 1.056,0.642 1.589,0.958 0.128,0.079 0.267,0.158 0.4,0.237 0.133,0.079 0.267,0.148 0.4,0.227 0,0.01 0,0.01 0.01,0.01 h 0.01 v 0.01 h 0.01 q 0.992,0.577 2.014,1.125 c 0.365,0.2 0.74,0.4 1.116,0.592 0.849,0.464 1.708,0.908 2.567,1.333 0.306,0.148 0.622,0.3 0.928,0.454 0.257,0.118 0.513,0.247 0.77,0.365 0.079,0.039 0.148,0.069 0.217,0.109 0.217,0.1 0.424,0.2 0.642,0.3 0.237,0.109 0.474,0.217 0.7,0.326 0.267,0.118 0.523,0.237 0.79,0.346 0.987,0.444 1.984,0.869 2.981,1.273 a 104.5,104.5 0 0 0 10.938,3.791 c 0.168,0.049 0.345,0.1 0.523,0.148 q 2.384,0.666 4.8,1.214 4.22,0.977 8.519,1.6 h 0.02 l 1.027,0.148 c 0.03,0 0.059,0.01 0.1,0.01 0,0.01 0,0.01 0.01,0 l 1.135,0.148 a 0.246,0.246 0 0 0 0.079,0.01 c 0.355,0.049 0.721,0.089 1.076,0.128 l 1.155,0.118 0.888,0.089 a 0.192,0.192 0 0 0 0.079,0.01 c 0.267,0.02 0.533,0.049 0.8,0.069 h 0.039 l 0.691,0.059 c 2.754,0.217 5.518,0.316 8.322,0.316 3.031,0 6.041,-0.118 9.013,-0.375 h 0.03 l 1.905,-0.178 c 0.168,-0.02 0.326,-0.03 0.494,-0.049 0.03,0 0.069,-0.01 0.1,-0.01 0.049,-0.01 0.1,-0.01 0.158,-0.02 a 0.246,0.246 0 0 0 0.079,-0.01 c 0.217,-0.02 0.434,-0.049 0.661,-0.069 l 0.74,-0.089 c 0.247,-0.03 0.494,-0.069 0.74,-0.1 0.059,-0.01 0.109,-0.01 0.168,-0.02 0.178,-0.02 0.355,-0.049 0.533,-0.079 l 0.257,-0.03 c 0.178,-0.03 0.345,-0.049 0.523,-0.079 h 0.01 a 104.351,104.351 0 0 0 15.992,-3.6 c 0.276,-0.089 0.553,-0.168 0.829,-0.257 0.01,0 0.02,-0.01 0.03,-0.01 0.079,-0.03 0.168,-0.049 0.247,-0.079 0.74,-0.237 1.471,-0.484 2.2,-0.74 1.007,-0.336 2,-0.7 3,-1.076 0.267,-0.109 0.533,-0.207 0.8,-0.316 0.543,-0.207 1.076,-0.424 1.609,-0.642 0.908,-0.365 1.816,-0.75 2.715,-1.145 0.839,-0.375 1.668,-0.75 2.5,-1.145 0.02,-0.01 0.049,-0.01 0.069,-0.03 0.188,-0.089 0.375,-0.178 0.553,-0.267 h 0.01 a 105.818,105.818 0 0 0 13.12,-7.493 q 2.014,-1.347 3.968,-2.784 c 1.046,-0.78 2.073,-1.57 3.1,-2.379 a 106.9,106.9 0 0 0 14.008,-13.386 v -0.01 c 0.306,-0.336 0.592,-0.681 0.888,-1.027 0.049,-0.049 0.089,-0.1 0.128,-0.138 0.188,-0.227 0.365,-0.444 0.553,-0.661 v -0.01 c 0.247,-0.286 0.494,-0.582 0.73,-0.879 0.059,-0.069 0.109,-0.128 0.158,-0.188 v -0.01 c 0.2,-0.237 0.385,-0.474 0.582,-0.721 0.1,-0.118 0.188,-0.237 0.286,-0.355 v -0.01 c 0.582,-0.73 1.145,-1.461 1.708,-2.211 0.148,-0.2 0.3,-0.4 0.454,-0.612 0.711,-0.958 1.4,-1.935 2.073,-2.912 v -0.01 c 0.257,-0.365 0.5,-0.74 0.76,-1.106 l 0.74,-1.125 c 0.247,-0.395 0.5,-0.78 0.75,-1.175 l 0.03,-0.059 c 0.247,-0.375 0.494,-0.77 0.73,-1.155 0.188,-0.316 0.375,-0.622 0.563,-0.928 0.118,-0.207 0.247,-0.415 0.365,-0.632 a 2.36,2.36 0 0 0 0.128,-0.207 l 0.829,-1.451 c 0.326,-0.563 0.642,-1.135 0.958,-1.708 0.118,-0.237 0.247,-0.474 0.375,-0.711 0.049,-0.079 0.089,-0.158 0.128,-0.237 0.148,-0.276 0.3,-0.563 0.434,-0.849 0.134,-0.286 0.3,-0.563 0.444,-0.849 0.144,-0.286 0.286,-0.563 0.424,-0.849 0.109,-0.217 0.207,-0.434 0.316,-0.652 a 0.212,0.212 0 0 1 0.03,-0.049 c 0.049,-0.109 0.1,-0.207 0.138,-0.306 a 0.215,0.215 0 0 0 0.03,-0.049 c 0.109,-0.217 0.207,-0.444 0.316,-0.661 0.138,-0.286 0.267,-0.582 0.4,-0.869 0.089,-0.2 0.188,-0.4 0.276,-0.612 0.128,-0.286 0.267,-0.573 0.385,-0.869 0.138,-0.3 0.267,-0.592 0.395,-0.9 a 2.274,2.274 0 0 0 0.1,-0.227 c 0.069,-0.138 0.118,-0.276 0.178,-0.415 0.158,-0.365 0.316,-0.74 0.464,-1.106 0.178,-0.415 0.346,-0.839 0.5,-1.254 0.158,-0.385 0.306,-0.78 0.454,-1.175 l 0.059,-0.138 a 106.919,106.919 0 0 0 5.212,-18.687 v -0.01 a 108.013,108.013 0 0 0 1.412,-11 c 0.01,-0.207 0.03,-0.4 0.04,-0.6 0.178,-2.5 0.257,-5 0.257,-7.522 0,-1.116 -0.02,-2.221 -0.049,-3.327 a 105.847,105.847 0 0 0 -23.475,-63.376 c -0.316,-0.395 -0.632,-0.79 -0.958,-1.185 -0.326,-0.395 -0.661,-0.78 -0.987,-1.165 a 106.367,106.367 0 0 0 -170.82,12.271 c -0.484,0.77 -0.967,1.55 -1.431,2.33 -0.464,0.78 -0.928,1.579 -1.382,2.379 a 105.9,105.9 0 0 0 -13.6,52.073 z"
       transform="translate(229.312,0.893)"
       fill="#f2f2f2"
       id="path211" />
    <path
       d="m 343.495,295.087 c -0.078,-0.014 -0.156,-0.025 -0.233,-0.039 a 6.341,6.341 0 0 0 0.919,-0.692 z"
       transform="translate(228.477,0.279)"
       fill="#ffffff"
       id="path213" />
    <g
       transform="translate(564.032,320.101)"
       id="g223">
      <path
         d="m 2.826,0 h 24.8 L 26.57,32.121 -1.5,29.923 Z"
         transform="translate(41.358,62.103)"
         fill="#9e616a"
         id="path215" />
      <path
         d="m 335.455,454.775 c 0.968,0.534 1.946,1.045 2.925,1.534 0.349,0.17 0.709,0.341 1.058,0.523 0.293,0.136 0.585,0.284 0.878,0.42 0.09,0.045 0.169,0.08 0.247,0.125 0.248,0.114 0.484,0.227 0.731,0.341 0.27,0.125 0.54,0.25 0.8,0.375 0.3,0.136 0.6,0.273 0.9,0.4 1.125,0.511 2.262,1 3.4,1.465 a 118.334,118.334 0 0 0 12.466,4.362 c 0.191,0.057 0.394,0.114 0.6,0.17 q 2.717,0.767 5.468,1.4 4.81,1.125 9.71,1.84 h 0.022 l 1.17,0.17 c 0.034,0 0.068,0.011 0.113,0.011 0,0.011 0,0.011 0.011,0 l 1.294,0.17 a 0.277,0.277 0 0 0 0.09,0.011 c 0.405,0.057 0.821,0.1 1.226,0.148 l 1.316,0.136 1.013,0.1 a 0.216,0.216 0 0 0 0.09,0.011 c 0.3,0.023 0.608,0.057 0.911,0.08 h 0.045 l 0.788,0.068 c 3.139,0.25 6.289,0.363 9.485,0.363 3.454,0 6.886,-0.136 10.272,-0.432 h 0.034 l 2.171,-0.2 c 0.191,-0.023 0.371,-0.034 0.563,-0.057 0.034,0 0.079,-0.011 0.113,-0.011 0.056,-0.011 0.113,-0.011 0.18,-0.023 a 0.279,0.279 0 0 0 0.09,-0.011 c 0.248,-0.023 0.5,-0.057 0.754,-0.079 l 0.844,-0.1 c 0.281,-0.034 0.563,-0.08 0.844,-0.114 0.068,-0.011 0.124,-0.011 0.191,-0.023 0.2,-0.023 0.4,-0.057 0.608,-0.091 l 0.293,-0.034 c 0.2,-0.034 0.394,-0.057 0.6,-0.091 h 0.011 A 117.985,117.985 0 0 0 428,463.578 c 0.315,-0.1 0.63,-0.193 0.945,-0.3 a 45.564,45.564 0 0 0 -24.787,-31.648 10.816,10.816 0 0 0 3.072,-5.521 10.643,10.643 0 0 0 -1.44,-7.974 10.089,10.089 0 0 0 -6.368,-4.407 l -16.674,-3.521 a 10.381,10.381 0 0 0 -12.151,8.179 11.2,11.2 0 0 0 -0.225,2.522 c -16.06,10.792 -27.615,21.985 -34.917,33.867 z"
         transform="translate(-335.455,-328.043)"
         fill="#6c63ff"
         id="path217" />
      <circle
         cx="35.610001"
         cy="35.610001"
         r="35.610001"
         transform="translate(15.982,9.148)"
         fill="#9e616a"
         id="circle219" />
      <path
         d="m 388.422,397.236 c -8.915,2.408 -18.744,-0.793 -25.7,-6.866 -6.956,-6.073 -11.309,-14.676 -13.817,-23.564 -1.837,-6.509 -2.707,-13.734 0.191,-19.845 2.898,-6.111 10.7,-10.233 16.716,-7.147 -3.712,-4.325 -1.858,-11.479 2.478,-15.178 4.336,-3.699 10.289,-4.761 15.959,-5.341 8.229,-0.842 16.729,-0.936 24.56,1.73 7.831,2.666 14.945,8.494 17.4,16.4 a 12.478,12.478 0 0 0 14.883,-3.36 11.3,11.3 0 0 1 -6.229,12.258 l 12,-3.89 c 2.063,4.368 -1.552,9.773 -6.176,11.172 -4.624,1.399 -9.614,-0.13 -14,-2.151 -4.386,-2.021 -8.639,-4.575 -13.405,-5.363 -4.766,-0.788 -10.364,0.743 -12.568,5.041 -1.155,2.251 -1.215,4.888 -1.885,7.327 -0.67,2.439 -2.368,4.969 -4.891,5.169 -1.593,0.126 -3.154,-0.723 -4.743,-0.549 a 5.11,5.11 0 0 0 -4,3.911 15,15 0 0 0 -0.014,5.9 l 3.048,23.3 z"
         transform="translate(-341.889,-318.771)"
         fill="#2f2e41"
         id="path221" />
    </g>
    <path
       d="m 9.868,3.123 a 9.472,9.472 0 0 1 7.875,2.25 l 0.058,0.052 0.054,-0.047 A 9.472,9.472 0 0 1 25.327,3.1 l 0.388,0.057 a 9.472,9.472 0 0 1 5.311,15.8 L 30.742,19.249 30.666,19.314 18.9,30.968 a 1.579,1.579 0 0 1 -2.073,0.129 L 16.679,30.968 4.854,19.25 A 9.472,9.472 0 0 1 9.868,3.123 Z"
       transform="translate(403.603,483.374)"
       fill="#6c63ff"
       id="path225" />
    <path
       d="m 9689.74,-15698.73 a 4.735,4.735 0 0 1 -4.729,-4.464 l -0.013,-0.281 v -14.941 l 14.919,9.946 0.181,0.1 a 1.549,1.549 0 0 0 1.391,0 l 0.181,-0.1 14.919,-9.946 v 14.941 a 4.733,4.733 0 0 1 -4.463,4.729 l -0.279,0.02 z m -4.038,-23.015 a 4.724,4.724 0 0 1 3.721,-2.242 l 0.317,-0.01 h 22.105 a 4.74,4.74 0 0 1 4.037,2.256 l -15.093,10.057 z"
       transform="translate(-8739.551,16084.166)"
       fill="#6c63ff"
       id="path227" />
    <path
       d="m 27.272,3 a 6.318,6.318 0 0 1 6.318,6.318 v 12.636 a 6.318,6.318 0 0 1 -6.318,6.318 H 19.81 l -7.521,4.513 A 1.579,1.579 0 0 1 9.907,31.611 l -0.009,-0.18 v -3.159 h -1.58 a 6.318,6.318 0 0 1 -6.31,-6 L 2,21.954 V 9.318 A 6.318,6.318 0 0 1 8.318,3 Z m -6.318,14.215 h -9.477 a 1.5795,1.5795 0 1 0 0,3.159 h 9.477 a 1.5795,1.5795 0 1 0 0,-3.159 M 24.113,10.9 H 11.477 a 1.5795,1.5795 0 1 0 0,3.159 h 12.636 a 1.5795,1.5795 0 1 0 0,-3.159"
       transform="translate(544.14,546.914)"
       fill="#6c63ff"
       id="path229" />
    <circle
       cx="9.4239998"
       cy="9.4239998"
       r="9.4239998"
       transform="translate(546.14,481.733)"
       fill="#e6e6e6"
       id="circle231" />
  </g>
  <path
     id="rect2658"
     style="fill:#ffffff;fill-rule:evenodd;fill-opacity:0"
     d="M 1.4375,1.1445312 V 31.130859 c 0.3448092,-0.03502 0.7100399,-0.04995 1.0976562,-0.03906 0.2131898,0.006 0.4321793,0.01988 0.6582032,0.04102 1.1944531,0.111668 2.396394,0.16423 3.5839844,0.333985 2.0685235,0.295677 3.9405362,0.611213 5.0878902,1.783203 0.595922,0.0372 1.138796,0.11209 2.00586,0.146484 0.939228,0.03726 1.550924,-0.0022 2.40039,0.339844 0.0447,-0.0016 0.09055,-0.005 0.134766,-0.0059 1.005092,-0.02026 1.8611,0.193498 2.646484,0.644531 0.811956,-0.755591 1.962158,-1.394613 3.640625,-1.667969 3.405775,-0.554664 6.826703,-0.947756 10.25,-0.96875 2.053979,-0.0126 4.108651,0.109889 6.16211,0.410157 2.701833,-0.218089 5.42685,-0.146054 8.136719,-0.121094 1.338242,0.01432 2.675429,-0.0018 4.013671,-0.002 1.15299,0.003 2.305992,0.0021 3.458985,0.002 2.414332,-1.85e-4 4.829809,0 7.24414,0 2.526593,-4.1e-5 5.0535,-10e-6 7.580078,0 2.687294,2e-6 5.373253,0 8.060547,0 h 7.597657 6.375 2.421875 c 2.991841,0 4.730383,1.248776 5.257812,2.71289 h 0.546875 c 1.916682,-2e-6 3.833322,0 5.750002,0 h 7.58594 0.13281 c 0.0423,-1.812604 1.8501,-3.603515 5.43945,-3.603515 1.21242,0 2.14711,-0.03819 3.07227,-0.0059 0.92515,0.03277 1.84072,0.135495 3.01758,0.416016 0.62842,0.149804 1.17983,0.546752 1.80468,0.710937 0.095,0.02496 0.14308,-0.149578 0.23828,-0.173828 0.18168,-0.0463 0.37375,-0.04725 0.56055,-0.03125 0.8797,0.07533 1.75379,0.203243 2.63086,0.304688 0.59753,0.09865 1.19118,0.228915 1.79297,0.296875 0.87133,0.265657 1.76154,0.0127 2.63867,0.08594 2.01207,0.168004 3.97697,0.556925 5.98242,0.734375 0.69613,-0.265036 1.51397,-0.449026 2.47461,-0.505859 7.81954,-0.462617 15.65448,-0.265569 23.48047,-0.167969 3.15318,-0.01978 6.30565,-0.03624 9.45899,-0.02734 2.2315,0.01339 4.46512,0.0045 6.69726,0.0039 3.00834,2.87e-4 6.01705,7.4e-5 9.02539,0 1.97159,-1.1e-4 3.94247,-9e-6 5.91406,0 2.80796,-5e-6 5.61587,-10e-7 8.42383,0 0.3902,10e-7 0.78439,0.04588 1.17188,0 3.22792,-0.382199 -0.19435,-0.210755 2.74218,-0.63086 1.37149,-0.196207 2.71499,-0.262694 4.06055,-0.271484 1.34556,-0.0088 2.69362,0.04064 4.07422,0.07813 3.68659,0.218638 7.3771,0.09575 11.06641,0.07813 2.91592,0.0055 5.8321,0.01627 8.74804,0.01367 3.21447,-0.0041 6.42811,-0.0022 9.64258,-0.002 4.318,-1.59e-4 8.63512,-3e-5 12.95313,0 4.56717,5.8e-5 9.13595,7e-6 13.70312,0 h 5.63867 2.15039 c 3.03499,10e-7 4.78422,1.28396 5.28321,2.77539 h 3.24414 c 0.9046,-0.759303 2.30458,-1.283203 4.23242,-1.283203 h 10.62109 c 0.46443,0 0.93113,-0.03025 1.39649,-0.04492 0.46535,-0.01467 0.92992,-0.01376 1.39062,0.04492 1.36476,0.173839 0.63457,0.135643 1.3086,0.234375 0.25944,-0.07896 0.53123,-0.149005 0.82422,-0.201172 0.6777,-1.294281 2.38059,-2.330078 5.11132,-2.330078 h 14.39453 c 0.31084,0 0.78759,-0.192776 1.11915,-0.216797 0.19891,-0.01441 0.34567,0.03232 0.37304,0.216797 0.003,0.01768 0.004,0.03674 0.006,0.05469 0.10241,0.03081 0.19087,0.07613 0.27149,0.130859 0.003,-0.06125 -6e-4,-0.126995 0.006,-0.185547 0.2958,0 0.59846,-0.0663 0.88672,0 1.10644,0.254468 2.199,0.577023 3.26954,0.955078 0.2561,0.09045 0.50431,0.201748 0.75,0.31836 0.31517,0.0058 0.63014,0.01105 0.94531,0.01563 1.4066,0.018 2.81234,-0.042 4.21875,-0.0332 2.31839,-0.110639 4.37091,0.08575 6.68359,0.414062 3.1543,0.546233 6.34488,0.849564 9.53125,1.195313 2.97293,-0.177178 5.95296,-0.185179 8.92969,-0.15625 3.14004,0.04795 6.27963,0.01962 9.41992,0.01563 2.70759,-0.148375 5.31489,0.712678 8,0.921875 4.15356,-0.206342 8.30339,-0.243897 12.46094,-0.216797 3.87458,0.05217 7.7503,0.02813 11.625,0.01953 3.24206,0.0032 6.4845,0.0024 9.72656,0.002 3.22633,-9.18e-4 6.45142,-5.1e-5 9.67773,0 2.76613,-1.6e-5 5.53272,-9e-6 8.29883,0 2.1854,1.5e-5 4.37124,10e-7 6.55664,0 h 7.34571 5.13672 6.39453 2.36914 0.6289 c 0.16758,0 0.25241,0.0724 0.41211,0.08008 -0.82615,-2.105134 0.90269,-4.703125 5.22852,-4.703125 h 4.17383 3.1875 1.03125 c -1.37365,0.435375 -1.15284,2.067933 -0.77344,3.820313 0.0508,-0.0094 0.0966,-0.0227 0.14844,-0.03125 0.36701,-1.302342 0.89028,-2.716605 0.93554,-3.789063 1.04743,-0.02657 0.85184,1.735367 0.5293,3.66211 0.0125,-4.4e-5 0.0227,-0.002 0.0352,-0.002 h 0.94726 c 0.097,-1.123786 0.17278,-2.286451 0.43946,-3.083984 0.34942,0.106416 0.68875,0.24653 1.04687,0.31836 2.42418,0.486198 -0.0983,-0.102966 1.14063,0.02148 1.41118,-0.04878 2.74271,0.461833 4.125,0.607422 0.65138,0.0686 1.30854,0.05918 1.96289,0.08789 2.20606,-0.208014 4.34078,0.46303 6.50195,0.740235 0.005,-6.31e-4 0.009,-0.0013 0.0137,-0.002 0.0636,-0.0087 0.25326,0.04451 0.18945,0.03711 -0.0679,-0.0079 -0.13522,-0.02645 -0.20312,-0.03516 -0.44063,0.06097 -0.87495,0.161957 -1.3125,0.242187 2.18363,0.11617 2.94999,-0.294064 4.45703,0.658203 0.1937,0.122395 0.36907,0.271162 0.55273,0.408203 h 1.98438 13.69727 13.11328 3.03125 c 0.70932,-0.04512 1.41455,-0.05299 2.11523,-0.03125 2.10205,0.06522 4.17075,0.403819 6.24805,0.84961 0.52965,0.635635 1.15783,-0.02066 1.71875,0.09961 l 1.57422,0.390625 c 0.73467,-0.911418 2.00345,-1.670167 3.89648,-1.988281 2.97728,-0.50032 6.23649,-1.65496 9.2832,-0.839844 1.54682,0.413845 1.17652,1.053914 1.49219,0.185547 3.19799,-0.0057 6.39554,-0.136404 9.59375,-0.09766 2.98557,0.03211 5.97112,0.01287 8.95703,0.0098 3.86412,0.0015 7.72769,0.0022 11.5918,0.002 3.85533,-4.38e-4 7.71108,-3.6e-5 11.56641,0 2.43618,-6e-6 4.87241,-6e-6 7.30859,0 1.75517,7e-6 3.51047,0 5.26562,0 h 7.23438 5.96094 7.3164 c -0.22807,-0.182016 1.12037,0.157928 0.875,0 -0.0857,-0.05519 -0.35318,-0.07767 -0.27148,-0.138672 0.3446,-0.25723 1.98211,-0.614398 2.24219,-0.679688 0.95628,-0.416565 2.4692,0.267999 3.37695,0.113281 1.14706,-0.195501 -0.65743,-0.127927 -0.47461,-0.234374 0.26593,-0.154849 0.55992,-0.256929 0.83984,-0.384766 0.48662,-0.170357 0.98176,-0.254909 1.48047,-0.289063 1.49613,-0.102461 3.03367,0.257192 4.53711,0.181641 1.01087,-0.06447 2.02505,-0.02749 3.03711,-0.02539 1.83015,4e-4 3.66009,-0.0029 5.49024,-0.002 1.13237,0.0011 2.26411,1.22e-4 3.39648,0 0.62915,6.3e-5 1.25757,4e-6 1.88672,0 0.65967,-2e-6 1.3208,-9e-6 1.98047,0 3.83848,5.1e-5 5.62625,2.048046 5.4082,3.980469 0.38807,-0.195766 0.67736,-0.422007 1.44141,-0.744141 0.27121,-0.114346 3.09961,-1.200692 3.80078,-1.308593 0.78439,-0.12071 1.58493,-0.100021 2.37695,-0.150391 2.31011,0.539296 4.67841,0.530136 7.03125,0.375 -0.24296,0.03999 -0.97472,0.122541 -0.72851,0.119141 0.98711,-0.01349 1.97023,-0.122181 2.95703,-0.150391 2.53158,-0.07237 5.08796,0.02934 7.62109,0.0293 3.49799,-0.0071 6.99614,-0.0075 10.49414,-0.0059 3.71088,6.64e-4 7.42193,0 11.13281,0 3.23103,1.18e-4 6.46233,2.2e-5 9.69336,0 2.70301,-1.2e-5 5.40637,0 8.10938,0 2.90384,-3e-6 5.80709,-10e-7 8.71094,0 h 6.08593 c -0.25045,-0.0654 -0.46603,-0.06247 -0.73632,-0.158204 -0.27935,-0.09894 -0.54618,-0.238929 -0.78516,-0.376953 -0.003,-6.18e-4 -0.0427,-0.01859 -0.0469,-0.01953 -0.0463,-0.01612 -0.0916,-0.03308 -0.22851,-0.07227 -0.05,-0.04205 -0.0126,-0.01292 -0.0508,-0.04492 -0.35528,-0.112501 -1.08968,-0.363957 -1.89063,-0.792968 -0.0191,-0.0088 -0.0369,-0.0032 -0.0527,-0.01172 -0.0169,-0.0091 -0.0406,-0.03692 -0.0586,-0.04883 -0.25228,-0.142132 -0.56492,-0.246504 -0.74218,-0.408203 -0.17148,-0.05726 -0.34414,-0.111935 -0.51368,-0.173828 -0.95303,-0.74559 -1.66898,-1.721541 -2.53515,-2.558594 -1.89063,-1.792845 -1.25601,-1.036808 2.50195,-6.621094 0.0973,-0.144614 0.2514,-0.1649 0.42969,-0.136719 0.0541,-0.654179 0.17379,-1.101839 0.38086,-1.49414 -0.77798,-1.731515 0.22442,-3.8476 3.00781,-4.576172 0.32615,-0.340557 0.52727,-0.675446 1.03125,-1.044922 0.11522,-0.08447 0.24925,-0.13516 0.36719,-0.220703 -6.0957,0.621545 -7.07283,-4.9462173 -2.2207,-6.8398439 -3.1093,-2.0441431 -2.02089,-6.1019602 2.7246,-6.2480469 H 117.05078 c 0.64236,0.8121793 0.81957,1.7796664 0.53711,2.6835938 3.22136,0.3570624 4.74794,2.2424405 4.41016,4.0429688 4.62709,1.5647126 3.97574,6.4886652 -1.11524,6.8320312 -0.0254,0.08052 -0.0365,0.135555 -0.0645,0.220703 1.98873,4.197467 0.67194,4.342312 -1.61719,4.294922 10e-4,-0.0012 0.0269,-0.0047 0.0273,-0.0059 0.73475,-1.885969 1.24681,-3.242656 1.58984,-4.289063 -0.0313,-0.06614 -0.0766,-0.148838 -0.10938,-0.216797 -0.4346,0.02022 -0.84077,0.07035 -1.33789,0.01953 -0.18396,-0.0188 -0.36878,-0.03589 -0.55273,-0.05469 -0.0531,-0.0057 -0.14152,0.0029 -0.22266,0.0098 -1.32307,0.469162 -2.91388,0.718116 -1.48047,0.480468 -1.34644,0.24588 0.87414,-0.181025 -1.71289,0.492188 -1.76235,0.458608 -3.18514,0.632745 -4.98632,0.511719 h -1.25196 c 1.74001,0.842114 2.44419,2.378 2.14844,3.779296 h 2.29492 c 0.42718,-0.292563 0.8795,-0.555257 1.32617,-0.824218 -0.80182,-0.103386 -0.2986,-0.03829 0.42969,-0.267578 0.34308,-0.212459 0.67498,-0.438273 0.99414,-0.679688 0.44561,-0.629564 0.54738,-1.532756 1.11914,-2.060547 0.37307,-0.344378 -0.0533,1.107623 -0.41406,1.464844 -0.21931,0.217134 -0.45972,0.410111 -0.70508,0.595703 -0.0661,0.09345 -0.13864,0.180508 -0.22265,0.259766 -0.21609,0.203851 -0.49761,0.333695 -0.77149,0.419922 -0.14345,0.08883 -0.28488,0.180385 -0.42969,0.267578 0.14614,0.01884 0.17546,0.02184 0.42774,0.05664 0.85851,0.170586 1.7314,0.01367 2.58398,0.02148 0.43778,-0.0015 0.85858,0.01136 1.25196,0.01953 -0.1531,0.163434 -5.82778,0.825535 -6.21485,0.861328 -0.44149,0.0043 -0.88642,-0.04543 -1.32422,0.01172 -0.12831,0.01675 -0.25465,0.04671 -0.38281,0.06445 -0.34908,1.219917 -1.48927,2.276098 -3.36914,2.613281 1.08486,1.505201 1.65355,2.760439 -1.04492,2.351563 -0.54088,-0.08196 -2.2543,-0.175927 -2.63867,-0.794922 0.12027,-0.04095 0.47969,-0.0769 0.36132,-0.123047 -0.52142,-0.203305 -2.17814,0.122604 -2.86718,0 h -4.447269 -8.523437 c -2.463233,0 -4.927392,-3e-6 -7.390625,0 -4.417756,3e-6 -8.836146,4e-6 -13.253907,0 -4.813929,1.9e-5 -9.627476,2.46e-4 -14.441406,0 -1.37096,-9.3e-5 -2.742321,-0.0011 -4.113281,0 -0.989688,-0.0077 -2.069561,-2.96e-4 -3.130859,0.0039 -0.802151,0.333332 -1.733775,0.578125 -2.931641,0.578125 H 40.716797 33.662109 24.53125 12.990234 c -5.2807805,0 -6.7192304,-3.876501 -4.3222652,-5.99414 0.2868762,-1.049654 0.6467183,-2.114782 0.7460937,-3.125 1.3639105,0.07255 1.5130595,0.05545 1.9140625,0.226562 0.41831,-0.338335 1.136405,-0.164982 1.816406,-0.04687 -0.227002,-0.26459 -0.411784,-0.538174 -0.552734,-0.816406 -0.740058,-0.0096 -1.479353,-0.04995 -2.222656,0.01953 -0.5327386,0.03649 -1.0654387,-0.03184 -1.5976566,-0.02734 -7.2640471,0.06105 -7.2642621,-7.3624842 0,-7.3378902 0.372472,0.00126 0.7470981,0.00525 1.1171875,0.042969 0.5884241,-0.071387 1.1826721,-0.1068541 1.7792971,-0.1152344 0.380455,-0.00534 0.764526,0.039955 1.146484,0.052734 C 12.571556,7.1098926 12.532965,6.5212377 12.652344,5.9472656 11.285713,4.5747438 11.440964,2.469955 13.183594,1.1445312 Z m 9.890625,14.7480468 c -0.06041,0.04886 -0.11989,0.09877 -0.166016,0.171875 -0.347159,0.55026 -0.579103,1.149775 -0.763671,1.769531 0.726876,-0.241992 1.586892,-0.386718 2.591796,-0.386718 h 0.3125 c -0.01124,-0.231914 0.0062,-0.461784 0.05274,-0.689454 -0.146975,-0.06028 -0.237859,-0.102149 -0.388672,-0.164062 -0.110638,-0.0041 -0.221896,0.003 -0.332031,-0.0098 -0.0959,-0.01113 -0.284261,-0.228416 -0.203125,-0.214843 -0.528154,-0.228489 -0.905901,-0.392239 -1.103516,-0.476563 z m 1.103516,0.476563 c 0.156945,0.0679 0.327682,0.139435 0.535156,0.224609 0.01758,6.56e-4 0.03515,0.0015 0.05273,0.002 -0.212934,-0.09069 -0.450281,-0.193439 -0.585937,-0.228515 z m 0.58789,0.226562 c 0.273939,0.116674 0.362967,0.162364 0.337891,0.158203 0.01013,-0.04923 0.01257,-0.09962 0.02539,-0.148437 -0.121332,6.65e-4 -0.242169,-0.0064 -0.363281,-0.0098 z m 726.830079,4.972656 c -0.008,0.09714 -0.0195,0.18035 -0.0254,0.28711 -0.0247,0.449585 -0.30995,1.414227 0.13476,1.34375 0.47532,-0.07533 0.19947,-0.941232 0.29883,-1.41211 0.0399,-0.0274 0.0809,-0.0531 0.1211,-0.08008 -0.18241,-0.05246 -0.36648,-0.112934 -0.5293,-0.138672 z m 0.5293,0.138672 c 0.18687,0.05375 0.37052,0.09782 0.52929,0.06055 0.10851,-0.02548 -0.11284,-0.191677 -0.15039,-0.310547 -0.12664,0.08308 -0.2532,0.165651 -0.3789,0.25 z m 0.3789,-0.25 c 0.11348,-0.07445 0.22059,-0.157359 0.33203,-0.234375 -0.008,-0.0073 -0.0173,-0.01418 -0.0254,-0.02148 -0.16674,0.100434 -0.23391,0.09058 -0.30273,0.1875 -0.0136,0.01917 -0.01,0.04328 -0.004,0.06836 z m -0.79101,9.601563 c 0.14277,0.04767 0.28473,0.09741 0.42773,0.144531 -0.41448,-0.421852 -0.86146,-1.028891 -0.7793,-0.658203 0.0392,0.176972 0.17053,0.348524 0.35157,0.513672 z m 0.42773,0.144531 c 0.11268,0.11468 0.21773,0.199621 0.31445,0.263672 0.0377,0.02126 0.0726,0.03981 0.11133,0.06055 0.39286,0.180749 1.41861,0.412583 1.08399,0.251953 -0.48606,-0.233323 -0.99664,-0.407088 -1.50977,-0.576172 z m 2.31641,1.117187 c 0.0525,0.01662 0.25426,0.111555 0.27929,0.117188 0.005,0.0018 0.0204,0.0061 0.0254,0.0078 -0.27728,-0.161507 -0.49531,-0.311237 -0.5664,-0.355468 -0.0595,-0.03703 0.0655,0.06585 0.26172,0.230468 z m -384.97266,1.783204 c -0.003,1.93e-4 -0.007,-1.94e-4 -0.01,0 -0.0606,0.0036 0.12134,0.01418 0.18164,0.02148 -0.0575,-0.0063 -0.11442,-0.01525 -0.17188,-0.02148 z m -26.29101,-2.679688 c -0.0151,0.30761 -6e-5,0.649008 0.0312,1.007813 0.16207,0.002 0.32424,0.0054 0.48632,0.0078 -0.0654,-0.456324 -0.22029,-0.813787 -0.51757,-1.015625 z m -0.27149,-0.130859 c -0.11993,-0.03608 -0.2554,-0.05469 -0.4082,-0.05469 -0.75167,0 -0.96544,0.468304 -0.91797,1.179688 0.0749,-6e-6 0.14971,-0.0099 0.22461,-0.0098 0.35007,6.69e-4 0.70063,0.01411 1.05078,0.01758 0.0656,-0.409702 0.0931,-0.795365 0.0508,-1.132812 z m -21.0039,2.27539 c -0.0556,0.106175 -0.0988,0.215007 -0.14063,0.324219 1.20608,0.213957 1.30705,0.358426 1.83203,0.611328 0.37947,-0.394615 0.87104,-0.760189 1.47461,-1.074218 -0.52024,-2.1e-5 -1.04048,-9.1e-5 -1.56055,0 -0.58372,9.5e-5 -1.11557,0.05144 -1.60546,0.138671 z M 745.37891,1.1445312 c 0.34123,-0.00124 0.6961,0.012127 1.07226,0.052734 1.13293,0.1223009 2.2634,0.2663552 3.39844,0.3671875 0.79276,0.070426 1.58782,0.1174875 2.38281,0.15625 0.0657,-0.016612 0.12401,-0.022751 0.1875,-0.035156 0.78238,-0.3732331 1.50992,-0.4447044 1.96875,0.1601562 0.1625,0.2142103 0.30804,0.4171152 0.45117,0.6191407 0.15151,0.00161 0.34282,0.00527 0.625,-0.011719 0.1482,-0.00892 0.12815,-0.00439 0.21094,-0.00781 -0.0299,-0.017881 0.0874,-0.062471 0.58984,-0.1640625 1.62371,-0.060575 3.24541,5.73e-4 4.86915,-0.015625 0.097,-3.518e-4 0.19374,0.00442 0.29101,0 0.76323,-0.5578265 1.84384,-0.9277757 3.23438,-0.9570312 0.40079,-0.00843 0.82624,0.013061 1.27734,0.064453 1.07353,0.1223009 2.14549,0.2588214 3.2207,0.3652343 0.10789,0.010678 0.20418,0.014941 0.3086,0.023438 0.47927,-0.08281 0.88298,-0.2304688 1.45117,-0.2304688 h 3.7168 c 2.13793,0 3.64587,0.6361523 4.52539,1.5332031 2.44742,0.089645 4.05749,0.9914385 4.73046,2.1835938 1.17422,0.1372794 2.3434,0.4142401 3.48438,0.640625 4.60293,0.9132826 5.61869,4.2577281 3.8457,6.1171871 -0.0213,0.566119 -0.0256,1.110884 -0.18359,1.835938 0.006,0.0942 0.004,0.206948 0.0117,0.271484 0.0376,0.314953 0.1466,0.64233 0.0664,0.949219 -0.73918,2.829099 -1.24531,3.784857 -3.08984,5.109375 -0.0635,0.787531 -1.1421,2.653843 -1.35156,2.761719 -0.55398,0.285308 -1.1447,0.483453 -1.74414,0.660156 -0.0375,0.272375 -0.0828,0.526334 -0.14649,0.712891 -0.37436,1.095787 -1.57515,1.56748 -2.29297,2.363281 -1.45715,1.750083 -3.65044,2.283378 -5.60156,3.220703 -1.70813,0.643452 -3.74061,1.513399 -5.63476,1.480469 -2.08722,-0.03629 -1.21558,-0.693592 -2.08399,0.166015 -1.63006,0.253933 -1.89269,0.325545 -3.54687,0.458985 -0.31489,0.02544 -0.6378,-0.02835 -0.94727,0.03516 -1.17988,0.242132 -2.32277,0.636814 -3.48242,0.962891 1.51841,-0.03478 2.95832,0.563576 4.43164,0.86914 0.0921,-0.318993 3.01345,-0.144645 3.29102,-0.134765 1.90798,-0.05559 3.79118,0.323549 5.65625,0.724609 0.36663,-1.604398 2.15661,-3.044922 5.375,-3.044922 h 10.07226 5.2832 0.39844 c 0.85463,0 1.60428,0.103975 2.25781,0.283203 V 1.1445312 Z M 765.625,33.863281 c -10e-4,0.0039 -0.0232,0.0038 -0.0234,0.0078 -0.002,0.0363 0.0694,0.02661 0.10352,0.03906 0.11798,0.02076 0.47186,0.07909 0.35351,0.06055 -0.14603,-0.02288 -0.28839,-0.07731 -0.43359,-0.107422 z M 784.92969,23.59375 c 0.0212,-0.154332 0.042,-0.31082 0.0566,-0.474609 -0.0691,0.133992 -0.1353,0.269679 -0.20313,0.404297 0.0178,-0.0068 0.0225,-0.01069 0.041,-0.01758 0.012,-0.0044 -0.0398,0.08398 -0.0723,0.144532 0.06,-0.01714 0.11799,-0.03903 0.17774,-0.05664 z m -0.17774,0.05664 c -0.0125,0.0036 -0.0246,0.0082 -0.0371,0.01172 -0.0414,0.08437 -0.088,0.166393 -0.12695,0.251953 -0.0462,0.101768 0.0832,-0.112794 0.16406,-0.263671 z m -0.0371,0.01172 c 0.0227,-0.04623 0.0452,-0.09267 0.0684,-0.138671 -0.30228,0.11503 -0.49908,0.212011 -0.63672,0.294921 0.18973,-0.05153 0.37955,-0.102551 0.56836,-0.15625 z m 0.27149,-0.542968 c 0.0467,-0.09053 0.0911,-0.18238 0.13672,-0.273438 -0.10737,-2.693059 -0.009,-1.155191 -0.13672,0.273438 z m 3.03906,-2.947266 c 0.0459,-0.570128 -0.43651,-0.579536 -2.18164,1.072266 -0.33708,0.319045 0.87075,-0.319124 1.30664,-0.478516 0.32157,-0.210129 0.61227,-0.405086 0.875,-0.59375 z m 3.01172,-6.330078 c -0.008,-0.114547 -0.0273,-0.203235 -0.0859,-0.150391 -0.21057,0.189327 -0.20832,0.527712 -0.3125,0.791016 -0.38019,0.354804 -1.53906,1.398631 -1.14062,1.064453 0.50352,-0.422303 1.30337,-0.691126 1.45703,-1.330078 0.0314,-0.130596 0.0547,-0.249595 0.082,-0.375 z M 754.83984,2.4648438 c -0.43628,-0.00463 -0.32045,0.060804 0.17383,0.6210937 h 0.0215 c 0.0359,0 0.10942,-0.035827 0.10742,0 -1.6e-4,0.00347 1.5e-4,0.0063 0,0.00977 0.052,0.0018 0.0789,0.010555 0.12695,0.013672 -0.13659,-0.2110421 -0.26939,-0.4182823 -0.42969,-0.6445312 z m 0.30274,0.6308593 c -0.0345,-0.00119 -0.0858,-9.817e-4 -0.1211,-0.00195 0.046,0.052179 0.0643,0.07302 0.11719,0.1347656 10e-4,-0.044373 0.002,-0.085675 0.004,-0.1328125 z m -2.72266,-1.4101562 c -0.0288,0.01373 -0.057,0.026479 -0.0859,0.041016 0.054,0.00258 0.10808,0.00531 0.16211,0.00781 1.66924,0.07723 0.97424,-0.2539632 -0.0762,-0.048828 z m -0.0859,0.041016 c -0.0339,-0.00162 -0.0677,-0.00421 -0.10156,-0.00586 -0.64233,0.1624482 -1.36685,0.5378232 -1.76367,1.3222657 0.58209,-0.5007851 1.23562,-0.9999567 1.86523,-1.3164063 z m -1.86523,1.3164063 c -0.0175,0.015066 -0.0295,0.027909 -0.0469,0.042969 h 0.0293 c 0.007,-0.013475 0.0109,-0.02973 0.0176,-0.042969 z M 755.4043,3.3125 c -0.0393,0.030036 -0.077,0.06491 -0.10938,0.1035156 0.11882,0.1431104 0.25113,0.3101479 0.39649,0.5 0.0196,-0.086743 -0.0308,-0.08001 -0.0195,-0.1484375 C 755.58498,3.6178703 755.50335,3.4704988 755.4043,3.3125 Z m 29.26367,9.482422 c 0.14437,0.115991 0.27678,0.236299 0.39648,0.363281 -0.007,-0.09618 -0.0155,-0.190025 -0.0312,-0.285156 -0.12101,-0.02972 -0.24379,-0.04936 -0.36523,-0.07813 z m 1.23242,1.998047 c 0.003,0.01819 0.007,0.03647 0.01,0.05469 0.0194,0.0057 0.073,0.01788 0.0918,0.02344 -0.04,-0.01588 -0.0597,-0.0595 -0.10156,-0.07813 z M 13.464844,16.1875 c -0.0049,0.07176 -0.01844,0.142993 -0.02149,0.214844 0.01951,-0.05663 0.05155,-0.110071 0.07422,-0.166016 -0.01753,-0.01638 -0.03557,-0.03234 -0.05273,-0.04883 z m 771.552736,1.183594 c -0.0226,0.02318 -0.0429,0.04749 -0.0664,0.07031 0.12317,0.0039 0.2459,0.04701 0.36914,0.04102 0.10745,-0.0052 -0.25406,-0.08233 -0.30273,-0.111328 z m -7.39063,1.539062 c 0.31806,0.279394 0.61919,0.574079 0.90625,0.875 0.006,-0.01348 0.01,-0.02754 0.0156,-0.04102 0.0959,-0.22366 0.39966,-0.541781 0.62109,-0.833985 -0.27013,3e-6 -0.5404,4.6e-5 -0.81054,0 -0.24416,-4.7e-5 -0.48829,-9.9e-5 -0.73243,0 z m 1.43946,1.050782 c 0.0482,-0.07538 -0.12478,0.08559 -0.21875,0.15625 0.019,0.02066 0.0341,0.04185 0.0527,0.0625 0.0613,-0.0705 0.11664,-0.141622 0.16602,-0.21875 z m -24.28907,2.554687 c 10e-4,0.0056 0.0195,0.01731 0.0488,0.03125 0.0528,0.0012 0.10546,0.0052 0.15821,0.0078 -0.0503,-0.01104 -0.10005,-0.02431 -0.1504,-0.03516 -0.0412,-0.0089 -0.0577,-0.0095 -0.0566,-0.0039 z m 0.20704,0.03906 c 0.19745,0.04336 0.39298,0.09463 0.58984,0.140624 -0.10371,-0.05707 -0.23168,-0.114843 -0.30664,-0.123046 -0.0942,-0.0103 -0.18873,-0.01292 -0.2832,-0.01758 z m 0.58984,0.140624 c 0.12347,0.06794 0.21021,0.135775 0.12109,0.125 -0.21853,-0.02642 -0.71625,-0.200725 -0.86914,-0.273437 -0.4633,-0.01055 -0.93066,0.02539 -1.39453,0.02539 h -6.24023 c -0.0268,0.03838 -0.046,0.06493 -0.084,0.11914 0.0148,0.528188 0.0139,0.749359 0.0469,1.601563 -0.33422,0.497356 -0.63215,1.024584 -0.94727,1.537109 0.0433,0.01633 0.0877,0.03017 0.13086,0.04687 0.0538,0.02086 -0.0643,-0.01071 -0.15234,-0.01172 -0.0375,0.06066 -0.0791,0.117572 -0.11719,0.177735 0.002,4.8e-4 -7.8e-4,0.0036 0.002,0.0039 0.9837,0.174248 2.05153,-0.127491 3.04492,-0.0059 1.08394,0.01368 2.16971,0.06623 3.25196,-0.0332 0.15592,-0.0056 2.2782,-0.103046 2.47265,-0.0332 1.27062,0.455955 2.34447,1.438852 3.66211,1.732422 1.87177,0.41703 -0.62697,-1.009601 -1.81445,-1.304687 -0.0588,0.0086 -0.11686,0.01916 -0.17578,0.02734 -0.12387,-0.01544 -0.46024,0.04441 -0.37305,-0.04492 0.0735,-0.07531 0.29094,-0.04651 0.54883,0.01758 2.64001,-0.386651 5.16798,-1.190893 7.79297,-1.707032 0.59475,-0.116941 1.21338,-0.05842 1.81445,-0.136718 0.49337,-0.06427 0.98357,-0.148917 1.47461,-0.228516 -1.29791,-0.233515 -2.59811,-0.170092 -3.93164,-0.347656 -2.29859,-0.306063 0.36595,-0.257706 -2.875,-0.472656 -0.71149,-0.04719 -1.42564,-0.01046 -2.13867,-0.01563 -1.08399,-0.264533 -2.16355,-0.544988 -3.25,-0.798829 z m -9.50586,3.347657 c -0.0538,-0.01714 -0.005,-0.145091 0.0469,-0.177735 0.0137,-0.0087 0.0456,-2.84e-4 0.0703,0 0.007,-0.01169 0.0143,-0.02345 0.0215,-0.03516 -0.56847,-0.214178 -1.1488,-0.39818 -1.72265,-0.597656 -0.0463,-0.0036 -0.12043,-0.0243 -0.17969,-0.03516 0.0771,0.05708 0.15427,0.113126 0.23047,0.171875 0.0192,0.0054 0.0401,0.0067 0.0586,0.01367 0.29172,0.109958 1.00727,0.730497 0.74219,0.566407 -0.27952,-0.173029 -0.53863,-0.377965 -0.80078,-0.580078 -0.45399,-0.128754 -1.10214,0.136463 -1.37696,-0.240235 -0.23405,-0.320838 0.63939,-0.0245 1.14649,0.06836 -0.20464,-0.151547 -0.41812,-0.288399 -0.64258,-0.404297 0.0502,0.07932 0.0416,0.105966 -0.10742,0.0059 -0.55193,-0.119537 -1.3741,0.131777 -1.65625,-0.357422 -0.27025,-0.468569 1.10627,0.04624 1.60156,0.263672 0.0565,0.02481 0.10749,0.05969 0.16211,0.08789 -0.19595,-0.309733 -1.56765,-1.66913 -1.63477,-1.734375 -1.75453,-2.224343 -2.58194,6.215789 -1.77148,6.017578 1.09451,-0.267677 2.20216,-0.503398 3.26172,-0.886719 0.57324,-0.207386 1.1896,-0.42928 1.60547,-0.875 0.3613,-0.387227 0.66141,-0.822785 0.94531,-1.271484 z m 1.03906,-3.351563 c -0.001,-0.0393 -0.003,-0.07741 -0.004,-0.11914 h -0.0625 c -0.0118,0.06552 -0.0162,0.169749 -0.0332,0.208984 -0.1015,0.233301 -2.10172,3.054146 0.0996,-0.08984 z m 33.70117,0.578125 c -0.7038,0.147517 1.29051,0.63722 1.93555,0.955078 0.23867,-0.07838 0.48188,-0.146162 0.72461,-0.214843 -0.27993,-0.114786 -0.83733,-0.325188 -2.66016,-0.740235 z m -28.44921,8.449219 c -0.65436,-0.237119 0.73201,0.629861 1.46093,1.273438 h 0.19727 c -0.53317,-0.465374 -1.00111,-1.035316 -1.6582,-1.273438 z m -432.38086,1.710938 c -0.46237,0.265092 -0.74912,0.558218 -0.89063,0.871093 0.44897,-0.325786 0.97809,-0.619678 1.58203,-0.871093 -0.23046,8e-6 -0.46094,-7e-6 -0.6914,0 z M 17.244141,34.337891 c 0.330537,0.306962 0.633189,0.587249 0.986328,0.916015 0.007,-0.01182 0.01233,-0.02337 0.01953,-0.03516 -0.275687,-0.299775 -0.546026,-0.605446 -0.851562,-0.867188 -0.05431,-0.0057 -0.105561,-0.01 -0.154297,-0.01367 z m 0.449218,0.05078 c 0.328716,0.08875 0.657047,0.178819 0.986329,0.265625 0.02347,-0.02635 0.06938,-0.04423 0.09375,-0.07031 -0.1226,-0.02544 -0.232042,-0.04958 -0.38086,-0.07813 -0.2688,-0.05156 -0.493839,-0.08797 -0.699219,-0.117187 z" />
  <path
     id="rect3082"
     style="fill:#ffffff;fill-rule:evenodd;fill-opacity:0"
     d="M 1.4375,1.1445312 V 31.130859 c 0.3448092,-0.03502 0.7100399,-0.04995 1.0976562,-0.03906 0.2131898,0.006 0.4321793,0.01988 0.6582032,0.04102 1.1944531,0.111668 2.396394,0.16423 3.5839844,0.333985 2.0685235,0.295677 3.9405362,0.611213 5.0878902,1.783203 0.595922,0.0372 1.138796,0.11209 2.00586,0.146484 0.939228,0.03726 1.550924,-0.0022 2.40039,0.339844 0.0447,-0.0016 0.09055,-0.005 0.134766,-0.0059 1.005092,-0.02026 1.8611,0.193498 2.646484,0.644531 0.811956,-0.755591 1.962158,-1.394613 3.640625,-1.667969 3.405775,-0.554664 6.826703,-0.947756 10.25,-0.96875 2.053979,-0.0126 4.108651,0.109889 6.16211,0.410157 2.701833,-0.218089 5.42685,-0.146054 8.136719,-0.121094 1.338242,0.01432 2.675429,-0.0018 4.013671,-0.002 1.15299,0.003 2.305992,0.0021 3.458985,0.002 2.414332,-1.85e-4 4.829809,0 7.24414,0 2.526593,-4.1e-5 5.0535,-10e-6 7.580078,0 2.687294,2e-6 5.373253,0 8.060547,0 h 7.597657 6.375 2.421875 c 2.991841,0 4.730383,1.248776 5.257812,2.71289 h 0.546875 c 1.916682,-2e-6 3.833322,0 5.750002,0 h 7.58594 0.13281 c 0.0423,-1.812604 1.8501,-3.603515 5.43945,-3.603515 1.21242,0 2.14711,-0.03819 3.07227,-0.0059 0.92515,0.03277 1.84072,0.135495 3.01758,0.416016 0.62842,0.149804 1.17983,0.546752 1.80468,0.710937 0.095,0.02496 0.14308,-0.149578 0.23828,-0.173828 0.18168,-0.0463 0.37375,-0.04725 0.56055,-0.03125 0.8797,0.07533 1.75379,0.203243 2.63086,0.304688 0.59753,0.09865 1.19118,0.228915 1.79297,0.296875 0.87133,0.265657 1.76154,0.0127 2.63867,0.08594 2.01207,0.168004 3.97697,0.556925 5.98242,0.734375 0.69613,-0.265036 1.51397,-0.449026 2.47461,-0.505859 7.81954,-0.462617 15.65448,-0.265569 23.48047,-0.167969 3.15318,-0.01978 6.30565,-0.03624 9.45899,-0.02734 2.2315,0.01339 4.46512,0.0045 6.69726,0.0039 3.00834,2.87e-4 6.01705,7.4e-5 9.02539,0 1.97159,-1.1e-4 3.94247,-9e-6 5.91406,0 2.80796,-5e-6 5.61587,-10e-7 8.42383,0 0.3902,10e-7 0.78439,0.04588 1.17188,0 3.22792,-0.382199 -0.19435,-0.210755 2.74218,-0.63086 1.37149,-0.196207 2.71499,-0.262694 4.06055,-0.271484 1.34556,-0.0088 2.69362,0.04064 4.07422,0.07813 3.68659,0.218638 7.3771,0.09575 11.06641,0.07813 2.91592,0.0055 5.8321,0.01627 8.74804,0.01367 3.21447,-0.0041 6.42811,-0.0022 9.64258,-0.002 4.318,-1.59e-4 8.63512,-3e-5 12.95313,0 4.56717,5.8e-5 9.13595,7e-6 13.70312,0 h 5.63867 2.15039 c 3.03499,10e-7 4.78422,1.28396 5.28321,2.77539 h 3.24414 c 0.9046,-0.759303 2.30458,-1.283203 4.23242,-1.283203 h 10.62109 c 0.46443,0 0.93113,-0.03025 1.39649,-0.04492 0.46535,-0.01467 0.92992,-0.01376 1.39062,0.04492 1.36476,0.173839 0.63457,0.135643 1.3086,0.234375 0.25944,-0.07896 0.53123,-0.149005 0.82422,-0.201172 0.6777,-1.294281 2.38059,-2.330078 5.11132,-2.330078 h 14.39453 c 0.31084,0 0.78759,-0.192776 1.11915,-0.216797 0.19891,-0.01441 0.34567,0.03232 0.37304,0.216797 0.003,0.01768 0.004,0.03674 0.006,0.05469 0.10241,0.03081 0.19087,0.07613 0.27149,0.130859 0.003,-0.06125 -6e-4,-0.126995 0.006,-0.185547 0.2958,0 0.59846,-0.0663 0.88672,0 1.10644,0.254468 2.199,0.577023 3.26954,0.955078 0.2561,0.09045 0.50431,0.201748 0.75,0.31836 0.31517,0.0058 0.63014,0.01105 0.94531,0.01563 1.4066,0.018 2.81234,-0.042 4.21875,-0.0332 2.31839,-0.110639 4.37091,0.08575 6.68359,0.414062 3.1543,0.546233 6.34488,0.849564 9.53125,1.195313 2.97293,-0.177178 5.95296,-0.185179 8.92969,-0.15625 3.14004,0.04795 6.27963,0.01962 9.41992,0.01563 2.70759,-0.148375 5.31489,0.712678 8,0.921875 4.15356,-0.206342 8.30339,-0.243897 12.46094,-0.216797 3.87458,0.05217 7.7503,0.02813 11.625,0.01953 3.24206,0.0032 6.4845,0.0024 9.72656,0.002 3.22633,-9.18e-4 6.45142,-5.1e-5 9.67773,0 2.76613,-1.6e-5 5.53272,-9e-6 8.29883,0 2.1854,1.5e-5 4.37124,10e-7 6.55664,0 h 7.34571 5.13672 6.39453 2.36914 0.6289 c 0.16758,0 0.25241,0.0724 0.41211,0.08008 -0.82615,-2.105134 0.90269,-4.703125 5.22852,-4.703125 h 4.17383 3.1875 1.03125 c -1.37365,0.435375 -1.15284,2.067933 -0.77344,3.820313 0.0508,-0.0094 0.0966,-0.0227 0.14844,-0.03125 0.36701,-1.302342 0.89028,-2.716605 0.93554,-3.789063 1.04743,-0.02657 0.85184,1.735367 0.5293,3.66211 0.0125,-4.4e-5 0.0227,-0.002 0.0352,-0.002 h 0.94726 c 0.097,-1.123786 0.17278,-2.286451 0.43946,-3.083984 0.34942,0.106416 0.68875,0.24653 1.04687,0.31836 2.42418,0.486198 -0.0983,-0.102966 1.14063,0.02148 1.41118,-0.04878 2.74271,0.461833 4.125,0.607422 0.65138,0.0686 1.30854,0.05918 1.96289,0.08789 2.20606,-0.208014 4.34078,0.46303 6.50195,0.740235 0.005,-6.31e-4 0.009,-0.0013 0.0137,-0.002 0.0636,-0.0087 0.25326,0.04451 0.18945,0.03711 -0.0679,-0.0079 -0.13522,-0.02645 -0.20312,-0.03516 -0.44063,0.06097 -0.87495,0.161957 -1.3125,0.242187 2.18363,0.11617 2.94999,-0.294064 4.45703,0.658203 0.1937,0.122395 0.36907,0.271162 0.55273,0.408203 h 1.98438 13.69727 13.11328 3.03125 c 0.70932,-0.04512 1.41455,-0.05299 2.11523,-0.03125 2.10205,0.06522 4.17075,0.403819 6.24805,0.84961 0.52965,0.635635 1.15783,-0.02066 1.71875,0.09961 l 1.57422,0.390625 c 0.73467,-0.911418 2.00345,-1.670167 3.89648,-1.988281 2.97728,-0.50032 6.23649,-1.65496 9.2832,-0.839844 1.54682,0.413845 1.17652,1.053914 1.49219,0.185547 3.19799,-0.0057 6.39554,-0.136404 9.59375,-0.09766 2.98557,0.03211 5.97112,0.01287 8.95703,0.0098 3.86412,0.0015 7.72769,0.0022 11.5918,0.002 3.85533,-4.38e-4 7.71108,-3.6e-5 11.56641,0 2.43618,-6e-6 4.87241,-6e-6 7.30859,0 1.75517,7e-6 3.51047,0 5.26562,0 h 7.23438 5.96094 7.3164 c -0.22807,-0.182016 1.12037,0.157928 0.875,0 -0.0857,-0.05519 -0.35318,-0.07767 -0.27148,-0.138672 0.3446,-0.25723 1.98211,-0.614398 2.24219,-0.679688 0.95628,-0.416565 2.4692,0.267999 3.37695,0.113281 1.14706,-0.195501 -0.65743,-0.127927 -0.47461,-0.234374 0.26593,-0.154849 0.55992,-0.256929 0.83984,-0.384766 0.48662,-0.170357 0.98176,-0.254909 1.48047,-0.289063 1.49613,-0.102461 3.03367,0.257192 4.53711,0.181641 1.01087,-0.06447 2.02505,-0.02749 3.03711,-0.02539 1.83015,4e-4 3.66009,-0.0029 5.49024,-0.002 1.13237,0.0011 2.26411,1.22e-4 3.39648,0 0.62915,6.3e-5 1.25757,4e-6 1.88672,0 0.65967,-2e-6 1.3208,-9e-6 1.98047,0 3.83848,5.1e-5 5.62625,2.048046 5.4082,3.980469 0.38807,-0.195766 0.67736,-0.422007 1.44141,-0.744141 0.27121,-0.114346 3.09961,-1.200692 3.80078,-1.308593 0.78439,-0.12071 1.58493,-0.100021 2.37695,-0.150391 2.31011,0.539296 4.67841,0.530136 7.03125,0.375 -0.24296,0.03999 -0.97472,0.122541 -0.72851,0.119141 0.98711,-0.01349 1.97023,-0.122181 2.95703,-0.150391 2.53158,-0.07237 5.08796,0.02934 7.62109,0.0293 3.49799,-0.0071 6.99614,-0.0075 10.49414,-0.0059 3.71088,6.64e-4 7.42193,0 11.13281,0 3.23103,1.18e-4 6.46233,2.2e-5 9.69336,0 2.70301,-1.2e-5 5.40637,0 8.10938,0 2.90384,-3e-6 5.80709,-10e-7 8.71094,0 h 6.08593 c -0.25045,-0.0654 -0.46603,-0.06247 -0.73632,-0.158204 -0.27935,-0.09894 -0.54618,-0.238929 -0.78516,-0.376953 -0.003,-6.18e-4 -0.0427,-0.01859 -0.0469,-0.01953 -0.0463,-0.01612 -0.0916,-0.03308 -0.22851,-0.07227 -0.05,-0.04205 -0.0126,-0.01292 -0.0508,-0.04492 -0.35528,-0.112501 -1.08968,-0.363957 -1.89063,-0.792968 -0.0191,-0.0088 -0.0369,-0.0032 -0.0527,-0.01172 -0.0169,-0.0091 -0.0406,-0.03692 -0.0586,-0.04883 -0.25228,-0.142132 -0.56492,-0.246504 -0.74218,-0.408203 -0.17148,-0.05726 -0.34414,-0.111935 -0.51368,-0.173828 -0.95303,-0.74559 -1.66898,-1.721541 -2.53515,-2.558594 -1.89063,-1.792845 -1.25601,-1.036808 2.50195,-6.621094 0.0973,-0.144614 0.2514,-0.1649 0.42969,-0.136719 0.0541,-0.654179 0.17379,-1.101839 0.38086,-1.49414 -0.77798,-1.731515 0.22442,-3.8476 3.00781,-4.576172 0.32615,-0.340557 0.52727,-0.675446 1.03125,-1.044922 0.11522,-0.08447 0.24925,-0.13516 0.36719,-0.220703 -6.0957,0.621545 -7.07283,-4.9462173 -2.2207,-6.8398439 -3.1093,-2.0441431 -2.02089,-6.1019602 2.7246,-6.2480469 H 117.05078 c 0.64236,0.8121793 0.81957,1.7796664 0.53711,2.6835938 3.22136,0.3570624 4.74794,2.2424405 4.41016,4.0429688 4.62709,1.5647126 3.97574,6.4886652 -1.11524,6.8320312 -0.0254,0.08052 -0.0365,0.135555 -0.0645,0.220703 1.98873,4.197467 0.67194,4.342312 -1.61719,4.294922 10e-4,-0.0012 0.0269,-0.0047 0.0273,-0.0059 0.73475,-1.885969 1.24681,-3.242656 1.58984,-4.289063 -0.0313,-0.06614 -0.0766,-0.148838 -0.10938,-0.216797 -0.4346,0.02022 -0.84077,0.07035 -1.33789,0.01953 -0.18396,-0.0188 -0.36878,-0.03589 -0.55273,-0.05469 -0.0531,-0.0057 -0.14152,0.0029 -0.22266,0.0098 -1.32307,0.469162 -2.91388,0.718116 -1.48047,0.480468 -1.34644,0.24588 0.87414,-0.181025 -1.71289,0.492188 -1.76235,0.458608 -3.18514,0.632745 -4.98632,0.511719 h -1.25196 c 1.74001,0.842114 2.44419,2.378 2.14844,3.779296 h 2.29492 c 0.42718,-0.292563 0.8795,-0.555257 1.32617,-0.824218 -0.80182,-0.103386 -0.2986,-0.03829 0.42969,-0.267578 0.34308,-0.212459 0.67498,-0.438273 0.99414,-0.679688 0.44561,-0.629564 0.54738,-1.532756 1.11914,-2.060547 0.37307,-0.344378 -0.0533,1.107623 -0.41406,1.464844 -0.21931,0.217134 -0.45972,0.410111 -0.70508,0.595703 -0.0661,0.09345 -0.13864,0.180508 -0.22265,0.259766 -0.21609,0.203851 -0.49761,0.333695 -0.77149,0.419922 -0.14345,0.08883 -0.28488,0.180385 -0.42969,0.267578 0.14614,0.01884 0.17546,0.02184 0.42774,0.05664 0.85851,0.170586 1.7314,0.01367 2.58398,0.02148 0.43778,-0.0015 0.85858,0.01136 1.25196,0.01953 -0.1531,0.163434 -5.82778,0.825535 -6.21485,0.861328 -0.44149,0.0043 -0.88642,-0.04543 -1.32422,0.01172 -0.12831,0.01675 -0.25465,0.04671 -0.38281,0.06445 -0.34908,1.219917 -1.48927,2.276098 -3.36914,2.613281 1.08486,1.505201 1.65355,2.760439 -1.04492,2.351563 -0.54088,-0.08196 -2.2543,-0.175927 -2.63867,-0.794922 0.12027,-0.04095 0.47969,-0.0769 0.36132,-0.123047 -0.52142,-0.203305 -2.17814,0.122604 -2.86718,0 h -4.447269 -8.523437 c -2.463233,0 -4.927392,-3e-6 -7.390625,0 -4.417756,3e-6 -8.836146,4e-6 -13.253907,0 -4.813929,1.9e-5 -9.627476,2.46e-4 -14.441406,0 -1.37096,-9.3e-5 -2.742321,-0.0011 -4.113281,0 -0.989688,-0.0077 -2.069561,-2.96e-4 -3.130859,0.0039 -0.802151,0.333332 -1.733775,0.578125 -2.931641,0.578125 H 40.716797 33.662109 24.53125 12.990234 c -5.2807805,0 -6.7192304,-3.876501 -4.3222652,-5.99414 0.2868762,-1.049654 0.6467183,-2.114782 0.7460937,-3.125 1.3639105,0.07255 1.5130595,0.05545 1.9140625,0.226562 0.41831,-0.338335 1.136405,-0.164982 1.816406,-0.04687 -0.227002,-0.26459 -0.411784,-0.538174 -0.552734,-0.816406 -0.740058,-0.0096 -1.479353,-0.04995 -2.222656,0.01953 -0.5327386,0.03649 -1.0654387,-0.03184 -1.5976566,-0.02734 -7.2640471,0.06105 -7.2642621,-7.3624842 0,-7.3378902 0.372472,0.00126 0.7470981,0.00525 1.1171875,0.042969 0.5884241,-0.071387 1.1826721,-0.1068541 1.7792971,-0.1152344 0.380455,-0.00534 0.764526,0.039955 1.146484,0.052734 C 12.571556,7.1098926 12.532965,6.5212377 12.652344,5.9472656 11.285713,4.5747438 11.440964,2.469955 13.183594,1.1445312 Z m 9.890625,14.7480468 c -0.06041,0.04886 -0.11989,0.09877 -0.166016,0.171875 -0.347159,0.55026 -0.579103,1.149775 -0.763671,1.769531 0.726876,-0.241992 1.586892,-0.386718 2.591796,-0.386718 h 0.3125 c -0.01124,-0.231914 0.0062,-0.461784 0.05274,-0.689454 -0.146975,-0.06028 -0.237859,-0.102149 -0.388672,-0.164062 -0.110638,-0.0041 -0.221896,0.003 -0.332031,-0.0098 -0.0959,-0.01113 -0.284261,-0.228416 -0.203125,-0.214843 -0.528154,-0.228489 -0.905901,-0.392239 -1.103516,-0.476563 z m 1.103516,0.476563 c 0.156945,0.0679 0.327682,0.139435 0.535156,0.224609 0.01758,6.56e-4 0.03515,0.0015 0.05273,0.002 -0.212934,-0.09069 -0.450281,-0.193439 -0.585937,-0.228515 z m 0.58789,0.226562 c 0.273939,0.116674 0.362967,0.162364 0.337891,0.158203 0.01013,-0.04923 0.01257,-0.09962 0.02539,-0.148437 -0.121332,6.65e-4 -0.242169,-0.0064 -0.363281,-0.0098 z m 726.830079,4.972656 c -0.008,0.09714 -0.0195,0.18035 -0.0254,0.28711 -0.0247,0.449585 -0.30995,1.414227 0.13476,1.34375 0.47532,-0.07533 0.19947,-0.941232 0.29883,-1.41211 0.0399,-0.0274 0.0809,-0.0531 0.1211,-0.08008 -0.18241,-0.05246 -0.36648,-0.112934 -0.5293,-0.138672 z m 0.5293,0.138672 c 0.18687,0.05375 0.37052,0.09782 0.52929,0.06055 0.10851,-0.02548 -0.11284,-0.191677 -0.15039,-0.310547 -0.12664,0.08308 -0.2532,0.165651 -0.3789,0.25 z m 0.3789,-0.25 c 0.11348,-0.07445 0.22059,-0.157359 0.33203,-0.234375 -0.008,-0.0073 -0.0173,-0.01418 -0.0254,-0.02148 -0.16674,0.100434 -0.23391,0.09058 -0.30273,0.1875 -0.0136,0.01917 -0.01,0.04328 -0.004,0.06836 z m -0.79101,9.601563 c 0.14277,0.04767 0.28473,0.09741 0.42773,0.144531 -0.41448,-0.421852 -0.86146,-1.028891 -0.7793,-0.658203 0.0392,0.176972 0.17053,0.348524 0.35157,0.513672 z m 0.42773,0.144531 c 0.11268,0.11468 0.21773,0.199621 0.31445,0.263672 0.0377,0.02126 0.0726,0.03981 0.11133,0.06055 0.39286,0.180749 1.41861,0.412583 1.08399,0.251953 -0.48606,-0.233323 -0.99664,-0.407088 -1.50977,-0.576172 z m 2.31641,1.117187 c 0.0525,0.01662 0.25426,0.111555 0.27929,0.117188 0.005,0.0018 0.0204,0.0061 0.0254,0.0078 -0.27728,-0.161507 -0.49531,-0.311237 -0.5664,-0.355468 -0.0595,-0.03703 0.0655,0.06585 0.26172,0.230468 z m -384.97266,1.783204 c -0.003,1.93e-4 -0.007,-1.94e-4 -0.01,0 -0.0606,0.0036 0.12134,0.01418 0.18164,0.02148 -0.0575,-0.0063 -0.11442,-0.01525 -0.17188,-0.02148 z m -26.29101,-2.679688 c -0.0151,0.30761 -6e-5,0.649008 0.0312,1.007813 0.16207,0.002 0.32424,0.0054 0.48632,0.0078 -0.0654,-0.456324 -0.22029,-0.813787 -0.51757,-1.015625 z m -0.27149,-0.130859 c -0.11993,-0.03608 -0.2554,-0.05469 -0.4082,-0.05469 -0.75167,0 -0.96544,0.468304 -0.91797,1.179688 0.0749,-6e-6 0.14971,-0.0099 0.22461,-0.0098 0.35007,6.69e-4 0.70063,0.01411 1.05078,0.01758 0.0656,-0.409702 0.0931,-0.795365 0.0508,-1.132812 z m -21.0039,2.27539 c -0.0556,0.106175 -0.0988,0.215007 -0.14063,0.324219 1.20608,0.213957 1.30705,0.358426 1.83203,0.611328 0.37947,-0.394615 0.87104,-0.760189 1.47461,-1.074218 -0.52024,-2.1e-5 -1.04048,-9.1e-5 -1.56055,0 -0.58372,9.5e-5 -1.11557,0.05144 -1.60546,0.138671 z M 745.37891,1.1445312 c 0.34123,-0.00124 0.6961,0.012127 1.07226,0.052734 1.13293,0.1223009 2.2634,0.2663552 3.39844,0.3671875 0.79276,0.070426 1.58782,0.1174875 2.38281,0.15625 0.0657,-0.016612 0.12401,-0.022751 0.1875,-0.035156 0.78238,-0.3732331 1.50992,-0.4447044 1.96875,0.1601562 0.1625,0.2142103 0.30804,0.4171152 0.45117,0.6191407 0.15151,0.00161 0.34282,0.00527 0.625,-0.011719 0.1482,-0.00892 0.12815,-0.00439 0.21094,-0.00781 -0.0299,-0.017881 0.0874,-0.062471 0.58984,-0.1640625 1.62371,-0.060575 3.24541,5.73e-4 4.86915,-0.015625 0.097,-3.518e-4 0.19374,0.00442 0.29101,0 0.76323,-0.5578265 1.84384,-0.9277757 3.23438,-0.9570312 0.40079,-0.00843 0.82624,0.013061 1.27734,0.064453 1.07353,0.1223009 2.14549,0.2588214 3.2207,0.3652343 0.10789,0.010678 0.20418,0.014941 0.3086,0.023438 0.47927,-0.08281 0.88298,-0.2304688 1.45117,-0.2304688 h 3.7168 c 2.13793,0 3.64587,0.6361523 4.52539,1.5332031 2.44742,0.089645 4.05749,0.9914385 4.73046,2.1835938 1.17422,0.1372794 2.3434,0.4142401 3.48438,0.640625 4.60293,0.9132826 5.61869,4.2577281 3.8457,6.1171871 -0.0213,0.566119 -0.0256,1.110884 -0.18359,1.835938 0.006,0.0942 0.004,0.206948 0.0117,0.271484 0.0376,0.314953 0.1466,0.64233 0.0664,0.949219 -0.73918,2.829099 -1.24531,3.784857 -3.08984,5.109375 -0.0635,0.787531 -1.1421,2.653843 -1.35156,2.761719 -0.55398,0.285308 -1.1447,0.483453 -1.74414,0.660156 -0.0375,0.272375 -0.0828,0.526334 -0.14649,0.712891 -0.37436,1.095787 -1.57515,1.56748 -2.29297,2.363281 -1.45715,1.750083 -3.65044,2.283378 -5.60156,3.220703 -1.70813,0.643452 -3.74061,1.513399 -5.63476,1.480469 -2.08722,-0.03629 -1.21558,-0.693592 -2.08399,0.166015 -1.63006,0.253933 -1.89269,0.325545 -3.54687,0.458985 -0.31489,0.02544 -0.6378,-0.02835 -0.94727,0.03516 -1.17988,0.242132 -2.32277,0.636814 -3.48242,0.962891 1.51841,-0.03478 2.95832,0.563576 4.43164,0.86914 0.0921,-0.318993 3.01345,-0.144645 3.29102,-0.134765 1.90798,-0.05559 3.79118,0.323549 5.65625,0.724609 0.36663,-1.604398 2.15661,-3.044922 5.375,-3.044922 h 10.07226 5.2832 0.39844 c 0.85463,0 1.60428,0.103975 2.25781,0.283203 V 1.1445312 Z M 765.625,33.863281 c -10e-4,0.0039 -0.0232,0.0038 -0.0234,0.0078 -0.002,0.0363 0.0694,0.02661 0.10352,0.03906 0.11798,0.02076 0.47186,0.07909 0.35351,0.06055 -0.14603,-0.02288 -0.28839,-0.07731 -0.43359,-0.107422 z M 784.92969,23.59375 c 0.0212,-0.154332 0.042,-0.31082 0.0566,-0.474609 -0.0691,0.133992 -0.1353,0.269679 -0.20313,0.404297 0.0178,-0.0068 0.0225,-0.01069 0.041,-0.01758 0.012,-0.0044 -0.0398,0.08398 -0.0723,0.144532 0.06,-0.01714 0.11799,-0.03903 0.17774,-0.05664 z m -0.17774,0.05664 c -0.0125,0.0036 -0.0246,0.0082 -0.0371,0.01172 -0.0414,0.08437 -0.088,0.166393 -0.12695,0.251953 -0.0462,0.101768 0.0832,-0.112794 0.16406,-0.263671 z m -0.0371,0.01172 c 0.0227,-0.04623 0.0452,-0.09267 0.0684,-0.138671 -0.30228,0.11503 -0.49908,0.212011 -0.63672,0.294921 0.18973,-0.05153 0.37955,-0.102551 0.56836,-0.15625 z m 0.27149,-0.542968 c 0.0467,-0.09053 0.0911,-0.18238 0.13672,-0.273438 -0.10737,-2.693059 -0.009,-1.155191 -0.13672,0.273438 z m 3.03906,-2.947266 c 0.0459,-0.570128 -0.43651,-0.579536 -2.18164,1.072266 -0.33708,0.319045 0.87075,-0.319124 1.30664,-0.478516 0.32157,-0.210129 0.61227,-0.405086 0.875,-0.59375 z m 3.01172,-6.330078 c -0.008,-0.114547 -0.0273,-0.203235 -0.0859,-0.150391 -0.21057,0.189327 -0.20832,0.527712 -0.3125,0.791016 -0.38019,0.354804 -1.53906,1.398631 -1.14062,1.064453 0.50352,-0.422303 1.30337,-0.691126 1.45703,-1.330078 0.0314,-0.130596 0.0547,-0.249595 0.082,-0.375 z M 754.83984,2.4648438 c -0.43628,-0.00463 -0.32045,0.060804 0.17383,0.6210937 h 0.0215 c 0.0359,0 0.10942,-0.035827 0.10742,0 -1.6e-4,0.00347 1.5e-4,0.0063 0,0.00977 0.052,0.0018 0.0789,0.010555 0.12695,0.013672 -0.13659,-0.2110421 -0.26939,-0.4182823 -0.42969,-0.6445312 z m 0.30274,0.6308593 c -0.0345,-0.00119 -0.0858,-9.817e-4 -0.1211,-0.00195 0.046,0.052179 0.0643,0.07302 0.11719,0.1347656 10e-4,-0.044373 0.002,-0.085675 0.004,-0.1328125 z m -2.72266,-1.4101562 c -0.0288,0.01373 -0.057,0.026479 -0.0859,0.041016 0.054,0.00258 0.10808,0.00531 0.16211,0.00781 1.66924,0.07723 0.97424,-0.2539632 -0.0762,-0.048828 z m -0.0859,0.041016 c -0.0339,-0.00162 -0.0677,-0.00421 -0.10156,-0.00586 -0.64233,0.1624482 -1.36685,0.5378232 -1.76367,1.3222657 0.58209,-0.5007851 1.23562,-0.9999567 1.86523,-1.3164063 z m -1.86523,1.3164063 c -0.0175,0.015066 -0.0295,0.027909 -0.0469,0.042969 h 0.0293 c 0.007,-0.013475 0.0109,-0.02973 0.0176,-0.042969 z M 755.4043,3.3125 c -0.0393,0.030036 -0.077,0.06491 -0.10938,0.1035156 0.11882,0.1431104 0.25113,0.3101479 0.39649,0.5 0.0196,-0.086743 -0.0308,-0.08001 -0.0195,-0.1484375 C 755.58498,3.6178703 755.50335,3.4704988 755.4043,3.3125 Z m 29.26367,9.482422 c 0.14437,0.115991 0.27678,0.236299 0.39648,0.363281 -0.007,-0.09618 -0.0155,-0.190025 -0.0312,-0.285156 -0.12101,-0.02972 -0.24379,-0.04936 -0.36523,-0.07813 z m 1.23242,1.998047 c 0.003,0.01819 0.007,0.03647 0.01,0.05469 0.0194,0.0057 0.073,0.01788 0.0918,0.02344 -0.04,-0.01588 -0.0597,-0.0595 -0.10156,-0.07813 z M 13.464844,16.1875 c -0.0049,0.07176 -0.01844,0.142993 -0.02149,0.214844 0.01951,-0.05663 0.05155,-0.110071 0.07422,-0.166016 -0.01753,-0.01638 -0.03557,-0.03234 -0.05273,-0.04883 z m 771.552736,1.183594 c -0.0226,0.02318 -0.0429,0.04749 -0.0664,0.07031 0.12317,0.0039 0.2459,0.04701 0.36914,0.04102 0.10745,-0.0052 -0.25406,-0.08233 -0.30273,-0.111328 z m -7.39063,1.539062 c 0.31806,0.279394 0.61919,0.574079 0.90625,0.875 0.006,-0.01348 0.01,-0.02754 0.0156,-0.04102 0.0959,-0.22366 0.39966,-0.541781 0.62109,-0.833985 -0.27013,3e-6 -0.5404,4.6e-5 -0.81054,0 -0.24416,-4.7e-5 -0.48829,-9.9e-5 -0.73243,0 z m 1.43946,1.050782 c 0.0482,-0.07538 -0.12478,0.08559 -0.21875,0.15625 0.019,0.02066 0.0341,0.04185 0.0527,0.0625 0.0613,-0.0705 0.11664,-0.141622 0.16602,-0.21875 z m -24.28907,2.554687 c 10e-4,0.0056 0.0195,0.01731 0.0488,0.03125 0.0528,0.0012 0.10546,0.0052 0.15821,0.0078 -0.0503,-0.01104 -0.10005,-0.02431 -0.1504,-0.03516 -0.0412,-0.0089 -0.0577,-0.0095 -0.0566,-0.0039 z m 0.20704,0.03906 c 0.19745,0.04336 0.39298,0.09463 0.58984,0.140624 -0.10371,-0.05707 -0.23168,-0.114843 -0.30664,-0.123046 -0.0942,-0.0103 -0.18873,-0.01292 -0.2832,-0.01758 z m 0.58984,0.140624 c 0.12347,0.06794 0.21021,0.135775 0.12109,0.125 -0.21853,-0.02642 -0.71625,-0.200725 -0.86914,-0.273437 -0.4633,-0.01055 -0.93066,0.02539 -1.39453,0.02539 h -6.24023 c -0.0268,0.03838 -0.046,0.06493 -0.084,0.11914 0.0148,0.528188 0.0139,0.749359 0.0469,1.601563 -0.33422,0.497356 -0.63215,1.024584 -0.94727,1.537109 0.0433,0.01633 0.0877,0.03017 0.13086,0.04687 0.0538,0.02086 -0.0643,-0.01071 -0.15234,-0.01172 -0.0375,0.06066 -0.0791,0.117572 -0.11719,0.177735 0.002,4.8e-4 -7.8e-4,0.0036 0.002,0.0039 0.9837,0.174248 2.05153,-0.127491 3.04492,-0.0059 1.08394,0.01368 2.16971,0.06623 3.25196,-0.0332 0.15592,-0.0056 2.2782,-0.103046 2.47265,-0.0332 1.27062,0.455955 2.34447,1.438852 3.66211,1.732422 1.87177,0.41703 -0.62697,-1.009601 -1.81445,-1.304687 -0.0588,0.0086 -0.11686,0.01916 -0.17578,0.02734 -0.12387,-0.01544 -0.46024,0.04441 -0.37305,-0.04492 0.0735,-0.07531 0.29094,-0.04651 0.54883,0.01758 2.64001,-0.386651 5.16798,-1.190893 7.79297,-1.707032 0.59475,-0.116941 1.21338,-0.05842 1.81445,-0.136718 0.49337,-0.06427 0.98357,-0.148917 1.47461,-0.228516 -1.29791,-0.233515 -2.59811,-0.170092 -3.93164,-0.347656 -2.29859,-0.306063 0.36595,-0.257706 -2.875,-0.472656 -0.71149,-0.04719 -1.42564,-0.01046 -2.13867,-0.01563 -1.08399,-0.264533 -2.16355,-0.544988 -3.25,-0.798829 z m -9.50586,3.347657 c -0.0538,-0.01714 -0.005,-0.145091 0.0469,-0.177735 0.0137,-0.0087 0.0456,-2.84e-4 0.0703,0 0.007,-0.01169 0.0143,-0.02345 0.0215,-0.03516 -0.56847,-0.214178 -1.1488,-0.39818 -1.72265,-0.597656 -0.0463,-0.0036 -0.12043,-0.0243 -0.17969,-0.03516 0.0771,0.05708 0.15427,0.113126 0.23047,0.171875 0.0192,0.0054 0.0401,0.0067 0.0586,0.01367 0.29172,0.109958 1.00727,0.730497 0.74219,0.566407 -0.27952,-0.173029 -0.53863,-0.377965 -0.80078,-0.580078 -0.45399,-0.128754 -1.10214,0.136463 -1.37696,-0.240235 -0.23405,-0.320838 0.63939,-0.0245 1.14649,0.06836 -0.20464,-0.151547 -0.41812,-0.288399 -0.64258,-0.404297 0.0502,0.07932 0.0416,0.105966 -0.10742,0.0059 -0.55193,-0.119537 -1.3741,0.131777 -1.65625,-0.357422 -0.27025,-0.468569 1.10627,0.04624 1.60156,0.263672 0.0565,0.02481 0.10749,0.05969 0.16211,0.08789 -0.19595,-0.309733 -1.56765,-1.66913 -1.63477,-1.734375 -1.75453,-2.224343 -2.58194,6.215789 -1.77148,6.017578 1.09451,-0.267677 2.20216,-0.503398 3.26172,-0.886719 0.57324,-0.207386 1.1896,-0.42928 1.60547,-0.875 0.3613,-0.387227 0.66141,-0.822785 0.94531,-1.271484 z m 1.03906,-3.351563 c -0.001,-0.0393 -0.003,-0.07741 -0.004,-0.11914 h -0.0625 c -0.0118,0.06552 -0.0162,0.169749 -0.0332,0.208984 -0.1015,0.233301 -2.10172,3.054146 0.0996,-0.08984 z m 33.70117,0.578125 c -0.7038,0.147517 1.29051,0.63722 1.93555,0.955078 0.23867,-0.07838 0.48188,-0.146162 0.72461,-0.214843 -0.27993,-0.114786 -0.83733,-0.325188 -2.66016,-0.740235 z m -28.44921,8.449219 c -0.65436,-0.237119 0.73201,0.629861 1.46093,1.273438 h 0.19727 c -0.53317,-0.465374 -1.00111,-1.035316 -1.6582,-1.273438 z m -432.38086,1.710938 c -0.46237,0.265092 -0.74912,0.558218 -0.89063,0.871093 0.44897,-0.325786 0.97809,-0.619678 1.58203,-0.871093 -0.23046,8e-6 -0.46094,-7e-6 -0.6914,0 z M 17.244141,34.337891 c 0.330537,0.306962 0.633189,0.587249 0.986328,0.916015 0.007,-0.01182 0.01233,-0.02337 0.01953,-0.03516 -0.275687,-0.299775 -0.546026,-0.605446 -0.851562,-0.867188 -0.05431,-0.0057 -0.105561,-0.01 -0.154297,-0.01367 z m 0.449218,0.05078 c 0.328716,0.08875 0.657047,0.178819 0.986329,0.265625 0.02347,-0.02635 0.06938,-0.04423 0.09375,-0.07031 -0.1226,-0.02544 -0.232042,-0.04958 -0.38086,-0.07813 -0.2688,-0.05156 -0.493839,-0.08797 -0.699219,-0.117187 z" />
  <rect
     style="fill:#ffffff;fill-opacity:0;fill-rule:evenodd"
     id="rect3185"
     width="796.5224"
     height="0"
     x="1.4365953"
     y="36.820999"
     clip-path="none" />
</svg>
