<svg width="72" height="72" viewBox="0 0 72 72" fill="none" xmlns="http://www.w3.org/2000/svg">
<path fill-rule="evenodd" clip-rule="evenodd" d="M69.3004 21.5998C68.8041 21.5998 68.4004 21.1961 68.4004 20.6998C68.4004 20.2035 68.8041 19.7998 69.3004 19.7998C69.7966 19.7998 70.2004 20.2035 70.2004 20.6998C70.2004 21.1961 69.7966 21.5998 69.3004 21.5998Z" fill="#CACAFB"/>
<path fill-rule="evenodd" clip-rule="evenodd" d="M26.0992 71.9997C25.603 71.9997 25.1992 71.596 25.1992 71.0997C25.1992 70.6034 25.603 70.1997 26.0992 70.1997C26.5955 70.1997 26.9992 70.6034 26.9992 71.0997C26.9992 71.596 26.5955 71.9997 26.0992 71.9997Z" fill="#CACAFB"/>
<path fill-rule="evenodd" clip-rule="evenodd" d="M13.4996 8.99971C13.0033 8.99971 12.5996 8.59597 12.5996 8.09971C12.5996 7.6034 13.0033 7.19971 13.4996 7.19971C13.9959 7.19971 14.3996 7.6034 14.3996 8.09971C14.3996 8.59597 13.9959 8.99971 13.4996 8.99971Z" fill="#CACAFB"/>
<path d="M62.597 62.3928C57.9616 66.1464 51.1609 65.4317 47.4072 60.7962C43.6535 56.1608 44.3683 49.3601 49.0037 45.6064C53.6391 41.8527 60.4398 42.5675 64.1935 47.2029C64.5063 47.5892 64.4468 48.1559 64.0605 48.4687C63.6742 48.7815 63.1075 48.722 62.7947 48.3357C59.6666 44.4728 53.9993 43.8772 50.1365 47.0053C46.2736 50.1333 45.678 55.8006 48.806 59.6635C51.9341 63.5263 57.6014 64.122 61.4642 60.9939C63.919 59.0061 65.1217 55.9226 64.7275 52.8462C64.6644 52.3532 65.0128 51.9023 65.5059 51.8391C65.9989 51.776 66.4498 52.1244 66.5129 52.6175C66.9856 56.3065 65.5418 60.0081 62.597 62.3928Z" fill="#E1000F"/>
<path d="M52.2374 53.8703L54.3343 56.3495L59.7953 49.9574C60.1581 49.5328 60.7908 49.4968 61.1969 49.8797C61.5633 50.2252 61.6188 50.7958 61.3193 51.2261L61.2709 51.288L55.3594 58.2084C54.8752 58.7753 54.023 58.8423 53.4561 58.3581C53.4008 58.3108 53.3494 58.2591 53.3023 58.2035L50.7558 55.1936C50.4061 54.7803 50.4411 54.1547 50.8363 53.7857C51.2161 53.431 51.7966 53.4377 52.1842 53.8126L52.2374 53.8703Z" fill="#E1000F"/>
<path d="M20.7 8.99951C21.1616 8.99951 21.542 9.34695 21.5939 9.79455L21.6 9.89951V12.5995H50.4V9.89951C50.4 9.40246 50.8029 8.99951 51.3 8.99951C51.7616 8.99951 52.142 9.34695 52.1939 9.79455L52.2 9.89951V12.5995H58.5C60.9199 12.5995 62.8936 14.5096 62.9958 16.9043L63 17.0995V40.4995C63 40.9966 62.5971 41.3995 62.1 41.3995C61.6384 41.3995 61.258 41.0521 61.2061 40.6045L61.2 40.4995V25.1995H56.7C56.2029 25.1995 55.8 24.7966 55.8 24.2995C55.8 23.838 56.1474 23.4576 56.595 23.4056L56.7 23.3995H61.2V17.0995C61.2 15.6616 60.076 14.4862 58.6586 14.4041L58.5 14.3995H52.2V17.0995C52.2 17.5966 51.7971 17.9995 51.3 17.9995C50.8384 17.9995 50.458 17.6521 50.4061 17.2045L50.4 17.0995V14.3995H21.6V17.0995C21.6 17.5966 21.1971 17.9995 20.7 17.9995C20.2384 17.9995 19.858 17.6521 19.8061 17.2045L19.8 17.0995V14.3995H13.5C12.0621 14.3995 10.8867 15.5235 10.8046 16.9409L10.8 17.0995V23.3995H19.8V22.4995C19.8 22.0025 20.2029 21.5995 20.7 21.5995C21.1616 21.5995 21.542 21.9469 21.5939 22.3946L21.6 22.4995V23.3995H51.3C51.7971 23.3995 52.2 23.8025 52.2 24.2995C52.2 24.7611 51.8526 25.1415 51.405 25.1935L51.3 25.1995H21.6V26.0995C21.6 26.5966 21.1971 26.9995 20.7 26.9995C20.2384 26.9995 19.858 26.6521 19.8061 26.2045L19.8 26.0995V25.1995H10.8V54.8995C10.8 56.3374 11.924 57.5128 13.3414 57.5949L13.5 57.5995H38.7C39.1971 57.5995 39.6 58.0025 39.6 58.4995C39.6 58.9611 39.2526 59.3415 38.805 59.3935L38.7 59.3995H13.5C11.0801 59.3995 9.10636 57.4894 9.00416 55.0947L9 54.8995V17.0995C9 14.6796 10.9101 12.7059 13.3048 12.6037L13.5 12.5995H19.8V9.89951C19.8 9.40246 20.2029 8.99951 20.7 8.99951Z" fill="#000091"/>
<path d="M42.3 57.5995C41.8029 57.5995 41.4 58.0025 41.4 58.4995C41.4 58.9966 41.8029 59.3995 42.3 59.3995C42.7971 59.3995 43.2 58.9966 43.2 58.4995C43.2 58.0025 42.7971 57.5995 42.3 57.5995Z" fill="#000091"/>
<path fill-rule="evenodd" clip-rule="evenodd" d="M27 33.2995C27 31.8083 25.7912 30.5995 24.3 30.5995H18.9C17.4088 30.5995 16.2 31.8083 16.2 33.2995V36.8995C16.2 38.3907 17.4088 39.5995 18.9 39.5995H24.3C25.7912 39.5995 27 38.3907 27 36.8995V33.2995ZM18 33.2995C18 32.8025 18.4029 32.3995 18.9 32.3995H24.3C24.7971 32.3995 25.2 32.8025 25.2 33.2995V36.8995C25.2 37.3966 24.7971 37.7995 24.3 37.7995H18.9C18.4029 37.7995 18 37.3966 18 36.8995V33.2995Z" fill="#000091"/>
<path fill-rule="evenodd" clip-rule="evenodd" d="M53.1 30.5995C54.5912 30.5995 55.8 31.8083 55.8 33.2995V36.8995C55.8 38.3907 54.5912 39.5995 53.1 39.5995H47.7C46.2088 39.5995 45 38.3907 45 36.8995V33.2995C45 31.8083 46.2088 30.5995 47.7 30.5995H53.1ZM47.7 32.3995C47.2029 32.3995 46.8 32.8025 46.8 33.2995V36.8995C46.8 37.3966 47.2029 37.7995 47.7 37.7995H53.1C53.5971 37.7995 54 37.3966 54 36.8995V33.2995C54 32.8025 53.5971 32.3995 53.1 32.3995H47.7Z" fill="#000091"/>
<path fill-rule="evenodd" clip-rule="evenodd" d="M38.7 30.5995H33.3C31.8088 30.5995 30.6 31.8083 30.6 33.2995V36.8995C30.6 38.3907 31.8088 39.5995 33.3 39.5995H38.7C40.1912 39.5995 41.4 38.3907 41.4 36.8995V33.2995C41.4 31.8083 40.1912 30.5995 38.7 30.5995ZM33.3 32.3995H38.7C39.1971 32.3995 39.6 32.8025 39.6 33.2995V36.8995C39.6 37.3966 39.1971 37.7995 38.7 37.7995H33.3C32.8029 37.7995 32.4 37.3966 32.4 36.8995V33.2995C32.4 32.8025 32.8029 32.3995 33.3 32.3995Z" fill="#000091"/>
<path fill-rule="evenodd" clip-rule="evenodd" d="M24.3 43.1995C25.7912 43.1995 27 44.4083 27 45.8995V49.4995C27 50.9907 25.7912 52.1995 24.3 52.1995H18.9C17.4088 52.1995 16.2 50.9907 16.2 49.4995V45.8995C16.2 44.4083 17.4088 43.1995 18.9 43.1995H24.3ZM18.9 44.9995C18.4029 44.9995 18 45.4025 18 45.8995V49.4995C18 49.9966 18.4029 50.3995 18.9 50.3995H24.3C24.7971 50.3995 25.2 49.9966 25.2 49.4995V45.8995C25.2 45.4025 24.7971 44.9995 24.3 44.9995H18.9Z" fill="#000091"/>
<path fill-rule="evenodd" clip-rule="evenodd" d="M38.7 43.1995H33.3C31.8088 43.1995 30.6 44.4083 30.6 45.8995V49.4995C30.6 50.9907 31.8088 52.1995 33.3 52.1995H38.7C40.1912 52.1995 41.4 50.9907 41.4 49.4995V45.8995C41.4 44.4083 40.1912 43.1995 38.7 43.1995ZM33.3 44.9995H38.7C39.1971 44.9995 39.6 45.4025 39.6 45.8995V49.4995C39.6 49.9966 39.1971 50.3995 38.7 50.3995H33.3C32.8029 50.3995 32.4 49.9966 32.4 49.4995V45.8995C32.4 45.4025 32.8029 44.9995 33.3 44.9995Z" fill="#000091"/>
</svg>
