<svg width="73" height="72" viewBox="0 0 73 72" fill="none" xmlns="http://www.w3.org/2000/svg">
<path fill-rule="evenodd" clip-rule="evenodd" d="M15.6344 7.19941C15.1381 7.19941 14.7344 6.79567 14.7344 6.29941C14.7344 5.80311 15.1381 5.39941 15.6344 5.39941C16.1306 5.39941 16.5344 5.80311 16.5344 6.29941C16.5344 6.79567 16.1306 7.19941 15.6344 7.19941Z" fill="#CACAFB"/>
<path fill-rule="evenodd" clip-rule="evenodd" d="M19.234 68.3996C18.7377 68.3996 18.334 67.9959 18.334 67.4996C18.334 67.0033 18.7377 66.5996 19.234 66.5996C19.7302 66.5996 20.134 67.0033 20.134 67.4996C20.134 67.9959 19.7302 68.3996 19.234 68.3996Z" fill="#CACAFB"/>
<path fill-rule="evenodd" clip-rule="evenodd" d="M57.0348 66.5993C56.5385 66.5993 56.1348 66.1956 56.1348 65.6993C56.1348 65.203 56.5385 64.7993 57.0348 64.7993C57.531 64.7993 57.9348 65.203 57.9348 65.6993C57.9348 66.1956 57.531 66.5993 57.0348 66.5993Z" fill="#CACAFB"/>
<path fill-rule="evenodd" clip-rule="evenodd" d="M58.8336 8.99922C58.3373 8.99922 57.9336 8.59548 57.9336 8.09922C57.9336 7.60292 58.3373 7.19922 58.8336 7.19922C59.3299 7.19922 59.7336 7.60292 59.7336 8.09922C59.7336 8.59548 59.3299 8.99922 58.8336 8.99922Z" fill="#CACAFB"/>
<path fill-rule="evenodd" clip-rule="evenodd" d="M37.234 71.9992C36.7377 71.9992 36.334 71.5955 36.334 71.0992C36.334 70.6029 36.7377 70.1992 37.234 70.1992C37.7302 70.1992 38.134 70.6029 38.134 71.0992C38.134 71.5955 37.7302 71.9992 37.234 71.9992Z" fill="#CACAFB"/>
<path fill-rule="evenodd" clip-rule="evenodd" d="M27.3332 17.9993C27.3332 16.5081 28.542 15.2993 30.0332 15.2993C31.5244 15.2993 32.7332 16.5081 32.7332 17.9993C32.7332 19.4905 31.5244 20.6993 30.0332 20.6993C28.542 20.6993 27.3332 19.4905 27.3332 17.9993ZM30.9332 17.9993C30.9332 17.5023 30.5303 17.0993 30.0332 17.0993C29.5361 17.0993 29.1332 17.5023 29.1332 17.9993C29.1332 18.4964 29.5361 18.8993 30.0332 18.8993C30.5303 18.8993 30.9332 18.4964 30.9332 17.9993Z" fill="#E1000F"/>
<path d="M30.0332 18.8993C30.4948 18.8993 30.8752 19.2468 30.9271 19.6944L30.9332 19.7993V23.3993C30.9332 23.8964 30.5303 24.2993 30.0332 24.2993C29.5717 24.2993 29.1912 23.9519 29.1393 23.5043L29.1332 23.3993V19.7993C29.1332 19.3023 29.5361 18.8993 30.0332 18.8993Z" fill="#E1000F"/>
<path fill-rule="evenodd" clip-rule="evenodd" d="M47.1332 39.5993C47.1332 38.1081 48.342 36.8993 49.8332 36.8993C51.3244 36.8993 52.5332 38.1081 52.5332 39.5993C52.5332 41.0905 51.3244 42.2993 49.8332 42.2993C48.342 42.2993 47.1332 41.0905 47.1332 39.5993ZM50.7332 39.5993C50.7332 39.1023 50.3303 38.6993 49.8332 38.6993C49.3361 38.6993 48.9332 39.1023 48.9332 39.5993C48.9332 40.0964 49.3361 40.4993 49.8332 40.4993C50.3303 40.4993 50.7332 40.0964 50.7332 39.5993Z" fill="#E1000F"/>
<path d="M49.8332 40.4993C50.2948 40.4993 50.6752 40.8468 50.7271 41.2944L50.7332 41.3993V44.9993C50.7332 45.4964 50.3303 45.8993 49.8332 45.8993C49.3717 45.8993 48.9912 45.5519 48.9393 45.1043L48.9332 44.9993V41.3993C48.9332 40.9023 49.3361 40.4993 49.8332 40.4993Z" fill="#E1000F"/>
<path fill-rule="evenodd" clip-rule="evenodd" d="M21.0332 44.9993C21.0332 43.5081 22.242 42.2993 23.7332 42.2993C25.2244 42.2993 26.4332 43.5081 26.4332 44.9993C26.4332 46.4905 25.2244 47.6993 23.7332 47.6993C22.242 47.6993 21.0332 46.4905 21.0332 44.9993ZM24.6332 44.9993C24.6332 44.5023 24.2303 44.0993 23.7332 44.0993C23.2361 44.0993 22.8332 44.5023 22.8332 44.9993C22.8332 45.4964 23.2361 45.8993 23.7332 45.8993C24.2303 45.8993 24.6332 45.4964 24.6332 44.9993Z" fill="#E1000F"/>
<path d="M23.7332 45.8993C24.1948 45.8993 24.5752 46.2467 24.6271 46.6944L24.6332 46.7993V50.3993C24.6332 50.8964 24.2303 51.2993 23.7332 51.2993C23.2717 51.2993 22.8912 50.9519 22.8393 50.5043L22.8332 50.3993V46.7993C22.8332 46.3023 23.2361 45.8993 23.7332 45.8993Z" fill="#E1000F"/>
<path d="M22.8332 17.0994C23.3303 17.0994 23.7332 17.5023 23.7332 17.9994C23.7332 18.4609 23.3858 18.8413 22.9382 18.8933L22.8332 18.8994H17.4332C16.9361 18.8994 16.5332 18.4964 16.5332 17.9994C16.5332 17.5378 16.8806 17.1574 17.3282 17.1054L17.4332 17.0994H22.8332Z" fill="#000091"/>
<path d="M64.2332 17.0994C64.6948 17.0994 65.0752 17.4468 65.1271 17.8944L65.1332 17.9994V55.7994C65.1332 56.2609 64.7858 56.6413 64.3382 56.6933L64.2332 56.6994H28.2332C27.7361 56.6994 27.3332 56.2964 27.3332 55.7994C27.3332 55.3378 27.6806 54.9574 28.1282 54.9054L28.2332 54.8994H63.3332V18.8994H37.2332C36.7717 18.8994 36.3912 18.552 36.3393 18.1043L36.3332 17.9994C36.3332 17.5378 36.6806 17.1574 37.1282 17.1054L37.2332 17.0994H64.2332Z" fill="#000091"/>
<path fill-rule="evenodd" clip-rule="evenodd" d="M15.6782 15.42L12.9482 15.3745L12.7485 15.3749C9.89805 15.4324 7.58185 17.7369 7.53394 20.6113L7.5332 50.3994L7.53926 50.5043C7.54326 50.5388 7.5492 50.5726 7.55697 50.6057L7.5611 50.6217L7.54593 50.8465C7.53745 50.9944 7.5332 51.1453 7.5332 51.2994C7.5332 54.5194 9.29284 56.4047 12.5532 56.6958L21.0332 56.6994L21.1382 56.6933C21.5858 56.6413 21.9332 56.2609 21.9332 55.7994C21.9332 55.3023 21.5303 54.8994 21.0332 54.8994H12.6332L12.4183 54.8767C10.3075 54.6209 9.3332 53.5058 9.3332 51.2994C9.3332 49.0345 10.459 47.9087 13.0079 47.6963L15.6332 47.6994L15.7918 47.6948C17.2092 47.6127 18.3332 46.4373 18.3332 44.9994V18.1196L18.3287 17.9628C18.2484 16.5617 17.099 15.4437 15.6782 15.42ZM9.3413 20.4599C9.46678 18.5986 11.0318 17.1428 12.9182 17.1743L15.6482 17.2198L15.7518 17.2274C16.1936 17.2856 16.5332 17.6635 16.5332 18.1196V44.9994L16.5271 45.1043C16.4752 45.552 16.0948 45.8994 15.6332 45.8994H12.9332L12.6842 45.9228C11.371 46.0623 10.2983 46.4307 9.47838 47.0159L9.3332 47.1234L9.33369 20.6412L9.3413 20.4599Z" fill="#000091"/>
<path fill-rule="evenodd" clip-rule="evenodd" d="M17.4332 36.8994H17.805C18.3021 36.8994 18.705 37.3023 18.705 37.7994C18.705 38.2964 18.3021 38.6994 17.805 38.6994H17.4332C16.9361 38.6994 16.5332 38.2964 16.5332 37.7994C16.5332 37.3023 16.9361 36.8994 17.4332 36.8994ZM23.205 36.8994H20.505C20.0079 36.8994 19.605 37.3023 19.605 37.7994C19.605 38.2964 20.0079 38.6994 20.505 38.6994H23.205C23.7021 38.6994 24.105 38.2964 24.105 37.7994C24.105 37.3023 23.7021 36.8994 23.205 36.8994ZM28.9705 37.2833L29.1837 37.5879C29.4688 37.9951 29.3697 38.5562 28.9625 38.8413C28.5553 39.1263 27.9942 39.0273 27.7091 38.6201L25.905 38.6994C25.4079 38.6994 25.005 38.2964 25.005 37.7994C25.005 37.3023 25.4079 36.8994 25.905 36.8994H28.2332C28.5269 36.8994 28.8021 37.0427 28.9705 37.2833ZM32.2804 42.0117L30.7321 39.7998C30.447 39.3926 29.8859 39.2936 29.4786 39.5786C29.0714 39.8636 28.9724 40.4248 29.2575 40.832L30.8058 43.0439C31.0908 43.4512 31.652 43.5502 32.0592 43.2651C32.4664 42.9801 32.5655 42.4189 32.2804 42.0117ZM33.8288 44.2236L35.3771 46.4356C35.6622 46.8428 35.5631 47.4039 35.1559 47.689C34.7487 47.974 34.1875 47.875 33.9025 47.4678L32.3542 45.2559C32.0691 44.8487 32.1681 44.2875 32.5753 44.0024C32.9826 43.7174 33.5437 43.8164 33.8288 44.2236ZM38.4738 50.8594L36.9255 48.6475C36.6404 48.2403 36.0792 48.1413 35.672 48.4263C35.2648 48.7113 35.1658 49.2725 35.4509 49.6797L36.9992 51.8917C37.2842 52.2989 37.8454 52.3979 38.2526 52.1128C38.6598 51.8278 38.7589 51.2666 38.4738 50.8594ZM41.5705 55.2833L40.0222 53.0713C39.7371 52.6641 39.1759 52.5651 38.7687 52.8502C38.3615 53.1352 38.2625 53.6964 38.5475 54.1036L40.0959 56.3155C40.3809 56.7227 40.9421 56.8217 41.3493 56.5367C41.7565 56.2517 41.8556 55.6905 41.5705 55.2833Z" fill="#000091"/>
<path fill-rule="evenodd" clip-rule="evenodd" d="M37.7614 38.6994C38.2585 38.6994 38.6614 38.2964 38.6614 37.7994C38.6614 37.3023 38.2585 36.8994 37.7614 36.8994H35.4332C34.7051 36.8994 34.2783 37.719 34.6959 38.3155L34.9091 38.6201C35.1942 39.0273 35.7553 39.1263 36.1625 38.8413C36.5697 38.5562 37.7614 38.6994 37.7614 38.6994ZM37.9321 39.7998L39.4804 42.0117C39.7655 42.4189 39.6664 42.9801 39.2592 43.2651C38.852 43.5502 38.2908 43.4512 38.0058 43.0439L36.4575 40.832C36.1724 40.4248 36.2714 39.8636 36.6786 39.5786C37.0859 39.2936 37.647 39.3926 37.9321 39.7998ZM42.5771 46.4356L41.0288 44.2236C40.7437 43.8164 40.1826 43.7174 39.7753 44.0024C39.3681 44.2875 39.2691 44.8487 39.5542 45.2559L41.1025 47.4678C41.3875 47.875 41.9487 47.974 42.3559 47.689C42.7631 47.4039 42.8622 46.8428 42.5771 46.4356ZM44.1255 48.6475L45.6738 50.8594C45.9589 51.2666 45.8598 51.8278 45.4526 52.1128C45.0454 52.3979 44.4842 52.2989 44.1992 51.8917L42.6509 49.6797C42.3658 49.2725 42.4648 48.7113 42.872 48.4263C43.2792 48.1413 43.8404 48.2403 44.1255 48.6475ZM47.2222 53.0713L48.7705 55.2833C49.0556 55.6905 48.9565 56.2517 48.5493 56.5367C48.1421 56.8217 47.5809 56.7227 47.2959 56.3155L45.7475 54.1036C45.4625 53.6964 45.5615 53.1352 45.9687 52.8502C46.3759 52.5651 46.9371 52.6641 47.2222 53.0713ZM43.1614 38.6994H40.4614C39.9644 38.6994 39.5614 38.2964 39.5614 37.7994C39.5614 37.3023 39.9644 36.8994 40.4614 36.8994H43.1614C43.6585 36.8994 44.0614 37.3023 44.0614 37.7994C44.0614 38.2964 43.6585 38.6994 43.1614 38.6994Z" fill="#000091"/>
<path fill-rule="evenodd" clip-rule="evenodd" d="M59.7332 38.6994H57.0332C56.5361 38.6994 56.1332 38.2964 56.1332 37.7994C56.1332 37.3023 56.5361 36.8994 57.0332 36.8994H59.7332C60.2303 36.8994 60.6332 37.3023 60.6332 37.7994C60.6332 38.2964 60.2303 38.6994 59.7332 38.6994ZM64.2332 38.6994H62.4332C61.9361 38.6994 61.5332 38.2964 61.5332 37.7994C61.5332 37.3023 61.9361 36.8994 62.4332 36.8994H64.2332C64.7303 36.8994 65.1332 37.3023 65.1332 37.7994C65.1332 38.2964 64.7303 38.6994 64.2332 38.6994Z" fill="#000091"/>
<path fill-rule="evenodd" clip-rule="evenodd" d="M45.3332 17.9994V19.7994C45.3332 20.2964 44.9303 20.6994 44.4332 20.6994C43.9361 20.6994 43.5332 20.2964 43.5332 19.7994V17.9994C43.5332 17.5023 43.9361 17.0994 44.4332 17.0994C44.9303 17.0994 45.3332 17.5023 45.3332 17.9994ZM45.3332 25.1994V22.4994C45.3332 22.0023 44.9303 21.5994 44.4332 21.5994C43.9361 21.5994 43.5332 22.0023 43.5332 22.4994V25.1994C43.5332 25.6964 43.9361 26.0994 44.4332 26.0994C44.9303 26.0994 45.3332 25.6964 45.3332 25.1994ZM45.3332 27.8994V30.5994C45.3332 31.0964 44.9303 31.4994 44.4332 31.4994C43.9361 31.4994 43.5332 31.0964 43.5332 30.5994V27.8994C43.5332 27.4023 43.9361 26.9994 44.4332 26.9994C44.9303 26.9994 45.3332 27.4023 45.3332 27.8994ZM20.1332 31.4994H17.4332C16.9361 31.4994 16.5332 31.0964 16.5332 30.5994C16.5332 30.1023 16.9361 29.6994 17.4332 29.6994H20.1332C20.6303 29.6994 21.0332 30.1023 21.0332 30.5994C21.0332 31.0964 20.6303 31.4994 20.1332 31.4994ZM25.5332 31.4994H22.8332C22.3361 31.4994 21.9332 31.0964 21.9332 30.5994C21.9332 30.1023 22.3361 29.6994 22.8332 29.6994H25.5332C26.0303 29.6994 26.4332 30.1023 26.4332 30.5994C26.4332 31.0964 26.0303 31.4994 25.5332 31.4994ZM28.2332 31.4994H30.9332C31.4303 31.4994 31.8332 31.0964 31.8332 30.5994C31.8332 30.1023 31.4303 29.6994 30.9332 29.6994H28.2332C27.7361 29.6994 27.3332 30.1023 27.3332 30.5994C27.3332 31.0964 27.7361 31.4994 28.2332 31.4994ZM36.3332 31.4994H33.6332C33.1361 31.4994 32.7332 31.0964 32.7332 30.5994C32.7332 30.1023 33.1361 29.6994 33.6332 29.6994H36.3332C36.8303 29.6994 37.2332 30.1023 37.2332 30.5994C37.2332 31.0964 36.8303 31.4994 36.3332 31.4994ZM39.0332 31.4994H41.7332C42.2303 31.4994 42.6332 31.0964 42.6332 30.5994C42.6332 30.1023 42.2303 29.6994 41.7332 29.6994H39.0332C38.5361 29.6994 38.1332 30.1023 38.1332 30.5994C38.1332 31.0964 38.5361 31.4994 39.0332 31.4994Z" fill="#000091"/>
<path fill-rule="evenodd" clip-rule="evenodd" d="M41.7332 24.2994H39.0332C38.5361 24.2994 38.1332 23.8964 38.1332 23.3994C38.1332 22.9023 38.5361 22.4994 39.0332 22.4994H41.7332C42.2303 22.4994 42.6332 22.9023 42.6332 23.3994C42.6332 23.8964 42.2303 24.2994 41.7332 24.2994ZM38.1332 24.2994V26.9994C38.1332 27.4964 37.7303 27.8994 37.2332 27.8994C36.7361 27.8994 36.3332 27.4964 36.3332 26.9994V24.2994C36.3332 23.8023 36.7361 23.3994 37.2332 23.3994C37.7303 23.3994 38.1332 23.8023 38.1332 24.2994Z" fill="#000091"/>
<path fill-rule="evenodd" clip-rule="evenodd" d="M65.1332 20.6994C65.1332 21.1964 64.7303 21.5994 64.2332 21.5994C63.7361 21.5994 63.3332 21.1964 63.3332 20.6994V18.8994C63.8303 18.8994 64.2332 18.4964 64.2332 17.9994C64.2332 17.6663 64.0522 17.3754 63.7832 17.2198C63.9156 17.1432 64.0693 17.0994 64.2332 17.0994C64.7303 17.0994 65.1332 17.5023 65.1332 17.9994V20.6994ZM63.7832 17.2198C63.6508 17.1432 63.4971 17.0994 63.3332 17.0994H60.6332C60.1362 17.0994 59.7332 17.5023 59.7332 17.9994C59.7332 18.4964 60.1362 18.8994 60.6332 18.8994H63.3332V17.9994C63.3332 17.6663 63.5142 17.3754 63.7832 17.2198ZM65.1332 26.0994C65.1332 26.5964 64.7303 26.9994 64.2332 26.9994C63.7361 26.9994 63.3332 26.5964 63.3332 26.0994V23.3994C63.3332 22.9023 63.7361 22.4994 64.2332 22.4994C64.7303 22.4994 65.1332 22.9023 65.1332 23.3994V26.0994ZM62.4332 30.5994C62.4332 31.0964 62.8361 31.4994 63.3332 31.4994H64.2332C64.7303 31.4994 65.1332 31.0964 65.1332 30.5994V28.7994C65.1332 28.3023 64.7303 27.8994 64.2332 27.8994C63.7361 27.8994 63.3332 28.3023 63.3332 28.7994V29.6994C62.8361 29.6994 62.4332 30.1023 62.4332 30.5994ZM57.9332 31.4994C57.4361 31.4994 57.0332 31.0964 57.0332 30.5994C57.0332 30.1023 57.4361 29.6994 57.9332 29.6994H60.6332C61.1303 29.6994 61.5332 30.1023 61.5332 30.5994C61.5332 31.0964 61.1303 31.4994 60.6332 31.4994H57.9332ZM53.4332 28.7994C52.9361 28.7994 52.5332 29.2023 52.5332 29.6994V30.5994C52.5332 31.0964 52.9361 31.4994 53.4332 31.4994H55.2332C55.7303 31.4994 56.1332 31.0964 56.1332 30.5994C56.1332 30.1023 55.7303 29.6994 55.2332 29.6994H54.3332C54.3332 29.2023 53.9303 28.7994 53.4332 28.7994ZM52.5332 24.2994C52.5332 23.8023 52.9361 23.3994 53.4332 23.3994C53.9303 23.3994 54.3332 23.8023 54.3332 24.2994V26.9994C54.3332 27.4964 53.9303 27.8994 53.4332 27.8994C52.9361 27.8994 52.5332 27.4964 52.5332 26.9994V24.2994ZM53.4332 17.9994C52.9361 17.9994 52.5332 18.4023 52.5332 18.8994V21.5994C52.5332 22.0964 52.9361 22.4994 53.4332 22.4994C53.9303 22.4994 54.3332 22.0964 54.3332 21.5994V18.8994C54.3332 18.4023 53.9303 17.9994 53.4332 17.9994ZM57.9332 17.0994C58.4303 17.0994 58.8332 17.5023 58.8332 17.9994C58.8332 18.4964 58.4303 18.8994 57.9332 18.8994H55.2332C54.7361 18.8994 54.3332 18.4964 54.3332 17.9994C54.3332 17.5023 54.7361 17.0994 55.2332 17.0994H57.9332Z" fill="#000091"/>
</svg>
