<svg width="73" height="72" viewBox="0 0 73 72" fill="none" xmlns="http://www.w3.org/2000/svg">
<path fill-rule="evenodd" clip-rule="evenodd" d="M61.8668 11.6999C61.3705 11.6999 60.9668 11.2962 60.9668 10.7999C60.9668 10.3036 61.3705 9.8999 61.8668 9.8999C62.3631 9.8999 62.7668 10.3036 62.7668 10.7999C62.7668 11.2962 62.3631 11.6999 61.8668 11.6999Z" fill="#CACAFB"/>
<path fill-rule="evenodd" clip-rule="evenodd" d="M37.568 68.3996C37.0717 68.3996 36.668 67.9959 36.668 67.4996C36.668 67.0033 37.0717 66.5996 37.568 66.5996C38.0642 66.5996 38.468 67.0033 38.468 67.4996C38.468 67.9959 38.0642 68.3996 37.568 68.3996Z" fill="#CACAFB"/>
<path fill-rule="evenodd" clip-rule="evenodd" d="M14.1676 8.99971C13.6713 8.99971 13.2676 8.59597 13.2676 8.09971C13.2676 7.6034 13.6713 7.19971 14.1676 7.19971C14.6638 7.19971 15.0676 7.6034 15.0676 8.09971C15.0676 8.59597 14.6638 8.99971 14.1676 8.99971Z" fill="#CACAFB"/>
<path fill-rule="evenodd" clip-rule="evenodd" d="M34.2731 41.9206L28.5291 35.1307L28.4189 35.0121C27.7325 34.3489 26.6912 34.3368 26.006 34.9767C25.2827 35.6521 25.2182 36.8055 25.8595 37.5635L33.2359 46.282C33.2829 46.3375 33.3344 46.3892 33.3897 46.4365C33.9566 46.9207 34.8087 46.8537 35.293 46.2868L51.0709 27.8159L51.1706 27.6876C51.709 26.913 51.6068 25.8608 50.9362 25.2285C50.2035 24.5377 49.0683 24.6021 48.4124 25.37L34.2731 41.9206Z" fill="#E1000F"/>
<path d="M10.9653 40.5315C8.46226 26.3359 17.941 12.7989 32.1366 10.2958C41.1555 8.70553 50.1951 11.9406 56.1751 18.6529C56.5058 19.024 56.4729 19.5929 56.1018 19.9236C55.7307 20.2542 55.1618 20.2214 54.8311 19.8503C49.262 13.5993 40.8471 10.5877 32.4492 12.0685C19.2325 14.3989 10.4075 27.0023 12.738 40.2189C15.0684 53.4356 27.6718 62.2606 40.8885 59.9301C54.1051 57.5997 62.9301 44.9963 60.5996 31.7796C60.5133 31.2901 60.8402 30.8233 61.3297 30.737C61.8192 30.6507 62.286 30.9776 62.3723 31.4671C64.8754 45.6627 55.3967 59.1997 41.201 61.7028C27.0054 64.2058 13.4684 54.7271 10.9653 40.5315Z" fill="#000091"/>
<path d="M63.8704 42.2312C63.981 41.7466 64.4634 41.4433 64.948 41.5539C65.4326 41.6644 65.7359 42.1469 65.6253 42.6315C64.4148 47.9381 61.7629 52.7845 57.9924 56.6729C57.6463 57.0297 57.0766 57.0385 56.7197 56.6925C56.3629 56.3464 56.3541 55.7767 56.7001 55.4198C60.2428 51.7665 62.7336 47.2144 63.8704 42.2312Z" fill="#000091"/>
<path d="M65.4688 37.7993C64.9718 37.7993 64.5688 38.2022 64.5688 38.6993C64.5688 39.1963 64.9718 39.5993 65.4688 39.5993C65.9659 39.5993 66.3688 39.1963 66.3688 38.6993C66.3688 38.2022 65.9659 37.7993 65.4688 37.7993Z" fill="#000091"/>
</svg>
