<svg width="400" height="310" viewBox="0 0 400 310" fill="none" xmlns="http://www.w3.org/2000/svg">
<g clip-path="url(#clip0_1271_157984)">
<path d="M306.209 282.01C317.972 282.01 327.507 262.553 327.507 238.552C327.507 214.551 317.972 195.094 306.209 195.094C294.446 195.094 284.91 214.551 284.91 238.552C284.91 262.553 294.446 282.01 306.209 282.01Z" fill="#FEE9E7"/>
<path d="M304.242 309.686C312.772 258.505 304.328 207.51 304.242 207.001L302.582 207.282C302.668 207.789 311.064 258.516 302.582 309.41L304.242 309.686Z" fill="#CACACA"/>
<path d="M287.454 229.208L286.66 230.692L305.92 240.994L306.714 239.509L287.454 229.208Z" fill="#CACACA"/>
<path d="M326.25 234.368L306.992 244.676L307.787 246.16L327.044 235.852L326.25 234.368Z" fill="#CACACA"/>
<path d="M398.538 169.774C398.538 193.186 393.886 214.357 386.388 229.657C378.873 244.989 368.587 254.272 357.38 254.272C346.174 254.272 335.887 244.989 328.373 229.657C320.875 214.357 316.223 193.186 316.223 169.774C316.223 146.362 320.875 125.191 328.373 109.891C335.887 94.5588 346.174 85.2756 357.38 85.2756C368.587 85.2756 378.873 94.5588 386.388 109.891C393.886 125.191 398.538 146.362 398.538 169.774Z" fill="#A94645" stroke="#A94645"/>
<path d="M352.742 308.771C369.404 208.8 352.91 109.193 352.742 108.199L351.082 108.48C351.251 109.472 367.696 208.811 351.082 308.495L352.742 308.771Z" fill="#CACACA"/>
<path d="M320.325 152.206L319.531 153.69L357.202 173.839L357.996 172.355L320.325 152.206Z" fill="#CACACA"/>
<path d="M396.958 162.299L359.293 182.459L360.087 183.943L397.752 163.783L396.958 162.299Z" fill="#CACACA"/>
<path d="M260.634 309.038H39.0543C38.2394 309.037 37.4581 308.713 36.8818 308.137C36.3056 307.56 35.9814 306.779 35.9805 305.964V165.952C35.9814 165.137 36.3055 164.356 36.8818 163.779C37.4581 163.203 38.2394 162.879 39.0543 162.878H260.634C261.449 162.879 262.23 163.203 262.806 163.779C263.383 164.356 263.707 165.137 263.708 165.952V305.964C263.707 306.779 263.382 307.56 262.806 308.136C262.23 308.713 261.449 309.037 260.634 309.038Z" fill="#E4E4E4"/>
<path d="M59.4306 179.845C59.0814 179.845 58.7465 179.984 58.4996 180.231C58.2526 180.478 58.1137 180.813 58.1133 181.162V290.754C58.1137 291.104 58.2526 291.439 58.4996 291.686C58.7465 291.932 59.0814 292.071 59.4306 292.072H240.256C240.605 292.071 240.94 291.932 241.187 291.686C241.434 291.439 241.573 291.104 241.573 290.754V181.162C241.573 180.813 241.434 180.478 241.187 180.231C240.94 179.984 240.605 179.845 240.256 179.845H59.4306Z" fill="white"/>
<path d="M242.013 208.071V201.127H216.441V179.406H209.497V201.127H163.97V179.406H157.026V201.127H86.8077V179.406H79.863V201.127H55.582V208.071H79.863V235.078H55.582V242.023H79.863V270.959H55.582V277.904H117.287V292.511H124.232V277.904H157.026V292.511H163.97V277.904H242.013V270.959H163.97V242.023H242.013V235.078H216.441V208.071H242.013ZM157.026 208.071V216.559H86.8077V208.071H157.026ZM86.8077 223.504H157.026V235.078H86.8077V223.504ZM86.8077 270.959V242.023H117.287V270.959H86.8077ZM157.026 270.959H124.232V242.023H157.026V270.959ZM209.497 235.078H163.97V208.071H209.497V235.078Z" fill="#E6E6E6"/>
<path d="M160.495 248.303C165.396 248.303 169.369 244.33 169.369 239.429C169.369 234.528 165.396 230.555 160.495 230.555C155.594 230.555 151.621 234.528 151.621 239.429C151.621 244.33 155.594 248.303 160.495 248.303Z" fill="#6B93F6"/>
<path d="M399.827 309.789H0V308.831H400L399.827 309.789Z" fill="#CACACA"/>
<path d="M161.559 186.715C191.791 186.715 216.298 162.207 216.298 131.976C216.298 101.744 191.791 77.2368 161.559 77.2368C131.328 77.2368 106.82 101.744 106.82 131.976C106.82 162.207 131.328 186.715 161.559 186.715Z" fill="#6B93F6"/>
<path d="M162.095 220.96L144.801 191.418L127.508 161.876L161.738 161.671L195.969 161.465L179.032 191.212L162.095 220.96Z" fill="#6B93F6"/>
<path d="M161.999 151.271C172.846 151.271 181.638 142.478 181.638 131.631C181.638 120.785 172.846 111.992 161.999 111.992C151.152 111.992 142.359 120.785 142.359 131.631C142.359 142.478 151.152 151.271 161.999 151.271Z" fill="white"/>
<path d="M160.294 0.490985C160.294 0.490985 148.581 -2.80845 145.117 13.1938C141.653 29.196 143.853 27.1798 143.853 27.1798L170.001 24.1279C170.001 24.1279 177.864 5.35764 160.294 0.490985Z" fill="#2F2E41"/>
<path d="M143.26 70.6934C143.26 70.6934 125.589 71.5113 128.649 78.4477C128.865 78.938 129.067 79.3974 129.253 79.8259C131.441 84.85 133.958 89.7236 136.79 94.4148L147.651 112.41L151.603 110.214L140.482 81.3039L150.478 80.4878L143.26 70.6934Z" fill="#FFB6B6"/>
<path d="M189.852 78.0397L195.564 90.4843C195.564 90.4843 199.848 94.7685 204.541 111.905C209.233 129.042 210.253 128.43 210.253 128.43L205.615 129.975L186.588 95.3805L177.203 83.548L180.059 77.2236L189.852 78.0397Z" fill="#FFB6B6"/>
<path d="M182.917 63.759L191.126 79.0367C191.126 79.0367 209.736 115.605 207.812 115.484C205.65 115.347 199.577 117.868 197.713 120.314C196.813 121.495 183.661 92.6495 179.041 86.2001L169.045 78.4477C169.045 78.4477 140.662 83.2249 140.627 81.6714C140.61 80.9105 150.024 99.1671 148.092 98.3581C145.891 97.4365 140.714 101.921 138.431 100.993C137.489 100.61 130.835 84.4768 128.142 77.8659C127.804 77.0407 127.786 76.119 128.093 75.2815C128.399 74.444 129.007 73.751 129.797 73.3383C131.822 72.2855 159.948 65.863 159.948 65.863L159.456 63.351L161.496 59.2708L182.917 63.759Z" fill="#2F2E41"/>
<path d="M166.083 18.7223C166.787 14.3849 163.842 10.2981 159.504 9.5942C155.167 8.89034 151.08 11.836 150.376 16.1734C149.672 20.5109 152.618 24.5977 156.955 25.3016C161.293 26.0054 165.38 23.0598 166.083 18.7223Z" fill="#FFB6B6"/>
<path d="M183.661 64.9848C184.1 66.3028 181.255 67.0599 177.289 66.3193C173.857 65.6787 170.101 64.9178 167.139 64.3017C163.967 63.6407 161.7 63.147 161.7 63.147C161.7 63.147 160.884 68.2472 158.232 67.6352C155.947 67.1088 149.119 43.258 147.273 36.6664C147.138 36.1851 147.164 35.6729 147.347 35.2078C147.53 34.7426 147.86 34.35 148.287 34.0898L157.665 28.3632C157.665 28.3632 164.128 26.1435 166.484 26.0803C168.841 26.0171 172.921 25.405 172.921 25.405C172.921 25.405 177.613 25.8131 178.429 29.2812C179.245 32.7494 182.65 53.3125 182.713 58.2507C182.782 63.6674 182.343 61.0327 183.661 64.9848Z" fill="#4A9DF7"/>
<path d="M161.207 7.22803C161.207 7.22803 157.907 15.9715 149.824 19.6009L148.504 11.8472L161.207 7.22803Z" fill="#2F2E41"/>
<path d="M165.981 16.5306C166.601 16.5306 167.103 15.5715 167.103 14.3884C167.103 13.2054 166.601 12.2463 165.981 12.2463C165.362 12.2463 164.859 13.2054 164.859 14.3884C164.859 15.5715 165.362 16.5306 165.981 16.5306Z" fill="#FFB6B6"/>
<path d="M154.891 114.45L139.119 121.701L139.028 121.502C138.279 119.873 138.208 118.015 138.83 116.334C139.452 114.654 140.716 113.289 142.344 112.54L142.344 112.54L151.977 108.112L154.891 114.45Z" fill="#2F2E41"/>
<path d="M203.266 128.936L212.94 124.599C214.575 123.867 216.435 123.813 218.11 124.451C219.784 125.089 221.137 126.366 221.87 128.001L221.959 128.201L206.119 135.302L203.266 128.936Z" fill="#2F2E41"/>
<path opacity="0.2" d="M177.074 46.1023L175.227 66.4165L178.51 66.5715L177.074 46.1023Z" fill="black"/>
<path d="M164.196 84.0522C164.588 83.6154 164.878 83.098 165.048 82.5367C165.218 81.9753 165.262 81.3835 165.179 80.803C165.095 80.2225 164.885 79.6674 164.564 79.1768C164.242 78.6863 163.817 78.2722 163.318 77.9636L156.223 42.1199L148.074 45.2373L157.611 79.4903C157.149 80.3626 157.022 81.3743 157.255 82.3338C157.489 83.2933 158.066 84.1338 158.877 84.6961C159.689 85.2584 160.679 85.5035 161.659 85.3848C162.639 85.2662 163.542 84.792 164.196 84.0522Z" fill="#FFB6B6"/>
<path d="M158.02 48.1608L149.073 49.7367C148.818 49.7815 148.557 49.7709 148.307 49.7057C148.057 49.6405 147.823 49.5221 147.623 49.3586C147.423 49.1952 147.26 48.9905 147.146 48.7585C147.032 48.5265 146.97 48.2727 146.962 48.0143L146.716 38.9601C146.493 37.6563 146.797 36.3175 147.561 35.2374C148.324 34.1573 149.485 33.4241 150.788 33.1985C152.091 32.9729 153.431 33.2733 154.513 34.0339C155.595 34.7945 156.331 35.9532 156.56 37.2559L159.415 45.8211C159.496 46.0663 159.524 46.3263 159.496 46.5833C159.468 46.8403 159.385 47.0882 159.253 47.3103C159.121 47.5323 158.942 47.7232 158.729 47.87C158.516 48.0167 158.274 48.1159 158.02 48.1608Z" fill="#4A9DF7"/>
<path d="M171.059 83.4216C171.569 83.1333 172.011 82.7365 172.351 82.2592C172.692 81.7819 172.924 81.2357 173.031 80.659C173.138 80.0823 173.117 79.4892 172.97 78.9215C172.823 78.3538 172.553 77.8252 172.179 77.373L176.952 41.1467L168.234 41.4867L166.284 76.9891C165.566 77.6669 165.122 78.5846 165.035 79.5682C164.948 80.5518 165.226 81.5331 165.814 82.326C166.403 83.1189 167.262 83.6684 168.228 83.8703C169.195 84.0722 170.202 83.9126 171.059 83.4216Z" fill="#FFB6B6"/>
<path d="M176.713 47.4443L167.733 46.0679C167.478 46.0287 167.234 45.935 167.018 45.793C166.802 45.651 166.619 45.4641 166.482 45.2451C166.344 45.026 166.256 44.78 166.222 44.5237C166.189 44.2674 166.211 44.0069 166.287 43.7598L168.956 35.1046C169.164 33.7984 169.881 32.6278 170.951 31.8496C172.02 31.0714 173.354 30.749 174.661 30.9532C175.968 31.1574 177.141 31.8715 177.922 32.9389C178.703 34.0063 179.029 35.3399 178.828 36.6472L178.785 45.6753C178.783 45.9338 178.726 46.189 178.618 46.4235C178.509 46.6579 178.351 46.8662 178.154 47.0341C177.958 47.202 177.727 47.3255 177.479 47.3963C177.23 47.4671 176.969 47.4834 176.713 47.4443Z" fill="#4A9DF7"/>
</g>
<defs>
<clipPath id="clip0_1271_157984">
<rect width="400" height="309.579" fill="white" transform="translate(0 0.209717)"/>
</clipPath>
</defs>
</svg>
