<svg width="141" height="140" viewBox="0 0 141 140" fill="none" xmlns="http://www.w3.org/2000/svg">
<g id="map">
<g id="&#240;&#159;&#145;&#129;&#239;&#184;&#143; Masquer si besoin - D&#195;&#169;corative">
<path id="Path" fill-rule="evenodd" clip-rule="evenodd" d="M30.25 13.9995C29.285 13.9995 28.5 13.2145 28.5 12.2495C28.5 11.2845 29.285 10.4995 30.25 10.4995C31.215 10.4995 32 11.2845 32 12.2495C32 13.2145 31.215 13.9995 30.25 13.9995Z" fill="#CACAFB"/>
<path id="Path_2" fill-rule="evenodd" clip-rule="evenodd" d="M37.25 133C36.285 133 35.5 132.214 35.5 131.25C35.5 130.284 36.285 129.5 37.25 129.5C38.215 129.5 39 130.284 39 131.25C39 132.214 38.215 133 37.25 133Z" fill="#CACAFB"/>
<path id="Path_3" fill-rule="evenodd" clip-rule="evenodd" d="M110.75 129.5C109.785 129.5 109 128.714 109 127.75C109 126.784 109.785 126 110.75 126C111.715 126 112.5 126.784 112.5 127.75C112.5 128.714 111.715 129.5 110.75 129.5Z" fill="#CACAFB"/>
<path id="Path_4" fill-rule="evenodd" clip-rule="evenodd" d="M114.25 17.4995C113.285 17.4995 112.5 16.7145 112.5 15.7495C112.5 14.7845 113.285 13.9995 114.25 13.9995C115.215 13.9995 116 14.7845 116 15.7495C116 16.7145 115.215 17.4995 114.25 17.4995Z" fill="#CACAFB"/>
<path id="Path_5" fill-rule="evenodd" clip-rule="evenodd" d="M72.25 140C71.285 140 70.5 139.214 70.5 138.25C70.5 137.284 71.285 136.5 72.25 136.5C73.215 136.5 74 137.284 74 138.25C74 139.214 73.215 140 72.25 140Z" fill="#CACAFB"/>
</g>
<g id="&#240;&#159;&#142;&#168; Mineure (indice -main)">
<path fill-rule="evenodd" clip-rule="evenodd" d="M53 34.9995C53 32.1 55.3505 29.7495 58.25 29.7495C61.1495 29.7495 63.5 32.1 63.5 34.9995C63.5 37.899 61.1495 40.2495 58.25 40.2495C55.3505 40.2495 53 37.899 53 34.9995ZM60 34.9995C60 34.033 59.2165 33.2495 58.25 33.2495C57.2835 33.2495 56.5 34.033 56.5 34.9995C56.5 35.966 57.2835 36.7495 58.25 36.7495C59.2165 36.7495 60 35.966 60 34.9995Z" fill="#E1000F"/>
<path d="M58.25 36.7495C59.1475 36.7495 59.8871 37.4251 59.9882 38.2954L60 38.4995V45.4995C60 46.466 59.2165 47.2495 58.25 47.2495C57.3525 47.2495 56.6129 46.5739 56.5118 45.7036L56.5 45.4995V38.4995C56.5 37.533 57.2835 36.7495 58.25 36.7495Z" fill="#E1000F"/>
<path fill-rule="evenodd" clip-rule="evenodd" d="M91.5 76.9995C91.5 74.1 93.8505 71.7495 96.75 71.7495C99.6495 71.7495 102 74.1 102 76.9995C102 79.899 99.6495 82.2495 96.75 82.2495C93.8505 82.2495 91.5 79.899 91.5 76.9995ZM98.5 76.9995C98.5 76.033 97.7165 75.2495 96.75 75.2495C95.7835 75.2495 95 76.033 95 76.9995C95 77.966 95.7835 78.7495 96.75 78.7495C97.7165 78.7495 98.5 77.966 98.5 76.9995Z" fill="#E1000F"/>
<path d="M96.75 78.7495C97.6475 78.7495 98.3871 79.4251 98.4882 80.2954L98.5 80.4995V87.4995C98.5 88.466 97.7165 89.2495 96.75 89.2495C95.8525 89.2495 95.1129 88.5739 95.0118 87.7036L95 87.4995V80.4995C95 79.533 95.7835 78.7495 96.75 78.7495Z" fill="#E1000F"/>
<path fill-rule="evenodd" clip-rule="evenodd" d="M40.75 87.4995C40.75 84.6 43.1005 82.2495 46 82.2495C48.8995 82.2495 51.25 84.6 51.25 87.4995C51.25 90.399 48.8995 92.7495 46 92.7495C43.1005 92.7495 40.75 90.399 40.75 87.4995ZM47.75 87.4995C47.75 86.533 46.9665 85.7495 46 85.7495C45.0335 85.7495 44.25 86.533 44.25 87.4995C44.25 88.466 45.0335 89.2495 46 89.2495C46.9665 89.2495 47.75 88.466 47.75 87.4995Z" fill="#E1000F"/>
<path d="M46 89.2495C46.8975 89.2495 47.6371 89.9251 47.7382 90.7954L47.75 90.9995V97.9995C47.75 98.966 46.9665 99.7495 46 99.7495C45.1025 99.7495 44.3629 99.0739 44.2618 98.2036L44.25 97.9995V90.9995C44.25 90.033 45.0335 89.2495 46 89.2495Z" fill="#E1000F"/>
</g>
<g id="Majeure">
<path d="M44.25 33.2494C45.2165 33.2494 46 34.0329 46 34.9994C46 35.8969 45.3244 36.6366 44.4541 36.7377L44.25 36.7494H33.75C32.7835 36.7494 32 35.9659 32 34.9994C32 34.102 32.6756 33.3623 33.5459 33.2612L33.75 33.2494H44.25Z" fill="#000091"/>
<path d="M124.75 33.2494C125.647 33.2494 126.387 33.925 126.488 34.7953L126.5 34.9994V108.499C126.5 109.397 125.824 110.137 124.954 110.238L124.75 110.249H54.75C53.7835 110.249 53 109.466 53 108.499C53 107.602 53.6756 106.862 54.5459 106.761L54.75 106.749H123V36.7494H72.25C71.3525 36.7494 70.6129 36.0739 70.5118 35.2035L70.5 34.9994C70.5 34.102 71.1756 33.3623 72.0459 33.2612L72.25 33.2494H124.75Z" fill="#000091"/>
<path fill-rule="evenodd" clip-rule="evenodd" d="M30.3375 29.984L25.0292 29.8955L24.6408 29.8962C19.0983 30.008 14.5946 34.4891 14.5014 40.0781L14.5 97.9994L14.5118 98.2035C14.5195 98.2705 14.5311 98.3363 14.5462 98.4007L14.5542 98.4317L14.5247 98.8688C14.5083 99.1563 14.5 99.4499 14.5 99.7494C14.5 106.011 17.9215 109.676 24.261 110.242L40.75 110.249L40.9541 110.238C41.8244 110.137 42.5 109.397 42.5 108.499C42.5 107.533 41.7165 106.749 40.75 106.749H24.4167L23.9989 106.705C19.8945 106.208 18 104.04 18 99.7494C18 95.3455 20.1891 93.1564 25.1453 92.7434L30.25 92.7494L30.5585 92.7405C33.3144 92.5808 35.5 90.2954 35.5 87.4994V35.2333L35.4913 34.9283C35.3352 32.2039 33.1002 30.03 30.3375 29.984ZM18.0158 39.7837C18.2597 36.1645 21.3029 33.3339 24.9708 33.395L30.2792 33.4835L30.4807 33.4984C31.3397 33.6116 32 34.3463 32 35.2333V87.4994L31.9882 87.7035C31.8871 88.5739 31.1475 89.2494 30.25 89.2494H25L24.5158 89.295C21.9624 89.5661 19.8766 90.2826 18.2823 91.4204L18 91.6294L18.001 40.1364L18.0158 39.7837Z" fill="#000091"/>
<path fill-rule="evenodd" clip-rule="evenodd" d="M33.75 71.7494H34.4729C35.4394 71.7494 36.2229 72.5329 36.2229 73.4994C36.2229 74.4659 35.4394 75.2494 34.4729 75.2494H33.75C32.7835 75.2494 32 74.4659 32 73.4994C32 72.5329 32.7835 71.7494 33.75 71.7494ZM44.9729 71.7494H39.7229C38.7564 71.7494 37.9729 72.5329 37.9729 73.4994C37.9729 74.4659 38.7564 75.2494 39.7229 75.2494H44.9729C45.9394 75.2494 46.7229 74.4659 46.7229 73.4994C46.7229 72.5329 45.9394 71.7494 44.9729 71.7494ZM56.1837 72.4959L56.5982 73.0881C57.1525 73.8799 56.9599 74.9711 56.1681 75.5253C55.3764 76.0796 54.2852 75.887 53.7309 75.0952L50.2229 75.2494C49.2564 75.2494 48.4729 74.4659 48.4729 73.4994C48.4729 72.5329 49.2564 71.7494 50.2229 71.7494H54.75C55.321 71.7494 55.8562 72.028 56.1837 72.4959ZM62.6196 81.6901L59.6089 77.3891C59.0547 76.5973 57.9635 76.4048 57.1717 76.959C56.3799 77.5133 56.1874 78.6044 56.7416 79.3962L59.7523 83.6972C60.3065 84.489 61.3977 84.6815 62.1895 84.1273C62.9813 83.573 63.1738 82.4818 62.6196 81.6901ZM65.6303 85.991L68.6409 90.292C69.1952 91.0838 69.0026 92.175 68.2109 92.7292C67.4191 93.2835 66.3279 93.0909 65.7736 92.2991L62.763 87.9981C62.2087 87.2064 62.4013 86.1152 63.1931 85.5609C63.9848 85.0067 65.076 85.1992 65.6303 85.991ZM74.6623 98.8939L71.6516 94.593C71.0974 93.8012 70.0062 93.6086 69.2144 94.1629C68.4226 94.7171 68.2301 95.8083 68.7843 96.6001L71.795 100.901C72.3492 101.693 73.4404 101.885 74.2322 101.331C75.024 100.777 75.2165 99.6857 74.6623 98.8939ZM80.6837 107.496L77.673 103.195C77.1187 102.403 76.0276 102.211 75.2358 102.765C74.444 103.319 74.2514 104.41 74.8057 105.202L77.8163 109.503C78.3706 110.295 79.4618 110.487 80.2536 109.933C81.0453 109.379 81.2379 108.288 80.6837 107.496Z" fill="#000091"/>
<path fill-rule="evenodd" clip-rule="evenodd" d="M73.2771 75.2494C74.2436 75.2494 75.0271 74.4659 75.0271 73.4994C75.0271 72.5329 74.2436 71.7494 73.2771 71.7494H68.75C67.3342 71.7494 66.5044 73.3431 67.3163 74.503L67.7309 75.0952C68.2852 75.887 69.3764 76.0796 70.1681 75.5253C70.9599 74.9711 73.2771 75.2494 73.2771 75.2494ZM73.6089 77.3891L76.6196 81.6901C77.1738 82.4818 76.9813 83.573 76.1895 84.1273C75.3977 84.6815 74.3065 84.489 73.7523 83.6972L70.7416 79.3962C70.1874 78.6044 70.3799 77.5133 71.1717 76.959C71.9635 76.4048 73.0547 76.5973 73.6089 77.3891ZM82.6409 90.292L79.6303 85.991C79.076 85.1992 77.9848 85.0067 77.1931 85.5609C76.4013 86.1152 76.2087 87.2064 76.763 87.9981L79.7736 92.2991C80.3279 93.0909 81.4191 93.2835 82.2108 92.7292C83.0026 92.175 83.1952 91.0838 82.6409 90.292ZM85.6516 94.593L88.6623 98.8939C89.2166 99.6857 89.024 100.777 88.2322 101.331C87.4404 101.885 86.3492 101.693 85.795 100.901L82.7843 96.6001C82.2301 95.8083 82.4226 94.7171 83.2144 94.1629C84.0062 93.6086 85.0974 93.8012 85.6516 94.593ZM91.673 103.195L94.6837 107.496C95.2379 108.288 95.0453 109.379 94.2536 109.933C93.4618 110.487 92.3706 110.295 91.8163 109.503L88.8057 105.202C88.2514 104.41 88.444 103.319 89.2358 102.765C90.0275 102.211 91.1187 102.403 91.673 103.195ZM83.7771 75.2494H78.5271C77.5606 75.2494 76.7771 74.4659 76.7771 73.4994C76.7771 72.5329 77.5606 71.7494 78.5271 71.7494H83.7771C84.7436 71.7494 85.5271 72.5329 85.5271 73.4994C85.5271 74.4659 84.7436 75.2494 83.7771 75.2494Z" fill="#000091"/>
<path fill-rule="evenodd" clip-rule="evenodd" d="M116 75.2494H110.75C109.784 75.2494 109 74.4659 109 73.4994C109 72.5329 109.784 71.7494 110.75 71.7494H116C116.966 71.7494 117.75 72.5329 117.75 73.4994C117.75 74.4659 116.966 75.2494 116 75.2494ZM124.75 75.2494H121.25C120.284 75.2494 119.5 74.4659 119.5 73.4994C119.5 72.5329 120.284 71.7494 121.25 71.7494H124.75C125.716 71.7494 126.5 72.5329 126.5 73.4994C126.5 74.4659 125.716 75.2494 124.75 75.2494Z" fill="#000091"/>
<path fill-rule="evenodd" clip-rule="evenodd" d="M88 34.9994V38.4994C88 39.4659 87.2165 40.2494 86.25 40.2494C85.2835 40.2494 84.5 39.4659 84.5 38.4994V34.9994C84.5 34.0329 85.2835 33.2494 86.25 33.2494C87.2165 33.2494 88 34.0329 88 34.9994ZM88 48.9994V43.7494C88 42.7829 87.2165 41.9994 86.25 41.9994C85.2835 41.9994 84.5 42.7829 84.5 43.7494V48.9994C84.5 49.9659 85.2835 50.7494 86.25 50.7494C87.2165 50.7494 88 49.9659 88 48.9994ZM88 54.2494V59.4994C88 60.4659 87.2165 61.2494 86.25 61.2494C85.2835 61.2494 84.5 60.4659 84.5 59.4994V54.2494C84.5 53.2829 85.2835 52.4994 86.25 52.4994C87.2165 52.4994 88 53.2829 88 54.2494ZM39 61.2494H33.75C32.7835 61.2494 32 60.4659 32 59.4994C32 58.5329 32.7835 57.7494 33.75 57.7494H39C39.9665 57.7494 40.75 58.5329 40.75 59.4994C40.75 60.4659 39.9665 61.2494 39 61.2494ZM49.5 61.2494H44.25C43.2835 61.2494 42.5 60.4659 42.5 59.4994C42.5 58.5329 43.2835 57.7494 44.25 57.7494H49.5C50.4665 57.7494 51.25 58.5329 51.25 59.4994C51.25 60.4659 50.4665 61.2494 49.5 61.2494ZM54.75 61.2494H60C60.9665 61.2494 61.75 60.4659 61.75 59.4994C61.75 58.5329 60.9665 57.7494 60 57.7494H54.75C53.7835 57.7494 53 58.5329 53 59.4994C53 60.4659 53.7835 61.2494 54.75 61.2494ZM70.5 61.2494H65.25C64.2835 61.2494 63.5 60.4659 63.5 59.4994C63.5 58.5329 64.2835 57.7494 65.25 57.7494H70.5C71.4665 57.7494 72.25 58.5329 72.25 59.4994C72.25 60.4659 71.4665 61.2494 70.5 61.2494ZM75.75 61.2494H81C81.9665 61.2494 82.75 60.4659 82.75 59.4994C82.75 58.5329 81.9665 57.7494 81 57.7494H75.75C74.7835 57.7494 74 58.5329 74 59.4994C74 60.4659 74.7835 61.2494 75.75 61.2494Z" fill="#000091"/>
<path fill-rule="evenodd" clip-rule="evenodd" d="M81 47.2494H75.75C74.7835 47.2494 74 46.4659 74 45.4994C74 44.5329 74.7835 43.7494 75.75 43.7494H81C81.9665 43.7494 82.75 44.5329 82.75 45.4994C82.75 46.4659 81.9665 47.2494 81 47.2494ZM74 47.2494V52.4994C74 53.4659 73.2165 54.2494 72.25 54.2494C71.2835 54.2494 70.5 53.4659 70.5 52.4994V47.2494C70.5 46.2829 71.2835 45.4994 72.25 45.4994C73.2165 45.4994 74 46.2829 74 47.2494Z" fill="#000091"/>
<path fill-rule="evenodd" clip-rule="evenodd" d="M126.5 40.2494C126.5 41.2159 125.716 41.9994 124.75 41.9994C123.784 41.9994 123 41.2159 123 40.2494V36.7494C123.966 36.7494 124.75 35.9659 124.75 34.9994C124.75 34.3517 124.398 33.7861 123.875 33.4835C124.132 33.3347 124.431 33.2494 124.75 33.2494C125.716 33.2494 126.5 34.0329 126.5 34.9994V40.2494ZM123.875 33.4835C123.618 33.3347 123.319 33.2494 123 33.2494H117.75C116.784 33.2494 116 34.0329 116 34.9994C116 35.9659 116.784 36.7494 117.75 36.7494H123V34.9994C123 34.3517 123.352 33.7861 123.875 33.4835ZM126.5 50.7494C126.5 51.7159 125.716 52.4994 124.75 52.4994C123.784 52.4994 123 51.7159 123 50.7494V45.4994C123 44.5329 123.784 43.7494 124.75 43.7494C125.716 43.7494 126.5 44.5329 126.5 45.4994V50.7494ZM121.25 59.4994C121.25 60.4659 122.034 61.2494 123 61.2494H124.75C125.716 61.2494 126.5 60.4659 126.5 59.4994V55.9994C126.5 55.0329 125.716 54.2494 124.75 54.2494C123.784 54.2494 123 55.0329 123 55.9994V57.7494C122.034 57.7494 121.25 58.5329 121.25 59.4994ZM112.5 61.2494C111.534 61.2494 110.75 60.4659 110.75 59.4994C110.75 58.5329 111.534 57.7494 112.5 57.7494H117.75C118.716 57.7494 119.5 58.5329 119.5 59.4994C119.5 60.4659 118.716 61.2494 117.75 61.2494H112.5ZM103.75 55.9994C102.784 55.9994 102 56.7829 102 57.7494V59.4994C102 60.4659 102.784 61.2494 103.75 61.2494H107.25C108.216 61.2494 109 60.4659 109 59.4994C109 58.5329 108.216 57.7494 107.25 57.7494H105.5C105.5 56.7829 104.716 55.9994 103.75 55.9994ZM102 47.2494C102 46.2829 102.784 45.4994 103.75 45.4994C104.716 45.4994 105.5 46.2829 105.5 47.2494V52.4994C105.5 53.4659 104.716 54.2494 103.75 54.2494C102.784 54.2494 102 53.4659 102 52.4994V47.2494ZM103.75 34.9994C102.784 34.9994 102 35.7829 102 36.7494V41.9994C102 42.9659 102.784 43.7494 103.75 43.7494C104.716 43.7494 105.5 42.9659 105.5 41.9994V36.7494C105.5 35.7829 104.716 34.9994 103.75 34.9994ZM112.5 33.2494C113.466 33.2494 114.25 34.0329 114.25 34.9994C114.25 35.9659 113.466 36.7494 112.5 36.7494H107.25C106.284 36.7494 105.5 35.9659 105.5 34.9994C105.5 34.0329 106.284 33.2494 107.25 33.2494H112.5Z" fill="#000091"/>
</g>
</g>
</svg>
