<svg width="97" height="86" viewBox="0 0 97 86" fill="none" xmlns="http://www.w3.org/2000/svg">
<g clip-path="url(#clip0_7_5163)">
<path d="M91.4253 10.0344H5.57471C2.49588 10.0344 0 12.5303 0 15.6091V80.2758C0 83.3546 2.49588 85.8505 5.57471 85.8505H91.4253C94.5041 85.8505 97 83.3546 97 80.2758V15.6091C97 12.5303 94.5041 10.0344 91.4253 10.0344Z" fill="white"/>
<path d="M20.069 2.78736C20.069 1.24794 18.821 0 17.2816 0C15.7422 0 14.4943 1.24794 14.4943 2.78736V8.36207C14.4943 9.90148 15.7422 11.1494 17.2816 11.1494C18.821 11.1494 20.069 9.90148 20.069 8.36207V2.78736Z" fill="white"/>
<path d="M20.069 2.78736C20.069 1.24794 18.821 0 17.2816 0C15.7422 0 14.4943 1.24794 14.4943 2.78736V8.36207C14.4943 9.90148 15.7422 11.1494 17.2816 11.1494C18.821 11.1494 20.069 9.90148 20.069 8.36207V2.78736Z" fill="white"/>
<path d="M82.5057 2.78736C82.5057 1.24794 81.2578 0 79.7184 0C78.179 0 76.931 1.24794 76.931 2.78736V8.36207C76.931 9.90148 78.179 11.1494 79.7184 11.1494C81.2578 11.1494 82.5057 9.90148 82.5057 8.36207V2.78736Z" fill="white"/>
<path d="M82.5057 2.78736C82.5057 1.24794 81.2578 0 79.7184 0C78.179 0 76.931 1.24794 76.931 2.78736V8.36207C76.931 9.90148 78.179 11.1494 79.7184 11.1494C81.2578 11.1494 82.5057 9.90148 82.5057 8.36207V2.78736Z" fill="white"/>
<path d="M84.1782 18.954H11.7069C10.1675 18.954 8.91956 20.2019 8.91956 21.7413C8.91956 23.2808 10.1675 24.5287 11.7069 24.5287H84.1782C85.7176 24.5287 86.9655 23.2808 86.9655 21.7413C86.9655 20.2019 85.7176 18.954 84.1782 18.954Z" fill="#006644"/>
<path d="M20.069 2.78736C20.069 1.24794 18.821 0 17.2816 0C15.7422 0 14.4943 1.24794 14.4943 2.78736V8.36207C14.4943 9.90148 15.7422 11.1494 17.2816 11.1494C18.821 11.1494 20.069 9.90148 20.069 8.36207V2.78736Z" fill="white"/>
<path d="M20.069 2.78736C20.069 1.24794 18.821 0 17.2816 0C15.7422 0 14.4943 1.24794 14.4943 2.78736V8.36207C14.4943 9.90148 15.7422 11.1494 17.2816 11.1494C18.821 11.1494 20.069 9.90148 20.069 8.36207V2.78736Z" fill="white"/>
<path d="M82.5057 2.78736C82.5057 1.24794 81.2578 0 79.7184 0C78.179 0 76.931 1.24794 76.931 2.78736V8.36207C76.931 9.90148 78.179 11.1494 79.7184 11.1494C81.2578 11.1494 82.5057 9.90148 82.5057 8.36207V2.78736Z" fill="white"/>
<path d="M82.5057 2.78736C82.5057 1.24794 81.2578 0 79.7184 0C78.179 0 76.931 1.24794 76.931 2.78736V8.36207C76.931 9.90148 78.179 11.1494 79.7184 11.1494C81.2578 11.1494 82.5057 9.90148 82.5057 8.36207V2.78736Z" fill="white"/>
<path d="M84.1782 18.954H11.7069C10.1675 18.954 8.91956 20.2019 8.91956 21.7413C8.91956 23.2808 10.1675 24.5287 11.7069 24.5287H84.1782C85.7176 24.5287 86.9655 23.2808 86.9655 21.7413C86.9655 20.2019 85.7176 18.954 84.1782 18.954Z" fill="#006644"/>
<path d="M32.9838 59.3837V67.9315L47.9425 76.0948L62.9014 67.9315V59.3837L47.9425 67.5469L32.9838 59.3837ZM47.9425 37.6293L24.4359 50.4511L47.9425 63.273L67.1753 52.7804V67.5469H71.4493V50.4511L47.9425 37.6293Z" fill="#006644"/>
</g>
<defs>
<clipPath id="clip0_7_5163">
<rect width="97" height="85.8506" fill="white"/>
</clipPath>
</defs>
</svg>
