<svg width="87" height="77" viewBox="0 0 87 77" fill="none" xmlns="http://www.w3.org/2000/svg">
<g clip-path="url(#clip0_13_485)">
<path d="M73 2.5C73 1.11929 71.8807 0 70.5 0C69.1193 0 68 1.11929 68 2.5V7.5C68 8.88071 69.1193 10 70.5 10C71.8807 10 73 8.88071 73 7.5V2.5Z" fill="#BF2600"/>
<path d="M73 2.5C73 1.11929 71.8807 0 70.5 0C69.1193 0 68 1.11929 68 2.5V7.5C68 8.88071 69.1193 10 70.5 10C71.8807 10 73 8.88071 73 7.5V2.5Z" fill="white"/>
<path d="M82 9H5C2.23858 9 0 11.2386 0 14V72C0 74.7614 2.23858 77 5 77H82C84.7614 77 87 74.7614 87 72V14C87 11.2386 84.7614 9 82 9Z" fill="white"/>
<path d="M18 2.5C18 1.11929 16.8807 0 15.5 0C14.1193 0 13 1.11929 13 2.5V7.5C13 8.88071 14.1193 10 15.5 10C16.8807 10 18 8.88071 18 7.5V2.5Z" fill="#BF2600"/>
<path d="M18 2.5C18 1.11929 16.8807 0 15.5 0C14.1193 0 13 1.11929 13 2.5V7.5C13 8.88071 14.1193 10 15.5 10C16.8807 10 18 8.88071 18 7.5V2.5Z" fill="#BF2600"/>
<path d="M75.5 17H10.5C9.11929 17 8 18.1193 8 19.5C8 20.8807 9.11929 22 10.5 22H75.5C76.8807 22 78 20.8807 78 19.5C78 18.1193 76.8807 17 75.5 17Z" fill="#FFEBE6"/>
<path d="M18 2.5C18 1.11929 16.8807 0 15.5 0C14.1193 0 13 1.11929 13 2.5V7.5C13 8.88071 14.1193 10 15.5 10C16.8807 10 18 8.88071 18 7.5V2.5Z" fill="#BF2600"/>
<path d="M18 2.5C18 1.11929 16.8807 0 15.5 0C14.1193 0 13 1.11929 13 2.5V7.5C13 8.88071 14.1193 10 15.5 10C16.8807 10 18 8.88071 18 7.5V2.5Z" fill="white"/>
<path d="M75.5 17H10.5C9.11929 17 8 18.1193 8 19.5C8 20.8807 9.11929 22 10.5 22H75.5C76.8807 22 78 20.8807 78 19.5C78 18.1193 76.8807 17 75.5 17Z" fill="#BF2600"/>
<path fill-rule="evenodd" clip-rule="evenodd" d="M53.62 61.4444C48.6537 49.2444 42.857 46.0289 42.857 39.9444V32.7778H44.0712C44.3932 32.7778 44.7021 32.6519 44.9298 32.4279C45.1575 32.2039 45.2854 31.9001 45.2854 31.5833V29.1944C45.2854 28.8777 45.1575 28.5738 44.9298 28.3498C44.7021 28.1258 44.3932 28 44.0712 28H31.9288C31.6068 28 31.2979 28.1258 31.0702 28.3498C30.8425 28.5738 30.7146 28.8777 30.7146 29.1944V31.5833C30.7146 31.9001 30.8425 32.2039 31.0702 32.4279C31.2979 32.6519 31.6068 32.7778 31.9288 32.7778H33.143V39.9444C33.143 46.0289 27.3463 49.2444 22.38 61.4444C20.7991 65.3264 16.7387 71 38 71C59.2613 71 55.2009 65.3264 53.62 61.4444ZM49.6931 65.6274C47.9883 66.1291 44.5957 66.7 38 66.7C31.4043 66.7 28.0117 66.1291 26.3069 65.6274C25.7022 65.4506 25.4666 64.7602 25.6803 64.1272C26.2146 62.5266 27.2224 59.7603 29.1069 56.6714C33.7113 49.1249 38.4881 57.8587 42.4635 57.8587C46.439 57.8587 45.3486 54.1297 46.8931 56.6714C48.3144 59.0232 49.4637 61.524 50.3197 64.1272C50.5334 64.7602 50.2978 65.4482 49.6931 65.6274Z" fill="#BF2600" fill-opacity="0.33"/>
<path d="M53.5 40C47.1593 40 42.0001 45.0246 42.0001 51.193C41.9584 60.216 53.063 67.6976 53.5 68C53.5 68 65.0416 60.216 64.9999 51.2C64.9999 45.0246 59.8407 40 53.5 40ZM53.5 56.8C50.3232 56.8 47.7501 54.294 47.7501 51.2C47.7501 48.106 50.3232 45.6 53.5 45.6C56.6768 45.6 59.2499 48.106 59.2499 51.2C59.2499 54.294 56.6768 56.8 53.5 56.8Z" fill="#BF2600"/>
</g>
<defs>
<clipPath id="clip0_13_485">
<rect width="87" height="77" fill="white"/>
</clipPath>
</defs>
</svg>
