<svg width="97" height="85" viewBox="0 0 97 85" fill="none" xmlns="http://www.w3.org/2000/svg">
<g clip-path="url(#clip0_7_5231)">
<path d="M91.4253 8.91956H5.57471C2.49588 8.91956 0 11.4154 0 14.4943V79.1609C0 82.2398 2.49588 84.7356 5.57471 84.7356H91.4253C94.5041 84.7356 97 82.2398 97 79.1609V14.4943C97 11.4154 94.5041 8.91956 91.4253 8.91956Z" fill="white"/>
<path d="M20.0689 2.78736C20.0689 1.24794 18.8209 0 17.2815 0C15.7421 0 14.4941 1.24794 14.4941 2.78736V8.36207C14.4941 9.90148 15.7421 11.1494 17.2815 11.1494C18.8209 11.1494 20.0689 9.90148 20.0689 8.36207V2.78736Z" fill="white"/>
<path d="M20.0689 2.78736C20.0689 1.24794 18.8209 0 17.2815 0C15.7421 0 14.4941 1.24794 14.4941 2.78736V8.36207C14.4941 9.90148 15.7421 11.1494 17.2815 11.1494C18.8209 11.1494 20.0689 9.90148 20.0689 8.36207V2.78736Z" fill="white"/>
<path d="M82.5059 2.78736C82.5059 1.24794 81.2579 0 79.7185 0C78.1791 0 76.9312 1.24794 76.9312 2.78736V8.36207C76.9312 9.90148 78.1791 11.1494 79.7185 11.1494C81.2579 11.1494 82.5059 9.90148 82.5059 8.36207V2.78736Z" fill="white"/>
<path d="M82.5059 2.78736C82.5059 1.24794 81.2579 0 79.7185 0C78.1791 0 76.9312 1.24794 76.9312 2.78736V8.36207C76.9312 9.90148 78.1791 11.1494 79.7185 11.1494C81.2579 11.1494 82.5059 9.90148 82.5059 8.36207V2.78736Z" fill="white"/>
<path d="M48.5 32.3334C37.1083 32.3334 27.8735 41.5681 27.8735 52.9598C27.8735 64.3515 37.1083 73.5863 48.5 73.5863C59.8917 73.5863 69.1264 64.3515 69.1264 52.9598C69.1264 41.5681 59.8917 32.3334 48.5 32.3334ZM48.6359 39.5496L51.8865 49.6992L62.5397 49.9383L53.8907 56.1626L56.955 66.37L48.3615 60.0678L39.6018 66.1384L42.9405 56.0165L34.4603 49.5607L45.1185 49.6085L48.6359 39.5496Z" fill="#0747A6"/>
<path d="M84.1781 17.8391H11.7068C10.1674 17.8391 8.91943 19.0871 8.91943 20.6265C8.91943 22.1659 10.1674 23.4138 11.7068 23.4138H84.1781C85.7175 23.4138 86.9654 22.1659 86.9654 20.6265C86.9654 19.0871 85.7175 17.8391 84.1781 17.8391Z" fill="#0747A6"/>
</g>
<defs>
<clipPath id="clip0_7_5231">
<rect width="97" height="84.7356" fill="white"/>
</clipPath>
</defs>
</svg>
