<svg width="327" height="364" viewBox="0 0 327 364" fill="none" xmlns="http://www.w3.org/2000/svg">
<path d="M0 54.6V309.4C0 349.458 32.591 364 54.5 364H327V327.6H54.718C46.325 327.382 36.3333 324.069 36.3333 309.4C36.3333 294.731 46.325 291.418 54.718 291.2H327V36.4C327 16.3254 310.704 0 290.667 0H54.5C32.591 0 0 14.5418 0 54.6Z" fill="white"/>
<path d="M266.302 130.029C266.302 107.355 256.252 88.0379 236.151 72.0767C216.05 56.1156 191.854 48.135 163.564 48.135C135.273 48.135 111.078 56.1156 90.9767 72.0767C70.8757 88.0379 60.8252 107.355 60.8252 130.029C60.8252 149.421 68.4934 166.65 83.8297 181.716C99.166 196.783 118.448 206.404 141.676 210.581C140.485 225.796 137.358 240.266 132.296 253.989C151.056 249.216 169.817 234.448 188.578 209.686C211.211 205.211 229.823 195.589 244.415 180.821C259.006 166.054 266.302 149.123 266.302 130.029ZM207.786 180.598C205.999 181.194 204.51 181.493 203.319 181.493H195.279C212.848 168.664 221.633 151.51 221.633 130.029C221.633 106.46 211.211 88.4108 190.365 75.8806C192.152 75.2839 194.981 74.9856 198.852 74.9856C212.551 74.9856 224.239 80.1319 233.917 90.4246C243.596 100.717 248.435 113.322 248.435 128.239C248.435 141.366 244.563 152.852 236.821 162.697C229.078 172.543 219.4 178.509 207.786 180.598Z" fill="#013B7F"/>
<path d="M163.308 79.8837C136.351 79.8837 114.495 101.788 114.495 128.787C114.495 155.801 136.351 177.69 163.308 177.69C190.265 177.69 212.122 155.801 212.122 128.787C212.122 101.788 190.265 79.8837 163.308 79.8837ZM163.308 168.225C141.552 168.225 123.942 150.59 123.942 128.787C123.942 106.998 141.553 89.3488 163.308 89.3488C185.056 89.3488 202.674 106.992 202.674 128.787C202.674 150.582 185.071 168.225 163.308 168.225ZM184.417 117.902C184.417 131.124 170.162 131.327 170.162 136.214V137.463C170.162 138.77 169.105 139.829 167.8 139.829H158.816C157.511 139.829 156.454 138.77 156.454 137.463V135.756C156.454 128.707 161.788 125.89 165.819 123.625C169.275 121.684 171.394 120.364 171.394 117.793C171.394 114.392 167.064 112.135 163.563 112.135C158.999 112.135 156.892 114.299 153.93 118.044C153.131 119.054 151.674 119.241 150.65 118.463L145.173 114.303C144.168 113.539 143.943 112.121 144.653 111.076C149.303 104.235 155.226 100.391 164.449 100.391C174.107 100.391 184.417 107.945 184.417 117.902ZM171.575 150.872C171.575 155.439 167.867 159.154 163.308 159.154C158.75 159.154 155.041 155.439 155.041 150.872C155.041 146.305 158.75 142.59 163.308 142.59C167.867 142.59 171.575 146.305 171.575 150.872Z" fill="white"/>
</svg>
