<svg viewBox="0 0 112 40" xmlns="http://www.w3.org/2000/svg" fill-rule="evenodd" clip-rule="evenodd" stroke-linejoin="round" stroke-miterlimit="1.414"><g fill="#373c42" fill-rule="nonzero"><path d="M0 25.052V12.784h2.343V16.7c.46-.427.92-.731 1.383-.912.462-.181 1.012-.272 1.649-.272.931 0 1.772.211 2.524.633a4.562 4.562 0 0 1 1.766 1.747c.425.743.638 1.574.638 2.493 0 1.249-.382 2.338-1.146 3.268-.896 1.076-2.102 1.614-3.618 1.614-.724 0-1.344-.106-1.861-.316-.517-.211-1.028-.571-1.533-1.079v1.176H0zm5.005-7.509c-.816 0-1.486.271-2.012.811-.525.541-.788 1.23-.788 2.068 0 .827.27 1.504.81 2.031.54.527 1.232.791 2.076.791.839 0 1.522-.261 2.05-.783.529-.521.793-1.201.793-2.039 0-.849-.272-1.541-.814-2.076-.543-.535-1.248-.803-2.115-.803zM22.272 21.435H14.7c.143.557.456.998.939 1.322.482.324 1.071.487 1.765.487.483 0 .885-.069 1.206-.207.322-.138.635-.374.939-.71h2.559c-.138.417-.396.844-.775 1.282-1.011 1.108-2.303 1.662-3.877 1.662a5.84 5.84 0 0 1-2.085-.373 5.255 5.255 0 0 1-1.684-1.01 4.71 4.71 0 0 1-1.115-1.524 4.39 4.39 0 0 1-.414-1.877c0-.887.229-1.702.685-2.445a4.908 4.908 0 0 1 1.869-1.76 5.356 5.356 0 0 1 2.598-.644c.959 0 1.823.212 2.593.636a4.612 4.612 0 0 1 1.804 1.768c.434.754.651 1.601.651 2.542 0 .303-.029.587-.086.851zm-7.641-1.946h5.418c-.149-.589-.456-1.04-.922-1.354-.465-.313-1.059-.47-1.783-.47-.7 0-1.282.155-1.744.466-.463.311-.786.764-.969 1.358zM24.954 25.052V17.86h-1.146v-2.011h1.146v-3.065h2.343v3.065h1.413v2.011h-1.413v7.192h-2.343zM40.558 15.849v9.203h-2.145V23.86c-.471.503-.957.863-1.46 1.082-.502.219-1.098.329-1.787.329-.942 0-1.788-.204-2.537-.612a4.448 4.448 0 0 1-1.758-1.707c-.422-.73-.633-1.552-.633-2.465 0-.925.213-1.756.638-2.494a4.516 4.516 0 0 1 1.774-1.731c.758-.416 1.614-.624 2.567-.624.707 0 1.315.115 1.827.344.511.23.967.596 1.369 1.099v-1.232h2.145zm-5.134 1.816c-.815 0-1.489.27-2.02.811-.531.54-.797 1.227-.797 2.059 0 .806.269 1.459.806 1.959s1.233.75 2.089.75c.85 0 1.534-.254 2.054-.763.52-.508.78-1.173.78-1.994 0-.833-.272-1.511-.814-2.035-.543-.525-1.242-.787-2.098-.787zM44.602 23.391a.958.958 0 0 0-.971.947c0 .481.442.897.953.897.547 0 1.006-.399 1.006-.897 0-.515-.459-.947-.988-.947zM56.192 15.849h2.239v7.46c0 .913-.084 1.671-.254 2.274a3.857 3.857 0 0 1-.822 1.545c-.931 1.065-2.26 1.597-3.989 1.597-1.194 0-2.231-.257-3.11-.77a4.496 4.496 0 0 1-1.912-2.157h2.662c.344.357.703.609 1.077.758.373.149.832.223 1.378.223.873 0 1.536-.243 1.99-.73.453-.486.7-1.224.741-2.213-.46.508-.938.874-1.435 1.098-.496.225-1.089.337-1.779.337-.918 0-1.744-.208-2.476-.625a4.394 4.394 0 0 1-1.71-1.739c-.408-.743-.612-1.582-.612-2.518 0-1.362.457-2.494 1.37-3.397.913-.903 2.062-1.354 3.446-1.354 1.401 0 2.466.459 3.196 1.378v-1.167zm-2.964 1.816c-.804 0-1.451.258-1.942.774-.491.517-.737 1.199-.737 2.048 0 .838.249 1.507.745 2.007.497.5 1.165.75 2.003.75.85 0 1.528-.253 2.033-.759.506-.505.758-1.182.758-2.031 0-.832-.263-1.505-.788-2.019-.525-.513-1.216-.77-2.072-.77zM65.998 15.638c.931 0 1.792.216 2.584.649a4.942 4.942 0 0 1 1.878 1.763c.46.743.69 1.55.69 2.421 0 .864-.232 1.666-.694 2.404a4.951 4.951 0 0 1-1.891 1.751 5.397 5.397 0 0 1-2.601.645 5.443 5.443 0 0 1-2.615-.645 4.981 4.981 0 0 1-1.899-1.751 4.427 4.427 0 0 1-.698-2.404c0-.66.136-1.288.409-1.886a4.735 4.735 0 0 1 1.111-1.54 5.317 5.317 0 0 1 1.676-1.026 5.573 5.573 0 0 1 2.05-.381zm-.095 2.027c-.758 0-1.411.274-1.959.823-.549.549-.823 1.204-.823 1.966 0 .768.276 1.425.827 1.971a2.726 2.726 0 0 0 1.99.819c.781 0 1.45-.272 2.007-.815.557-.544.836-1.196.836-1.958 0-.79-.279-1.455-.836-1.995-.557-.541-1.238-.811-2.042-.811zM82.128 15.849v9.203h-2.171v-.884c-.448.405-.88.691-1.297.855-.416.165-.917.248-1.503.248-.66 0-1.252-.126-1.774-.377a3.201 3.201 0 0 1-1.267-1.075 3.651 3.651 0 0 1-.534-1.232c-.103-.449-.155-1.049-.155-1.8v-4.938h2.352v4.5c0 .638.037 1.136.112 1.496.075.359.201.642.379.847.339.368.792.552 1.361.552.408 0 .771-.077 1.09-.231.318-.155.561-.372.728-.653.126-.206.214-.472.262-.799.049-.327.074-.785.074-1.374v-4.338h2.343zM87.946 25.052l-3.937-9.203h2.61l2.257 6.097 2.223-6.097h2.653l-3.937 9.203h-1.869zM94.988 23.392c-.498 0-.913.415-.913.946 0 .481.415.896.896.896.515 0 .946-.398.946-.896 0-.515-.431-.946-.929-.946z"/><path d="M98.103 16.537h1.927l-1.949 9.023c-.508 2.33-1.207 3.495-2.118 3.495-.254 0-.423-.148-.423-.36 0-.063.021-.106.084-.212a.63.63 0 0 0 .106-.36.832.832 0 0 0-.847-.826c-.445 0-.784.403-.784.911 0 .72.742 1.292 1.674 1.292 1.927 0 3.431-2.118 4.363-6.079l1.589-6.884h2.351l.127-.678h-2.309c.635-3.389 1.462-4.893 2.648-4.893.296 0 .466.106.466.275 0 .043-.021.106-.085.212a.72.72 0 0 0-.127.445c0 .508.318.847.784.847.487 0 .91-.402.91-.868 0-.784-.783-1.377-1.842-1.377-1.038 0-1.886.466-2.669 1.462-.636.847-1.081 1.821-1.737 3.897h-1.991l-.148.678zM105.58 25.052c1.165-3.707 1.525-4.575 2.499-6.206.741-1.208 1.335-1.864 1.695-1.864.148 0 .254.084.36.296.169.36.339.466.762.466.636 0 .996-.381.996-1.059 0-.678-.403-1.101-.996-1.101-.487 0-1.08.317-1.631.91-.889.89-1.779 2.182-2.118 3.008l-.318.784 1.187-4.66-.064-.042c-1.546.275-1.779.317-3.326.572v.36c.466-.085.551-.106.721-.106.466 0 .741.212.741.593 0 .275-.169 1.144-.339 1.779l-1.8 6.27h1.631z"/></g></svg>