<svg width="56" height="56" viewBox="0 0 56 56" fill="none" xmlns="http://www.w3.org/2000/svg">
<g clip-path="url(#clip0_11999_2716)">
<path d="M55.9995 0.000427246H0V55.9999H55.9995V0.000427246Z" fill="#00008F"/>
<path d="M34.7023 27.6556L56.0002 0H52.8545L31.4863 27.6556H34.7023Z" fill="#FF1721"/>
<path d="M42.7896 39.9969C43.7657 42.7277 45.777 49.8341 46.5766 50.4003H41.2963C41.2804 49.772 41.1973 49.1473 41.0484 48.5367C40.8208 47.7245 38.9108 41.5798 38.9108 41.5798H30.5235L29.2048 43.4493C29.2048 43.4493 30.7887 48.4074 30.8871 48.6505C31.0578 49.0885 31.8141 50.4003 31.8141 50.4003H26.7537C26.7537 50.4003 26.6226 49.6431 26.5734 49.3277C26.5338 49.0731 26.0939 47.6782 26.0939 47.6782C26.0939 47.6782 24.947 48.9351 24.6345 49.5177C24.319 50.0993 24.1791 50.4003 24.1791 50.4003H20.2203C20.2203 50.4003 20.0882 49.6431 20.039 49.3277C20.0005 49.0731 19.5161 47.5663 19.5161 47.5663C19.5161 47.5663 18.4079 48.912 18.0924 49.4935C17.7789 50.0762 17.6438 50.4003 17.6438 50.4003H13.7285C13.7285 50.4003 14.8349 49.347 15.2217 48.8946C15.8737 48.1277 18.3037 44.9522 18.3037 44.9522L17.3294 41.5798H9.00569C9.00569 41.5798 4.25976 47.8161 4.07267 48.009C3.88362 48.1991 2.50034 50.1843 2.46942 50.4003H0V48.83C0.0306283 48.7966 0.0631466 48.7651 0.0973941 48.7354C0.17365 48.6794 3.69544 44.3078 6.93078 39.9969C9.83818 36.2378 12.5661 32.5818 12.8053 32.2337C13.3851 31.3916 14.2204 29.5733 14.2204 29.5733H18.5235C18.5235 29.5733 18.6567 31.2459 18.7821 31.652C18.894 32.0108 21.5158 40.6133 21.5775 40.706L23.0274 38.8519L20.5493 31.2237C20.5493 31.2237 19.9685 29.7883 19.7795 29.5733H24.8061C24.7884 30.0347 24.8437 30.496 24.9701 30.9401C25.1746 31.5691 26.2521 35.4574 26.2521 35.4574C26.2521 35.4574 29.6804 31.1601 29.881 30.8514C30.1246 30.4664 30.2699 30.0275 30.3045 29.5733H34.4928C34.4928 29.5733 33.726 30.1337 32.3822 31.8333C31.9308 32.4053 27.508 38.0262 27.508 38.0262C27.508 38.0262 27.8939 39.3419 28.082 39.9969C28.1332 40.185 28.1688 40.3123 28.1688 40.3259C28.1688 40.3317 28.2662 40.2121 28.434 39.9969C29.5752 38.5509 34.7658 31.7446 35.0803 31.1619C35.334 30.6913 35.7073 30.1559 35.9263 29.5733H40.0124C40.0124 29.5733 40.1069 30.7935 40.2314 31.1311L42.7896 39.9969ZM36.5716 33.5542C35.9716 34.8449 32.4401 39.1442 32.4401 39.1442H38.033C38.033 39.1442 36.9488 35.8056 36.7597 35.0532C36.6631 34.5722 36.6262 34.081 36.6497 33.5909C36.6497 33.5224 36.6372 33.4115 36.5716 33.5542ZM15.0827 33.5542C14.4828 34.8449 10.9513 39.1442 10.9513 39.1442H16.5441C16.5441 39.1442 15.461 35.8056 15.2719 35.0532C15.1753 34.5722 15.1383 34.081 15.1619 33.5909C15.1619 33.5224 15.1484 33.4115 15.0827 33.5542H15.0827ZM23.503 46.5901L25.0425 44.4757C24.9007 44.3233 24.0335 41.6937 24.0335 41.6937L22.545 43.6248L23.503 46.5901Z" fill="white"/>
</g>
<defs>
<clipPath id="clip0_11999_2716">
<rect width="56" height="56" fill="white"/>
</clipPath>
</defs>
</svg>
