<svg width="213" height="79" viewBox="0 0 213 79" fill="none" xmlns="http://www.w3.org/2000/svg">
<g id="francetravail.io">
<path id="Vector" d="M170.245 63.2H87.2949V75.05H170.245V63.2Z" fill="#283276"/>
<path id="Vector_2" d="M90.5469 73.075V64.78H95.1684V65.9255H91.9031V68.2692H94.6944V69.4147H91.9031V73.0619H90.5469V73.075Z" fill="white"/>
<path id="Vector_3" d="M96.2617 73.0749V67.0973H97.4862V67.7688C97.9076 67.3079 98.421 66.9788 99.1584 66.9788C99.3427 66.9788 99.5271 67.0183 99.6851 67.0578V68.2559C99.5007 68.2033 99.3032 68.1769 99.0531 68.1769C98.2894 68.1769 97.8022 68.5851 97.4862 69.0854V73.0618H96.2617V73.0749Z" fill="white"/>
<path id="Vector_4" d="M102.384 73.2462C101.199 73.2462 100.396 72.5747 100.396 71.5214C100.396 70.626 101.093 69.9677 102.357 69.757L104.293 69.441V69.1382C104.293 68.4009 103.753 67.9532 102.976 67.9532C102.318 67.9532 101.818 68.256 101.475 68.73L100.567 68.0322C101.093 67.3212 101.949 66.8735 103.016 66.8735C104.622 66.8735 105.517 67.8215 105.517 69.1382V73.0882H104.293V72.4167C103.872 72.9434 103.121 73.2725 102.384 73.2725V73.2462ZM101.62 71.4687C101.62 71.9295 101.989 72.2455 102.608 72.2455C103.358 72.2455 103.937 71.89 104.293 71.3239V70.2969L102.687 70.5734C101.936 70.705 101.633 71.021 101.633 71.4687H101.62Z" fill="white"/>
<path id="Vector_5" d="M107.427 73.075V67.0974H108.651V67.6767C109.099 67.2027 109.691 66.8604 110.547 66.8604C111.864 66.8604 112.865 67.7557 112.865 69.4805V73.075H111.627V69.5332C111.627 68.5852 111.1 68.019 110.258 68.019C109.415 68.019 108.954 68.5325 108.651 69.046V73.075H107.427Z" fill="white"/>
<path id="Vector_6" d="M117.565 72.1665C118.237 72.1665 118.79 71.8374 119.119 71.3765L120.08 72.1139C119.54 72.8512 118.658 73.3252 117.552 73.3252C115.551 73.3252 114.3 71.8505 114.3 70.0994C114.3 68.3482 115.551 66.8735 117.552 66.8735C118.645 66.8735 119.527 67.3475 120.08 68.0849L119.119 68.8222C118.79 68.3614 118.237 68.0322 117.552 68.0322C116.406 68.0322 115.577 68.9275 115.577 70.1125C115.577 71.2975 116.406 72.1929 117.565 72.1929V72.1665Z" fill="white"/>
<path id="Vector_7" d="M126.506 72.1007C125.953 72.8512 125.031 73.312 123.925 73.312C121.858 73.312 120.646 71.8374 120.646 70.0862C120.646 68.335 121.779 66.8604 123.675 66.8604C125.321 66.8604 126.387 67.9927 126.387 69.5069C126.387 69.7834 126.348 70.0467 126.308 70.231H121.897C121.976 71.5345 122.779 72.206 123.925 72.206C124.649 72.206 125.255 71.89 125.623 71.3897L126.506 72.1007ZM123.648 67.8874C122.753 67.8874 122.147 68.4009 121.95 69.3225H125.163C125.136 68.572 124.61 67.8874 123.648 67.8874Z" fill="white"/>
<path id="Vector_8" d="M130.587 66.0177V64.78H137.289V66.0177H134.616V73.075H133.26V66.0177H130.587Z" fill="white"/>
<path id="Vector_9" d="M137.855 73.0749V67.0973H139.08V67.7688C139.501 67.3079 140.015 66.9788 140.752 66.9788C140.936 66.9788 141.121 67.0183 141.279 67.0578V68.2559C141.094 68.2033 140.897 68.1769 140.647 68.1769C139.883 68.1769 139.396 68.5851 139.08 69.0854V73.0618H137.855V73.0749Z" fill="white"/>
<path id="Vector_10" d="M143.977 73.2462C142.792 73.2462 141.989 72.5747 141.989 71.5214C141.989 70.626 142.687 69.9677 143.951 69.757L145.887 69.441V69.1382C145.887 68.4009 145.347 67.9532 144.57 67.9532C143.912 67.9532 143.411 68.256 143.069 68.73L142.16 68.0322C142.7 67.3212 143.543 66.8735 144.609 66.8735C146.216 66.8735 147.111 67.8215 147.111 69.1382V73.0882H145.887V72.4167C145.465 72.9434 144.715 73.2725 143.977 73.2725V73.2462ZM143.214 71.4687C143.214 71.9295 143.582 72.2455 144.201 72.2455C144.952 72.2455 145.531 71.89 145.887 71.3239V70.2969L144.28 70.5734C143.53 70.705 143.227 71.021 143.227 71.4687H143.214Z" fill="white"/>
<path id="Vector_11" d="M148.086 67.0974H149.403L151.154 71.7452L152.892 67.0974H154.222L151.957 73.0751H150.337L148.086 67.0974Z" fill="white"/>
<path id="Vector_12" d="M156.854 73.2462C155.669 73.2462 154.866 72.5747 154.866 71.5214C154.866 70.626 155.564 69.9677 156.828 69.757L158.764 69.441V69.1382C158.764 68.4009 158.224 67.9532 157.447 67.9532C156.789 67.9532 156.288 68.256 155.946 68.73L155.037 68.0322C155.564 67.3212 156.42 66.8735 157.486 66.8735C159.093 66.8735 159.988 67.8215 159.988 69.1382V73.0882H158.764V72.4167C158.342 72.9434 157.592 73.2725 156.854 73.2725V73.2462ZM156.091 71.4687C156.091 71.9295 156.459 72.2455 157.078 72.2455C157.829 72.2455 158.408 71.89 158.764 71.3239V70.2969L157.157 70.5734C156.407 70.705 156.104 71.021 156.104 71.4687H156.091Z" fill="white"/>
<path id="Vector_13" d="M162.516 65.7806C162.068 65.7806 161.687 65.3988 161.687 64.9511C161.687 64.5034 162.068 64.1216 162.516 64.1216C162.964 64.1216 163.346 64.5034 163.346 64.9511C163.346 65.3988 162.964 65.7806 162.516 65.7806ZM161.897 73.0749V67.0972H163.122V73.0749H161.897Z" fill="white"/>
<path id="Vector_14" d="M165.11 73.075V64.1875H166.335V73.075H165.11Z" fill="white"/>
<path id="Vector_15" d="M87.2949 37.6698V34.5625H104.03V37.6698H97.3674V55.3H93.9573V37.6698H87.2949Z" fill="#283276"/>
<path id="Vector_16" d="M105.465 55.3V40.369H108.52V42.0543C109.56 40.8957 110.863 40.0662 112.693 40.0662C113.167 40.0662 113.615 40.1583 113.997 40.2768V43.2657C113.523 43.1472 113.049 43.055 112.43 43.055C110.534 43.055 109.296 44.0557 108.52 45.3328V55.2868H105.465V55.3Z" fill="#283276"/>
<path id="Vector_17" d="M120.791 55.7476C117.829 55.7476 115.814 54.0622 115.814 51.4289C115.814 49.1774 117.566 47.5447 120.739 47.0181L125.571 46.2149V45.4512C125.571 43.6079 124.215 42.4887 122.279 42.4887C120.647 42.4887 119.383 43.2261 118.514 44.4374L116.236 42.6862C117.566 40.9087 119.699 39.7896 122.371 39.7896C126.4 39.7896 128.626 42.1596 128.626 45.4512V55.313H125.571V53.6277C124.504 54.9312 122.635 55.7607 120.805 55.7607L120.791 55.7476ZM118.895 51.2972C118.895 52.4559 119.817 53.2591 121.358 53.2591C123.227 53.2591 124.676 52.3769 125.558 50.9417V48.3611L121.529 49.0457C119.659 49.3749 118.895 50.1649 118.895 51.2972Z" fill="#283276"/>
<path id="Vector_18" d="M131.048 40.3689H134.34L138.724 51.9819L143.082 40.3689H146.4L140.739 55.2999H136.683L131.061 40.3689H131.048Z" fill="#283276"/>
<path id="Vector_19" d="M152.984 55.7476C150.021 55.7476 148.007 54.0622 148.007 51.4289C148.007 49.1774 149.758 47.5447 152.931 47.0181L157.763 46.2149V45.4512C157.763 43.6079 156.394 42.4887 154.472 42.4887C152.839 42.4887 151.562 43.2261 150.706 44.4374L148.428 42.6862C149.758 40.9087 151.891 39.7896 154.564 39.7896C158.593 39.7896 160.818 42.1596 160.818 45.4512V55.313H157.763V53.6277C156.697 54.9312 154.827 55.7607 152.997 55.7607L152.984 55.7476ZM151.088 51.2972C151.088 52.4559 152.01 53.2591 153.55 53.2591C155.42 53.2591 156.868 52.3769 157.75 50.9417V48.3611L153.721 49.0457C151.851 49.3749 151.088 50.1649 151.088 51.2972Z" fill="#283276"/>
<path id="Vector_20" d="M167.125 37.0511C166.006 37.0511 165.058 36.1031 165.058 34.9839C165.058 33.8647 166.006 32.9036 167.125 32.9036C168.244 32.9036 169.205 33.8516 169.205 34.9839C169.205 36.1162 168.257 37.0511 167.125 37.0511ZM165.584 55.3001V40.3691H168.639V55.3001H165.584Z" fill="#283276"/>
<path id="Vector_21" d="M173.629 55.3001V33.0879H176.684V55.3001H173.629Z" fill="#283276"/>
<path id="Vector_22" d="M183.214 55.6555C181.964 55.6555 180.989 54.6812 180.989 53.4698C180.989 52.2585 181.964 51.271 183.214 51.271C184.465 51.271 185.4 52.2717 185.4 53.4698C185.4 54.668 184.426 55.6555 183.214 55.6555Z" fill="#283276"/>
<path id="Vector_23" d="M191.193 37.0511C190.074 37.0511 189.126 36.1031 189.126 34.9839C189.126 33.8647 190.074 32.9036 191.193 32.9036C192.312 32.9036 193.26 33.8516 193.26 34.9839C193.26 36.1162 192.312 37.0511 191.193 37.0511ZM189.653 55.3001V40.3691H192.707V55.3001H189.653Z" fill="#283276"/>
<path id="Vector_24" d="M204.636 39.7766C209.495 39.7766 212.747 43.4238 212.747 47.8346C212.747 52.2454 209.495 55.8926 204.636 55.8926C199.778 55.8926 196.525 52.2454 196.525 47.8346C196.525 43.4238 199.817 39.7766 204.636 39.7766ZM204.662 53.0223C207.48 53.0223 209.547 50.6786 209.547 47.8346C209.547 44.9906 207.48 42.6469 204.662 42.6469C201.845 42.6469 199.712 44.9643 199.712 47.8346C199.712 50.7049 201.779 53.0223 204.662 53.0223Z" fill="#283276"/>
<path id="Vector_25" d="M89.2695 25.675V4.9375H100.83V7.80783H92.6534V13.667H99.6449V16.5373H92.6534V25.6618H89.2695V25.675Z" fill="#283276"/>
<path id="Vector_26" d="M103.543 25.675V10.744H106.598V12.4293C107.638 11.2707 108.941 10.4412 110.771 10.4412C111.245 10.4412 111.693 10.5333 112.075 10.6518V13.6407C111.601 13.5222 111.127 13.43 110.508 13.43C108.612 13.43 107.361 14.4307 106.598 15.7078V25.6618H103.543V25.675Z" fill="#283276"/>
<path id="Vector_27" d="M118.856 26.1226C115.893 26.1226 113.879 24.4372 113.879 21.8039C113.879 19.5524 115.63 17.9197 118.803 17.3931L123.635 16.5899V15.8131C123.635 13.9829 122.266 12.8506 120.344 12.8506C118.711 12.8506 117.434 13.5879 116.578 14.8124L114.3 13.0612C115.63 11.2837 117.763 10.1646 120.436 10.1646C124.465 10.1646 126.69 12.5346 126.69 15.8262V25.6881H123.635V24.0027C122.569 25.3062 120.699 26.1357 118.869 26.1357L118.856 26.1226ZM116.96 21.6722C116.96 22.8309 117.882 23.6341 119.422 23.6341C121.292 23.6341 122.74 22.7387 123.635 21.3167V18.7361L119.606 19.4207C117.737 19.7499 116.973 20.5531 116.973 21.6722H116.96Z" fill="#283276"/>
<path id="Vector_28" d="M131.469 25.6751V10.7441H134.523V12.1924C135.643 11.0074 137.13 10.1516 139.263 10.1516C142.555 10.1516 145.07 12.3768 145.07 16.6954V25.6751H141.989V16.8139C141.989 14.4439 140.685 13.0219 138.552 13.0219C136.419 13.0219 135.3 14.2991 134.523 15.6026V25.6751H131.469Z" fill="#283276"/>
<path id="Vector_29" d="M156.801 23.3971C158.487 23.3971 159.856 22.5676 160.686 21.4089L163.082 23.2522C161.713 25.0824 159.527 26.2806 156.775 26.2806C151.772 26.2806 148.625 22.5807 148.625 18.2226C148.625 13.8644 151.772 10.1646 156.775 10.1646C159.501 10.1646 161.726 11.3496 163.082 13.1929L160.686 15.0231C159.856 13.8644 158.5 13.0349 156.775 13.0349C153.905 13.0349 151.825 15.2864 151.825 18.2226C151.825 21.1587 153.905 23.4102 156.801 23.4102V23.3971Z" fill="#283276"/>
<path id="Vector_30" d="M179.172 23.2522C177.776 25.1219 175.499 26.2806 172.72 26.2806C167.572 26.2806 164.518 22.5807 164.518 18.2226C164.518 13.8644 167.362 10.1646 172.102 10.1646C176.223 10.1646 178.882 12.9822 178.882 16.7742C178.882 17.4589 178.79 18.1304 178.672 18.5781H167.651C167.862 21.8434 169.85 23.5287 172.72 23.5287C174.524 23.5287 176.038 22.7256 176.96 21.4879L179.185 23.2654L179.172 23.2522ZM172.036 12.7057C169.811 12.7057 168.27 13.9829 167.796 16.2871H175.828C175.775 14.4174 174.432 12.7057 172.036 12.7057Z" fill="#283276"/>
<path id="Vector_31" d="M29.1116 72.2981C24.0819 79.4344 14.2332 81.1329 7.09689 76.1164C-0.0394411 71.0868 -1.73794 61.2381 3.27856 54.1018C8.30823 46.9654 18.1569 45.2669 25.2932 50.2834C32.4296 55.3131 34.1281 65.1618 29.1116 72.2981Z" fill="#686F9F"/>
<path id="Vector_32" d="M77.2486 37.0115C74.2597 40.1846 69.2564 40.3295 66.0832 37.3406C62.9101 34.3518 62.7652 29.3485 65.7541 26.1753C68.7429 23.0021 73.7462 22.8573 76.9194 25.8461C80.0926 28.8481 80.2374 33.8383 77.2486 37.0115Z" fill="#9398BA"/>
<path id="Vector_33" d="M67.5451 39.5001C67.5451 24.2926 55.1026 11.8501 39.8951 11.8501C24.6876 11.8501 12.2451 24.2926 12.2451 39.5001C12.2451 54.7076 24.6876 67.1501 39.8951 67.1501C55.1026 67.1501 67.5451 54.7076 67.5451 39.5001Z" fill="#283276"/>
<path id="Vector_34" fill-rule="evenodd" clip-rule="evenodd" d="M35.1548 51.1524H54.1148V27.8474H25.6748V32.3899H35.1548V51.1524ZM49.7698 46.6099H39.6973V32.3899H49.7698V46.6099Z" fill="white"/>
<path id="Vector_35" d="M25.6748 36.9326H30.2173V51.1526H25.6748V36.9326Z" fill="white"/>
</g>
</svg>
