<?xml version="1.0" encoding="UTF-8" standalone="no"?>
<!-- Created with Inkscape (http://www.inkscape.org/) -->

<svg
   width="253.397mm"
   height="84.891998mm"
   viewBox="0 0 253.397 84.891998"
   version="1.1"
   id="svg1"
   inkscape:version="1.4.2 (ebf0e94, 2025-05-08)"
   sodipodi:docname="logoInseeFr.svg"
   xmlns:inkscape="http://www.inkscape.org/namespaces/inkscape"
   xmlns:sodipodi="http://sodipodi.sourceforge.net/DTD/sodipodi-0.dtd"
   xmlns="http://www.w3.org/2000/svg"
   xmlns:svg="http://www.w3.org/2000/svg">
  <sodipodi:namedview
     id="namedview1"
     pagecolor="#ffffff"
     bordercolor="#000000"
     borderopacity="0.25"
     inkscape:showpageshadow="2"
     inkscape:pageopacity="0.0"
     inkscape:pagecheckerboard="0"
     inkscape:deskcolor="#d1d1d1"
     inkscape:document-units="mm"
     inkscape:zoom="0.71891835"
     inkscape:cx="397.12437"
     inkscape:cy="338.70328"
     inkscape:window-width="1920"
     inkscape:window-height="1009"
     inkscape:window-x="-8"
     inkscape:window-y="-8"
     inkscape:window-maximized="1"
     inkscape:current-layer="g7" />
  <defs
     id="defs1" />
  <g
     id="g7"
     transform="matrix(0.26458333,0,0,0.26458333,-58.737286,46.955321)"
     inkscape:groupmode="layer">
    <path
       id="Baseline"
       d="m 996.48919,99.441066 c 5.23001,0 8.57001,3.780004 8.76001,8.380004 h -18.85001 c 1.26,-5.48 4.92,-8.380004 10.09,-8.380004 m 14.88001,23.200004 -3.97,-3.09 c -2.08,2.84 -5.48,4.73 -9.52001,4.73 -7.12,0 -11.91,-5.11 -11.91,-12.11 v -0.13 h 24.33001 c 0.19,-0.88 0.38,-2.14 0.38,-3.4 0,-7.94 -5.61,-13.800004 -14.25001,-13.800004 -9.83,0 -16.01,7.500004 -16.01,17.150004 0,9.65 6.62,17.15 17.33,17.15 5.93001,0 10.65001,-2.52 13.62001,-6.49 m -51.69001,5.22 h 5.36 v -21.56 c 1.96,-3.21 4.67,-5.36 8.83,-5.36 1.26,0 2.21,0.19 3.15,0.44 v -5.550004 c -0.76,-0.25 -1.7,-0.38 -2.71,-0.38 -4.03,0 -6.93,1.83 -9.27,4.600004 v -3.970004 h -5.36 v 31.770004 z m -38.59,-15.88 c 0,-6.74 4.54,-12.100004 11.28,-12.100004 4.35,0 8.13,2.080004 10.65,5.930004 v 12.36 c -2.46,3.78 -6.24,5.93 -10.65,5.93 -6.74,0 -11.28,-5.36 -11.28,-12.11 m -5.67,-0.01 c 0,9.27 6.37,17.15 16.33,17.15 4.6,0 8.38,-1.7 11.28,-4.79 v 3.53 h 5.36 V 80.601066 h -5.36 v 19.04 c -2.9,-3.09 -6.68,-4.79 -11.28,-4.79 -9.96,0 -16.33,7.880004 -16.33,17.150004 m -36.43,15.87 h 5.36 v -22 c 2.02,-3.34 4.92,-5.990004 9.52,-5.990004 4.92,0 8.07,3.280004 8.07,8.950004 v 19.04 h 5.42 v -19.23 c 0,-9.010004 -5.29,-13.800004 -12.42,-13.800004 -4.73,0 -8.01,2.02 -10.59,4.85 v -3.59 h -5.36 z m -23.26,-28.430004 c 5.23,0 8.57,3.780004 8.76,8.380004 h -18.85 c 1.26,-5.48 4.92,-8.380004 10.09,-8.380004 m 14.87,23.200004 -3.97,-3.09 c -2.08,2.84 -5.49,4.73 -9.52,4.73 -7.12,0 -11.91,-5.11 -11.91,-12.11 v -0.13 h 24.33 c 0.19,-0.88 0.38,-2.14 0.38,-3.4 0,-7.94 -5.61,-13.800004 -14.25,-13.800004 -9.83,0 -16.01,7.500004 -16.01,17.150004 0,9.65 6.62,17.15 17.34,17.15 5.92,0 10.65,-2.52 13.62,-6.49 m -51.7,5.22 h 5.36 v -21.56 c 1.95,-3.21 4.66,-5.36 8.83,-5.36 1.26,0 2.21,0.19 3.15,0.44 v -5.550004 c -0.76,-0.25 -1.7,-0.38 -2.71,-0.38 -4.04,0 -6.94,1.83 -9.27,4.600004 v -3.970004 h -5.36 v 31.770004 z m -36.25,-9.83 v -12.1 c 2.46,-3.91 6.24,-6.050004 10.65,-6.050004 6.75,0 11.35,5.360004 11.35,12.100004 0,6.74 -4.6,12.11 -11.35,12.11 -4.41,0 -8.2,-2.15 -10.65,-6.05 m -5.35,25.33 h 5.36 v -19.04 c 2.9,3.09 6.68,4.79 11.28,4.79 9.96,0 16.33,-7.88 16.33,-17.15 0,-9.27 -6.37,-17.150004 -16.33,-17.150004 -4.6,0 -8.38,1.7 -11.28,4.79 v -3.53 h -5.36 v 47.280004 z m -59.58,-15.51 h 5.36 v -22 c 1.83,-3.28 4.54,-5.990004 8.89,-5.990004 4.6,0 7.44,3.030004 7.44,8.320004 v 19.67 h 5.42 v -19.86 c 0,-0.69 -0.06,-1.39 -0.13,-2.08 2.14,-3.72 4.92,-6.050004 8.95,-6.050004 4.54,0 7.5,3.030004 7.5,8.320004 v 19.67 h 5.36 v -19.86 c 0,-8.640004 -4.98,-13.170004 -11.79,-13.170004 -5.23,0 -8.7,2.77 -11.22,6.370004 -1.96,-4.220004 -5.8,-6.370004 -10.46,-6.370004 -4.41,0 -7.57,1.95 -9.96,4.73 v -3.47 h -5.36 z m -25.78,-3.78 c -6.81,0 -11.66,-5.49 -11.66,-12.11 0,-6.62 4.85,-12.100004 11.66,-12.100004 6.81,0 11.47,5.490004 11.47,12.100004 0,6.61 -4.86,12.11 -11.47,12.11 m -0.06,-29.250004 c -10.28,0 -17.21,7.880004 -17.21,17.150004 0,9.27 6.93,17.15 17.21,17.15 10.28,0 17.21,-7.88 17.21,-17.15 0,-9.27 -7,-17.150004 -17.21,-17.150004 m -33.92,29.250004 c -6.87,0 -11.72,-5.3 -11.72,-12.11 0,-6.81 4.86,-12.100004 11.66,-12.100004 3.91,0 7.12,1.890004 9.08,4.730004 l 4.29,-3.28 c -2.96,-3.910004 -7.63,-6.490004 -13.36,-6.490004 -10.53,0 -17.27,7.880004 -17.27,17.150004 0,9.27 6.74,17.15 17.27,17.15 5.8,0 10.4,-2.52 13.36,-6.49 l -4.29,-3.28 c -1.95,2.84 -5.11,4.73 -9.01,4.73 m -56.68,3.77 h 5.36 v -21.56 c 1.95,-3.21 4.66,-5.36 8.83,-5.36 1.26,0 2.21,0.19 3.15,0.44 v -5.550004 c -0.76,-0.25 -1.7,-0.38 -2.71,-0.38 -4.04,0 -6.93,1.83 -9.27,4.600004 v -3.970004 h -5.36 v 31.770004 z m -16.01,-13.61 c 0,6.24 -3.34,9.83 -8.64,9.83 -5.3,0 -8.76,-3.59 -8.76,-9.83 V 96.101066 h -5.36 v 17.970004 c 0,9.52 5.49,15.07 14.06,15.07 8.57,0 14.12,-5.55 14.12,-15.07 V 96.101066 h -5.42 z m -47.84,9.83 c -6.81,0 -11.66,-5.49 -11.66,-12.11 0,-6.62 4.85,-12.100004 11.66,-12.100004 6.81,0 11.47,5.490004 11.47,12.100004 0,6.61 -4.86,12.11 -11.47,12.11 m -0.07,-29.250004 c -10.28,0 -17.21,7.880004 -17.21,17.150004 0,9.27 6.93,17.15 17.21,17.15 10.28,0 17.21,-7.88 17.21,-17.15 0,-9.27 -7,-17.150004 -17.21,-17.150004 m -51.06,23.200004 v -12.1 c 2.46,-3.91 6.24,-6.050004 10.65,-6.050004 6.75,0 11.35,5.360004 11.35,12.100004 0,6.74 -4.6,12.11 -11.35,12.11 -4.41,0 -8.19,-2.15 -10.65,-6.05 m -5.36,25.33 h 5.36 v -19.04 c 2.9,3.09 6.68,4.79 11.29,4.79 9.96,0 16.33,-7.88 16.33,-17.15 0,-9.27 -6.37,-17.150004 -16.33,-17.150004 -4.6,0 -8.38,1.7 -11.29,4.79 v -3.53 h -5.36 v 47.280004 z m -42.04,-15.51 h 5.36 v -21.56 c 1.95,-3.21 4.67,-5.36 8.83,-5.36 1.26,0 2.21,0.19 3.15,0.44 v -5.550004 c -0.76,-0.25 -1.7,-0.38 -2.71,-0.38 -4.03,0 -6.94,1.83 -9.27,4.600004 v -3.970004 h -5.36 v 31.770004 z m -23.26,-28.430004 c 5.23,0 8.57,3.780004 8.76,8.380004 h -18.85 c 1.26,-5.48 4.92,-8.380004 10.09,-8.380004 m 14.87,23.200004 -3.97,-3.09 c -2.08,2.84 -5.49,4.73 -9.52,4.73 -7.12,0 -11.91,-5.11 -11.91,-12.11 v -0.13 h 24.33 c 0.19,-0.88 0.38,-2.14 0.38,-3.4 0,-7.94 -5.61,-13.800004 -14.25,-13.800004 -9.83,0 -16.01,7.500004 -16.01,17.150004 0,9.65 6.62,17.15 17.34,17.15 5.92,0 10.65,-2.52 13.62,-6.49 m -51.7,5.22 h 5.36 v -21.56 c 1.95,-3.21 4.66,-5.36 8.83,-5.36 1.26,0 2.21,0.19 3.15,0.44 v -5.550004 c -0.76,-0.25 -1.7,-0.38 -2.71,-0.38 -4.04,0 -6.94,1.83 -9.27,4.600004 v -3.970004 h -5.36 v 31.770004 z m -16.01,-13.61 c 0,6.24 -3.34,9.83 -8.64,9.83 -5.3,0 -8.76,-3.59 -8.76,-9.83 V 96.101066 h -5.36 v 17.970004 c 0,9.52 5.48,15.07 14.06,15.07 8.58,0 14.12,-5.55 14.12,-15.07 V 96.101066 h -5.42 z m -53.39,9.27 c 2.9,3.59 6.87,5.61 11.91,5.61 5.93,0 10.65,-3.72 10.72,-9.65 0,-11.09 -15.57,-8.57 -15.57,-15.82 0,-2.59 1.76,-4.350004 5.04,-4.350004 2.9,0 5.23,1.450004 7,3.970004 l 3.72,-3.22 c -2.21,-3.090004 -6.11,-5.230004 -10.78,-5.230004 -5.99,0 -10.21,3.84 -10.21,8.950004 0,11.41 15.57,8.76 15.57,15.95 0,2.77 -2.02,4.92 -5.55,4.92 -3.21,0 -5.86,-1.64 -8.07,-4.41 z m -19.61,-24.090004 c 5.23,0 8.57,3.780004 8.76,8.380004 h -18.85 c 1.26,-5.48 4.92,-8.380004 10.09,-8.380004 m 14.88,23.200004 -3.97,-3.09 c -2.08,2.84 -5.48,4.73 -9.52,4.73 -7.12,0 -11.91,-5.11 -11.91,-12.11 v -0.13 h 24.33 c 0.19,-0.88 0.38,-2.14 0.38,-3.4 0,-7.94 -5.61,-13.800004 -14.25,-13.800004 -9.83,0 -16.01,7.500004 -16.01,17.150004 0,9.65 6.62,17.15 17.33,17.15 5.93,0 10.65,-2.52 13.62,-6.49 m -82.71,5.22 h 5.93 V 91.881066 l 12.86,20.870004 h 4.54 l 12.86,-20.870004 v 35.990004 h 5.93 V 83.741066 h -7.63 l -13.43,22.000004 -13.43,-22.000004 h -7.63 z" />
    <path
       id="Lettrage"
       d="m 907.18919,-40.328934 c 3.23,-19.87 16.15,-31.05 36.77,-31.05 19.13,0 29.81,12.17 31.3,31.05 z m 43.23,89.44 c 23.1,0 42.73,-6.71 55.90001,-16.4 V -1.8189338 c -12.67001,10.68 -29.81001,20.6199998 -51.43001,20.6199998 -29.32,0 -43.97,-12.1699998 -47.7,-34.78 h 103.60001 c 0.99,-4.22 1.74,-9.69 1.74,-16.65 0,-40.74 -26.09001,-67.33 -68.07001,-67.33 -45.96,0 -74.78,30.81 -74.78,74.53 0,49.19 33.04,74.53 80.74,74.53 z m -205.96,-89.44 c 3.23,-19.87 16.15,-31.05 36.77,-31.05 19.13,0 29.81,12.17 31.3,31.05 z m 43.23,89.44 c 23.1,0 42.73,-6.71 55.9,-16.4 V -1.8189338 c -12.67,10.68 -29.81,20.6199998 -51.43,20.6199998 -29.32,0 -43.97,-12.1699998 -47.7,-34.78 h 103.6 c 0.99,-4.22 1.74,-9.69 1.74,-16.65 0,-40.74 -26.09,-67.33 -68.07,-67.33 -45.96,0 -74.78,30.81 -74.78,74.53 0,49.19 33.04,74.53 80.74,74.53 z m -168.69,0 c 39,0 66.33,-15.65 66.33,-48.68999983 0,-33.04000017 -29.56,-38.26000017 -62.61,-43.23000017 -25.09,-3.73 -37.27,-4.97 -37.27,-14.41 0,-9.44 11.43,-13.17 30.31,-13.17 20.87,0 44.22,7.2 63.6,18.88 v -33.29 c -17.39,-9.44 -39.5,-15.15 -63.1,-15.15 -37.51,0 -65.59,14.41 -65.59,44.22 0,34.04 32.05,41.49 62.36,45.71 22.61,3.2300002 36.27,3.9700002 36.27,15.4000002 0,10.1899998 -10.93,13.4199998 -30.81,13.4199998 -26.33,0 -50.43,-8.9399998 -68.57,-26.0899998 V 30.221066 c 14.91,10.68 41.74,18.88 69.06,18.88 z m -230.54,-2.49 h 36.77 v -80.99 c 0.5,-22.61 11.43,-36.52 30.56,-36.52 20.87,0 27.58,13.42 27.58,33.04 v 84.47 h 36.77 v -89.93 c 0,-38.01 -22.11,-56.64 -52.67,-56.64 -17.39,0 -32.55,6.46 -42.23,20.37 v -17.89 h -36.77 v 144.09 z m -166.46,0 h 137.88 v -28.57 h -49.44 V -123.55893 h 49.44 v -28.57 h -137.88 v 28.57 h 49.44 V 18.051066 h -49.44 z" />
    <g
       id="Emblème"
       transform="translate(60.579194,-313.54893)">
      <rect
         class="st1"
         x="1082.37"
         y="136.08"
         width="36.77"
         height="124.96"
         id="rect1"
         style="fill:#c869ff" />
      <rect
         class="st0"
         x="1032.4399"
         y="184.03"
         width="36.77"
         height="77.010002"
         id="rect2"
         style="fill:#7a57ff" />
      <polygon
         class="st2"
         points="1019.27,161.42 982.5,161.42 982.5,298.56 985.24,298.56 1019.27,261.05 "
         id="polygon2"
         style="fill:#248bff" />
    </g>
  </g>
</svg>
