<svg width="80" height="80" viewBox="0 0 80 80" fill="none" xmlns="http://www.w3.org/2000/svg">
<g id="calendar">
<g id="&#240;&#159;&#145;&#129;&#239;&#184;&#143; Masquer si besoin - D&#195;&#169;corative">
<path id="Path" fill-rule="evenodd" clip-rule="evenodd" d="M77 23.9995C76.4486 23.9995 76 23.5509 76 22.9995C76 22.4481 76.4486 21.9995 77 21.9995C77.5514 21.9995 78 22.4481 78 22.9995C78 23.5509 77.5514 23.9995 77 23.9995Z" fill="#ECECFE"/>
<path id="Path_2" fill-rule="evenodd" clip-rule="evenodd" d="M29 79.9995C28.4486 79.9995 28 79.5509 28 78.9995C28 78.4481 28.4486 77.9995 29 77.9995C29.5514 77.9995 30 78.4481 30 78.9995C30 79.5509 29.5514 79.9995 29 79.9995Z" fill="#ECECFE"/>
<path id="Path_3" fill-rule="evenodd" clip-rule="evenodd" d="M15 9.99951C14.4486 9.99951 14 9.55091 14 8.99951C14 8.44806 14.4486 7.99951 15 7.99951C15.5514 7.99951 16 8.44806 16 8.99951C16 9.55091 15.5514 9.99951 15 9.99951Z" fill="#ECECFE"/>
</g>
<g id="&#240;&#159;&#142;&#168; Mineure (indice -main)">
<path d="M69.5518 69.3253C64.4013 73.496 56.8449 72.7018 52.6742 67.5514C48.5034 62.4009 49.2976 54.8445 54.4481 50.6738C59.5985 46.503 67.1549 47.2972 71.3257 52.4477C71.6732 52.8769 71.607 53.5066 71.1778 53.8541C70.7486 54.2017 70.1189 54.1355 69.7714 53.7063C66.2957 49.4142 59.9988 48.7524 55.7067 52.2281C51.4146 55.7037 50.7528 62.0007 54.2284 66.2927C57.7041 70.5848 64.0011 71.2466 68.2931 67.771C71.0206 65.5623 72.357 62.1362 71.919 58.718C71.8488 58.1702 72.236 57.6692 72.7838 57.599C73.3316 57.5288 73.8326 57.916 73.9028 58.4638C74.428 62.5628 72.8237 66.6757 69.5518 69.3253Z" fill="#E1000F"/>
<path d="M58.0411 59.8558L60.3709 62.6105L66.4388 55.5082C66.8418 55.0364 67.5449 54.9965 67.996 55.4218C68.4032 55.8058 68.4648 56.4398 68.1321 56.9179L68.0783 56.9866L61.51 64.676C60.9719 65.3059 60.0251 65.3803 59.3952 64.8423C59.3337 64.7897 59.2766 64.7323 59.2243 64.6706L56.3948 61.3262C56.0063 60.867 56.0452 60.1719 56.4843 59.7618C56.9063 59.3677 57.5513 59.3752 57.982 59.7918L58.0411 59.8558Z" fill="#E1000F"/>
</g>
<g id="Majeure">
<path d="M23 9.99951C23.5128 9.99951 23.9355 10.3856 23.9933 10.8829L24 10.9995V13.9995H56V10.9995C56 10.4472 56.4477 9.99951 57 9.99951C57.5128 9.99951 57.9355 10.3856 57.9933 10.8829L58 10.9995V13.9995H65C67.6888 13.9995 69.8818 16.1218 69.9954 18.7826L70 18.9995V44.9995C70 45.5518 69.5523 45.9995 69 45.9995C68.4872 45.9995 68.0645 45.6135 68.0067 45.1161L68 44.9995V27.9995H63C62.4477 27.9995 62 27.5518 62 26.9995C62 26.4867 62.386 26.064 62.8834 26.0062L63 25.9995H68V18.9995C68 17.4018 66.7511 16.0959 65.1763 16.0046L65 15.9995H58V18.9995C58 19.5518 57.5523 19.9995 57 19.9995C56.4872 19.9995 56.0645 19.6135 56.0067 19.1161L56 18.9995V15.9995H24V18.9995C24 19.5518 23.5523 19.9995 23 19.9995C22.4872 19.9995 22.0645 19.6135 22.0067 19.1161L22 18.9995V15.9995H15C13.4023 15.9995 12.0963 17.2484 12.0051 18.8232L12 18.9995V25.9995H22V24.9995C22 24.4472 22.4477 23.9995 23 23.9995C23.5128 23.9995 23.9355 24.3856 23.9933 24.8829L24 24.9995V25.9995H57C57.5523 25.9995 58 26.4472 58 26.9995C58 27.5123 57.614 27.935 57.1166 27.9928L57 27.9995H24V28.9995C24 29.5518 23.5523 29.9995 23 29.9995C22.4872 29.9995 22.0645 29.6135 22.0067 29.1161L22 28.9995V27.9995H12V60.9995C12 62.5972 13.2489 63.9032 14.8237 63.9944L15 63.9995H43C43.5523 63.9995 44 64.4472 44 64.9995C44 65.5123 43.614 65.935 43.1166 65.9928L43 65.9995H15C12.3112 65.9995 10.1182 63.8772 10.0046 61.2164L10 60.9995V18.9995C10 16.3108 12.1223 14.1177 14.7831 14.0041L15 13.9995H22V10.9995C22 10.4472 22.4477 9.99951 23 9.99951Z" fill="#000091"/>
<path d="M47 63.9995C46.4477 63.9995 46 64.4472 46 64.9995C46 65.5518 46.4477 65.9995 47 65.9995C47.5523 65.9995 48 65.5518 48 64.9995C48 64.4472 47.5523 63.9995 47 63.9995Z" fill="#000091"/>
<path fill-rule="evenodd" clip-rule="evenodd" d="M30 36.9995C30 35.3427 28.6569 33.9995 27 33.9995H21C19.3431 33.9995 18 35.3427 18 36.9995V40.9995C18 42.6564 19.3431 43.9995 21 43.9995H27C28.6569 43.9995 30 42.6564 30 40.9995V36.9995ZM20 36.9995C20 36.4472 20.4477 35.9995 21 35.9995H27C27.5523 35.9995 28 36.4472 28 36.9995V40.9995C28 41.5518 27.5523 41.9995 27 41.9995H21C20.4477 41.9995 20 41.5518 20 40.9995V36.9995Z" fill="#000091"/>
<path fill-rule="evenodd" clip-rule="evenodd" d="M59 33.9995C60.6569 33.9995 62 35.3427 62 36.9995V40.9995C62 42.6564 60.6569 43.9995 59 43.9995H53C51.3431 43.9995 50 42.6564 50 40.9995V36.9995C50 35.3427 51.3431 33.9995 53 33.9995H59ZM53 35.9995C52.4477 35.9995 52 36.4472 52 36.9995V40.9995C52 41.5518 52.4477 41.9995 53 41.9995H59C59.5523 41.9995 60 41.5518 60 40.9995V36.9995C60 36.4472 59.5523 35.9995 59 35.9995H53Z" fill="#000091"/>
<path fill-rule="evenodd" clip-rule="evenodd" d="M43 33.9995H37C35.3431 33.9995 34 35.3427 34 36.9995V40.9995C34 42.6564 35.3431 43.9995 37 43.9995H43C44.6569 43.9995 46 42.6564 46 40.9995V36.9995C46 35.3427 44.6569 33.9995 43 33.9995ZM37 35.9995H43C43.5523 35.9995 44 36.4472 44 36.9995V40.9995C44 41.5518 43.5523 41.9995 43 41.9995H37C36.4477 41.9995 36 41.5518 36 40.9995V36.9995C36 36.4472 36.4477 35.9995 37 35.9995Z" fill="#000091"/>
<path fill-rule="evenodd" clip-rule="evenodd" d="M27 47.9995C28.6569 47.9995 30 49.3427 30 50.9995V54.9995C30 56.6564 28.6569 57.9995 27 57.9995H21C19.3431 57.9995 18 56.6564 18 54.9995V50.9995C18 49.3427 19.3431 47.9995 21 47.9995H27ZM21 49.9995C20.4477 49.9995 20 50.4472 20 50.9995V54.9995C20 55.5518 20.4477 55.9995 21 55.9995H27C27.5523 55.9995 28 55.5518 28 54.9995V50.9995C28 50.4472 27.5523 49.9995 27 49.9995H21Z" fill="#000091"/>
<path fill-rule="evenodd" clip-rule="evenodd" d="M43 47.9995H37C35.3431 47.9995 34 49.3427 34 50.9995V54.9995C34 56.6564 35.3431 57.9995 37 57.9995H43C44.6569 57.9995 46 56.6564 46 54.9995V50.9995C46 49.3427 44.6569 47.9995 43 47.9995ZM37 49.9995H43C43.5523 49.9995 44 50.4472 44 50.9995V54.9995C44 55.5518 43.5523 55.9995 43 55.9995H37C36.4477 55.9995 36 55.5518 36 54.9995V50.9995C36 50.4472 36.4477 49.9995 37 49.9995Z" fill="#000091"/>
</g>
</g>
</svg>
