<svg width="80" height="80" viewBox="0 0 80 80" fill="none" xmlns="http://www.w3.org/2000/svg">
<g id="coding">
<g id="&#240;&#159;&#145;&#129;&#239;&#184;&#143; Masquer si besoin - D&#195;&#169;corative">
<path id="Path" fill-rule="evenodd" clip-rule="evenodd" d="M59 75.9995C58.4486 75.9995 58 75.5509 58 74.9995C58 74.4481 58.4486 73.9995 59 73.9995C59.5514 73.9995 60 74.4481 60 74.9995C60 75.5509 59.5514 75.9995 59 75.9995Z" fill="#ECECFE"/>
<path id="Path_2" fill-rule="evenodd" clip-rule="evenodd" d="M67 11.9995C66.4486 11.9995 66 11.5509 66 10.9995C66 10.4481 66.4486 9.99951 67 9.99951C67.5514 9.99951 68 10.4481 68 10.9995C68 11.5509 67.5514 11.9995 67 11.9995Z" fill="#ECECFE"/>
<path id="Path_3" fill-rule="evenodd" clip-rule="evenodd" d="M9 15.9995C8.4486 15.9995 8 15.5509 8 14.9995C8 14.4481 8.4486 13.9995 9 13.9995C9.5514 13.9995 10 14.4481 10 14.9995C10 15.5509 9.5514 15.9995 9 15.9995Z" fill="#ECECFE"/>
</g>
<g id="&#240;&#159;&#142;&#168; Mineure (indice -main)">
<path fill-rule="evenodd" clip-rule="evenodd" d="M55 29.9995H45C44.4477 29.9995 44 30.4472 44 30.9995V38.9995C44 39.5518 44.4477 39.9995 45 39.9995H55C55.5523 39.9995 56 39.5518 56 38.9995V30.9995C56 30.4472 55.5523 29.9995 55 29.9995ZM54 31.9995V37.9995H46V31.9995H54Z" fill="#E1000F"/>
<path fill-rule="evenodd" clip-rule="evenodd" d="M62 44.9995C62 44.4472 61.5523 43.9995 61 43.9995H51C50.4477 43.9995 50 44.4472 50 44.9995V52.9995C50 53.5518 50.4477 53.9995 51 53.9995H61C61.5523 53.9995 62 53.5518 62 52.9995V44.9995ZM60 45.9995V51.9995H52V45.9995H60Z" fill="#E1000F"/>
<path d="M61 29.9995C61.5523 29.9995 62 30.4472 62 30.9995C62 31.5123 61.614 31.935 61.1166 31.9928L61 31.9995H59C58.4477 31.9995 58 31.5518 58 30.9995C58 30.4867 58.386 30.064 58.8834 30.0062L59 29.9995H61Z" fill="#E1000F"/>
<path d="M62 34.9995C62 34.4472 61.5523 33.9995 61 33.9995H59L58.8834 34.0062C58.386 34.064 58 34.4867 58 34.9995C58 35.5518 58.4477 35.9995 59 35.9995H61L61.1166 35.9928C61.614 35.935 62 35.5123 62 34.9995Z" fill="#E1000F"/>
<path d="M61 37.9995C61.5523 37.9995 62 38.4472 62 38.9995C62 39.5123 61.614 39.935 61.1166 39.9928L61 39.9995H59C58.4477 39.9995 58 39.5518 58 38.9995C58 38.4867 58.386 38.064 58.8834 38.0062L59 37.9995H61Z" fill="#E1000F"/>
<path d="M48 44.9995C48 44.4472 47.5523 43.9995 47 43.9995H45L44.8834 44.0062C44.386 44.064 44 44.4867 44 44.9995C44 45.5518 44.4477 45.9995 45 45.9995H47L47.1166 45.9928C47.614 45.935 48 45.5123 48 44.9995Z" fill="#E1000F"/>
<path d="M47 47.9995C47.5523 47.9995 48 48.4472 48 48.9995C48 49.5123 47.614 49.935 47.1166 49.9928L47 49.9995H45C44.4477 49.9995 44 49.5518 44 48.9995C44 48.4867 44.386 48.064 44.8834 48.0062L45 47.9995H47Z" fill="#E1000F"/>
<path d="M48 52.9995C48 52.4472 47.5523 51.9995 47 51.9995H45L44.8834 52.0062C44.386 52.064 44 52.4867 44 52.9995C44 53.5518 44.4477 53.9995 45 53.9995H47L47.1166 53.9928C47.614 53.935 48 53.5123 48 52.9995Z" fill="#E1000F"/>
</g>
<g id="Majeure">
<path d="M16 20.9995C16 21.5509 16.4486 21.9995 17 21.9995C17.5514 21.9995 18 21.5509 18 20.9995C18 20.4481 17.5514 19.9995 17 19.9995C16.4486 19.9995 16 20.4481 16 20.9995Z" fill="#000091"/>
<path d="M21 21.9995C20.4486 21.9995 20 21.5509 20 20.9995C20 20.4481 20.4486 19.9995 21 19.9995C21.5514 19.9995 22 20.4481 22 20.9995C22 21.5509 21.5514 21.9995 21 21.9995Z" fill="#000091"/>
<path d="M24 20.9995C24 21.5509 24.4486 21.9995 25 21.9995C25.5514 21.9995 26 21.5509 26 20.9995C26 20.4481 25.5514 19.9995 25 19.9995C24.4486 19.9995 24 20.4481 24 20.9995Z" fill="#000091"/>
<path d="M32 28.2336C31.9996 28.1077 31.8927 27.9995 31.7541 27.9995H30.3775L30.3112 28.0082C30.2266 28.0309 30.159 28.096 30.1381 28.1812L28.7814 33.7275L28.7821 33.4593L28.7743 33.4007L28.7522 33.3469C28.7235 33.2963 28.6756 33.2563 28.616 33.2367L26.4866 32.5369L28.616 31.8379L28.6714 31.8119C28.7394 31.7691 28.7821 31.6958 28.7821 31.6154V30.3861L28.7745 30.3274C28.7398 30.197 28.5925 30.1161 28.4522 30.1649L24.1618 31.6589L24.1077 31.6854C24.0414 31.7285 24 31.8008 24 31.88V33.1947L24.0075 33.2524C24.0272 33.3268 24.0841 33.3887 24.1618 33.4158L28.4522 34.9097L28.4904 34.9181L28.2969 35.7106L28.2903 35.7654C28.2907 35.8913 28.3977 35.9995 28.5363 35.9995H29.9129L29.9791 35.9908C30.0638 35.9682 30.1314 35.903 30.1522 35.8178L31.1455 31.7559C31.1545 31.76 31.1639 31.7637 31.1736 31.7669L33.3991 32.4991L31.1736 33.2321L31.1157 33.2594C31.0446 33.3042 31 33.381 31 33.4652V34.7528L31.0079 34.8143C31.0442 34.9509 31.1982 35.0356 31.3449 34.9845L35.8308 33.4196L35.8874 33.3919C35.9567 33.3467 36 33.2709 36 33.188V31.811L35.9922 31.7505C35.9716 31.6726 35.9121 31.6077 35.8308 31.5794L31.5535 30.0874L31.9934 28.2884L32 28.2336Z" fill="#000091"/>
<path d="M16 31.9995V27.9995H18V31.9995H16Z" fill="#000091"/>
<path d="M16 35.9995V33.9995H18V35.9995H16Z" fill="#000091"/>
<path d="M18 41.9995V37.9995H16V41.9995H18Z" fill="#000091"/>
<path d="M16 47.9995V43.9995H18V47.9995H16Z" fill="#000091"/>
<path d="M18 51.9995V49.9995H16V51.9995H18Z" fill="#000091"/>
<path fill-rule="evenodd" clip-rule="evenodd" d="M67 15.9995H13C12.4477 15.9995 12 16.4472 12 16.9995V62.9995C12 63.5518 12.4477 63.9995 13 63.9995H67C67.5523 63.9995 68 63.5518 68 62.9995V16.9995C68 16.4472 67.5523 15.9995 67 15.9995ZM61 57.9995H66V25.9995H57C56.4477 25.9995 56 25.5518 56 24.9995C56 24.4867 56.386 24.064 56.8834 24.0062L57 23.9995H66V17.9995H14V23.9995H51C51.5523 23.9995 52 24.4472 52 24.9995C52 25.5123 51.614 25.935 51.1166 25.9928L51 25.9995H40V57.9995H55C55.5523 57.9995 56 58.4472 56 58.9995C56 59.5123 55.614 59.935 55.1166 59.9928L55 59.9995H14V61.9995H66V59.9995H61C60.4477 59.9995 60 59.5518 60 58.9995C60 58.4867 60.386 58.064 60.8834 58.0062L61 57.9995ZM22 57.9995H38V25.9995H22V57.9995ZM14 25.9995H20V57.9995H14V25.9995Z" fill="#000091"/>
</g>
</g>
</svg>
