<svg width="80" height="80" viewBox="0 0 80 80" fill="none" xmlns="http://www.w3.org/2000/svg">
<g id="document">
<g id="&#240;&#159;&#145;&#129;&#239;&#184;&#143; Masquer si besoin - D&#195;&#169;corative">
<path id="Path" fill-rule="evenodd" clip-rule="evenodd" d="M75 61.9995C74.4486 61.9995 74 61.5509 74 60.9995C74 60.4481 74.4486 59.9995 75 59.9995C75.5514 59.9995 76 60.4481 76 60.9995C76 61.5509 75.5514 61.9995 75 61.9995Z" fill="#ECECFE"/>
<path id="Path_2" fill-rule="evenodd" clip-rule="evenodd" d="M55 3.99951C54.4486 3.99951 54 3.55091 54 2.99951C54 2.44806 54.4486 1.99951 55 1.99951C55.5514 1.99951 56 2.44806 56 2.99951C56 3.55091 55.5514 3.99951 55 3.99951Z" fill="#ECECFE"/>
<path id="Path_3" fill-rule="evenodd" clip-rule="evenodd" d="M3 53.9995C2.4486 53.9995 2 53.5509 2 52.9995C2 52.4481 2.4486 51.9995 3 51.9995C3.5514 51.9995 4 52.4481 4 52.9995C4 53.5509 3.5514 53.9995 3 53.9995Z" fill="#ECECFE"/>
</g>
<g id="&#240;&#159;&#142;&#168; Mineure (indice - main)">
<path d="M41 17.9995C41.5523 17.9995 42 18.4472 42 18.9995C42 19.5123 41.614 19.935 41.1166 19.9928L41 19.9995H25C24.4477 19.9995 24 19.5518 24 18.9995C24 18.4867 24.386 18.064 24.8834 18.0062L25 17.9995H41Z" fill="#E1000F"/>
<path d="M51 23.9995C51.5523 23.9995 52 24.4472 52 24.9995C52 25.5123 51.614 25.935 51.1166 25.9928L51 25.9995H25C24.4477 25.9995 24 25.5518 24 24.9995C24 24.4867 24.386 24.064 24.8834 24.0062L25 23.9995H51Z" fill="#E1000F"/>
<path d="M46 30.9995C46 30.4472 45.5523 29.9995 45 29.9995H25L24.8834 30.0062C24.386 30.064 24 30.4867 24 30.9995C24 31.5518 24.4477 31.9995 25 31.9995H45L45.1166 31.9928C45.614 31.935 46 31.5123 46 30.9995Z" fill="#E1000F"/>
</g>
<g id="Majeure">
<path d="M51 35.9995C51.5523 35.9995 52 36.4472 52 36.9995C52 37.5123 51.614 37.935 51.1166 37.9928L51 37.9995H25C24.4477 37.9995 24 37.5518 24 36.9995C24 36.4867 24.386 36.064 24.8834 36.0062L25 35.9995H51Z" fill="#000091"/>
<path d="M52 48.9995C52 48.4472 51.5523 47.9995 51 47.9995H25L24.8834 48.0062C24.386 48.064 24 48.4867 24 48.9995C24 49.5518 24.4477 49.9995 25 49.9995H51L51.1166 49.9928C51.614 49.935 52 49.5123 52 48.9995Z" fill="#000091"/>
<path d="M46 42.9995C46 42.4472 45.5523 41.9995 45 41.9995H25L24.8834 42.0062C24.386 42.064 24 42.4867 24 42.9995C24 43.5518 24.4477 43.9995 25 43.9995H45L45.1166 43.9928C45.614 43.935 46 43.5123 46 42.9995Z" fill="#000091"/>
<path d="M45 59.9995C45.5523 59.9995 46 60.4472 46 60.9995C46 61.5123 45.614 61.935 45.1166 61.9928L45 61.9995H25C24.4477 61.9995 24 61.5518 24 60.9995C24 60.4867 24.386 60.064 24.8834 60.0062L25 59.9995H45Z" fill="#000091"/>
<path d="M40 54.9995C40 54.4472 39.5523 53.9995 39 53.9995H25L24.8834 54.0062C24.386 54.064 24 54.4867 24 54.9995C24 55.5518 24.4477 55.9995 25 55.9995H39L39.1166 55.9928C39.614 55.935 40 55.5123 40 54.9995Z" fill="#000091"/>
<path fill-rule="evenodd" clip-rule="evenodd" d="M19 11.9995H57C57.5523 11.9995 58 12.4472 58 12.9995V66.9995C58 67.5518 57.5523 67.9995 57 67.9995H19C18.4477 67.9995 18 67.5518 18 66.9995V12.9995C18 12.4472 18.4477 11.9995 19 11.9995ZM56 65.9995V13.9995H20V65.9995H56Z" fill="#000091"/>
<path d="M61 19.9995C61.5128 19.9995 61.9355 20.3856 61.9933 20.8829L62 20.9995V70.9995C62 71.5123 61.614 71.935 61.1166 71.9928L61 71.9995H27C26.4477 71.9995 26 71.5518 26 70.9995C26 70.4867 26.386 70.064 26.8834 70.0062L27 69.9995H60V20.9995C60 20.4867 60.386 20.064 60.8834 20.0062L61 19.9995Z" fill="#000091"/>
</g>
</g>
</svg>
