<svg width="80" height="80" viewBox="0 0 80 80" fill="none" xmlns="http://www.w3.org/2000/svg">
<g id="video">
<g id="&#240;&#159;&#145;&#129;&#239;&#184;&#143; Masquer si besoin - D&#195;&#169;corative">
<path d="M8.7002 11.0995C8.7002 11.6995 8.3002 12.0995 7.7002 12.0995C7.1002 12.0995 6.7002 11.6995 6.7002 11.0995C6.7002 10.4995 7.1002 10.0995 7.7002 10.0995C8.3002 10.0995 8.7002 10.4995 8.7002 11.0995Z" fill="#ECECFE"/>
<path d="M49.7002 6.09952C49.7002 6.69952 49.3002 7.09952 48.7002 7.09952C48.1002 7.09952 47.7002 6.69952 47.7002 6.09952C47.7002 5.49952 48.1002 5.09952 48.7002 5.09952C49.3002 5.09952 49.7002 5.49952 49.7002 6.09952Z" fill="#ECECFE"/>
<path d="M76.7002 31.0995C76.7002 31.6995 76.3002 32.0995 75.7002 32.0995C75.1002 32.0995 74.7002 31.6995 74.7002 31.0995C74.7002 30.4995 75.1002 30.0995 75.7002 30.0995C76.3002 30.0995 76.7002 30.4995 76.7002 31.0995Z" fill="#ECECFE"/>
<path d="M59.7002 74.0995C59.7002 74.6995 59.3002 75.0995 58.7002 75.0995C58.1002 75.0995 57.7002 74.6995 57.7002 74.0995C57.7002 73.4995 58.1002 73.0995 58.7002 73.0995C59.3002 73.0995 59.7002 73.4995 59.7002 74.0995Z" fill="#ECECFE"/>
<path d="M4.7002 61.0995C4.7002 61.6995 4.3002 62.0995 3.7002 62.0995C3.1002 62.0995 2.7002 61.6995 2.7002 61.0995C2.7002 60.4995 3.1002 60.0995 3.7002 60.0995C4.3002 60.0995 4.7002 60.4995 4.7002 61.0995Z" fill="#ECECFE"/>
</g>
<g id="&#240;&#159;&#142;&#168; Mineure (indice -main)">
<path d="M37.2 46.1995C36.9 46.1995 36.5 46.0995 36.2 45.9995C35.5 45.5995 35.1 44.8995 35.1 43.9995V34.9995C35.1 34.0995 35.6 33.2995 36.2 32.9995C36.9 32.5995 37.7 32.6995 38.5 33.1995C39.2 33.5995 41.5 34.9995 43.5 36.1995C44.5 36.7995 45.4 37.3995 45.9 37.5995C46.7 38.0995 47.1 38.7995 47.1 39.4995C47.1 40.2995 46.7 40.9995 45.9 41.4995L45.5 41.7995C43.8 42.8995 39.7 45.3995 38.6 45.9995C38.1 46.0995 37.6 46.1995 37.2 46.1995ZM37.2 34.6995C37.2 34.6995 37.1 34.7995 37.1 34.9995V43.8995C37.1 44.0995 37.2 44.1995 37.2 44.1995C37.2 44.1995 37.3 44.1995 37.5 44.0995C38.5 43.5995 42.7 40.9995 44.3 39.9995L44.7 39.6995C44.9 39.5995 45 39.4995 45 39.4995C45 39.4995 44.9 39.3995 44.8 39.2995C44.3 38.9995 43.4 38.4995 42.4 37.7995C40.5 36.6995 38.2 35.1995 37.5 34.8995C37.3 34.6995 37.2 34.6995 37.2 34.6995Z" fill="#E1000F"/>
<path d="M18 20.9995C18 21.5995 17.6 21.9995 17 21.9995C16.4 21.9995 16 21.5995 16 20.9995C16 20.3995 16.4 19.9995 17 19.9995C17.6 19.9995 18 20.3995 18 20.9995Z" fill="#E1000F"/>
<path d="M22 20.9995C22 21.5995 21.6 21.9995 21 21.9995C20.4 21.9995 20 21.5995 20 20.9995C20 20.3995 20.4 19.9995 21 19.9995C21.6 19.9995 22 20.3995 22 20.9995Z" fill="#E1000F"/>
<path d="M23.5 56.9995C22.1 56.9995 21 55.8995 21 54.4995C21 53.0995 22.1 51.9995 23.5 51.9995C24.9 51.9995 26 53.0995 26 54.4995C26 55.8995 24.9 56.9995 23.5 56.9995ZM23.5 53.9995C23.2 53.9995 23 54.1995 23 54.4995C23 54.7995 23.2 54.9995 23.5 54.9995C23.8 54.9995 24 54.7995 24 54.4995C24 54.1995 23.8 53.9995 23.5 53.9995Z" fill="#E1000F"/>
<path d="M21 55.4995H17C16.4 55.4995 16 55.0995 16 54.4995C16 53.8995 16.4 53.4995 17 53.4995H21C21.6 53.4995 22 53.8995 22 54.4995C22 54.9995 21.6 55.4995 21 55.4995Z" fill="#E1000F"/>
<path d="M51 21.9995H29C28.4 21.9995 28 21.5995 28 20.9995C28 20.3995 28.4 19.9995 29 19.9995H51C51.6 19.9995 52 20.3995 52 20.9995C52 21.4995 51.6 21.9995 51 21.9995Z" fill="#E1000F"/>
<path d="M63 21.9995H55C54.4 21.9995 54 21.5995 54 20.9995C54 20.3995 54.4 19.9995 55 19.9995H63C63.6 19.9995 64 20.3995 64 20.9995C64 21.4995 63.6 21.9995 63 21.9995Z" fill="#E1000F"/>
<path d="M26 20.9995C26 21.5995 25.6 21.9995 25 21.9995C24.4 21.9995 24 21.5995 24 20.9995C24 20.3995 24.4 19.9995 25 19.9995C25.6 19.9995 26 20.3995 26 20.9995Z" fill="#E1000F"/>
</g>
<g id="Majeure">
<path d="M54 59.9995H13C12.4 59.9995 12 59.5995 12 58.9995C12 58.3995 12.4 57.9995 13 57.9995H54C54.6 57.9995 55 58.3995 55 58.9995C55 59.4995 54.6 59.9995 54 59.9995Z" fill="#000091"/>
<path d="M67 59.9995H61C60.4 59.9995 60 59.5995 60 58.9995C60 58.3995 60.4 57.9995 61 57.9995H67C67.6 57.9995 68 58.3995 68 58.9995C68 59.4995 67.6 59.9995 67 59.9995Z" fill="#000091"/>
<path d="M13 63.9995C12.4 63.9995 12 63.5995 12 62.9995V16.9995C12 16.3995 12.4 15.9995 13 15.9995H67C67.6 15.9995 68 16.3995 68 16.9995V62.9995C68 63.5995 67.6 63.9995 67 63.9995H13ZM14 61.9995H66V17.9995H14V61.9995Z" fill="#000091"/>
<path d="M67 25.9995H13C12.4 25.9995 12 25.5995 12 24.9995C12 24.3995 12.4 23.9995 13 23.9995H67C67.6 23.9995 68 24.3995 68 24.9995C68 25.4995 67.6 25.9995 67 25.9995Z" fill="#000091"/>
<path d="M29 53.9995H63C63.6 53.9995 64 54.3995 64 54.9995C64 55.5995 63.6 55.9995 63 55.9995H29C28.4 55.9995 28 55.5995 28 54.9995C28 54.3995 28.5 53.9995 29 53.9995Z" fill="#000091"/>
<path d="M63 50.9995H17C16.4 50.9995 16 50.5995 16 49.9995V28.9995C16 28.3995 16.4 27.9995 17 27.9995H63C63.6 27.9995 64 28.3995 64 28.9995V49.9995C64 50.4995 63.6 50.9995 63 50.9995ZM18 48.9995H62V29.9995H18V48.9995Z" fill="#000091"/>
</g>
</g>
</svg>
