<svg xmlns="http://www.w3.org/2000/svg" width="190" height="61.442" viewBox="0 0 190 61.442"><defs><style>.a{fill:#66257f;}.b{fill:#61934a;}</style></defs><g transform="translate(-593.747 -347.617)"><path class="a" d="M617.361,363.925a9.509,9.509,0,0,0-2.954-.689q-4.542,0-5.793,7.271h6.178l-.4,3.282h-6.25l-4.226,25.363a9.313,9.313,0,0,1-3.27,5.788,12.229,12.229,0,0,1-6.469,2.7l-.429-2.941a6.045,6.045,0,0,0,3.1-2.033,7.233,7.233,0,0,0,1.917-3.516l4.442-25.358h-3.8l.553-3.282h3.7q2.2-11.067,11.045-11.07a7.67,7.67,0,0,1,3.56.755Z" transform="translate(0 1.421)"/><path class="a" d="M619.683,386.07q0,6.8,5.721,6.793,4.26,0,6.764-4.109a17.888,17.888,0,0,0,2.51-9.5q0-6.469-5.721-6.467a7.268,7.268,0,0,0-5.1,2.057,11.7,11.7,0,0,0-3.185,5.262,20.39,20.39,0,0,0-.985,5.966m-5.017.313a18.86,18.86,0,0,1,4.233-12.371,13.317,13.317,0,0,1,10.756-5.153q4.917,0,7.513,2.654t2.593,7.527a23.018,23.018,0,0,1-1.553,8.047,15.561,15.561,0,0,1-5.06,6.94,13.24,13.24,0,0,1-8.431,2.764q-4.863,0-7.458-2.727t-2.594-7.68" transform="translate(2.515 2.554)"/><path class="a" d="M658.514,374.118a5.5,5.5,0,0,0-3.523-1.205,6.823,6.823,0,0,0-4.853,2.346,10.379,10.379,0,0,0-2.891,5.61L644.5,396.275h-4.776l4.762-26.9h4.779l-.772,4.312q3.468-4.828,8.63-4.827a16.436,16.436,0,0,1,2.746.354Z" transform="translate(5.528 2.554)"/><path class="a" d="M689.444,396.275l2.993-17.043a11.4,11.4,0,0,0,.176-1.933q0-4.382-4.436-4.385a6.329,6.329,0,0,0-3.3,1.012,7.1,7.1,0,0,0-2.519,2.463l-3.54,19.886h-4.955l3.468-19.131a4.386,4.386,0,0,0,.078-.78q0-3.451-4.76-3.45a6.152,6.152,0,0,0-3.2,1.1,8.889,8.889,0,0,0-2.671,2.435l-3.538,19.821h-4.894l3.514-19.634a13.934,13.934,0,0,0,.152-2.366,16.968,16.968,0,0,0-.5-4.536l4.605-.88a19.421,19.421,0,0,1,.528,3.541,6.767,6.767,0,0,1,3.334-2.585,12.632,12.632,0,0,1,4.839-.956q5.764,0,7.446,3.6a7.979,7.979,0,0,1,3.467-2.584,11.787,11.787,0,0,1,4.679-1.02q7.318,0,7.316,6.977a14.12,14.12,0,0,1-.224,2.441l-3.184,18Z" transform="translate(7.767 2.554)"/><path class="a" d="M698.166,396.213l4.068-22.911h-3.548l.883-3.925h8.19L703,396.213Z" transform="translate(12.553 2.616)"/><path class="a" d="M729.892,374.118a5.49,5.49,0,0,0-3.522-1.205,6.806,6.806,0,0,0-4.849,2.346,10.4,10.4,0,0,0-2.895,5.61l-2.739,15.406h-4.778l4.762-26.9h4.779l-.774,4.312q3.473-4.828,8.632-4.827a16.367,16.367,0,0,1,2.742.354Z" transform="translate(14.109 2.554)"/><path class="a" d="M731.4,396.213l4.065-22.911h-3.543l.879-3.925H741l-4.764,26.836Z" transform="translate(16.548 2.616)"/><path class="a" d="M742.618,394.677l2.491-4.523a9.279,9.279,0,0,0,2.808,1.776,8.069,8.069,0,0,0,3.137.805,5.582,5.582,0,0,0,3.687-1.2,4,4,0,0,0,1.454-3.256,2.679,2.679,0,0,0-.767-1.881,11.505,11.505,0,0,0-2.647-1.9l-3.547-1.956a6.393,6.393,0,0,1-2.452-2.348,5.987,5.987,0,0,1-.818-3.031,7.262,7.262,0,0,1,2.918-6.022,11.313,11.313,0,0,1,7.171-2.274,18.013,18.013,0,0,1,7.1,1.86L761,375.176a7.747,7.747,0,0,0-5.317-2.263,5.513,5.513,0,0,0-3.262.967,2.959,2.959,0,0,0-1.376,2.542,2.788,2.788,0,0,0,.777,1.982,10.966,10.966,0,0,0,2.691,1.852l3.524,1.908a6.077,6.077,0,0,1,2.436,2.26,5.923,5.923,0,0,1,.8,3.016,8.3,8.3,0,0,1-3.124,6.838,12.257,12.257,0,0,1-7.938,2.514,14.016,14.016,0,0,1-7.6-2.113" transform="translate(17.897 2.554)"/><path class="b" d="M620.965,368.638l-.034-1.675c1.015-.02,102.1-2.217,159.065-19.346l.483,1.6c-57.187,17.2-158.5,19.4-159.515,19.417" transform="translate(3.268)"/><path class="a" d="M705.009,356.374a3.333,3.333,0,0,1,3.348,3.361,3.211,3.211,0,0,1-.98,2.359,3.365,3.365,0,0,1-4.732,0,3.2,3.2,0,0,1-.982-2.359,3.337,3.337,0,0,1,3.346-3.361" transform="translate(12.973 1.053)"/><path class="a" d="M739.127,351.127a3.33,3.33,0,0,1,3.346,3.355,3.183,3.183,0,0,1-.979,2.361,3.35,3.35,0,1,1-2.367-5.716" transform="translate(17.075 0.422)"/></g></svg>