<?xml version="1.0" encoding="UTF-8"?>
<svg version="1.1" xmlns="http://www.w3.org/2000/svg" width="149" height="149">
<path d="M0 0 C13.85241711 12.04395889 23.60381334 29.78195285 25.12548828 48.22851562 C26.06661964 71.0927113 21.579877 90.46100574 6.296875 108.03515625 C-8.08987827 122.98517555 -25.87049491 131.33218833 -46.60546875 131.9921875 C-68.41405103 132.21995337 -87.20258254 125.81963873 -103.09765625 110.5234375 C-118.39385748 94.62836379 -124.79417212 75.83983228 -124.56640625 54.03125 C-123.9482804 34.61179633 -116.62852271 17.53754919 -103.09765625 3.5234375 C-73.99652096 -23.73696333 -30.85016779 -25.39565233 0 0 Z " fill="#FDCF00" transform="translate(124.09765625,17.4765625)"/>
<path d="M0 0 C17.6716681 2.20895851 33.06134879 11.70407416 44.6875 25.125 C59.03864238 43.61688418 63.48854091 64.22759599 60.71875 87.34765625 C57.75855284 105.88252713 46.72650523 122.42903098 32.08984375 133.86328125 C22.7165862 140.34516732 11.66080289 147 0 147 C0 98.49 0 49.98 0 0 Z " fill="#FDD000" transform="translate(88,1)"/>
<path d="M0 0 C1.02544922 -0.00128906 2.05089844 -0.00257812 3.10742188 -0.00390625 C4.72680664 0.00189453 4.72680664 0.00189453 6.37890625 0.0078125 C7.45462891 0.00394531 8.53035156 0.00007813 9.63867188 -0.00390625 C11.1787793 -0.00197266 11.1787793 -0.00197266 12.75 0 C13.69673584 0.00112793 14.64347168 0.00225586 15.61889648 0.00341797 C17.94140625 0.1328125 17.94140625 0.1328125 19.94140625 1.1328125 C19.94140625 49.6428125 19.94140625 98.1528125 19.94140625 148.1328125 C17.39865076 149.40419024 15.59332424 149.2622375 12.75 149.265625 C11.72326172 149.26691406 10.69652344 149.26820313 9.63867188 149.26953125 C8.56294922 149.26566406 7.48722656 149.26179687 6.37890625 149.2578125 C5.29931641 149.26167969 4.21972656 149.26554688 3.10742188 149.26953125 C1.56924805 149.26759766 1.56924805 149.26759766 0 149.265625 C-0.94560791 149.26449707 -1.89121582 149.26336914 -2.86547852 149.26220703 C-5.05859375 149.1328125 -5.05859375 149.1328125 -6.05859375 148.1328125 C-6.15734815 146.23683944 -6.18491572 144.33714171 -6.18557739 142.43859863 C-6.18839722 141.20178848 -6.19121704 139.96497833 -6.19412231 138.69068909 C-6.19217772 137.30746446 -6.19012953 135.92423997 -6.18798828 134.54101562 C-6.18934228 133.09423275 -6.1911222 131.64745021 -6.19329834 130.20066833 C-6.19787284 126.26069488 -6.19608305 122.32074748 -6.19291925 118.38077354 C-6.19039574 114.26658429 -6.19273317 110.15239734 -6.19430542 106.03820801 C-6.19612714 99.12784421 -6.19372074 92.21749108 -6.18896484 85.30712891 C-6.18352222 77.30631483 -6.18528487 69.30552623 -6.19079125 61.30471277 C-6.19532231 54.44783131 -6.19597296 47.59095754 -6.19335258 40.73407507 C-6.19178977 36.63330511 -6.19159616 32.53254715 -6.19488907 28.43177795 C-6.19776768 24.57738611 -6.19579228 20.72302726 -6.18999481 16.86863899 C-6.18866716 15.45000832 -6.18906142 14.03137488 -6.19125748 12.61274529 C-6.19396874 10.68417329 -6.18997437 8.75559526 -6.18557739 6.82702637 C-6.18520037 5.74521843 -6.18482334 4.66341049 -6.18443489 3.5488205 C-5.95673636 -0.8227345 -3.8646111 0.00460974 0 0 Z " fill="#FDCF00" transform="translate(68.05859375,-0.1328125)"/>
<path d="M0 0 C0 48.51 0 97.02 0 147 C-10.15323646 145.87186262 -10.15323646 145.87186262 -15.375 143.5625 C-16.37273438 143.13066406 -17.37046875 142.69882813 -18.3984375 142.25390625 C-21 141 -21 141 -24 139 C-24.36914349 136.70802879 -24.36914349 136.70802879 -24.36076355 133.78622437 C-24.36488754 132.68122086 -24.36901154 131.57621735 -24.3732605 130.43772888 C-24.36247467 129.21997269 -24.35168884 128.00221649 -24.34057617 126.74755859 C-24.34101425 125.4695488 -24.34145233 124.191539 -24.34190369 122.87480164 C-24.34276649 119.36457573 -24.32509503 115.85465567 -24.30418181 112.34450102 C-24.28546226 108.67830157 -24.28366831 105.01209557 -24.28010559 101.34585571 C-24.27077119 94.40078331 -24.24613866 87.45585211 -24.21605712 80.51084197 C-24.18255639 72.60528273 -24.16603802 64.69971685 -24.15097082 56.79410434 C-24.11959022 40.52932015 -24.06680278 24.26467808 -24 8 C-22.58725399 7.20209165 -21.17286682 6.40708872 -19.7578125 5.61328125 C-18.97035645 5.17024658 -18.18290039 4.72721191 -17.37158203 4.27075195 C-11.10969573 0.91547934 -7.32305746 0 0 0 Z " fill="#D50015" transform="translate(62,1)"/>
<path d="M0 0 C9.02057613 1.12757202 9.02057613 1.12757202 13.125 2.875 C14.30449219 3.36613281 14.30449219 3.36613281 15.5078125 3.8671875 C18.37377874 5.16989943 21.18421295 6.59210648 24 8 C24 51.23 24 94.46 24 139 C6.66666667 147 6.66666667 147 0 147 C0 98.49 0 49.98 0 0 Z " fill="#D50016" transform="translate(88,1)"/>
<path d="M0 0 C0.33 0 0.66 0 1 0 C1 26.73 1 53.46 1 81 C-9.32403917 70.67596083 -11.27614667 54.60224993 -11.4375 40.6875 C-11.34738922 25.40569843 -7.96615118 13.06806823 0 0 Z " fill="#D50016" transform="translate(11,34)"/>
<path d="M0 0 C11.47912909 15.30550546 13.06284989 34.92085091 10.69091797 53.40917969 C9.0953933 62.62369125 5.60687775 70.89189517 1 79 C0.67 79 0.34 79 0 79 C0 52.93 0 26.86 0 0 Z " fill="#D50015" transform="translate(138,35)"/>
</svg>
