<?xml version="1.0" encoding="UTF-8"?>
<svg xmlns="http://www.w3.org/2000/svg" xmlns:xlink="http://www.w3.org/1999/xlink" width="500" height="300">
<rect width="500" height="300" fill="#fff"/>
<path d="M0,0H250V300H500V150H0z" fill="#002395"/>
<g id="fleur3" transform="translate(0,84.654003)">
<g id="fleur" fill="#ffd700">
<path d="m77.32-23.2198c7.77912-3.08116,11.6093-7.74629,12.0206-14.3327,0.263311-3.9606-3.68495-8.60421-7.91112-8.71179-13.2044-0.357468-17.6182,21.1919-17.539,26.4519,0.55719-0.0014,3.30423-0.05692,3.98578-0.02985,0.602348-3.32132,0.08476-7.39229,4.30398-10.8233,4.21922-3.43169,6.08462-0.816276,6.61194,1.29521,0.52801,2.11149-1.94669,6.3657-1.47218,6.15052z"/>
<path d="m42.0531-23.2198c-7.77912-3.08116-11.6093-7.74629-12.0206-14.3327-0.26331-3.9606,3.68495-8.60421,7.91112-8.71179,13.2037-0.357468,17.6182,21.1919,17.539,26.4519-0.557884-0.0014-3.30423-0.05692-3.98578-0.02985-0.602348-3.32132-0.08476-7.39229-4.30398-10.8233-4.21922-3.43169-6.08462-0.816276-6.61263,1.29521-0.52662,2.11149,1.94808,6.3657,1.47287,6.15052z"/>
<path d="m59.7963-71.3994c8.9727,9.33788,11.3821,18.8361,5.3996,34.051-2.05229,5.08367-2.92073,11.1801-2.83666,17.5187-0.867742,0.02013-4.5652-0.02152-5.44128-0.08468,0.07712-6.26089-0.960144-12.8501-3.00479-18.0157-6.92735-15.5391-1.93488-26.0785,5.64484-33.4694h0.238299z"/>
<path d="m64.5102-16.2412c1.83692,4.90737,5.07862,6.76273,7.72909,8.0628-4.03928,1.91436-8.708-0.164505-9.58686-1.15431,0.106992,1.38336,0.216067,5.12185-0.287626,7.64842-0.3418,2.03586-1.2075,3.2103-2.6672,4.83452-1.5145-1.58744-2.4503-2.86668-2.9547-4.67137-0.6128-2.61819,0.0354-6.33308-0.0181-7.72061-0.700308,0.863475-6.28749,2.93748-9.9641,1.13418,3.42303-1.49373,6.73977-3.23178,7.81941-8.22453,0.400176,0.02429,8.92128,0.01874,9.93076,0.01874v0.07219h-0.000695z"/>
<rect height="3.16723" width="21.26" y="-19.6826" x="48.9436"/>
</g>
<use xlink:href="#fleur" x="131.85349"/>
<use xlink:href="#fleur" x="66.097492" y="48.95954"/>
</g>
<g id="lion3" transform="translate(0,84.654003)">
<g id="lion" fill="#ed2939" stroke="#000" stroke-width="0.31870806" transform="matrix(0.34828612,0,0,0.34827616,240.69322,-159.0299)">
<path d="m200.291,372.432c-8.285,4.34-16.168,4.602-21.691,1.996-5.52-2.605,0.922,3.473,3.684,6.078,2.762,2.602,1.84,5.207,1.84,7.812s-0.047,5.977,0.695,9.113c-5.523,0.867-10.82-1.301-15.422-3.906,2.711,2.984,2.336,4.727,4.375,7.062-4.66,0.043-9.062-3.918-12.914-5.859,2,2.332,3.688,5.977,5.398,8.645-3.758,0.383-8.23-4.109-10.055-5.602,0.59,1.164,1.781,6.23,2.391,9.48-4.492-1.109-5.57-7.691-8.863-7.191,0.012,0.73-0.918,3.109,0.066,5.336,1.949,4.398-2.473,2.586-3.938,2.234-3.859,0.047-4.945,1.094-4.195-4.582-0.918-1.734-3.555-3.445-3.555,0.027s-2.43,7.77-4.789,7.77c-2.367,0-3.809-2.961-4.711-5.422-4.242-3.25-1.922-6,1.758-5.129,3.68,0.867,0.898-5.211-1.859-3.473-2.762,1.734-8.305,1.77-7.383-0.832,0.922-2.605,1.445-4.676,0.523-8.145-0.922-3.477,3.387-2.883,5.227-1.148,1.844,1.738,2.656,3.848,6.336,2.98,3.684-0.867,0.277-3.848-2.484-4.734-2.758,0-2.484-3.316,1.898-5.406,3.055-5.184,7.57-5.754,6.844-0.395,0,2.605,1.238,7.832,12.445,6.57,8.281-0.867,9.66-7.168,6.336-10.48-2.066-1.637-4.258-4.98-4.551-11.227-1.348,1.102-3.184,1.945-5.684,2.008-4.242,0.254-5.641-1.559-9.281-3.012,2.266-1.188,5.637-3.031,8.941-2.43,2.727,0.027,5.367-1.434,6.371-4,1.844-4.34,5.832-4.367,9.414-3.57,4.016,0.938,13.645,0.473,13.645-1.262-4.418-1.312-9.852-5.188-11.715-10.562-0.008,4.008-2.426,6.652-5.98,5.934-1.723-0.395-4.238-0.262-5.844-0.172,1.973-1.504,4.855-6.461,2.512-9.766-1.07-1.555-1.32-4.664-1.102-6.574-0.672,0.535-2.75,3.863-1.203,6.418-2.516,0.227-4.484-2.883-7.406-3.832-0.523,1.004,1.188,3.43,1.578,4.551-1.312,0.41-2.199,0.906-5.785-0.746-0.949,2.559-0.461,3.754-0.684,4.668-1.133-0.078-3.91-0.711-5.273-2.102,0.027,1.645-0.91,2.871-1.301,4.254-1.801-0.359-3.363-0.824-4.934-2.828-0.125,1.297-1.141,1.871-0.953,3.945-2.461-0.117-5.281-3.602-8.391-6.094-0.906,2.203,2.898,11.027,0.141,10.156-4.223-1.062-8.719,1.871-8.844-1.422,0.922-2.605-0.5-2.66-3.266-0.055-2.445,2.703-7.398,5.633-7.359-2.605-3.199-4.492-2.137-5.797,2.781-5.188,4.602-0.871,6.461-2.73,2.863-3.75-6.938,1.34-8.379-1.656-5.457-4.379,0.73-2.426,0.73-4.914,3.492-4.047,4.742,2.938,6.445,0,3.68-1.734-2.758-1.734-2.152-3.883,2.281-5.211,2.656-3.488,6.004-2.602,6.004,0.871-0.629,4.16,2.152,6.586,3.996,4.852,1.84-1.738,8.984-2.426,11.746-3.297,2.762-0.867,10.949-7.633,10.949-10.238-6.086,0.211-9.766-1.125-11.898-2.453-0.277-1.707-0.547-3.027,0.207-5.484-6.004,3.039-8.602,1.57-10.277-0.023,1.328-1.215,3.469-5.605,4.391-7.254-3.359,1.406-4.457,2.453-5.957,1.77-0.629-1.715,0.488-3.449,0.887-4.812-3.551,3.066-5.875,2.949-8.977,2.469,3.207-4.684,3.801-7.137,4.516-11.895-2.148,0.965-4.477,0.809-5.898,0.895-0.305-1.547-0.738-3.922-0.125-6.199-4.34,1.074-7.09,2.164-5.734-3.195,0-2.605-1.062-5.898,2.973-4.617,1.84,0,1.738-3.16-1.027-3.16-7.141-0.492-8.844-2.508-5.188-6.688,1.043-4.969,3.453-6.191,5.297-2.309,1.836,2.605,6.961,5.102,5.52,0-3.324-5.102-5.496-9.469,0.918-8.68,5.789-1.48,5.75,1.895,4.102,5.484-0.922,3.195,2.344,4.062,3.266,2.328-0.336-3.312,1.762-5.719,4.684-2.23,3.652,4.281,4.887,6.785-0.168,9.488-2.762,2.605,6.441,9.164,9.43,16.871,4.453,1.406,11.887,5.496,16.422,7.125,2.762-2.605,14.383-8.156,24.852-7.812,7.242,0.23,9.203-2.812,10.125-5.414,0.918-2.605-2.727-0.055-3.77-2.363-1.566,1.922-4.27,1.852-5.418-0.672-4.07,4.465-9.828,6.832-8.133-0.215,0.844-3.594,0.305-6.113,2.82-6.293,15.668,2.383,14.68-6.973,9.914-8.152-5.32-1.266-13.898,5.547-12.672-4.18,0.574-4.57,0.375-2.902-1.465-3.77s2.152-4.539,4.918-4.539c4.43-0.098,5.766-2.012,7.797-4.93,0.691-0.434,10.18-0.191,13.691-0.562,4.543-0.867,15.512-4.344,20.613-3.262-1.391,3.312-2.965,3.07-3.836,5.227,3.59,0.531,7.68,1.84,8.5,2.176-1.84,1.816-2.887,3.062-4.602,4.352,3.996,0.852,4.977,0.473,4.477,6.926-0.078,4.449-0.398,10.258-5.922,10.258-5.52,0,5.055,4.234,4.707,10.246-0.355,4.695-0.582,11.59,2.43,15.586,1.887,2.574,4.594,8.57,0.711,11.992-1.246-4.23-3.402-7.688-5.738-10.289-1.348,1.762-2.516,5.395-1.168,7.535,1.652,2.715,1.594,5.52,1.594,8.992s-1.082,6.043-0.762,12.34c-1.531-0.434-3.52-2.379-4.547-4.41-0.516,2.316-2.117,3.484-2.883,10.016-3.523-2.773-4.531-6.043-4.297-8.012,0.086-6.113-0.809-5.27-2.648-8.742-0.523,1.664-0.25,3.824,0.453,7.148-2.758-1.738-3.695-2.004,0.672,4.992,3.602,5.652,4.656,21.34,11.836,24.965,4.602,0.867,6.73,4.832,9.492,6.57,2.758,1.734,7.977,0.758,13.852,8.09,10.57,7.625,18.531,0.719,12.656-10.008-1.797-3.188-8.992-7.93-9.914-11.402-5.203-0.32-10.18-2.609-9.016-8.977-6.035,0.531-9.281-6.316-5-12.25-8.246-2.391-6.992-13.043,2.992-14.859,0.797-10.09,14.457-19.59,21.164-24.109,5.43-3.602,19.715-15.027,11.531-27.668-5.18-8.016-15.656-2.844-14.289,5.094,0.699,3.949,4.594,4.691,10.039,3.277,0.188,4.109-7.664,12.016-13.117,5.504,0.125,3.535-0.652,8.52-7.551,10.453-4.602,1.738-4.574,4.816-3.574,9.488-8.484-0.207-12.488-7.906-10.648-13.113,1.844-5.211,7.703-5.273,7.703-7.875,0-2.605-6.727-3.375-7.531-7.734-0.93-5.105,1.164-9.324,5.391-10.418-1.836,5.898,5.469,8.812,9.875,3.453,7.629-9.246,21.062-11.258,27.023-4.68,4.039,4.457,10.148,14.992,2.695,26.047-4.531,6.711-16.238,15.652-20.82,18.016-1.672,0.953-7.402,5.25-7.434,7.73,3.965-2.656,7.16-2.562,9.852-3.605-0.168,2.992-11.129,8.332-9.789,12.555,2.797-2.152,11.012-5.633,15.305-9.969,2.449,8.129-19.176,15.312-16.332,20.945,2.453-3.594,15.289-6.555,20.391-11.359-0.32,5.176-4.371,10.59-11.98,14.895-8.762,4.699-6.672,9.551-4.262,11.344,1.594-7.176,11.406-9.133,17.422-16.445,1.316,3.715-2.164,9.738-6.387,14.453-4.117,4.027-3.926,7.207-0.246,12.414,3.68,5.211,10.164,14.465,7.398,18.805-2.758,4.34,6.555-4.43,13.539,2.488,1.82,1.98,4.273,4.477,10.031,5.398-1.723,2.234-3.996,4.023-9.035,1.996-5.168-3.664-7.855-2.59-11.203-0.02-6.27,5.621-15.285,9.855-26.668,0.492-4.605-4.34-6.547-7.59-11.93-7.52,2.762,6.078-1.164,11.922-1.164,16.262,0,4.344,0.121,7.52,7.484,8.387,7.359,0.871,9.078,6.375,12.758,5.504,1.668-0.688,3.395-0.234,5.164-0.781,0.168,1.75,0.781,4.414-2.727,5.281-4.602,1.734-1.797,2.02,0.039,4.625,0.906,1.559,0.473,3.738,0.695,6.012-0.148,2.793,2.555,4.438,5.492,4.832-2.055,2.41-6.125,2.996-8.98,0.711,2.117,5.469-0.832,6.512-4.512,3.906,3.105,4.488-2.438,5.031-7.039,3.297,2.18,2.5,4.695,5.129,0.477,6.746-4.328,4.277-4.25,0.969-6.094-1.637-1.84-2.605-3.52,5.301-5.293,6.426-2.926,0.34-3.91-3.902-7.59-4.77-2.117-1.363,1.125-2.348,2.43-3.473,1.609-1.129-1.172-1.602-4.852,0.133-3.68,1.738-5.027,1.406-3.793-3.543,1.129-5.934,2.77-4.199,6.363-2.445,3.703-0.805-5.758-3.371,0.523-7.402,0.633-2.715,2.609-5.422,6.039,0.062,4.602,1.734,3.914-3.578,2.992-6.184-0.918-2.602-8.746-7.059-10.625-10.926-2.621,6.281-5.457,9.785-13.012,11.617,0.762-3.332-0.297-5.969,1.918-8.152,2.758-4.34-0.871-6.07-0.871-10.41-4.07-4.538-1.46-13.667-0.398-18.492z"/>
<path d="m183.252,264.87c-4.547-1.785-8.379-2.691-12.926-2.332-4.547,0.355-10.23-1.43-11.367-3.934-1.137-2.5-3.789-6.789-7.195-7.145-1.707-0.18-4.258,0.938-5.645,2.262,1.246,0.707,2.324,2.785,3.273,4.57,2.395,4.305,8.43,13.18,16.387,8.891,3.031-1.785,8.016-2.848,10.289-2.492,2.273,0.359,5.75,0.988,7.18,0.246l0.004-0.066z"/>
<path d="m163.885,334.015c1.137,4.645,2.652,11.438,6.062,13.938s11.363,5.719,17.047,6.789c5.684,1.074,10.609,5.004,12.504,8.578s0.758,8.578,0.758,8.578"/>
<path d="m165.779,288.628c-5.684,2.145-8.723,7.293-13.262,10.52-2.707,1.844-8.219,5.387-10.988,5.918,2.68,1.699,8.816,3.121,13.762,0.652-1.766,7.293,2.582,7.211,2.531,18.648,2.902-0.324,6.062-6.434,6.82-9.652,0.758-3.215-0.465-6.438,0.984-9.129-0.043,2.84,0.926,5.172,2.824,8.031,1.891,2.859,2.254,5.746,1.117,8.605,4.727-3.707,3.719-11.312,3.648-16.121,2.312,2.117,2.824,9.426,1.273,14.332,2.164-0.625,4.395-1.906,5.469-7.938,1.738,2.762,3.773,11.836,2.867,14.016,3.223,0.074,6.031-4.332,5.719-9.324,0.594,0.457,2.211,2.117,2.801,2.707,0.676-1.906-0.301-5.367-0.066-8.039,0.727,0.676,2.312,1.73,2.898,2.582,0.836,0.77,2.805,3.32,5.695,4.488"/>
<path d="m205.178,272.901c4.93,2.859,9.758,7.414,9.758,21.711"/>
<path d="m201.014,279.335c5.305,3.93,7.195,8.578,6.438,14.293-0.758,5.719-3.43,5.258-3.406,10.008-0.055,2.086,2.273,5.488,3.789,7.504,1.742,2.258,2.719,6.02,2.199,8.059"/>
<path d="m207.217,294.702c0.379,4.645,0.055,7.129,1.75,10.008,1.523,2.395,3.031,10.664,0.832,15.539"/>
<path d="m197.225,293.628c3.41,4.289,0,5.363-1.137,8.938s2.535,5.379,4.137,9.621"/>
<path d="m193.057,290.413c0.758,5.004,0,6.789-1.516,10.008-1.516,3.215-3.035,8.027-0.395,11.453"/>
<path d="m186.994,299.706c-2.27,5.359-2.301,13.227,1.488,17.516"/>
<path d="m184.342,293.987c-4.922,4.289-6.242,13.293-4.18,18.898"/>
<path d="m169.947,298.991c-1.895,2.145-3.77,4.621-4.348,6.645"/>
<path d="m169.947,291.487c-1.895,3.215-6.34,5.945-9.754,7.375-3.406,1.43-5.023,6.918-5.023,6.918"/>
<path d="m236.248,267.542c-4.133,4.336-5.945,5.578-8.336,8.574-2.293,2.801-2.805,8.023-0.477,11.098"/>
<path d="m234.732,300.421c-2.273,2.145-3.031,6.074-3.031,6.789"/>
<path d="m232.838,309.714c-1.895,2.855-2.273,10.719-2.273,10.719"/>
<path d="m237.006,320.792c-4.547,3.93-3.789,9.293-3.789,9.293"/>
<path d="m241.928,335.64c-0.766,1.105,2.281,5.469,4.547,5.164"/>
<path d="m258.6,373.327c-4.547,2.145-6.828,2.906-11.367,1.07"/>
<path d="m236.998,400.53c3.031,3.219,2.281,11.75-2.266,14.969-4.547,3.215-2.273,0.715-2.273,0.715"/>
<path d="m223.904,366.792c-1.137,5-5.844,8.32-5.844,8.32"/>
<path d="m225.42,369.089c-2.273,6.434-8.117,9.957-8.117,9.957"/>
<path d="m224.717,376.901c-4.168,5.719-9.688,9.289-9.688,9.289"/>
<path d="m223.256,382.925c-2.648,3.93-5.953,6.125-5.953,6.125"/>
<path d="m223.744,387.265c-2.652,2.859-6.059,4.645-6.059,4.645"/>
<path d="m226.018,390.124c-1.895,2.5-3.41,5.359-3.41,5.359"/>
<path d="m173.357,376.542c3.031,4.289,7.953,3.574,7.578,7.148-1.047,4.156,0.422,9.605,1.609,11.66"/>
<path d="m172.975,381.546c2.656,2.859,2.656,3.219,2.656,5.719s2.273,5.719,2.273,5.719"/>
<path d="m167.674,385.475c1.137,2.145,4.168,5.363,4.168,5.363"/>
<path d="m160.096,388.694c1.516,1.43,3.789,2.859,3.789,2.859"/>
<path d="m175.631,258.964c2.273-2.504,8.008-3.676,9.898-1.891,1.895,1.785,7.906,7.965,7.906,7.965"/>
<path d="m206.318,256.104c3.789-3.215,9.094-3.574,9.094-3.574s1.891,5.004,0.375,7.504c-1.516,2.504-9.469,2.504-9.469,2.504"/>
<path d="m193.814,315.788c-0.379,4.645-3.789,14.297-3.789,14.297"/>
<path d="m196.088,318.647c-0.379,5.359-3.789,13.223-3.789,13.223"/>
<path d="m198.361,323.651c-0.379,5.359-3.031,10.363-3.031,10.363"/>
<path d="m201.014,330.085c-1.516,5-3.031,8.219-3.031,8.219"/>
<path d="m202.529,335.085c-0.758,3.574-2.652,7.148-2.652,7.148"/>
<path d="m204.424,338.304c0,2.145-1.137,4.645-1.137,4.645"/>
<path d="m154.033,318.647c-0.758,6.074-2.602,7.391-4.598,4.691,0.266,2.809-1.418,4.645-4.445,3.477-0.758,0.973-2.703,2.195-2.703,2.195"/>
<path d="m138.498,327.581c-0.758,2.859-1.133,6.789-4.164,6.074"/>
<path d="m119.557,282.909c3.031,0.355,5.305,0.355,5.305,0.355"/>
<path d="m121.83,287.198c6.062,0.715,6.062,0.715,6.062,0.715"/>
<path d="m125.619,291.128c4.168,2.145,6.82,1.074,6.82,1.074"/>
<path d="m129.408,295.417c3.031,1.43,6.441,0,6.441,0"/>
<path d="m135.092,300.421c4.547,0.715,6.82-1.789,6.82-1.789"/>
<path d="m154.096,288.151c-1.316,1-2.652,2.605-2.48,3.941,1.891,0,7.965,0.531,7.965,0.531"/>
<path d="m188.889,375.112c-1.895-6.074-10.227-13.223-10.227-13.223"/>
<path d="m183.209,375.112c-0.758-4.645-9.094-12.863-9.094-12.863"/>
<path d="m179.037,373.682c-0.375-2.859-8.711-10.363-8.711-10.363"/>
<path d="m176.389,372.968c-1.898-2.5-8.715-7.145-8.715-7.145"/>
<path d="m172.975,374.757c0.383-2.504-3.406-3.934-3.406-3.934"/>
<path d="m199.877,369.753c-4.926,2.145-10.609-1.074-11.367-5.359-0.758-4.289-8.715-5.719-8.715-5.719"/>
<path d="m186.994,272.546c0.758,3.57,1.895,7.504,0.758,10.004-1.137,2.504,6.82-3.574,5.684-6.434-1.137-2.855,3.031,1.43,1.895,4.648-1.137,3.215,5.684-4.289,4.926-7.863s2.273-1.07,2.273,2.145,3.406-4.289,2.648-6.074c-0.754-1.789-0.754-1.789-0.754-1.789"/>
<path d="m196.998,245.065c1.703,1.684,3.777,1.633,5.68,1.293,1.906-0.344,7.117-2.91,7.766-3.297"/>
<path d="m204.803,251.815c1.891-2.145,7.953-2.5,7.953-2.5"/>
<path d="m128.857,261.155c5.496-7.727-2.398-16.906-5.809-17.266,0.758,2.504,3.41,6.434,0.379,10.723,2.652,2.859,3.785,4.875,5.301,6.305v0.043l0.129,0.195z"/>
<path d="m117.686,250.604c-2.578-9-14.379-9.004-16.957-6.867,2.469,1.16,7.332,1.965,8.645,6.965,4.026,0.082,6.167-0.008,8.312-0.098z"/>
<path d="m103.256,257.999c-10.828-3.223-14.867,2.469-15.566,5.641,2.715-0.477,7.113-2.594,11.352,0.656,3.27-2.219,2.566-4.938,4.223-6.227l-0.009-0.07z"/>
<path d="m134.232,376.194c-7.793-5.723-17.977,0.613-17.922,4.141,2.711-0.477,8.266-1.652,12.504,1.598,3.27-2.219,3.77-4.45,5.418-5.739z"/>
<path d="m114.592,318.124c-6.273-7.195-17.027-2.609-18.445,0.336,2.758,0.098,7.539-1.062,10.922,2.988,3.702-1.492,5.617-2.406,7.523-3.324z"/>
<path d="m102.908,327.534c-11.625-4.348-14.129-0.008-15.367,3.012,2.758-0.051,8.012-0.637,11.633,3.227,3.605-1.688,2.125-4.653,3.734-6.239z"/>
<path d="m99.248,341.702c-9.008,1.074-9.629,8.027-8.609,11.117,2.125-1.656,4.879-5.527,10.258-4.629,1.714-3.437-2.43-4.605-1.649-6.488z"/>
<path d="m121.021,387.788c-9.758-1.43-11.898,6.957-10.879,10.047,2.129-1.66,5.258-3.742,10.637-2.844,1.715-3.437-0.535-5.32,0.242-7.203z"/>
<path d="m126.482,403.499c-9.281,3.195-7.133,13.211-4.656,15.453,1.016-2.418,2.98-7.277,8.152-8.941-0.261-3.793-3.214-4.508-3.496-6.512z"/>
<path d="m215.537,412.077c-8.586-4.609-14.094,1.719-14.305,4.949,2.609-0.84,5.414-2.551,10.105,0.094,2.895-2.641,2.763-3.543,4.2-5.043z"/>
<path d="m208.279,421.182c-8.594-2.766-14.664,4.133-14.59,7.371,2.527-1.039,7.449-2.961,12.355-0.691,2.656-2.855,0.93-4.719,2.234-6.32l-0.051-0.047,0.052-0.313z"/>
<path d="m213.99,431.882c-6.961,6.609-1.992,14.535,1.258,15.574-0.172-2.598,0.016-7.145,3.949-10.723-1.941-3.328-4.051-3.148-5.207-4.851z"/>
<path d="m235.365,430.198c3.617,8.672-3.199,12.449-6.617,12.188,1.25-2.32,3.129-3.914,1.023-8.668,3.18-2.332,3.82-2.391,5.598-3.52h-0.004z"/>
<path d="m149.662,408.761c-1.273,9.242-11.453,11.094-14.312,9.305,2.285-1.461,5.938-4.887,6.527-10.012,3.98-0.59,5.652,0.886,7.785,0.707z"/>
<path d="m121.186,349.432c-1.273,9.238-11.07,8.59-13.93,6.801,2.281-1.461,4.715-1.441,5.305-6.566,3.976-0.59,6.492-0.055,8.625-0.235z"/>
<path d="m104.596,280.311c-9.723-1.645-10.746-12.734-8.715-15.34,1.438,2.219,2.703,6.723,8.102,7.523,0.437,3.778,0.523,5.798,0.613,7.817z"/>
<path d="m155.49,309.018c-4.215,0.609-9.547,1.832-12.141,3.973"/>
<path d="m181.271,245.112c-1.617,10.398,5.836,9.48,7.457,0.613"/>
<path d="m181.225,245.667c1.625,0.609,5.68,1.219,7.102,0.406"/>
<path d="m223.893,254.35c-1.59,5.824,4.605,9.766,9.535,9.965"/><ellipse cx="184.1116" cy="249.3323" rx="1.574" ry="1.857" stroke-width="0.508"/></g>
<use xlink:href="#lion" x="139.31398"/>
<use xlink:href="#lion" x="73.139973" y="60.078137"/>
</g>
<use xlink:href="#fleur3" x="250" y="150"/>
<use xlink:href="#lion3" x="-250" y="150"/>
</svg>