<?xml version="1.0" encoding="UTF-8"?>
<svg xmlns="http://www.w3.org/2000/svg" xmlns:xlink="http://www.w3.org/1999/xlink" version="1.1" viewBox="0 0 45.37 45.37">
  <!-- Generator: Adobe Illustrator 29.2.0, SVG Export Plug-In . SVG Version: 2.1.0 Build 108)  -->
  <defs>
    <style>
      .st0 {
        stroke-width: .28px;
      }

      .st0, .st1 {
        fill: #fff;
        stroke: #263238;
        stroke-linecap: round;
        stroke-linejoin: round;
      }

      .st1 {
        stroke-width: .28px;
      }

      .st2, .st3, .st4 {
        fill: #263238;
      }

      .st5 {
        fill: #3a3a3a;
      }

      .st6 {
        isolation: isolate;
      }

      .st7 {
        clip-path: url(#clippath-1);
      }

      .st8 {
        fill: #b7fdc8;
      }

      .st9 {
        opacity: .1;
      }

      .st3 {
        opacity: .42;
      }

      .st3, .st4 {
        mix-blend-mode: multiply;
      }

      .st4 {
        opacity: .41;
      }

      .st10 {
        clip-path: url(#clippath);
      }
    </style>
    <clipPath id="clippath">
      <polygon class="st2" points="20.86 27.22 23.15 39.3 25.93 36.58 30.99 36.97 25.93 24.17 20.86 27.22"/>
    </clipPath>
    <clipPath id="clippath-1">
      <polygon class="st2" points="17.02 24.9 13.17 37.42 17.76 36.01 21.2 38.94 22.34 26.59 17.02 24.9"/>
    </clipPath>
  </defs>
  <g class="st6">
    <g id="Calque_1">
      <g class="st9">
        <path class="st2" d="M39.9,26.13c.24-.5-.9-1.07-.75-1.57.16-.5,1.66-1.08,1.72-1.56.07-.48-1.31-.75-1.32-1.22,0-.47,1.31-1.34,1.2-1.79-.11-.45-1.62-.36-1.79-.78-.18-.42.87-1.49.6-1.86-.27-.38-1.8.05-2.15-.28-.35-.33.36-1.52-.05-1.8-.42-.28-1.85.46-2.31.25-.47-.21-.17-1.44-.7-1.58-.53-.15-1.72.83-2.28.77-.57-.07-.69-1.24-1.29-1.24-.6,0-1.49,1.15-2.09,1.22-.6.07-1.17-.93-1.77-.8-.6.13-1.13,1.37-1.74,1.58-.61.2-1.55-.55-2.14-.28-.59.27-.67,1.48-1.23,1.81-.56.33-1.8-.12-2.32.25-.52.38-.15,1.46-.63,1.89-.48.42-1.91.31-2.32.77-.41.46.37,1.33.03,1.81-.33.49-1.87.73-2.12,1.23-.25.51.87,1.08.7,1.59-.17.51-1.68,1.09-1.76,1.59-.08.49,1.29.76,1.3,1.24,0,.48-1.35,1.36-1.25,1.81.1.45,1.63.36,1.82.78.19.42-.9,1.51-.63,1.89.28.38,1.82-.07,2.17.26.35.33-.38,1.53.04,1.8.13.09.38.06.65,0l-3.62,5.05,4.97-1.15,2.63,2.4,2.06-4.58s0,0,.01,0c.17,0,.37-.1.58-.24l-.8,5.11,3.52-2.22,4.95.33-.91-4.73c.19.03.37.03.53-.04.6-.27.65-1.47,1.21-1.79.56-.33,1.83.11,2.34-.27.52-.38.12-1.44.6-1.86.48-.42,1.92-.32,2.32-.77.4-.45-.4-1.3-.07-1.79.33-.48,1.86-.72,2.1-1.22Z"/>
      </g>
      <g>
        <polygon class="st2" points="20.86 27.22 23.15 39.3 25.93 36.58 30.99 36.97 25.93 24.17 20.86 27.22"/>
        <g class="st10">
          <path class="st4" d="M35.2,21.14c0-.62,1.32-1.35,1.22-1.94s-1.57-.91-1.74-1.48.88-1.66.62-2.21-1.76-.42-2.08-.93.38-1.84-.02-2.29-1.81.09-2.27-.3-.15-1.87-.66-2.2-1.72.6-2.27.35-.67-1.75-1.26-1.92-1.46,1.05-2.06.98-1.13-1.49-1.74-1.49-1.12,1.43-1.71,1.52-1.51-1.11-2.08-.94-.67,1.69-1.22,1.94-1.76-.64-2.27-.31-.16,1.81-.62,2.21-1.87-.12-2.27.35.36,1.77.02,2.29-1.83.41-2.08.97.84,1.6.67,2.2-1.64.9-1.71,1.52,1.26,1.3,1.26,1.92-1.32,1.34-1.22,1.94,1.57.91,1.74,1.48-.88,1.66-.63,2.21,1.76.42,2.1.93-.39,1.84.02,2.29,1.81-.09,2.27.3.15,1.87.66,2.2,1.72-.6,2.27-.35.67,1.75,1.26,1.92,1.46-1.05,2.06-.98,1.13,1.49,1.74,1.49,1.12-1.43,1.71-1.52,1.52,1.11,2.08.94.67-1.68,1.22-1.94,1.76.64,2.27.3.16-1.8.62-2.21,1.87.12,2.27-.35-.36-1.77-.02-2.29,1.83-.41,2.08-.97-.84-1.6-.67-2.2,1.64-.91,1.71-1.52-1.27-1.31-1.28-1.92Z"/>
        </g>
      </g>
      <g>
        <polygon class="st2" points="17.02 24.9 13.17 37.42 17.76 36.01 21.2 38.94 22.34 26.59 17.02 24.9"/>
        <g class="st7">
          <path class="st3" d="M35.35,21.13c0-.62,1.32-1.35,1.22-1.94s-1.57-.91-1.74-1.48.88-1.66.62-2.21-1.76-.42-2.08-.93.38-1.84-.02-2.29-1.81.09-2.27-.3-.15-1.87-.66-2.2-1.72.6-2.27.35-.67-1.75-1.26-1.92-1.46,1.05-2.06.98-1.13-1.49-1.74-1.49-1.12,1.43-1.71,1.52-1.51-1.11-2.08-.94-.67,1.69-1.22,1.94-1.76-.64-2.27-.31-.16,1.81-.62,2.21-1.87-.12-2.27.35.36,1.77.02,2.29-1.83.41-2.08.97.84,1.6.67,2.2-1.64.9-1.71,1.52,1.26,1.3,1.26,1.92-1.32,1.34-1.22,1.94,1.57.91,1.74,1.48-.88,1.66-.63,2.21,1.76.42,2.1.93-.39,1.84.02,2.29,1.81-.09,2.27.3.15,1.87.66,2.2,1.72-.6,2.27-.35.67,1.75,1.26,1.92,1.46-1.05,2.06-.98,1.13,1.49,1.74,1.49,1.12-1.43,1.71-1.52,1.52,1.11,2.08.94.67-1.68,1.22-1.94,1.76.64,2.27.3.16-1.8.62-2.21,1.87.12,2.27-.35-.36-1.77-.02-2.29,1.83-.41,2.08-.97-.84-1.6-.67-2.2,1.64-.91,1.71-1.52-1.27-1.31-1.28-1.92Z"/>
        </g>
      </g>
      <path class="st2" d="M33.9,19.67c0-.62,1.32-1.35,1.22-1.94s-1.57-.91-1.74-1.48.88-1.66.62-2.21-1.76-.42-2.08-.93.38-1.84-.02-2.29-1.81.09-2.27-.3-.15-1.87-.66-2.2-1.72.6-2.27.35-.67-1.75-1.26-1.92-1.46,1.05-2.06.98-1.13-1.49-1.74-1.49-1.12,1.43-1.71,1.52-1.51-1.11-2.08-.94-.67,1.69-1.22,1.94-1.76-.64-2.27-.31-.16,1.81-.62,2.21-1.87-.12-2.27.35.36,1.77.02,2.29-1.83.41-2.08.97.84,1.6.67,2.2-1.64.9-1.71,1.52,1.26,1.3,1.26,1.92-1.32,1.34-1.22,1.94,1.57.91,1.74,1.48-.88,1.66-.63,2.21,1.76.42,2.1.93-.39,1.84.02,2.29,1.81-.09,2.27.3.15,1.87.66,2.2,1.72-.6,2.27-.35.67,1.75,1.26,1.92,1.46-1.05,2.06-.98,1.13,1.49,1.74,1.49,1.12-1.43,1.71-1.52,1.52,1.11,2.08.94.67-1.68,1.22-1.94,1.76.64,2.27.3.16-1.8.62-2.21,1.87.12,2.27-.35-.36-1.77-.02-2.29,1.83-.41,2.08-.97-.84-1.6-.67-2.2,1.64-.91,1.71-1.52-1.27-1.31-1.28-1.92Z"/>
      <circle class="st0" cx="21.72" cy="19.77" r="10.97"/>
      <circle class="st1" cx="21.72" cy="19.77" r="10.14"/>
      <circle class="st8" cx="21.74" cy="19.75" r="8.96"/>
      <g>
        <path class="st2" d="M14.72,18.34l-.77.45-.56-.81,1.39-.83h1.08v4.71h-1.14v-3.52Z"/>
        <path class="st2" d="M20.38,19.52c0,1.42-.57,2.49-1.86,2.49s-1.86-1.07-1.86-2.49.58-2.49,1.86-2.49,1.86,1.07,1.86,2.49ZM17.83,19.52c0,.91.22,1.44.7,1.44s.69-.53.69-1.44-.22-1.44-.69-1.44-.7.53-.7,1.44Z"/>
        <path class="st2" d="M24.48,19.52c0,1.42-.57,2.49-1.86,2.49s-1.86-1.07-1.86-2.49.58-2.49,1.86-2.49,1.86,1.07,1.86,2.49ZM21.93,19.52c0,.91.22,1.44.7,1.44s.69-.53.69-1.44-.22-1.44-.69-1.44-.7.53-.7,1.44Z"/>
        <path class="st2" d="M27.16,18.14c0,.65-.47,1.12-1.16,1.12s-1.16-.48-1.16-1.12.47-1.12,1.16-1.12,1.16.48,1.16,1.12ZM28.63,17.16h1.08l-3.46,4.71h-1.08l3.46-4.71ZM26.39,18.14c0-.28-.17-.42-.39-.42s-.39.15-.39.42.17.43.39.43.39-.16.39-.43ZM30.05,20.88c0,.65-.47,1.12-1.16,1.12s-1.16-.48-1.16-1.12.47-1.12,1.16-1.12,1.16.48,1.16,1.12ZM29.29,20.88c0-.28-.17-.42-.39-.42s-.39.15-.39.42.17.43.39.43.39-.16.39-.43Z"/>
      </g>
    </g>
  </g>
</svg>