<?xml version="1.0" encoding="UTF-8"?>
<svg xmlns="http://www.w3.org/2000/svg" xmlns:xlink="http://www.w3.org/1999/xlink" version="1.1" viewBox="0 0 45.37 45.37">
  <!-- Generator: Adobe Illustrator 29.2.0, SVG Export Plug-In . SVG Version: 2.1.0 Build 108)  -->
  <defs>
    <style>
      .st0 {
        stroke-width: .28px;
      }

      .st0, .st1 {
        stroke: #263238;
        stroke-linecap: round;
        stroke-linejoin: round;
      }

      .st0, .st1, .st2 {
        fill: #fff;
      }

      .st1 {
        stroke-width: .28px;
      }

      .st3, .st4, .st5 {
        fill: #263238;
      }

      .st6 {
        fill: #3a3a3a;
      }

      .st7 {
        isolation: isolate;
      }

      .st8 {
        clip-path: url(#clippath-1);
      }

      .st9 {
        fill: #b7fdc8;
      }

      .st10 {
        opacity: .1;
      }

      .st4 {
        opacity: .42;
      }

      .st4, .st5 {
        mix-blend-mode: multiply;
      }

      .st5 {
        opacity: .41;
      }

      .st11 {
        clip-path: url(#clippath);
      }
    </style>
    <clipPath id="clippath">
      <polygon class="st3" points="19.56 26.07 21.85 38.14 24.63 35.42 29.69 35.82 24.63 23.02 19.56 26.07"/>
    </clipPath>
    <clipPath id="clippath-1">
      <polygon class="st3" points="15.72 23.74 11.87 36.26 16.45 34.85 19.9 37.78 21.04 25.44 15.72 23.74"/>
    </clipPath>
  </defs>
  <g class="st7">
    <g id="Calque_1">
      <g class="st10">
        <path class="st3" d="M39.17,24.97c.24-.5-.9-1.07-.75-1.57.16-.5,1.66-1.08,1.72-1.56.07-.48-1.31-.75-1.32-1.22,0-.47,1.31-1.34,1.2-1.79-.11-.45-1.62-.36-1.79-.78-.18-.42.87-1.49.6-1.86-.27-.38-1.8.05-2.15-.28-.35-.33.36-1.52-.05-1.8-.42-.28-1.85.46-2.31.25-.47-.21-.17-1.44-.7-1.58-.53-.15-1.72.83-2.28.77-.57-.07-.69-1.24-1.29-1.24-.6,0-1.49,1.15-2.09,1.22-.6.07-1.17-.93-1.77-.8-.6.13-1.13,1.37-1.74,1.58-.61.2-1.55-.55-2.14-.28-.59.27-.67,1.48-1.23,1.81-.56.33-1.8-.12-2.32.25-.52.38-.15,1.46-.63,1.89-.48.42-1.91.31-2.32.77-.41.46.37,1.33.03,1.81-.33.49-1.87.73-2.12,1.23-.25.51.87,1.08.7,1.59-.17.51-1.68,1.09-1.76,1.59-.08.49,1.29.76,1.3,1.24,0,.48-1.35,1.36-1.25,1.81.1.45,1.63.36,1.82.78.19.42-.9,1.51-.63,1.89.28.38,1.82-.07,2.17.26.35.33-.38,1.53.04,1.8.13.09.38.06.65,0l-3.62,5.05,4.97-1.15,2.63,2.4,2.06-4.58s0,0,.01,0c.17,0,.37-.1.58-.24l-.8,5.11,3.52-2.22,4.95.33-.91-4.73c.19.03.37.03.53-.04.6-.27.65-1.47,1.21-1.79.56-.33,1.83.11,2.34-.27.52-.38.12-1.44.6-1.86.48-.42,1.92-.32,2.32-.77.4-.45-.4-1.3-.07-1.79.33-.48,1.86-.72,2.1-1.22Z"/>
      </g>
      <g>
        <polygon class="st3" points="19.56 26.07 21.85 38.14 24.63 35.42 29.69 35.82 24.63 23.02 19.56 26.07"/>
        <g class="st11">
          <path class="st5" d="M33.9,19.98c0-.62,1.32-1.35,1.22-1.94s-1.57-.91-1.74-1.48.88-1.66.62-2.21-1.76-.42-2.08-.93.38-1.84-.02-2.29-1.81.09-2.27-.3-.15-1.87-.66-2.2-1.72.6-2.27.35-.67-1.75-1.26-1.92-1.46,1.05-2.06.98-1.13-1.49-1.74-1.49-1.12,1.43-1.71,1.52-1.51-1.11-2.08-.94-.67,1.69-1.22,1.94-1.76-.64-2.27-.31-.16,1.81-.62,2.21-1.87-.12-2.27.35.36,1.77.02,2.29-1.83.41-2.08.97.84,1.6.67,2.2-1.64.9-1.71,1.52,1.26,1.3,1.26,1.92-1.32,1.34-1.22,1.94,1.57.91,1.74,1.48-.88,1.66-.63,2.21,1.76.42,2.1.93-.39,1.84.02,2.29,1.81-.09,2.27.3.15,1.87.66,2.2,1.72-.6,2.27-.35.67,1.75,1.26,1.92,1.46-1.05,2.06-.98,1.13,1.49,1.74,1.49,1.12-1.43,1.71-1.52,1.52,1.11,2.08.94.67-1.68,1.22-1.94,1.76.64,2.27.3.16-1.8.62-2.21,1.87.12,2.27-.35-.36-1.77-.02-2.29,1.83-.41,2.08-.97-.84-1.6-.67-2.2,1.64-.91,1.71-1.52-1.27-1.31-1.28-1.92Z"/>
        </g>
      </g>
      <g>
        <polygon class="st3" points="15.72 23.74 11.87 36.26 16.45 34.85 19.9 37.78 21.04 25.44 15.72 23.74"/>
        <g class="st8">
          <path class="st4" d="M34.05,19.98c0-.62,1.32-1.35,1.22-1.94s-1.57-.91-1.74-1.48.88-1.66.62-2.21-1.76-.42-2.08-.93.38-1.84-.02-2.29-1.81.09-2.27-.3-.15-1.87-.66-2.2-1.72.6-2.27.35-.67-1.75-1.26-1.92-1.46,1.05-2.06.98-1.13-1.49-1.74-1.49-1.12,1.43-1.71,1.52-1.51-1.11-2.08-.94-.67,1.69-1.22,1.94-1.76-.64-2.27-.31-.16,1.81-.62,2.21-1.87-.12-2.27.35.36,1.77.02,2.29-1.83.41-2.08.97.84,1.6.67,2.2-1.64.9-1.71,1.52,1.26,1.3,1.26,1.92-1.32,1.34-1.22,1.94,1.57.91,1.74,1.48-.88,1.66-.63,2.21,1.76.42,2.1.93-.39,1.84.02,2.29,1.81-.09,2.27.3.15,1.87.66,2.2,1.72-.6,2.27-.35.67,1.75,1.26,1.92,1.46-1.05,2.06-.98,1.13,1.49,1.74,1.49,1.12-1.43,1.71-1.52,1.52,1.11,2.08.94.67-1.68,1.22-1.94,1.76.64,2.27.3.16-1.8.62-2.21,1.87.12,2.27-.35-.36-1.77-.02-2.29,1.83-.41,2.08-.97-.84-1.6-.67-2.2,1.64-.91,1.71-1.52-1.27-1.31-1.28-1.92Z"/>
        </g>
      </g>
      <path class="st3" d="M32.43,18.51c0-.62,1.32-1.35,1.22-1.94s-1.57-.91-1.74-1.48.88-1.66.62-2.21-1.76-.42-2.08-.93.38-1.84-.02-2.29-1.81.09-2.27-.3-.15-1.87-.66-2.2-1.72.6-2.27.35-.67-1.75-1.26-1.92-1.46,1.05-2.06.98-1.13-1.49-1.74-1.49-1.12,1.43-1.71,1.52-1.51-1.11-2.08-.94-.67,1.69-1.22,1.94-1.76-.64-2.27-.31-.16,1.81-.62,2.21-1.87-.12-2.27.35.36,1.77.02,2.29-1.83.41-2.08.97.84,1.6.67,2.2-1.64.9-1.71,1.52,1.26,1.3,1.26,1.92-1.32,1.34-1.22,1.94,1.57.91,1.74,1.48-.88,1.66-.63,2.21,1.76.42,2.1.93-.39,1.84.02,2.29,1.81-.09,2.27.3.15,1.87.66,2.2,1.72-.6,2.27-.35.67,1.75,1.26,1.92,1.46-1.05,2.06-.98,1.13,1.49,1.74,1.49,1.12-1.43,1.71-1.52,1.52,1.11,2.08.94.67-1.68,1.22-1.94,1.76.64,2.27.3.16-1.8.62-2.21,1.87.12,2.27-.35-.36-1.77-.02-2.29,1.83-.41,2.08-.97-.84-1.6-.67-2.2,1.64-.91,1.71-1.52-1.27-1.31-1.28-1.92Z"/>
      <circle class="st0" cx="20.25" cy="18.62" r="10.97"/>
      <circle class="st1" cx="20.25" cy="18.62" r="10.14"/>
      <circle class="st2" cx="20.27" cy="18.59" r="8.96"/>
      <g>
        <path class="st3" d="M14,13.64h3.15v1.08h-2l-.04.73h.14c1.43,0,2.03.58,2.03,1.6s-.83,1.71-1.88,1.71c-.98,0-1.62-.45-2.04-1.21l1.05-.65c.26.55.56.79.99.79.39,0,.66-.23.66-.58,0-.39-.31-.58-.87-.58h-1.33l.14-2.89Z"/>
        <path class="st3" d="M21.67,16.13c0,1.5-.61,2.64-1.97,2.64s-1.97-1.13-1.97-2.64.61-2.64,1.97-2.64,1.97,1.13,1.97,2.64ZM18.96,16.13c0,.97.23,1.53.74,1.53s.73-.56.73-1.53-.24-1.52-.73-1.52-.74.56-.74,1.52Z"/>
        <path class="st3" d="M24.5,14.67c0,.68-.5,1.19-1.23,1.19s-1.23-.51-1.23-1.19.5-1.19,1.23-1.19,1.23.51,1.23,1.19ZM26.06,13.63h1.14l-3.66,4.99h-1.14l3.66-4.99ZM23.69,14.67c0-.29-.18-.45-.41-.45s-.41.16-.41.45.18.46.41.46.41-.17.41-.46ZM27.57,17.57c0,.68-.5,1.19-1.23,1.19s-1.23-.51-1.23-1.19.5-1.19,1.23-1.19,1.23.51,1.23,1.19ZM26.76,17.57c0-.29-.18-.45-.41-.45s-.41.16-.41.45.18.46.41.46.41-.17.41-.46Z"/>
      </g>
      <path class="st9" d="M11.42,19.92c.65,4.35,4.41,7.67,8.94,7.63,4.46-.04,8.12-3.35,8.76-7.63H11.42Z"/>
    </g>
  </g>
</svg>