<?xml version="1.0" encoding="UTF-8"?>
<svg xmlns="http://www.w3.org/2000/svg" xmlns:xlink="http://www.w3.org/1999/xlink" version="1.1" viewBox="0 0 42.52 42.52">
  <!-- Generator: Adobe Illustrator 29.2.0, SVG Export Plug-In . SVG Version: 2.1.0 Build 108)  -->
  <defs>
    <style>
      .st0 {
        stroke-width: .28px;
      }

      .st0, .st1 {
        stroke: #263238;
        stroke-linecap: round;
        stroke-linejoin: round;
      }

      .st0, .st1, .st2 {
        fill: #fff;
      }

      .st1 {
        stroke-width: .28px;
      }

      .st3, .st4, .st5 {
        fill: #263238;
      }

      .st6 {
        isolation: isolate;
      }

      .st7 {
        clip-path: url(#clippath-1);
      }

      .st8 {
        fill: #b7fdc8;
      }

      .st9 {
        opacity: .1;
      }

      .st4 {
        opacity: .42;
      }

      .st4, .st5 {
        mix-blend-mode: multiply;
      }

      .st5 {
        opacity: .41;
      }

      .st10 {
        clip-path: url(#clippath);
      }
    </style>
    <clipPath id="clippath">
      <polygon class="st3" points="18.67 25.06 20.96 37.14 23.73 34.41 28.8 34.81 23.73 22.01 18.67 25.06"/>
    </clipPath>
    <clipPath id="clippath-1">
      <polygon class="st3" points="14.83 22.73 10.98 35.25 15.56 33.84 19.01 36.77 20.15 24.43 14.83 22.73"/>
    </clipPath>
  </defs>
  <g class="st6">
    <g id="Calque_1">
      <g class="st9">
        <path class="st3" d="M39.19,23.96c.24-.5-.9-1.07-.75-1.57.16-.5,1.66-1.08,1.72-1.56.07-.48-1.31-.75-1.32-1.22,0-.47,1.31-1.34,1.2-1.79-.11-.45-1.62-.36-1.79-.78-.18-.42.87-1.49.6-1.86-.27-.38-1.8.05-2.15-.28-.35-.33.36-1.52-.05-1.8-.42-.28-1.85.46-2.31.25-.47-.21-.17-1.44-.7-1.58-.53-.15-1.72.83-2.28.77-.57-.07-.69-1.24-1.29-1.24-.6,0-1.49,1.15-2.09,1.22-.6.07-1.17-.93-1.77-.8-.6.13-1.13,1.37-1.74,1.58-.61.2-1.55-.55-2.14-.28-.59.27-.67,1.48-1.23,1.81-.56.33-1.8-.12-2.32.25-.52.38-.15,1.46-.63,1.89-.48.42-1.91.31-2.32.77-.41.46.37,1.33.03,1.81-.33.49-1.87.73-2.12,1.23-.25.51.87,1.08.7,1.59-.17.51-1.68,1.09-1.76,1.59-.08.49,1.29.76,1.3,1.24,0,.48-1.35,1.36-1.25,1.81.1.45,1.63.36,1.82.78.19.42-.9,1.51-.63,1.89.28.38,1.82-.07,2.17.26.35.33-.38,1.53.04,1.8.13.09.38.06.65,0l-3.62,5.05,4.97-1.15,2.63,2.4,2.06-4.58s0,0,.01,0c.17,0,.37-.1.58-.24l-.8,5.11,3.52-2.22,4.95.33-.91-4.73c.19.03.37.03.53-.04.6-.27.65-1.47,1.21-1.79.56-.33,1.83.11,2.34-.27.52-.38.12-1.44.6-1.86.48-.42,1.92-.32,2.32-.77.4-.45-.4-1.3-.07-1.79.33-.48,1.86-.72,2.1-1.22Z"/>
      </g>
      <g>
        <polygon class="st3" points="18.67 25.06 20.96 37.14 23.73 34.41 28.8 34.81 23.73 22.01 18.67 25.06"/>
        <g class="st10">
          <path class="st5" d="M33,18.97c0-.62,1.32-1.35,1.22-1.94s-1.57-.91-1.74-1.48.88-1.66.62-2.21-1.76-.42-2.08-.93.38-1.84-.02-2.29-1.81.09-2.27-.3-.15-1.87-.66-2.2-1.72.6-2.27.35-.67-1.75-1.26-1.92-1.46,1.05-2.06.98-1.13-1.49-1.74-1.49-1.12,1.43-1.71,1.52-1.51-1.11-2.08-.94-.67,1.69-1.22,1.94-1.76-.64-2.27-.31-.16,1.81-.62,2.21-1.87-.12-2.27.35.36,1.77.02,2.29-1.83.41-2.08.97.84,1.6.67,2.2-1.64.9-1.71,1.52,1.26,1.3,1.26,1.92-1.32,1.34-1.22,1.94,1.57.91,1.74,1.48-.88,1.66-.63,2.21,1.76.42,2.1.93-.39,1.84.02,2.29,1.81-.09,2.27.3.15,1.87.66,2.2,1.72-.6,2.27-.35.67,1.75,1.26,1.92,1.46-1.05,2.06-.98,1.13,1.49,1.74,1.49,1.12-1.43,1.71-1.52,1.52,1.11,2.08.94.67-1.68,1.22-1.94,1.76.64,2.27.3.16-1.8.62-2.21,1.87.12,2.27-.35-.36-1.77-.02-2.29,1.83-.41,2.08-.97-.84-1.6-.67-2.2,1.64-.91,1.71-1.52-1.27-1.31-1.28-1.92Z"/>
        </g>
      </g>
      <g>
        <polygon class="st3" points="14.83 22.73 10.98 35.25 15.56 33.84 19.01 36.77 20.15 24.43 14.83 22.73"/>
        <g class="st7">
          <path class="st4" d="M33.16,18.97c0-.62,1.32-1.35,1.22-1.94s-1.57-.91-1.74-1.48.88-1.66.62-2.21-1.76-.42-2.08-.93.38-1.84-.02-2.29-1.81.09-2.27-.3-.15-1.87-.66-2.2-1.72.6-2.27.35-.67-1.75-1.26-1.92-1.46,1.05-2.06.98-1.13-1.49-1.74-1.49-1.12,1.43-1.71,1.52-1.51-1.11-2.08-.94-.67,1.69-1.22,1.94-1.76-.64-2.27-.31-.16,1.81-.62,2.21-1.87-.12-2.27.35.36,1.77.02,2.29-1.83.41-2.08.97.84,1.6.67,2.2-1.64.9-1.71,1.52,1.26,1.3,1.26,1.92-1.32,1.34-1.22,1.94,1.57.91,1.74,1.48-.88,1.66-.63,2.21,1.76.42,2.1.93-.39,1.84.02,2.29,1.81-.09,2.27.3.15,1.87.66,2.2,1.72-.6,2.27-.35.67,1.75,1.26,1.92,1.46-1.05,2.06-.98,1.13,1.49,1.74,1.49,1.12-1.43,1.71-1.52,1.52,1.11,2.08.94.67-1.68,1.22-1.94,1.76.64,2.27.3.16-1.8.62-2.21,1.87.12,2.27-.35-.36-1.77-.02-2.29,1.83-.41,2.08-.97-.84-1.6-.67-2.2,1.64-.91,1.71-1.52-1.27-1.31-1.28-1.92Z"/>
        </g>
      </g>
      <path class="st3" d="M31.53,17.5c0-.62,1.32-1.35,1.22-1.94s-1.57-.91-1.74-1.48.88-1.66.62-2.21-1.76-.42-2.08-.93.38-1.84-.02-2.29-1.81.09-2.27-.3-.15-1.87-.66-2.2-1.72.6-2.27.35-.67-1.75-1.26-1.92-1.46,1.05-2.06.98-1.13-1.49-1.74-1.49-1.12,1.43-1.71,1.52-1.51-1.11-2.08-.94-.67,1.69-1.22,1.94-1.76-.64-2.27-.31-.16,1.81-.62,2.21-1.87-.12-2.27.35.36,1.77.02,2.29-1.83.41-2.08.97.84,1.6.67,2.2-1.64.9-1.71,1.52,1.26,1.3,1.26,1.92-1.32,1.34-1.22,1.94,1.57.91,1.74,1.48-.88,1.66-.63,2.21,1.76.42,2.1.93-.39,1.84.02,2.29,1.81-.09,2.27.3.15,1.87.66,2.2,1.72-.6,2.27-.35.67,1.75,1.26,1.92,1.46-1.05,2.06-.98,1.13,1.49,1.74,1.49,1.12-1.43,1.71-1.52,1.52,1.11,2.08.94.67-1.68,1.22-1.94,1.76.64,2.27.3.16-1.8.62-2.21,1.87.12,2.27-.35-.36-1.77-.02-2.29,1.83-.41,2.08-.97-.84-1.6-.67-2.2,1.64-.91,1.71-1.52-1.27-1.31-1.28-1.92Z"/>
      <circle class="st0" cx="19.36" cy="17.61" r="10.97"/>
      <circle class="st1" cx="19.36" cy="17.61" r="10.14"/>
      <circle class="st2" cx="19.37" cy="17.58" r="8.96"/>
      <circle class="st2" cx="19.42" cy="17.74" r="8.9"/>
      <circle class="st8" cx="19.45" cy="17.74" r="8.63"/>
      <path class="st3" d="M25.29,15.18l-6.93,7.01c-.25.26-.6.4-.96.4-.02,0-.04,0-.06,0-.38-.02-.74-.2-.98-.49l-2.83-3.46c-.47-.58-.38-1.42.19-1.9.58-.47,1.42-.38,1.9.19l1.88,2.3,5.88-5.95c.52-.53,1.38-.53,1.9-.01.53.52.53,1.38,0,1.9h0Z"/>
    </g>
  </g>
</svg>