<?xml version="1.0" encoding="UTF-8"?>
<svg xmlns="http://www.w3.org/2000/svg" xmlns:xlink="http://www.w3.org/1999/xlink" version="1.1" viewBox="0 0 45.37 45.37">
  <!-- Generator: Adobe Illustrator 29.2.0, SVG Export Plug-In . SVG Version: 2.1.0 Build 108)  -->
  <defs>
    <style>
      .st0, .st1, .st2, .st3 {
        stroke: #263238;
        stroke-linecap: round;
        stroke-linejoin: round;
      }

      .st0, .st1, .st2, .st4 {
        fill: #fff;
      }

      .st0, .st3 {
        stroke-width: .41px;
      }

      .st1 {
        stroke-width: .28px;
      }

      .st2 {
        stroke-width: .28px;
      }

      .st3 {
        fill: #b7fdc9;
      }

      .st5, .st6, .st7 {
        fill: #263238;
      }

      .st8 {
        fill: #3a3a3a;
      }

      .st9 {
        isolation: isolate;
      }

      .st10 {
        clip-path: url(#clippath-1);
      }

      .st11 {
        clip-path: url(#clippath-2);
      }

      .st12 {
        fill: #b7fdc8;
      }

      .st13 {
        opacity: .1;
      }

      .st6 {
        opacity: .42;
      }

      .st6, .st7 {
        mix-blend-mode: multiply;
      }

      .st7 {
        opacity: .41;
      }

      .st14 {
        clip-path: url(#clippath);
      }
    </style>
    <clipPath id="clippath">
      <polygon class="st5" points="21.01 27.06 23.3 39.13 26.08 36.41 31.14 36.81 26.08 24.01 21.01 27.06"/>
    </clipPath>
    <clipPath id="clippath-1">
      <polygon class="st5" points="17.17 24.73 13.32 37.25 17.91 35.84 21.35 38.77 22.49 26.43 17.17 24.73"/>
    </clipPath>
    <clipPath id="clippath-2">
      <circle class="st12" cx="21.79" cy="19.73" r="8.63"/>
    </clipPath>
  </defs>
  <g class="st9">
    <g id="Calque_1">
      <g class="st13">
        <path class="st5" d="M41.53,25.96c.24-.5-.9-1.07-.75-1.57.16-.5,1.66-1.08,1.72-1.56.07-.48-1.31-.75-1.32-1.22,0-.47,1.31-1.34,1.2-1.79-.11-.45-1.62-.36-1.79-.78-.18-.42.87-1.49.6-1.86-.27-.38-1.8.05-2.15-.28-.35-.33.36-1.52-.05-1.8-.42-.28-1.85.46-2.31.25-.47-.21-.17-1.44-.7-1.58-.53-.15-1.72.83-2.28.77-.57-.07-.69-1.24-1.29-1.24-.6,0-1.49,1.15-2.09,1.22-.6.07-1.17-.93-1.77-.8-.6.13-1.13,1.37-1.74,1.58-.61.2-1.55-.55-2.14-.28-.59.27-.67,1.48-1.23,1.81-.56.33-1.8-.12-2.32.25-.52.38-.15,1.46-.63,1.89-.48.42-1.91.31-2.32.77-.41.46.37,1.33.03,1.81-.33.49-1.87.73-2.12,1.23-.25.51.87,1.08.7,1.59-.17.51-1.68,1.09-1.76,1.59-.08.49,1.29.76,1.3,1.24,0,.48-1.35,1.36-1.25,1.81.1.45,1.63.36,1.82.78.19.42-.9,1.51-.63,1.89.28.38,1.82-.07,2.17.26.35.33-.38,1.53.04,1.8.13.09.38.06.65,0l-3.62,5.05,4.97-1.15,2.63,2.4,2.06-4.58s0,0,.01,0c.17,0,.37-.1.58-.24l-.8,5.11,3.52-2.22,4.95.33-.91-4.73c.19.03.37.03.53-.04.6-.27.65-1.47,1.21-1.79.56-.33,1.83.11,2.34-.27.52-.38.12-1.44.6-1.86.48-.42,1.92-.32,2.32-.77.4-.45-.4-1.3-.07-1.79.33-.48,1.86-.72,2.1-1.22Z"/>
      </g>
      <g>
        <polygon class="st5" points="21.01 27.06 23.3 39.13 26.08 36.41 31.14 36.81 26.08 24.01 21.01 27.06"/>
        <g class="st14">
          <path class="st7" d="M35.35,20.97c0-.62,1.32-1.35,1.22-1.94s-1.57-.91-1.74-1.48.88-1.66.62-2.21-1.76-.42-2.08-.93.38-1.84-.02-2.29-1.81.09-2.27-.3-.15-1.87-.66-2.2-1.72.6-2.27.35-.67-1.75-1.26-1.92-1.46,1.05-2.06.98-1.13-1.49-1.74-1.49-1.12,1.43-1.71,1.52-1.51-1.11-2.08-.94-.67,1.69-1.22,1.94-1.76-.64-2.27-.31-.16,1.81-.62,2.21-1.87-.12-2.27.35.36,1.77.02,2.29-1.83.41-2.08.97.84,1.6.67,2.2-1.64.9-1.71,1.52,1.26,1.3,1.26,1.92-1.32,1.34-1.22,1.94,1.57.91,1.74,1.48-.88,1.66-.63,2.21,1.76.42,2.1.93-.39,1.84.02,2.29,1.81-.09,2.27.3.15,1.87.66,2.2,1.72-.6,2.27-.35.67,1.75,1.26,1.92,1.46-1.05,2.06-.98,1.13,1.49,1.74,1.49,1.12-1.43,1.71-1.52,1.52,1.11,2.08.94.67-1.68,1.22-1.94,1.76.64,2.27.3.16-1.8.62-2.21,1.87.12,2.27-.35-.36-1.77-.02-2.29,1.83-.41,2.08-.97-.84-1.6-.67-2.2,1.64-.91,1.71-1.52-1.27-1.31-1.28-1.92Z"/>
        </g>
      </g>
      <g>
        <polygon class="st5" points="17.17 24.73 13.32 37.25 17.91 35.84 21.35 38.77 22.49 26.43 17.17 24.73"/>
        <g class="st10">
          <path class="st6" d="M35.5,20.97c0-.62,1.32-1.35,1.22-1.94s-1.57-.91-1.74-1.48.88-1.66.62-2.21-1.76-.42-2.08-.93.38-1.84-.02-2.29c-.4-.46-1.81.09-2.27-.3s-.15-1.87-.66-2.2-1.72.6-2.27.35-.67-1.75-1.26-1.92-1.46,1.05-2.06.98-1.13-1.49-1.74-1.49-1.12,1.43-1.71,1.52-1.51-1.11-2.08-.94-.67,1.69-1.22,1.94-1.76-.64-2.27-.31-.16,1.81-.62,2.21-1.87-.12-2.27.35.36,1.77.02,2.29-1.83.41-2.08.97.84,1.6.67,2.2-1.64.9-1.71,1.52,1.26,1.3,1.26,1.92-1.32,1.34-1.22,1.94,1.57.91,1.74,1.48-.88,1.66-.63,2.21,1.76.42,2.1.93-.39,1.84.02,2.29,1.81-.09,2.27.3.15,1.87.66,2.2,1.72-.6,2.27-.35.67,1.75,1.26,1.92,1.46-1.05,2.06-.98,1.13,1.49,1.74,1.49,1.12-1.43,1.71-1.52,1.52,1.11,2.08.94.67-1.68,1.22-1.94,1.76.64,2.27.3.16-1.8.62-2.21,1.87.12,2.27-.35-.36-1.77-.02-2.29,1.83-.41,2.08-.97-.84-1.6-.67-2.2,1.64-.91,1.71-1.52-1.27-1.31-1.28-1.92Z"/>
        </g>
      </g>
      <path class="st5" d="M33.88,19.5c0-.62,1.32-1.35,1.22-1.94s-1.57-.91-1.74-1.48.88-1.66.62-2.21-1.76-.42-2.08-.93.38-1.84-.02-2.29-1.81.09-2.27-.3-.15-1.87-.66-2.2-1.72.6-2.27.35-.67-1.75-1.26-1.92-1.46,1.05-2.06.98-1.13-1.49-1.74-1.49-1.12,1.43-1.71,1.52-1.51-1.11-2.08-.94-.67,1.69-1.22,1.94-1.76-.64-2.27-.31-.16,1.81-.62,2.21-1.87-.12-2.27.35.36,1.77.02,2.29-1.83.41-2.08.97.84,1.6.67,2.2-1.64.9-1.71,1.52,1.26,1.3,1.26,1.92-1.32,1.34-1.22,1.94,1.57.91,1.74,1.48-.88,1.66-.63,2.21,1.76.42,2.1.93-.39,1.84.02,2.29,1.81-.09,2.27.3.15,1.87.66,2.2,1.72-.6,2.27-.35.67,1.75,1.26,1.92,1.46-1.05,2.06-.98,1.13,1.49,1.74,1.49,1.12-1.43,1.71-1.52,1.52,1.11,2.08.94.67-1.68,1.22-1.94,1.76.64,2.27.3.16-1.8.62-2.21,1.87.12,2.27-.35-.36-1.77-.02-2.29,1.83-.41,2.08-.97-.84-1.6-.67-2.2,1.64-.91,1.71-1.52-1.27-1.31-1.28-1.92Z"/>
      <circle class="st1" cx="21.7" cy="19.61" r="10.97"/>
      <circle class="st2" cx="21.71" cy="19.61" r="10.14"/>
      <circle class="st4" cx="21.72" cy="19.58" r="8.96"/>
      <circle class="st4" cx="21.76" cy="19.73" r="8.9"/>
      <g>
        <circle class="st12" cx="21.79" cy="19.73" r="8.63"/>
        <g class="st11">
          <g>
            <path class="st0" d="M21.4,14.42s.78-.4,1.47-.25,3.19,1.78,3.19,1.78l5.32-.6,1.03,4.41-11.01,4.78v-10.12Z"/>
            <path class="st0" d="M12.21,16.4s5.16-.22,5.81-.55,2.21-1.71,2.54-1.68,1.51.25,1.51.25l-.48,1.43s2.36,1.43,3.06,1.96,2.91,2.89,3.02,3.47-.07,1.26-.35,1.48-1.28-.23-1.28-.23c.08.36,0,.74-.23,1.03-.38.5-1.26.33-1.26.33,0,0-.08.83-.48.98s-1.3-.3-1.3-.3c0,0-.27.7-.6.78s-1.26-.48-1.26-.48c0,0-4.83-3.23-5.74-3.66h-3.34s.38-4.8.38-4.8Z"/>
            <path class="st3" d="M22.78,24.56s-.03-.07-.07-.18c-.06-.14-.13-.27-.2-.4-.13-.18-.23-.37-.31-.57.18.14.32.31.42.51.08.13.14.28.18.44.03.13,0,.2,0,.2Z"/>
            <path class="st3" d="M24.45,24.08c-.19-.24-.36-.49-.51-.76-.28-.42-.57-.7-.55-.72.27.16.49.38.65.65.19.25.33.53.41.83Z"/>
            <path class="st3" d="M26.06,22.63s-.15-.43-.43-.9-.6-.78-.57-.81c.55.41.92,1.02,1,1.7Z"/>
            <path class="st3" d="M24.88,19.49c.16.44.18.91.06,1.36-.04-.45-.07-.9-.06-1.36Z"/>
            <path class="st0" d="M22.86,15.85l-.46.49-1-.07s-.63,1.66-2.36.95c0,0,.63-2.01.85-2.26s2.32-.8,2.32-.8"/>
            <path class="st0" d="M15.18,21.21s-.29.22,0,.75,1.07.15,1.32,0c0,0-.38.88.1,1.16.32.17.69.24,1.05.2,0,0-.03.53.65.88s.85,0,.85,0c0,0,.07.88.85.95s1.05-.19,1.05-.19l-.35-.52s.45-.93.1-1.32c-.24-.25-.58-.37-.93-.35,0,0,.15-.81-.29-1.04-.39-.24-.89-.12-1.14.26-.02.03-.04.07-.05.1,0,0-.05-.89-.7-.87-.38,0-.74.16-1.01.42l-1.52-.43Z"/>
            <path class="st3" d="M18.4,22.08c-.06.24-.16.47-.3.67-.11.22-.26.42-.44.59.08-.23.2-.45.34-.65.11-.22.24-.42.4-.61Z"/>
            <path class="st3" d="M19.9,22.87c-.16.5-.46.93-.87,1.27.12-.23.26-.44.42-.64.13-.22.28-.43.44-.63Z"/>
          </g>
        </g>
      </g>
    </g>
  </g>
</svg>