<?xml version="1.0" encoding="UTF-8"?>
<svg id="Calque_1" xmlns="http://www.w3.org/2000/svg" version="1.1" viewBox="0 0 45.37 45.37">
  <!-- Generator: Adobe Illustrator 29.2.0, SVG Export Plug-In . SVG Version: 2.1.0 Build 108)  -->
  <defs>
    <style>
      .st0 {
        opacity: .3;
      }

      .st0, .st1, .st2 {
        isolation: isolate;
      }

      .st1 {
        opacity: .1;
      }

      .st2 {
        opacity: .05;
      }

      .st3 {
        fill: #b868c6;
      }

      .st4 {
        stroke-width: .28px;
      }

      .st4, .st5, .st6 {
        stroke: #263238;
        stroke-miterlimit: 10;
      }

      .st4, .st7 {
        fill: #b7fdc8;
      }

      .st8 {
        fill: #263238;
      }

      .st9 {
        fill: #3a3a3a;
      }

      .st5 {
        fill: none;
      }

      .st5, .st6 {
        stroke-width: .3px;
      }

      .st10 {
        fill: #dd5942;
      }

      .st11 {
        opacity: .1;
      }

      .st6 {
        fill: #fff;
      }
    </style>
  </defs>
  <g class="st11">
    <path class="st8" d="M40.16,29.4s-.05-.05-.08-.08c-.03-.03-.05-.07-.1-.1l-5.77-3.43.14-11.42s0-.03,0-.04h0s-.02-.05-.02-.07c-.01-.06-.03-.13-.07-.19-.07-.13-.16-.25-.31-.33-.41-.23-.93-.34-1.51-.34h0c-.56,0-1.17.1-1.78.31,0,0-.01,0-.02,0,0,0,0,0,0,0-.02,0-.04.02-.05.03-.12.05-.24.11-.34.16-.05.03-.1.06-.15.1-.08.06-.16.12-.22.18-.03.03-.07.05-.1.08l-9.41,11.43-8.6,3.39s-.01,0-.02.01c-.23.07-.44.22-.55.4l-.34.8c-.06.19.02.36.2.43l10.61,6.33c.24.12.52.17.84.17h0c.31.02.64-.04.97-.16l15.83-6.24c.24-.07.46-.23.56-.42h0s.31-.78.31-.78c.04-.09.03-.17-.01-.25Z"/>
  </g>
  <g id="freepik--Cone--inject-7">
    <path class="st4" d="M6.87,27.19l13.33-7.69c.56-.29,1.23-.29,1.79,0l13.29,7.69c.21.09.36.28.39.51v.96c-.02.23-.17.43-.39.52l-13.32,7.69c-.56.28-1.23.28-1.79,0l-13.32-7.69c-.22-.09-.36-.29-.39-.52v-.97c.03-.23.19-.42.4-.5Z"/>
    <path class="st0" d="M21.09,19.28v17.81c.31,0,.62-.07.9-.21l13.3-7.69c.22-.09.37-.29.39-.52v-.97c-.02-.23-.17-.43-.39-.51l-13.32-7.69c-.27-.15-.57-.22-.88-.22Z"/>
    <path class="st3" d="M21.98,35.91l13.32-7.69c.5-.29.5-.75,0-1.03l-13.32-7.69c-.56-.29-1.23-.29-1.79,0l-13.32,7.69c-.49.29-.49.75,0,1.03l13.33,7.69c.56.28,1.22.28,1.78,0Z"/>
    <path class="st10" d="M21.98,35.91l13.32-7.69c.5-.29.5-.75,0-1.03l-13.32-7.69c-.56-.29-1.23-.29-1.79,0l-13.32,7.69c-.49.29-.49.75,0,1.03l13.33,7.69c.56.28,1.22.28,1.78,0Z"/>
    <path class="st4" d="M21.98,35.91l13.32-7.69c.5-.29.5-.75,0-1.03l-13.32-7.69c-.56-.29-1.23-.29-1.79,0l-13.32,7.69c-.49.29-.49.75,0,1.03l13.33,7.69c.56.28,1.22.28,1.78,0Z"/>
    <path class="st2" d="M21.09,19.28c.31,0,.62.07.9.21l13.32,7.69c.5.29.5.75,0,1.03l-13.32,7.69c-.28.15-.58.22-.9.21v-16.84Z"/>
    <path class="st6" d="M12.85,26.72h0l5.89-17.7h0c.13-.3.35-.54.64-.68,1.05-.54,2.3-.54,3.36,0,.29.14.52.39.64.68h0v.02h0l5.92,17.69h0c.54,1.55-.22,3.2-2.29,4.4-3.28,1.89-8.59,1.89-11.87,0-2.07-1.18-2.83-2.85-2.3-4.4Z"/>
    <path class="st7" d="M12.85,26.72h0l5.89-17.7h0c.13-.3.35-.54.64-.68,1.05-.54,2.3-.54,3.36,0,.29.14.52.39.64.68h0v.02h0l5.92,17.69h0c.54,1.55-.22,3.2-2.29,4.4-3.28,1.89-8.59,1.89-11.87,0-2.07-1.18-2.83-2.85-2.3-4.4Z"/>
    <path class="st8" d="M17.06,14.11v-.02l.84-2.52c-.14.46,0,.95.37,1.26.16.15.33.28.53.39,1.44.73,3.14.73,4.58,0,.19-.11.37-.24.52-.39.36-.32.5-.81.37-1.27l.84,2.52h0c.14.43.07.89-.19,1.26-.24.35-.56.65-.94.85-.32.18-.66.32-1.02.42-1.23.35-2.53.35-3.76,0-.35-.1-.69-.24-1.01-.42-.38-.2-.7-.5-.94-.85-.24-.37-.31-.83-.17-1.25Z"/>
    <path class="st8" d="M13.69,24.25h0l.84-2.52c-.13.41-.15.85-.05,1.26.12.48.37.92.71,1.27.34.36.73.67,1.16.91,2.61,1.51,6.83,1.51,9.44,0,.43-.24.82-.55,1.16-.91.34-.36.59-.79.71-1.27.11-.42.09-.86-.05-1.26l.84,2.51v.03c.14.41.17.84.09,1.26-.17.96-.89,1.89-2.16,2.63-2.94,1.7-7.72,1.7-10.66,0-1.27-.73-1.99-1.67-2.16-2.63-.07-.43-.02-.88.13-1.29Z"/>
    <path class="st8" d="M15.38,19.18h0l.84-2.52c-.14.42-.11.87.08,1.27.28.54.71.98,1.25,1.27l.03.02c1.93,1.12,5.07,1.12,7.01,0l.04-.02c.53-.29.97-.73,1.25-1.27.19-.4.22-.85.08-1.27l.84,2.52v.02c.14.41.14.86,0,1.27-.19.5-.5.94-.92,1.26-.21.17-.44.33-.68.47-.69.39-1.45.66-2.23.8-1.24.24-2.51.24-3.76,0-.78-.14-1.54-.41-2.24-.8-.24-.14-.46-.29-.67-.47-.42-.33-.74-.77-.92-1.26-.14-.42-.14-.87,0-1.29Z"/>
    <path class="st1" d="M21.09,7.91c.58-.02,1.16.12,1.68.39.29.14.52.39.64.68h0v.02h0l5.91,17.72h0c.54,1.55-.22,3.2-2.29,4.4-1.83.97-3.87,1.46-5.94,1.42h.05c2.66-.46,4.48-2.96,4.09-5.63l-2.45-17.62-1.69-1.37Z"/>
    <path class="st3" d="M22.76,10.25c.93-.54.93-1.4,0-1.93-1.05-.54-2.3-.54-3.36,0-.93.53-.93,1.4,0,1.93,1.06.53,2.3.53,3.36,0Z"/>
    <path class="st7" d="M22.76,10.25c.93-.54.93-1.4,0-1.93-1.05-.54-2.3-.54-3.36,0-.93.53-.93,1.4,0,1.93,1.06.53,2.3.53,3.36,0Z"/>
    <path class="st5" d="M22.76,10.25c.93-.54.93-1.4,0-1.93-1.05-.54-2.3-.54-3.36,0-.93.53-.93,1.4,0,1.93,1.06.53,2.3.53,3.36,0Z"/>
    <path class="st5" d="M12.85,26.72h0l5.89-17.7h0c.13-.3.35-.54.64-.68,1.05-.54,2.3-.54,3.36,0,.29.14.52.39.64.68h0v.02h0l5.92,17.69h0c.54,1.55-.22,3.2-2.29,4.4-3.28,1.89-8.59,1.89-11.87,0-2.07-1.18-2.83-2.85-2.3-4.4Z"/>
  </g>
</svg>