<?xml version="1.0" encoding="UTF-8"?>
<svg xmlns="http://www.w3.org/2000/svg" version="1.1" viewBox="0 0 45.37 45.37">
  <!-- Generator: Adobe Illustrator 29.2.0, SVG Export Plug-In . SVG Version: 2.1.0 Build 108)  -->
  <defs>
    <style>
      .st0 {
        fill: #b7fdc9;
        stroke-width: .28px;
      }

      .st0, .st1 {
        stroke: #263238;
        stroke-linecap: round;
        stroke-linejoin: round;
      }

      .st2 {
        opacity: .2;
      }

      .st2, .st3 {
        isolation: isolate;
      }

      .st4 {
        opacity: .25;
      }

      .st4, .st5 {
        mix-blend-mode: multiply;
      }

      .st5 {
        opacity: .1;
      }

      .st6 {
        fill: #263238;
      }

      .st7 {
        fill: #3a3a3a;
      }

      .st8 {
        fill: #fff;
      }

      .st1 {
        fill: #b7fdc8;
        stroke-width: .3px;
      }
    </style>
  </defs>
  <g class="st3">
    <g id="Calque_1">
      <path class="st5" d="M28.24,31.5c-6.07,1.84-15.4.66-15.4.66l6.09-2.8h0c-4.42-3.73-4.98-10.33-1.25-14.75,3.73-4.42,10.33-4.98,14.75-1.25,4.42,3.73,4.98,10.33,1.25,14.75-1.39,1.65-3.27,2.83-5.36,3.38"/>
      <path class="st8" d="M26.97,25.36c-4.92,4-14,6.45-14,6.45l4.58-4.9h0c-5.5-1.77-8.53-7.67-6.75-13.17,1.77-5.5,7.67-8.53,13.17-6.75,5.5,1.77,8.53,7.67,6.75,13.17-.66,2.06-1.95,3.86-3.68,5.16"/>
      <path class="st0" d="M30.72,18.77c-.66,2.06-1.95,3.86-3.68,5.16l-.07.05c-4.92,4-14,6.45-14,6.45v1.39s9.08-2.45,14-6.45l.07-.05c1.73-1.3,3.01-3.1,3.68-5.16"/>
      <path class="st2" d="M30.72,18.77c-.66,2.06-1.95,3.86-3.68,5.16l-.07.05c-4.92,4-14,6.45-14,6.45v1.39s9.08-2.45,14-6.45l.07-.05c1.73-1.3,3.01-3.1,3.68-5.16"/>
      <path class="st1" d="M30.72,18.77c-.66,2.06-1.95,3.86-3.68,5.16l-.07.05c-4.92,4-14,6.45-14,6.45v1.39s9.08-2.45,14-6.45l.07-.05c1.73-1.3,3.01-3.1,3.68-5.16,0,0,.38-1.24.47-2.4s0-1.51,0-1.51c0,0-.11,1.16-.25,1.69s-.23.82-.23.82Z"/>
      <path class="st4" d="M30.72,18.77c-.66,2.06-1.95,3.86-3.68,5.16l-.07.05c-4.92,4-14,6.45-14,6.45v1.39s9.08-2.45,14-6.45l.07-.05c1.73-1.3,3.01-3.1,3.68-5.16,0,0,.38-1.24.47-2.4s0-1.51,0-1.51c0,0-.11,1.16-.25,1.69s-.23.82-.23.82Z"/>
      <path class="st1" d="M26.97,23.97c-4.92,4-14,6.45-14,6.45l4.58-4.9h0c-5.5-1.77-8.53-7.67-6.75-13.17,1.77-5.5,7.67-8.53,13.17-6.75,5.5,1.77,8.53,7.67,6.75,13.17-.66,2.06-1.95,3.86-3.68,5.16"/>
      <g>
        <path class="st6" d="M17.93,12.61c.22,0,.41.08.57.23s.24.35.24.57-.08.41-.24.57c-.15.16-.34.23-.57.23s-.41-.08-.57-.23c-.16-.16-.23-.35-.23-.57s.08-.41.23-.57c.16-.15.35-.23.57-.23ZM17.93,16.13c.22,0,.41.08.57.23.16.16.24.35.24.57s-.08.41-.24.57-.34.23-.57.23-.41-.08-.57-.23c-.16-.16-.23-.35-.23-.57s.08-.41.23-.57c.15-.16.34-.23.57-.23Z"/>
        <path class="st6" d="M22.23,10.42c.19-.11.39-.14.61-.09.21.05.38.17.49.36.77,1.29,1.16,2.79,1.16,4.49s-.39,3.2-1.16,4.49c-.15.26-.38.39-.68.39-.15,0-.29-.04-.42-.12-.19-.11-.31-.28-.36-.49-.05-.21-.03-.42.09-.61.62-1.03.93-2.25.93-3.66s-.31-2.64-.93-3.67c-.11-.19-.14-.39-.09-.61.05-.21.17-.38.36-.49Z"/>
      </g>
    </g>
  </g>
</svg>