<?xml version="1.0" encoding="UTF-8" standalone="no"?>
<svg
   xmlns:i="http://ns.adobe.com/AdobeIllustrator/10.0/"
   xmlns:dc="http://purl.org/dc/elements/1.1/"
   xmlns:cc="http://creativecommons.org/ns#"
   xmlns:rdf="http://www.w3.org/1999/02/22-rdf-syntax-ns#"
   xmlns:svg="http://www.w3.org/2000/svg"
   xmlns="http://www.w3.org/2000/svg"
   xmlns:sodipodi="http://sodipodi.sourceforge.net/DTD/sodipodi-0.dtd"
   xmlns:inkscape="http://www.inkscape.org/namespaces/inkscape"
   version="1.1"
   x="0px"
   y="0px"
   viewBox="0 0 283.46 283.46"
   enable-background="new 0 0 283.46 283.46"
   xml:space="preserve"
   id="svg4236"
   inkscape:version="0.91 r13725"
   sodipodi:docname="cancel.svg"><metadata
     id="metadata4252"><rdf:RDF><cc:Work
         rdf:about=""><dc:format>image/svg+xml</dc:format><dc:type
           rdf:resource="http://purl.org/dc/dcmitype/StillImage" /></cc:Work></rdf:RDF></metadata><defs
     id="defs4250" /><sodipodi:namedview
     pagecolor="#ffffff"
     bordercolor="#666666"
     borderopacity="1"
     objecttolerance="10"
     gridtolerance="10"
     guidetolerance="10"
     inkscape:pageopacity="0"
     inkscape:pageshadow="2"
     inkscape:window-width="1366"
     inkscape:window-height="744"
     id="namedview4248"
     showgrid="false"
     inkscape:zoom="0.83256899"
     inkscape:cx="141.73"
     inkscape:cy="141.73"
     inkscape:window-x="0"
     inkscape:window-y="24"
     inkscape:window-maximized="1"
     inkscape:current-layer="svg4236" /><g
     style="stroke:#abb7b7;stroke-opacity:1"
     id="g4240"
     i:extraneous="self"><g
       style="stroke:#abb7b7;stroke-opacity:1"
       id="g4242"><path
         inkscape:connector-curvature="0"
         style="fill:#abb7b7;stroke:none;stroke-opacity:1;fill-opacity:1"
         id="path4244"
         d="m 141.73,0.003 c -78.148,0 -141.732,63.583 -141.732,141.732 0,78.149 63.584,141.722 141.732,141.722 78.149,0 141.733,-63.573 141.733,-141.722 C 283.463,63.586 219.879,0.003 141.73,0.003 Z m 0,262.565 c -66.623,0 -120.844,-54.21 -120.844,-120.833 0,-66.633 54.221,-120.844 120.844,-120.844 66.624,0 120.844,54.21 120.844,120.844 0,66.623 -54.22,120.833 -120.844,120.833 z" /><path
         inkscape:connector-curvature="0"
         style="fill:#abb7b7;stroke:none;stroke-opacity:1;fill-opacity:1"
         id="path4246"
         d="m 156.498,141.725 40.441,-40.441 c 4.08,-4.08 4.08,-10.689 0,-14.769 -4.08,-4.08 -10.689,-4.08 -14.768,0 l -40.442,40.441 -40.441,-40.441 c -4.08,-4.08 -10.689,-4.08 -14.769,0 -4.08,4.08 -4.08,10.689 0,14.769 l 40.441,40.441 -40.45,40.451 c -4.08,4.08 -4.08,10.689 0,14.77 2.04,2.039 4.712,3.06 7.385,3.06 2.672,0 5.344,-1.021 7.384,-3.06 l 40.451,-40.451 40.452,40.451 c 2.039,2.039 4.711,3.06 7.385,3.06 2.672,0 5.344,-1.021 7.383,-3.06 4.08,-4.08 4.08,-10.689 0,-14.77 l -40.452,-40.451 z" /></g></g></svg>